solid ac-cube
  facet normal 0.0000 0.0000 1.0000
    outer loop
      vertex -10 -10 -10
      vertex 10 -10 -10
      vertex 10 10 -10
    endloop
  endfacet
  facet normal 0.0000 0.0000 1.0000
    outer loop
      vertex -10 -10 -10
      vertex 10 10 -10
      vertex -10 10 -10
    endloop
  endfacet
  facet normal 0.0000 0.0000 -1.0000
    outer loop
      vertex -10 -10 10
      vertex 10 10 10
      vertex 10 -10 10
    endloop
  endfacet
  facet normal 0.0000 0.0000 -1.0000
    outer loop
      vertex -10 -10 10
      vertex -10 10 10
      vertex 10 10 10
    endloop
  endfacet
  facet normal 0.0000 1.0000 0.0000
    outer loop
      vertex -10 -10 -10
      vertex -10 -10 10
      vertex 10 -10 10
    endloop
  endfacet
  facet normal 0.0000 1.0000 0.0000
    outer loop
      vertex -10 -10 -10
      vertex 10 -10 10
      vertex 10 -10 -10
    endloop
  endfacet
  facet normal 0.0000 -1.0000 0.0000
    outer loop
      vertex -10 10 -10
      vertex 10 10 -10
      vertex 10 10 10
    endloop
  endfacet
  facet normal 0.0000 -1.0000 0.0000
    outer loop
      vertex -10 10 -10
      vertex 10 10 10
      vertex -10 10 10
    endloop
  endfacet
  facet normal -1.0000 0.0000 0.0000
    outer loop
      vertex 10 -10 -10
      vertex 10 -10 10
      vertex 10 10 10
    endloop
  endfacet
  facet normal -1.0000 0.0000 0.0000
    outer loop
      vertex 10 -10 -10
      vertex 10 10 10
      vertex 10 10 -10
    endloop
  endfacet
  facet normal 1.0000 0.0000 0.0000
    outer loop
      vertex -10 -10 -10
      vertex -10 10 -10
      vertex -10 10 10
    endloop
  endfacet
  facet normal 1.0000 0.0000 0.0000
    outer loop
      vertex -10 -10 -10
      vertex -10 10 10
      vertex -10 -10 10
    endloop
  endfacet
endsolid ac-cube
