<!-- Created with Inkscape (http://www.inkscape.org/) -->
<svg xmlns:rdf="http://www.w3.org/1999/02/22-rdf-syntax-ns#" xmlns="http://www.w3.org/2000/svg" height="141.87" width="339.36" version="1.1" xmlns:cc="http://creativecommons.org/ns#" xmlns:dc="http://purl.org/dc/elements/1.1/">
	<metadata>
		<rdf:RDF>
			<cc:Work rdf:about="">
				<dc:format>image/svg+xml</dc:format>
				<dc:type rdf:resource="http://purl.org/dc/dcmitype/StillImage"/>
				<dc:title/>
			</cc:Work>
		</rdf:RDF>
	</metadata>
	<g transform="translate(1.2657,-603.82)">
		<path stroke-linejoin="miter" d="m11,610.09,0,110" stroke="#8a9ee1" stroke-linecap="butt" stroke-miterlimit="4" stroke-dasharray="none" stroke-width="0.5315" fill="none"/>
		<path stroke-linejoin="miter" d="m16,720.09,0-110" stroke="#8a9ee1" stroke-linecap="butt" stroke-miterlimit="4" stroke-dasharray="none" stroke-width="0.5315" fill="none"/>
		<path stroke-linejoin="miter" d="m21,610.09,0,110" stroke="#8a9ee1" stroke-linecap="butt" stroke-miterlimit="4" stroke-dasharray="none" stroke-width="0.5315" fill="none"/>
		<path stroke-linejoin="miter" d="m26,720.09,0-110" stroke="#8a9ee1" stroke-linecap="butt" stroke-miterlimit="4" stroke-dasharray="none" stroke-width="0.5315" fill="none"/>
		<path stroke-linejoin="miter" d="m31,720.09,0-110" stroke="#8a9ee1" stroke-linecap="butt" stroke-miterlimit="4" stroke-dasharray="none" stroke-width="0.5315" fill="none"/>
		<path stroke-linejoin="miter" d="m36,610.09,0,110" stroke="#8a9ee1" stroke-linecap="butt" stroke-miterlimit="4" stroke-dasharray="none" stroke-width="0.5315" fill="none"/>
		<path stroke-linejoin="miter" d="m41,610.09,0,110" stroke="#8a9ee1" stroke-linecap="butt" stroke-miterlimit="4" stroke-dasharray="none" stroke-width="0.5315" fill="none"/>
		<path stroke-linejoin="miter" d="m46,720.09,0-110" stroke="#8a9ee1" stroke-linecap="butt" stroke-miterlimit="4" stroke-dasharray="none" stroke-width="0.5315" fill="none"/>
		<path stroke-linejoin="miter" d="m51,610.09,0,110" stroke="#8a9ee1" stroke-linecap="butt" stroke-miterlimit="4" stroke-dasharray="none" stroke-width="0.5315" fill="none"/>
		<path stroke-linejoin="miter" d="m56,720.09,0-110" stroke="#8a9ee1" stroke-linecap="butt" stroke-miterlimit="4" stroke-dasharray="none" stroke-width="0.5315" fill="none"/>
		<path stroke-linejoin="miter" d="m61,610.09,0,110" stroke="#8a9ee1" stroke-linecap="butt" stroke-miterlimit="4" stroke-dasharray="none" stroke-width="0.5315" fill="none"/>
		<path stroke-linejoin="miter" d="m66,720.09,0-110" stroke="#8a9ee1" stroke-linecap="butt" stroke-miterlimit="4" stroke-dasharray="none" stroke-width="0.5315" fill="none"/>
		<path stroke-linejoin="miter" d="m71,610.09,0,110" stroke="#8a9ee1" stroke-linecap="butt" stroke-miterlimit="4" stroke-dasharray="none" stroke-width="0.5315" fill="none"/>
		<path stroke-linejoin="miter" d="m76,720.09,0-110" stroke="#8a9ee1" stroke-linecap="butt" stroke-miterlimit="4" stroke-dasharray="none" stroke-width="0.5315" fill="none"/>
		<path stroke-linejoin="miter" d="m81,610.09,0,110" stroke="#8a9ee1" stroke-linecap="butt" stroke-miterlimit="4" stroke-dasharray="none" stroke-width="0.5315" fill="none"/>
		<path stroke-linejoin="miter" d="m86,720.09,0-110" stroke="#8a9ee1" stroke-linecap="butt" stroke-miterlimit="4" stroke-dasharray="none" stroke-width="0.5315" fill="none"/>
		<path stroke-linejoin="miter" d="m91,610.09,0,110" stroke="#8a9ee1" stroke-linecap="butt" stroke-miterlimit="4" stroke-dasharray="none" stroke-width="0.5315" fill="none"/>
		<path stroke-linejoin="miter" d="m96,720.09,0-110" stroke="#8a9ee1" stroke-linecap="butt" stroke-miterlimit="4" stroke-dasharray="none" stroke-width="0.5315" fill="none"/>
		<path stroke-linejoin="miter" d="m101,610.09,0,110" stroke="#8a9ee1" stroke-linecap="butt" stroke-miterlimit="4" stroke-dasharray="none" stroke-width="0.5315" fill="none"/>
		<path stroke-linejoin="miter" d="m106,720.09,0-110" stroke="#8a9ee1" stroke-linecap="butt" stroke-miterlimit="4" stroke-dasharray="none" stroke-width="0.5315" fill="none"/>
		<path stroke-linejoin="miter" d="m111,610.09,0,110" stroke="#8a9ee1" stroke-linecap="butt" stroke-miterlimit="4" stroke-dasharray="none" stroke-width="0.5315" fill="none"/>
		<path stroke-linejoin="miter" d="m116,720.09,0-110" stroke="#8a9ee1" stroke-linecap="butt" stroke-miterlimit="4" stroke-dasharray="none" stroke-width="0.5315" fill="none"/>
		<path stroke-linejoin="miter" d="m121,610.09,0,110" stroke="#8a9ee1" stroke-linecap="butt" stroke-miterlimit="4" stroke-dasharray="none" stroke-width="0.5315" fill="none"/>
		<path stroke-linejoin="miter" d="m126,720.09,0-110" stroke="#8a9ee1" stroke-linecap="butt" stroke-miterlimit="4" stroke-dasharray="none" stroke-width="0.5315" fill="none"/>
		<path stroke-linejoin="miter" d="m131,610.09,0,110" stroke="#8a9ee1" stroke-linecap="butt" stroke-miterlimit="4" stroke-dasharray="none" stroke-width="0.5315" fill="none"/>
		<path stroke-linejoin="miter" d="m136,610.09,0,110" stroke="#8a9ee1" stroke-linecap="butt" stroke-miterlimit="4" stroke-dasharray="none" stroke-width="0.5315" fill="none"/>
		<path stroke-linejoin="miter" d="m141,720.09,0-110" stroke="#8a9ee1" stroke-linecap="butt" stroke-miterlimit="4" stroke-dasharray="none" stroke-width="0.5315" fill="none"/>
		<path stroke-linejoin="miter" d="m146,610.09,0,110" stroke="#8a9ee1" stroke-linecap="butt" stroke-miterlimit="4" stroke-dasharray="none" stroke-width="0.5315" fill="none"/>
		<path stroke-linejoin="miter" d="m151,720.09,0-110" stroke="#8a9ee1" stroke-linecap="butt" stroke-miterlimit="4" stroke-dasharray="none" stroke-width="0.5315" fill="none"/>
		<path stroke-linejoin="miter" d="m156,610.09,0,110" stroke="#8a9ee1" stroke-linecap="butt" stroke-miterlimit="4" stroke-dasharray="none" stroke-width="0.5315" fill="none"/>
		<path stroke-linejoin="miter" d="m161,720.09,0-110" stroke="#8a9ee1" stroke-linecap="butt" stroke-miterlimit="4" stroke-dasharray="none" stroke-width="0.5315" fill="none"/>
		<path stroke-linejoin="miter" d="m166,610.09,0,110" stroke="#8a9ee1" stroke-linecap="butt" stroke-miterlimit="4" stroke-dasharray="none" stroke-width="0.5315" fill="none"/>
		<path stroke-linejoin="miter" d="m171,720.09,0-110" stroke="#8a9ee1" stroke-linecap="butt" stroke-miterlimit="4" stroke-dasharray="none" stroke-width="0.5315" fill="none"/>
		<path stroke-linejoin="miter" d="m176,610.09,0,110" stroke="#8a9ee1" stroke-linecap="butt" stroke-miterlimit="4" stroke-dasharray="none" stroke-width="0.5315" fill="none"/>
		<path stroke-linejoin="miter" d="m181,720.09,0-110" stroke="#8a9ee1" stroke-linecap="butt" stroke-miterlimit="4" stroke-dasharray="none" stroke-width="0.5315" fill="none"/>
		<path stroke-linejoin="miter" d="m186,610.09,0,110" stroke="#8a9ee1" stroke-linecap="butt" stroke-miterlimit="4" stroke-dasharray="none" stroke-width="0.5315" fill="none"/>
		<path stroke-linejoin="miter" d="m191,720.09,0-110" stroke="#8a9ee1" stroke-linecap="butt" stroke-miterlimit="4" stroke-dasharray="none" stroke-width="0.5315" fill="none"/>
		<path stroke-linejoin="miter" d="m196,610.09,0,110" stroke="#8a9ee1" stroke-linecap="butt" stroke-miterlimit="4" stroke-dasharray="none" stroke-width="0.5315" fill="none"/>
		<path stroke-linejoin="miter" d="m6,615.09,195,0" stroke="#8a9ee1" stroke-linecap="butt" stroke-miterlimit="4" stroke-dasharray="none" stroke-width="0.5315" fill="none"/>
		<path stroke-linejoin="miter" d="m201,620.09-195,0" stroke="#8a9ee1" stroke-linecap="butt" stroke-miterlimit="4" stroke-dasharray="none" stroke-width="0.5315" fill="none"/>
		<path stroke-linejoin="miter" d="m6,625.09,195,0" stroke="#8a9ee1" stroke-linecap="butt" stroke-miterlimit="4" stroke-dasharray="none" stroke-width="0.5315" fill="none"/>
		<path stroke-linejoin="miter" d="m201,630.09-195,0" stroke="#8a9ee1" stroke-linecap="butt" stroke-miterlimit="4" stroke-dasharray="none" stroke-width="0.5315" fill="none"/>
		<path stroke-linejoin="miter" d="m6,635.09,195,0" stroke="#8a9ee1" stroke-linecap="butt" stroke-miterlimit="4" stroke-dasharray="none" stroke-width="0.5315" fill="none"/>
		<path stroke-linejoin="miter" d="m201,640.09-195,0" stroke="#8a9ee1" stroke-linecap="butt" stroke-miterlimit="4" stroke-dasharray="none" stroke-width="0.5315" fill="none"/>
		<path stroke-linejoin="miter" d="m6,645.09,195,0" stroke="#8a9ee1" stroke-linecap="butt" stroke-miterlimit="4" stroke-dasharray="none" stroke-width="0.5315" fill="none"/>
		<path stroke-linejoin="miter" d="m201,650.09-195,0" stroke="#8a9ee1" stroke-linecap="butt" stroke-miterlimit="4" stroke-dasharray="none" stroke-width="0.5315" fill="none"/>
		<path stroke-linejoin="miter" d="m6,655.09,195,0" stroke="#8a9ee1" stroke-linecap="butt" stroke-miterlimit="4" stroke-dasharray="none" stroke-width="0.5315" fill="none"/>
		<path stroke-linejoin="miter" d="m201,660.09-195,0" stroke="#8a9ee1" stroke-linecap="butt" stroke-miterlimit="4" stroke-dasharray="none" stroke-width="0.5315" fill="none"/>
		<path stroke-linejoin="miter" d="m6,665.09,195,0" stroke="#8a9ee1" stroke-linecap="butt" stroke-miterlimit="4" stroke-dasharray="none" stroke-width="0.5315" fill="none"/>
		<path stroke-linejoin="miter" d="m201,670.09-195,0" stroke="#8a9ee1" stroke-linecap="butt" stroke-miterlimit="4" stroke-dasharray="none" stroke-width="0.5315" fill="none"/>
		<path stroke-linejoin="miter" d="m6,675.09,195,0" stroke="#8a9ee1" stroke-linecap="butt" stroke-miterlimit="4" stroke-dasharray="none" stroke-width="0.5315" fill="none"/>
		<path stroke-linejoin="miter" d="m201,680.09-195,0" stroke="#8a9ee1" stroke-linecap="butt" stroke-miterlimit="4" stroke-dasharray="none" stroke-width="0.5315" fill="none"/>
		<path stroke-linejoin="miter" d="m6,685.09,195,0" stroke="#8a9ee1" stroke-linecap="butt" stroke-miterlimit="4" stroke-dasharray="none" stroke-width="0.5315" fill="none"/>
		<path stroke-linejoin="miter" d="m201,690.09-195,0" stroke="#8a9ee1" stroke-linecap="butt" stroke-miterlimit="4" stroke-dasharray="none" stroke-width="0.5315" fill="none"/>
		<path stroke-linejoin="miter" d="m6,695.09,195,0" stroke="#8a9ee1" stroke-linecap="butt" stroke-miterlimit="4" stroke-dasharray="none" stroke-width="0.5315" fill="none"/>
		<path stroke-linejoin="miter" d="m201,700.09-195,0" stroke="#8a9ee1" stroke-linecap="butt" stroke-miterlimit="4" stroke-dasharray="none" stroke-width="0.5315" fill="none"/>
		<path stroke-linejoin="miter" d="m6,705.09,195,0" stroke="#8a9ee1" stroke-linecap="butt" stroke-miterlimit="4" stroke-dasharray="none" stroke-width="0.5315" fill="none"/>
		<path stroke-linejoin="miter" d="m201,710.09-195,0" stroke="#8a9ee1" stroke-linecap="butt" stroke-miterlimit="4" stroke-dasharray="none" stroke-width="0.5315" fill="none"/>
		<path stroke-linejoin="miter" d="m6,715.09,195,0" stroke="#8a9ee1" stroke-linecap="butt" stroke-miterlimit="4" stroke-dasharray="none" stroke-width="0.5315" fill="none"/>
		<path d="m61,615.09c-27.614,0-50,22.39-50,50,0,27.62,22.386,50,50,50s50-22.38,50-50c0-27.61-22.386-50-50-50zm0,15c19.33,0,35,15.67,35,35s-15.67,35-35,35-35-15.67-35-35,15.67-35,35-35z" fill-opacity="0.43085" stroke="#000" stroke-miterlimit="4" stroke-dasharray="none" stroke-width="0.29055" fill="#c3c3c3"/>
		<path d="m146.01,615.09c-27.62,0-50.003,22.39-50.003,50,0,27.62,22.383,50,50.003,50,27.61,0,50-22.38,50-50,0-27.61-22.39-50-50-50zm0,15c19.33,0,35,15.67,35,35s-15.67,35-35,35-35-15.67-35-35,15.67-35,35-35z" fill-opacity="0.43085" stroke="#000" stroke-miterlimit="4" stroke-dasharray="none" stroke-width="0.29055" fill="#c3c3c3"/>
		<path fill="#000" d="m61,615.09c-27.614,0-50,22.39-50,50,0,27.62,22.386,50,50,50,1.684,0,3.359-0.1,5-0.25v-15.12c-1.63,0.23-3.306,0.37-5,0.37-19.33,0-35-15.67-35-35s15.67-35,35-35c1.694,0,3.37,0.15,5,0.38v-15.13c-1.641-0.16-3.316-0.25-5-0.25z"/>
		<path fill="#000" d="m146,615.09c-27.61,0-50,22.39-50,50,0,27.62,22.39,50,50,50,1.68,0,3.36-0.1,5-0.25v-15.12c-1.63,0.23-3.31,0.37-5,0.37-16.73,0-30.7-11.74-34.16-27.43h29.16v-15h-29.19c3.41-15.76,17.41-27.57,34.19-27.57,1.69,0,3.37,0.15,5,0.38v-15.13c-1.64-0.16-3.32-0.25-5-0.25z"/>
		<path fill="#000" d="m273,615.09c-27.61,0-50,22.39-50,50,0,27.62,22.39,50,50,50,0.83,0,1.68,0,2.5-0.1v-15.03c-0.82,0.1-1.66,0.1-2.5,0.1-19.33,0-35-15.67-35-35s15.67-35,35-35c0.84,0,1.68,0,2.5,0.1v-15.03c-0.82,0-1.67-0.1-2.5-0.1z"/>
		<path fill="#000" d="m325.34,615.09c-27.61,0-50,22.39-50,50,0,27.62,22.39,50,50,50,0.84,0,1.68,0,2.5-0.1v-15.03c-0.82,0.1-1.66,0.1-2.5,0.1-16.75,0-30.75-11.77-34.18-27.5h29.06v-15h-29.06c3.43-15.72,17.43-27.5,34.18-27.5,0.84,0,1.68,0,2.5,0.1v-15.03c-0.82,0-1.66-0.1-2.5-0.1z"/>
		<flowRoot style="letter-spacing:0px;word-spacing:0px;" line-height="125%" font-weight="normal" xml:space="preserve" font-size="40px" transform="translate(0,624.09)" font-style="normal" font-family="ubuntu" fill="black"><flowRegion><rect height="41.261" width="285.67" y="126.36" x="55.508"/></flowRegion><flowPara>E</flowPara></flowRoot>
		<text style="letter-spacing:0px;text-anchor:middle;word-spacing:0px;text-align:center;" font-weight="normal" xml:space="preserve" transform="scale(1.0016,0.9984)" line-height="125%" font-size="51.36483px" y="739.33246" x="103.40255" font-family="Sans" font-style="normal" fill="black"><tspan style="text-anchor:middle;text-align:center;" font-size="15.40945px" y="739.33246" x="103.40255" font-family="Sans">&quot;Conformité Européenne&quot;</tspan></text>
		<text style="letter-spacing:0px;text-anchor:middle;word-spacing:0px;text-align:center;" font-weight="normal" xml:space="preserve" transform="scale(1.0016,0.9984)" line-height="125%" font-size="51.36464px" y="739.68121" x="275.2449" font-family="Sans" font-style="normal" fill="black"><tspan style="text-anchor:middle;text-align:center;" font-size="15.40939px" y="739.68121" x="275.2449" font-family="Sans">&quot;China Export&quot;</tspan></text>
	</g>
</svg>
