<?xml version="1.0" encoding="UTF-8" standalone="no"?>
<svg id="svg2" xmlns:rdf="http://www.w3.org/1999/02/22-rdf-syntax-ns#" xmlns="http://www.w3.org/2000/svg" xml:space="preserve" height="134.55" width="134.59" version="1.1" xmlns:cc="http://creativecommons.org/ns#" viewBox="0 0 134.58875 134.5525" xmlns:dc="http://purl.org/dc/elements/1.1/"><metadata id="metadata8"><rdf:RDF><cc:Work rdf:about=""><dc:format>image/svg+xml</dc:format><dc:type rdf:resource="http://purl.org/dc/dcmitype/StillImage"/><dc:title/></cc:Work></rdf:RDF></metadata><path id="path102" d="m128.26 6.1625c0.86 0 1.2738-0.295 1.2738-1.0725 0-0.41625-0.185-1.0338-1.1525-1.0338h-2.0525v2.1062h1.9312zm-3.5425-3.4662h3.9825c2.0988 0 2.4825 1.5488 2.4825 2.2275 0 0.86625-0.4425 1.6138-1.2212 1.8775 0.64875 0.285 1 0.52625 1 1.9962 0 1.1525 0 1.4375 0.34875 1.5712v0.20625h-1.8188c-0.11125-0.37375-0.17625-0.78-0.17625-1.5925 0-1.075-0.0675-1.4912-1.2825-1.4912h-1.7038v3.0838h-1.6112m3.0525-9.7412c-3.3012 0-5.9862 2.6862-5.9862 5.9862 0 3.2975 2.685 5.985 5.9862 5.985 3.3 0 5.9812-2.6875 5.9812-5.985 0-3.3-2.6812-5.9862-5.9812-5.9862m0 12.804c-3.76 0-6.8225-3.0575-6.8225-6.8175 0-3.7625 3.0625-6.82 6.8225-6.82 3.7588 0 6.8162 3.0575 6.8162 6.82 0 3.76-3.0575 6.8175-6.8162 6.8175" fill="#010202"/><path id="path104" d="m0 0.0025v134.55h113.28v-134.55l-113.28 0.0025z" fill="#010202"/><path id="path108" d="m8.0488 56.571c0-12.932 5.1012-24.665 13.37-33.387-1.055 2.715-2.5338 7.5212-2.5338 13.23 0 6.5088 1.92 14.164 8.5775 21.185l1.2225 1.2888c9.495 10 18.024 18.978 18.024 30.938 0 4.0838-1.0075 8.5212-3.3075 13.463-20.372-5.79-35.353-24.516-35.353-46.719" fill="#cdd42a"/><path id="path112" d="m64.058 52.49c-7.0762 0-12.802-5.7288-12.802-12.805 0-7.0662 5.7262-12.8 12.802-12.8 7.07 0 12.802 5.7338 12.802 12.8 0 7.0762-5.7325 12.805-12.802 12.805m41.18 4.0812c0-0.43375-0.0187-0.87-0.0325-1.305l0.01-0.0025c0-26.07-21.07-47.264-47.141-47.264-0.3575 0-1.3238 0.03-1.3238 0.03-3.7925 0.13125-7.595 0.80875-10.706 1.7625-1.4562 0.445-6.63 2.2212-10.419 6.09-3.9912 4.1212-6.445 9.73-6.445 15.92 0 10.096 6.23 17.899 15.602 21.708 4.0275 1.59 8.4275 2.5838 11.655 3.3712 5.6175 1.3688 17.439 3.3412 27.281 9.8425l0.37375 0.24c6.1512 4.2025 9.8625 10.101 9.8625 20.104 0 0.19375-0.0075 0.395-0.0075 0.595 7.04-8.4363 11.29-19.275 11.29-31.091" fill="#00b0db"/><path id="path116" d="m45.644 114.48h3.89v11.941h2.3812v-11.941h3.975v-2.135h-10.246v2.135zm-4.36 4.3c-0.59125 0.30875-1.2462 0.33625-1.5462 0.34625-0.50875 0.0288-0.86125 0.0425-1.7788 0.0425h-1.0912v-4.8062h1.3975c1.5838 0 2.3012 0.0125 2.9225 0.3175 1.1775 0.59875 1.2275 1.7225 1.2238 2.0562h-0.01875l0.01875 0.0225v0.004c0.0038 1.0912-0.52875 1.7125-1.1275 2.0175m0.7375 1.8312 0.08625-0.0288c0.79125-0.24375 2.725-1.1475 2.725-3.8038-0.0038-1.6325-0.6675-2.72-1.5275-3.4288-1.2212-0.98-2.4487-0.98375-4.3712-1.005h-4.4275v14.076h2.3613v-5.3375h2.6487l2.8525 5.3375h2.725l-3.1663-5.7838 0.09375-0.0263zm22.29-1.8312c-0.59625 0.31125-1.2538 0.33625-1.5538 0.34625-0.505 0.0288-0.86 0.0425-1.7738 0.0425h-1.0962l0.0012-4.6588v-0.1475h1.4012c1.585 0 2.2988 0.0125 2.9225 0.3175 1.17 0.59625 1.225 1.7075 1.22 2.0488h-0.005l0.005 0.03v0.004c0.005 1.0912-0.525 1.7125-1.1212 2.0175m0.735 1.8312 0.09-0.0312c0.78625-0.24125 2.7188-1.145 2.72-3.8012-0.0012-1.6325-0.66375-2.72-1.5312-3.4288-1.2188-0.98-2.4438-0.98375-4.3612-1.005h-4.4375v14.076h2.3612v-5.3375h2.6475l2.8588 5.3375h2.7188l-3.1612-5.7838 0.095-0.0263zm26.985-1.0612c0.0037 3.0075-1.1562 4.005-2.245 4.4188-0.6375 0.235-1.375 0.3375-3.415 0.3375h-1.2938v-9.8275h1.5788c1.8075 0.0213 2.2775 0.045 3.0838 0.40625 2.0862 1.0075 2.2912 3.2875 2.2912 4.64 0 0.01-0.0038 0.02 0 0.025m-0.1675-6.1112c-1.4638-1.0525-2.9288-1.0725-4.1675-1.0938h-5.0012v14.076h4.4525c1.69-0.0187 3.165-0.04 4.5488-0.855 2.05-1.1825 2.8762-3.6275 2.8762-6.0588 0-1.5925-0.36625-4.43-2.7088-6.0688m14.523 1.0012v-2.095h-9.9238v14.076h9.8913v-2.115h-7.5488v-4.1625h6.9288v-2.0112h-6.9288v-3.6925h7.5813zm-33.329 7.1375 2.2025-7.3175 2.1812 7.3175h-4.3838zm0.7425-9.2325-4.745 14.076h2.545l0.8325-2.8138 5.6312 0.002 0.83375 2.8112h2.5412l-4.805-14.076h-2.8338zm-50.25 9.2325h-4.3962l2.2075-7.3225 2.1237 7.1162 0.065 0.20625zm-3.6438-9.2338-4.7488 14.078h2.5462l0.835-2.8138h5.6262l0.84 2.8138h2.5388l-4.8025-14.076-2.835-0.001zm-10.799 2.0962h6.845v-2.095h-9.21v14.076h2.365v-6.0925h6.0112v-1.9925h-6.0112v-3.8962zm20.131-2.095v14.076h2.3388v-14.076h-2.3388z" fill="#fff"/></svg>
