<?xml version="1.0" encoding="UTF-8" standalone="no"?>
<svg xmlns:rdf="http://www.w3.org/1999/02/22-rdf-syntax-ns#" xmlns="http://www.w3.org/2000/svg" xml:space="preserve" height="249" viewBox="0 0 249 248.99808" width="249" version="1.1" xmlns:cc="http://creativecommons.org/ns#" xmlns:dc="http://purl.org/dc/elements/1.1/"><g transform="matrix(1.25 0 0 -1.25 -509.62 532.02)"><g transform="matrix(.99194 0 0 .99194 5.5301 3.706)"><ellipse rx="97.819" ry="97.819" transform="scale(1,-1)" cy="-324.89" cx="506.17" fill="#fff"/><path d="m124.83 1.5488-6.2539 0.14258-6.248 0.5-3.0508 0.31836-0.043 0.00586-3.0723 0.42773-0.0605 0.00586-6.0781 1.1094-5.9961 1.3691-5.8965 1.6758-5.7422 1.9785-5.6172 2.2246-5.4941 2.4844-5.3574 2.7637-5.1934 2.9746-5.0293 3.2305-4.873 3.4395-4.7051 3.6992-4.4844 3.9121-4.3359 4.1172-4.0879 4.3086-3.9238 4.4883-3.6602 4.6992-3.4727 4.875-3.2266 4.9785-3.0117 5.2148-2.7363 5.3516-2.5156 5.5293-2.1816 5.6328-1.9746 5.7266-1.6855 5.8965-1.4023 5.9941-1.0703 6.0723-0.79297 6.2109-0.4668 6.2754-0.18164 6.3906 0.18164 6.3476 0.4668 6.2695 0.79297 6.1777 1.0703 6.0605 1.4023 6.0059 1.6855 5.8926 1.9746 5.7305 2.1816 5.6445 2.5215 5.4844 2.7305 5.3476 3.0059 5.2031 3.2324 5.0234 3.4727 4.8691 3.6602 4.709 3.918 4.4844 4.0938 4.3457 4.3359 4.084 4.4844 3.9121 4.7051 3.666 4.873 3.4726 5.0117 3.2207 5.2148 3.0215 5.3535 2.7324 5.4941 2.5059 5.6289 2.1856 5.7305 1.9785 5.8965 1.6816 5.9961 1.4082 6.1055 1.0762 6.166 0.78516 6.2812 0.47265 6.3144 0.17579 6.3906-0.17579 6.2695-0.47265 6.2109-0.78516 6.0762-1.0762 5.9961-1.4082 5.8848-1.6856 5.7324-1.9746 5.6387-2.1856 5.5234-2.5059 5.3516-2.7266 5.209-3.0273 4.9902-3.2324 4.8633-3.4609 4.709-3.666 4.4844-3.9121 4.3027-4.084 4.1328-4.3457 3.9082-4.4785 3.7031-4.7148 3.4394-4.8691 3.2324-5.0293 2.9727-5.1934 2.7695-5.3516 2.4785-5.4961 2.2148-5.627 1.9727-5.7363 1.6934-5.8926 1.3574-5.9941 1.1211-6.0723 0.74609-6.1777 0.50586-6.2695 0.13672-6.3476-0.13672-6.3906-0.49414-6.248-0.32422-3.0879-0.006-0.0566-0.42774-3.0605-0.0117-0.0606-1.1094-6.0391-1.3574-5.9961-1.6934-5.9004l-1.96-5.704-2.2207-5.627-2.4785-5.5234-2.7695-5.3574-2.9785-5.2051-3.2246-4.9785-3.4473-4.8848-3.6973-4.7051-3.9121-4.4883-4.127-4.3027-4.3047-4.1172-4.4785-3.9121-4.709-3.6934-4.8789-3.4453-4.9805-3.2266-5.209-2.9824-5.3476-2.7598-5.5274-2.4844-5.627-2.2246-5.7422-1.9727-5.9023-1.6816-5.9785-1.3691-6.0566-1.1094-3.0664-0.42969-0.0449-0.00391-3.1035-0.31836-0.0234-0.00586-6.2695-0.5-6.3848-0.14258h-0.0605zm0.0605 2.8027 0.0703 2.8027-0.0625 0.00195 6.0976 0.14062 6.0274 0.48438 2.9629 0.30664 2.9062 0.40234 5.8203 1.0703 5.7148 1.3027 5.6113 1.6055 5.4785 1.8848 5.3848 2.127 5.2812 2.3613 5.0996 2.6445 4.9688 2.8398 4.7578 3.084 4.6719 3.2969 4.4727 3.5176 4.2812 3.7305 4.1211 3.9453 3.9453 4.1172 3.7324 4.2812 3.5273 4.4844 3.291 4.6641 3.0781 4.7656 2.8457 4.9609 2.6504 5.1055 2.3574 5.2754 2.127 5.3867 1.8848 5.4844 1.6035 5.6055 1.3027 5.7246 1.0606 5.8086 0.41797 2.9141 0.30664 2.9609 0.46875 6.0293 0.14844 6.1055-0.14844 6.0606-0.46875 5.9961-0.72461 5.8965-1.0606 5.7754-1.3027 5.7305-1.6035 5.6016-1.8848 5.4844-2.127 5.3906-2.3574 5.2363-2.6387 5.1055-2.8574 4.9668-3.0781 4.8047-3.291 4.6543-3.5273 4.4883-3.7324 4.2813-3.9453 4.1445-4.1152 3.9121-4.2754 3.7363-4.4844 3.4844-4.6719 3.3359-4.7695 3.082-4.957 2.875-5.0996 2.6094-5.2695 2.3867-5.3965 2.0938-5.4785 1.8848-5.6172 1.6094-5.7207 1.3359-5.7812 1.0332-5.9238 0.75196-6 0.44531-6.1055 0.16992-6.0293-0.16992-6-0.44531-5.8926-0.75196-5.8125-1.0332-5.7207-1.3359-5.6113-1.6094-5.4961-1.8848-5.3789-2.0938-5.2324-2.3867-5.1055-2.6094-4.9668-2.8789-4.7988-3.084-4.6641-3.3301-4.4902-3.4844-4.2812-3.7422-4.1426-3.9062-3.9023-4.1328-3.7422-4.2871-3.4961-4.4941-3.3301-4.666-3.0762-4.793-2.875-4.9668-2.6094-5.1055-2.4023-5.2363-2.082-5.3809-1.8848-5.4941-1.6113-5.6055-1.334-5.7266-1.0234-5.7754-0.75781-5.8965-0.43945-5.9961-0.17578-6.0606 0.17578-6.1055 0.43945-6.002 0.75781-5.9297 1.0234-5.7812 1.334-5.7148 1.6113-5.6152 1.8848-5.4902 2.082-5.3809 2.4082-5.2695 2.6035-5.1113 2.8691-4.9551 3.082-4.7656 3.3301-4.6699 3.4961-4.4902 3.7363-4.2812 3.9023-4.1113 4.1543-3.9395 4.2754-3.7363 4.4902-3.5293 4.6543-3.2852 4.8027-3.084 4.9727-2.8398 5.1055-2.6445 5.2383-2.3613 5.3848-2.1328 5.4844-1.8789 5.6055-1.6055 5.7266-1.3027 5.8398-1.0703 2.9141-0.40234 2.9336-0.30664 6.0234-0.48438 6.0312-0.14062-0.0645-0.00195 0.0566-2.8027zm0 5.7207-5.8418 0.14453-5.8418 0.45508-5.7656 0.70898-5.6973 1.0391-5.5566 1.2852-5.4688 1.5566-2.6582 0.85547-0.02734 0.0059-2.6602 0.96094-0.02734 0.0059-5.2598 2.0605-5.0938 2.3184-4.9844 2.5625-4.8418 2.7793-4.6992 3.0234-4.5215 3.209-4.3848 3.4512-4.2051 3.6367-4.0176 3.8359-3.8125 3.9961-3.6387 4.2422-3.4121 4.3418-3.2363 4.5547-2.9902 4.6602-2.8184 4.8477-2.5293 4.9902-2.3516 5.1211-2.0664 5.2305-1.8125 5.3477-1.5664 5.457-1.3184 5.5898-1.002 5.6699-0.74609 5.793-0.47266 5.8418-0.12695 5.957 0.12695 5.9062 0.47266 5.8535 0.74609 5.748 1.002 5.709 1.3184 5.5293 1.5664 5.4785 1.8066 5.3457 2.0781 5.2715 2.3457 5.082 2.5293 4.9902 2.8184 4.8477 2.9902 4.6934 3.2305 4.5215 3.418 4.3809 3.6387 4.1914 3.8125 4.0352 4.0293 3.8066 4.1973 3.6328 4.3809 3.4238 4.5117 3.2363 4.709 2.9961 4.8418 2.8184 4.9844 2.5234 5.0879 2.3457 5.2754 2.0664 5.3418 1.8184 5.4785 1.5605 5.5684 1.3242 5.7031 1.0059 5.7539 0.73633 5.8477 0.46289 5.8848 0.14844 5.9453-0.14844 5.8359-0.46289 5.8047-0.73633 5.6699-1.0059 5.5898-1.3242 5.4512-1.5605 5.3476-1.8184 5.2305-2.0664 5.1211-2.3457 4.9902-2.5293 4.8418-2.8125 4.6719-2.9902 4.5547-3.2422 4.3359-3.4238 4.2422-3.6328 3.9961-3.8066 3.8359-4.0234 3.6309-4.1934 3.4512-4.3906 3.2148-4.5215 3.0234-4.7051 2.791-4.8359 2.5547-4.9902 2.3145-5.082 2.0605-5.2598 0.95117-2.6602 0.0156-0.0274 0.84766-2.6543 0.0156-0.0273 1.5547-5.4726 1.2812-5.5234 1.043-5.709 0.71484-5.7656 0.45703-5.8359 0.14258-5.9062-0.14258-5.9531-0.45703-5.8359-0.71484-5.8027-1.0371-5.6484-0.55664-2.7871-0.004-0.04297-0.72461-2.7812v-0.02148l-1.5566-5.4141-0.85156-2.6875-0.0117-0.03711-0.95508-2.6328-0.0117-0.02148-2.0605-5.2148-2.3145-5.127-2.5547-4.9902-2.791-4.8477-3.0234-4.6602-3.2148-4.5547-3.4512-4.3477-3.6309-4.2363-3.8418-3.9961-3.9902-3.8457-4.2363-3.627-4.3359-3.4512-4.5723-3.209-4.6602-3.0234-4.8418-2.7793-4.9902-2.5625-5.127-2.3184-5.2148-2.0605-2.6152-0.95117-0.0391-0.01563-2.6973-0.85156-0.0234-0.01172-5.4121-1.5547-2.7539-0.70898-0.043-0.0059-2.8301-0.57226-0.006-0.0039-5.6484-1.0332-5.8027-0.70898-5.8359-0.45703-5.9473-0.14258h-0.043zm0.043 1.7539 0.0332 1.7539h-0.0371l5.7695 0.13672 5.6641 0.44531 5.623 0.69141 5.5059 1.0059 2.7207 0.55078 2.6758 0.67969 5.3086 1.5332 2.6055 0.82617 2.5391 0.92773 5.0938 2.0059 4.9668 2.248 4.8418 2.4844 4.6934 2.6973 4.5332 2.9336 4.4121 3.1113 4.2109 3.3477 4.1152 3.5215 3.8691 3.7266 3.7305 3.8672 3.5234 4.1172 3.3457 4.209 3.1055 4.4238 2.9395 4.5234 2.6934 4.6934 2.4902 4.834 2.2422 4.9688 2.0098 5.0996 0.92969 2.5391 0.82422 2.6055 1.5273 5.3301 0.69336 2.6602 0.53321 2.7031 1.0156 5.5117 0.6875 5.6328 0.44531 5.666 0.13672 5.7695-0.13672 5.7207-0.44531 5.6777-0.6875 5.5879-1.0117 5.5176-1.2363 5.3516-1.5215 5.3477-0.83008 2.5605-0.92383 2.5879-2.0098 5.123-2.2422 4.9238-2.4902 4.8398-2.6934 4.6934-2.9395 4.5664-3.1055 4.3867-3.3457 4.2422-3.5234 4.0723-3.7305 3.9062-3.8633 3.6875-4.1152 3.5234-4.2168 3.3184-4.4219 3.1445-4.5234 2.9121-4.6934 2.7188-4.8301 2.4512-4.9785 2.2812-5.0781 2-5.1816 1.7637-5.2812 1.5176-5.4141 1.2793-5.4941 0.96875-5.623 0.71875-5.6699 0.45117-5.7598 0.13672-5.6992-0.13672-5.6641-0.45117-5.5957-0.71875-5.5215-0.96875-5.3867-1.2793-5.3145-1.5176-5.1875-1.7637-5.1094-2-4.9297-2.2812-4.8418-2.4512-4.6934-2.7246-4.5605-2.9062-4.3848-3.1445-4.2539-3.3184-4.0723-3.5234-3.8965-3.6875-3.6973-3.9062-3.5176-4.0664-3.3242-4.248-3.1387-4.3867-2.8965-4.5664-2.7363-4.6934-2.457-4.8398-2.2793-4.9297-1.9902-5.0996-1.7695-5.1816-1.5215-5.332-1.2754-5.3516-0.9668-5.5176-0.73047-5.5996-0.44531-5.666-0.13281-5.7207 0.13281-5.7695 0.44531-5.6602 0.73047-5.6387 0.97266-5.4902 1.2695-5.4121 1.5215-5.2871 1.7695-5.1816 1.9961-5.0664 2.2793-4.9805 2.4512-4.834 2.7324-4.6934 2.9004-4.5234 3.1387-4.4238 3.3242-4.2148 3.5176-4.1113 3.6973-3.8672 3.9023-3.7266 4.0664-3.5215 4.2539-3.3535 4.3848-3.1055 4.5605-2.9336 4.6934-2.6973 4.8418-2.4844 4.9297-2.248 5.127-2.0059 2.5762-0.92773 2.5664-0.82617 5.3418-1.5215 5.3906-1.2422 5.5176-1.0059 5.5898-0.69141 5.6699-0.44531 5.6953-0.13672h-0.0391l0.043-1.7539zm7.7871 4.0312-0.70312 0.03906-0.69727 0.07031-0.63867 0.13281-0.59375 0.21875-0.56055 0.24219-0.5332 0.31836-0.44922 0.34766-0.45703 0.41797-0.39062 0.45508-0.34571 0.52734-0.28515 0.56055-0.24805 0.63281-0.19727 0.66992-0.14257 0.69727-0.11524 0.77539-0.0273 1.0547 0.10351 0.93945 0.24219 0.8418 0.35156 0.77539 0.49414 0.69726 0.66602 0.60352 0.74023 0.52344 0.90821 0.42187 4.6602 1.8906 0.31836 0.17578 0.3125 0.20898 0.24805 0.25391 0.21484 0.27344 0.16407 0.31445 0.11523 0.35742 0.0723 0.3457v0.35156l-0.11133 0.59375-0.24024 0.52734-0.32617 0.42383-0.41601 0.35156-0.55664 0.24609-0.63086 0.16992-0.73633 0.07227-0.84571-0.0332-0.76367-0.13672-0.70508-0.2207-0.60937-0.30664-0.44531-0.42969-0.35157-0.52148-0.24804-0.59375-0.10352-0.73633-0.0332-0.80859-3.4668-0.2793v0.83984l0.0273 0.80273 0.10351 0.74219 0.14258 0.69727 0.20898 0.67188 0.28125 0.5918 0.31836 0.56055 0.37891 0.49023 0.46094 0.46094 0.48437 0.41797 0.57227 0.35156 0.59765 0.3125 0.6543 0.24805 0.70899 0.20898 0.76953 0.13672 0.83593 0.11133 0.77344 0.03711h0.77539l0.70313-0.10352 0.69922-0.14258 0.63086-0.20898 0.60546-0.24805 0.54883-0.31836 0.49414-0.38476 0.4961-0.41797 0.38867-0.49414 0.38476-0.52734 0.3086-0.58789 0.24609-0.63867 0.20508-0.69727 0.17969-0.73633 0.0781-0.77539 0.0332-1.2305-0.14257-1.0117-0.10547-0.46094-0.21485-0.45508-0.20898-0.41797-0.28516-0.38477-0.51562-0.59961-0.60547-0.48438-0.62109-0.39453-0.7793-0.37891-4.9082-1.9355-0.35157-0.13672-0.24804-0.20898-0.24024-0.24805-0.2207-0.24609-0.13086-0.31445-0.0723-0.31836-0.0664-0.3457 0.0332-0.35156 0.10547-0.56055 0.16992-0.48828 0.32422-0.38476 0.37891-0.35156 0.46093-0.24805 0.56055-0.18164 0.59961-0.06641h0.6543l0.74218 0.09961 0.63086 0.21484 0.56055 0.2793 0.42383 0.39062 0.3457 0.48828 0.24805 0.55469 0.14844 0.67774 0.0644 0.73047 3.4356 0.31836 0.0332-0.73633-0.0332-0.73633-0.0996-0.69726-0.13672-0.67188-0.22461-0.63086-0.26953-0.56055-0.32422-0.56055-0.34766-0.49414-0.46093-0.45117-0.44532-0.42383-0.52734-0.3457-0.59961-0.32422-0.5918-0.24219-0.67187-0.21484-0.63-0.168-0.77539-0.10352-0.73047-0.03906zm-24.379 1.334-0.17578 0.03906v-0.0039l-0.60352 0.0332-7.7422 1.2637 3.334 20.695 5.0117-0.76953v-0.002l2.6992-0.45508 0.73633-0.17578 0.66992-0.24219 0.62696-0.35742 0.56054-0.45508 0.52149-0.5293 0.45703-0.5918 0.42773-0.69922 0.34766-0.73633 0.28516-0.8125 0.24218-0.90625 0.17579-0.95117 0.10937-0.98438 0.0664-1.0488-0.0391-1.084-0.0664-1.1641-0.18164-1.1543-0.20899-1.1211-0.24023-1.0156-0.31445-0.98438-0.35157-0.91797-0.38476-0.83008-0.46094-0.7793-0.45703-0.66602-0.52734-0.63086-0.56055-0.52734-0.59375-0.45703-0.5918-0.37891-0.66601-0.28125-0.66993-0.17969-0.70312-0.09961-0.73242-0.03906zm36.199 0.59766-0.95118 3.5723 5.0449 1.3398-4.3457 16.695 3.5117 0.9082 4.3457-16.689 5.0059 1.2969 0.92383-3.6172-13.535-3.5059zm-50.756 2.2773-11.963 4.2422 6.9844 19.789 12.377-4.3906-1.2656-3.5-9.0117 3.1875-1.791-5.123 7.9297-2.8066-1.2305-3.4746-7.9258 2.7754-1.4668-4.1426 8.5898-3.0449-1.2266-3.5117zm14.238 0.84766 0.14258 0.02734v-0.002h0.28125l0.38476 0.07227 0.38477 0.14258 0.35156 0.17578 0.3457 0.24805 0.31836 0.2793 0.28125 0.35156 0.56055 0.8418 0.45508 1.0879 0.38086 1.2578 0.28515 1.4785 0.17578 1.5449 0.0391 1.4004-0.11133 1.2637-0.23633 1.0508-0.38477 0.91211-0.25781 0.37891-0.26953 0.31836-0.31836 0.24219-0.35156 0.25195-0.35156 0.14258-0.37891 0.09961-1.584 0.2793v0.002l-2.1035 0.31836-2.1758-13.545 3.709-0.59375 0.42774-0.02734zm58.988 3.9941-2.8027 3.2578-11.463 13.33 3.4668 1.5762 2.8418-3.4355 5.1543 2.3535v-0.002l0.62696 0.2793-0.62696 3.5781-0.14257 0.77344 0.14257 0.06641 3.4356 1.584 3.1914-21.604-3.8242-1.7578zm-89.568 1.2969-12.244 6.7715 1.791 3.252 4.5625-2.5156 8.3418 15.117 3.1914-1.7578-8.3789-15.119 4.5273-2.5215-1.791-3.2266zm89.508 3.8574-1.5117 8.4512-1.2305-0.52148v-0.0039l-2.7305-1.2578 2.7305-3.3359v-0.002l2.7422-3.3301zm12.371 0.91211-2.0938 3.0547 4.3027 2.9414-9.7441 14.277 3.0176 2.0371 9.709-14.275 4.2754 2.9121 2.1172-3.0566-11.584-7.8906zm-117.07 4.21-2.945 2.103 12.166 17.08 2.951-2.099-12.172-17.084zm-7.1484 5.084-2.457 2.3145 9.9629 10.738-14.986-6.1055-2.8027 2.5977 14.283 15.393 2.4883-2.3125-10.203-10.98 15.354 6.2109 2.6328-2.457-14.271-15.398zm69.723 0.5293-4.207 0.10547-0.0293 0.0039-4.2148 0.31445-0.0371 0.0039-4.2422 0.5332-4.1387 0.74805-4.0664 0.93359-3.9961 1.1328-3.9238 1.3242-3.8516 1.5273-3.7148 1.6816-3.6758 1.8906-3.5176 2.0332-3.4297 2.209-3.3125 2.3516-3.1816 2.502-3.0664 2.6367-2.957 2.8145-2.7812 2.9277-2.6758 3.0664-2.4941 3.1719-2.3574 3.3184-2.1719 3.4238-2.0332 3.5332-1.8848 3.6328-1.6875 3.7422-1.5273 3.8242-1.3242 3.9297-1.1367 3.9961-0.92969 4.0996-0.75195 4.1309-0.53906 4.2383-0.3457 4.209-0.01172 0.0449-0.09961 4.3125v0.0391l0.09961 4.2812v0.0371l0.35742 4.2168v0.0273l0.53711 4.2422 0.75391 4.1328 0.92774 4.0664 1.1445 3.9609 1.3184 3.9238 1.5273 3.8574 1.6875 3.7051 1.8848 3.6758 2.0332 3.5234 2.1699 3.4219 2.3574 3.3203 2.4961 3.1816 2.6758 3.0547 2.7754 2.9629 2.9609 2.7852 3.0684 2.666 3.1758 2.5 3.3242 2.3574 3.4238 2.1758 3.5215 2.0234 3.6719 1.9004 3.7148 1.6777 3.8516 1.5371 3.9238 1.3144 3.9961 1.1426 4.0723 0.92969 4.1309 0.74609 4.2383 0.5332 4.2148 0.35743h0.0391l4.2422 0.0996h0.0332l4.3125-0.0996h0.0391l4.2207-0.35157 0.0273-0.006 4.2422-0.5332 4.1387-0.74609 4.0938-0.92969 3.9941-1.1426 3.9356-1.3125 3.8144-1.5391 3.7422-1.6758 3.6367-1.9024 3.5293-2.0215 3.4277-2.1758 3.3203-2.3535 3.1816-2.5059 3.0547-2.6641 2.9238-2.7871 2.8184-2.9609 2.6387-3.0625 2.5-3.1699 2.3477-3.3184 2.209-3.4297 2.0371-3.5234 1.8867-3.6758 1.6816-3.7031 1.5273-3.8535 1.3301-3.9277 1.1367-3.9629 0.92383-4.0664 0.75781-4.1328 0.5332-4.248 0.3125-4.2031 0.006-0.0391 0.10352-4.2871v-0.0273l-0.10352-4.3125v-0.0391l-0.30859-4.209-0.01-0.0332-0.5332-4.248-0.75977-4.1328-0.91796-4.0996-1.1426-3.9961-1.3301-3.9277-1.5273-3.8203-1.6816-3.748-1.8848-3.6309-2.0391-3.5352-2.209-3.4238-2.3457-3.3184-2.5-3.166-2.6387-3.0703-2.8184-2.9238-2.9238-2.8203-3.0664-2.6426-3.1719-2.4941-3.3184-2.3535-3.4238-2.209-3.5332-2.0332-3.6387-1.8906-3.7422-1.6758-3.8144-1.5332-3.9336-1.3242-3.9961-1.1309-4.0938-0.93555-4.1367-0.74609-4.2598-0.5332-4.1992-0.32031-0.0312-0.0039-4.3203-0.10547h-0.0332-0.0312l0.0332 1.4023 0.0332 1.4004h-0.0332l4.209 0.10547 4.1055 0.3125 4.1094 0.51758 3.9961 0.72461 3.9609 0.89648 3.8594 1.0977 3.791 1.2812 3.6875 1.4785 3.6211 1.6211 3.5117 1.8242 3.4238 1.9727 3.3086 2.1328 3.2148 2.2754 3.0606 2.4121 2.9668 2.5547 2.8242 2.7266 2.7266 2.8242 2.5449 2.9668 2.4219 3.0664 2.2754 3.209 2.1387 3.3145 1.9609 3.4121 1.8301 3.5176 1.6211 3.6152 1.4727 3.6934 1.293 3.7871 1.0918 3.8633 0.89648 3.9668 0.72461 3.9961 0.52344 4.0996 0.30664 4.1035 0.10547 4.2148-0.10547 4.1719-0.30664 4.0996-0.52344 4.1055-0.72461 3.9941-0.89648 3.9355-1.0918 3.8301-1.293 3.791-1.4727 3.7207-1.6211 3.5879-1.8301 3.5566-1.9609 3.4004-2.1387 3.3145-2.2754 3.209-2.4219 3.0723-2.5566 2.9512-2.7148 2.8691-2.8242 2.6973-2.9668 2.5781-3.0664 2.4121-3.2031 2.2754-3.3145 2.1094-3.4238 1.957-3.5059 1.8301-3.627 1.627-3.6875 1.4883-3.791 1.2637-3.8594 1.1113-3.9668 0.88867-3.9902 0.72656-4.1152 0.51563-4.0996 0.34179-4.209 0.10352-4.127-0.10352-4.0996-0.34179-4.1113-0.51563-4.0059-0.72656-3.9238-0.88867-3.8691-1.1113-3.7852-1.2637-3.7324-1.4883-3.5723-1.6211-3.5664-1.8359-3.4121-1.957-3.3086-2.1094-3.2031-2.2754-3.0664-2.4121-2.9668-2.5879-2.8594-2.6875-2.6914-2.8574-2.5938-2.9746-2.4082-3.0547-2.2695-3.209-2.1094-3.3203-1.9609-3.4004-1.8301-3.5566-1.6211-3.5879-1.4785-3.7207-1.2871-3.791-1.0938-3.8301-0.90039-3.9297-0.72461-4-0.52344-4.1055-0.33398-4.0996-0.11133-4.1719 0.11133-4.2031 0.33398-4.1055 0.52344-4.1094 0.72461-3.9961 0.90039-3.9668 1.0938-3.8633 1.2871-3.7871 1.4785-3.6875 1.6211-3.627 1.8301-3.5117 1.9609-3.418 2.1055-3.3086 2.2734-3.209 2.4141-3.0664 2.5879-2.9668 2.6914-2.8242 2.8594-2.7207 2.9609-2.5605 3.0723-2.4082 3.209-2.2793 3.3086-2.1328 3.4121-1.9727 3.5605-1.8242 3.5723-1.6211 3.7324-1.4785 3.7852-1.2812 3.8691-1.0977 3.9238-0.89648 4-0.72461 4.1055-0.51758 4.0996-0.3125 4.1387-0.10547h-0.0332l0.0332-1.4004h-0.002l-0.0332-1.4023zm69.693 1.082-14.518 15.156 9.5 9.0469 2.5566-2.6992-6.8965-6.5996 3.7422-3.9238 6.0723 5.8203 2.5605-2.6602-6.0723-5.8203 3.0547-3.1914 6.5898 6.3125 2.5606-2.7031-9.1504-8.7383zm-72.57 7.9316-0.62695 0.03906-0.56055 0.09961-0.49023 0.14258-0.42188 0.20898-0.35156 0.24609-0.27539 0.24219-0.25195 0.31445-0.20899 0.29102-0.24219 0.58789-0.14843 0.49414-0.0664 0.48828h-1.9277l-1.1934 0.32031-0.98438 0.38867-0.76953 0.45117-0.625 0.52734-0.5 0.55469-0.32031 0.56055-0.23633 0.56641-0.14258 0.59375-0.0371 0.56055v0.52734l0.14258 0.91211 0.17578 0.63281 0.0977 0.20898 2.4297-1.3301 0.83593-0.0332 0.87891 0.07031 0.93945 0.10547 0.39063-0.07227h0.31836l0.63672 0.07227 0.52343 0.24219 0.45508 0.2793 0.38477 0.35156 0.24218 0.28125 0.25196 0.2793 0.34765 0.20898 0.21289 0.24805 0.0606 0.31836 0.0391 0.37891-0.0996 0.42383-0.14257 0.45508-0.45508 0.94531-0.55469 0.87891-0.5332 0.77539-0.59375 0.73047 1.9551 1.4785 0.2539 0.10547 0.24219 0.07031 0.59766 0.06641 0.59961-0.06641 0.59375-0.14258 0.94531-0.35156 0.42187-0.17578 0.28125-0.3457 0.2793-0.25391 0.31445-0.16406 0.35157-0.07617h0.35156l0.35742 0.03125 0.66406 0.24805 0.59375 0.31836 0.45117 0.35156 0.45508 0.38477 0.35157 0.34766 0.35351 0.2793 0.32422 0.21484 0.27344 0.13672 0.28125 0.10547 0.27343 0.03711 0.45704-0.06641 0.35156-0.14844 0.28515-0.20703 0.19922-0.20898 0.36133-0.31445 0.24805-0.35156 0.38476-0.70312 0.17578-0.59961 0.0664-0.24023v-10.701l-0.0332-0.73633-0.10938-0.66406-0.17578-0.56055-0.20898-0.52734-0.27539-0.42383-0.28516-0.38477-0.31445-0.3125-0.31836-0.28125-0.62695-0.38477-0.52735-0.21289-0.52734-0.13867h-7.2969zm-81.293 4.6973-2.2207 2.9785 11.584 8.5625 0.14258 0.10352 0.49024 0.45508 0.38476 0.5293 0.24024 0.56055 0.17578 0.59766 0.02734 0.63281-0.0918 0.59375-0.20898 0.63672-0.35742 0.55469-0.49414 0.52734-0.51758 0.38477-0.60352 0.24805-0.59375 0.13672h-0.66016l-0.67578-0.13672-0.66016-0.28516-0.66406-0.41797-0.14258-0.10547-11.26-8.3477-2.209 2.9785 11.221 8.2773 0.3457 0.28516 0.66992 0.45703 0.67188 0.38476 0.66406 0.27344 0.66016 0.25391 0.66992 0.16992 0.66602 0.07031 0.66992 0.0332 0.62695-0.0332 0.66406-0.14258 0.60547-0.20312 0.625-0.24609 0.59961-0.35156 0.55469-0.38477 0.52734-0.49023 0.52734-0.52734 0.49609-0.63281 0.44922-0.625 0.35742-0.67578 0.28125-0.62695 0.20898-0.66992 0.17578-0.66602 0.06445-0.63086v-0.66602l-0.06445-0.63086-0.14844-0.62695-0.20312-0.63867-0.27539-0.59766-0.35742-0.59375-0.41797-0.56055-0.46094-0.56055-0.56055-0.52734-0.62891-0.48828-0.16797 0.17383-0.22266-0.18164-0.0039 0.0059-0.02734-0.0332 0.03125 0.02734 0.14258-0.20312-11.322-8.3848zm11.322 8.3848h0.002l0.24219 0.20898 0.0039 0.002 0.17188-0.17774-0.24609-0.20898-0.02734-0.0332-0.14648 0.20898zm45.67-8.1367-1.1934 0.03711-1.082 0.13867-1.0234 0.20898-0.87891 0.24219-0.79688 0.28516-0.68164 0.2793-1.082 0.56641-0.62695 0.41211-0.21289 0.17578-0.91211 0.63867-1.0234 0.76758-1.082 0.875-1.1152 1.0215-2.4902 2.2422-2.6758 2.5938-2.7637 2.8086-2.8809 2.9785-5.7148 6.1445-5.2578 5.8516-4.3867 4.9453-4.0762 4.6992 0.42773 0.20898 0.38477 0.17578 0.39062 0.10938 0.42188 0.0332h0.38086l0.41602-0.0332 0.80859-0.21484 0.77539-0.3457 0.77344-0.46094 0.73633-0.52148 0.70508-0.63281 0.625-0.63281 0.59961-0.63672 0.97852-1.1875 0.62695-0.87891 0.21289-0.3457 0.59961 0.59375 0.56055 0.42187 0.56055 0.24805 0.49414 0.13672h0.49023l0.48828-0.10352 0.42383-0.16992 0.37891-0.25391 0.35156-0.2793 0.32422-0.28125 0.52734-0.62695 0.41211-0.66992 0.87305-1.6484 0.88086-1.6152 0.91211-1.5781 0.94531-1.5 0.94922-1.4785 0.98438-1.4004 1.9609-2.7031 1.9629-2.4902 1.9668-2.2812 1.9355-2.0703 1.8242-1.8574 1.7461-1.6484 1.5781-1.4355 1.4395-1.2246 1.2578-1.0176 1.7656-1.3398 0.6582-0.45117 1.3027-0.45508 1.082-0.20898 0.88086-0.0332 0.38477 0.06641 0.31836 0.06445 0.30664 0.14258 0.25391 0.14453 0.37891 0.37891 0.28516 0.46094 0.17578 0.52148 0.10547 0.56055v0.56641l-0.10547 1.0879-0.17578 0.76953-0.07031 0.31445-0.67188 0.49414-0.48242 0.41797-0.31836 0.42188-0.20898 0.38477-0.10547 0.3457v0.35352l0.06641 0.28516 0.10352 0.24219 0.2207 0.21289 0.16406 0.20898 0.46289 0.28125 0.52734 0.24609 0.63086 0.62695 1.1211 0.95703 2.9785 2.2754 4.0352 2.9512 0.35156 0.3457 0.34571 0.24609 0.35742 0.17188 0.3125 0.10937 0.31445 0.06641h0.31836l0.55468-0.06641 0.42773-0.17578 0.35156-0.21484 0.31446-0.24805 0.0664-0.69727 0.14258-0.80664 0.23633-0.8418 0.29102-0.83984 0.48828-1.3691 0.21484-0.56055-0.70312 0.3125-0.70313 0.21484-0.66602 0.14258-0.58789 0.06641-0.89062 0.0332-0.3457-0.0332-0.74219-0.03906-0.6582-0.10352-0.63282-0.17578-0.56054-0.20898-0.52149-0.24219-0.46289-0.2793-0.77344-0.63867-0.56054-0.63086-0.39063-0.55664-0.27539-0.52734-0.38477-0.28516-0.27929-0.23633-0.17578-0.28516-0.14258-0.28711-0.0664-0.24024v-0.24219l0.10352-0.42383 0.17578-0.38477 0.24805-0.2793 0.27539-0.24805 0.88476-0.94531 0.65821-0.83984 0.46289-0.80859 0.27344-0.73633 0.13867-0.70312v-0.59375l-0.0996-0.56641-0.21485-0.52734-0.24219-0.41797-0.27929-0.38476-0.3125-0.3125-0.32032-0.24805-0.48829-0.35156-0.21484-0.13672-1.6152-0.42383-1.5059-0.2793-1.3691-0.13867-1.3281-0.03711zm50.287 0.002-0.97266 0.06641-0.8457 0.14258-0.66601 0.17578-0.56446 0.20898-0.38476 0.24805-0.3086 0.20898-0.2207 0.17578-0.13672 0.14258-1.7148 0.45508-1.3672 0.49024-0.52734 0.2793-0.49024 0.28125-0.39062 0.2793-0.35157 0.28125-0.27929 0.3125-0.17578 0.28516-0.16993 0.31445-0.11132 0.3125-0.0332 0.59961 0.0664 0.59375 0.20898 0.56055 0.31836 0.52734 0.34766 0.48828 0.36133 0.42383 0.62695 0.59766 0.28125 0.24219 0.45508 0.8418 0.28125 0.69726 0.10351 0.60547-0.0391 0.48828-0.13672 0.35156-0.20898 0.3125-0.31836 0.20898-0.37891 0.14258-0.38476 0.07227-0.41797 0.06641-0.81836-0.0332-0.80859-0.10352-1.3574-0.09961-1.1309 0.06641-0.91406 0.20898-0.72461 0.24609-0.5664 0.27539-0.39063 0.25195-0.27344 0.27539-0.59961 0.38477-0.52734 0.3125-0.56055 0.21484-0.48828 0.14258-0.45703 0.07227h-0.45117l-0.42188-0.03906-0.35156-0.07227-0.63281-0.20703-0.49414-0.28125-0.38477-0.3125-0.45117-0.42383-0.43359-0.24219-0.41211-0.10938h-0.37891l-0.28711 0.07227-0.24609 0.10352-0.20899 0.14258-0.5664 0.49024-0.62695 0.38867-0.66407 0.27539-0.60547 0.24805-1.0059 0.21289-0.38867 0.06641-0.66601-0.66406-0.63086-0.49023-0.56641-0.31836-0.52734-0.17578-0.48438-0.06641-0.42773 0.06641-0.42383 0.14258-0.35156 0.20898-0.3086 0.24219-0.24609 0.3125-0.41797 0.56641-0.24805 0.49414-0.0703 0.17188-0.8789 1.4766-0.66602 1.3633-0.45508 1.2969-0.28125 1.1992-0.0977 1.1211 0.0273 1.0156 0.11523 0.91211 0.23633 0.8418 0.29102 0.73633 0.30273 0.66992 0.32422 0.52148 0.3125 0.45703 0.56055 0.59375 0.20898 0.21289 9.9688 14.383 0.48242-3.1602-0.20898-1.5449-0.0312-1.3672 0.13672-1.1543 0.24219-1.0215 0.31836-0.83594 0.42382-0.70312 0.48828-0.59375 0.48829-0.46289 0.52343-0.35156 0.53321-0.27344 0.53125-0.21484 0.45117-0.10352 0.70312-0.13867h0.24219l0.8418-0.07031h0.80078l0.82031 0.10352 0.75781 0.13672 0.8125 0.24219 0.76954 0.28711 0.73632 0.35156 0.77539 0.42188 0.69727 0.41797 0.74219 0.5 1.3691 1.082 1.2578 1.1484 1.1973 1.2324 1.0781 1.2695 0.98438 1.1855 1.582 2.2148 1.0215 1.5391 0.3457 0.59375 0.38086 0.60352 0.39454 0.45117 0.3457 0.42383 0.35742 0.31836 0.62695 0.37891 0.53321 0.20899h0.41211l0.3125-0.0664 0.28711-0.14258 2.7363-0.56055 2.5274-0.45117 2.3516-0.35156 2.166-0.25195 2.0059-0.17578 1.7852-0.06641 1.6113-0.0332 1.4394 0.0332 2.3516 0.13672 1.6426 0.21484 0.99024 0.20898 0.30664 0.10547 0.69336-0.07227 0.61523-0.09961 0.44531-0.14258 0.34571-0.14258 0.29101-0.17578 0.20313-0.17578 0.11719-0.20312 0.0605-0.17578-0.0332-0.39062-0.11133-0.31836-0.19727-0.31445-8.2812-13.391-0.41211-0.8418-0.39649-0.67578-0.42773-0.48828-0.38477-0.35156-0.3789-0.17578-0.34571-0.09961h-0.35742l-0.31445 0.09961-0.28516 0.14258-0.27539 0.20898-0.42773 0.42188-0.37891 0.52734-13.641 9.502-0.63671 0.52734-0.59961 0.31836-0.56055 0.20898-0.54883 0.07227-0.5332-0.03906-0.45703-0.13672-0.45508-0.21484-0.41797-0.2793-0.35156-0.28125-0.32422-0.3125-0.52734-0.63281-0.41211-0.66406-0.42383-0.98438-0.38477-0.80273-0.35742-0.63086-0.3457-0.52734-0.3125-0.38477-0.31446-0.31836-0.27929-0.17578-0.25391-0.11133-0.20312-0.06641h-0.21289l-0.31446 0.11133-0.20898 0.13086-0.0703 0.07227-0.63867-0.27539-0.59375-0.2793-0.98242-0.63281-0.76953-0.67578-0.56055-0.62109-0.42382-0.52734-0.2461-0.45703-0.17578-0.41602-0.45703-0.74219-0.3457-0.66602-0.24219-0.56055-0.14258-0.52734-0.0391-0.45508 0.0391-0.39062 0.0977-0.3457 0.14453-0.28125 0.17969-0.24609 0.17578-0.20898 0.41406-0.24805 0.42187-0.20898 1.8574-1.3672 1.6484-1.4414 1.4844-1.3945 1.252-1.4395 1.1211-1.4082 0.95703-1.4004 0.80273-1.3027 0.66992-1.2578 0.55469-1.166 0.42383-1.043 0.59375-1.7598 0.28515-1.1543 0.0664-0.41797 0.20899-0.74023 0.25195-0.55664 0.26953-0.42188 0.29102-0.31836 0.27539-0.20312 0.21875-0.11719 0.17187-0.06055 1.1211-0.25195 0.98829-0.13672 0.87304-0.03906 0.75977 0.07617 0.64258 0.13867 0.56054 0.21289 0.45118 0.27539 0.38867 0.28125 0.31445 0.31836 0.24609 0.3125 0.31446 0.63281 0.14257 0.41797 0.0391 0.17969 30.68 48.223 0.42968 0.70312 0.37891 0.49024 0.35156 0.38476 0.31836 0.21289 0.2793 0.10547h0.23633l0.17578-0.0723 0.1875-0.14258 0.28125-0.41797 0.17578-0.45508 0.0976-0.55664-0.24609-0.91602-0.11133-0.59961 0.0508-0.3789 0.0332-0.11133 0.0976-0.0703 0.20899 0.0332 0.28515 0.21289 0.34766 0.28125 0.38477 0.41797 0.85156 0.98242 0.73047 1.0176 0.76953 1.0938 0.35742 0.80664 0.3457 0.59375 0.27539 0.37891 0.29102 0.2539 0.23633 0.0996h0.21875l0.16601-0.14453 0.18164-0.16992 0.27344-0.56055 0.21485-0.59375 0.14257-0.66406 0.10547-0.8457v-0.91407l-0.13867-0.91211-0.20898-0.9121-0.2793-0.91211-0.35742-0.91211-0.41797-0.87305-0.42774-0.8418-0.875-1.5371-0.76953-1.2363-0.76758-1.084-1.1211-1.8574-0.73633-1.4062-0.41797-1.0176-0.14843-0.66406v-0.20898l0.0664-0.14258 0.11524-0.06641h0.17578l0.41601 0.13672 0.5293 0.30859 0.625 0.42774 0.67578 0.56055 1.3203 1.1211 1.4062 1.3691 0.87305 0.52734 0.67188 0.3457 0.52734 0.21485 0.3457 0.0664 0.24805-0.0664 0.10352-0.14258 0.0391-0.24805-0.0391-0.26953-0.23633-0.70703-0.39063-0.69922-0.42187-0.74219-17.537-23.883-2.4121-2.6973-2.2207-2.3574-1.9609-2.0273-1.8184-1.7871-1.6211-1.4785-1.4356-1.2246-1.2305-1.0215-1.1211-0.80273-0.91211-0.63281-0.8086-0.48828-1.1523-0.56641-0.66602-0.20898-0.17578-0.0332-2.5215-1.0156-2.2812-0.80859-2.0059-0.63281-1.7852-0.42188-1.584-0.27539-1.3633-0.14258-1.1973-0.0332zm58.229 1.998-0.63282 0.10547-0.60351 0.14258-0.6211 0.24219-0.63671 0.28516-0.62696 0.38477-0.63281 0.41211-0.8125 0.67578-0.62109 0.69727-0.49414 0.73633-0.35157 0.80859-0.17578 0.8457-0.0332 0.83008 0.10351 0.95117 0.28125 0.95117 1.7129 4.7305 0.0723 0.35156 0.0332 0.3457v0.38477l-0.0723 0.35742-0.13086 0.31445-0.18164 0.31836-0.20313 0.2793-0.28515 0.20898-0.5293 0.35156-0.53125 0.17578-0.51758 0.0332-0.55469-0.10938-0.5664-0.23633-0.53321-0.35156-0.52148-0.52734-0.56055-0.63867-0.41797-0.6582-0.27929-0.66992-0.14453-0.62695v-0.63281l0.14453-0.59766 0.27929-0.59375 0.45118-0.56055 0.59765-0.56641-2.0644-2.8027-0.67773 0.56641-0.54883 0.55469-0.48828 0.56055-0.42969 0.59375-0.35742 0.60352-0.26953 0.59375-0.17969 0.59375-0.13867 0.63281-0.0332 0.63672 0.0332 0.62695 0.0723 0.66406 0.16992 0.66992 0.25196 0.66602 0.34765 0.66992 0.38477 0.66016 0.46094 0.66406 0.52148 0.63867 0.49024 0.56055 0.57031 0.48828 0.55664 0.42383 0.55469 0.3125 0.59375 0.27539 0.60937 0.21875 0.62109 0.13867 0.63086 0.0332h0.63868l0.63085-0.07227 0.66602-0.17578 0.63086-0.20312 0.66602-0.32422 0.6582-0.38477 0.63867-0.41797 0.94531-0.80859 0.34571-0.38477 0.31836-0.38867 0.24804-0.42383 0.20313-0.41211 0.18164-0.46094 0.10937-0.45117 0.0723-0.80859v-0.73633l-0.14844-0.76953-0.21484-0.80664-1.8242-4.9453-0.0996-0.35352-0.0332-0.35156v-0.3125l0.0723-0.31836 0.14258-0.31445 0.16992-0.2793 0.24805-0.28516 0.28516-0.24219 0.45117-0.28125 0.5332-0.17578 0.48242-0.03711 0.49024 0.07031 0.52734 0.17578 0.48828 0.31836 0.46289 0.38477 0.41797 0.52344 0.42188 0.59766 0.23632 0.62695 0.14258 0.60547v0.56055l-0.0976 0.56055-0.28125 0.56055-0.38477 0.55859-0.52734 0.56055 2.0664 2.7715 0.59961-0.48438 0.52149-0.49414 0.46093-0.52734 0.38477-0.56055 0.30859-0.56055 0.24805-0.59961 0.21289-0.59375 0.10547-0.63086 0.0605-0.59961v-0.63281l-0.0605-0.625-0.17578-0.67188-0.20899-0.63086-0.27539-0.62695-0.36328-0.63672-0.41211-0.63281-0.5-0.56055-0.45508-0.52148-0.52734-0.45703-0.51758-0.39062-0.56054-0.30664-0.56055-0.25391-0.56055-0.20312-0.59765-0.11524-0.59961-0.02734h-0.59375zm-55.029 3.4688-0.42383 0.07031-0.3457 0.17578-0.31445 0.16992-0.28516 0.25391-0.45508 0.52148-0.24805 0.39062-0.0996 0.16992-0.15234 0.81445-0.20508 0.83398-0.24023 0.80859-0.31445 0.80664-0.74219 1.6172-0.87305 1.582-1.0215 1.5-1.0879 1.4395-1.1211 1.3691-1.1543 1.2969-1.1211 1.1602-1.1211 1.0879-1.8965 1.7129-1.3301 1.127-0.52734 0.38477 0.87305 1.5781 0.76953 1.1211 0.67187 0.73633 0.56055 0.45508 0.41602 0.20898 0.34765 0.07812h0.17578l0.082-0.03906 0.97851-0.8418 1.9609-1.8301 5.4746-5.1484 7.6816-7.2969 0.20312-0.41797 0.18164-0.42383 0.10352-0.39062 0.0723-0.3457v-0.63086l-0.14258-0.5293-0.21485-0.37891-0.20312-0.28516-0.24805-0.24219-1.4766-2.6699-0.62695-0.73633-0.56055-0.52734-0.56641-0.38477-0.52734-0.24219-0.49023-0.10938h-0.41602zm-55.801 1.1914-0.38477 0.03906-0.41797 0.0332-0.74024 0.20898-0.80859 0.2793-5.6113 5.6113-0.48828 0.39062-0.39062 0.38476-0.28516 0.31836-0.17188 0.3125-0.13086 0.28125-0.04492 0.2793v0.20898l0.07813 0.21484 0.16992 0.35156 0.24219 0.23633 0.28516 0.18164 3.0508 2.1699 2.8359 1.8965 2.6699 1.6543 2.4941 1.4004 2.2754 1.1543 2.1387 0.95117 1.9277 0.76953 1.7539 0.63281 1.5488 0.45508 1.3301 0.35156 1.1602 0.24805 0.94531 0.13672 1.2637 0.10547h0.45117l-0.28125-1.2324-0.28515-1.043-0.3086-0.91797-0.34-0.73-0.35156-0.59961-0.35742-0.49414-0.37891-0.38477-0.3457-0.27539-0.35743-0.21484-0.3125-0.10352-0.56054-0.14258-0.38477 0.03711-0.11133 0.0332-1.082-0.45508-1.082-0.56055-1.0938-0.59961-1.0938-0.66406-2.1328-1.4082-1.9668-1.4004-1.6758-1.3301-1.375-1.0879-1.1855-1.0176-0.31836-0.2793-0.20898-0.27539-0.17578-0.29102-0.07227-0.27539-0.0332-0.2793 0.0332-0.24805 0.16992-0.48828 0.28711-0.42383 0.24609-0.3125 0.31445-0.31445 0.42188-0.91602 0.24219-0.73633 0.10938-0.59375-0.04297-0.45703-0.17578-0.35156-0.20312-0.20898-0.32031-0.14258-0.3457-0.07227zm62.779 8.1094-0.18165 0.02734-0.17578 0.10352-0.24218 0.28516-0.16993 0.39062-0.10937 0.41797-13.859 12.662-0.3457 0.3457-0.20508 0.38477-0.0644 0.42383 0.0332 0.45508 0.0977 0.45703 0.20898 0.45508 0.24219 0.45703 0.29102 0.45508 0.66015 0.84766 0.59375 0.69727 0.67578 0.63086 0.16993 0.31445 0.20898 0.20898 0.25195 0.17578 0.27539 0.07617 0.3125 0.0332 0.31836-0.0332 0.66016-0.18164 0.63672-0.24609 0.5664-0.27539 0.49414-0.3125 12.41-10.002 0.23633-0.24219 0.21875-0.24805 0.20898-0.52734 0.0723-0.52148-0.0723-0.49414-0.10937-0.45117-0.13867-0.35156-0.17969-0.31836-2.1602-4.1387-0.39648-0.66992-0.38867-0.48438-0.3086-0.35156-0.27539-0.25195-0.25195-0.13867-0.20898-0.06445zm-73.906 2.4551-1.5723 1.6816-1.4668 1.7148-1.3359 1.6855-1.1602 1.5449-1.6426 2.418-0.60547 0.91211 1.7148 0.97852 1.9727 0.95508 2.1777 0.97266 2.3125 0.95117 4.8027 1.791 4.8418 1.6445 4.4121 1.4062 3.623 1.0879 3.3574 0.94531l-0.14-0.669-0.0703-0.56055-0.0332-0.52344 0.0332-0.45508 0.0703-0.42383 0.10547-0.35156 0.29102-0.59375 0.3457-0.38477 0.28125-0.24609 0.35156-0.17578 0.41797-0.52734 0.48828-0.38476 0.59961-0.28125 0.625-0.17578 0.70508-0.10352h0.69727l0.74804 0.06641 0.69727 0.10938 1.3672 0.2793 1.1211 0.35156 1.0508 0.42383-1.9629-2.9121-1.3613-0.0332-1.375-0.07617-1.3633-0.17773-1.334-0.20703-1.3418-0.32031-1.3301-0.30664-1.3301-0.39062-1.2969-0.45117-1.2695-0.49414-1.2578-0.49414-2.3848-1.1211-2.3145-1.1875-2.1367-1.2305-1.9668-1.2266-1.748-1.2305-1.582-1.1152-1.3027-1.0215-1.8516-1.5117-0.67578-0.55469zm-51.037 10.547-0.44336 0.03906-0.49609 0.07617-0.83984 0.26953-0.80274 0.42969-0.70312 0.56055-0.56055 0.70312-0.20898 0.37891-0.20898 0.39062-0.17578 0.42188-0.10937 0.45117-0.06641 0.45703v0.49414 0.45117l0.06641 0.45508 0.28516 0.88476 0.41797 0.80274 0.56055 0.70312 0.70312 0.55469 0.37891 0.21484 0.42383 0.21484 0.42188 0.13672 0.41797 0.14258 0.49609 0.06641h0.44336 0.5l0.45703-0.06641 0.87305-0.2793 0.78125-0.42969 0.69726-0.55469 0.55469-0.70312 0.42969-0.80274 0.16992-0.42383 0.10547-0.46094 0.07031-0.45508 0.04492-0.45117-0.04492-0.49414-0.07031-0.45703-0.27539-0.87305-0.42969-0.76953-0.55469-0.70312-0.35156-0.32031-0.3457-0.24023-0.78125-0.42969-0.42188-0.16992-0.45117-0.09961-0.45703-0.07617-0.5-0.03906zm182.64 0-0.45508 0.03906-0.45117 0.07617-0.88477 0.26953-0.79687 0.42969-0.67578 0.56055-0.56641 0.70312-0.23633 0.37891-0.21484 0.39062-0.13672 0.42188-0.10352 0.45117-0.0781 0.45703-0.0332 0.49414 0.0332 0.45117 0.0781 0.45508 0.24024 0.88476 0.45117 0.80274 0.56641 0.70312 0.67578 0.55469 0.3789 0.21484 0.41797 0.21484 0.42383 0.13672 0.46094 0.14258 0.45117 0.06641h0.45508 0.49414l0.45703-0.06641 0.87305-0.2793 0.80273-0.42969 0.66602-0.55469 0.56445-0.70312 0.46289-0.80274 0.13086-0.42383 0.10547-0.46094 0.0762-0.45508 0.0332-0.45117-0.0332-0.49414-0.0762-0.45703-0.23633-0.87305-0.46289-0.76953-0.56445-0.70312-0.66602-0.56055-0.80273-0.42969-0.41797-0.16992-0.45508-0.09961-0.45703-0.07617-0.49414-0.03906zm-140.64 1.3438-0.35156 0.09961-0.35156 0.16992-0.37891 0.28711-0.8125 0.73633-0.80273 0.87891-0.73633 0.90625-0.59961 0.76953-0.56641 0.8125-0.49414 0.66016-0.52148 0.52734-0.52734 0.42969-0.52344 0.27344-0.5332 0.21484-0.48242 0.13672-0.49024 0.07812h-0.45508l-0.85156-0.14258-0.62109-0.17578-0.59375-0.28711-1.8906 2.0391-1.5117 1.5059-1.1973 0.98438-0.91211 0.63086-0.63281 0.31445-0.38477 0.14258h-0.20898l-0.07031-0.03906-0.45703 0.41797-0.38477 0.42773-0.31836 0.41797-0.28516 0.38476-0.3457 0.80859-0.18164 0.70312-0.06641 0.59961v0.44922l0.06641 0.42383-3.1484 6.3477 0.87305-0.17188 0.70312-0.0762 0.56055 0.0332 0.45117 0.10352 0.32422 0.17578 0.16992 0.24805 0.1543 0.24804 0.02734 0.31836v0.3125l-0.07227 0.31446-0.21289 0.56054-0.27539 0.60352-4.3906 7.0781 1.4785 0.0762h1.2969l1.1211-0.0762 0.93945-0.16992 0.78516-0.21484 0.66016-0.24219 0.52734-0.2793 0.38477-0.2871 0.31836-0.3125 0.20898-0.3125 0.18164-0.28711 0.06055-0.27344 0.07031-0.39649v-0.17578-0.62109l0.07227-0.5332 0.10352-0.41797 0.10547-0.35742 0.17578-0.23633 0.13672-0.21289 0.18164-0.10547 0.20898-0.0977 0.3457-0.0449 0.31836 0.0723 0.28711 0.14257 1.3672-0.59961 1.1211-0.59375 0.90625-0.59765 0.73828-0.59961 0.56055-0.48828 0.38867-0.41797 0.27539-0.35156 0.11524-0.56055 0.13281-0.42383 0.16992-0.3457 0.21875-0.28125 0.20898-0.21485 0.20898-0.10351 0.24805-0.10352 0.24609-0.0391 0.41797 0.0723 0.38477 0.10937 0.32422 0.16992h0.83008l0.8125-0.10351 0.76953-0.24805 0.78125-0.3457 0.72461-0.41797 0.70312-0.52735 0.66602-0.52734 0.63086-0.56641 1.0898-1.1211 0.80664-1.0117 0.74219-0.98828 26.295 1.9668 0.5664 0.0664h0.52735l0.42383-0.0332 0.3125-0.0723 0.27539-0.10351 0.21484-0.10938 0.16992-0.13867 0.10938-0.16992 0.10937-0.3125 0.0332-0.28711-0.0703-0.3125-0.42383-1.3691-0.28124-1.2246-0.35157-1.8965-0.13672-1.1914-0.0391-0.38477-3.6367-0.80859-3.4453-0.8457-3.1562-0.875-2.918-0.87891-2.6973-0.87891-2.4121-0.87305-2.2148-0.8418-1.9629-0.80273-1.7129-0.77344-1.4785-0.69922-2.2812-1.1582-1.3242-0.76953-0.46094-0.28516v-0.002l-0.28125-0.02734zm55.801 3.8223-0.59375 0.17578-0.49414 0.24023-0.38086 0.32031-0.32422 0.37891-0.23633 0.38476-0.17968 0.38867-0.20899 0.63281-0.0332 0.24805-0.2207 0.24609-0.16407 0.27539-0.28515 0.74219-0.20899 0.91211-0.17578 1.0488-0.10547 1.1543-0.0391 1.2305v2.5293l0.10547 2.4492 0.17578 2.0723 0.16992 1.9629-0.16992 0.91211-0.20898 0.66406-0.17579 0.45703-0.17578 0.3125-0.21484 0.14258-0.16992 0.0391-0.16992-0.10547-0.18164-0.17969-0.28126-0.49023-0.24609-0.59766-0.16992-0.66015-0.45703-1.1934-0.49414-1.1914-1.0176-2.3144-1.125-2.1816-1.1172-1.9609-1.0156-1.6484-0.8086-1.2969-0.77343-1.1211-0.8086-0.91211-0.77539-0.77539-0.72461-0.59375-0.70898-0.49414-0.66016-0.35156-0.63086-0.24219-0.5664-0.13672-0.52735-0.07227-0.49023-0.03906-0.42188 0.03906-0.66601 0.13672-0.41797 0.17578-0.14258 0.10547-0.52734-0.0332h-0.48828l-0.41797 0.06641-0.42969 0.10352-0.3457 0.14844-0.31836 0.17578-0.27539 0.20312-0.2461 0.28711-0.38476 0.5918-0.28125 0.67187-0.20899 0.73047-0.11523 0.77539-0.0332 0.80664 0.0332 0.76953 0.11523 1.3691 0.17578 0.98242 0.0937 0.38477 0.39649 1.2969 0.20898 1.1934 0.0703 1.1543-0.0703 1.0606-0.20898 0.97266-0.31446 0.8789-0.35156 0.83985-0.42773 0.74218-0.45117 0.63282-0.49415 0.59375-0.45703 0.45507-0.41601 0.41797-0.63281 0.52735-0.28125 0.17578-0.0312 0.16797 44.824-0.87305 2.3379-0.18945-0.16602-0.0508-0.67188-0.2461-0.52148-0.28125-0.45508-0.27929-0.55664-0.45118-0.21289-0.21484-0.66601-0.42188-0.52735-0.52343-0.42187-0.56055-0.32032-0.56445-0.24609-0.52344-0.13281-0.42773-0.11524-0.38477-0.58789-1.5117-0.63281-1.4004-0.70312-1.293-0.69727-1.1973-0.77539-1.082-0.74219-1.0176-0.73047-0.91211-0.73633-0.77539-1.334-1.3281-1.0898-0.91406-0.70313-0.56055-0.26953-0.20703-1.4453-1.0117-1.2578-0.78125-1.0937-0.56055-0.98243-0.31836-0.83593-0.09766h-0.70313zm20.334 19.898 0.60742 0.1914-2.3574 0.81446-2.5879 0.83984-3.1973 0.97852-3.6113 1.0215-3.7852 0.93945-1.8633 0.42969-1.8574 0.3457-1.7539 0.27539-1.6484 0.17579-25.537-2.6602 0.42969-2.2891-0.28125 0.006-12.426-1.4727-8.0273 9.9961 2.1758 10.244 0.10352 39.918 5.832 3.5391v-38.264l0.06055-0.66601 0.14844-0.63672 0.26758-0.58789 0.39648-0.52735 0.48438-0.46093 0.56445-0.35352 0.70508-0.20703 0.80664-0.0664 0.48438 0.0332 0.46094 0.13672 0.38477 0.18164 0.3125 0.20898 0.28125 0.2793 0.24805 0.28125 0.35156 0.63086 0.21289 0.67187 0.09961 0.52149 0.07227 0.56054 0.07617 41.1 5.6387 1.7246 0.0703-41.945 0.0391-0.42383 0.0606-0.52734 0.17578-0.59375 0.28516-0.59766 0.42383-0.56054 0.24218-0.21485 0.31836-0.20898 0.3125-0.16993 0.42969-0.14257 0.41797-0.0723 0.48828-0.0332 0.56055 0.0332 0.49414 0.10547 0.38476 0.17969 0.38477 0.20898 0.28125 0.28125 0.24023 0.2793 0.39063 0.62695 0.20898 0.66992 0.10547 0.56055 0.0332 0.52344v43.979l6.1094 2.0996-0.14258-45.766 0.0332-0.69336 0.13671-0.56445 0.24219-0.66602 0.1875-0.31836 0.19727-0.3125 0.25781-0.28125 0.30273-0.24219 0.35743-0.21875 0.42773-0.13281 0.49023-0.10352 0.55469-0.0332 0.56055 0.0332 0.49414 0.10352 0.37891 0.17578 0.38476 0.21485 0.29102 0.26953 0.23633 0.28515 0.38476 0.63282 0.2207 0.66406 0.10352 0.52734 0.0273 0.56055v46.602h6.041l-0.17188-46.568 0.0664-0.62695 0.13281-0.59766 0.2461-0.66992 0.42968-0.63281 0.24219-0.3086 0.31836-0.25195 0.3457-0.20898 0.42383-0.16993 0.45508-0.10937 0.52734-0.0332 0.59375 0.0332 0.52344 0.14258 0.46094 0.16992 0.38477 0.25195 0.3125 0.27539 0.24804 0.28125 0.20899 0.35547 0.14257 0.31446 0.21485 0.66406 0.0976 0.56055v0.56054l0.0781 45.238 5.1816-1.5059-0.0332-44.154v-0.34766l0.10937-0.48828 0.21485-0.56641 0.27539-0.59375 0.41796-0.55468 0.28516-0.25782 0.30664-0.23633 0.35156-0.17578 0.38477-0.14843 0.42383-0.0664 0.46094-0.0332 0.63281 0.0332 0.52734 0.14258 0.41797 0.18164 0.38477 0.20312 0.28515 0.28125 0.23633 0.3125 0.18164 0.31836 0.13672 0.35157 0.17187 0.66601 0.043 0.56055v0.56054l0.10547 41.945 5.291-1.8184-0.0332-41.42 0.0723-0.74024 0.14258-0.56054 0.2793-0.59376 0.38086-0.56054 0.28515-0.28711 0.26953-0.20703 0.39453-0.20899 0.38477-0.18164 0.49023-0.0996 0.52735-0.0391 0.5664 0.0391 0.48828 0.0664 0.41797 0.18164 0.35157 0.20898 0.31836 0.27344 0.23632 0.28711 0.35157 0.66406 0.21484 0.62696 0.10352 0.57226 0.0332 0.56055 0.0781 38.715 6.0606-3.2988 0.0762-40.088 2.9082-10.244-7.293-10.242-8.0762 0.65039zm-133.13-4.5762-0.52734 3.5781 8.7383 1.2637-1.082 7.502 3.6758 0.56445 1.1211-7.5059 4.6328 0.66601-1.2598 8.5938 3.6777 0.56055 1.7852-12.172-20.762-3.0508zm213.95 0.34766-20.801 2.8125 0.69922 5.1484 16.836 0.8418-16.023 5.2969 0.69141 5.2266 20.807-2.8086-0.41797-3.3301-17.508 2.3516 17.084-5.5059-0.48828-3.5117-17.893-0.83985 17.463-2.3476-0.44922-3.334zm-55.598 6.6016-0.38281 0.13282-0.17188 0.14257-0.16992 0.17579-0.28516 0.52734-0.17578 0.77539-0.10547 1.0547 0.0391 1.3242 0.16602 0.31836 0.11524 0.31836 0.0977 0.45117-0.0391 0.5664-0.14258 0.62696-0.3457 0.66992-0.24219 0.3457-0.35156 0.35156-0.46094 0.24219-0.41211 0.28516-0.35742 0.35156-0.14258 0.24219-0.0605 0.24804 0.0273 0.2793 0.0703 0.31445 0.21484 0.31836 0.31446 0.35157 0.46093 0.3789 0.59375 0.39063 0.5879 0.21484 0.5332 0.24024 0.56054 0.38476 0.25196 0.24805 0.20312 0.24805 0.14258 0.3125 0.10547 0.31835v0.38477l-0.10547 0.38477-0.21289 0.45703-0.35156 0.49414-0.21485 0.38476-0.0996 0.41797v0.56445l0.0664 0.2754 0.14258 0.31836 0.21484 0.28124 0.3125 0.3125 0.38477 0.28516 0.49414 0.27539 0.62695 0.28516 0.74219 0.24219 0.55469-0.0703h0.5664l0.70313 0.0371 0.69726 0.10547 0.67774 0.24219 0.30078 0.14844 0.24219 0.20898 0.24804 0.23438 0.14844 0.32421 0.13086-0.80664 0.18164-0.80859 0.3125-0.98242 0.42383-1.0566 0.28516-0.48242 0.30273-0.49415 0.39063-0.46289 0.39062-0.41211 0.49414-0.31835 0.52149-0.28516 0.88476-0.69922 0.79102-0.73633 0.77539-0.8789 0.31836-0.44532 0.2539-0.46093 0.13672-0.45703v-0.42188l-0.13672-0.38477-0.11523-0.20898-0.20313-0.14258-0.50195-0.31445-0.77344-0.20899-0.41211-0.0371-0.45703-0.13867-0.49414-0.24609-0.20898-0.17578-0.25196-0.24805-0.16601-0.24219-0.13672-0.35156-0.10937-0.38867-0.0664-0.45703 0.0273-0.52149 0.10352-0.59961-0.0332-0.52148-0.0977-0.5332-0.20899-0.52344-0.1875-0.24024-0.20312-0.20898-0.28516-0.14258-0.30859-0.11133h-0.42188l-0.45117 0.0723-0.56054 0.21484-0.63672 0.2793-0.41797 0.17578-0.46289 0.0996-0.48828 0.0762-0.49414-0.043-0.20313-0.0664-0.20898-0.14258-0.17579-0.16992-0.14257-0.20899-0.0781-0.32031-0.0215-0.35156-0.22656-0.24024-0.54883-0.59961-0.8125-0.66601-0.45703-0.31836-0.46094-0.24609-0.45117-0.13282h-0.42383zm-105.46 3.1562-0.24805 0.0703-0.69141 0.23632-0.99414 0.42383-1.1816 0.66992-0.67578 0.45118-0.62695 0.52734-0.63281 0.63672-0.58789 0.69922-0.56445 0.80664-0.5332 0.91211-0.45703 0.97851-0.3457 1.1602-0.49414 0.59375-0.44531 0.70312-0.42969 0.87891-0.17578 0.49024-0.14844 0.52148-0.06641 0.56641v0.56054l0.06641 0.56446 0.2207 0.56054 0.30664 0.56055 0.42383 0.55664 0.18164 0.38867 0.17578 0.45703 0.17578 0.62696 0.14258 0.8125 0.0332 1.0176-0.0332 1.1856-0.18164 1.375 0.98438-1.1934 1.0488-1.3359 1.2637-1.6816 1.2637-1.9277 0.59375-1.0547 0.59375-1.0508 0.52734-1.0488 0.42969-1.0547 0.3457-1.0566 0.24219-1.0156-0.13672-0.42383-0.06641-0.48828-0.11133-0.76953v-1.0215l0.11133-1.3242 0.24219-1.6172 0.45508-1.9277zm-34.334 6.2734-20.977 0.98242 0.63281 13.123 3.748-0.18164-0.45117-9.5723 5.4023-0.24218 0.38477 8.3809 3.7148-0.17579-0.41797-8.3867 4.4062-0.20704 0.42969 9.1152 3.7266-0.16992-0.59961-12.666zm40.439 1.5449-0.28516 0.56055-0.38476 0.66406-0.63281 0.88086-0.83398 1.0488-1.166 1.1602-0.69727 0.59179-0.77539 0.63282-0.86719 0.63281-0.95703 0.63672-0.13672 0.0996-0.42383 0.31836-0.56055 0.52148-0.31836 0.39062-0.26953 0.45508-0.32422 0.52344-0.2793 0.63672-0.24805 0.69726-0.20898 0.7754-0.13672 0.875-0.10547 0.98828v1.0449l0.10547 1.1973-0.10547 0.37891-0.17578 1.0215-0.03711 0.69921v0.77344l0.10938 0.8418 0.20898 0.90625 0.42188-0.6582 0.55664-0.70899 0.73633-0.9082 0.94922-1.0547 1.1152-1.0879 1.3027-1.1211 0.73633-0.52735 0.73633-0.48437 0.24805-0.18164 0.63281-0.48828 0.38867-0.38477 0.45703-0.49414 0.41211-0.62695 0.42774-0.70313 0.38476-0.83984 0.34766-0.94532 0.24609-1.127 0.17578-1.2305 0.0332-1.3691-0.10352-1.5059-0.28711-1.6816-0.41211-1.8242zm-20.729 0.70313-1.6543 3.9609-1.0488 2.2754-0.52148 1.0605-0.17578 0.27539 0.0332 0.63282 0.06445 0.66992 0.14844 0.62695 0.13281 0.5918 0.46094 1.2363 0.59375 1.1211 0.69726 1.0508 0.81445 1.0156 0.80664 0.94531 0.875 0.8418 0.87891 0.77929 0.80274 0.6543 1.5059 1.0996 1.0605 0.66015 0.37891 0.2461-0.42383-1.0488-0.33984-1.084-0.28711-1.0547-0.24609-1.0938-0.30859-2.0332-0.14844-1.8945-0.06641-1.6055 0.03906-1.2695 0.06055-1.0879-0.24219-0.76953-0.49414-1.0547-1.4004-2.5234-1.3691-2.2461-0.62695-0.97851zm137.18 0.55664-0.25196 0.0723-0.27539 0.14258-0.32422 0.16992-0.30859 0.24805-0.63086 0.73633-0.70313 1.0156 0.20899 0.32032 0.16992 0.3125 0.0391 0.39062-0.0723 0.20899-0.10352 0.20312-0.17578 0.21289-0.27539 0.17774-0.38477 0.21289-0.49414 0.13867-0.59375 0.13672-0.77539 0.10937h-0.13672-0.36328l-0.47851 0.0996-0.28516 0.10938-0.24805 0.16992-0.24023 0.21484-0.20898 0.28125-0.17579 0.35547-0.11132 0.41797-0.0762 0.52734 0.043 0.62696 0.10547 0.74218 0.24805 0.83985-0.63281 0.49023-0.52149 0.53321-0.28711 0.3457-0.27929 0.41797-0.24805 0.41797-0.17578 0.46093-0.0937 0.48829-0.043 0.56054 0.0664 0.56055 0.18555 0.56055 0.34766 0.63867 0.45508 0.62695 0.24218 0.28516 0.28516 0.3457 0.24219 0.42383 0.28515 0.52734 0.17188 0.56055 0.0644 0.62695v0.3125l-0.0644 0.31836-0.39649 0.38477-0.26953 0.42382-0.24218 0.56641-0.0332 0.31836v0.3457l0.0664 0.35157 0.13281 0.3789 0.2461 0.39063 0.35156 0.41797 0.5 0.39062 0.59375 0.41602 0.45703 0.49023 1.0117 1.1914 1.0156 1.3027 0.31836 0.49414 0.13672 0.375v-0.27539l0.0996-0.3125 0.2207-0.42383 0.38282-0.52734 0.63281-0.56055 0.8789-0.63086 1.1875-0.63281 0.38477-0.17578 0.38477-0.20313 0.42773-0.31835 0.34766-0.46289 0.11523-0.27344 0.0977-0.31446 0.0332-0.35742-0.0332-0.3789-0.0977-0.46094-0.18164-0.45703-0.28125-0.48828-0.18164-0.48829-0.14258-0.59374v-0.35743l0.0332-0.30859 0.082-0.32422 0.17187-0.3125 0.24024-0.31445 0.32031-0.2793 0.42187-0.24805 0.52344-0.17578 0.53125-0.0371 0.49023-0.13867 0.25196-0.13672 0.23633-0.14258 0.20898-0.24218 0.14258-0.28516 0.10547-0.34766v-0.42187l-0.0723-0.52734-0.17578-0.59375-0.3125-0.69922-0.41797-0.80664-0.24805-0.28125-0.17578-0.28516-0.14257-0.35156-0.0664-0.46094 0.0391-0.23633 0.0606-0.24804 0.14258-0.2793 0.20898-0.24805 0.31836-0.28125 0.34766-0.2793 0.28515-0.3457 0.20899-0.39648 0.13086-0.56055 0.0508-0.30664-0.082-0.35352-0.0996-0.38867-0.16992-0.41797-0.28711-0.42968-0.38282-0.44922-0.50195-0.49024-0.625-0.49414-0.0664-0.35156-0.24804-0.83594-0.42188-1.0938-0.26953-0.56054-0.32422-0.48829-0.3457-0.45703-0.42969-0.3125-0.45117-0.17578-0.25195-0.0391h-0.26953zm-2.9902 26.934v0.006h0.002l-0.002-0.006zm23.043-25.078-1.7871 12.562 20.762 2.9844 1.8574-12.98-3.7148-0.52148-1.334 9.4688-5.3594-0.77539 1.1816-8.3477-3.6758-0.52734-1.1875 8.3476-4.3516-0.62695 1.291-9.0508-3.6816-0.5332zm-41 4.459-0.3418 0.0723-0.39062 0.20898-0.35157 0.35156-0.32421 0.53321-0.30664 0.72461-0.32032 0.99023 0.0391 0.3125-0.0391 0.39063-0.0644 0.41796-0.17578 0.52735-0.24805 0.52734-0.42383 0.52735-0.52734 0.45117-0.48828 0.49414-0.42969 0.52148-0.3457 0.63282-0.13672 0.35156-0.0332 0.38476v0.35157l0.10351 0.3457 0.17578 0.35156 0.32032 0.35156 0.44336 0.31836 0.64453 0.28125 0.13671 0.31836 0.24805 0.73047 0.0703 0.4961 0.0332 0.52734-0.0762 0.56055-0.17579 0.56054-0.0996 0.16993-0.17578 0.45507-0.17578 0.70899-0.0391 0.38476v0.37891l0.0781 0.41797 0.13672 0.42969 0.24219 0.38867 0.32422 0.34765 0.45508 0.3125 0.55469 0.28125 0.73632 0.21289 0.88086 0.13868 0.24024 0.17578 0.2539 0.21289 0.18164 0.28125 0.0606 0.35156-0.0391 0.20899-0.10352 0.21484-0.13867 0.20312-0.24609 0.21485-0.27539 0.24023-0.42969 0.28125-0.41602 0.52735-0.31445 0.56054-0.14844 0.3125-0.0976 0.31836-0.0449 0.32422 0.0449 0.30274 0.13086 0.2871 0.21484 0.24024 0.36328 0.21484 0.52735 0.17578 0.61523 0.10547 0.8457 0.0312 0.70313 0.57227 1.8203 1.2578 1.1582 0.76367 1.2305 0.70508 1.2266 0.63672 1.1543 0.45117-0.0391-0.31445 0.0391-0.42774 0.14258-0.52148 0.27539-0.66602 0.49414-0.73632 0.74219-0.80274 0.49414-0.46094 0.52734-0.45703 0.23633-0.0644 0.56055-0.28125 0.70312-0.42383 0.39063-0.28515 0.30664-0.34571 0.24805-0.3457 0.20898-0.39063 0.0762-0.45703-0.0762-0.48828-0.16992-0.49414-0.39063-0.52734-0.56054-0.58789-0.8086-0.60547-0.59179-0.17578-0.56641-0.20313-0.30859-0.21484-0.2461-0.20899-0.24219-0.27929-0.20312-0.31836-0.1543-0.41797-0.0273-0.45703 0.0273-0.52149 0.1543-0.59961 0.26953-0.70898 0.42188-0.76953 0.45117-0.38477 0.31836-0.41601 0.28125-0.5293 0.0703-0.24023v-0.28711l-0.11524-0.2461-0.16406-0.28125-0.31445-0.24219-0.42774-0.21289-0.55468-0.17187-0.73633-0.17578h-0.49609l-0.44922-0.14844-0.21485-0.0977-0.16992-0.16992-0.18164-0.21484-0.10547-0.24805-0.0703-0.35742 0.0273-0.37891 0.1211-0.49414 0.20898-0.59375 0.3457-0.66406 0.49024-0.76953 0.10937-0.70313 0.0274-0.70312-0.0606-0.73828-0.14258-0.38282-0.18164-0.32031-0.24219-0.3125-0.3457-0.20898-0.42969-0.17578-0.52148-0.0723-0.63281 0.0332-0.73633 0.18164-0.32422 0.0996-0.30078 0.0332h-0.42383l-0.48828-0.0996-0.5332-0.24805-0.56055-0.38281-0.56055-0.63867-0.45703-0.65821-0.52734-0.56054-0.3125-0.24805-0.35157-0.21484-0.35156-0.13672-0.35156-0.0723zm-134.89 5.7148-9.0117 2.043-11.469 2.5566 1.6758 7.6445 0.21484 0.70312 0.31836 0.66992 0.37891 0.58789 0.49414 0.49414 0.56641 0.49024 0.62695 0.41797 0.70312 0.39453 0.77539 0.3125 0.83984 0.24805 0.87891 0.16992 0.94141 0.11133 1.0215 0.0644 1.0547-0.0332 0.97852-0.0312v-0.002l0.10352-0.0332 1.1211-0.17969 1.1543-0.20508 1.0879-0.28515 1.0605-0.31836 0.94531-0.38477 0.86914-0.3789 0.8125-0.46094 0.73047-0.45703 0.67774-0.48828 0.58789-0.56055 0.49414-0.59961 0.41797-0.59961 0.31836-0.6582 0.24609-0.67188 0.17188-0.66406 0.07617-0.74219-0.03906-0.72461-0.14258-0.74218-1.6816-7.6875zm41.32 0.11132 0.01172 0.22071 0.02148-0.0508v-0.13672l-0.0332-0.0332zm0.01172 0.22071-0.08789 0.19726-0.27539 0.46094-0.55469 0.62695-0.95703 0.8418-1.3672 1.1211-1.8867 1.3672-0.21875 0.10938-0.52734 0.35351-0.76367 0.625-0.39062 0.42969-0.46094 0.48828-0.38476 0.55469-0.41797 0.67187-0.3457 0.76368-0.28125 0.85156-0.24805 0.94531-0.14258 1.0488-0.02734 1.1602 0.06055 1.2578 0.10938 0.28515 0.09961 0.38086 0.08203 0.56446 0.0332 0.69921v0.8125l-0.11524 0.97852-0.20898 1.127 0.98438-1.1602 2.3516-2.7031 2.7422-2.9785 1.2148-1.2695 0.98242-0.87305 0.25391-0.76953 0.20898-0.91211 0.20312-1.1934 0.21484-1.4727 0.17969-1.7148 0.0293-1.8633-0.08789-1.8125zm-27.049 2.9355v0.44922l0.06641 1.2305 0.09766 0.84766 0.17578 0.98242 0.24805 1.0898 0.35156 1.1152 0.46094 1.1914 0.58789 1.1934 0.73633 1.1914 0.875 1.1992 0.5 0.56055 0.56055 0.48242 0.59961 0.5664 0.625 0.49024 0.69922 0.48828 0.77344 0.46094 0.80274 0.41796 0.85156 0.37891 0.23633-0.0664h0.31836l0.49609 0.0664 0.70312 0.25977 0.90625 0.44922 1.2246 0.69921 1.4727 1.0156-0.94336-2.2422-0.80274-2.0664-0.66602-2-0.18164-0.48829-0.24023-0.5996-0.49024-0.76954-0.70312-0.91796-0.98438-1.0117-0.5918-0.56446-0.69922-0.56054-0.81836-0.56055-0.90625-0.59375-0.80859-0.28125-0.87305-0.35156-1.0273-0.45508-1.0781-0.63281-1.0547-0.7793-0.45703-0.41211-0.41602-0.46289-0.35156-0.48242-0.27539-0.52735zm159.61 0.48829-3.5391 13.502 3.6094 0.94922 1.2969-4.9785 16.729 4.2754 0.90625-3.4336-16.723-4.3535 1.2969-5.0117-3.5762-0.94921zm-176.7 0.52343 0.80859 3.6543 0.06641 0.42383 0.0332 0.41797-0.06641 0.3789-0.11524 0.38477-0.13281 0.39648-0.24609 0.35156-0.27539 0.30665-0.31836 0.31835-0.81445 0.59961-1.043 0.52735-1.2637 0.45117-1.4414 0.37891-1.4004 0.29101h-0.14258l-1.3633 0.0996-1.2637-0.0273-1.0879-0.18164-0.91211-0.3125-0.42969-0.24805-0.30664-0.24609-0.27539-0.28125-0.25195-0.34571-0.17578-0.35156-0.10547-0.39062-0.83984-3.6113 7.1543-1.582 6.209-1.4024zm43.627 9.9277-0.16992 0.0644-0.49414 0.25977-0.66602 0.56054-0.41602 0.38477-0.39062 0.52148-0.42969 0.59961-0.44922 0.73633-0.38477 0.87305-0.38476 1.0215-0.35156 1.1543-0.31836 1.3359-0.24219 1.5058-0.17578 1.6816 0.41797 0.70312 0.38867 0.80859 0.45703 1.0879 0.42188 1.2305 0.13867 0.69141 0.13672 0.70508 0.10547 0.74023 0.03125 0.76367-0.03125 0.77539-0.10547 0.7754 0.39062-0.24805 0.41797-0.38477 0.5332-0.63672 0.54883-0.87304 0.28516-0.59375 0.27539-0.66602 0.29102-0.74219 0.24219-0.87304 0.21484-0.98438 0.20898-1.0547 0.30664-0.41797 0.28125-0.52735 0.28516-0.80273 0.28516-1.0918 0.17188-1.4023 0.03711-0.8086v-0.90625l-0.03711-0.98828-0.11133-1.1211-0.13672-0.0664-0.14258-0.17578-0.20312-0.31836-0.24219-0.48437-0.28516-0.66993-0.35352-0.94531-0.35156-1.1973zm-37.031 1.6875-19.646 7.4688 4.6602 12.242 3.5117-1.3398-3.3965-8.9414 5.0449-1.8906 2.9844 7.8594 3.4727-1.3359-2.9844-7.8574 4.1387-1.5781 3.2305 8.5566 3.4688-1.3301-4.4844-11.854zm146.29 3.5391-0.41211 0.0332-0.39453 0.14258-0.37891 0.24805-0.39062 0.38476-0.31836 0.49414-0.27539 0.65821-0.25196 0.82031-0.17187 0.97656-0.35156 2.5898-0.0332 0.21289v-0.2461l0.13868-1.8242-0.51758-0.17187-0.53321-0.10352-0.28515-0.0332-0.24805 0.0332-0.24023 0.10352-0.21485 0.13281-0.13281 0.25781-0.0703 0.3086-0.0332 0.42187 0.10351 0.5293 0.17188 0.6582 0.28515 0.77539 0.23633 0.18164 0.66992 0.45508 1.1602 0.6211 1.6152 0.70312 0.49414 0.18164 0.52149 0.0664 0.59961-0.0332 0.28125-0.0664 0.24023-0.14844 0.20508-0.20898 0.21875-0.3125 0.13281-0.38477 0.082-0.45508v-0.59961l-0.11523-0.70312 0.45508-0.84766 0.39062-0.83398 0.38477-1.0176 0.14258-0.52734 0.0723-0.52149 0.0332-0.49414-0.0332-0.49609-0.14258-0.46094-0.2207-0.37891-0.33984-0.3125-0.49024-0.20898-0.18164-0.11133-0.44922-0.20898-0.63867-0.21289-0.39062-0.0664h-0.37891zm22.301 0.49414-0.62109 0.10352-0.63868 0.14257-0.56054 0.20899-0.56055 0.28125-0.56055 0.3125-0.49414 0.41797-0.45117 0.46093-0.46094 0.49024-0.38476 0.59766-0.35156 0.62695-0.3125 0.66406-0.24219 0.70899-0.20899 0.70507-0.10937 0.65821-0.0664 0.66992 0.0332 0.62695 0.0664 0.59961 0.14844 0.59375 0.20312 0.56641 0.25196 0.52734 0.3457 0.52148 0.39063 0.46094 0.45117 0.45117 0.52734 0.42383 0.59961 0.38477 0.625 0.3457 0.70899 0.3125 0.97265 0.35742 0.95117 0.17578 0.87891 0.0332 0.83594-0.13672 0.8125-0.28125 0.76953-0.42188 0.69922-0.5664 0.66406-0.73047 3.1992-3.9238 0.24609-0.25391 0.31836-0.20898 0.30274-0.17578 0.32421-0.13672 0.3418-0.0723h0.36133l0.34766 0.0391 0.35547 0.0996 0.52343 0.27929 0.44922 0.39063 0.32031 0.41797 0.17578 0.52734 0.10938 0.59375-0.0391 0.66406-0.13672 0.70313-0.28125 0.80859-0.35547 0.70899-0.42383 0.59375-0.49414 0.44921-0.52344 0.35743-0.58789 0.17187-0.66992 0.0312-0.70312-0.0644-0.76954-0.21484-1.3359 3.1934 0.80859 0.28516 0.76953 0.20313 0.7793 0.10937 0.69336 0.0664 0.70312-0.0332 0.63282-0.0664 0.625-0.14258 0.59961-0.20313 0.56054-0.29101 0.57227-0.38477 0.48242-0.42382 0.46289-0.48829 0.45508-0.52148 0.3789-0.62695 0.38477-0.70899 0.35742-0.73633 0.28125-0.77539 0.16992-0.73047 0.13672-0.70898 0.0723-0.69141v-0.67578l-0.0723-0.62695-0.13672-0.63281-0.21484-0.59375-0.26953-0.56055-0.35156-0.56055-0.4336-0.49414-0.45117-0.45508-0.52148-0.46289-0.59961-0.38476-0.66407-0.37891-0.70312-0.3125-1.1543-0.39062-0.52734-0.10352-0.49024-0.0723h-0.49414l-0.48437 0.0391-0.4668 0.10351-0.45117 0.14258-0.73633 0.34766-0.625 0.38867-0.5664 0.49609-0.56641 0.6211-3.2969 4.1426-0.24218 0.27539-0.2793 0.21289-0.28125 0.13867-0.31836 0.10937-0.3457 0.0332h-0.32031l-0.34571-0.0332-0.36133-0.14843-0.49023-0.23633-0.41797-0.35156-0.27344-0.38477-0.2207-0.49414-0.0996-0.52148v-0.56055l0.0996-0.59961 0.2207-0.63281 0.30664-0.66407 0.38477-0.56054 0.43359-0.42383 0.48438-0.3125 0.5664-0.18164 0.62696-0.0664 0.66992 0.0664 0.73047 0.14258 1.3027-3.1934-0.70312-0.2793-0.69922-0.17578-0.70313-0.10547-0.66406-0.0312h-0.67578zm-154.46 0.0996 0.11523 0.32422 0.23633 0.94531 0.52734 1.3691 0.8125 1.748 0.56055 0.94922 0.63281 1.0176 0.69726 1.0156 0.85156 1.0508 0.97266 1.0488 1.0938 1.0234 1.1875 0.98242 1.3359 0.94531 8.7637 1.9629 0.0332-0.38476-0.13672-1.0176-0.14258-0.69727-0.24219-0.80859-0.38477-0.87891-0.48828-0.98437-0.70898-0.98242-0.875-1.0547-1.0488-1.0117-0.62695-0.52734-0.70898-0.48438-0.73047-0.52734-0.8457-0.49414-0.88476-0.45704-0.94531-0.44921-1.0508-0.46289-1.1094-0.42188-1.2031-0.42383-1.2969-0.3457-0.16992 0.10351-0.28125 0.0391-0.46094-0.0391-0.56055-0.17578-0.76367-0.35156-0.95117-0.63672-1.2031-0.9082zm118.58 0.98437-0.3457 0.0723-0.39648 0.17578-0.41211 0.2461-0.41211 0.45117-0.2207 0.25781-0.125 0.3457-0.14844 0.34766-0.0781 0.45508-0.0644 0.49023 0.0332 0.56055 0.0703 0.0762 0.0723 0.0996-0.0332 0.16992-0.0781 0.18164-0.23633 0.17578-0.39453 0.2461-0.62695 0.28125-0.45117 0.10351-0.45508 0.17578-0.46289 0.32032-0.20703 0.20703-0.17774 0.24219-0.0977 0.2539-0.082 0.3457-0.0273 0.35157 0.0645 0.41797 0.17187 0.45507 0.29102 0.52735 0.13671 0.31445 0.0996 0.35156 0.0371 0.39063-0.0703 0.44922-0.0664 0.20898-0.13671 0.24805-0.21485 0.21484-0.28515 0.16992-0.3086 0.17579-0.42383 0.14257-0.45507 0.16993-0.42383 0.21484-0.45508 0.3125-0.41797 0.45703-0.18164 0.28516-0.13281 0.31836-0.0703 0.34765v0.38867l0.0332 0.45118 0.13672 0.49023 0.0723 0.2793v0.28515l-0.0391 0.38086-0.0996 0.46094-0.24609 0.42383-0.35157 0.44922-0.52343 0.39062-0.4668 0.38477-0.37891 0.41211-0.32421 0.60351-0.0547 0.3086-0.0723 0.39062 0.0391 0.35742 0.0879 0.41797 0.22461 0.41602 0.34765 0.42383 0.45508 0.45117 0.59375 0.44922 0.39062 0.49609 0.80664 1.1914 0.97852 1.6113 0.42383 0.80664 0.35156 0.7754 0.3125-0.38477 0.41797-0.39063 0.56641-0.41796 0.73632-0.42188 0.95118-0.3457 0.52148-0.14453 0.56641-0.0703 0.62109-0.0332h0.66992l0.70313-0.0664 0.66601-0.14257 0.77344-0.28516 0.38086-0.20898 0.32422-0.24219 0.30664-0.31836 0.21484-0.38477 0.16993-0.42382 0.0781-0.52735-0.0781-0.58789-0.13086-0.69726-0.17579-0.46289-0.11132-0.48243-0.0332-0.52343 0.0332-0.31836 0.11132-0.28516 0.13672-0.24219 0.2461-0.25195 0.26953-0.20313 0.39062-0.18164 0.5-0.14257 0.56055-0.0664h0.66016l0.56054-0.0723 0.31836-0.10351 0.28516-0.14258 0.27539-0.16602 0.18164-0.25195 0.13086-0.31445 0.0781-0.38867-0.0781-0.4961-0.16992-0.55468-0.32422-0.63086-0.45117-0.76954-0.20313-0.20898-0.18164-0.28125-0.14258-0.35742-0.0644-0.41602 0.0644-0.49609 0.28125-0.55469 0.21485-0.31836 0.27929-0.3125 0.3125-0.52734 0.25391-0.59375 0.16406-0.74219v-0.3457l-0.0332-0.42383-0.0977-0.38477-0.17578-0.3457-0.31445-0.35156-0.38867-0.35742-0.5293-0.28125-0.6582-0.2793-0.082 0.0332-0.23633 0.0371-0.39063-0.10351-0.56054-0.28125-0.34571-0.2461-0.39648-0.3457-0.41797-0.46289-0.45508-0.56055-0.48437-0.69726-0.52735-0.8418-0.60547-0.98242-0.63086-1.127zm-93.283 8.5215-0.14844 0.10547-0.17188 0.27929-0.20898 0.53321-0.16992 0.875-0.18164 1.2969-0.07617 1.7852 0.03906 2.4238 0.03711 0.74218 0.0332 0.76954 0.14844 0.94531 0.20898 1.0879 0.26953 1.0762 0.43359 1.0488 0.26367 0.45703 0.32422 0.46094 0.35156 0.0996 0.38477 0.18164 0.49023 0.24609 0.56055 0.38477 0.56641 0.52929 0.56055 0.625 0.48828 0.8418 0.24805-0.80273 0.20898-0.88477 0.20703-1.1875l0.135-1.37v-1.5098l-0.0332-0.80273-0.14844-0.80274-0.16992-0.85156-0.20898-0.80273-0.59375-0.90625-1.3359-2.1758-1.4727-2.5566-0.59961-1.1973-0.38477-0.95117h-0.06445zm-34.027 0.32031-2.4902 1.4394v-0.004l-15.711 8.9844 1.791 3.0723 7.1172-4.0547 1.8906 3.252 0.2793 0.63282 0.17578 0.52734 0.06641 0.48828-0.0332 0.45117-0.17578 0.42969-0.3125 0.37891-0.45117 0.38476-0.56055 0.38867-2.8086 1.7207-0.83398 0.56055-0.95703 0.80859 2.0332 3.5059 0.45703-0.28125 0.07031-0.45508 0.21484-0.38477 0.37891-0.35156 0.63281-0.39062 2.9824-1.791 0.63281-0.41211 0.52148-0.38476 0.42969-0.42383 0.3457-0.42383 0.24219-0.42188 0.18164-0.49414 0.09766-0.48437 0.04492-0.56055v-0.32422l0.59375 0.35743 0.625 0.24218 0.03906 0.041 0.62695 0.0996 0.70898 0.0332 0.73047-0.0664 0.73633-0.17579 0.76953-0.31836 0.77539-0.3789 0.52734-0.32422 0.52148-0.38477 0.42969-0.3789 0.41602-0.42383 0.35156-0.45117 0.28125-0.46094 0.2793-0.48828 0.17578-0.48438 0.17578-0.49023 0.07813-0.52734 0.0332-0.52735v-0.52734l-0.11133-0.49414-0.10352-0.52735-0.20898-0.52148-0.24609-0.48438-4.457-7.7207zm155.73 1.1211-2.1484 3.4668 6 7.6504-9.6445-1.6816-2.209 3.6055 14.271 1.7129 6.7324 4.1387 1.9004-3.082-6.7031-4.1055-8.1992-11.705zm-157.13 3.752 2.3477 4.1055 0.21289 0.45703 0.11133 0.46094v0.44531l-0.14844 0.46094-0.20898 0.41796-0.35156 0.37891-0.42383 0.39648-0.52734 0.34571-0.55469 0.27539-0.49609 0.14258-0.52148 0.0664-0.45117-0.0332h-0.07617v0.002l-0.3457-0.14843-0.39062-0.20313-0.3457-0.31445-0.31836-0.41602-2.3535-4.0625 3.7539-2.1426v-0.002l1.0879-0.63281zm20.377 2.5957 0.39062 0.4961 0.3457 0.63085 0.59375 1.5391 0.46094 1.3633 0.17578 0.59375 1.1172 0.87305 1.1641 0.78124 1.1543 0.66407 1.1914 0.62695 1.1543 0.52734 1.166 0.46094 2.1758 0.69922 1.8906 0.48828 1.5059 0.2793 1.3672 0.20898-0.56445-0.59179-0.52344-0.63282-0.94531-1.2969-0.91211-1.3691-0.98242-1.4004-0.83594-1.0508-0.70312-0.76758-0.5332-0.5293-0.37891-0.3457-0.24805-0.21485-0.21484-0.0644-1.3613-0.18164-1.4727-0.23633-1.5117-0.32422-1.4395-0.3457-2.2812-0.59961-0.94531-0.28125zm21.926 4.1328 1.3301 1.5059 1.2207 1.5781 1.127 1.5488 0.97852 1.4668 1.4062 2.248 0.52734 0.91211 1.5059 0.66992 1.5449 0.48438 1.5039 0.39062 1.4082 0.2793 2.1758 0.28125 0.87305 0.0664-0.45508-1.0898-0.45703-1.0098-0.45508-0.91796-0.49023-0.875-0.97266-1.4727-0.91796-1.1582-0.8457-0.875-0.66992-0.63086-0.59375-0.49414-0.83594-0.52344-0.8457-0.49414-0.83984-0.41797-0.8418-0.35156-1.6484-0.51563-1.5176-0.31445-1.291-0.18164-1.0156-0.10938h-0.9082zm74.391 3.0508-0.24609 0.0332-0.28516 0.10351-0.27539 0.17579-0.31836 0.28124-0.31445 0.25196-0.32422 0.24219-0.30664 0.38476-0.32422 0.46094-0.17578 0.52344v0.3125 0.31836l0.10938 0.31445 0.14843 0.38476 0.26953 0.0762 0.2793 0.13672 0.32422 0.20898 0.27539 0.24805 0.17578 0.35156 0.0449 0.17578v0.24219l-0.0781 0.24218-0.10352 0.2461 0.0645 0.42383 0.17578 0.3789 0.28711 0.42383 0.20898 0.17578 0.27344 0.21289 0.35742 0.13282 0.38477 0.10937 0.49414 0.0723h0.55664l0.63672-0.0723 0.73632-0.14258 0.13672-0.23633 0.34766-0.59961 0.42187-0.91601 0.18164-0.55664 0.0996-0.63086 0.0332-0.46289-0.0332-0.48828-0.0664-0.52149-0.18164-0.49023-0.0996-0.21289-0.14649-0.17578-0.20898-0.10547-0.20899-0.0703h-0.24804l-0.27539 0.10351-0.17578 0.0332-0.38477-0.0332-0.24609-0.0664-0.24-0.08-0.20312-0.20899-0.21876-0.31836-0.14453-0.3457-0.16406-0.32031-0.29101-0.35156-0.31446-0.24024-0.20703-0.0391-0.20508-0.0332zm-15.996 1.5039-0.38477 0.0449-0.35156 0.10352-0.32422 0.20312-0.24219 0.24805-0.24218 0.24609-0.35156 0.56055-0.28516 0.62695-1.0488 0.52735-0.79687 0.32422-0.60547 0.20312-0.41797 0.0664-0.2793-0.0332-0.14258-0.0332-0.10547-0.10351-0.73046-0.39063-0.66993-0.26953-0.59375-0.18164-0.49414-0.10938h-0.45703l-0.41797 0.0391-0.31836 0.10351-0.32421 0.14844-0.20313 0.16992-0.21484 0.20899-0.2793 0.35156-0.16992 0.42383-5.5781 4.3809-0.93945 0.66992-0.82031 0.52148-0.76953 0.38477-0.66407 0.28125-0.62695 0.17969-0.52148 0.0664-0.4668 0.0391-0.41797-0.0723-0.35156-0.0644-0.24219-0.14844-0.42383-0.28125-0.24609-0.24219-0.0664-0.10352-0.91211-0.52734-1.0488-0.62695-1.2051-0.8086-1.9883-1.3398-1.8633-1.082-1.7207-0.875-1.6152-0.67578-1.4668-0.47852-1.3359-0.35156-1.1856-0.21875-1.0898-0.0723-0.94922-0.0273-0.84179 0.0664-0.70313 0.14257-0.56055 0.14258-0.73632 0.27539-0.2793 0.10938 0.38867 0.59375 0.38477 0.52148 0.42382 0.4961 0.41211 0.49414 0.98828 0.80664 1.0117 0.73242 1.0879 0.5918 1.0879 0.49609 1.084 0.38477 1.0918 0.32422 1.0566 0.23632 0.94531 0.17578 1.6426 0.16993 1.1641 0.0762h0.38477l1.1211 0.10547 0.94531 0.14257 0.8086 0.13086 0.63085 0.18164 0.56055 0.17579 0.41211 0.17187 0.35352 0.17969 0.25195 0.18164 0.13672 0.20312 0.11133 0.14454 0.10351 0.3125-0.0449 0.17578-0.0312 0.10351-0.94141 0.52735-0.91211 0.56054-0.8125 0.59961-0.76953 0.63282-0.66992 0.6582-0.62695 0.63867-1.0547 1.2578-0.76953 1.1602-0.55469 0.91211-0.42969 0.83984 1.4785 0.48828 0.41211-1.1523 0.5332-0.98438 0.59375-0.90625 0.63282-0.80859 0.63671-0.70312 0.69727-0.63282 0.66602-0.52734 0.66992-0.46094 1.2207-0.66015 1.0215-0.41797 0.66407-0.2461 0.24804-0.0723 0.27539-0.24219 0.25196-0.17969 0.51758-0.17578 0.48828-0.0332 0.47265 0.0976 0.38477 0.14844 0.27539 0.16992 0.24609 0.21485 0.66602 0.28515 0.59766 0.34766 0.55664 0.41797 0.52734 0.45508 0.45508 0.52734 0.41797 0.52734 0.70312 1.0879 0.52735 1.0117 0.39062 0.88477 0.27539 0.80859 1.7148-0.74804-0.24219-0.45118-0.28125-0.52734-0.69141-1.0098-0.85156-1.0898-0.88477-0.98242-1.4961-1.6152-0.66992-0.63282 0.0781-0.39062 0.13672-0.3125 0.16992-0.20899 0.24805-0.17578 0.24023-0.14258 0.32618-0.0723 0.58789-0.0332 0.59765 0.0723 0.52344 0.10938 0.49414 0.17578 0.83985 0.52734 0.77539 0.34766 0.59375 0.17578 0.52734 0.0644h0.37891l0.33007-0.0644 0.19727-0.0723 0.42383 0.42969 0.42187 0.3125 0.36328 0.24805 0.26368 0.13086 0.29101 0.0391h0.23633l0.20898-0.0723 0.1875-0.0976 0.24219-0.28711 0.17578-0.35742 0.10352-0.34571 0.28125-0.21484 0.27929-0.14258 0.49415-0.0937 0.45703 0.0606 0.3789 0.14453 0.35742 0.24609 0.24219 0.21485 0.20899 0.24804 0.45508 0.76367 0.46289 0.60352 0.48828 0.41797 0.45117 0.24219 0.45508 0.13672 0.46289 0.0391 0.42187-0.0723 0.37891-0.13672 0.39062-0.20898 0.35157-0.21484 0.52343-0.49415 0.38282-0.41796 0.14453-0.16993 0.35156-0.60546 0.38867-0.3125 0.38086-0.16993h0.31836l0.30664 0.0664 0.20899 0.14258 0.22656 0.14258 0.6914 0.66406 0.56055 0.45703 0.52735 0.3125 0.42382 0.18164 0.34571 0.0664 0.31836-0.0332 0.24218-0.10937 0.18164-0.17578 0.14258-0.24219 0.0937-0.24805 0.11524-0.52734v-0.56055-0.27929-0.20313l0.0605-0.18164 0.1211-0.10547 0.26953-0.20898 0.3125-0.0703h0.35742 0.2793l0.31445 0.0703 0.93945-0.56055 0.70899-0.46094 0.52734-0.45508 0.37891-0.66015 0.46289-0.70899 0.56054-0.69726 0.59766-0.63867 0.98438-1.0098 0.46093-0.42383-1.6602 0.42383-1.1191 0.24609-0.73242 0.0723-0.38868-0.0723-0.14453-0.10937v-0.13672l0.14453-0.17578-0.42382-0.875-0.42383-0.70898-0.45508-0.52735-0.41797-0.37891-0.39062-0.28124-0.41211-0.17579-0.38477-0.0762h-0.3457l-0.36328 0.0762-0.3125 0.10547-0.49414 0.2793-0.35352 0.24805-0.0977 0.10351-1.1211 0.13867-0.77539-0.0391-0.5332-0.0996-0.33985-0.16992-0.13867-0.18164-0.0371-0.16992v-0.17578l-0.56641-0.70899-0.52148-0.48828-0.49609-0.35156-0.45508-0.17188-0.41797-0.0762zm47.699 0.74414-0.63086 0.0664-0.59375 0.14258-0.60547 0.20312-0.59375 0.28711-0.5918 0.3125-0.56054 0.42383-0.5293 0.49414-0.53125 0.52148-0.47852 0.59961-0.39648 0.56055-0.3457 0.59375-0.28125 0.59961-0.16993 0.58789-0.14843 0.64258-0.0606 0.58789v0.59961l0.0937 0.59765 0.14844 0.59375 0.20312 0.56055 0.27539 0.59375 0.36328 0.56055 0.41211 0.5664 0.5 0.53321 0.56055 0.51562 0.80078 0.66602 0.80274 0.45508 0.85156 0.3457 0.83594 0.14844 0.8457 0.0332 0.87891-0.18164 0.875-0.30664 0.87304-0.45117 4.2871-2.6328 0.30664-0.17578 0.34766-0.10937 0.35156-0.0723h0.38867l0.35352 0.0723 0.3125 0.10937 0.31836 0.13282 0.28125 0.21875 0.42187 0.45117 0.28125 0.49023 0.16992 0.53125v0.55664l-0.0996 0.56055-0.25196 0.625-0.3789 0.64453-0.52735 0.625-0.5664 0.59961-0.58789 0.42383-0.60547 0.23633-0.58789 0.14843-0.64258-0.0391-0.62696-0.14258-0.6582-0.31836-0.67187-0.48437-2.2793 2.6328 0.66406 0.48828 0.66992 0.45117 0.66602 0.35743 0.66016 0.3125 0.63671 0.21484 0.66407 0.13086 0.63281 0.0723 0.63086-0.0332 0.63281-0.0664 0.63281-0.14258 0.5918-0.24805 0.59961-0.3125 0.59961-0.38476 0.59375-0.45508 0.59766-0.52344 0.56054-0.60352 0.48438-0.59375 0.46679-0.63281 0.34571-0.625 0.27539-0.63867 0.21484-0.63086 0.17578-0.62695 0.0703-0.63672v-0.63281l-0.0703-0.62696-0.17578-0.63086-0.21484-0.59961-0.27539-0.62695-0.34571-0.56641-0.42382-0.59179-0.52735-0.56055-0.56054-0.56641-0.94532-0.73632-0.46093-0.27539-0.45508-0.20899-0.45117-0.18164-0.46094-0.10351-0.49024-0.0664h-0.48828l-0.76953 0.0664-0.74219 0.17578-0.69726 0.28515-0.73633 0.41797-4.4961 2.8027-0.31836 0.14257-0.3086 0.10547-0.35156 0.0703h-0.3125l-0.32422-0.0703-0.30859-0.10547-0.32422-0.17578-0.27344-0.24219-0.39062-0.39062-0.28125-0.45508-0.13086-0.48828-0.0391-0.49609 0.0723-0.52735 0.16992-0.55468 0.31836-0.52149 0.38477-0.52734 0.52734-0.52735 0.56055-0.38476 0.52734-0.28711 0.59375-0.10352h0.56641l0.58789 0.13672 0.63281 0.28516 0.63672 0.38476 2.3125-2.5976-0.59766-0.45703-0.59375-0.42383-0.62695-0.3457-0.60351-0.2461-0.63282-0.20508-0.62695-0.14258-0.63672-0.0332h-0.62695zm-135.7 0.55664-6.1328 2.7754v-0.002l-13.822 6.1719 2.4844 2.9062 4.0332-1.8516 4.1113 4.8027-2.5605 3.6094 2.5605 2.9785 3.1934-4.8027v-0.004l8.8242-13.398-2.6914-3.1856zm29.252 3.0176-0.24805 0.0371-0.09961 0.0664-0.03711 0.0391-6.8086 0.48828 0.56445 0.35742 0.58789 0.52344 0.57226 0.5918 0.52734 0.63281 0.83594 1.0938 0.32422 0.45117 1.043 0.66406 0.99023 0.56055 0.97266 0.41797 0.91797 0.35742 0.87305 0.24219 0.8125 0.17969 0.77539 0.0996 0.69922 0.0332 1.2246-0.0332 0.90625-0.13672 0.56641-0.14258 0.20898-0.0391 2.8359-0.93946 2.252-0.59961 1.4355-0.31836 0.52734-0.10547-1.1602-0.16992-1.2578-0.28515-1.2754-0.35157-1.1816-0.3789-1.8965-0.70313-0.77344-0.28711-1.9238-1.0117-1.5117-0.66992-1.0488-0.42187-0.74219-0.20508-0.48828-0.0371zm-31.494 1.6094-3.8906 5.5508-1.0566 1.4707-2.834-3.2969 3.8906-1.8633v0.002l3.8906-1.8633zm9.7871 3.7226-13.223 16.305 9.502 7.6777 2.3906-2.9394-6.666-5.3965 10.832-13.371-2.8359-2.2754zm39.594 0.17383-1.4024 0.21289-1.2578 0.27539-1.127 0.35156-1.0156 0.35743-0.9121 0.41796-0.77539 0.41797-0.70312 0.46094-0.59375 0.41797-0.48828 0.41797-0.42969 0.42187-0.58203 0.70313-0.35742 0.45117-0.10352 0.21484 1.334 0.2793 1.3301 0.11133 1.2969 0.0312 1.2305-0.0644 1.0508-0.11133 0.8457-0.10938 0.73047-0.13672 3.4356-0.56054 2.1758-0.31446 1.4394-0.11523 0.35156-0.58203 0.52735-0.60352 0.58789-0.59375 0.63867-0.59375 1.0879-0.91797 0.45508-0.35156-2.252-0.0332-1.8906-0.0332-2.6934-0.17579-1.4785-0.17578-0.45508-0.0703zm74.143 3.6856-10.48 7.1562 11.816 17.32 10.836-7.3633-2.1035-3.0879-7.9258 5.375-3.0156-4.457 6.9453-4.7383-2.1094-3.082-6.9356 4.7305-2.5-3.6543 7.582-5.1152-2.1094-3.084zm-97.883 7.75-8.7754 19.074 3.2305 1.4785 3.4355-7.4688 3.4395 1.6113 0.59375 0.3125 0.45508 0.35156 0.35156 0.3457 0.21484 0.39649 0.06641 0.45508v0.48437l-0.13672 0.56641-0.25391 0.63086-1.291 3.0508-0.35156 0.94531-0.28516 1.1914 2.6367 1.2324v0.002l1.0176 0.45703 0.20312-0.49414-0.17188-0.42382-0.06445-0.42383 0.09766-0.52149 0.28125-0.66992 1.4004-3.1875 0.28711-0.70312 0.21289-0.63282 0.09961-0.56054 0.0332-0.56055-0.0332-0.49414-0.13672-0.48438-0.21484-0.45507-0.3125-0.46094-0.13867-0.28125 0.66602-0.0664 0.63086-0.13672 0.62695-0.29101 0.59961-0.37891 0.56445-0.49609 0.48438-0.56055 0.45703-0.69726 0.41602-0.76954 0.25391-0.5664 0.18164-0.5918 0.13672-0.60547 0.10938-0.56054v-0.59375-0.51563l-0.07617-0.56641-0.14258-0.49023-0.17578-0.53125-0.20898-0.45703-0.28711-0.45117-0.3125-0.38867-0.35156-0.39063-0.41797-0.35156-0.45508-0.31446-0.48438-0.24023-4.7754-2.1719v-0.004l-3.3301-1.5762zm86.381 0.0684-3.3965 1.582 3.3691 16.02-10.111-12.832-3.5059 1.6543 14.172 16.514 3.0879-1.4336-3.6152-21.504zm-84.672 4.7344 1.6211 0.77539v-0.002l2.666 1.2246 0.42187 0.24219 0.35156 0.32421 0.28125 0.38477 0.13672 0.42188 0.06641 0.48437-0.0332 0.5332-0.13672 0.56055-0.24805 0.59375-0.2793 0.52734-0.34766 0.42383-0.35742 0.35156-0.38281 0.23633-0.45703 0.14258-0.46094 0.0332-0.44531-0.0664-0.5-0.17578-0.27539-0.10547v0.004l-3.9629-1.8301 2.3418-5.084zm13.189 1.752-5.7109 20.201 12.596 3.5879 1.0117-3.6211-9.1934-2.5938 1.4727-5.2266 8.1055 2.3184 1.0156-3.582-8.1055-2.2754 1.1992-4.2812 8.8027 2.4902 0.97852-3.5391-12.172-3.4785zm53.141 1.4356-0.5293 0.0781-0.56055 0.13086-0.27929 0.11523-8.2442 2.4238 5.9629 20.123 2.2812-0.66407v0.002l1.1328-0.34766-1.1328-3.7246v-0.002l-1.2266-4.1387 1.2266-0.34571 2.418-0.73633 0.66407-0.13672 0.5664-0.0723 0.48438 0.0332 0.43359 0.17578 0.35156 0.28125 0.3086 0.38868 0.27344 0.48437 0.24804 0.66992 1.0215 3.1172 0.35156 0.98828 0.59961 1.0508 3.8633-1.127-0.18164-0.56055-0.42188-0.13867-0.31445-0.32422-0.24609-0.44922-0.24219-0.66015-1.0508-3.3359-0.25781-0.70313-0.26953-0.63281-0.28516-0.48828-0.35156-0.42383-0.35157-0.35156-0.41797-0.27344-0.45703-0.2207-0.56054-0.16992-0.2793-0.0664 0.45508-0.48828 0.38476-0.56641 0.28125-0.59375 0.21485-0.70312 0.0644-0.74219v-0.76367l-0.0644-0.8125-0.21485-0.83594-0.21484-0.60547-0.24219-0.55468-0.28515-0.52149-0.3125-0.49414-0.35157-0.45703-0.38476-0.38477-0.41797-0.35742-0.42383-0.30664-0.45508-0.28711-0.49609-0.20312-0.48828-0.14844-0.52735-0.10938-0.49023-0.0332h-0.55859zm-34.023 2.7441-0.6582 0.0332-0.66993 0.10352-0.59961 0.13672-0.58789 0.25391-0.5332 0.23632-0.49023 0.35157-0.44922 0.39062-0.42969 0.45508-0.38477 0.49414-0.32421 0.52344-0.26368 0.625-0.25781 0.63867-0.20312 0.69727-0.14258 0.77539-0.10547 1.0156 0.0606 0.97852 0.1875 0.88476 0.3125 0.76367 0.45703 0.74219 0.59961 0.62695 0.72461 0.56055 0.89062 0.49414 4.5215 2.1758 0.30859 0.17188 0.28516 0.21289 0.24218 0.28125 0.17578 0.3125 0.18164 0.32422 0.0606 0.3457 0.0703 0.34766-0.0371 0.3457-0.13282 0.59961-0.27929 0.49414-0.34766 0.41797-0.45508 0.31836-0.57226 0.20898-0.625 0.13672h-0.73633l-0.8418-0.0664-0.77539-0.17578-0.6582-0.27929-0.56641-0.35157-0.46094-0.4121-0.30859-0.56055-0.21484-0.60547-0.0703-0.73633 0.0371-0.8125-3.4336-0.51758-0.0762 0.8418v0.80664l0.0312 0.76563 0.11718 0.70703 0.17969 0.67187 0.23633 0.625 0.28125 0.56055 0.35156 0.5293 0.41797 0.48828 0.45508 0.42383 0.52734 0.3789 0.59375 0.35742 0.62696 0.2793 0.70898 0.27539 0.76953 0.17578 0.8086 0.17578 0.8125 0.0723 0.73046 0.0312 0.74219-0.0312 0.69141-0.0996 0.63867-0.18164 0.63086-0.20899 0.55664-0.27929 0.52734-0.35157 0.48828-0.38476 0.45704-0.45703 0.38476-0.52149 0.35742-0.5664 0.3125-0.63282 0.24219-0.6582 0.17578-0.74219 0.18164-0.76953 0.10352-1.1973-0.0762-1.0508-0.0996-0.49414-0.17578-0.42383-0.20313-0.44922-0.25781-0.38477-0.49024-0.63281-0.55468-0.52734-0.59961-0.45508-0.73633-0.38477-4.8086-2.248-0.3125-0.17578-0.23633-0.20899-0.25196-0.24219-0.17578-0.27929-0.0996-0.32032-0.0762-0.3125-0.0391-0.3457 0.0391-0.39062 0.14258-0.52735 0.20898-0.45703 0.34571-0.42187 0.39062-0.28125 0.49414-0.24219 0.55469-0.13672 0.59375-0.0449 0.67578 0.0781 0.72461 0.14258 0.64453 0.24219 0.48242 0.3125 0.42383 0.42383 0.3125 0.49414 0.21485 0.58789 0.10351 0.66992v0.73633l3.4356 0.52344 0.0703-0.73047 0.0332-0.74219-0.0664-0.69922-0.10352-0.66992-0.17578-0.62696-0.20898-0.59765-0.31836-0.56055-0.31446-0.52734-0.42187-0.49024-0.46289-0.41796-0.48242-0.42774-0.56055-0.3457-0.59375-0.28125-0.64258-0.24219-0.69336-0.21289-0.73633-0.13867-0.77343-0.0703-0.70508-0.0332zm22.131 0.5293-12.596 1.7148 2.8848 20.793 12.975-1.791-0.49414-3.709-9.4629 1.291-0.73633-5.3633 8.3144-1.1211-0.49414-3.6816-8.3476 1.1543-0.59961-4.3848 9.0449-1.2539-0.48828-3.6484zm11.748 0.51953 0.46289 0.0312 0.44921 0.11133 0.38477 0.20898 0.35742 0.31836 0.31445 0.41797 0.2793 0.52148 0.20899 0.59961 0.14257 0.59766 0.0391 0.52344-0.0781 0.49414-0.13672 0.45508-0.21484 0.38476-0.30664 0.31446-0.38477 0.27929-0.5 0.18164-2.2422 0.70313-2.209 0.66406-1.6152-5.3672 3.8242-1.1172v0.002l0.69726-0.2207 0.52735-0.10352z" transform="matrix(.8 0 0 -.8 406.17 425.25)"/></g></g></svg>