<svg xmlns="http://www.w3.org/2000/svg" width="246" height="246" viewBox="0 0 246 246">
 <g transform="matrix(1.3333 0 0 -1.3333 -310 274.65)">
  <g transform="translate(.71794 -.71794)">
   <g>
    <g>
     <path d="m324 23.38c50.315 0 91.104 40.789 91.104 91.104 0 50.313-40.789 91.104-91.104 91.104s-91.104-40.791-91.104-91.104c0-50.315 40.789-91.104 91.104-91.104z" fill="#005a9c" stroke="#005a9c" stroke-width=".7916"/>
     <path d="m276.31 96.673 3.1458 38.882c-0.28287 15.239-5.345 16.685-5.345 16.685l19.804 11.933c18.802-10.838 29.941 3.3694 29.941 3.3694 16.653-15.946 30.756-3.6751 30.756-3.6751l20.639-11.783c-6.6293-7.1745-5.5777-12.431-5.5777-12.431l1.7018-42.47-46.962 34.556z" fill="#e7d468" stroke="#e7d468" stroke-width="1.1885"/>
     <path d="m324.33 51.188s5.1921 7.4346 21.617 11.342c0 0 11.329 0.38325 21.316 15.935l-43.15 30.548-42.397-30.085c10.599-15.631 21.975-15.955 21.975-15.955 17.42-5.9632 20.639-11.785 20.639-11.785z" fill="#e7d468" stroke="#e7d468" stroke-width=".79125"/>
     <path d="m307.45 75.207c1.7109 0 3.0979 1.4418 3.0979 3.2234 0 1.7794-1.387 3.2234-3.0979 3.2234s-3.0979-1.444-3.0979-3.2234c0-1.7817 1.387-3.2234 3.0979-3.2234z" fill="#3698d4" stroke="#3698d4" stroke-width=".7916"/>
    </g>
    <path d="m323.54 160.6-1.4326-9.8511-3.3896 3.0161-21.277-4.478s-3.9703-5.747-7.7959 0.21387l-2.543-0.5376s0.29172-4.2894 5.0801-6.769l0.13623-3e-3c-0.30253-0.30632-0.48926-0.73095-0.48926-1.1997 0-0.39974 0.13513-0.76713 0.36182-1.0562l-9.0381-15.99s8.5026-14.823 20.183-0.76611l-8.5312 16.783c0.21464 0.28488 0.34131 0.64193 0.34131 1.0298 0 0.44038-0.16568 0.84163-0.43653 1.1426l0.30615-7e-3s3.7375 0.56337 4.7139 4.2202l21.658 0.0835 0.0293 6e-3 -0.3164-7.4619c0.75966-2.6303 2.8828-2.3643 2.8828-2.3643 2.5665-0.26668 2.8326 2.3832 2.833 2.3877l-0.88477 7.3491h21.599c0.949-3.6637 4.7358-4.5146 4.7358-4.5146l0.4043 6e-3c-0.30338-0.30643-0.49072-0.73167-0.49072-1.2012 0-0.44985 0.17282-0.85863 0.4541-1.1616l-8.6572-16.704c11.566-14.148 20.186 0.60645 20.186 0.60645l-9.0059 16.235c0.21311 0.28435 0.33984 0.63884 0.33984 1.0239 0 0.48771-0.20271 0.92769-0.52734 1.2363l0.13037 1e-3c4.8089 2.4432 5.1328 6.728 5.1328 6.728l-2.5371 0.56103c-3.8735-5.9312-7.7988-0.15234-7.7988-0.15234l-21.236 4.6465-3.7148-2.9018-1.3154 9.5772zm-29.254-21.091 7.9775-15.675-8.5547-0.0586 0.0381 15.546c0.19298 0.0307 0.3743 0.0953 0.53906 0.1875zm-1.5894-4e-3c0.065-0.0359 0.13368-0.0668 0.20361-0.0937l0.0117-15.551h-9.0293zm61.896-0.37207 8.7407-15.671-8.9312 1e-3 -0.0542 15.565c0.085 0.028 0.16618 0.063 0.24463 0.104zm-1.2437-0.11132c0.0789-0.0248 0.16116-0.0445 0.24463-0.0571l-0.0542-15.546h-8.4858zm-4.9321-50.614c-4.5351-0.01141-5.7286-3.2758-5.9385-7.9204l-0.0381 0.04248s-1.6357-0.26649-1.9893 1.0635c0 0-0.35554-1.1516-1.8589-1.106l-47.212-0.04541c-2.8949-2.3451 0.0278-4.2056 0.0278-4.2056h2.3027v-6.6387h5.3101v5.3115h-2.124l0.0439-1.2393h-1.1953v2.4785h7.4868l-0.0147-2.4785h-1.0986l-0.0439 1.2466-2.1255 0.0088-0.0249-5.3115 5.3379-0.06152v6.5522l33.727 0.04395c1.152-0.04334 1.5923-1.374 1.5923-1.374 0.31025 1.5513 1.9043 1.374 1.9043 1.374 0.35359-4.4325 1.862-7.852 5.9751-7.8794 4.9571-0.02966 5.751 4.8796 5.751 10.446s-0.97007 9.7088-5.7949 9.6929zm0.022-1.6406c1.7036 0.03449 3.1451-1.7736 3.2578-4.1338 0.0776-1.6813-0.53632-3.2051-1.5059-4.04l-0.16846-0.10547c0.96041-0.67981 1.649-2.007 1.7402-3.5947 0.13459-2.4364-1.1908-4.5626-2.9634-4.752-1.7725-0.18706-3.3193 1.6338-3.4585 4.0679-0.0935 1.6813 0.50948 3.214 1.4722 4.0649l0.16406 0.15967c-0.95356 0.69578-1.6327 2.0355-1.708 3.6255-0.11406 2.4364 1.2318 4.5418 3.0044 4.6992 0.0555 5e-3 0.11057 0.0077 0.16553 0.0088z" fill="#3698d4"/>
   </g>
   <path d="m293.75 140.57-0.0425-16.787 8.5547 0.0586zm-0.85107-0.69726-9.0176-16.005h9.0293zm61.446-0.29151 0.0557-16.11 8.9312-1e-3zm-0.75146-0.0879-8.5415-16.068h8.4858z" fill="none" stroke="#3698d4" stroke-width=".7916"/>
   <path d="m293.51 142.24c-0.62277 0-1.1265-0.54496-1.1265-1.2202s0.50369-1.2202 1.1265-1.2202c0.62278 0 1.1265 0.54497 1.1265 1.2202s-0.50369 1.2202-1.1265 1.2202zm60.35-0.35302c-0.62278 0-1.1265-0.54725-1.1265-1.2202 0-0.67525 0.50368-1.2202 1.1265-1.2202s1.1265 0.54496 1.1265 1.2202c0 0.67297-0.50369 1.2202-1.1265 1.2202z" fill="#e7d468"/>
   <path d="m324.11 25.818c48.769 0 88.303 39.536 88.303 88.303 0 48.766-39.534 88.303-88.303 88.303-48.766 0-88.303-39.536-88.303-88.303 0-48.766 39.536-88.303 88.303-88.303zm0 21.291c37.009 0 67.012 30.003 67.012 67.012 0 37.009-30.003 67.012-67.012 67.012s-67.012-30.003-67.012-67.012c0-37.009 30.003-67.012 67.012-67.012z" fill="none" stroke="#fff" stroke-width="1.1885"/>
   <g>
    <path d="m281.43 78.96c-3.123 4.3595-5.6461 10.877-5.6461 16.738l48.627 35.25 47.446-34.951c0-5.8628-1.1338-13.172-4.2591-17.531l-43.478 31.34z" fill="#3698d4" stroke="#3698d4" stroke-width=".59313"/>
    <path d="m318.59 197.27-9.0879-1.0928 0.19775-2.6294 0.31787 0.0381c-0.0274 0.50644 0.0437 0.92476 0.20801 1.251 0.16653 0.30797 0.39357 0.5407 0.66504 0.67529 0.2076 0.1095 0.55653 0.18369 1.0767 0.24756l1.3418 0.1626 1.0195-8.4858c0.0753-0.6205 0.0577-1.0297-0.0381-1.2305-0.16653-0.30797-0.4866-0.48285-0.95654-0.5376l-0.40137-0.0513 0.0366-0.30029 4.7285 0.56982-0.0352 0.30176-0.38671-0.0483c-0.43572-0.0525-0.76863 0.0275-0.99903 0.23731-0.1711 0.15056-0.28766 0.56057-0.37207 1.2495l-1.0195 8.4844 1.5586 0.1875c0.46994 0.057 0.8465 0.0343 1.1499-0.082 0.28744-0.11862 0.54972-0.32665 0.75732-0.62549 0.12319-0.18935 0.24581-0.49784 0.35303-0.96093l0.31787 0.0396zm11.93-0.041c-1.0301-0.0909-1.9758-0.46337-2.8228-1.1118-1.2957-1.0197-2.0325-2.412-2.1899-4.1777-0.15741-1.7338 0.23623-3.1936 1.1807-4.3799 0.94443-1.1885 2.1747-1.8413 3.7236-1.9805 1.5125-0.13687 2.8424 0.30334 4.0195 1.3345 1.1589 1.0152 1.8255 2.3793 1.9761 4.0606 0.14828 1.6493-0.24955 3.0756-1.21 4.2642-0.96041 1.1885-2.1733 1.8563-3.6196 1.9863-0.36158 0.0325-0.71426 0.0347-1.0576 4e-3zm0.854-0.57861c1.0585-0.0958 1.8508-0.5406 2.3892-1.3345 0.67297-1.0106 0.91377-2.4723 0.74268-4.3726-0.15969-1.7657-0.61355-3.0318-1.3755-3.7778-0.74597-0.76193-1.6396-1.0882-2.6821-0.99463-0.99234 0.089-1.7336 0.52903-2.272 1.3389-0.68437 1.0471-0.94648 2.4776-0.78223 4.2935 0.15969 1.7839 0.65171 3.0959 1.4912 3.9536 0.67297 0.68438 1.4964 0.98253 2.4888 0.89356zm8.124-0.66651-0.0733-0.2959 0.39551-0.0967c0.26235-0.0661 0.49229-0.19086 0.68848-0.37793 0.13916-0.13915 0.20894-0.2788 0.24316-0.4248 0.0251-0.18022-0.0338-0.5653-0.16846-1.106l-1.727-7.0386c-0.16197-0.65472-0.32842-1.0484-0.49951-1.1807-0.26235-0.21444-0.62009-0.26477-1.0649-0.15527l-0.39258 0.0952-0.0732-0.29444 4.6582-1.1455 0.0733 0.29737-0.39405 0.0952c-0.24637 0.0616-0.47764 0.18793-0.67383 0.375-0.1574 0.14372-0.22505 0.2832-0.25927 0.4292-0.0251 0.18022 0.0347 0.5653 0.16699 1.106l0.84375 3.4292 1.9658-0.48487c0.36272-0.089 0.62775-0.20719 0.78516-0.34863 0.17337-0.146 0.28233-0.33096 0.33252-0.55224 0.0502-0.22129 0.042-0.54754-0.063-0.97413l0.29443-0.0732 0.90527 3.6899-0.29443 0.0718c-0.21444-0.59085-0.45836-0.94677-0.7207-1.0928-0.26006-0.14372-0.61374-0.16095-1.0723-0.0469l-1.9688 0.4834 1.0474 4.2642 2.395-0.58887c0.55663-0.13688 0.97207-0.29227 1.207-0.47021 0.23725-0.16425 0.42091-0.39861 0.54638-0.67236 0.13687-0.29428 0.20849-0.71179 0.21533-1.2524l0.27833-0.0718 0.47167 2.4258zm-32.585-0.21972-3.7852-1.0767 0.085-0.29151 0.37207 0.10401c0.44029 0.12547 0.77997 0.10013 1.04-0.0733 0.19162-0.11862 0.38926-0.50135 0.57861-1.1675l1.7739-6.2212-8.9004 6.2095-2.8901-0.82324 0.082-0.2915c0.30797 0.089 0.54066 0.13705 0.71631 0.13476 0.34219-0.0274 0.59857-0.0598 0.79248-0.12597 0.19847-0.0844 0.50766-0.24137 0.92285-0.52881l2.1314-7.4883c0.17338-0.59997 0.21914-1.0081 0.15527-1.2202-0.11635-0.33078-0.40457-0.55387-0.87451-0.68847l-0.37353-0.10547 0.082-0.29151 3.7852 1.0767-0.082 0.29151-0.39111-0.1084c-0.42204-0.12091-0.764-0.0962-1.04 0.0703-0.19162 0.1209-0.37169 0.50869-0.56103 1.1748l-1.8882 6.627 9.5537-6.6562 0.29151 0.0835-2.5869 9.0791c-0.17109 0.59997-0.21686 1.0095-0.15527 1.2217 0.11635 0.33078 0.40361 0.55405 0.85986 0.68408l0.39112 0.10986zm47.78-4.1997-1.2158-2.3408 0.29004-0.13477c0.24409 0.44484 0.52243 0.76428 0.83496 0.95362 0.30341 0.17566 0.62026 0.2523 0.92139 0.22265 0.23497-0.016 0.57286-0.13321 1.0474-0.35449l1.2246-0.56836-3.5977-7.752c-0.26235-0.56575-0.49489-0.90531-0.67968-1.0239-0.30568-0.17566-0.66829-0.15595-1.0972 0.0425l-0.36768 0.17139-0.13037-0.27539 4.3213-2.0054 0.12744 0.27539-0.35156 0.16406c-0.39922 0.18479-0.64004 0.42626-0.72217 0.7251-0.0684 0.219 0.0478 0.63096 0.33984 1.2583l3.5977 7.7505 1.4253-0.66065c0.42888-0.19847 0.73692-0.41522 0.93311-0.67529 0.18022-0.25093 0.29669-0.56599 0.31494-0.92871 7e-3 -0.22584-0.0523-0.55255-0.20508-1.002l0.29004-0.13623 1.0034 2.4404zm-62.191-0.35303-7.8223-3.6431 0.12744-0.27685 0.36767 0.17139c0.4129 0.19163 0.76159 0.24166 1.0239 0.12304 0.20759-0.089 0.45554-0.45824 0.75439-1.1016l3.0762-6.5977c0.22812-0.49047 0.35268-0.84142 0.36181-1.0239 0.0342-0.18935-0.0157-0.3605-0.14795-0.51563-0.16425-0.20759-0.3666-0.37618-0.59472-0.4834l-0.36768-0.17138 0.12744-0.27686 7.8223 3.646-0.31201 2.9473-0.30616-0.14062c-0.0274-0.77791-0.13686-1.3875-0.29882-1.8369-0.13232-0.35815-0.30524-0.62477-0.52881-0.82324-0.22584-0.19847-0.61556-0.43556-1.1836-0.70019l-1.7139-0.79834c-0.292-0.13459-0.49075-0.19192-0.60938-0.17139-0.13003-5e-3 -0.24096 0.0362-0.3208 0.12744-0.089 0.0707-0.23333 0.34032-0.44092 0.78516l-1.5601 3.3501 2.2324 1.043c0.42887 0.19847 0.75783 0.29623 1.0225 0.28711 0.24181 2e-3 0.44315-0.0695 0.62109-0.21093 0.14144-0.10266 0.35056-0.39564 0.65625-0.84961l0.27393 0.12744-1.6465 3.5361-0.27685-0.12744c0.24182-0.59769 0.29053-1.0579 0.13769-1.4092-0.12091-0.26006-0.46125-0.53273-1.043-0.8042l-2.2354-1.04-1.8691 4.0107 2.7861 1.2979c0.49047 0.22813 0.85488 0.36342 1.0898 0.37939 0.31025 0.0137 0.56632-0.0548 0.78076-0.19629 0.23725-0.15056 0.51489-0.46771 0.87305-0.95361l0.29003 0.13476zm72.832-4.7109-0.17139-0.25341 0.33838-0.22559c0.20988-0.14144 0.38102-0.34004 0.51562-0.59326 0.0935-0.16425 0.11088-0.31769 0.0835-0.48194-0.0388-0.17794-0.21823-0.50613-0.5376-0.98291l-4.0444-6.0117c-0.37869-0.5589-0.67067-0.87134-0.87598-0.9375-0.31938-0.10949-0.676-0.0343-1.0547 0.2212l-0.33545 0.22558-0.16845-0.25195 3.9785-2.6763 0.16846 0.25049-0.33545 0.22558c-0.20988 0.14144-0.383 0.34039-0.50391 0.58448-0.0958 0.18706-0.11347 0.34162-0.0952 0.49218 0.0388 0.17794 0.22735 0.51836 0.5376 0.98145l1.9058 2.8315 4.3022-2.896-1.9058-2.8301c-0.37869-0.56119-0.67066-0.87362-0.87597-0.9375-0.33306-0.10037-0.67454-0.0343-1.0532 0.22119l-0.33545 0.22559-0.16845-0.25342 3.9785-2.6777 0.16846 0.25342-0.32227 0.2168c-0.22357 0.15056-0.39713 0.34883-0.53173 0.60205-0.0821 0.17794-0.1003 0.33284-0.082 0.4834 0.0388 0.17566 0.22881 0.51835 0.53906 0.98144l4.0444 6.0103c0.30113 0.44713 0.53873 0.7367 0.68701 0.83935 0.146 0.12547 0.31991 0.1711 0.52295 0.13916 0.26234-0.0342 0.5074-0.12043 0.73096-0.27099l0.32519-0.2168 0.16846 0.25342-3.9785 2.6763-0.17139-0.25196 0.33691-0.22558c0.20988-0.14144 0.38153-0.34039 0.50244-0.58448 0.10722-0.17337 0.12552-0.32793 0.0981-0.49218-0.0388-0.17794-0.21823-0.50467-0.5376-0.98145l-1.8032-2.6748-4.2993 2.8945 1.7988 2.6763c0.30113 0.44941 0.53644 0.7367 0.68701 0.83935 0.15969 0.11635 0.3336 0.16425 0.52295 0.13916 0.26006-0.0342 0.50791-0.11931 0.71778-0.26074l0.33837-0.22851 0.16846 0.25341zm-83.068-0.0908-2.5957-1.8281 1.7593-9.4585-8.3364 4.834-2.6235-1.8442 0.17431-0.24903c0.37412 0.26235 0.6794 0.41566 0.92578 0.44532 0.22356 0.0342 0.41242-8.8e-4 0.56983-0.0762 0.22128-0.11177 0.47737-0.38512 0.76025-0.78662l4.207-5.981c0.35816-0.511 0.53499-0.88403 0.54639-1.103-2e-3 -0.35131-0.20041-0.65724-0.58594-0.92871l-0.33105-0.23145 0.17431-0.24902 3.2183 2.2632-0.17578 0.24903-0.33106-0.23291c-0.35816-0.25322-0.68778-0.34008-1.0049-0.27393-0.22128 0.0502-0.51777 0.3571-0.91699 0.92285l-4.3052 6.1216 8.9575-5.2222 0.22266 0.15527-1.8984 10.185 4.3022-6.1201c0.36044-0.511 0.53874-0.87963 0.54786-1.0986 0.0137-0.34219-0.19895-0.65724-0.58448-0.92871l-0.33252-0.23584 0.17579-0.24756 3.9228 2.7598-0.17578 0.24903-0.31641-0.22412c-0.37412-0.26235-0.70522-0.3515-1.0064-0.27393-0.22128 0.0502-0.53323 0.3475-0.93017 0.91553l-4.207 5.981c-0.36043 0.511-0.53872 0.88028-0.54785 1.1016 0 0.35131 0.19909 0.65463 0.60059 0.9375l0.31641 0.22412zm94.522-7.9336-0.20801-0.22266 0.2959-0.27539c0.33535-0.31025 0.51319-0.61344 0.49951-0.90088-2e-3 -0.22812-0.25254-0.59609-0.73389-1.1162l-4.9556-5.3335c-0.36729-0.39465-0.64581-0.64461-0.81006-0.72217-0.16197-0.10038-0.34158-0.1195-0.5332-0.0557-0.2555 0.073-0.48531 0.19576-0.67237 0.36914l-0.29736 0.27686-0.20508-0.22412 6.3208-5.8711 2.6148 1.3975-0.24902 0.23144c-0.73-0.2669-1.3338-0.39776-1.8106-0.41601-0.38325-0.0137-0.69549 0.0479-0.9624 0.18017-0.26919 0.1346-0.63718 0.40691-1.0957 0.8335l-1.3872 1.2861c-0.23497 0.219-0.35934 0.38089-0.38672 0.49951-0.0525 0.11863-0.057 0.23766 0 0.34717 0.0319 0.1095 0.22504 0.34122 0.5581 0.70166l2.5166 2.7114 1.8062-1.6802c0.34675-0.32166 0.56207-0.58777 0.65332-0.83643 0.0935-0.22356 0.10049-0.43806 0.0366-0.65478-0.0411-0.16881-0.23338-0.47474-0.53906-0.92871l0.22119-0.20801 2.6558 2.8594-0.22119 0.20654c-0.46309-0.44713-0.8744-0.6662-1.2554-0.65479-0.28743 0.0114-0.66532 0.22639-1.1353 0.66211l-1.8076 1.6787 3.0117 3.2417 2.2515-2.0918c0.39694-0.36728 0.65678-0.6565 0.76172-0.86866 0.13003-0.28059 0.16152-0.54365 0.11133-0.79687-0.0502-0.27603-0.23891-0.65192-0.55372-1.1675l0.23438-0.2168 1.5923 1.8867zm-108.31-2.3511-6.4497-6.4966 1.7871-1.9394 0.22558 0.22559c-0.33535 0.38096-0.54077 0.75072-0.61377 1.1089-0.0593 0.34675-0.0246 0.6688 0.10547 0.94483 0.0958 0.21443 0.32119 0.48948 0.68848 0.86132l0.95068 0.95801 6.0659-6.019c0.44484-0.44029 0.68451-0.77433 0.73242-0.98877 0.0616-0.34675-0.08-0.67979-0.41308-1.0151l-0.28711-0.29004 0.21679-0.21093 3.356 3.3779-0.2168 0.21386-0.27392-0.27539c-0.30797-0.31025-0.61846-0.4564-0.92871-0.43359-0.22813 0.0114-0.57366 0.26262-1.0664 0.74853l-6.0644 6.0205 1.106 1.1148c0.33307 0.33535 0.64418 0.55165 0.95215 0.64746 0.29884 0.0844 0.63323 0.0867 0.97998-0.0205 0.21444-0.0707 0.50267-0.23663 0.87452-0.5332l0.22558 0.22851zm120.06-9.561-2.206-1.4443 0.18603-0.25927c0.43116 0.26691 0.82884 0.40819 1.1938 0.42187 0.35131 5e-3 0.66312-0.0821 0.91406-0.25781 0.19619-0.12775 0.43114-0.39518 0.73682-0.82178l0.79248-1.0942-6.9331-4.9966c-0.50644-0.36728-0.8767-0.54734-1.0957-0.56103-0.35131-5e-3 -0.65854 0.19096-0.93457 0.57421l-0.23731 0.32959-0.24609-0.17871 2.7847-3.8613 0.24756 0.17725-0.22852 0.31494c-0.25551 0.35587-0.3492 0.6839-0.27392 0.98731 0.0479 0.22128 0.34912 0.52493 0.91259 0.92871l6.9331 4.9966 0.91699-1.273c0.27603-0.38325 0.44006-0.7257 0.4834-1.0474 0.0342-0.30797-0.0183-0.63846-0.18018-0.9624-0.10494-0.20075-0.31729-0.45635-0.67089-0.77344l0.18896-0.26074 2.0669 1.6362zm-128.06-0.7515c-0.59769-0.0365-1.1497-0.23383-1.6333-0.56689-0.46994-0.34219-1.0654-0.99305-1.7886-1.9512l-2.4507-3.2505 0.24463-0.18311 0.25341 0.33838c0.25322 0.33535 0.54229 0.52228 0.85254 0.54053 0.23953 9e-3 0.6281-0.17839 1.1938-0.60498l5.7876-4.3594c0.511-0.3878 0.80477-0.67099 0.86865-0.86718 0.12091-0.34447 0.0391-0.70612-0.24609-1.0825l-0.25342-0.33838 0.2417-0.18311 2.8857 3.8306-0.2417 0.18311-0.26367-0.35157c-0.25322-0.33762-0.53204-0.50909-0.84228-0.52734-0.23953-0.0114-0.62729 0.17545-1.1953 0.60205l-2.603 1.9629c0.0525 0.0684 0.1168 0.12492 0.16699 0.19336 0.0502 0.0662 0.0908 0.12103 0.13183 0.17578 0.10266 0.13459 0.23518 0.30832 0.39258 0.54785l6.4688-0.11718 1.7988 2.3892-0.2417 0.18164c-0.41975-0.44484-0.83546-0.74233-1.2598-0.91114-0.42432-0.14372-1.0901-0.21569-1.998-0.18603l-3.9565 0.085c0.39693 0.86232 0.54134 1.6428 0.3999 2.2998-0.13003 0.66841-0.48409 1.2088-1.0225 1.6172-0.51328 0.38553-1.079 0.5583-1.6904 0.5332zm-0.66651-1.5806c0.44389-0.0341 0.87354-0.20447 1.2978-0.52442 0.56803-0.42659 0.87675-0.99935 0.91553-1.7065 0.0639-0.70262-0.23934-1.4665-0.88037-2.3174-0.0297-0.0411-0.0717-0.0932-0.11279-0.14795-0.0502-0.0662-0.0995-0.13549-0.16114-0.21533l-3.7236 2.8037c0.24409 0.49275 0.45941 0.85989 0.65332 1.1177 0.42659 0.56575 0.94706 0.89183 1.563 0.97852 0.15114 0.0182 0.30028 0.0231 0.44824 0.0117zm135.45-7.2275-0.26953-0.13916 0.19189-0.37647c0.1939-0.37413 0.23435-0.71304 0.11572-1.0005-0.0958-0.22128-0.43239-0.48905-1.062-0.81299l-6.4497-3.3047c-0.57032-0.292-0.95339-0.43396-1.1587-0.4043-0.36272 0.0411-0.65274 0.27084-0.86718 0.69287l-0.19336 0.375-0.26953-0.13769 2.187-4.2671 0.26953 0.13623-0.19775 0.39258c-0.19391 0.37412-0.22621 0.69986-0.10987 0.9873 0.0958 0.219 0.43303 0.48905 1.0649 0.81299l2.9004 1.4868c0.0388-0.0753 0.0608-0.1591 0.0996-0.23438 0.0388-0.0753 0.0714-0.13551 0.10108-0.19482 0.0776-0.15056 0.17773-0.34688 0.32373-0.59326l-2.9253-5.7715 1.3623-2.6602 0.271 0.13916c-0.21672 0.5726-0.30522 1.0768-0.271 1.5308 0.0548 0.44713 0.28256 1.0756 0.70459 1.8809l1.8003 3.5215c0.60453-0.73228 1.2431-1.2026 1.8955-1.3623 0.657-0.17565 1.2999-0.0926 1.8999 0.21533 0.57031 0.29428 0.97465 0.72787 1.2188 1.2891 0.22812 0.55435 0.28966 1.1351 0.20069 1.7168-0.10266 0.57259-0.42955 1.3918-0.97705 2.4595zm0.76611-3.1963c0.33535-0.43343 0.57471-0.78711 0.72071-1.0723 0.32393-0.6319 0.39083-1.2409 0.19921-1.834-0.19847-0.57488-0.59416-1.0237-1.2261-1.3477-0.62962-0.32393-1.2797-0.35435-1.9321-0.0806-0.65928 0.25094-1.217 0.8565-1.7007 1.8032-0.0228 0.0456-0.0554 0.10394-0.085 0.16553-0.0388 0.0753-0.0781 0.15126-0.12598 0.24023zm-145.62-0.74121-0.13477-0.25488 6.3472-7.7608c0.56119-0.67525 0.87616-1.2024 0.99023-1.5674 0.057-0.1825 6e-3 -0.49947-0.13769-0.95801l0.26953-0.13916 1.6362 3.1245-0.26953 0.14209c-0.28059-0.46309-0.51964-0.73705-0.70899-0.81005-0.19847-0.0867-0.3587-0.0991-0.52295-0.0147-0.18022 0.0935-0.41811 0.33438-0.71923 0.70166l-1.2129 1.4736 2.0142 3.8452 1.7109-0.15235c0.56575-0.0479 0.96493-0.12341 1.1748-0.23291 0.16425-0.0867 0.25971-0.23302 0.30762-0.4292 0.0342-0.18935-0.0312-0.49661-0.21827-0.89355l0.26807-0.14209 2.0449 3.9053-0.26953 0.14209c-0.24181-0.39009-0.51071-0.64732-0.82324-0.77051-0.31938-0.13688-0.87848-0.15091-1.686-0.0893zm2.0142-1.7227 4.8794-0.43799-1.7695-3.3809zm-2.7774-5.2705c-0.30568 7e-3 -0.60578-0.0396-0.90234-0.13769-0.59997-0.21216-1.0866-0.55351-1.4927-1.0166-0.38781-0.46994-0.75645-1.1799-1.0986-2.1152l-1.4194-3.8511 0.28564-0.10547 0.14502 0.39697c0.146 0.39466 0.36765 0.65529 0.6665 0.78076 0.22584 0.0776 0.64638-5e-3 1.3125-0.24902l6.7998-2.502c0.60225-0.22128 0.96535-0.40834 1.084-0.57715 0.21444-0.29656 0.23957-0.66632 0.0776-1.1089l-0.14648-0.39697 0.28564-0.10547 1.6553 4.5015-0.28418 0.10546-0.14648-0.3955c-0.146-0.39694-0.36718-0.65662-0.65918-0.76612-0.22813-0.0776-0.65223-0.0112-1.3184 0.23291l-3.0747 1.1309c0.20303 0.30341 0.36701 0.60482 0.52442 0.8877 0.13688 0.27375 0.25071 0.53926 0.34424 0.79248 0.37869 1.0288 0.40837 1.9368 0.0776 2.7056-0.33306 0.75281-0.92578 1.295-1.7812 1.6099-0.31709 0.11634-0.62888 0.17626-0.93457 0.1831zm151.37-0.75878-0.28711-0.0952 0.12744-0.38672c0.146-0.43344 0.15544-0.78487 7e-3 -1.0312-0.11178-0.19618-0.50916-0.39818-1.1821-0.62402l-6.9023-2.3042c-0.51328-0.17109-0.87658-0.25522-1.0591-0.24609-0.19162-9e-3 -0.35744 0.0589-0.49659 0.20947-0.18706 0.18707-0.33177 0.40417-0.41162 0.64599l-0.12744 0.38233-0.29004-0.0952 2.7334-8.1855 2.9634-0.0278-0.10693 0.32227c-0.76879 0.11635-1.362 0.29241-1.7886 0.50684-0.34219 0.1711-0.58915 0.37407-0.76025 0.61816-0.16881 0.24638-0.36257 0.66372-0.56104 1.2568l-0.59765 1.793c-0.10038 0.30341-0.13448 0.50686-0.10254 0.62549 0.0114 0.12775 0.0667 0.23479 0.16699 0.30323 0.0799 0.0821 0.36226 0.19351 0.82764 0.34863l3.5083 1.1704 0.78076-2.3379c0.14828-0.44941 0.20789-0.78731 0.17139-1.0474-0.0274-0.24182-0.12304-0.43357-0.28272-0.59326-0.11863-0.12775-0.43401-0.3057-0.91992-0.55664l0.0981-0.28711 3.7002 1.2334-0.0952 0.28711c-0.6205-0.16881-1.0872-0.16382-1.418 0.0278-0.24638 0.15056-0.47373 0.51737-0.67676 1.1265l-0.78076 2.3394 4.1982 1.4004 0.97119-2.915c0.17109-0.51327 0.26189-0.89296 0.25049-1.1279-0.0205-0.31025-0.11619-0.55447-0.28272-0.75293-0.17565-0.219-0.52121-0.45767-1.0459-0.75879l0.10253-0.30323 2.3013 0.89209zm-152.3-1.0781c0.46538 0.0456 0.91322-0.0114 1.374-0.18018 0.66613-0.24409 1.1335-0.63462 1.4004-1.1821 0.27147-0.53153 0.30979-1.0671 0.11132-1.6055-0.0593-0.15741-0.13872-0.3266-0.22998-0.52735-0.11406-0.20988-0.2495-0.43167-0.3955-0.68261l-4.3594 1.604c0.057 0.44713 0.13335 0.79722 0.23145 1.0664 0.1574 0.42888 0.39107 0.77263 0.71045 1.0532 0.31253 0.26234 0.71238 0.41988 1.1572 0.4541zm-4.8325-8.3745-1.8296-8.4331 0.29883-0.0644 0.085 0.39697c0.0981 0.44485 0.26599 0.75229 0.52149 0.88916 0.19619 0.11179 0.64178 0.0846 1.333-0.0659l7.1148-1.541c0.52697-0.11406 0.88361-0.22693 1.0342-0.32959 0.17109-0.089 0.27746-0.23285 0.3208-0.43359 0.0662-0.2555 0.0774-0.51681 0.0249-0.76319l-0.0864-0.39697 0.29736-0.0644 1.8296 8.4346-2.5371 1.5352-0.0703-0.33105c0.60226-0.49275 1.021-0.94616 1.2788-1.3477 0.20759-0.32166 0.31557-0.62107 0.33838-0.91992 0.0205-0.29884-0.0274-0.75532-0.15967-1.3667l-0.3999-1.8472c-0.0684-0.31481-0.14394-0.50445-0.23291-0.58886-0.0753-0.10494-0.175-0.17187-0.2959-0.17872-0.1095-0.0297-0.4101 0.0181-0.88916 0.12305l-3.6167 0.78516 0.52441 2.4097c0.0981 0.46309 0.22247 0.78199 0.38672 0.9873 0.146 0.19163 0.32592 0.30772 0.54492 0.36475 0.16653 0.0502 0.52851 0.0409 1.0737 9e-3l0.0645 0.29736-3.8115 0.82764-0.0644-0.2959c0.61822-0.17109 1.0179-0.41401 1.2026-0.74707 0.13688-0.25322 0.14579-0.68809 9e-3 -1.3154l-0.52295-2.4097-4.3257 0.9375 0.65332 3.0044c0.11406 0.52925 0.22967 0.90246 0.35742 1.0986 0.17793 0.2555 0.38661 0.41721 0.62842 0.5039 0.26463 0.0981 0.68454 0.12713 1.2891 0.11573l0.0674 0.31494zm150.07-3.6475-0.29883-0.0498 0.57568-3.4805 0.3003 0.0498c-0.0548 0.53838-0.0289 0.90036 0.0806 1.0737 0.10494 0.18707 0.22244 0.29325 0.40723 0.32519 0.19846 0.0319 0.53154-0.0172 0.99463-0.1289l1.8545-0.44385 0.70752-4.2847-1.4575-0.9082c-0.48134-0.30113-0.84315-0.48123-1.0781-0.52002-0.1825-0.0297-0.34796 0.0275-0.50537 0.15527-0.14144 0.13231-0.27285 0.41699-0.36182 0.84815l-0.29883-0.0498 0.71777-4.3476 0.29883 0.0469c-0.0411 0.45625 0.0191 0.82667 0.19483 1.1118 0.1711 0.30341 0.61071 0.64745 1.2905 1.0854l8.5664 5.354-0.0483 0.28272-9.7383 2.3804c-0.85547 0.20075-1.4233 0.43122-1.7358 0.65478-0.15513 0.1095-0.30385 0.39353-0.46582 0.84522zm4.5601-2.8242 4.7812-1.1763-4.1602-2.5898zm-151.34-4.9936c-1.1634 0.0661-2.1904-0.14595-3.1143-0.61817-0.90565-0.49047-1.5886-1.1455-2.0083-2.001-0.43572-0.83722-0.69309-2.1078-0.78662-3.7617l-0.25782-4.5513 0.30323-0.0176 0.0234 0.42187c0.0251 0.42204 0.16003 0.73352 0.40869 0.92286 0.19391 0.14144 0.63593 0.20137 1.3271 0.16259l7.2334-0.41015c0.62506-0.0342 1.0239-0.12567 1.2041-0.25342 0.29199-0.20303 0.42435-0.55024 0.39697-1.0225l-0.022-0.41895 0.30322-0.019 0.28271 4.9922c0.12319 2.1581-0.37684 3.8088-1.481 4.938-0.99007 1.0037-2.2617 1.5495-3.813 1.6362zm-0.0395-1.8911c1.533-0.0867 2.7235-0.57792 3.5698-1.4722 0.84635-0.87599 1.2411-1.9639 1.1704-3.23-0.0274-0.46994-0.14383-1.0567-0.33545-1.7388l-9.4922 0.53614c-0.11635 0.63419-0.168 1.2125-0.14062 1.7007 0.0753 1.3163 0.57478 2.3694 1.5146 3.145 0.94216 0.7916 2.1781 1.1458 3.7134 1.0591zm156.91-3.186c-0.4745-9e-3 -0.89474-0.11694-1.2803-0.34278-0.36728-0.20988-0.71644-0.51809-1.0312-0.92871-0.31482-0.41063-0.72482-1.1112-1.2495-2.083-0.52469-0.96953-0.853-1.5489-1.0195-1.7725-0.23041-0.32394-0.49854-0.56558-0.78369-0.7207-0.26691-0.15741-0.55178-0.23063-0.82325-0.23291-0.50644-9e-3 -0.93088 0.18739-1.3096 0.56836-0.36044 0.39922-0.55402 0.93834-0.56543 1.6318-0.0114 0.59085 0.11627 1.1493 0.36036 1.6421 0.26233 0.51101 0.59526 0.87079 0.97851 1.1309 0.4015 0.24181 0.9898 0.45377 1.7974 0.60205l-4e-3 0.30615-3.832-0.0644 4e-3 -0.30323c0.25322-0.0296 0.44066-0.0936 0.52735-0.17578 0.0844-0.0684 0.12076-0.18473 0.12304-0.31933 2e-3 -0.13687-0.077-0.47367-0.25488-1.0166-0.15969-0.54294-0.25598-0.90198-0.28564-1.0708-0.0456-0.28743-0.0595-0.58947-0.0527-0.91113 0.016-1.0471 0.33247-1.8878 0.95069-2.5356 0.63646-0.65016 1.3693-0.95705 2.2134-0.94336 0.45625 7e-3 0.87585 0.11613 1.2774 0.32373 0.4015 0.22584 0.75373 0.52022 1.0503 0.91259 0.29885 0.3764 0.7082 1.1111 1.2466 2.165 0.67297 1.2958 1.2172 2.1135 1.6187 2.458 0.28287 0.24181 0.58376 0.36604 0.92138 0.37061 0.45626 7e-3 0.84806-0.17179 1.2085-0.53907 0.36044-0.36499 0.53579-0.85027 0.54492-1.4092 9e-3 -0.50643-0.11773-1.0159-0.36182-1.4927-0.24638-0.47678-0.59553-0.83711-1.0312-1.0972-0.43344-0.27831-1.0223-0.45658-1.7637-0.56836l4e-3 -0.30469 3.8672 0.063-4e-3 0.30323c-0.25322 0.0456-0.42454 0.12799-0.51123 0.2124-0.0844 0.0821-0.13688 0.19872-0.13916 0.35156-2e-3 0.11863 0.0619 0.34031 0.19189 0.646 0.27603 0.67981 0.41636 1.3063 0.40723 1.9131-0.016 0.94672-0.31474 1.7373-0.91699 2.335-0.584 0.61594-1.2812 0.90789-2.0728 0.89649zm2.5005-10.059-0.0571-0.41895c-0.057-0.41747-0.19829-0.7062-0.44238-0.86133-0.24182-0.15284-0.69111-0.19608-1.3755-0.10254l-4.3345 0.5918c-1.3391 0.18022-2.2532 0.22116-2.7642 0.10254-0.75281-0.15285-1.3665-0.5316-1.8706-1.0928-0.50188-0.56347-0.84502-1.4527-1.0093-2.6572-0.15284-1.1224-0.0523-2.0216 0.29443-2.7334 0.365-0.69806 0.8242-1.2024 1.415-1.5059 0.5726-0.29884 1.4257-0.53352 2.5298-0.68408l4.5029-0.6123c0.61822-0.08441 0.99642-0.18604 1.147-0.3252 0.33763-0.28516 0.47451-0.64615 0.41748-1.0796l-0.0571-0.41895 0.30176-0.04101 0.5288 3.898-0.30029 0.041-0.0571-0.41748c-0.057-0.41747-0.21666-0.72035-0.479-0.88916-0.20532-0.12547-0.65074-0.15066-1.3374-0.05713l-4.4854 0.60938c-1.1885 0.16197-2.0114 0.3763-2.4653 0.65918-0.47679 0.26919-0.82394 0.72522-1.0635 1.3389-0.24181 0.61137-0.30318 1.2845-0.20508 2.0054 0.0776 0.56803 0.24336 1.0401 0.49658 1.396 0.25322 0.35815 0.54616 0.62482 0.89063 0.78223 0.34902 0.17565 0.78433 0.25324 1.3638 0.25781 0.56347 9e-3 1.054-0.0227 1.4898-0.082l4.8369-0.65771c0.61822-0.0844 1.0099-0.20425 1.1924-0.36622 0.25778-0.23953 0.36564-0.57742 0.30176-1.0474l-0.0571-0.41748 0.30029-0.041 0.65332 4.7856zm-156.77-1.7871 0.0527-0.33252c0.73913-0.24182 1.2961-0.51336 1.6816-0.79395 0.31025-0.22584 0.51971-0.46617 0.64746-0.73535 0.12775-0.27147 0.25199-0.71414 0.35009-1.3301l0.2959-1.8677c0.0502-0.3171 0.0484-0.5225-1e-3 -0.63428-0.0319-0.12319-0.10355-0.22081-0.21533-0.271-0.0913-0.0662-0.38942-0.13272-0.87305-0.20801l-3.6533-0.58154-0.38526 2.436c-0.0753 0.46766-0.0767 0.80732 3e-3 1.0605 0.0662 0.23269 0.19168 0.40676 0.37647 0.53907 0.13687 0.10722 0.47597 0.23044 0.99609 0.39697l-0.0483 0.30029-3.8525-0.61084 0.0483-0.30176c0.63876 0.0661 1.095-0.0137 1.3916-0.25781 0.21672-0.18706 0.38301-0.58749 0.48339-1.2217l0.38819-2.4346-4.3711-0.6958-0.48193 3.0366c-0.0844 0.53381-0.11087 0.92097-0.063 1.1514 0.073 0.30341 0.20664 0.52992 0.40283 0.69873 0.20987 0.18706 0.59148 0.36727 1.1572 0.57715l-0.0498 0.3164-2.4185-0.5039 1.355-8.5225 0.29883 0.04541-0.0645 0.40137c-0.0707 0.44941-0.023 0.80135 0.16407 1.0181 0.14372 0.17794 0.56674 0.31156 1.2671 0.42334l7.188 1.1411c0.53382 0.08441 0.90833 0.10909 1.084 0.07031 0.19162-0.02053 0.34379-0.11602 0.45557-0.28711 0.15512-0.21444 0.26069-0.45365 0.30175-0.70459l0.063-0.3999 0.29883 0.04834-1.352 8.5225zm144.22-9.0352-1.418-4.5806 0.29004-0.09082 0.13037 0.42041c0.12547 0.40378 0.32861 0.65904 0.61377 0.78223 0.22356 0.09125 0.64962 0.045 1.3272-0.1626l3.1143-0.96533c-0.0251-0.07984-0.0665-0.15518-0.0894-0.2373-0.0251-0.07984-0.0453-0.14332-0.0659-0.20947-0.0502-0.15969-0.11467-0.3698-0.1831-0.65039l-6.1245-2.083-0.8833-2.855 0.29004-0.08935c0.24409 0.56119 0.5346 0.98354 0.87451 1.2847 0.3536 0.28059 0.95474 0.57194 1.8193 0.85254l3.7485 1.2612c-0.0798-0.94672 0.0507-1.728 0.4043-2.2983 0.34903-0.584 0.86465-0.97406 1.5102-1.1748 0.61366-0.18934 1.2044-0.1601 1.7725 0.07031 0.54979 0.23725 1.0011 0.60932 1.3433 1.0884 0.32622 0.48134 0.66594 1.2952 1.0195 2.4404l1.2041 3.8892-0.29151 0.08936-0.12305-0.4043c-0.12547-0.4015-0.33301-0.67515-0.61816-0.79834-0.22357-0.08897-0.65255-0.04582-1.3301 0.16406l-6.9214 2.1401c-0.61366 0.18934-0.98489 0.3587-1.1104 0.52295-0.23041 0.28288-0.27685 0.64987-0.13769 1.1016l0.12597 0.4043zm-139.85-0.69434-0.28711-0.09375 0.12158-0.36914c0.0821-0.2555 0.0971-0.51839 0.0469-0.80127-0.0434-0.19162-0.12422-0.32573-0.23144-0.43066-0.13916-0.11634-0.49826-0.26901-1.0298-0.44238l-6.8862-2.25c-0.51328-0.16881-0.87658-0.25018-1.0591-0.23877-0.19162-0.0091-0.35825 0.06037-0.49512 0.21094-0.18478 0.18706-0.32867 0.40954-0.41308 0.66504l-0.12012 0.36914-0.28857-0.09375 1.4883-4.5601 0.29004 0.09375-0.12598 0.38525c-0.0798 0.24181-0.0942 0.5036-0.0395 0.77051 0.0228 0.20075 0.10532 0.33646 0.22851 0.44824 0.13916 0.11634 0.48164 0.26152 1.0269 0.43945l3.0688 1.002 1.6069-4.9277-3.0659-1.002c-0.51328-0.16881-0.87739-0.25018-1.0576-0.23877-0.19847 0.0068-0.36281 0.07781-0.49512 0.2124-0.18707 0.18706-0.32885 0.40793-0.40869 0.64746l-0.12598 0.38525-0.28857-0.09375 1.4897-4.5601 0.28858 0.09375-0.12452 0.38525c-0.0798 0.24181-0.0941 0.50521-0.0439 0.78809 0.0274 0.18478 0.10679 0.31888 0.22998 0.43066 0.14143 0.11634 0.48457 0.26152 1.0298 0.43945l6.8862 2.25c0.6433 0.20988 1.0663 0.27825 1.2671 0.20068 0.32165-0.10722 0.55436-0.38834 0.6958-0.82178l0.12451-0.38525 0.29004 0.09668-1.4898 4.5571-0.29004-0.09375 0.12891-0.38525c0.0776-0.23953 0.0914-0.50214 0.0366-0.76904-0.0388-0.20759-0.11984-0.34184-0.22705-0.44678-0.13916-0.11634-0.49907-0.26901-1.0283-0.44238l-3.2417-1.0591-1.6099 4.9277 3.2417 1.0591c0.64332 0.20988 1.0641 0.27825 1.2671 0.20068 0.32394-0.12319 0.5529-0.38834 0.69434-0.82178l0.12744-0.38525 0.28711 0.09522zm144.41-4.0562 4.4531-1.377c-0.0639-0.5475-0.14003-0.96498-0.23584-1.2729-0.20987-0.67753-0.58839-1.1605-1.1382-1.4502-0.54294-0.27375-1.1403-0.31681-1.8179-0.10693-0.67753 0.20759-1.1639 0.64102-1.4399 1.2935-0.29656 0.63875-0.27083 1.4625 0.0439 2.48 0.0137 0.04791 0.0336 0.11191 0.0542 0.17578 0.0251 0.08213 0.0509 0.162 0.0806 0.25781zm-9.0337-8.1899-2.0947-4.3169 0.27393-0.13184 0.16259 0.33252c0.20075 0.41063 0.45327 0.66511 0.7544 0.74268 0.219 0.06387 0.63406-0.04376 1.2568-0.34717l2.5693-1.2451 2.6118-4.2524c0.32394-0.53153 0.55407-0.94495 0.66357-1.2598 0.11634-0.30113 0.17415-0.61147 0.17871-0.9126-0.0114-0.29428-0.0484-0.52216-0.10547-0.64307l-0.0952-0.19922 0.271-0.13184 1.7036 3.5112-0.27246 0.13184c-0.12547-0.25778-0.25165-0.44063-0.3794-0.54785s-0.26889-0.17105-0.40576-0.18018c-0.14372-0.02281-0.28792-9e-3 -0.4248 0.05713-0.22584 0.1095-0.50224 0.43087-0.82617 0.9624l-2.1416 3.479 4.2539 0.52734c0.61822 0.07528 1.0114 0.07286 1.1938-0.01611 0.21216-0.10266 0.32779-0.28894 0.33691-0.5376 0.0114-0.24866-0.0311-0.49339-0.14062-0.71924l-0.10987-0.22852 0.271-0.1333 2.0874 4.2993-0.27246 0.13477c-0.089-0.1825-0.19293-0.31893-0.28418-0.38965-0.34447-0.28288-0.61372-0.45175-0.79394-0.51562-0.18022-0.06159-0.5886-0.12848-1.2524-0.21973l-5.5854-0.68701-2.3569 1.144c-0.56119 0.27375-0.89732 0.5102-1.0137 0.69726-0.16881 0.30797-0.14379 0.67057 0.0615 1.0972l0.17871 0.36621zm-130.35-1.4854-0.26806-0.13916 0.17578-0.3457c0.20075-0.39009 0.24085-0.73063 0.12451-1.0181-0.0821-0.21216-0.42556-0.46448-1.0415-0.7793l-7.6069-3.8994-0.71631 1.396c-0.21443 0.42203-0.3239 0.78267-0.31933 1.1089 0.0114 0.30797 0.11467 0.62775 0.32226 0.92432 0.1346 0.1825 0.38155 0.40351 0.78077 0.66357l-0.14942 0.28711-2.2896-1.3066 4.1763-8.146 2.398 1.0972-0.14648 0.28418c-0.46538-0.20075-0.87947-0.27983-1.2422-0.23877-0.34903 0.05019-0.64444 0.1827-0.86572 0.39258-0.17566 0.15741-0.36692 0.45601-0.60645 0.92139l-0.61523 1.2026 7.6025 3.8979c0.55663 0.28516 0.94995 0.41018 1.169 0.38965 0.34675-0.05019 0.62199-0.28695 0.83643-0.70898l0.18457-0.36035 0.27246 0.13916zm52.282-39.929-2.9253-0.80274 0.0703-0.26953c0.39466 0.09809 0.69362 0.13025 0.89209 0.09375 0.13231-0.02281 0.25983-0.08126 0.34424-0.18164 0.0844-0.10038 0.12663-0.24639 0.12891-0.41748 7e-3 -0.24181-0.0532-0.76244-0.19922-1.5586l-1.0854-5.9399c-0.1209-0.66384-0.22876-1.056-0.30176-1.1792-0.0913-0.12091-0.20928-0.20306-0.37353-0.25781-0.18022-0.05247-0.5178-0.02629-1.0356 0.05127l-0.0557-0.29883 4.1484-0.75879 0.0542 0.29883c-0.49502 0.10722-0.82063 0.20316-0.97119 0.31494-0.15056 0.11406-0.22914 0.24836-0.25195 0.40576-0.0183 0.17566 0.0185 0.56408 0.13037 1.1777l1.6948 9.2754zm21.877-0.52881c-0.21783 0.01993-0.44196 0.0168-0.67237-0.01172-1.0699-0.13231-1.8838-0.69254-2.4404-1.6963-0.45625-0.8395-0.63653-1.7287-0.51562-2.6982 0.12318-0.98778 0.50644-1.7557 1.1338-2.2896 0.62734-0.53381 1.3347-0.75353 2.1035-0.65772 0.68665 0.08441 1.4234 0.44668 2.2104 1.106-0.10037-0.98094-0.39432-1.9022-0.86426-2.7759-0.46994-0.87372-0.98633-1.4987-1.5498-1.8911-0.56347-0.39238-1.2127-0.64295-1.9131-0.7456l0.0381-0.30176 0.46875 0.05713c1.038 0.12775 1.9569 0.53111 2.7554 1.2246 0.98322 0.83494 1.7265 1.8298 2.1987 2.959 0.46993 1.1452 0.6281 2.3391 0.47754 3.5596-0.1711 1.3733-0.71756 2.4798-1.6186 3.3193-0.55948 0.50473-1.1585 0.78251-1.812 0.84228zm-17.673-0.34424-1.2686-2.5576 0.22852-0.11865c0.3285 0.51556 0.72667 0.87166 1.2012 1.0884 0.28059 0.13003 0.7234 0.16445 1.3462 0.11426l3.0601-0.2417-4.1206-9.7749 0.92432-0.07324 4.5718 10.772 0.0249 0.31934zm9.8188-0.18604c-0.92848-0.02053-1.6813-0.30701-2.2266-0.84082-0.54522-0.53609-0.81724-1.1657-0.80127-1.8911 9e-3 -0.47222 0.15514-0.92447 0.41748-1.3579s0.84841-0.99431 1.7564-1.6992c-0.81213-0.60681-1.3729-1.1617-1.6831-1.6567-0.32622-0.47906-0.48602-0.97159-0.47461-1.478 0.0137-0.62506 0.26263-1.1934 0.74854-1.7227 0.60453-0.64331 1.4535-0.96178 2.5166-0.93896 0.96269 0.02281 1.7469 0.32617 2.3423 0.89648 0.57716 0.56803 0.86639 1.232 0.84814 2.0259-0.0137 0.62278-0.2272 1.2088-0.66064 1.7563-0.33079 0.41519-0.98424 0.99006-1.9629 1.7109 0.91478 0.61138 1.5294 1.1313 1.8237 1.5762 0.27603 0.44484 0.41927 0.8685 0.41015 1.2905-0.0137 0.62506-0.29623 1.1756-0.86426 1.6523-0.56574 0.47678-1.298 0.69501-2.1899 0.67676zm7.0825-0.03809c0.41975 0.05247 0.80786-0.06886 1.166-0.34717 0.3764-0.29428 0.68329-0.73306 0.94336-1.3125 0.26006-0.59769 0.41578-1.1543 0.48193-1.6904 0.0502-0.41975 0.0715-0.99462 0.0601-1.7109-0.24181-0.25094-0.52291-0.45408-0.84228-0.61377-0.32166-0.15741-0.61333-0.26103-0.86426-0.29297-0.52013-0.06388-0.9839 0.1154-1.3945 0.54199-0.56575 0.59084-0.90951 1.4516-1.0532 2.606-0.10494 0.85319-3e-3 1.5284 0.31202 2.0098 0.29655 0.47906 0.705 0.75075 1.1909 0.81006zm-7.0576-0.41748c0.55663 0.01369 1.017-0.14596 1.3433-0.4585 0.3285-0.33078 0.50634-0.78239 0.52002-1.355 9e-3 -0.438-0.0652-0.82822-0.24317-1.1704-0.16197-0.35816-0.57315-0.8398-1.2188-1.4443l-1.3901 1.1001c-0.27604 0.24866-0.48338 0.51254-0.64307 0.79541-0.1574 0.28288-0.23045 0.56803-0.2373 0.85547-9e-3 0.438 0.15128 0.83019 0.49804 1.1587 0.34675 0.3285 0.81447 0.50715 1.3711 0.51855zm-0.48194-5.644c1.1999-0.90338 2.0104-1.6448 2.4097-2.2266 0.22584-0.29884 0.33511-0.65076 0.34424-1.0386 0.0114-0.48819-0.16595-0.89839-0.5127-1.2246-0.34675-0.34675-0.81555-0.52391-1.4224-0.5376-0.59085-0.01369-1.0855 0.195-1.4824 0.60791s-0.61099 0.96566-0.62696 1.6729c-0.0114 0.52469 0.0948 1.0158 0.30469 1.4766 0.20988 0.45853 0.53872 0.88905 0.98584 1.27z" fill="#fff" stroke="#fff" stroke-width=".39694"/>
    <path d="m358.15 148.6s-1.7702-3.3161-4.7358-2.6089c0 0 4.03-1.7708 6.1538 2.3013zm-34.122-24.675-0.59912-2.3584-2.4302-0.15967 2.0581-1.3008-0.60058-2.3584 1.8735 1.5557 2.0581-1.2993-0.89942 2.2632 1.8735 1.5557-2.4331-0.1582zm-35.544-0.91992s0.10743-1.4026 1.5264-2.1782c0 0-0.64142 1.0767-0.22852 1.5923h9.9375s0.24354-1.3511-1.3579-3.0278c0 0 2.3797 1.5053 2.8359 3.5698zm57.453-0.47168s0.52289-1.5519 1.9966-2.5488c0 0-0.26986 1.1862 0.15674 1.8501h9.9287s-0.15044-1.0037-1.8135-3.1641c0 0 2.4728 1.148 2.9473 3.8057zm-28.343-3.2827-0.60205-2.3613-2.4302-0.15967 2.0596-1.2978-0.60205-2.3613 1.8735 1.5557 2.0596-1.2993-0.90087 2.2617 1.8735 1.5571-2.4302-0.1582zm13.141-0.2124-0.60059-2.3584-2.4302-0.1582 2.0581-1.2993-0.59912-2.3613 1.8721 1.5586 2.0581-1.3008-0.89942 2.2632 1.8735 1.5527-2.4316-0.15674zm-19.909-4.8413-0.60205-2.3613-2.4302-0.15966 2.0581-1.2993-0.60059-2.3599 1.8735 1.5557 2.0581-1.2993-0.90088 2.2632 1.875 1.5557-2.4316-0.1582zm26.969-0.0176-0.60352-2.3613-2.4287-0.15821 2.0581-1.3022-0.60059-2.3584 1.8735 1.5557 2.0596-1.3008-0.90088 2.2632 1.8721 1.5557-2.4316-0.15674zm-33.737-5.0361-0.60352-2.3613-2.4287-0.15966 2.0596-1.2979-0.60205-2.3613 1.8735 1.5571 2.0596-1.2993-0.90088 2.2602 1.8721 1.5557-2.4316-0.15528zm40.509-0.90967-0.59766-2.3613-2.4316-0.15967 2.0596-1.3008-0.60205-2.3584 1.8721 1.5557 2.061-1.3008-0.90235 2.2632 1.8735 1.5557-2.4316-0.15674zm-47.629-4.1689-0.60205-2.3613-2.4302-0.15674 2.0596-1.2978-0.60205-2.3613 1.8735 1.5557 2.0581-1.3008-0.89942 2.2632 1.8721 1.5557-2.4316-0.15674zm54.69-0.6958-0.60059-2.3599-2.4316-0.15966 2.0596-1.2979-0.60205-2.3613 1.8735 1.5557 2.0596-1.3022-0.90088 2.2661 1.8721 1.5557-2.4316-0.1582zm-62.165-4.4033-0.60205-2.3599-2.4302-0.15674 2.061-1.3022-0.60351-2.3599 1.8735 1.5586 2.0596-1.3022-0.90087 2.2632 1.8735 1.5557-2.4302-0.1582zm69.223-0.46142-0.60058-2.3584-2.4287-0.15674 2.0566-1.3008-0.59912-2.3613 1.8721 1.5557 2.0581-1.2993-0.89795 2.2617 1.8706 1.5571-2.4302-0.1582zm-76.633-5.5239-0.59912-2.3599-2.4331-0.15674 2.061-1.3022-0.60059-2.3599 1.8735 1.5557 2.0596-1.2993-0.90088 2.2632 1.8706 1.5557-2.4302-0.1582zm84.138-0.72656-0.60205-2.3613-2.4287-0.15967 2.0596-1.3008-0.60205-2.3584 1.8721 1.5586 2.061-1.3022-0.90234 2.2632 1.8735 1.5557-2.4316-0.1582zm-59.429-11.354c-1.7299 0.02008-1.3682-1.8311-1.3682-1.8311 0.26463 1.371 1.6377 1.8135 1.6377 1.8135-0.0955 0.01048-0.18446 0.01659-0.26953 0.01758zm33.775-0.14795c-0.53153-0.08897-0.79541-0.62109-0.79541-0.62109 0.53153-0.04334 0.79541 0.62109 0.79541 0.62109z" fill="#fff"/>
   </g>
   <path d="m322.39 146.26-0.17566-6.8164c-0.089-1.4167 1.5034-1.7702 1.5034-1.7702m3.009 13.101 1.9482 1.7703 2.1261-0.3536m-36.649-6.7274c2.7444 0.35359 3.8051 2.8333 3.8051 2.8333l20.36 4.6903 0.70947-0.79616" fill="none" stroke="#fff" stroke-width=".99006"/>
   <path d="m287.96 148.47 0.6205-1.7702-0.089 1.9482zm58.026-61.301c-1.6813-1.1498-2.5231-3.5405-2.701-6.5061-0.17793-2.9656 5e-3 -5.329 0.57716-7.4346 0.70719-2.612 2.5664-3.7641 2.5664-3.7641m5.9313 14.65c0.8395-1.7703-0.31025-4.4256-0.31025-4.4256m0.22128-2.7877c1.0608-2.0805 0-5.0461 0-5.0461m-41.252 7.8334h26.335m-43.065-3.6733v-5.9313m2.2128 2.0372h1.1954v0.70719m5.71-0.70719h0.97181v3.1869m-12.745 4.4256h12.17" fill="none" stroke="#fff" stroke-width=".59313"/>
  </g>
 </g>
</svg>