<?xml version="1.0" encoding="UTF-8" standalone="no"?>
<svg xmlns="http://www.w3.org/2000/svg" xmlns:xlink="http://www.w3.org/1999/xlink" width="500" height="500" version="1.0">
  <defs>
    <linearGradient id="a">
      <stop offset="0" stop-color="#fff" stop-opacity=".33725491"/>
      <stop offset="1" stop-color="#fff" stop-opacity=".10309278"/>
    </linearGradient>
    <linearGradient xlink:href="#a" id="b" x1="341" x2="444" y1="396.6875" y2="264.5" gradientUnits="userSpaceOnUse"/>
    <linearGradient xlink:href="#a" id="c" x1="364.69299" x2="474.21738" y1="367.85699" y2="228.33549" gradientTransform="rotate(15.15 343.27000494 105.02055106)" gradientUnits="userSpaceOnUse"/>
    <linearGradient xlink:href="#a" id="d" x1="398.47485" x2="503.34088" y1="327.77911" y2="202.03365" gradientTransform="rotate(27.654 347.19324867 77.44608716)" gradientUnits="userSpaceOnUse"/>
    <linearGradient xlink:href="#a" id="e" x1="416.69516" x2="519.45551" y1="301.33398" y2="188.67067" gradientTransform="rotate(39.366 376.80157942 92.71939932)" gradientUnits="userSpaceOnUse"/>
  </defs>
  <path fill="#723904" fill-rule="evenodd" d="M499.999942 250A249.999993 250 0 1 1-.000044 250a249.999993 250 0 1 1 499.999986 0z"/>
  <g fill-rule="evenodd">
    <path fill="#fff" d="M472.999954 250a222.999991 223 0 1 1-445.999982 0 222.999991 223 0 1 1 445.999982 0z"/>
    <path fill="#008356" d="M472.999954 250c0 123.096-99.90399597 223-222.999991 223S26.999972 373.096 26.999972 250h445.999982z"/>
    <path fill="url(#b)" d="M286 470.875 444 264.5 270 471"/>
    <path fill="url(#c)" d="m176.12796 455.3694 261.31023-197.09688-272.36307 190.0897"/>
    <path fill="url(#d)" d="M91.891786 405.90306 427.67993 260.27402 82.618145 396.66913"/>
    <path fill="url(#e)" d="m46.934677 331.92164 379.293833-74.53963-386.499835 63.61538"/>
  </g>
  <path fill="none" stroke="#fff" stroke-dashoffset="10.5" stroke-linejoin="round" stroke-width="3.23181222" d="M82 110a53 50 0 1 1-106 0 53 50 0 1 1 106 0z" transform="matrix(4.20755 0 0 4.46 127.9811 -240.6)"/>
  <g fill-rule="evenodd">
    <path fill="#008356" d="M121 129h22.5v71.86001s.0625 6.84381 6.875 6.84381 7.8125-6.78159 7.8125-6.78159v-71.86001h21.9375v71.92223S180.20121 225 150.8125 225c-29.21199 0-29.78125-23.98445-29.78125-23.98445L121 129zm102.62252 29.76344h20.32932S245.71961 129 215.84435 129c-8.12899 0-16.21461 3.51816-20.48051 8.15895-4.62796 5.03468-6.91988 10.0533-6.91988 18.67976 0 6.7646.71474 17.00942 18.208 26.83871 10.71214 6.01905 16.97056 10.49462 16.97056 16.86022 0 6.36559-3.53553 8.60214-8.48528 8.60214-6.6328 0-7.46882-7.07578-7.46882-7.91397 0-.94624-.13258-7.91398-.13258-7.91398h-21.03643S182.61033 225 214.60691 225c31.13729 0 29.34493-23.91398 29.34493-28.90323 0-16.00092-7.78607-21.26644-20.15254-28.21504-10.14817-5.70216-15.2028-9.11829-15.2028-14.79571s3.83978-7.2258 6.89429-7.2258c8.27994 0 8.18797 7.74568 8.18797 8.55914 0 .71929.12054 4.51613-.05624 4.34408zM253.321 129h30.93593c8.48528 0 26.69328 2.92014 26.69328 20.98859v54.20532c0 13.457-12.06722 20.80609-24.92767 20.80609H253.321v-96zm22.11611 17.61987h7.19149c3.99019 0 6.20523 1.84821 6.20523 13.28406v34.30752c0 8.51717-.30377 13.16855-5.79479 13.16855h-7.60193v-60.76013zM339.5 225h-21.375l20.25-96h25.75l20.75 95.73984H362.25l-2.625-17.56098H343L339.5 225zm5.875-34.86179h11.75l-5.5-43.31707-6.25 43.31707z"/>
    <path fill="#fff" d="M254.90453 349.12109h-16.05382l15.20889-72h19.33968l15.58441 71.80488h-16.99263l-1.97153-13.17073h-12.4863l-2.6287 13.36585zm4.41246-26.14634h8.82489l-4.1308-32.48781-4.69409 32.48781zm-155.29171-45.85366h8.5009c9.93601 0 17.93503 7.8885 17.93503 17.68722v36.62558c0 9.79871-7.99902 17.6872-17.93503 17.6872h-8.5009c-9.936009 0-17.935032-7.88849-17.935032-17.6872v-36.62558c0-9.79872 7.999023-17.68722 17.935032-17.68722zm4.25045 12.02902c3.13389 0 5.65684 2.60471 5.65684 5.84018v36.26162c0 3.23546-2.52295 5.84018-5.65684 5.84018-3.1339 0-5.65685-2.60472-5.65685-5.84018v-36.26162c0-3.23547 2.52295-5.84018 5.65685-5.84018zm46.58066 31.56897v28.40201H138.0626v-72h25.98617c10.07628 0 18.38478 4.32449 18.38478 19.53769 0 15.19707-7.6014 14.74372-7.6014 16.55277 0 2.58224 7.42462-2.05728 7.42462 18.3618 0 16.41709 2.47488 14.83417 2.47488 16.14573s-.08839 1.35678-.08839 1.35678h-19.0035v-20.48742c0-6.60591-3.86106-7.86936-10.78337-7.86936zm-.26517-13.74873v-16.89197c3.64709 0 11.04854-1.4263 11.04854 8.299 0 9.59476-5.23549 8.59297-11.04854 8.59297zm62.84412 15.32383h-5.83364v-11.94231h22.45064v37.55769h-11.84403v-6.23077s-3.18198 7.4423-14.84925 7.4423c-11.66726 0-18.208-7.96153-18.208-17.48076V292.8711c0-9.17309 10.07628-15.75001 22.27387-15.75001 12.19759 0 21.9645 6.75001 21.9645 15.40386 0 8.65384-.04419 9.86538-.04419 9.86538h-16.26346v-7.96154c0-3.11538-3.53553-5.36539-5.48008-5.36539-1.94454 0-6.09879 1.38463-6.09879 5.97116v34.52885c0 4.15384 1.67938 7.09614 5.74524 7.09614 4.06587 0 6.36396-3.46154 6.36396-6.57692 0-3.11538 0-8.30768-.17677-7.78845zm91.57032-9.70773v36.35642h-15.55635v-71.82178h17.32412l12.19759 39.74258v-39.56436h15.37958v71.82178h-17.85445l-11.49049-36.53464zm37.47667-35.46536h16.26346v72h-16.26346v-72zm52.67945 25.61538h16.26345v-10.55768c0-6.23077-6.0104-15.0577-23.5113-15.0577-17.50089 0-20.68287 12.28848-20.68287 17.82693v35.82693c0 6.75 3.0052 18.34614 21.2132 18.34614 18.208 0 23.86486-11.42308 23.86486-15.57692v-12.63462h-16.97056v10.5577c0 2.7036-2.63093 5.19231-5.65686 5.19231-2.92885 0-5.65685-1.73077-5.65685-5.19231v-36.51923c0-3.28846 1.60748-4.93268 5.65685-4.93268 3.50357 0 5.56847 3.11536 5.56847 5.45191 0 2.33654.08839 7.44231-.08839 7.26922z"/>
  </g>
</svg>