<?xml version="1.0" encoding="UTF-8" standalone="no"?>
<svg
   xmlns:dc="http://purl.org/dc/elements/1.1/"
   xmlns:cc="http://creativecommons.org/ns#"
   xmlns:rdf="http://www.w3.org/1999/02/22-rdf-syntax-ns#"
   xmlns:svg="http://www.w3.org/2000/svg"
   xmlns="http://www.w3.org/2000/svg"
   xmlns:sodipodi="http://sodipodi.sourceforge.net/DTD/sodipodi-0.dtd"
   xmlns:inkscape="http://www.inkscape.org/namespaces/inkscape"
   inkscape:version="1.0 (4035a4fb49, 2020-05-01)"
   sodipodi:docname="Volkswagen 1937-1939 Logo.svg"
   xml:space="preserve"
   enable-background="new 0 0 89.046 89.046"
   viewBox="0 0 500.00001 500.00001"
   height="500"
   width="500"
   y="0px"
   x="0px"
   id="Capa_1"
   version="1.1"><metadata
   id="metadata11"><rdf:RDF><cc:Work
       rdf:about=""><dc:format>image/svg+xml</dc:format><dc:type
         rdf:resource="http://purl.org/dc/dcmitype/StillImage" /></cc:Work></rdf:RDF></metadata><defs
   id="defs9">
	
</defs><sodipodi:namedview
   inkscape:current-layer="Capa_1"
   inkscape:window-maximized="1"
   inkscape:window-y="-11"
   inkscape:window-x="-11"
   inkscape:cy="214.31681"
   inkscape:cx="509.58103"
   inkscape:zoom="0.92050057"
   showgrid="false"
   id="namedview7"
   inkscape:window-height="986"
   inkscape:window-width="1920"
   inkscape:pageshadow="2"
   inkscape:pageopacity="0"
   guidetolerance="10"
   gridtolerance="10"
   objecttolerance="10"
   borderopacity="1"
   bordercolor="#666666"
   pagecolor="#ffffff"
   inkscape:document-rotation="0" />
<path
   id="path10"
   style="opacity:0.78;fill:#ffffff;stroke-width:4.67305;stroke-linecap:square;stroke-dashoffset:131.528;paint-order:stroke fill markers"
   d="m 336.305,250.142 c 0,47.85465 -38.78535,86.649 -86.64,86.649 -47.85465,0 -86.65,-38.79435 -86.65,-86.649 0,-47.85465 38.79535,-86.648 86.65,-86.648 47.85465,0 86.64,38.79335 86.64,86.648 z"
   sodipodi:nodetypes="sssss" /><path
   sodipodi:nodetypes="ssccccccccccsccccccsccsccsccsccsccssccccccccccccsccsccsccsccsccssccccccccccsccccccsccsccsccsccsccssccccccccccccsccsccsccsccsccsscccscccccccccccccccccccccscc"
   d="m 249.99451,0 c -35.7067,0 -69.58327,7.8174692 -100.46939,21.155018 -5.88391,2.540848 -13.85053,6.108531 -20.87035,10.045618 L 197.199,168.0996 c -5.72744,3.68906 -11.06227,7.95437 -15.89129,12.72152 l -11.86638,-9.3876 -14.36687,18.16107 11.76768,9.3218 c -3.69477,5.94631 -6.76625,12.32313 -9.12461,19.02746 l -14.68492,-3.20232 -4.92422,22.62457 14.58621,3.18038 c -0.30883,3.16125 -0.47156,6.35612 -0.47156,9.59598 0,3.4027 0.17828,6.76005 0.52642,10.07852 l -14.63008,3.35585 5.17646,22.56974 14.58622,-3.34488 c 2.49873,6.98508 5.76403,13.59185 9.70586,19.74029 l -31.06975,26.73714 c -15.77294,-22.48814 -25.04881,-49.81749 -25.04881,-79.26826 1e-5,-28.1537 8.47721,-54.39767 22.99797,-76.29625 l -17.94214,-13.18213 c -17.23288,25.60448 -27.318989,56.40031 -27.318989,89.47838 0,34.98717 11.281699,67.41303 30.378799,93.85415 l -15.16747,13.0615 C 82.327561,326.94793 69.246119,289.96171 69.246119,250.01086 c 0,-37.49147 11.50421,-72.37766 31.168431,-101.30063 L 81.858259,135.07846 c -22.471803,32.7524 -35.653966,72.35372 -35.653966,114.9324 0,45.68378 15.155274,87.92364 40.70979,121.9731 l -16.297077,14.03755 c -28.788842,-37.8396 -45.91915,-84.98137 -45.91915,-136.01065 0,-47.32899 14.727392,-91.33037 39.821453,-127.65392 L 44.614067,107.74912 C 16.50466,148.16601 0,197.21311 0,249.99989 c 0,57.17212 19.610285,109.7759 51.87427,152.15383 3.88938,5.10859 9.213535,12.01377 14.706852,17.89787 L 182.29475,320.43985 c 5.40738,5.17705 11.40207,9.74162 17.87633,13.58791 l -6.05383,13.84014 21.23226,9.26697 6.00996,-13.75241 c 5.3007,1.61152 10.78573,2.78023 16.41771,3.47649 l -0.0219,15.09037 23.17344,0.0331 0.0112,-15.05746 c 7.18738,-0.84225 14.14551,-2.46788 20.78261,-4.7925 l 18.91821,36.78276 c -15.70556,6.20459 -32.7842,9.6179 -50.64597,9.6179 -24.40341,0 -47.35996,-6.37893 -67.30494,-17.53597 l -9.48652,20.20091 c 22.83678,12.4878 49.00773,19.6087 76.79146,19.6087 21.52285,0 42.07901,-4.28777 60.86728,-12.01965 l 9.16848,17.82111 c -21.55654,9.11878 -45.22805,14.15817 -70.03576,14.15817 -30.81029,0 -59.85997,-7.78364 -85.29095,-21.47305 l -9.7936,20.86987 c 28.41263,15.08195 60.77603,23.6445 95.08455,23.6445 28.60354,0 55.85673,-5.9671 80.59705,-16.68055 l 9.84843,19.14808 c -27.70511,12.21828 -58.3044,19.01649 -90.44548,19.01649 -37.57092,0 -73.02239,-9.27777 -104.22012,-25.66238 l -10.50646,22.36136 c 34.39275,17.88383 73.41036,28.0093 114.72658,28.0093 36.20645,0 70.4693,-8.18786 101.76351,-21.7253 6.71502,-2.90482 14.98159,-6.87059 20.81551,-10.15529 L 302.50487,331.94405 c 6.14858,-3.99227 11.8183,-8.66177 16.91123,-13.89497 l 12.15152,9.24504 14.03786,-18.43524 -12.09669,-9.19021 c 3.8913,-6.55834 7.04227,-13.595 9.32202,-21.01245 l 14.98102,2.65397 4.03589,-22.81101 -14.91522,-2.643 c 0.1123,-1.89226 0.16452,-3.79899 0.16452,-5.71372 0,-4.79522 -0.34612,-9.51 -1.01994,-14.11431 l 14.68492,-4.02483 -6.1306,-22.35041 -14.63008,4.01387 c -2.71211,-6.67064 -6.12893,-12.97947 -10.17745,-18.81908 l 31.85936,-26.66037 c 16.86789,22.94858 26.8474,51.25563 26.8474,81.81256 0,35.02648 -13.12644,67.07069 -34.69982,91.50725 l 17.1525,14.18012 c 24.76278,-28.28846 39.81049,-65.2817 39.81049,-105.68737 0,-35.98664 -11.92727,-69.27352 -32.02386,-96.11331 l 15.321,-12.82023 c 22.99401,30.32111 36.66294,68.08428 36.66294,108.93354 0,45.22897 -16.76822,86.65061 -44.39472,118.39792 l 17.75569,14.67362 c 30.92259,-35.7452 49.68085,-82.27809 49.68085,-133.07154 0,-46.46427 -15.6852,-89.37537 -42.02583,-123.71683 l 16.48351,-13.79627 c 29.46828,38.08667 47.04876,85.81002 47.04876,137.5131 0,55.98173 -20.61608,107.29554 -54.627,146.76911 l 19.01691,15.71547 C 477.24613,368.73786 500,311.95038 500,249.99989 500,192.28312 480.02316,139.21326 447.19353,96.639721 443.2908,91.578658 437.9079,84.696567 432.38797,78.851518 L 314.48093,177.49817 c -4.65495,-4.16073 -9.71139,-7.87568 -15.0907,-11.08747 l 6.11963,-13.93884 -21.21032,-9.29987 -6.0648,13.82917 c -5.35123,-1.65082 -10.90451,-2.85138 -16.61511,-3.55325 v -15.13424 h -23.16247 v 15.0465 c -7.06385,0.80857 -13.89029,2.382 -20.4207,4.62801 l -18.52341,-36.9692 c 15.65502,-6.15405 32.68707,-9.54114 50.48146,-9.54114 23.97666,0 46.55421,6.14073 66.2521,16.93279 l 9.68394,-20.0693 C 303.2959,96.139894 277.42448,89.204207 249.99451,89.204207 c -21.37685,0 -41.79088,4.218726 -60.47246,11.855143 l -8.97107,-17.908834 c 21.3937,-8.955953 44.86043,-13.90594 69.44353,-13.90594 30.53514,0 59.33188,7.640984 84.60003,21.100182 L 344.60748,69.584549 C 316.30716,54.659832 284.11212,46.203261 249.99451,46.203261 c -28.28348,2e-6 -55.25319,5.81883 -79.77452,16.307679 L 160.5909,43.264152 c 27.42997,-11.931917 57.66682,-18.55588 89.40361,-18.55588 37.45862,0 72.83218,9.225299 103.95691,25.508851 l 10.7258,-22.251702 C 330.30132,10.109664 291.29388,2.8e-7 249.99451,0 Z M 249.665,163.494 c 8.63047,0 16.96849,1.26562 24.84092,3.62955 l -25.1146,51.36864 -23.90823,-51.55508 c 7.68152,-2.23478 15.80411,-3.44311 24.18191,-3.44311 z m -46.62055,13.6642 33.02187,72.07401 h 27.42866 l 33.57022,-71.55857 c 8.91123,5.85085 16.67768,13.29241 22.89926,21.9227 l -40.08467,86.67087 -16.45062,-33.04307 h -27.8125 l -16.46158,31.86961 -39.70082,-85.62902 c 6.39565,-8.8268 14.39819,-16.41076 23.59018,-22.30653 z m -37.32096,51.48927 43.06771,97.84608 c -27.21098,-14.63836 -45.78181,-43.3914 -45.7762,-76.35155 0,-7.41743 0.94534,-14.61613 2.70849,-21.49453 z m 168.07045,0.76768 c 1.63962,6.64256 2.51667,13.58455 2.51106,20.72685 0,33.2746 -18.92272,62.26469 -46.55484,76.76829 z m -82.50532,54.89996 21.12259,49.42751 c -7.25476,1.97087 -14.8794,3.04838 -22.74621,3.04838 -8.10265,0 -15.93563,-1.12945 -23.38131,-3.22384 z"
   style="fill:#000000;stroke-width:5.61508;fill-opacity:1"
   id="path109" />
</svg>
