<svg xmlns="http://www.w3.org/2000/svg" height="292.73" viewBox="0 0 279.20337 292.72617" width="279.2"><g transform="matrix(1.25 0 0 -1.25 26.771 762.62)"><g transform="matrix(3.125 0 0 3.125 -189.27 -1045.1)"><path d="m10.324-0.011719c-0.30375 7.4388-0.08984 15.343-0.08984 22.941 0 4.805-0.25891 9.9235 0.08984 14.572 0.4725 6.3175 0.59242 11.427 2.6074 15.926 4.2012 9.3675 14.72 15.235 24.832 18.803 1.6138 0.5675 3.2253 1.043 5.0391 1.5293 0.39 0.10375 0.97891 0.50352 1.3477 0.54102 0.95875 0.09 4.9905-1.5369 6.0293-1.8906 10.252-3.5175 21.684-9.9284 25.73-19.523 1.7288-4.11 2.0002-8.5298 2.4277-14.215 0.30625-4.115 0.08984-8.6876 0.08984-12.955v-25.729h-68.104zm75.572 63.785c-0.8525 0.13-3.1401 2.1044-4.0488 2.6094-3.2612 1.805-6.5123 3.6796-10.166 5.0371 0 1.72-0.24047 1.6924 0.98828 1.1699 4.0675-1.7412 7.5105-3.9102 11.248-5.8477-0.23375 0.59875-1.4217 5.043-1.2617 5.668 0.1525 0.60125 3.2416 3.7823 3.8691 4.2285-1.8562 0.48375-3.158 1.3998-4.9492 1.9785-0.01625 0.12-0.10359 0.38766-0.08984 0.62891 0.015 0.31875 0.11102 0.80305 0.54102 0.81055 1.3688 0.0225 5.1075-2.5386 6.6562-3.0586-0.72-0.4925-4.4391-4.3123-4.5879-4.9473-0.145-0.61625 0.97367-4.7283 1.1699-5.4883 0.21375-0.84875 0.62445-1.7858 0.7207-2.5195 0.01125-0.10375 0.05016-0.29203-0.08984-0.26953zm-83.039 0.36c-0.2225-0.05375 0.65359 2.4147 0.80859 3.1484 0.1625 0.7875 1.1183 4.6477 0.98828 5.1289-0.17125 0.62375-3.9758 4.5621-4.6758 5.0371 0.39125 0.115 0.61703 0.11398 0.98828 0.27148 1.9588 0.82375 3.7475 1.9973 5.9375 2.6973 0.27-1.09 0.38359-1.3027-0.62891-1.709-1.2988-0.5225-2.5415-1.3965-3.959-1.709 1.49-1.215 2.4829-2.9116 3.8691-4.2266-0.45-1.525-0.60133-3.4192-1.0801-4.9492-0.01125-0.02875-0.23203-0.63086-0.26953-0.63086 0 0 0.15969-0.11992 0.89844 0.36133 2.3588 1.5325 4.8536 2.8563 7.5586 4.0488 1.1412 0.50375 2.3328 0.98305 3.5078 1.5293 0.025-0.3475 0.08984-0.95945 0.08984-1.4395-3.1375-1.4562-6.1484-2.7827-9.0859-4.4102-1.395-0.7725-2.7474-1.6776-4.1387-2.5176-0.23875-0.14375-0.53609-0.56961-0.80859-0.63086zm76.74 7.1973c-2.5362 1.7912-5.7788 2.9126-8.9062 4.0488-5.0188 1.8162-10.61 3.6891-16.732 4.3203-17.328 1.7788-34.057-1.4603-44.805-8.0078 0 3.7475-1.0798 10.775-2.3398 13.494 1.5212 0.33375 2.6527 1.0318 3.959 1.5293 2.4712 0.93625 4.9866 1.9092 7.5566 2.6992 10.751 3.295 26.36 4.7256 39.496 2.6094 5.5125-0.89125 10.866-2.1354 15.654-3.8691 2.7912-1.015 5.3709-2.6283 8.3672-3.2383-0.5875-1.19-0.71148-2.6399-0.99023-4.1387-0.5475-2.9325-1.2598-6.0235-1.2598-9.4473z" transform="matrix(.8 0 0 -.8 54 529.41)" fill="#222"/><path d="m115.16 528.12c-12.06 0.146-24.765-0.144-37.066-0.144h-9.86c-1.501 0-3.23-0.112-4.607 0.072 0.383-2.589 0.144-5.872 0.144-8.709v-14.61c0-8.381 0.099-15.555 3.599-20.296 2.521-3.415 5.884-5.866 9.716-7.989 3.03-1.678 6.253-2.897 9.861-4.103 0.632-0.211 1.849-0.836 2.447-0.863 0.4-0.016 1.107 0.461 1.511 0.575 2.58 0.743 4.818 1.59 7.054 2.591 5.748 2.58 11.351 5.902 14.394 11.156 0.362 0.63 0.637 1.266 0.936 1.943 0.184 0.421 0.422 0.864 0.576 1.296 0.087 0.252 0.063 0.394 0.144 0.648 0.094 0.303 0.193 0.625 0.288 1.007 0.074 0.308 0.139 0.625 0.215 1.008 0.073 0.366 0.136 0.764 0.217 1.223 0.087 0.511 0.157 1.094 0.215 1.728 0.039 0.443 0.101 0.944 0.144 1.511 0.191 2.562 0.072 5.452 0.072 8.133v15.69c0 2.544-0.119 5.472 0.144 7.774-0.139 0.067 0.327 0.355-0.144 0.359" fill="#00356b"/><path d="m63.045 12.672c-1.4338 0.655-2.9349 1.3562-4.8574 1.5312-6.6888 0.59625-12.849-2.4323-13.945 4.6777-0.5575-7.0538-7.6703-4.1216-13.945-4.5879-1.85-0.14125-3.4197-0.795-4.6797-1.5312-0.62625 1.1138-1.5255 2.0904-2.248 3.1504-0.84125-0.09625-1.8056-0.07414-2.6094-0.18164 0.475 3.2188 0.08984 7.1286 0.08984 10.527v24.922h12.775c2.19 0 5.128 0.28742 6.748-0.36133-1.035 2.7825-0.05438 3.954 3.3281 3.959 3.6375 0.0063 5.8843-0.55274 4.498-3.959 1.8875 0.4775 4.6844 0.36133 7.1094 0.36133h12.504v-35.539c-0.86625 0-1.7845-0.02016-2.5195 0.08984-0.73375-1.0288-1.5255-2.0011-2.248-3.0586zm7.1055 2.4297c-0.14625-0.02-0.10359 0.16203-0.08984 0.26953 0.2025 1.5738 0.41148 3.5933 0.27148 5.4883-0.11375 1.465-0.15758 2.3116-1.7988 2.0703 0 0.21 0.045 0.42016 0 0.62891 0.9675 0.24375 2.1491 0.35938 3.5078 0.35938-0.045 0.2725-0.0023 0.43086-0.08984 0.63086-0.45 1.01-2.2292 0.67156-3.418 0.53906 0.02125 0.24125 0.08359 0.59945 0.08984 0.7207 0.8825 0.1175 2.215 0.45984 2.9688 0.08984 2.01-0.99625 1.391-7.79 1.9785-10.438-1.335 0.8375-1.6139 1.2779-2.8789 0.18164-0.15125-0.1325-0.30976-0.51602-0.54102-0.54102zm-51.73 0.7207-0.08984 0.08984c-1.49 1.1675-1.3522 1.1583-3.1484 0.26953 0.365 2.705-0.055 9.5612 2.25 10.076 0.9 0.19875 1.8437-0.15703 2.6074-0.26953 0.0038-0.10625 0.06734-0.4932 0.08984-0.7207-1.7338 0.19125-2.5378 0.32484-3.5078-0.62891 0.03125-0.01875 0-0.40547 0-0.44922 1.2625-0.10125 2.4928-0.18742 3.5078-0.45117 0-0.16375-0.04125-0.38406 0-0.53906-0.4125 0-0.89547 0.0052-1.168-0.08984-1.0488-0.37375-0.54102-5.8109-0.54102-7.2871zm0.0918 18.893c-0.39625 0.37375-0.75312 0.92726-1.1719 1.2598-0.73375 0.57375-1.5209-0.2907-2.0684-0.7207 0.1375 1.7512 0.32898 7.8775 0.99024 8.9062 0.4975 0.77375 1.5853 0.8782 2.7891 0.7207 1.5875-0.21125 1.5467-0.99805-0.26953-0.81055-1.2962 0.1325-1.8077-0.11422-2.1602-1.168l0.0918-0.27148c1.2612 0 2.4498-0.03078 3.416-0.26953-0.315-1.4112-0.86375-0.003-1.4375-0.81055-0.6975-0.98125-0.38719-5.4409-0.17969-6.8359zm51.424 0.74219c0.20875 1.395 0.51781 5.8566-0.17969 6.8379-0.57375 0.8075-1.1257-0.6007-1.4395 0.81055 0.96625 0.23875 2.1574 0.26953 3.4199 0.26953l0.08984 0.26953c-0.35125 1.0538-0.86391 1.3024-2.1602 1.1699-1.8162-0.18875-1.857 0.59734-0.26953 0.80859 1.2038 0.1575 2.2916 0.055 2.7891-0.71875 0.66125-1.0288 0.85273-7.155 0.99023-8.9062-0.5475 0.43-1.3366 1.2925-2.0703 0.71875-0.41875-0.3325-0.77367-0.88602-1.1699-1.2598z" transform="matrix(.8 0 0 -.8 54 529.41)" fill="#222"/><path d="m62.145 14.021c-1.3712 0.79875-3.2781 1.3792-5.5781 1.2617-3.045-0.1575-7.4438-0.83164-9.625 0.53711-0.99875 0.625-1.7716 1.9265-2.0703 3.2402-0.13125 0.57-0.04234 1.1238-0.08984 1.7988-0.65125 8.7075-0.08984 18.019-0.08984 26.9 2.5675-5.1388 9.8846-2.0305 15.475-3.7793 0.675-0.21375 1.6946-0.48648 2.0684-0.99024 0.4725-0.64625 0.17969-4.5784 0.17969-5.7559v-23.213c-0.0275 0-0.26703 0.01375-0.26953 0zm-35.896 0.18164v23.031c0 1.1562-0.34266 5.1095 0.08984 5.8457 0.88 1.4988 6.3536 1.7275 8.9961 1.5312 4.2988-0.32375 7.2169 0.30875 8.5469 2.9688v-20.062c0-2.75 0.36906-6.1056-0.17969-8.5469-0.245-1.085-0.88164-2.1703-1.6191-2.7891-2.71-2.2825-8.1734-0.45469-12.506-0.89844-1.2938-0.135-2.3106-0.66633-3.3281-1.0801zm44.623 2.5176c0.08125 2.03 0.12391 4.3701-0.08984 6.2988 0.41375 0.0925 0.76891 0.17484 1.3477 0.08984 0.4475-1.7625 0.29812-4.2602 0.45312-6.209-0.97625 0.695-0.87219 0.84906-1.7109-0.17969zm-53.17 0.44922c-0.9475 0.86375-0.59344 0.96555-1.7109 0.0918 0.265 1.9675 0.18492 4.2358 0.45117 6.207 0.46125 0 1.0234-0.06484 1.3496-0.08984 0-0.3875-0.07359-0.92867-0.08984-1.1699-0.12625-1.6675 0.05625-3.6441 0-5.0391zm50.812 6.375v1.5293c1.1888 0.1325 2.968 0.47094 3.418-0.53906 0.08625-0.2 0.04484-0.35836 0.08984-0.63086-1.3575 0-2.5416-0.11438-3.5078-0.35938zm-48.379 0.20312c-1.015 0.26375-2.2473 0.34797-3.5098 0.44922 0 0.045 0.03125 0.42922 0 0.44922 0.97 0.95375 1.7748 0.82211 3.5098 0.63086v-1.5293zm-2.4336 12.586c-0.87375 1.1138-0.60219 1.0459-1.7109 0.17969 0.19125 1.7175 0.30852 3.6023 0.54102 5.3086 0.36875 0.04 0.98961 0.02875 1.3496 0-0.0725-1.7788-0.11219-3.802-0.17969-5.4883zm53.045 0.74219c-0.06625 1.6875-0.10719 3.7102-0.17969 5.4902 0.36 0.0275 0.98086 0.03875 1.3496 0 0.2325-1.7075 0.34781-3.5898 0.53906-5.3086-1.1088 0.86625-0.83398 0.93211-1.709-0.18164zm-50.605 5.3086c-0.9675 0.23875-2.1574 0.26953-3.4199 0.26953l-0.08984 0.26953c0.35125 1.0538 0.86391 1.3012 2.1602 1.1699 0.54375-0.0575 0.92945-0.02672 1.1582 0.05078l0.19141-1.7598zm48.16 0.72852 0.07227 1.8125c0.2-0.1125 0.62234-0.17226 1.2773-0.10352 1.2962 0.13125 1.8089-0.11492 2.1602-1.1699l-0.0918-0.26953c-1.2625 0-2.4505-0.03078-3.418-0.26953zm-27.209 7.7051c0.16 0.54875 0.15242 1.3308 0.45117 1.8008 0.59625 0.95 4.0595 0.99867 5.127 0.35742 0.57125-0.345 0.67539-1.4695 0.90039-2.1582-0.0175 0-0.50562 0.03359-0.35937 0.08984-1.6413 1.285-4.5191 0.95266-6.1191-0.08984zm37.156 22.762c-16.928 10.504-50.96 10.568-68.014 0.17969 0.3575 2.4238-0.80484 8.7629-1.6211 10.525 1.5525 0.34 2.7474 1.2027 4.1387 1.709 2.4012 0.86875 4.8914 1.8058 7.3789 2.5195 9.9912 2.8625 24.195 4.0212 36.256 2.25 5.4912-0.81 10.768-1.9857 15.475-3.6895 1.7262-0.6275 3.468-1.3185 5.2168-1.9785 0.9725-0.37125 1.6259-0.94258 2.8809-1.0801-0.915-1.9912-1.6072-7.818-1.7109-10.436z" transform="matrix(.8 0 0 -.8 54 529.41)" fill="#fff"/><path d="m63.225 14.742c0.355 2.4012 0.17969 5.493 0.17969 8.1855v15.115c0 1.915-0.36625 4.2397 0 6.1172 0.175 0.9 1.068 1.8195 1.5293 2.5195 0.39875 0.61 0.81852 1.0766 1.2598 1.6191-0.435-3.2075-0.17969-7.1202-0.17969-10.615v-19.973c-1.24-0.57625-2.0966-1.855-2.7891-2.9688zm-37.73 0.07617c-0.03076-0.0234-0.07898-0.0257-0.14648 0.01367-0.23 0.1325-0.30047 0.75148-0.44922 0.99024-0.5275 0.84-1.3 1.5373-2.25 1.9785v20.242c0 3.1012 0.28141 6.5996-0.08984 9.5371-0.02875 0.21125-0.18266 1.0154 0.08984 0.90039 0.3625-0.1575 2.5842-3.7353 2.6992-4.3203 0.38-1.965 0-4.3817 0-6.3867v-15.654c0-2.275-0.22516-4.9063 0.08984-7.0176 0.09281 0.0525 0.14893-0.21301 0.05664-0.2832zm36.65 29.432c-1.1412 0.5675-2.3695 1.1853-3.957 1.3516-3.9562 0.40375-8.9901-0.77172-11.518 0.98828-1.195 0.83-1.8823 2.3926-1.9785 4.0488 0.8025-0.2025 1.517-0.35195 2.1582-0.7207 0.2525-0.14875 0.61289-0.665 0.90039-0.71875 0.9225-0.18 2.4088 0.36453 3.6875 0.26953 2.4125-0.18375 5.1795 0.10141 7.7383-0.08984 1.7688-0.135 4.6831-0.38641 6.2969 0.08984-1.085-1.73-2.3406-3.375-3.3281-5.2188zm-35.807 0.17969c-0.86875 2.1312-2.1869 3.6645-3.3281 5.4883 1.155-0.53625 3.0038-0.44922 4.7676-0.44922 3.8238 0 8.3995 0.505 12.145 0 0.17125-0.02625 0.78164-0.37688 0.90039-0.35938 0.1825 0.0225 0.6268 0.60625 0.81055 0.71875 0.62625 0.3825 1.4555 0.63305 2.248 0.81055-0.115-1.9538-0.86539-3.366-2.3379-4.2285-2.595-1.5212-7.6309-0.295-11.336-0.71875-1.4988-0.175-2.6716-0.78047-3.8691-1.2617z" transform="matrix(.8 0 0 -.8 54 529.41)" fill="#fabd0a"/><path d="m28.586 20.23-0.08984 0.08984c-1.26 0.98625-0.98492 2.612 0.36133 3.2383-0.365 0.51375-1.0151 1.1412-1.0801 1.8887-0.1125 1.2262 0.40891 1.9823-0.08984 3.0586-0.04125-0.03-0.05656 0.18578 0.17969 0.26953 0.30625-0.45 0.88273-1.0497 0.99023-1.6172 0.17125-0.93375-0.24125-1.752 0-2.5195 0.185-0.59875 0.73133-1.2165 1.0801-1.709 1.25 0.57875 3.4534 1.1023 2.7871 3.0586-0.10375 0.30125-0.19297 0.68484-0.44922 0.80859-0.61875 0.2925-1.8894 0.12094-2.6094 0.17969-0.21375 0.57375-0.34781 1.0186-0.53906 1.6211 0.14625-0.0125 0.63141-0.0918 0.62891-0.0918 2.5412 0 2.6488 0.41086 3.3301-1.6191 0.28875-0.87125 0.90375-2.1308 0.71875-3.2383-0.2825-1.6562-2.853-0.82922-2.6992-3.418-0.74125 0.66625-1.1855 2.5198-2.248 1.5273-0.41375-0.3875-0.36648-1.0386-0.27148-1.5273zm6.1191 0.08984c-0.295 1.3413-0.51086 2.7883 0.90039 3.2383-0.43 1.0662-0.1968 1.9308-0.0918 3.2383-1.6062 0.41875-1.3763 0.18328-1.7988 1.8008 3.6925 0 2.93-0.75508 2.25-3.3301-0.43625-1.6425 0.33961-2.269 2.0684-1.709 0.8275 0.2675 0.44922 3.821 0.44922 4.9473 0.6975-0.30875 0.89547-0.75141 1.2617-1.3477-0.9175-0.9025-0.26133-4.9011-1.0801-5.3086-1.8562-0.9225-3.374 1.142-3.959-1.5293zm25.1 0c-0.2475 0.32375-0.80719 0.73617-0.89844 1.1699-0.31875 1.4638 1.5853 1.0749 0.53906 2.6074-1.617-0.652-3.368-1.435-3.239-3.597-0.3175 0.275-0.5882 0.43914-0.7207 0.90039-0.48 1.655 0.55695 2.642 1.4395 3.2383-0.245 0.16625-0.51 0.33656-0.71875 0.53906-0.6725 0.64375-0.50758 1.5356-0.36133 2.6094-0.1175 0.03375-0.47891 0.08094-0.62891 0.17969-0.10625 0.0675-0.0098 0.39492-0.08984 0.45117 1.0688 0.1425 2.6261 0.32508 2.3398-1.1699-0.07125-0.3575-0.56586-0.73633-0.63086-1.0801-0.1125-0.585 0.18383-0.92352 0.36133-1.2598 1.4625 0.68875 3.5637 1.4485 2.6074 3.5098 0.4975-0.0625 0.31336 0.13602 0.63086-0.27148 0.91875-1.19 1.0367-2.538-0.26953-3.418-0.1775-0.11875-0.49867-0.39562-0.45117-0.35938 0.78375-0.48125 1.7016-1.6119 0.90039-2.6094-0.1375-0.1725-0.57766-0.40961-0.62891-0.63086-0.12875-0.55625 0.25711-0.46859-0.18164-0.80859zm-19.611 0.08984c-0.57375 1.5412-0.74289 3.2697 1.3496 3.1484-0.20625 1.505-0.05953 3.4369-0.26953 4.8594 0.89125-0.10375 0.965-0.69391 1.4375-1.4414-0.165-0.10125-0.26938-0.09828-0.35938-0.26953-0.24125-0.455-0.42719-2.4147-0.17969-3.1484 0.12125-0.365 0.76156-0.42977 0.53906-1.2598-0.21875-0.815-1.9243-0.20688-2.248-1.0781-0.0425-0.1075-0.26703-0.79055-0.26953-0.81055zm11.695 0.09c-0.5225 1.4088-0.75664 3.3686 1.3496 3.0586-0.22 1.0512-0.74625 6.8574 0.71875 4.1387 0.09375-0.175 0.08969-0.27297 0.17969-0.44922 0 0.0025-0.07234-0.32508-0.08984-0.36133-0.43875-0.89375-0.18203-2.2119-0.26953-3.3281 0.61625-0.23125 1.1846-0.6607 0.63086-1.4395-0.69-0.966-1.987 0.357-2.52-1.619zm-5.4883 0.26953c-0.32625 0.5225-0.28359 0.94758-0.08984 1.7988 0.4775 2.1288 2.9896 0.28445 3.5996 1.4395 0.5 0.9525 0.17969 3.1252 0.17969 4.4102 0.6625-0.175 0.72008-0.48117 1.0801-1.1699 0.23875 0 0.01-0.31023 0-0.27148-0.61125-0.8775-0.2268-4.3737-0.81055-4.8574-1.44-1.19-2.9327 0.99539-3.959-1.3496zm11.336 10.617c-0.55375 0.88625-1.3406 1.9095-0.35938 2.877 0.16375 0.16 0.62875 0.5232 0.71875 0.7207 0.25375 0.55625-0.01773 1.8259 0.54102 0.63086 1.2475-2.6775-0.5543-1.9327-0.81055-3.2402-0.0925-0.45875 0.28516-0.77203-0.08984-0.98828zm-18.983 0.269c-2.1788 2.6775 0.61203 2.2704 0.26953 4.5879 0.31125-0.22875 0.53195-0.29586 0.7207-0.63086 1.1012-1.9962-1.1002-2.1233-0.99024-3.957zm12.055 0.26953c-0.5475 1.1612-0.94898 2.5048 0.54102 3.0586-0.82125 1.49-0.75148 2.9802-0.99023 5.1289 1.6362 0 3.6938-0.11266 5.4863 0.08984 0.065-1.6025 0.58133-2.9422 0.36133-4.6797-0.42375-3.3538-2.3887-1.4166-4.8574-2.3379-0.5175-0.195-0.25976-0.99227-0.54102-1.2598zm-18.982 0.17969c-0.63 1.1412-0.84719 2.4038 0.53906 2.9688-0.95625 1.2138-0.82773 3.0227-0.99023 5.1289 1.6725-0.1325 3.7234-0.1325 5.3984 0 0.065-1.6512 0.64062-3.083 0.35937-4.9492-0.49125-3.2588-5.0116-0.53719-5.3066-3.1484zm-19.255 44.982c-0.3175 2.0475-0.90492 4.0772-1.4199 5.9922 0.29375 0.0475 0.50226 0.04125 0.79102 0.125 0.68625 0.1975 1.5239 0.75914 2.1602 0.90039 0.0475 0.0075 0.31352-0.0293 0.19726-0.06055 0.13-0.19375 0.62391-0.86484 0.75391-1.0586 0.1875-0.2825-2.7929 0.12281-2.5879-0.58594 0.43-1.4825 0.82555-3.3327 1.1855-4.7715-0.37125-0.175-0.71133-0.36976-1.0801-0.54102zm63.338 0.08984c-1.155 0.30125-2.5868 0.2875-3.0293 1.3438-1.0338 2.4688 1.8698 2.0512 3.1973 2.8438 0.135 0.0825 0.29102 0.19 0.35352 0.375 0.77 2.2938-2.416 0.97391-3.041 0.56641 0.0875 0.29 0.08719 0.42391 0.17969 0.62891 0.105 0.23375 0.28742 0.64164 0.45117 0.90039 0.2825 0.45875 1.3652 0.06781 2.0664-0.17969 0.985-0.34875 1.8766-1.3106 1.3516-2.6094-0.47875-1.1775-1.9755-0.9943-3.0605-1.5293-0.53375-0.26375-0.53711-0.81055-0.53711-0.81055 0.6625-1.855 3.2008 1.1307 2.707-0.0918-0.0725-0.17875-0.59992-1.3112-0.63867-1.4375zm-59.02 1.8008c-0.27875 1.3325-1.3913 3.9427-1.0801 5.3965 0.10125 0.48375 0.66383 0.89383 1.0801 1.0801 3.2612 1.445 3.8452-2.8809 4.4102-5.0371-0.36625-0.11-0.60273-0.15898-0.99023-0.27148-0.21125 1.595-0.48141 5.6379-2.8789 4.5879-1.2012-0.52625 0.33016-4.419 0.62891-5.3965-0.4275-0.1075-0.72242-0.21312-1.1699-0.35938zm52.451 0.53906c-0.27-0.01125-0.73148 0.26938-0.99024 0.35938 0 2.4488-0.47719 4.4035-0.89844 6.4785 0.365-0.12625 0.74992-0.25133 1.1699-0.36133 0-0.69625 0.09734-1.503 0.21484-2.1367 0.56375-0.235 1.9043-0.58789 1.9043-0.58789 0.32875 0.235 0.79133 1.0823 0.98633 1.4336 0.23375 0.42125 0.32891 0.2832 0.94141 0.0332 0.225-0.0925 0.44461-0.12719 0.63086-0.17969-0.80375-1.0238-1.7159-1.9618-2.4297-3.0605-0.30125-0.46125-1.5293-1.9785-1.5293-1.9785zm-3.1621 1.1582c-1.5075 0.635-3.0252 0.94414-4.4102 0.99414-0.02125 0.30875-0.16555 0.71875-0.18555 1.0312-0.03375 0.4225 0.18555 0.67383 0.18555 0.67383 0.43375-0.65875 0.84117-0.98375 1.7637-1.25 0.61375 1.8438 0.90391 3.4125 1.2227 5.0938 1.6125-0.53625 1.4638-0.18867 1.2188-0.70117-0.25875-0.5425-1.2758-4.7581-1.2383-4.7656 0.505-0.10375 1.5988 0.23344 1.9551 0.46094 0.05-0.04 0.27445 0.07148 0.31445 0.08398-0.14625-0.32125-0.31641-0.48086-0.28516-0.53711-0.2175-0.42875-0.34727-0.69024-0.54102-1.084zm-43.791 0.03125c-0.0275-0.1125 0.08625 0.35469 0.09375 0.39844 0.04 0.31875 0.29375 0.73312 0.4375 1.1094 0.19875 0.52875 0.39281 1.0022 0.53906 1.7109-0.92875 0.72625-1.8264 1.4509-2.8789 2.0684 0.8725 0.2875 1.2051 0.83086 1.7988-0.08789 1.5575-2.43 1.5984-0.52734 2.0684 1.3477 0.61 0.09 0.94625 0.15024 1.5312 0.27148-0.475-1.2825-1.0548-2.3391-1.2598-3.8691 0.82125-0.5825 1.6188-1.1865 2.5176-1.709-0.82375-0.1725-1.0654-0.55391-1.6191 0.08984-1.4663 1.7025-1.2302 1.3259-1.709-0.90039-0.5175-0.13-1.0533-0.29219-1.5195-0.42969zm38.293 1.2461c-0.2025 0-0.43477 0.01844-0.63477 0.02344-0.1375 0-0.55516 0.21524-0.69141 0.24024 0.4575 1.8475 0.56516 3.8955 0.87891 6.0117 0.0125 0 0.42133-0.09875 0.42383-0.09375 0.28125-0.05875 0.75664-0.25312 1.0566-0.32812-0.43875-1.7488-0.81445-3.8823-1.0332-5.8535zm-30.564 0.35352c-0.29875 1.9088-0.7393 4.1678-1.123 5.9453 1.0575 0 2.4723 0.14508 3.291 0.33008 1.06 0.23875 0.95734 0.13898 1.3398-0.69726 0.05875-0.1325 0.10594-0.23297 0.17969-0.44922-0.88875 0.35875-2.0906 0.52367-3.3281 0.35742 0.515-2.3625-0.09648-2.4547 1.9785-1.6172-0.01625-0.10375-0.08984-0.36133-0.08984-0.36133-0.0225-0.14125-0.08984-0.53281-0.08984-0.53906-0.0025-0.0025 0-0.25828 0-0.26953-0.55375 0.0825-0.9082 0.07875-1.4395 0 0.0925-0.84625 0.24906-1.9252 0.41406-1.8789 0.37875 0.10875 1.2832 0.43039 1.5645 0.61914 0.3325 0.22375 0.66164 0.50555 0.90039 0.81055-0.02-0.0825-0.08984-0.45117-0.08984-0.45117-0.05875-0.43125-0.18203-0.90227-0.26953-1.2598-1.215-0.16625-2.2995-0.28281-3.2383-0.53906zm26.146 0.25976c-0.12677-0.0049-0.26594-0.0022-0.41797 0.0098-0.865 0.065-1.7024 0.46531-2.6074 0.53906 0.07875 0.54 0.21703 1.1254 0.26953 1.6191 0.14625 1.4062 0.13266 2.8245 0.19141 4.2695 0.3825-0.045 0.92414-0.16195 1.3379-0.2207-0.13125-0.87375-0.24078-1.8537-0.26953-2.6074 0.355-0.05375 0.58328-0.0493 0.98828-0.0918 0.81875 1.3462 2.1765 2.6945 3.959 2.5195 0 0 0.06734-0.21453 0.08984-0.26953-1.2113-0.7625-2.4097-1.7512-3.1484-2.9688 0.6668-0.85078 1.509-2.7254-0.39258-2.7988zm-21.289 0.36914c-0.1175 0.28625-0.38641 0.63188-0.50391 0.92188-0.16625 0.39-0.03516 0.69922-0.03516 0.69922 0.61875-0.49 1.1096-0.67086 2.0684-0.63086 0 1.9425-0.22172 3.5238-0.44922 5.2188 1.6975 0 1.4482 0.2825 1.377-0.28125-0.07375-0.5975 0.29258-4.9171 0.33008-4.9121 0.51125 0.06 1.4434 0.72398 1.7109 1.0527 0.05875-0.02125 0.23774 0.15664 0.27148 0.18164-0.0375-0.35-0.14906-0.55781-0.10156-0.60156-0.07-0.475-0.11117-0.76226-0.16992-1.1973-1.6312 0.12625-3.168-0.05992-4.498-0.45117zm16.193 0.26953c-0.84875 0.0088-1.8027 0.27148-2.8789 0.27148 0.21375 1.9375 0.18164 3.9648 0.18164 6.0273 1.2188-0.165 2.474-0.27148 3.959-0.27148 0.5225-1.29 0.96117-1.392-0.36133-0.98828-2.3425 0.71375-2.4593 0.76109-2.4355-1.7539 2.445 0.21125 1.9239 0.48922 1.6914-1.082-0.5275 0.245-0.9068 0.31875-1.6855 0.40625-0.01625-0.19-0.08984-1.7988-0.08984-1.7988 1.355 0 1.968 0.2368 2.6992 0.81055-0.135-0.43625-0.11578-0.67758-0.26953-1.0801-0.14625-0.37625-0.2393-0.54852-0.81055-0.54102zm-9.1758 0.27148s0.16102 0.44242 0.25976 0.63867c0.68875 1.4012 1.1721 3.0243 1.8809 4.5605 0.42375 0.91625 0.59484 1.8261 1.2773 0.55859 0.37375-0.69375 0.52727-1.4763 0.79102-2.2051 0.43-1.1912 0.93648-2.3391 1.459-3.4629-0.46625 0-1.0216 0.06109-1.3516 0.08984-0.30875 1.4875-0.67047 2.7302-1.168 3.959-0.745-1.2012-1.3013-2.6462-1.7988-4.1387-0.56875 0.07625-0.78461 0.07625-1.3496 0z" transform="matrix(.8 0 0 -.8 54 529.41)" fill="#222"/><path d="m32.814 35.074c-0.4775 1.0262-0.65656 2.2057-0.53906 3.6895 1.2488-0.3125 2.8788-0.2975 4.0488 0-0.14375-3.6938 0.33398-3.1695-3.5098-3.6895zm18.895 0c-0.2675 0.9-0.41758 1.7852-0.36133 2.8789 0.01375 0.315 0.01125 0.5607 0 0.7207 1.1388-0.36875 2.9351-0.34 4.0488 0 0-3.5425-0.165-3.5996-3.6875-3.5996zm17.41 45.75c-0.0012 0.71875-0.0375 1.3274-0.1875 2.1387l1.4336-0.39844-1.2461-1.7402zm-13.703 2.541c-0.23945-0.01134-0.53609 0.01539-0.89453 0.0918 0 0 0.16258 2.1506 0.23633 2.1406 1.2753-0.18594 2.3344-2.1531 0.6582-2.2324z" transform="matrix(.8 0 0 -.8 54 529.41)" fill="#fff"/></g></g></svg>
