<svg width="202" height="161" viewBox="0 0 202 161" fill="none" xmlns="http://www.w3.org/2000/svg">
<g filter="url(#filter0_f_0_1)">
<path d="M58 103C58 78.1472 78.1472 58 103 58H144V58C144 82.8528 123.853 103 99 103H58V103Z" fill="url(#paint0_linear_0_1)" fill-opacity="0.96"/>
</g>
<g filter="url(#filter1_ddii_0_1)">
<rect x="35" y="53" width="132" height="56" rx="12" fill="#171717" shape-rendering="crispEdges"/>
<path d="M66.1404 93C65.452 93 64.8048 92.7318 64.318 92.2454C63.9658 91.8932 63.4975 91.6991 62.9992 91.6991C62.501 91.6991 62.0327 91.8932 61.6808 92.2454C61.194 92.7322 60.5465 93 59.8581 93C59.1697 93 58.5226 92.7318 58.0358 92.2454C57.6835 91.8932 57.2152 91.6991 56.717 91.6991C56.2187 91.6991 55.7504 91.8932 55.3982 92.2454C54.9114 92.7322 54.2643 93 53.5759 93C52.8874 93 52.2403 92.7318 51.7535 92.2454C50.7488 91.2404 50.7488 89.6054 51.7535 88.6008C52.1061 88.2486 52.2998 87.7803 52.2998 87.282C52.2998 86.7838 52.1057 86.3155 51.7535 85.9633C50.7488 84.9587 50.7488 83.3237 51.7535 82.3187C52.1061 81.9665 52.2998 81.4982 52.2998 81C52.2998 80.5018 52.1057 80.0338 51.7535 79.6816C50.7488 78.6766 50.7488 77.0417 51.7535 76.037C52.2403 75.5502 52.8874 75.282 53.5762 75.282C54.265 75.282 54.9117 75.5502 55.3986 76.037C55.7508 76.3892 56.2191 76.583 56.7173 76.583C57.2156 76.583 57.6839 76.3889 58.0361 76.037C58.763 75.3098 58.763 74.1268 58.0361 73.3996C57.5493 72.9128 57.2811 72.2657 57.2811 71.5773C57.2811 70.8889 57.5493 70.2418 58.0361 69.755C58.5226 69.2682 59.17 69 59.8585 69C60.5469 69 61.194 69.2682 61.6808 69.7546C62.033 70.1068 62.5014 70.3009 62.9996 70.3009C63.4979 70.3009 63.9661 70.1068 64.3184 69.7546C64.8052 69.2678 65.4523 69 66.1407 69C66.8291 69 67.4762 69.2682 67.9631 69.7546C68.3153 70.1068 68.7836 70.3009 69.2819 70.3009C69.7801 70.3009 70.2484 70.1068 70.6003 69.7546C71.0871 69.2678 71.7346 69 72.4226 69C73.1107 69 73.7582 69.2682 74.245 69.7546C75.25 70.7596 75.25 72.3946 74.245 73.3992C73.8928 73.7514 73.6987 74.2197 73.6987 74.718C73.6987 75.2162 73.8928 75.6845 74.245 76.0367C74.7318 76.5231 75 77.1706 75 77.859C75 78.5474 74.7318 79.1944 74.245 79.6813C73.8928 80.0335 73.6987 80.5018 73.6987 80.9996C73.6987 81.4975 73.8928 81.9658 74.245 82.318C74.7318 82.8048 75 83.4523 75 84.1407C75 84.8291 74.7318 85.4761 74.245 85.963C73.7582 86.4498 73.1111 86.718 72.4226 86.718C71.7342 86.718 71.0871 86.4498 70.6003 85.963C70.2481 85.6108 69.7797 85.417 69.2819 85.417C68.784 85.417 68.3153 85.6111 67.9627 85.963C67.2359 86.6902 67.2359 87.8732 67.9627 88.6004C68.4496 89.0872 68.7177 89.7343 68.7177 90.4227C68.7177 91.1111 68.4496 91.7582 67.9627 92.245C67.4759 92.7319 66.8288 92.9996 66.1404 92.9996V93ZM59.8585 87.8458C60.5469 87.8458 61.194 88.114 61.6808 88.6004C62.033 88.9526 62.5014 89.1467 62.9996 89.1467C63.4979 89.1467 63.9661 88.9526 64.3184 88.6004C65.0452 87.8736 65.0452 86.6902 64.3184 85.963C63.8315 85.4765 63.5634 84.8294 63.5634 84.1407C63.5634 83.4519 63.8315 82.8052 64.3184 82.318C64.8052 81.8312 65.4523 81.5634 66.1407 81.5634C66.8291 81.5634 67.4762 81.8316 67.9631 82.318C68.3153 82.6702 68.7836 82.8643 69.2819 82.8643C69.7801 82.8643 70.2484 82.6702 70.6003 82.318C70.9525 81.9658 71.1466 81.4975 71.1466 80.9993C71.1466 80.5011 70.9525 80.0331 70.6003 79.6809C69.5956 78.6759 69.5956 77.041 70.6003 76.0363C70.9525 75.6841 71.1466 75.2158 71.1466 74.7176C71.1466 74.2194 70.9525 73.7511 70.6003 73.3992C70.2481 73.0467 69.7797 72.8529 69.2815 72.8529C68.7832 72.8529 68.315 73.047 67.9627 73.3992C67.4759 73.886 66.8288 74.1539 66.1404 74.1539C65.452 74.1539 64.8048 73.8857 64.318 73.3992C63.9658 73.047 63.4975 72.8529 62.9992 72.8529C62.501 72.8529 62.0327 73.047 61.6808 73.3992C61.3282 73.7514 61.1345 74.2197 61.1345 74.718C61.1345 75.2162 61.3286 75.6845 61.6808 76.0367C62.6855 77.0413 62.6855 78.6763 61.6808 79.6813C61.194 80.1681 60.5465 80.4359 59.8581 80.4359C59.1697 80.4359 58.5226 80.1677 58.0358 79.6813C57.6835 79.3291 57.2152 79.135 56.717 79.135C56.2187 79.135 55.7504 79.3291 55.3982 79.6813C55.046 80.0335 54.8523 80.5018 54.8523 80.9996C54.8523 81.4975 55.0463 81.9662 55.3982 82.318C55.885 82.8048 56.1532 83.4519 56.1532 84.1407C56.1532 84.8294 55.885 85.4761 55.3982 85.963C54.6713 86.6902 54.6713 87.8732 55.3982 88.6004C55.7504 88.9526 56.2187 89.1467 56.717 89.1467C57.2152 89.1467 57.6835 88.9526 58.0358 88.6004C58.5226 88.1136 59.1697 87.8458 59.8581 87.8458H59.8585Z" fill="#FAFAFA"/>
<path d="M86.968 89.5V72.7H99.928V75.796H90.736V80.092H98.104V83.188H90.736V89.5H86.968ZM104.997 89.884C104.245 89.884 103.589 89.708 103.029 89.356C102.469 89.004 102.037 88.508 101.733 87.868C101.429 87.212 101.277 86.452 101.277 85.588V77.5H104.781V84.796C104.781 85.548 104.933 86.108 105.237 86.476C105.557 86.828 105.997 87.004 106.557 87.004C107.357 87.004 107.941 86.684 108.309 86.044C108.693 85.388 108.885 84.532 108.885 83.476V77.5H112.413V89.5H109.149C109.165 89.116 109.269 88.684 109.461 88.204C109.669 87.724 109.941 87.236 110.277 86.74H108.789C108.469 87.684 107.989 88.444 107.349 89.02C106.725 89.596 105.941 89.884 104.997 89.884ZM120.328 89.836C119.352 89.836 118.464 89.692 117.664 89.404C116.864 89.116 116.2 88.716 115.672 88.204C115.144 87.676 114.8 87.068 114.64 86.38L117.832 85.42C117.864 85.644 117.952 85.9 118.096 86.188C118.256 86.476 118.528 86.756 118.912 87.028C119.296 87.284 119.832 87.412 120.52 87.412C121.08 87.412 121.52 87.3 121.84 87.076C122.16 86.852 122.32 86.572 122.32 86.236C122.32 85.916 122.208 85.652 121.984 85.444C121.776 85.236 121.392 85.076 120.832 84.964L119.152 84.652C118.24 84.46 117.488 84.228 116.896 83.956C116.32 83.668 115.88 83.284 115.576 82.804C115.272 82.324 115.12 81.7 115.12 80.932C115.12 80.18 115.328 79.516 115.744 78.94C116.176 78.364 116.776 77.924 117.544 77.62C118.328 77.3 119.256 77.14 120.328 77.14C121.72 77.14 122.84 77.42 123.688 77.98C124.552 78.524 125.144 79.172 125.464 79.924L122.536 81.172C122.408 80.836 122.232 80.548 122.008 80.308C121.8 80.068 121.536 79.876 121.216 79.732C120.896 79.588 120.544 79.516 120.16 79.516C119.616 79.516 119.2 79.62 118.912 79.828C118.624 80.036 118.48 80.308 118.48 80.644C118.48 80.964 118.592 81.212 118.816 81.388C119.056 81.548 119.496 81.684 120.136 81.796L121.792 82.108C123.056 82.348 124.064 82.772 124.816 83.38C125.568 83.988 125.944 84.82 125.944 85.876C125.944 86.676 125.72 87.372 125.272 87.964C124.84 88.556 124.2 89.02 123.352 89.356C122.504 89.676 121.496 89.836 120.328 89.836ZM133.632 89.884C132.4 89.884 131.32 89.628 130.392 89.116C129.464 88.588 128.744 87.844 128.232 86.884C127.736 85.908 127.488 84.772 127.488 83.476C127.488 82.244 127.752 81.148 128.28 80.188C128.808 79.228 129.536 78.484 130.464 77.956C131.392 77.412 132.44 77.14 133.608 77.14C134.936 77.14 136.056 77.46 136.968 78.1C137.896 78.724 138.568 79.58 138.984 80.668C139.416 81.756 139.576 82.972 139.464 84.316H130.992C131.024 85.004 131.152 85.564 131.376 85.996C131.616 86.428 131.92 86.748 132.288 86.956C132.672 87.148 133.12 87.244 133.632 87.244C134.32 87.244 134.872 87.068 135.288 86.716C135.72 86.348 136.08 85.844 136.368 85.204L139.512 86.38C139.24 86.988 138.872 87.556 138.408 88.084C137.944 88.596 137.312 89.028 136.512 89.38C135.728 89.716 134.768 89.884 133.632 89.884ZM136.008 81.916C135.96 81.436 135.832 81.028 135.624 80.692C135.432 80.34 135.16 80.076 134.808 79.9C134.472 79.708 134.072 79.612 133.608 79.612C132.936 79.612 132.376 79.812 131.928 80.212C131.496 80.612 131.224 81.18 131.112 81.916H136.008ZM141.991 89.5V77.5H145.135C145.135 78.108 145.039 78.748 144.847 79.42C144.655 80.092 144.415 80.668 144.127 81.148H145.591C145.863 79.836 146.295 78.86 146.887 78.22C147.495 77.58 148.399 77.26 149.599 77.26C149.967 77.26 150.215 77.268 150.343 77.284V80.86C149.863 80.812 149.415 80.788 148.999 80.788C148.167 80.788 147.495 80.916 146.983 81.172C146.487 81.412 146.111 81.836 145.855 82.444C145.615 83.036 145.495 83.86 145.495 84.916V89.5H141.991Z" fill="white"/>
</g>
<defs>
<filter id="filter0_f_0_1" x="0.799999" y="0.799999" width="200.4" height="159.4" filterUnits="userSpaceOnUse" color-interpolation-filters="sRGB">
<feFlood flood-opacity="0" result="BackgroundImageFix"/>
<feBlend mode="normal" in="SourceGraphic" in2="BackgroundImageFix" result="shape"/>
<feGaussianBlur stdDeviation="28.6" result="effect1_foregroundBlur_0_1"/>
</filter>
<filter id="filter1_ddii_0_1" x="23" y="41" width="156" height="80" filterUnits="userSpaceOnUse" color-interpolation-filters="sRGB">
<feFlood flood-opacity="0" result="BackgroundImageFix"/>
<feColorMatrix in="SourceAlpha" type="matrix" values="0 0 0 0 0 0 0 0 0 0 0 0 0 0 0 0 0 0 127 0" result="hardAlpha"/>
<feOffset/>
<feGaussianBlur stdDeviation="2"/>
<feComposite in2="hardAlpha" operator="out"/>
<feColorMatrix type="matrix" values="0 0 0 0 0 0 0 0 0 0 0 0 0 0 0 0 0 0 0.5 0"/>
<feBlend mode="normal" in2="BackgroundImageFix" result="effect1_dropShadow_0_1"/>
<feColorMatrix in="SourceAlpha" type="matrix" values="0 0 0 0 0 0 0 0 0 0 0 0 0 0 0 0 0 0 127 0" result="hardAlpha"/>
<feOffset dy="1"/>
<feGaussianBlur stdDeviation="1.5"/>
<feComposite in2="hardAlpha" operator="out"/>
<feColorMatrix type="matrix" values="0 0 0 0 0 0 0 0 0 0 0 0 0 0 0 0 0 0 0.4 0"/>
<feBlend mode="normal" in2="effect1_dropShadow_0_1" result="effect2_dropShadow_0_1"/>
<feBlend mode="normal" in="SourceGraphic" in2="effect2_dropShadow_0_1" result="shape"/>
<feColorMatrix in="SourceAlpha" type="matrix" values="0 0 0 0 0 0 0 0 0 0 0 0 0 0 0 0 0 0 127 0" result="hardAlpha"/>
<feOffset dy="1"/>
<feComposite in2="hardAlpha" operator="arithmetic" k2="-1" k3="1"/>
<feColorMatrix type="matrix" values="0 0 0 0 1 0 0 0 0 1 0 0 0 0 1 0 0 0 0.1 0"/>
<feBlend mode="normal" in2="shape" result="effect3_innerShadow_0_1"/>
<feColorMatrix in="SourceAlpha" type="matrix" values="0 0 0 0 0 0 0 0 0 0 0 0 0 0 0 0 0 0 127 0" result="hardAlpha"/>
<feOffset/>
<feGaussianBlur stdDeviation="1"/>
<feComposite in2="hardAlpha" operator="arithmetic" k2="-1" k3="1"/>
<feColorMatrix type="matrix" values="0 0 0 0 1 0 0 0 0 1 0 0 0 0 1 0 0 0 0.3 0"/>
<feBlend mode="normal" in2="effect3_innerShadow_0_1" result="effect4_innerShadow_0_1"/>
</filter>
<linearGradient id="paint0_linear_0_1" x1="101" y1="58" x2="101" y2="103" gradientUnits="userSpaceOnUse">
<stop stop-color="#7E0FFF"/>
<stop offset="1" stop-color="#0FFFC1"/>
</linearGradient>
</defs>
</svg>
