<?xml version="1.0" encoding="UTF-8"?>
<svg xmlns="http://www.w3.org/2000/svg" viewBox="414.15 98.66 1092.27 109.72" fill="#fff">
<g>
    <path d="M509.94,116.5h-61.41c-2.16,0-3.91-1.75-3.91-3.91s1.75-3.91,3.91-3.91h61.41c2.16,0,3.91,1.75,3.91,3.91s-1.75,3.91-3.91,3.91Z" />
    <path d="M509.94,157.44h-61.41c-2.16,0-3.91-1.75-3.91-3.91s1.75-3.91,3.91-3.91h61.41c2.16,0,3.91,1.75,3.91,3.91s-1.75,3.91-3.91,3.91Z" />
    <path d="M428.06,198.38c-2.16,0-3.91-1.75-3.91-3.91v-81.88c0-2.16,1.75-3.91,3.91-3.91s3.91,1.75,3.91,3.91v81.88c0,2.16-1.75,3.91-3.91,3.91Z" />
    <path d="M550.88,198.38c-2.16,0-3.91-1.75-3.91-3.91v-40.94c0-2.16,1.75-3.91,3.91-3.91s3.91,1.75,3.91,3.91v40.94c0,2.16-1.75,3.91-3.91,3.91Z" />
    <path d="M632.76,198.38c-2.16,0-3.91-1.75-3.91-3.91v-40.94c0-2.16,1.75-3.91,3.91-3.91s3.91,1.75,3.91,3.91v40.94c0,2.16-1.75,3.91-3.91,3.91Z" />
    <path d="M612.29,157.44h-40.94c-2.16,0-3.91-1.75-3.91-3.91s1.75-3.91,3.91-3.91h40.94c2.16,0,3.91,1.75,3.91,3.91s-1.75,3.91-3.91,3.91Z" />
    <path d="M673.7,157.44c-2.16,0-3.91-1.75-3.91-3.91v-40.94c0-2.16,1.75-3.91,3.91-3.91s3.91,1.75,3.91,3.91v40.94c0,2.16-1.75,3.91-3.91,3.91Z" />
    <path d="M755.58,198.38h-40.94c-2.16,0-3.91-1.75-3.91-3.91s1.75-3.91,3.91-3.91h40.94c2.16,0,3.91,1.75,3.91,3.91s-1.75,3.91-3.91,3.91Z" />
    <path d="M857.93,157.44h-40.94c-2.16,0-3.91-1.75-3.91-3.91s1.75-3.91,3.91-3.91h40.94c2.16,0,3.91,1.75,3.91,3.91s-1.75,3.91-3.91,3.91Z" />
    <path d="M878.4,116.5h-40.94c-2.16,0-3.91-1.75-3.91-3.91s1.75-3.91,3.91-3.91h40.94c2.16,0,3.91,1.75,3.91,3.91s-1.75,3.91-3.91,3.91Z" />
    <path d="M837.46,198.38h-40.94c-2.16,0-3.91-1.75-3.91-3.91s1.75-3.91,3.91-3.91h40.94c2.16,0,3.91,1.75,3.91,3.91s-1.75,3.91-3.91,3.91Z" />
    <path d="M1001.22,116.5h-61.41c-2.16,0-3.91-1.75-3.91-3.91s1.75-3.91,3.91-3.91h61.41c2.16,0,3.91,1.75,3.91,3.91s-1.75,3.91-3.91,3.91Z" />
    <path d="M1001.22,157.44h-61.41c-2.16,0-3.91-1.75-3.91-3.91s1.75-3.91,3.91-3.91h61.41c2.16,0,3.91,1.75,3.91,3.91s-1.75,3.91-3.91,3.91Z" />
    <path d="M1001.22,198.38h-61.41c-2.16,0-3.91-1.75-3.91-3.91s1.75-3.91,3.91-3.91h61.41c2.16,0,3.91,1.75,3.91,3.91s-1.75,3.91-3.91,3.91Z" />
    <path d="M919.34,198.38c-2.16,0-3.91-1.75-3.91-3.91v-81.88c0-2.16,1.75-3.91,3.91-3.91s3.91,1.75,3.91,3.91v81.88c0,2.16-1.75,3.91-3.91,3.91Z" />
    <path d="M1349.21,116.5h-40.94c-2.16,0-3.91-1.75-3.91-3.91s1.75-3.91,3.91-3.91h40.94c2.16,0,3.91,1.75,3.91,3.91s-1.75,3.91-3.91,3.91Z" />
    <path d="M1042.16,157.44c-2.16,0-3.91-1.75-3.91-3.91v-40.94c0-2.16,1.75-3.91,3.91-3.91s3.91,1.75,3.91,3.91v40.94c0,2.16-1.75,3.91-3.91,3.91Z" />
    <path d="M1124.04,157.44c-2.16,0-3.91-1.75-3.91-3.91v-40.94c0-2.16,1.75-3.91,3.91-3.91s3.91,1.75,3.91,3.91v40.94c0,2.16-1.75,3.91-3.91,3.91Z" />
    <path d="M1042.16,198.38c-1,0-2-.38-2.77-1.15-1.53-1.53-1.53-4.01,0-5.54l20.47-20.47c1.53-1.53,4.01-1.53,5.54,0,1.53,1.53,1.53,4.01,0,5.54l-20.47,20.47c-.76.76-1.77,1.15-2.77,1.15Z" />
    <path d="M1124.04,198.38c-1,0-2-.38-2.77-1.15l-40.94-40.94c-1.53-1.53-1.53-4.01,0-5.54,1.53-1.53,4.01-1.53,5.54,0l40.94,40.94c1.53,1.53,1.53,4.01,0,5.54-.76.76-1.77,1.15-2.77,1.15Z" />
    <path d="M1164.98,136.97c-1,0-2-.38-2.77-1.15-1.53-1.53-1.53-4.01,0-5.54l20.47-20.47c1.53-1.53,4.01-1.53,5.54,0,1.53,1.53,1.53,4.01,0,5.54l-20.47,20.47c-.76.76-1.77,1.15-2.77,1.15Z" />
    <path d="M1185.45,198.38c-1,0-2-.38-2.77-1.15l-20.47-20.47c-1.53-1.53-1.53-4.01,0-5.54,1.53-1.53,4.01-1.53,5.54,0l20.47,20.47c1.53,1.53,1.53,4.01,0,5.54-.76.76-1.77,1.15-2.77,1.15Z" />
    <path d="M1246.86,136.97c-1,0-2-.38-2.77-1.15l-20.47-20.47c-1.53-1.53-1.53-4.01,0-5.54,1.53-1.53,4.01-1.53,5.54,0l20.47,20.47c1.53,1.53,1.53,4.01,0,5.54-.76.76-1.77,1.15-2.77,1.15Z" />
    <path d="M1226.39,198.38c-1,0-2-.38-2.77-1.15-1.53-1.53-1.53-4.01,0-5.54l20.47-20.47c1.53-1.53,4.01-1.53,5.54,0,1.53,1.53,1.53,4.01,0,5.54l-20.47,20.47c-.76.76-1.77,1.15-2.77,1.15Z" />
    <path d="M1287.8,198.38c-2.16,0-3.91-1.75-3.91-3.91v-81.88c0-2.16,1.75-3.91,3.91-3.91s3.91,1.75,3.91,3.91v81.88c0,2.16-1.75,3.91-3.91,3.91Z" />
    <path d="M1369.68,136.97c-2.16,0-3.91-1.75-3.91-3.91v-20.47c0-2.16,1.75-3.91,3.91-3.91s3.91,1.75,3.91,3.91v20.47c0,2.16-1.75,3.91-3.91,3.91Z" />
    <path d="M1369.68,157.44h-61.41c-2.16,0-3.91-1.75-3.91-3.91s1.75-3.91,3.91-3.91h61.41c2.16,0,3.91,1.75,3.91,3.91s-1.75,3.91-3.91,3.91Z" />
    <path d="M1369.68,198.38c-1,0-2-.38-2.77-1.15l-20.47-20.47c-1.53-1.53-1.53-4.01,0-5.54,1.53-1.53,4.01-1.53,5.54,0l20.47,20.47c1.53,1.53,1.53,4.01,0,5.54-.76.76-1.77,1.15-2.77,1.15Z" />
    <path d="M1410.62,198.38c-2.16,0-3.91-1.75-3.91-3.91v-81.88c0-2.16,1.75-3.91,3.91-3.91s3.91,1.75,3.91,3.91v81.88c0,2.16-1.75,3.91-3.91,3.91Z" />
    <path d="M1431.09,177.91c-1,0-2-.38-2.77-1.15-1.53-1.53-1.53-4.01,0-5.54l61.41-61.41c1.53-1.53,4.01-1.53,5.54,0,1.53,1.53,1.53,4.01,0,5.54l-61.41,61.41c-.76.76-1.77,1.15-2.77,1.15Z" />
    <path d="M1492.5,198.38c-1,0-2-.38-2.77-1.15l-20.47-20.47c-1.53-1.53-1.53-4.01,0-5.54,1.53-1.53,4.01-1.53,5.54,0l20.47,20.47c1.53,1.53,1.53,4.01,0,5.54-.76.76-1.77,1.15-2.77,1.15Z" />
    <path d="M796.52,136.97c-1,0-2-.38-2.77-1.15-1.53-1.53-1.53-4.01,0-5.54l20.47-20.47c1.53-1.53,4.01-1.53,5.54,0,1.53,1.53,1.53,4.01,0,5.54l-20.47,20.47c-.76.76-1.77,1.15-2.77,1.15Z" />
    <path d="M857.93,198.38c-1,0-2-.38-2.77-1.15-1.53-1.53-1.53-4.01,0-5.54l20.47-20.47c1.53-1.53,4.01-1.53,5.54,0,1.53,1.53,1.53,4.01,0,5.54l-20.47,20.47c-.76.76-1.77,1.15-2.77,1.15Z" />
    <path d="M694.17,198.38c-1,0-2-.38-2.77-1.15l-20.47-20.47c-1.53-1.53-1.53-4.01,0-5.54,1.53-1.53,4.01-1.53,5.54,0l20.47,20.47c1.53,1.53,1.53,4.01,0,5.54-.76.76-1.77,1.15-2.77,1.15Z" />
    <path d="M550.88,136.97c-1,0-2-.38-2.77-1.15-1.53-1.53-1.53-4.01,0-5.54l20.47-20.47c1.53-1.53,4.01-1.53,5.54,0,1.53,1.53,1.53,4.01,0,5.54l-20.47,20.47c-.76.76-1.77,1.15-2.77,1.15Z" />
    <path d="M632.76,136.97c-1,0-2-.38-2.77-1.15l-20.47-20.47c-1.53-1.53-1.53-4.01,0-5.54,1.53-1.53,4.01-1.53,5.54,0l20.47,20.47c1.53,1.53,1.53,4.01,0,5.54-.76.76-1.77,1.15-2.77,1.15Z" />
  </g>
  
</svg>