<?xml version="1.0" encoding="UTF-8"?>
<svg id="Layer_1" data-name="Layer 1" xmlns="http://www.w3.org/2000/svg" viewBox="0 0 1920 1080">
  <defs>
    <style>
      .cls-1 {
        fill: #fff;
      }
    </style>
  </defs>
  <g>
    <path d="M1125.07,367.19c-.76.76-1.77,1.15-2.77,1.15-.94,0-1.88-.34-2.63-1.01-1.67-1.52-1.59-4.22,0-5.82l14.74-14.74c2.44-2.44.79-6.71-2.65-6.73-.03,0-.05,0-.08,0h-309.71s-.05,0-.08,0c-3.45.02-5.09,4.29-2.65,6.73l14.74,14.74c1.6,1.6,1.68,4.3,0,5.82-.74.68-1.69,1.01-2.63,1.01-1,0-2-.38-2.77-1.15l-14.89-14.89c-2.44-2.44-6.71-.79-6.73,2.65,0,.03,0,.05,0,.08v179.71s0,.05,0,.08c.02,3.45,4.29,5.09,6.73,2.65l14.82-14.82c1.32-1.32,3.42-1.62,4.97-.59,2.14,1.42,2.35,4.34.64,6.06l-14.89,14.89c-2.44,2.44-.79,6.71,2.65,6.73.03,0,.05,0,.08,0h309.71s.05,0,.08,0c3.45-.02,5.09-4.29,2.65-6.73l-14.73-14.73c-1.5-1.5-1.72-3.97-.3-5.54,1.51-1.68,4.1-1.73,5.68-.15l14.89,14.89c2.44,2.44,6.71.79,6.73-2.65,0-.03,0-.05,0-.08v-179.71s0-.05,0-.08c-.02-3.45-4.29-5.09-6.73-2.65l-14.89,14.89Z"/>
    <g>
      <g>
        <path class="cls-1" d="M956.36,407.86h-61.41c-2.16,0-3.91-1.75-3.91-3.91s1.75-3.91,3.91-3.91h61.41c2.16,0,3.91,1.75,3.91,3.91s-1.75,3.91-3.91,3.91Z"/>
        <path class="cls-1" d="M956.36,448.8h-61.41c-2.16,0-3.91-1.75-3.91-3.91s1.75-3.91,3.91-3.91h61.41c2.16,0,3.91,1.75,3.91,3.91s-1.75,3.91-3.91,3.91Z"/>
        <path class="cls-1" d="M874.48,489.74c-2.16,0-3.91-1.75-3.91-3.91v-81.88c0-2.16,1.75-3.91,3.91-3.91s3.91,1.75,3.91,3.91v81.88c0,2.16-1.75,3.91-3.91,3.91Z"/>
      </g>
      <g>
        <path class="cls-1" d="M997.3,448.8c-2.16,0-3.91-1.75-3.91-3.91v-40.94c0-2.16,1.75-3.91,3.91-3.91s3.91,1.75,3.91,3.91v40.94c0,2.16-1.75,3.91-3.91,3.91Z"/>
        <path class="cls-1" d="M1079.18,448.8c-2.16,0-3.91-1.75-3.91-3.91v-40.94c0-2.16,1.75-3.91,3.91-3.91s3.91,1.75,3.91,3.91v40.94c0,2.16-1.75,3.91-3.91,3.91Z"/>
        <path class="cls-1" d="M997.3,489.74c-1,0-2-.38-2.77-1.15-1.53-1.53-1.53-4.01,0-5.54l20.47-20.47c1.53-1.53,4.01-1.53,5.54,0,1.53,1.53,1.53,4.01,0,5.54l-20.47,20.47c-.76.76-1.77,1.15-2.77,1.15Z"/>
        <path class="cls-1" d="M1079.18,489.74c-1,0-2-.38-2.77-1.15l-40.94-40.94c-1.53-1.53-1.53-4.01,0-5.54,1.53-1.53,4.01-1.53,5.54,0l40.94,40.94c1.53,1.53,1.53,4.01,0,5.54-.76.76-1.77,1.15-2.77,1.15Z"/>
      </g>
    </g>
  </g>
  <g>
    <path d="M509.94,116.5h-61.41c-2.16,0-3.91-1.75-3.91-3.91s1.75-3.91,3.91-3.91h61.41c2.16,0,3.91,1.75,3.91,3.91s-1.75,3.91-3.91,3.91Z"/>
    <path d="M509.94,157.44h-61.41c-2.16,0-3.91-1.75-3.91-3.91s1.75-3.91,3.91-3.91h61.41c2.16,0,3.91,1.75,3.91,3.91s-1.75,3.91-3.91,3.91Z"/>
    <path d="M428.06,198.38c-2.16,0-3.91-1.75-3.91-3.91v-81.88c0-2.16,1.75-3.91,3.91-3.91s3.91,1.75,3.91,3.91v81.88c0,2.16-1.75,3.91-3.91,3.91Z"/>
    <path d="M550.88,198.38c-2.16,0-3.91-1.75-3.91-3.91v-40.94c0-2.16,1.75-3.91,3.91-3.91s3.91,1.75,3.91,3.91v40.94c0,2.16-1.75,3.91-3.91,3.91Z"/>
    <path d="M632.76,198.38c-2.16,0-3.91-1.75-3.91-3.91v-40.94c0-2.16,1.75-3.91,3.91-3.91s3.91,1.75,3.91,3.91v40.94c0,2.16-1.75,3.91-3.91,3.91Z"/>
    <path d="M612.29,157.44h-40.94c-2.16,0-3.91-1.75-3.91-3.91s1.75-3.91,3.91-3.91h40.94c2.16,0,3.91,1.75,3.91,3.91s-1.75,3.91-3.91,3.91Z"/>
    <path d="M673.7,157.44c-2.16,0-3.91-1.75-3.91-3.91v-40.94c0-2.16,1.75-3.91,3.91-3.91s3.91,1.75,3.91,3.91v40.94c0,2.16-1.75,3.91-3.91,3.91Z"/>
    <path d="M755.58,198.38h-40.94c-2.16,0-3.91-1.75-3.91-3.91s1.75-3.91,3.91-3.91h40.94c2.16,0,3.91,1.75,3.91,3.91s-1.75,3.91-3.91,3.91Z"/>
    <path d="M857.93,157.44h-40.94c-2.16,0-3.91-1.75-3.91-3.91s1.75-3.91,3.91-3.91h40.94c2.16,0,3.91,1.75,3.91,3.91s-1.75,3.91-3.91,3.91Z"/>
    <path d="M878.4,116.5h-40.94c-2.16,0-3.91-1.75-3.91-3.91s1.75-3.91,3.91-3.91h40.94c2.16,0,3.91,1.75,3.91,3.91s-1.75,3.91-3.91,3.91Z"/>
    <path d="M837.46,198.38h-40.94c-2.16,0-3.91-1.75-3.91-3.91s1.75-3.91,3.91-3.91h40.94c2.16,0,3.91,1.75,3.91,3.91s-1.75,3.91-3.91,3.91Z"/>
    <path d="M1001.22,116.5h-61.41c-2.16,0-3.91-1.75-3.91-3.91s1.75-3.91,3.91-3.91h61.41c2.16,0,3.91,1.75,3.91,3.91s-1.75,3.91-3.91,3.91Z"/>
    <path d="M1001.22,157.44h-61.41c-2.16,0-3.91-1.75-3.91-3.91s1.75-3.91,3.91-3.91h61.41c2.16,0,3.91,1.75,3.91,3.91s-1.75,3.91-3.91,3.91Z"/>
    <path d="M1001.22,198.38h-61.41c-2.16,0-3.91-1.75-3.91-3.91s1.75-3.91,3.91-3.91h61.41c2.16,0,3.91,1.75,3.91,3.91s-1.75,3.91-3.91,3.91Z"/>
    <path d="M919.34,198.38c-2.16,0-3.91-1.75-3.91-3.91v-81.88c0-2.16,1.75-3.91,3.91-3.91s3.91,1.75,3.91,3.91v81.88c0,2.16-1.75,3.91-3.91,3.91Z"/>
    <path d="M1349.21,116.5h-40.94c-2.16,0-3.91-1.75-3.91-3.91s1.75-3.91,3.91-3.91h40.94c2.16,0,3.91,1.75,3.91,3.91s-1.75,3.91-3.91,3.91Z"/>
    <path d="M1042.16,157.44c-2.16,0-3.91-1.75-3.91-3.91v-40.94c0-2.16,1.75-3.91,3.91-3.91s3.91,1.75,3.91,3.91v40.94c0,2.16-1.75,3.91-3.91,3.91Z"/>
    <path d="M1124.04,157.44c-2.16,0-3.91-1.75-3.91-3.91v-40.94c0-2.16,1.75-3.91,3.91-3.91s3.91,1.75,3.91,3.91v40.94c0,2.16-1.75,3.91-3.91,3.91Z"/>
    <path d="M1042.16,198.38c-1,0-2-.38-2.77-1.15-1.53-1.53-1.53-4.01,0-5.54l20.47-20.47c1.53-1.53,4.01-1.53,5.54,0,1.53,1.53,1.53,4.01,0,5.54l-20.47,20.47c-.76.76-1.77,1.15-2.77,1.15Z"/>
    <path d="M1124.04,198.38c-1,0-2-.38-2.77-1.15l-40.94-40.94c-1.53-1.53-1.53-4.01,0-5.54,1.53-1.53,4.01-1.53,5.54,0l40.94,40.94c1.53,1.53,1.53,4.01,0,5.54-.76.76-1.77,1.15-2.77,1.15Z"/>
    <path d="M1164.98,136.97c-1,0-2-.38-2.77-1.15-1.53-1.53-1.53-4.01,0-5.54l20.47-20.47c1.53-1.53,4.01-1.53,5.54,0,1.53,1.53,1.53,4.01,0,5.54l-20.47,20.47c-.76.76-1.77,1.15-2.77,1.15Z"/>
    <path d="M1185.45,198.38c-1,0-2-.38-2.77-1.15l-20.47-20.47c-1.53-1.53-1.53-4.01,0-5.54,1.53-1.53,4.01-1.53,5.54,0l20.47,20.47c1.53,1.53,1.53,4.01,0,5.54-.76.76-1.77,1.15-2.77,1.15Z"/>
    <path d="M1246.86,136.97c-1,0-2-.38-2.77-1.15l-20.47-20.47c-1.53-1.53-1.53-4.01,0-5.54,1.53-1.53,4.01-1.53,5.54,0l20.47,20.47c1.53,1.53,1.53,4.01,0,5.54-.76.76-1.77,1.15-2.77,1.15Z"/>
    <path d="M1226.39,198.38c-1,0-2-.38-2.77-1.15-1.53-1.53-1.53-4.01,0-5.54l20.47-20.47c1.53-1.53,4.01-1.53,5.54,0,1.53,1.53,1.53,4.01,0,5.54l-20.47,20.47c-.76.76-1.77,1.15-2.77,1.15Z"/>
    <path d="M1287.8,198.38c-2.16,0-3.91-1.75-3.91-3.91v-81.88c0-2.16,1.75-3.91,3.91-3.91s3.91,1.75,3.91,3.91v81.88c0,2.16-1.75,3.91-3.91,3.91Z"/>
    <path d="M1369.68,136.97c-2.16,0-3.91-1.75-3.91-3.91v-20.47c0-2.16,1.75-3.91,3.91-3.91s3.91,1.75,3.91,3.91v20.47c0,2.16-1.75,3.91-3.91,3.91Z"/>
    <path d="M1369.68,157.44h-61.41c-2.16,0-3.91-1.75-3.91-3.91s1.75-3.91,3.91-3.91h61.41c2.16,0,3.91,1.75,3.91,3.91s-1.75,3.91-3.91,3.91Z"/>
    <path d="M1369.68,198.38c-1,0-2-.38-2.77-1.15l-20.47-20.47c-1.53-1.53-1.53-4.01,0-5.54,1.53-1.53,4.01-1.53,5.54,0l20.47,20.47c1.53,1.53,1.53,4.01,0,5.54-.76.76-1.77,1.15-2.77,1.15Z"/>
    <path d="M1410.62,198.38c-2.16,0-3.91-1.75-3.91-3.91v-81.88c0-2.16,1.75-3.91,3.91-3.91s3.91,1.75,3.91,3.91v81.88c0,2.16-1.75,3.91-3.91,3.91Z"/>
    <path d="M1431.09,177.91c-1,0-2-.38-2.77-1.15-1.53-1.53-1.53-4.01,0-5.54l61.41-61.41c1.53-1.53,4.01-1.53,5.54,0,1.53,1.53,1.53,4.01,0,5.54l-61.41,61.41c-.76.76-1.77,1.15-2.77,1.15Z"/>
    <path d="M1492.5,198.38c-1,0-2-.38-2.77-1.15l-20.47-20.47c-1.53-1.53-1.53-4.01,0-5.54,1.53-1.53,4.01-1.53,5.54,0l20.47,20.47c1.53,1.53,1.53,4.01,0,5.54-.76.76-1.77,1.15-2.77,1.15Z"/>
    <path d="M796.52,136.97c-1,0-2-.38-2.77-1.15-1.53-1.53-1.53-4.01,0-5.54l20.47-20.47c1.53-1.53,4.01-1.53,5.54,0,1.53,1.53,1.53,4.01,0,5.54l-20.47,20.47c-.76.76-1.77,1.15-2.77,1.15Z"/>
    <path d="M857.93,198.38c-1,0-2-.38-2.77-1.15-1.53-1.53-1.53-4.01,0-5.54l20.47-20.47c1.53-1.53,4.01-1.53,5.54,0,1.53,1.53,1.53,4.01,0,5.54l-20.47,20.47c-.76.76-1.77,1.15-2.77,1.15Z"/>
    <path d="M694.17,198.38c-1,0-2-.38-2.77-1.15l-20.47-20.47c-1.53-1.53-1.53-4.01,0-5.54,1.53-1.53,4.01-1.53,5.54,0l20.47,20.47c1.53,1.53,1.53,4.01,0,5.54-.76.76-1.77,1.15-2.77,1.15Z"/>
    <path d="M550.88,136.97c-1,0-2-.38-2.77-1.15-1.53-1.53-1.53-4.01,0-5.54l20.47-20.47c1.53-1.53,4.01-1.53,5.54,0,1.53,1.53,1.53,4.01,0,5.54l-20.47,20.47c-.76.76-1.77,1.15-2.77,1.15Z"/>
    <path d="M632.76,136.97c-1,0-2-.38-2.77-1.15l-20.47-20.47c-1.53-1.53-1.53-4.01,0-5.54,1.53-1.53,4.01-1.53,5.54,0l20.47,20.47c1.53,1.53,1.53,4.01,0,5.54-.76.76-1.77,1.15-2.77,1.15Z"/>
  </g>
  <g>
    <g>
      <path d="M581.58,666.86h-61.41c-2.16,0-3.91-1.75-3.91-3.91s1.75-3.91,3.91-3.91h61.41c2.16,0,3.91,1.75,3.91,3.91s-1.75,3.91-3.91,3.91Z"/>
      <path d="M581.58,707.8h-61.41c-2.16,0-3.91-1.75-3.91-3.91s1.75-3.91,3.91-3.91h61.41c2.16,0,3.91,1.75,3.91,3.91s-1.75,3.91-3.91,3.91Z"/>
      <path d="M499.7,748.74c-2.16,0-3.91-1.75-3.91-3.91v-81.88c0-2.16,1.75-3.91,3.91-3.91s3.91,1.75,3.91,3.91v81.88c0,2.16-1.75,3.91-3.91,3.91Z"/>
    </g>
    <g>
      <path d="M1072.86,666.86h-61.41c-2.16,0-3.91-1.75-3.91-3.91s1.75-3.91,3.91-3.91h61.41c2.16,0,3.91,1.75,3.91,3.91s-1.75,3.91-3.91,3.91Z"/>
      <path d="M1072.86,707.8h-61.41c-2.16,0-3.91-1.75-3.91-3.91s1.75-3.91,3.91-3.91h61.41c2.16,0,3.91,1.75,3.91,3.91s-1.75,3.91-3.91,3.91Z"/>
      <path d="M1072.86,748.74h-61.41c-2.16,0-3.91-1.75-3.91-3.91s1.75-3.91,3.91-3.91h61.41c2.16,0,3.91,1.75,3.91,3.91s-1.75,3.91-3.91,3.91Z"/>
      <path d="M990.98,748.74c-2.16,0-3.91-1.75-3.91-3.91v-81.88c0-2.16,1.75-3.91,3.91-3.91s3.91,1.75,3.91,3.91v81.88c0,2.16-1.75,3.91-3.91,3.91Z"/>
    </g>
    <g>
      <path d="M1113.8,707.8c-2.16,0-3.91-1.75-3.91-3.91v-40.94c0-2.16,1.75-3.91,3.91-3.91s3.91,1.75,3.91,3.91v40.94c0,2.16-1.75,3.91-3.91,3.91Z"/>
      <path d="M1195.68,707.8c-2.16,0-3.91-1.75-3.91-3.91v-40.94c0-2.16,1.75-3.91,3.91-3.91s3.91,1.75,3.91,3.91v40.94c0,2.16-1.75,3.91-3.91,3.91Z"/>
      <path d="M1113.8,748.74c-1,0-2-.38-2.77-1.15-1.53-1.53-1.53-4.01,0-5.54l20.47-20.47c1.53-1.53,4.01-1.53,5.54,0,1.53,1.53,1.53,4.01,0,5.54l-20.47,20.47c-.76.76-1.77,1.15-2.77,1.15Z"/>
      <path d="M1195.68,748.74c-1,0-2-.38-2.77-1.15l-40.94-40.94c-1.53-1.53-1.53-4.01,0-5.54,1.53-1.53,4.01-1.53,5.54,0l40.94,40.94c1.53,1.53,1.53,4.01,0,5.54-.76.76-1.77,1.15-2.77,1.15Z"/>
    </g>
    <g>
      <path d="M1236.62,687.33c-1,0-2-.38-2.77-1.15-1.53-1.53-1.53-4.01,0-5.54l20.47-20.47c1.53-1.53,4.01-1.53,5.54,0,1.53,1.53,1.53,4.01,0,5.54l-20.47,20.47c-.76.76-1.77,1.15-2.77,1.15Z"/>
      <path d="M1257.09,748.74c-1,0-2-.38-2.77-1.15l-20.47-20.47c-1.53-1.53-1.53-4.01,0-5.54,1.53-1.53,4.01-1.53,5.54,0l20.47,20.47c1.53,1.53,1.53,4.01,0,5.54-.76.76-1.77,1.15-2.77,1.15Z"/>
      <path d="M1318.5,687.33c-1,0-2-.38-2.77-1.15l-20.47-20.47c-1.53-1.53-1.53-4.01,0-5.54,1.53-1.53,4.01-1.53,5.54,0l20.47,20.47c1.53,1.53,1.53,4.01,0,5.54-.76.76-1.77,1.15-2.77,1.15Z"/>
      <path d="M1298.03,748.74c-1,0-2-.38-2.77-1.15-1.53-1.53-1.53-4.01,0-5.54l20.47-20.47c1.53-1.53,4.01-1.53,5.54,0,1.53,1.53,1.53,4.01,0,5.54l-20.47,20.47c-.76.76-1.77,1.15-2.77,1.15Z"/>
    </g>
    <g>
      <path d="M1420.85,666.86h-40.94c-2.16,0-3.91-1.75-3.91-3.91s1.75-3.91,3.91-3.91h40.94c2.16,0,3.91,1.75,3.91,3.91s-1.75,3.91-3.91,3.91Z"/>
      <path d="M1359.44,748.74c-2.16,0-3.91-1.75-3.91-3.91v-81.88c0-2.16,1.75-3.91,3.91-3.91s3.91,1.75,3.91,3.91v81.88c0,2.16-1.75,3.91-3.91,3.91Z"/>
      <path d="M1441.32,687.33c-2.16,0-3.91-1.75-3.91-3.91v-20.47c0-2.16,1.75-3.91,3.91-3.91s3.91,1.75,3.91,3.91v20.47c0,2.16-1.75,3.91-3.91,3.91Z"/>
      <path d="M1441.32,707.8h-61.41c-2.16,0-3.91-1.75-3.91-3.91s1.75-3.91,3.91-3.91h61.41c2.16,0,3.91,1.75,3.91,3.91s-1.75,3.91-3.91,3.91Z"/>
      <path d="M1441.32,748.74c-1,0-2-.38-2.77-1.15l-20.47-20.47c-1.53-1.53-1.53-4.01,0-5.54,1.53-1.53,4.01-1.53,5.54,0l20.47,20.47c1.53,1.53,1.53,4.01,0,5.54-.76.76-1.77,1.15-2.77,1.15Z"/>
    </g>
    <g>
      <path d="M1482.26,748.74c-2.16,0-3.91-1.75-3.91-3.91v-81.88c0-2.16,1.75-3.91,3.91-3.91s3.91,1.75,3.91,3.91v81.88c0,2.16-1.75,3.91-3.91,3.91Z"/>
      <path d="M1502.73,728.27c-1,0-2-.38-2.77-1.15-1.53-1.53-1.53-4.01,0-5.54l61.41-61.41c1.53-1.53,4.01-1.53,5.54,0,1.53,1.53,1.53,4.01,0,5.54l-61.41,61.41c-.76.76-1.77,1.15-2.77,1.15Z"/>
      <path d="M1564.14,748.74c-1,0-2-.38-2.77-1.15l-20.47-20.47c-1.53-1.53-1.53-4.01,0-5.54,1.53-1.53,4.01-1.53,5.54,0l20.47,20.47c1.53,1.53,1.53,4.01,0,5.54-.76.76-1.77,1.15-2.77,1.15Z"/>
    </g>
    <g>
      <path d="M929.57,707.8h-40.94c-2.16,0-3.91-1.75-3.91-3.91s1.75-3.91,3.91-3.91h40.94c2.16,0,3.91,1.75,3.91,3.91s-1.75,3.91-3.91,3.91Z"/>
      <path d="M950.04,666.86h-40.94c-2.16,0-3.91-1.75-3.91-3.91s1.75-3.91,3.91-3.91h40.94c2.16,0,3.91,1.75,3.91,3.91s-1.75,3.91-3.91,3.91Z"/>
      <path d="M909.1,748.74h-40.94c-2.16,0-3.91-1.75-3.91-3.91s1.75-3.91,3.91-3.91h40.94c2.16,0,3.91,1.75,3.91,3.91s-1.75,3.91-3.91,3.91Z"/>
      <path d="M868.16,687.33c-1,0-2-.38-2.77-1.15-1.53-1.53-1.53-4.01,0-5.54l20.47-20.47c1.53-1.53,4.01-1.53,5.54,0,1.53,1.53,1.53,4.01,0,5.54l-20.47,20.47c-.76.76-1.77,1.15-2.77,1.15Z"/>
      <path d="M929.57,748.74c-1,0-2-.38-2.77-1.15-1.53-1.53-1.53-4.01,0-5.54l20.47-20.47c1.53-1.53,4.01-1.53,5.54,0,1.53,1.53,1.53,4.01,0,5.54l-20.47,20.47c-.76.76-1.77,1.15-2.77,1.15Z"/>
    </g>
    <g>
      <path d="M745.34,707.8c-2.16,0-3.91-1.75-3.91-3.91v-40.94c0-2.16,1.75-3.91,3.91-3.91s3.91,1.75,3.91,3.91v40.94c0,2.16-1.75,3.91-3.91,3.91Z"/>
      <path d="M827.22,748.74h-40.94c-2.16,0-3.91-1.75-3.91-3.91s1.75-3.91,3.91-3.91h40.94c2.16,0,3.91,1.75,3.91,3.91s-1.75,3.91-3.91,3.91Z"/>
      <path d="M765.81,748.74c-1,0-2-.38-2.77-1.15l-20.47-20.47c-1.53-1.53-1.53-4.01,0-5.54,1.53-1.53,4.01-1.53,5.54,0l20.47,20.47c1.53,1.53,1.53,4.01,0,5.54-.76.76-1.77,1.15-2.77,1.15Z"/>
    </g>
    <g>
      <path d="M622.52,748.74c-2.16,0-3.91-1.75-3.91-3.91v-40.94c0-2.16,1.75-3.91,3.91-3.91s3.91,1.75,3.91,3.91v40.94c0,2.16-1.75,3.91-3.91,3.91Z"/>
      <path d="M704.4,748.74c-2.16,0-3.91-1.75-3.91-3.91v-40.94c0-2.16,1.75-3.91,3.91-3.91s3.91,1.75,3.91,3.91v40.94c0,2.16-1.75,3.91-3.91,3.91Z"/>
      <path d="M683.93,707.8h-40.94c-2.16,0-3.91-1.75-3.91-3.91s1.75-3.91,3.91-3.91h40.94c2.16,0,3.91,1.75,3.91,3.91s-1.75,3.91-3.91,3.91Z"/>
      <path d="M622.52,687.33c-1,0-2-.38-2.77-1.15-1.53-1.53-1.53-4.01,0-5.54l20.47-20.47c1.53-1.53,4.01-1.53,5.54,0,1.53,1.53,1.53,4.01,0,5.54l-20.47,20.47c-.76.76-1.77,1.15-2.77,1.15Z"/>
      <path d="M704.4,687.33c-1,0-2-.38-2.77-1.15l-20.47-20.47c-1.53-1.53-1.53-4.01,0-5.54,1.53-1.53,4.01-1.53,5.54,0l20.47,20.47c1.53,1.53,1.53,4.01,0,5.54-.76.76-1.77,1.15-2.77,1.15Z"/>
    </g>
    <path d="M441.06,686.19c-.76.76-1.77,1.15-2.77,1.15-.94,0-1.88-.34-2.63-1.01-1.67-1.52-1.59-4.22,0-5.82l14.74-14.74c2.44-2.44.79-6.71-2.65-6.73-.03,0-.05,0-.08,0h-59.71s-.05,0-.08,0c-3.45.02-5.09,4.29-2.65,6.73l14.74,14.74c1.6,1.6,1.68,4.3,0,5.82-.74.68-1.69,1.01-2.63,1.01-1,0-2-.38-2.77-1.15l-14.89-14.89c-2.44-2.44-6.71-.79-6.73,2.65,0,.03,0,.05,0,.08v59.71s0,.05,0,.08c.02,3.45,4.29,5.09,6.73,2.65l14.82-14.82c1.32-1.32,3.42-1.62,4.97-.59,2.14,1.42,2.35,4.34.64,6.06l-14.89,14.89c-2.44,2.44-.79,6.71,2.65,6.73.03,0,.05,0,.08,0h59.71s.05,0,.08,0c3.45-.02,5.09-4.29,2.65-6.73l-14.73-14.73c-1.5-1.5-1.72-3.97-.3-5.54,1.51-1.68,4.1-1.73,5.68-.15l14.89,14.89c2.44,2.44,6.71.79,6.73-2.65,0-.03,0-.05,0-.08v-59.71s0-.05,0-.08c-.02-3.45-4.29-5.09-6.73-2.65l-14.89,14.89Z"/>
  </g>
  <g>
    <rect class="cls-1" x="349.76" y="815.03" width="1205.38" height="219.71" rx="13.88" ry="13.88"/>
    <g>
      <path d="M1533.52,842.19c-.76.76-1.77,1.15-2.77,1.15-.94,0-1.88-.34-2.63-1.01-1.67-1.52-1.59-4.22,0-5.82l14.74-14.74c2.44-2.44.79-6.71-2.65-6.73-.03,0-.05,0-.08,0H364.76s-.05,0-.08,0c-3.45.02-5.09,4.29-2.65,6.73l14.74,14.74c1.6,1.6,1.68,4.3,0,5.82-.74.68-1.69,1.01-2.63,1.01-1,0-2-.38-2.77-1.15l-14.89-14.89c-2.44-2.44-6.71-.79-6.73,2.65,0,.03,0,.05,0,.08v189.71s0,.05,0,.08c.02,3.45,4.29,5.09,6.73,2.65l14.82-14.82c1.32-1.32,3.42-1.62,4.97-.59,2.14,1.42,2.35,4.34.64,6.06l-14.89,14.89c-2.44,2.44-.79,6.71,2.65,6.73.03,0,.05,0,.08,0h1175.38s.05,0,.08,0c3.45-.02,5.09-4.29,2.65-6.73l-14.73-14.73c-1.5-1.5-1.72-3.97-.3-5.54,1.51-1.68,4.1-1.73,5.68-.15l14.89,14.89c2.44,2.44,6.71.79,6.73-2.65,0-.03,0-.05,0-.08v-189.71s0-.05,0-.08c-.02-3.45-4.29-5.09-6.73-2.65l-14.89,14.89Z"/>
      <g>
        <path class="cls-1" d="M502.11,886.86h-61.41c-2.16,0-3.91-1.75-3.91-3.91s1.75-3.91,3.91-3.91h61.41c2.16,0,3.91,1.75,3.91,3.91s-1.75,3.91-3.91,3.91Z"/>
        <path class="cls-1" d="M502.11,927.8h-61.41c-2.16,0-3.91-1.75-3.91-3.91s1.75-3.91,3.91-3.91h61.41c2.16,0,3.91,1.75,3.91,3.91s-1.75,3.91-3.91,3.91Z"/>
        <path class="cls-1" d="M420.23,968.74c-2.16,0-3.91-1.75-3.91-3.91v-81.88c0-2.16,1.75-3.91,3.91-3.91s3.91,1.75,3.91,3.91v81.88c0,2.16-1.75,3.91-3.91,3.91Z"/>
        <path class="cls-1" d="M543.05,968.74c-2.16,0-3.91-1.75-3.91-3.91v-40.94c0-2.16,1.75-3.91,3.91-3.91s3.91,1.75,3.91,3.91v40.94c0,2.16-1.75,3.91-3.91,3.91Z"/>
        <path class="cls-1" d="M624.93,968.74c-2.16,0-3.91-1.75-3.91-3.91v-40.94c0-2.16,1.75-3.91,3.91-3.91s3.91,1.75,3.91,3.91v40.94c0,2.16-1.75,3.91-3.91,3.91Z"/>
        <path class="cls-1" d="M604.46,927.8h-40.94c-2.16,0-3.91-1.75-3.91-3.91s1.75-3.91,3.91-3.91h40.94c2.16,0,3.91,1.75,3.91,3.91s-1.75,3.91-3.91,3.91Z"/>
        <path class="cls-1" d="M665.87,927.8c-2.16,0-3.91-1.75-3.91-3.91v-40.94c0-2.16,1.75-3.91,3.91-3.91s3.91,1.75,3.91,3.91v40.94c0,2.16-1.75,3.91-3.91,3.91Z"/>
        <path class="cls-1" d="M747.75,968.74h-40.94c-2.16,0-3.91-1.75-3.91-3.91s1.75-3.91,3.91-3.91h40.94c2.16,0,3.91,1.75,3.91,3.91s-1.75,3.91-3.91,3.91Z"/>
        <path class="cls-1" d="M850.1,927.8h-40.94c-2.16,0-3.91-1.75-3.91-3.91s1.75-3.91,3.91-3.91h40.94c2.16,0,3.91,1.75,3.91,3.91s-1.75,3.91-3.91,3.91Z"/>
        <path class="cls-1" d="M870.57,886.86h-40.94c-2.16,0-3.91-1.75-3.91-3.91s1.75-3.91,3.91-3.91h40.94c2.16,0,3.91,1.75,3.91,3.91s-1.75,3.91-3.91,3.91Z"/>
        <path class="cls-1" d="M829.63,968.74h-40.94c-2.16,0-3.91-1.75-3.91-3.91s1.75-3.91,3.91-3.91h40.94c2.16,0,3.91,1.75,3.91,3.91s-1.75,3.91-3.91,3.91Z"/>
        <path class="cls-1" d="M993.39,886.86h-61.41c-2.16,0-3.91-1.75-3.91-3.91s1.75-3.91,3.91-3.91h61.41c2.16,0,3.91,1.75,3.91,3.91s-1.75,3.91-3.91,3.91Z"/>
        <path class="cls-1" d="M993.39,927.8h-61.41c-2.16,0-3.91-1.75-3.91-3.91s1.75-3.91,3.91-3.91h61.41c2.16,0,3.91,1.75,3.91,3.91s-1.75,3.91-3.91,3.91Z"/>
        <path class="cls-1" d="M993.39,968.74h-61.41c-2.16,0-3.91-1.75-3.91-3.91s1.75-3.91,3.91-3.91h61.41c2.16,0,3.91,1.75,3.91,3.91s-1.75,3.91-3.91,3.91Z"/>
        <path class="cls-1" d="M911.51,968.74c-2.16,0-3.91-1.75-3.91-3.91v-81.88c0-2.16,1.75-3.91,3.91-3.91s3.91,1.75,3.91,3.91v81.88c0,2.16-1.75,3.91-3.91,3.91Z"/>
        <path class="cls-1" d="M1341.38,886.86h-40.94c-2.16,0-3.91-1.75-3.91-3.91s1.75-3.91,3.91-3.91h40.94c2.16,0,3.91,1.75,3.91,3.91s-1.75,3.91-3.91,3.91Z"/>
        <path class="cls-1" d="M1034.33,927.8c-2.16,0-3.91-1.75-3.91-3.91v-40.94c0-2.16,1.75-3.91,3.91-3.91s3.91,1.75,3.91,3.91v40.94c0,2.16-1.75,3.91-3.91,3.91Z"/>
        <path class="cls-1" d="M1116.21,927.8c-2.16,0-3.91-1.75-3.91-3.91v-40.94c0-2.16,1.75-3.91,3.91-3.91s3.91,1.75,3.91,3.91v40.94c0,2.16-1.75,3.91-3.91,3.91Z"/>
        <path class="cls-1" d="M1034.33,968.74c-1,0-2-.38-2.77-1.15-1.53-1.53-1.53-4.01,0-5.54l20.47-20.47c1.53-1.53,4.01-1.53,5.54,0,1.53,1.53,1.53,4.01,0,5.54l-20.47,20.47c-.76.76-1.77,1.15-2.77,1.15Z"/>
        <path class="cls-1" d="M1116.21,968.74c-1,0-2-.38-2.77-1.15l-40.94-40.94c-1.53-1.53-1.53-4.01,0-5.54,1.53-1.53,4.01-1.53,5.54,0l40.94,40.94c1.53,1.53,1.53,4.01,0,5.54-.76.76-1.77,1.15-2.77,1.15Z"/>
        <path class="cls-1" d="M1157.15,907.33c-1,0-2-.38-2.77-1.15-1.53-1.53-1.53-4.01,0-5.54l20.47-20.47c1.53-1.53,4.01-1.53,5.54,0,1.53,1.53,1.53,4.01,0,5.54l-20.47,20.47c-.76.76-1.77,1.15-2.77,1.15Z"/>
        <path class="cls-1" d="M1177.62,968.74c-1,0-2-.38-2.77-1.15l-20.47-20.47c-1.53-1.53-1.53-4.01,0-5.54,1.53-1.53,4.01-1.53,5.54,0l20.47,20.47c1.53,1.53,1.53,4.01,0,5.54-.76.76-1.77,1.15-2.77,1.15Z"/>
        <path class="cls-1" d="M1239.03,907.33c-1,0-2-.38-2.77-1.15l-20.47-20.47c-1.53-1.53-1.53-4.01,0-5.54,1.53-1.53,4.01-1.53,5.54,0l20.47,20.47c1.53,1.53,1.53,4.01,0,5.54-.76.76-1.77,1.15-2.77,1.15Z"/>
        <path class="cls-1" d="M1218.56,968.74c-1,0-2-.38-2.77-1.15-1.53-1.53-1.53-4.01,0-5.54l20.47-20.47c1.53-1.53,4.01-1.53,5.54,0,1.53,1.53,1.53,4.01,0,5.54l-20.47,20.47c-.76.76-1.77,1.15-2.77,1.15Z"/>
        <path class="cls-1" d="M1279.97,968.74c-2.16,0-3.91-1.75-3.91-3.91v-81.88c0-2.16,1.75-3.91,3.91-3.91s3.91,1.75,3.91,3.91v81.88c0,2.16-1.75,3.91-3.91,3.91Z"/>
        <path class="cls-1" d="M1361.85,907.33c-2.16,0-3.91-1.75-3.91-3.91v-20.47c0-2.16,1.75-3.91,3.91-3.91s3.91,1.75,3.91,3.91v20.47c0,2.16-1.75,3.91-3.91,3.91Z"/>
        <path class="cls-1" d="M1361.85,927.8h-61.41c-2.16,0-3.91-1.75-3.91-3.91s1.75-3.91,3.91-3.91h61.41c2.16,0,3.91,1.75,3.91,3.91s-1.75,3.91-3.91,3.91Z"/>
        <path class="cls-1" d="M1361.85,968.74c-1,0-2-.38-2.77-1.15l-20.47-20.47c-1.53-1.53-1.53-4.01,0-5.54,1.53-1.53,4.01-1.53,5.54,0l20.47,20.47c1.53,1.53,1.53,4.01,0,5.54-.76.76-1.77,1.15-2.77,1.15Z"/>
        <path class="cls-1" d="M1402.79,968.74c-2.16,0-3.91-1.75-3.91-3.91v-81.88c0-2.16,1.75-3.91,3.91-3.91s3.91,1.75,3.91,3.91v81.88c0,2.16-1.75,3.91-3.91,3.91Z"/>
        <path class="cls-1" d="M1423.26,948.27c-1,0-2-.38-2.77-1.15-1.53-1.53-1.53-4.01,0-5.54l61.41-61.41c1.53-1.53,4.01-1.53,5.54,0,1.53,1.53,1.53,4.01,0,5.54l-61.41,61.41c-.76.76-1.77,1.15-2.77,1.15Z"/>
        <path class="cls-1" d="M1484.67,968.74c-1,0-2-.38-2.77-1.15l-20.47-20.47c-1.53-1.53-1.53-4.01,0-5.54,1.53-1.53,4.01-1.53,5.54,0l20.47,20.47c1.53,1.53,1.53,4.01,0,5.54-.76.76-1.77,1.15-2.77,1.15Z"/>
        <path class="cls-1" d="M788.69,907.33c-1,0-2-.38-2.77-1.15-1.53-1.53-1.53-4.01,0-5.54l20.47-20.47c1.53-1.53,4.01-1.53,5.54,0,1.53,1.53,1.53,4.01,0,5.54l-20.47,20.47c-.76.76-1.77,1.15-2.77,1.15Z"/>
        <path class="cls-1" d="M850.1,968.74c-1,0-2-.38-2.77-1.15-1.53-1.53-1.53-4.01,0-5.54l20.47-20.47c1.53-1.53,4.01-1.53,5.54,0,1.53,1.53,1.53,4.01,0,5.54l-20.47,20.47c-.76.76-1.77,1.15-2.77,1.15Z"/>
        <path class="cls-1" d="M686.34,968.74c-1,0-2-.38-2.77-1.15l-20.47-20.47c-1.53-1.53-1.53-4.01,0-5.54,1.53-1.53,4.01-1.53,5.54,0l20.47,20.47c1.53,1.53,1.53,4.01,0,5.54-.76.76-1.77,1.15-2.77,1.15Z"/>
        <path class="cls-1" d="M543.05,907.33c-1,0-2-.38-2.77-1.15-1.53-1.53-1.53-4.01,0-5.54l20.47-20.47c1.53-1.53,4.01-1.53,5.54,0,1.53,1.53,1.53,4.01,0,5.54l-20.47,20.47c-.76.76-1.77,1.15-2.77,1.15Z"/>
        <path class="cls-1" d="M624.93,907.33c-1,0-2-.38-2.77-1.15l-20.47-20.47c-1.53-1.53-1.53-4.01,0-5.54,1.53-1.53,4.01-1.53,5.54,0l20.47,20.47c1.53,1.53,1.53,4.01,0,5.54-.76.76-1.77,1.15-2.77,1.15Z"/>
      </g>
    </g>
  </g>
</svg>