<?xml version="1.0" encoding="UTF-8"?>
<svg xmlns="http://www.w3.org/2000/svg" viewBox="796.96 330.04 359.71 229.70" fill="#fff">
<g>
    <path d="M1125.07,367.19c-.76.76-1.77,1.15-2.77,1.15-.94,0-1.88-.34-2.63-1.01-1.67-1.52-1.59-4.22,0-5.82l14.74-14.74c2.44-2.44.79-6.71-2.65-6.73-.03,0-.05,0-.08,0h-309.71s-.05,0-.08,0c-3.45.02-5.09,4.29-2.65,6.73l14.74,14.74c1.6,1.6,1.68,4.3,0,5.82-.74.68-1.69,1.01-2.63,1.01-1,0-2-.38-2.77-1.15l-14.89-14.89c-2.44-2.44-6.71-.79-6.73,2.65,0,.03,0,.05,0,.08v179.71s0,.05,0,.08c.02,3.45,4.29,5.09,6.73,2.65l14.82-14.82c1.32-1.32,3.42-1.62,4.97-.59,2.14,1.42,2.35,4.34.64,6.06l-14.89,14.89c-2.44,2.44-.79,6.71,2.65,6.73.03,0,.05,0,.08,0h309.71s.05,0,.08,0c3.45-.02,5.09-4.29,2.65-6.73l-14.73-14.73c-1.5-1.5-1.72-3.97-.3-5.54,1.51-1.68,4.1-1.73,5.68-.15l14.89,14.89c2.44,2.44,6.71.79,6.73-2.65,0-.03,0-.05,0-.08v-179.71s0-.05,0-.08c-.02-3.45-4.29-5.09-6.73-2.65l-14.89,14.89Z" />
    <g>
      <g>
        <path d="M956.36,407.86h-61.41c-2.16,0-3.91-1.75-3.91-3.91s1.75-3.91,3.91-3.91h61.41c2.16,0,3.91,1.75,3.91,3.91s-1.75,3.91-3.91,3.91Z" />
        <path d="M956.36,448.8h-61.41c-2.16,0-3.91-1.75-3.91-3.91s1.75-3.91,3.91-3.91h61.41c2.16,0,3.91,1.75,3.91,3.91s-1.75,3.91-3.91,3.91Z" />
        <path d="M874.48,489.74c-2.16,0-3.91-1.75-3.91-3.91v-81.88c0-2.16,1.75-3.91,3.91-3.91s3.91,1.75,3.91,3.91v81.88c0,2.16-1.75,3.91-3.91,3.91Z" />
      </g>
      <g>
        <path d="M997.3,448.8c-2.16,0-3.91-1.75-3.91-3.91v-40.94c0-2.16,1.75-3.91,3.91-3.91s3.91,1.75,3.91,3.91v40.94c0,2.16-1.75,3.91-3.91,3.91Z" />
        <path d="M1079.18,448.8c-2.16,0-3.91-1.75-3.91-3.91v-40.94c0-2.16,1.75-3.91,3.91-3.91s3.91,1.75,3.91,3.91v40.94c0,2.16-1.75,3.91-3.91,3.91Z" />
        <path d="M997.3,489.74c-1,0-2-.38-2.77-1.15-1.53-1.53-1.53-4.01,0-5.54l20.47-20.47c1.53-1.53,4.01-1.53,5.54,0,1.53,1.53,1.53,4.01,0,5.54l-20.47,20.47c-.76.76-1.77,1.15-2.77,1.15Z" />
        <path d="M1079.18,489.74c-1,0-2-.38-2.77-1.15l-40.94-40.94c-1.53-1.53-1.53-4.01,0-5.54,1.53-1.53,4.01-1.53,5.54,0l40.94,40.94c1.53,1.53,1.53,4.01,0,5.54-.76.76-1.77,1.15-2.77,1.15Z" />
      </g>
    </g>
  </g>
  
</svg>