[
  {
    "clipIndex": 0,
    "trackId": "89",
    "clipName": null,
    "beat": 0,
    "relBeat": 0,
    "duration": 0.25,
    "velocity": 100,
    "pitch": 60
  },
  {
    "clipIndex": 0,
    "trackId": "89",
    "clipName": null,
    "beat": 0.25,
    "relBeat": 0.25,
    "duration": 0.25,
    "velocity": 100,
    "pitch": 60
  },
  {
    "clipIndex": 337,
    "trackId": "55",
    "clipName": null,
    "beat": 1,
    "relBeat": 1,
    "duration": 0.32496565934065935,
    "velocity": 100,
    "pitch": 60
  },
  {
    "clipIndex": 0,
    "trackId": "89",
    "clipName": null,
    "beat": 1.5,
    "relBeat": 1.5,
    "duration": 0.25,
    "velocity": 100,
    "pitch": 60
  },
  {
    "clipIndex": 0,
    "trackId": "89",
    "clipName": null,
    "beat": 2.25,
    "relBeat": 2.25,
    "duration": 0.25,
    "velocity": 100,
    "pitch": 60
  },
  {
    "clipIndex": 0,
    "trackId": "89",
    "clipName": null,
    "beat": 3,
    "relBeat": 3,
    "duration": 0.25,
    "velocity": 100,
    "pitch": 60
  },
  {
    "clipIndex": 0,
    "trackId": "89",
    "clipName": null,
    "beat": 4,
    "relBeat": 4,
    "duration": 0.25,
    "velocity": 100,
    "pitch": 60
  },
  {
    "clipIndex": 0,
    "trackId": "89",
    "clipName": null,
    "beat": 4.25,
    "relBeat": 4.25,
    "duration": 0.25,
    "velocity": 100,
    "pitch": 60
  },
  {
    "clipIndex": 337,
    "trackId": "55",
    "clipName": null,
    "beat": 5,
    "relBeat": 5,
    "duration": 0.32496565934065935,
    "velocity": 100,
    "pitch": 60
  },
  {
    "clipIndex": 0,
    "trackId": "89",
    "clipName": null,
    "beat": 5.5,
    "relBeat": 5.5,
    "duration": 0.25,
    "velocity": 100,
    "pitch": 60
  },
  {
    "clipIndex": 0,
    "trackId": "89",
    "clipName": null,
    "beat": 6.25,
    "relBeat": 6.25,
    "duration": 0.25,
    "velocity": 100,
    "pitch": 60
  },
  {
    "clipIndex": 336,
    "trackId": "55",
    "clipName": null,
    "beat": 6.684466314935065,
    "relBeat": 4.08344442016317,
    "duration": 0.32496565934065935,
    "velocity": 100,
    "pitch": 60
  },
  {
    "clipIndex": 352,
    "trackId": "66",
    "clipName": null,
    "beat": 6.684466314935065,
    "relBeat": 4.08344442016317,
    "duration": 0.32496565934065935,
    "velocity": 100,
    "pitch": 60
  },
  {
    "clipIndex": 355,
    "trackId": "67",
    "clipName": null,
    "beat": 6.684466314935065,
    "relBeat": 4.08344442016317,
    "duration": 0.32496565934065935,
    "velocity": 100,
    "pitch": 60
  },
  {
    "clipIndex": 0,
    "trackId": "89",
    "clipName": null,
    "beat": 7,
    "relBeat": 7,
    "duration": 0.25,
    "velocity": 100,
    "pitch": 60
  },
  {
    "clipIndex": 0,
    "trackId": "89",
    "clipName": null,
    "beat": 8,
    "relBeat": 8,
    "duration": 0.25,
    "velocity": 100,
    "pitch": 60
  },
  {
    "clipIndex": 0,
    "trackId": "89",
    "clipName": null,
    "beat": 8.25,
    "relBeat": 8.25,
    "duration": 0.25,
    "velocity": 100,
    "pitch": 60
  },
  {
    "clipIndex": 337,
    "trackId": "55",
    "clipName": null,
    "beat": 9,
    "relBeat": 9,
    "duration": 0.32496565934065935,
    "velocity": 100,
    "pitch": 60
  },
  {
    "clipIndex": 0,
    "trackId": "89",
    "clipName": null,
    "beat": 9.5,
    "relBeat": 9.5,
    "duration": 0.25,
    "velocity": 100,
    "pitch": 60
  },
  {
    "clipIndex": 0,
    "trackId": "89",
    "clipName": null,
    "beat": 10.25,
    "relBeat": 10.25,
    "duration": 0.25,
    "velocity": 100,
    "pitch": 60
  },
  {
    "clipIndex": 0,
    "trackId": "89",
    "clipName": null,
    "beat": 11,
    "relBeat": 11,
    "duration": 0.25,
    "velocity": 100,
    "pitch": 60
  },
  {
    "clipIndex": 0,
    "trackId": "89",
    "clipName": null,
    "beat": 12,
    "relBeat": 12,
    "duration": 0.25,
    "velocity": 100,
    "pitch": 60
  },
  {
    "clipIndex": 0,
    "trackId": "89",
    "clipName": null,
    "beat": 12.25,
    "relBeat": 12.25,
    "duration": 0.25,
    "velocity": 100,
    "pitch": 60
  },
  {
    "clipIndex": 337,
    "trackId": "55",
    "clipName": null,
    "beat": 13,
    "relBeat": 13,
    "duration": 0.32496565934065935,
    "velocity": 100,
    "pitch": 60
  },
  {
    "clipIndex": 0,
    "trackId": "89",
    "clipName": null,
    "beat": 13.5,
    "relBeat": 13.5,
    "duration": 0.25,
    "velocity": 100,
    "pitch": 60
  },
  {
    "clipIndex": 0,
    "trackId": "89",
    "clipName": null,
    "beat": 14.25,
    "relBeat": 14.25,
    "duration": 0.25,
    "velocity": 100,
    "pitch": 60
  },
  {
    "clipIndex": 0,
    "trackId": "89",
    "clipName": null,
    "beat": 15,
    "relBeat": 15,
    "duration": 0.25,
    "velocity": 100,
    "pitch": 60
  },
  {
    "clipIndex": 0,
    "trackId": "89",
    "clipName": null,
    "beat": 16,
    "relBeat": 16,
    "duration": 0.25,
    "velocity": 100,
    "pitch": 60
  },
  {
    "clipIndex": 0,
    "trackId": "89",
    "clipName": null,
    "beat": 16.25,
    "relBeat": 16.25,
    "duration": 0.25,
    "velocity": 100,
    "pitch": 60
  },
  {
    "clipIndex": 337,
    "trackId": "55",
    "clipName": null,
    "beat": 17,
    "relBeat": 17,
    "duration": 0.32496565934065935,
    "velocity": 100,
    "pitch": 60
  },
  {
    "clipIndex": 0,
    "trackId": "89",
    "clipName": null,
    "beat": 17.5,
    "relBeat": 17.5,
    "duration": 0.25,
    "velocity": 100,
    "pitch": 60
  },
  {
    "clipIndex": 0,
    "trackId": "89",
    "clipName": null,
    "beat": 18.25,
    "relBeat": 18.25,
    "duration": 0.25,
    "velocity": 100,
    "pitch": 60
  },
  {
    "clipIndex": 0,
    "trackId": "89",
    "clipName": null,
    "beat": 19,
    "relBeat": 19,
    "duration": 0.25,
    "velocity": 100,
    "pitch": 60
  },
  {
    "clipIndex": 0,
    "trackId": "89",
    "clipName": null,
    "beat": 20,
    "relBeat": 20,
    "duration": 0.25,
    "velocity": 100,
    "pitch": 60
  },
  {
    "clipIndex": 0,
    "trackId": "89",
    "clipName": null,
    "beat": 20.25,
    "relBeat": 20.25,
    "duration": 0.25,
    "velocity": 100,
    "pitch": 60
  },
  {
    "clipIndex": 337,
    "trackId": "55",
    "clipName": null,
    "beat": 21,
    "relBeat": 21,
    "duration": 0.32496565934065935,
    "velocity": 100,
    "pitch": 60
  },
  {
    "clipIndex": 0,
    "trackId": "89",
    "clipName": null,
    "beat": 21.5,
    "relBeat": 21.5,
    "duration": 0.25,
    "velocity": 100,
    "pitch": 60
  },
  {
    "clipIndex": 0,
    "trackId": "89",
    "clipName": null,
    "beat": 22.25,
    "relBeat": 22.25,
    "duration": 0.25,
    "velocity": 100,
    "pitch": 60
  },
  {
    "clipIndex": 0,
    "trackId": "89",
    "clipName": null,
    "beat": 23,
    "relBeat": 23,
    "duration": 0.25,
    "velocity": 100,
    "pitch": 60
  },
  {
    "clipIndex": 0,
    "trackId": "89",
    "clipName": null,
    "beat": 24,
    "relBeat": 24,
    "duration": 0.25,
    "velocity": 100,
    "pitch": 60
  },
  {
    "clipIndex": 0,
    "trackId": "89",
    "clipName": null,
    "beat": 24.25,
    "relBeat": 24.25,
    "duration": 0.25,
    "velocity": 100,
    "pitch": 60
  },
  {
    "clipIndex": 0,
    "trackId": "89",
    "clipName": null,
    "beat": 25,
    "relBeat": 25,
    "duration": 0.25,
    "velocity": 100,
    "pitch": 60
  },
  {
    "clipIndex": 0,
    "trackId": "89",
    "clipName": null,
    "beat": 25.25,
    "relBeat": 25.25,
    "duration": 0.25,
    "velocity": 100,
    "pitch": 60
  },
  {
    "clipIndex": 0,
    "trackId": "89",
    "clipName": null,
    "beat": 26,
    "relBeat": 26,
    "duration": 0.25,
    "velocity": 100,
    "pitch": 60
  },
  {
    "clipIndex": 0,
    "trackId": "89",
    "clipName": null,
    "beat": 26.25,
    "relBeat": 26.25,
    "duration": 0.25,
    "velocity": 100,
    "pitch": 60
  },
  {
    "clipIndex": 0,
    "trackId": "89",
    "clipName": null,
    "beat": 27,
    "relBeat": 27,
    "duration": 0.25,
    "velocity": 100,
    "pitch": 60
  },
  {
    "clipIndex": 0,
    "trackId": "89",
    "clipName": null,
    "beat": 27.25,
    "relBeat": 27.25,
    "duration": 0.25,
    "velocity": 100,
    "pitch": 60
  },
  {
    "clipIndex": 0,
    "trackId": "89",
    "clipName": null,
    "beat": 28,
    "relBeat": 28,
    "duration": 0.25,
    "velocity": 100,
    "pitch": 60
  },
  {
    "clipIndex": 0,
    "trackId": "89",
    "clipName": null,
    "beat": 28.75,
    "relBeat": 28.75,
    "duration": 0.25,
    "velocity": 100,
    "pitch": 60
  },
  {
    "clipIndex": 0,
    "trackId": "89",
    "clipName": null,
    "beat": 29.5,
    "relBeat": 29.5,
    "duration": 0.25,
    "velocity": 100,
    "pitch": 60
  },
  {
    "clipIndex": 0,
    "trackId": "89",
    "clipName": null,
    "beat": 30.25,
    "relBeat": 30.25,
    "duration": 0.25,
    "velocity": 100,
    "pitch": 60
  },
  {
    "clipIndex": 337,
    "trackId": "55",
    "clipName": null,
    "beat": 31,
    "relBeat": 31,
    "duration": 0.32496565934065935,
    "velocity": 100,
    "pitch": 60
  },
  {
    "clipIndex": 0,
    "trackId": "89",
    "clipName": null,
    "beat": 32,
    "relBeat": 32,
    "duration": 0.25,
    "velocity": 100,
    "pitch": 60
  },
  {
    "clipIndex": 0,
    "trackId": "89",
    "clipName": null,
    "beat": 32.25,
    "relBeat": 32.25,
    "duration": 0.25,
    "velocity": 100,
    "pitch": 60
  },
  {
    "clipIndex": 337,
    "trackId": "55",
    "clipName": null,
    "beat": 33,
    "relBeat": 33,
    "duration": 0.32496565934065935,
    "velocity": 100,
    "pitch": 60
  },
  {
    "clipIndex": 350,
    "trackId": "60",
    "clipName": null,
    "beat": 33,
    "relBeat": 33,
    "duration": 0.25,
    "velocity": 100,
    "pitch": 60
  },
  {
    "clipIndex": 0,
    "trackId": "89",
    "clipName": null,
    "beat": 33.5,
    "relBeat": 33.5,
    "duration": 0.25,
    "velocity": 100,
    "pitch": 60
  },
  {
    "clipIndex": 0,
    "trackId": "89",
    "clipName": null,
    "beat": 34.25,
    "relBeat": 34.25,
    "duration": 0.25,
    "velocity": 100,
    "pitch": 60
  },
  {
    "clipIndex": 0,
    "trackId": "89",
    "clipName": null,
    "beat": 35,
    "relBeat": 35,
    "duration": 0.25,
    "velocity": 100,
    "pitch": 60
  },
  {
    "clipIndex": 0,
    "trackId": "89",
    "clipName": null,
    "beat": 36,
    "relBeat": 36,
    "duration": 0.25,
    "velocity": 100,
    "pitch": 60
  },
  {
    "clipIndex": 0,
    "trackId": "89",
    "clipName": null,
    "beat": 36.25,
    "relBeat": 36.25,
    "duration": 0.25,
    "velocity": 100,
    "pitch": 60
  },
  {
    "clipIndex": 337,
    "trackId": "55",
    "clipName": null,
    "beat": 37,
    "relBeat": 37,
    "duration": 0.32496565934065935,
    "velocity": 100,
    "pitch": 60
  },
  {
    "clipIndex": 350,
    "trackId": "60",
    "clipName": null,
    "beat": 37,
    "relBeat": 37,
    "duration": 0.25,
    "velocity": 100,
    "pitch": 60
  },
  {
    "clipIndex": 0,
    "trackId": "89",
    "clipName": null,
    "beat": 37.5,
    "relBeat": 37.5,
    "duration": 0.25,
    "velocity": 100,
    "pitch": 60
  },
  {
    "clipIndex": 0,
    "trackId": "89",
    "clipName": null,
    "beat": 38.25,
    "relBeat": 38.25,
    "duration": 0.25,
    "velocity": 100,
    "pitch": 60
  },
  {
    "clipIndex": 0,
    "trackId": "89",
    "clipName": null,
    "beat": 39,
    "relBeat": 39,
    "duration": 0.25,
    "velocity": 100,
    "pitch": 60
  },
  {
    "clipIndex": 0,
    "trackId": "89",
    "clipName": null,
    "beat": 40,
    "relBeat": 40,
    "duration": 0.25,
    "velocity": 100,
    "pitch": 60
  },
  {
    "clipIndex": 0,
    "trackId": "89",
    "clipName": null,
    "beat": 40.25,
    "relBeat": 40.25,
    "duration": 0.25,
    "velocity": 100,
    "pitch": 60
  },
  {
    "clipIndex": 337,
    "trackId": "55",
    "clipName": null,
    "beat": 41,
    "relBeat": 41,
    "duration": 0.32496565934065935,
    "velocity": 100,
    "pitch": 60
  },
  {
    "clipIndex": 350,
    "trackId": "60",
    "clipName": null,
    "beat": 41,
    "relBeat": 41,
    "duration": 0.25,
    "velocity": 100,
    "pitch": 60
  },
  {
    "clipIndex": 0,
    "trackId": "89",
    "clipName": null,
    "beat": 41.5,
    "relBeat": 41.5,
    "duration": 0.25,
    "velocity": 100,
    "pitch": 60
  },
  {
    "clipIndex": 0,
    "trackId": "89",
    "clipName": null,
    "beat": 42.25,
    "relBeat": 42.25,
    "duration": 0.25,
    "velocity": 100,
    "pitch": 60
  },
  {
    "clipIndex": 0,
    "trackId": "89",
    "clipName": null,
    "beat": 43,
    "relBeat": 43,
    "duration": 0.25,
    "velocity": 100,
    "pitch": 60
  },
  {
    "clipIndex": 0,
    "trackId": "89",
    "clipName": null,
    "beat": 44,
    "relBeat": 44,
    "duration": 0.25,
    "velocity": 100,
    "pitch": 60
  },
  {
    "clipIndex": 0,
    "trackId": "89",
    "clipName": null,
    "beat": 44.25,
    "relBeat": 44.25,
    "duration": 0.25,
    "velocity": 100,
    "pitch": 60
  },
  {
    "clipIndex": 0,
    "trackId": "89",
    "clipName": null,
    "beat": 48,
    "relBeat": 48,
    "duration": 0.25,
    "velocity": 100,
    "pitch": 60
  },
  {
    "clipIndex": 0,
    "trackId": "89",
    "clipName": null,
    "beat": 48.25,
    "relBeat": 48.25,
    "duration": 0.25,
    "velocity": 100,
    "pitch": 60
  },
  {
    "clipIndex": 337,
    "trackId": "55",
    "clipName": null,
    "beat": 49,
    "relBeat": 49,
    "duration": 0.32496565934065935,
    "velocity": 100,
    "pitch": 60
  },
  {
    "clipIndex": 350,
    "trackId": "60",
    "clipName": null,
    "beat": 49,
    "relBeat": 49,
    "duration": 0.25,
    "velocity": 100,
    "pitch": 60
  },
  {
    "clipIndex": 0,
    "trackId": "89",
    "clipName": null,
    "beat": 49.5,
    "relBeat": 49.5,
    "duration": 0.25,
    "velocity": 100,
    "pitch": 60
  },
  {
    "clipIndex": 0,
    "trackId": "89",
    "clipName": null,
    "beat": 50.25,
    "relBeat": 50.25,
    "duration": 0.25,
    "velocity": 100,
    "pitch": 60
  },
  {
    "clipIndex": 0,
    "trackId": "89",
    "clipName": null,
    "beat": 51,
    "relBeat": 51,
    "duration": 0.25,
    "velocity": 100,
    "pitch": 60
  },
  {
    "clipIndex": 0,
    "trackId": "89",
    "clipName": null,
    "beat": 52,
    "relBeat": 52,
    "duration": 0.25,
    "velocity": 100,
    "pitch": 60
  },
  {
    "clipIndex": 0,
    "trackId": "89",
    "clipName": null,
    "beat": 52.25,
    "relBeat": 52.25,
    "duration": 0.25,
    "velocity": 100,
    "pitch": 60
  },
  {
    "clipIndex": 337,
    "trackId": "55",
    "clipName": null,
    "beat": 53,
    "relBeat": 53,
    "duration": 0.32496565934065935,
    "velocity": 100,
    "pitch": 60
  },
  {
    "clipIndex": 350,
    "trackId": "60",
    "clipName": null,
    "beat": 53,
    "relBeat": 53,
    "duration": 0.25,
    "velocity": 100,
    "pitch": 60
  },
  {
    "clipIndex": 0,
    "trackId": "89",
    "clipName": null,
    "beat": 53.5,
    "relBeat": 53.5,
    "duration": 0.25,
    "velocity": 100,
    "pitch": 60
  },
  {
    "clipIndex": 0,
    "trackId": "89",
    "clipName": null,
    "beat": 54,
    "relBeat": 54,
    "duration": 0.25,
    "velocity": 100,
    "pitch": 60
  },
  {
    "clipIndex": 0,
    "trackId": "89",
    "clipName": null,
    "beat": 54.5,
    "relBeat": 54.5,
    "duration": 0.25,
    "velocity": 100,
    "pitch": 60
  },
  {
    "clipIndex": 0,
    "trackId": "89",
    "clipName": null,
    "beat": 55,
    "relBeat": 55,
    "duration": 0.25,
    "velocity": 100,
    "pitch": 60
  },
  {
    "clipIndex": 0,
    "trackId": "89",
    "clipName": null,
    "beat": 56,
    "relBeat": 56,
    "duration": 0.25,
    "velocity": 100,
    "pitch": 60
  },
  {
    "clipIndex": 0,
    "trackId": "89",
    "clipName": null,
    "beat": 56.25,
    "relBeat": 56.25,
    "duration": 0.25,
    "velocity": 100,
    "pitch": 60
  },
  {
    "clipIndex": 337,
    "trackId": "55",
    "clipName": null,
    "beat": 57,
    "relBeat": 57,
    "duration": 0.32496565934065935,
    "velocity": 100,
    "pitch": 60
  },
  {
    "clipIndex": 350,
    "trackId": "60",
    "clipName": null,
    "beat": 57,
    "relBeat": 57,
    "duration": 0.25,
    "velocity": 100,
    "pitch": 60
  },
  {
    "clipIndex": 0,
    "trackId": "89",
    "clipName": null,
    "beat": 57.5,
    "relBeat": 57.5,
    "duration": 0.25,
    "velocity": 100,
    "pitch": 60
  },
  {
    "clipIndex": 337,
    "trackId": "55",
    "clipName": null,
    "beat": 58,
    "relBeat": 58,
    "duration": 0.32496565934065935,
    "velocity": 100,
    "pitch": 60
  },
  {
    "clipIndex": 350,
    "trackId": "60",
    "clipName": null,
    "beat": 58,
    "relBeat": 58,
    "duration": 0.25,
    "velocity": 100,
    "pitch": 60
  },
  {
    "clipIndex": 0,
    "trackId": "89",
    "clipName": null,
    "beat": 58.5,
    "relBeat": 58.5,
    "duration": 0.25,
    "velocity": 100,
    "pitch": 60
  },
  {
    "clipIndex": 337,
    "trackId": "55",
    "clipName": null,
    "beat": 59,
    "relBeat": 59,
    "duration": 0.32496565934065935,
    "velocity": 100,
    "pitch": 60
  },
  {
    "clipIndex": 350,
    "trackId": "60",
    "clipName": null,
    "beat": 59,
    "relBeat": 59,
    "duration": 0.25,
    "velocity": 100,
    "pitch": 60
  },
  {
    "clipIndex": 0,
    "trackId": "89",
    "clipName": null,
    "beat": 59.5,
    "relBeat": 59.5,
    "duration": 0.25,
    "velocity": 100,
    "pitch": 60
  },
  {
    "clipIndex": 337,
    "trackId": "55",
    "clipName": null,
    "beat": 60,
    "relBeat": 60,
    "duration": 0.32496565934065935,
    "velocity": 100,
    "pitch": 60
  },
  {
    "clipIndex": 350,
    "trackId": "60",
    "clipName": null,
    "beat": 60,
    "relBeat": 60,
    "duration": 0.25,
    "velocity": 100,
    "pitch": 60
  },
  {
    "clipIndex": 0,
    "trackId": "89",
    "clipName": null,
    "beat": 60.5,
    "relBeat": 60.5,
    "duration": 0.25,
    "velocity": 100,
    "pitch": 60
  },
  {
    "clipIndex": 337,
    "trackId": "55",
    "clipName": null,
    "beat": 61,
    "relBeat": 61,
    "duration": 0.32496565934065935,
    "velocity": 100,
    "pitch": 60
  },
  {
    "clipIndex": 350,
    "trackId": "60",
    "clipName": null,
    "beat": 61,
    "relBeat": 61,
    "duration": 0.25,
    "velocity": 100,
    "pitch": 60
  },
  {
    "clipIndex": 0,
    "trackId": "89",
    "clipName": null,
    "beat": 61.5,
    "relBeat": 61.5,
    "duration": 0.25,
    "velocity": 100,
    "pitch": 60
  },
  {
    "clipIndex": 337,
    "trackId": "55",
    "clipName": null,
    "beat": 62,
    "relBeat": 62,
    "duration": 0.32496565934065935,
    "velocity": 100,
    "pitch": 60
  },
  {
    "clipIndex": 350,
    "trackId": "60",
    "clipName": null,
    "beat": 62,
    "relBeat": 62,
    "duration": 0.25,
    "velocity": 100,
    "pitch": 60
  },
  {
    "clipIndex": 0,
    "trackId": "89",
    "clipName": null,
    "beat": 62.5,
    "relBeat": 62.5,
    "duration": 0.25,
    "velocity": 100,
    "pitch": 60
  },
  {
    "clipIndex": 337,
    "trackId": "55",
    "clipName": null,
    "beat": 63,
    "relBeat": 63,
    "duration": 0.32496565934065935,
    "velocity": 100,
    "pitch": 60
  },
  {
    "clipIndex": 350,
    "trackId": "60",
    "clipName": null,
    "beat": 63,
    "relBeat": 63,
    "duration": 0.25,
    "velocity": 100,
    "pitch": 60
  },
  {
    "clipIndex": 337,
    "trackId": "55",
    "clipName": null,
    "beat": 64,
    "relBeat": 64,
    "duration": 0.25,
    "velocity": 100,
    "pitch": 60
  },
  {
    "clipIndex": 468,
    "trackId": "22",
    "clipName": null,
    "beat": 64,
    "relBeat": 0,
    "duration": 0.25,
    "velocity": 100,
    "pitch": 60
  },
  {
    "clipIndex": 337,
    "trackId": "55",
    "clipName": null,
    "beat": 64.25,
    "relBeat": 64.25,
    "duration": 0.30480014776889774,
    "velocity": 100,
    "pitch": 60
  },
  {
    "clipIndex": 468,
    "trackId": "22",
    "clipName": null,
    "beat": 64.25,
    "relBeat": 0.25,
    "duration": 0.25,
    "velocity": 100,
    "pitch": 60
  },
  {
    "clipIndex": 468,
    "trackId": "22",
    "clipName": null,
    "beat": 64.5,
    "relBeat": 0.5,
    "duration": 0.25,
    "velocity": 100,
    "pitch": 60
  },
  {
    "clipIndex": 468,
    "trackId": "22",
    "clipName": null,
    "beat": 64.75,
    "relBeat": 0.75,
    "duration": 0.25,
    "velocity": 100,
    "pitch": 60
  },
  {
    "clipIndex": 337,
    "trackId": "55",
    "clipName": null,
    "beat": 65,
    "relBeat": 65,
    "duration": 0.30480014776889774,
    "velocity": 100,
    "pitch": 60
  },
  {
    "clipIndex": 468,
    "trackId": "22",
    "clipName": null,
    "beat": 65,
    "relBeat": 1,
    "duration": 0.25,
    "velocity": 100,
    "pitch": 60
  },
  {
    "clipIndex": 468,
    "trackId": "22",
    "clipName": null,
    "beat": 65.25,
    "relBeat": 1.25,
    "duration": 0.25,
    "velocity": 100,
    "pitch": 60
  },
  {
    "clipIndex": 0,
    "trackId": "89",
    "clipName": null,
    "beat": 65.5,
    "relBeat": 65.5,
    "duration": 0.25,
    "velocity": 100,
    "pitch": 60
  },
  {
    "clipIndex": 468,
    "trackId": "22",
    "clipName": null,
    "beat": 65.5,
    "relBeat": 1.5,
    "duration": 0.25,
    "velocity": 100,
    "pitch": 60
  },
  {
    "clipIndex": 468,
    "trackId": "22",
    "clipName": null,
    "beat": 65.75,
    "relBeat": 1.75,
    "duration": 0.25,
    "velocity": 100,
    "pitch": 60
  },
  {
    "clipIndex": 468,
    "trackId": "22",
    "clipName": null,
    "beat": 66,
    "relBeat": 2,
    "duration": 0.25,
    "velocity": 100,
    "pitch": 60
  },
  {
    "clipIndex": 468,
    "trackId": "22",
    "clipName": null,
    "beat": 66.25,
    "relBeat": 2.25,
    "duration": 0.25,
    "velocity": 100,
    "pitch": 60
  },
  {
    "clipIndex": 0,
    "trackId": "89",
    "clipName": null,
    "beat": 66.5,
    "relBeat": 66.5,
    "duration": 0.25,
    "velocity": 100,
    "pitch": 60
  },
  {
    "clipIndex": 468,
    "trackId": "22",
    "clipName": null,
    "beat": 66.5,
    "relBeat": 2.5,
    "duration": 0.25,
    "velocity": 100,
    "pitch": 60
  },
  {
    "clipIndex": 468,
    "trackId": "22",
    "clipName": null,
    "beat": 66.75,
    "relBeat": 2.75,
    "duration": 0.25,
    "velocity": 100,
    "pitch": 60
  },
  {
    "clipIndex": 337,
    "trackId": "55",
    "clipName": null,
    "beat": 67,
    "relBeat": 67,
    "duration": 0.30480014776889774,
    "velocity": 100,
    "pitch": 60
  },
  {
    "clipIndex": 350,
    "trackId": "60",
    "clipName": null,
    "beat": 67,
    "relBeat": 67,
    "duration": 0.25,
    "velocity": 100,
    "pitch": 60
  },
  {
    "clipIndex": 468,
    "trackId": "22",
    "clipName": null,
    "beat": 67,
    "relBeat": 3,
    "duration": 0.25,
    "velocity": 100,
    "pitch": 60
  },
  {
    "clipIndex": 468,
    "trackId": "22",
    "clipName": null,
    "beat": 67.25,
    "relBeat": 3.25,
    "duration": 0.25,
    "velocity": 100,
    "pitch": 60
  },
  {
    "clipIndex": 468,
    "trackId": "22",
    "clipName": null,
    "beat": 67.5,
    "relBeat": 3.5,
    "duration": 0.25,
    "velocity": 100,
    "pitch": 60
  },
  {
    "clipIndex": 468,
    "trackId": "22",
    "clipName": null,
    "beat": 67.75,
    "relBeat": 3.75,
    "duration": 0.25,
    "velocity": 100,
    "pitch": 60
  },
  {
    "clipIndex": 0,
    "trackId": "89",
    "clipName": null,
    "beat": 68,
    "relBeat": 68,
    "duration": 0.25,
    "velocity": 100,
    "pitch": 60
  },
  {
    "clipIndex": 468,
    "trackId": "22",
    "clipName": null,
    "beat": 68,
    "relBeat": 4,
    "duration": 0.25,
    "velocity": 100,
    "pitch": 60
  },
  {
    "clipIndex": 0,
    "trackId": "89",
    "clipName": null,
    "beat": 68.25,
    "relBeat": 68.25,
    "duration": 0.25,
    "velocity": 100,
    "pitch": 60
  },
  {
    "clipIndex": 468,
    "trackId": "22",
    "clipName": null,
    "beat": 68.25,
    "relBeat": 4.25,
    "duration": 0.25,
    "velocity": 100,
    "pitch": 60
  },
  {
    "clipIndex": 468,
    "trackId": "22",
    "clipName": null,
    "beat": 68.5,
    "relBeat": 4.5,
    "duration": 0.25,
    "velocity": 100,
    "pitch": 60
  },
  {
    "clipIndex": 468,
    "trackId": "22",
    "clipName": null,
    "beat": 68.75,
    "relBeat": 4.75,
    "duration": 0.25,
    "velocity": 100,
    "pitch": 60
  },
  {
    "clipIndex": 337,
    "trackId": "55",
    "clipName": null,
    "beat": 69,
    "relBeat": 69,
    "duration": 0.32496565934065935,
    "velocity": 100,
    "pitch": 60
  },
  {
    "clipIndex": 350,
    "trackId": "60",
    "clipName": null,
    "beat": 69,
    "relBeat": 69,
    "duration": 0.25,
    "velocity": 100,
    "pitch": 60
  },
  {
    "clipIndex": 468,
    "trackId": "22",
    "clipName": null,
    "beat": 69,
    "relBeat": 5,
    "duration": 0.25,
    "velocity": 100,
    "pitch": 60
  },
  {
    "clipIndex": 468,
    "trackId": "22",
    "clipName": null,
    "beat": 69.25,
    "relBeat": 5.25,
    "duration": 0.25,
    "velocity": 100,
    "pitch": 60
  },
  {
    "clipIndex": 0,
    "trackId": "89",
    "clipName": null,
    "beat": 69.5,
    "relBeat": 69.5,
    "duration": 0.25,
    "velocity": 100,
    "pitch": 60
  },
  {
    "clipIndex": 468,
    "trackId": "22",
    "clipName": null,
    "beat": 69.5,
    "relBeat": 5.5,
    "duration": 0.25,
    "velocity": 100,
    "pitch": 60
  },
  {
    "clipIndex": 468,
    "trackId": "22",
    "clipName": null,
    "beat": 69.75,
    "relBeat": 5.75,
    "duration": 0.25,
    "velocity": 100,
    "pitch": 60
  },
  {
    "clipIndex": 337,
    "trackId": "55",
    "clipName": null,
    "beat": 73,
    "relBeat": 73,
    "duration": 0.32496565934065935,
    "velocity": 100,
    "pitch": 60
  },
  {
    "clipIndex": 350,
    "trackId": "60",
    "clipName": null,
    "beat": 73,
    "relBeat": 73,
    "duration": 0.25,
    "velocity": 100,
    "pitch": 60
  },
  {
    "clipIndex": 468,
    "trackId": "22",
    "clipName": null,
    "beat": 73,
    "relBeat": 9,
    "duration": 0.25,
    "velocity": 100,
    "pitch": 60
  },
  {
    "clipIndex": 468,
    "trackId": "22",
    "clipName": null,
    "beat": 73.25,
    "relBeat": 9.25,
    "duration": 0.25,
    "velocity": 100,
    "pitch": 60
  },
  {
    "clipIndex": 0,
    "trackId": "89",
    "clipName": null,
    "beat": 73.5,
    "relBeat": 73.5,
    "duration": 0.25,
    "velocity": 100,
    "pitch": 60
  },
  {
    "clipIndex": 468,
    "trackId": "22",
    "clipName": null,
    "beat": 73.5,
    "relBeat": 9.5,
    "duration": 0.25,
    "velocity": 100,
    "pitch": 60
  },
  {
    "clipIndex": 468,
    "trackId": "22",
    "clipName": null,
    "beat": 73.75,
    "relBeat": 9.75,
    "duration": 0.25,
    "velocity": 100,
    "pitch": 60
  },
  {
    "clipIndex": 468,
    "trackId": "22",
    "clipName": null,
    "beat": 74,
    "relBeat": 10,
    "duration": 0.25,
    "velocity": 100,
    "pitch": 60
  },
  {
    "clipIndex": 0,
    "trackId": "89",
    "clipName": null,
    "beat": 74.25,
    "relBeat": 74.25,
    "duration": 0.25,
    "velocity": 100,
    "pitch": 60
  },
  {
    "clipIndex": 468,
    "trackId": "22",
    "clipName": null,
    "beat": 76,
    "relBeat": 12,
    "duration": 0.25,
    "velocity": 100,
    "pitch": 60
  },
  {
    "clipIndex": 468,
    "trackId": "22",
    "clipName": null,
    "beat": 76.25,
    "relBeat": 12.25,
    "duration": 0.25,
    "velocity": 100,
    "pitch": 60
  },
  {
    "clipIndex": 468,
    "trackId": "22",
    "clipName": null,
    "beat": 76.5,
    "relBeat": 12.5,
    "duration": 0.25,
    "velocity": 100,
    "pitch": 60
  },
  {
    "clipIndex": 468,
    "trackId": "22",
    "clipName": null,
    "beat": 76.75,
    "relBeat": 12.75,
    "duration": 0.25,
    "velocity": 100,
    "pitch": 60
  },
  {
    "clipIndex": 337,
    "trackId": "55",
    "clipName": null,
    "beat": 77,
    "relBeat": 77,
    "duration": 0.32496565934065935,
    "velocity": 100,
    "pitch": 60
  },
  {
    "clipIndex": 350,
    "trackId": "60",
    "clipName": null,
    "beat": 77,
    "relBeat": 77,
    "duration": 0.25,
    "velocity": 100,
    "pitch": 60
  },
  {
    "clipIndex": 468,
    "trackId": "22",
    "clipName": null,
    "beat": 77,
    "relBeat": 13,
    "duration": 0.25,
    "velocity": 100,
    "pitch": 60
  },
  {
    "clipIndex": 468,
    "trackId": "22",
    "clipName": null,
    "beat": 77.25,
    "relBeat": 13.25,
    "duration": 0.25,
    "velocity": 100,
    "pitch": 60
  },
  {
    "clipIndex": 0,
    "trackId": "89",
    "clipName": null,
    "beat": 77.5,
    "relBeat": 77.5,
    "duration": 0.25,
    "velocity": 100,
    "pitch": 60
  },
  {
    "clipIndex": 468,
    "trackId": "22",
    "clipName": null,
    "beat": 77.5,
    "relBeat": 13.5,
    "duration": 0.25,
    "velocity": 100,
    "pitch": 60
  },
  {
    "clipIndex": 468,
    "trackId": "22",
    "clipName": null,
    "beat": 77.75,
    "relBeat": 13.75,
    "duration": 0.25,
    "velocity": 100,
    "pitch": 60
  },
  {
    "clipIndex": 468,
    "trackId": "22",
    "clipName": null,
    "beat": 78,
    "relBeat": 14,
    "duration": 0.25,
    "velocity": 100,
    "pitch": 60
  },
  {
    "clipIndex": 0,
    "trackId": "89",
    "clipName": null,
    "beat": 78.25,
    "relBeat": 78.25,
    "duration": 0.25,
    "velocity": 100,
    "pitch": 60
  },
  {
    "clipIndex": 468,
    "trackId": "22",
    "clipName": null,
    "beat": 78.25,
    "relBeat": 14.25,
    "duration": 0.25,
    "velocity": 100,
    "pitch": 60
  },
  {
    "clipIndex": 468,
    "trackId": "22",
    "clipName": null,
    "beat": 78.5,
    "relBeat": 14.5,
    "duration": 0.25,
    "velocity": 100,
    "pitch": 60
  },
  {
    "clipIndex": 468,
    "trackId": "22",
    "clipName": null,
    "beat": 78.75,
    "relBeat": 14.75,
    "duration": 0.25,
    "velocity": 100,
    "pitch": 60
  },
  {
    "clipIndex": 0,
    "trackId": "89",
    "clipName": null,
    "beat": 79,
    "relBeat": 79,
    "duration": 0.25,
    "velocity": 100,
    "pitch": 60
  },
  {
    "clipIndex": 468,
    "trackId": "22",
    "clipName": null,
    "beat": 79,
    "relBeat": 15,
    "duration": 0.25,
    "velocity": 100,
    "pitch": 60
  },
  {
    "clipIndex": 468,
    "trackId": "22",
    "clipName": null,
    "beat": 79.25,
    "relBeat": 15.25,
    "duration": 0.25,
    "velocity": 100,
    "pitch": 60
  },
  {
    "clipIndex": 468,
    "trackId": "22",
    "clipName": null,
    "beat": 79.5,
    "relBeat": 15.5,
    "duration": 0.25,
    "velocity": 100,
    "pitch": 60
  },
  {
    "clipIndex": 0,
    "trackId": "89",
    "clipName": null,
    "beat": 79.75,
    "relBeat": 79.75,
    "duration": 0.25,
    "velocity": 100,
    "pitch": 60
  },
  {
    "clipIndex": 468,
    "trackId": "22",
    "clipName": null,
    "beat": 79.75,
    "relBeat": 15.75,
    "duration": 0.25,
    "velocity": 100,
    "pitch": 60
  },
  {
    "clipIndex": 0,
    "trackId": "89",
    "clipName": null,
    "beat": 80,
    "relBeat": 80,
    "duration": 0.25,
    "velocity": 100,
    "pitch": 60
  },
  {
    "clipIndex": 468,
    "trackId": "22",
    "clipName": null,
    "beat": 80,
    "relBeat": 16,
    "duration": 0.25,
    "velocity": 100,
    "pitch": 60
  },
  {
    "clipIndex": 0,
    "trackId": "89",
    "clipName": null,
    "beat": 80.25,
    "relBeat": 80.25,
    "duration": 0.25,
    "velocity": 100,
    "pitch": 60
  },
  {
    "clipIndex": 468,
    "trackId": "22",
    "clipName": null,
    "beat": 80.25,
    "relBeat": 16.25,
    "duration": 0.25,
    "velocity": 100,
    "pitch": 60
  },
  {
    "clipIndex": 468,
    "trackId": "22",
    "clipName": null,
    "beat": 80.5,
    "relBeat": 16.5,
    "duration": 0.25,
    "velocity": 100,
    "pitch": 60
  },
  {
    "clipIndex": 468,
    "trackId": "22",
    "clipName": null,
    "beat": 80.75,
    "relBeat": 16.75,
    "duration": 0.25,
    "velocity": 100,
    "pitch": 60
  },
  {
    "clipIndex": 337,
    "trackId": "55",
    "clipName": null,
    "beat": 81,
    "relBeat": 81,
    "duration": 0.32496565934065935,
    "velocity": 100,
    "pitch": 60
  },
  {
    "clipIndex": 350,
    "trackId": "60",
    "clipName": null,
    "beat": 81,
    "relBeat": 81,
    "duration": 0.25,
    "velocity": 100,
    "pitch": 60
  },
  {
    "clipIndex": 468,
    "trackId": "22",
    "clipName": null,
    "beat": 81,
    "relBeat": 17,
    "duration": 0.25,
    "velocity": 100,
    "pitch": 60
  },
  {
    "clipIndex": 468,
    "trackId": "22",
    "clipName": null,
    "beat": 81.25,
    "relBeat": 17.25,
    "duration": 0.25,
    "velocity": 100,
    "pitch": 60
  },
  {
    "clipIndex": 0,
    "trackId": "89",
    "clipName": null,
    "beat": 81.5,
    "relBeat": 81.5,
    "duration": 0.25,
    "velocity": 100,
    "pitch": 60
  },
  {
    "clipIndex": 468,
    "trackId": "22",
    "clipName": null,
    "beat": 81.5,
    "relBeat": 17.5,
    "duration": 0.25,
    "velocity": 100,
    "pitch": 60
  },
  {
    "clipIndex": 468,
    "trackId": "22",
    "clipName": null,
    "beat": 81.75,
    "relBeat": 17.75,
    "duration": 0.25,
    "velocity": 100,
    "pitch": 60
  },
  {
    "clipIndex": 0,
    "trackId": "89",
    "clipName": null,
    "beat": 82,
    "relBeat": 82,
    "duration": 0.25,
    "velocity": 100,
    "pitch": 60
  },
  {
    "clipIndex": 468,
    "trackId": "22",
    "clipName": null,
    "beat": 82,
    "relBeat": 18,
    "duration": 0.25,
    "velocity": 100,
    "pitch": 60
  },
  {
    "clipIndex": 468,
    "trackId": "22",
    "clipName": null,
    "beat": 82.25,
    "relBeat": 18.25,
    "duration": 0.25,
    "velocity": 100,
    "pitch": 60
  },
  {
    "clipIndex": 0,
    "trackId": "89",
    "clipName": null,
    "beat": 82.5,
    "relBeat": 82.5,
    "duration": 0.25,
    "velocity": 100,
    "pitch": 60
  },
  {
    "clipIndex": 468,
    "trackId": "22",
    "clipName": null,
    "beat": 82.5,
    "relBeat": 18.5,
    "duration": 0.25,
    "velocity": 100,
    "pitch": 60
  },
  {
    "clipIndex": 468,
    "trackId": "22",
    "clipName": null,
    "beat": 82.75,
    "relBeat": 18.75,
    "duration": 0.25,
    "velocity": 100,
    "pitch": 60
  },
  {
    "clipIndex": 0,
    "trackId": "89",
    "clipName": null,
    "beat": 83,
    "relBeat": 83,
    "duration": 0.25,
    "velocity": 100,
    "pitch": 60
  },
  {
    "clipIndex": 468,
    "trackId": "22",
    "clipName": null,
    "beat": 83,
    "relBeat": 19,
    "duration": 0.25,
    "velocity": 100,
    "pitch": 60
  },
  {
    "clipIndex": 468,
    "trackId": "22",
    "clipName": null,
    "beat": 83.25,
    "relBeat": 19.25,
    "duration": 0.25,
    "velocity": 100,
    "pitch": 60
  },
  {
    "clipIndex": 0,
    "trackId": "89",
    "clipName": null,
    "beat": 83.5,
    "relBeat": 83.5,
    "duration": 0.25,
    "velocity": 100,
    "pitch": 60
  },
  {
    "clipIndex": 468,
    "trackId": "22",
    "clipName": null,
    "beat": 83.5,
    "relBeat": 19.5,
    "duration": 0.25,
    "velocity": 100,
    "pitch": 60
  },
  {
    "clipIndex": 468,
    "trackId": "22",
    "clipName": null,
    "beat": 83.75,
    "relBeat": 19.75,
    "duration": 0.25,
    "velocity": 100,
    "pitch": 60
  },
  {
    "clipIndex": 0,
    "trackId": "89",
    "clipName": null,
    "beat": 84,
    "relBeat": 84,
    "duration": 0.25,
    "velocity": 100,
    "pitch": 60
  },
  {
    "clipIndex": 468,
    "trackId": "22",
    "clipName": null,
    "beat": 84,
    "relBeat": 20,
    "duration": 0.25,
    "velocity": 100,
    "pitch": 60
  },
  {
    "clipIndex": 0,
    "trackId": "89",
    "clipName": null,
    "beat": 84.25,
    "relBeat": 84.25,
    "duration": 0.25,
    "velocity": 100,
    "pitch": 60
  },
  {
    "clipIndex": 468,
    "trackId": "22",
    "clipName": null,
    "beat": 84.25,
    "relBeat": 20.25,
    "duration": 0.25,
    "velocity": 100,
    "pitch": 60
  },
  {
    "clipIndex": 468,
    "trackId": "22",
    "clipName": null,
    "beat": 84.5,
    "relBeat": 20.5,
    "duration": 0.25,
    "velocity": 100,
    "pitch": 60
  },
  {
    "clipIndex": 468,
    "trackId": "22",
    "clipName": null,
    "beat": 84.75,
    "relBeat": 20.75,
    "duration": 0.25,
    "velocity": 100,
    "pitch": 60
  },
  {
    "clipIndex": 337,
    "trackId": "55",
    "clipName": null,
    "beat": 85,
    "relBeat": 85,
    "duration": 0.32496565934065935,
    "velocity": 100,
    "pitch": 60
  },
  {
    "clipIndex": 350,
    "trackId": "60",
    "clipName": null,
    "beat": 85,
    "relBeat": 85,
    "duration": 0.25,
    "velocity": 100,
    "pitch": 60
  },
  {
    "clipIndex": 468,
    "trackId": "22",
    "clipName": null,
    "beat": 85,
    "relBeat": 21,
    "duration": 0.25,
    "velocity": 100,
    "pitch": 60
  },
  {
    "clipIndex": 468,
    "trackId": "22",
    "clipName": null,
    "beat": 85.25,
    "relBeat": 21.25,
    "duration": 0.25,
    "velocity": 100,
    "pitch": 60
  },
  {
    "clipIndex": 0,
    "trackId": "89",
    "clipName": null,
    "beat": 85.5,
    "relBeat": 85.5,
    "duration": 0.25,
    "velocity": 100,
    "pitch": 60
  },
  {
    "clipIndex": 0,
    "trackId": "89",
    "clipName": null,
    "beat": 88,
    "relBeat": 88,
    "duration": 0.25,
    "velocity": 100,
    "pitch": 60
  },
  {
    "clipIndex": 468,
    "trackId": "22",
    "clipName": null,
    "beat": 88,
    "relBeat": 24,
    "duration": 0.25,
    "velocity": 100,
    "pitch": 60
  },
  {
    "clipIndex": 0,
    "trackId": "89",
    "clipName": null,
    "beat": 88.25,
    "relBeat": 88.25,
    "duration": 0.25,
    "velocity": 100,
    "pitch": 60
  },
  {
    "clipIndex": 468,
    "trackId": "22",
    "clipName": null,
    "beat": 88.25,
    "relBeat": 24.25,
    "duration": 0.25,
    "velocity": 100,
    "pitch": 60
  },
  {
    "clipIndex": 468,
    "trackId": "22",
    "clipName": null,
    "beat": 88.5,
    "relBeat": 24.5,
    "duration": 0.25,
    "velocity": 100,
    "pitch": 60
  },
  {
    "clipIndex": 468,
    "trackId": "22",
    "clipName": null,
    "beat": 88.75,
    "relBeat": 24.75,
    "duration": 0.25,
    "velocity": 100,
    "pitch": 60
  },
  {
    "clipIndex": 337,
    "trackId": "55",
    "clipName": null,
    "beat": 89,
    "relBeat": 89,
    "duration": 0.32496565934065935,
    "velocity": 100,
    "pitch": 60
  },
  {
    "clipIndex": 350,
    "trackId": "60",
    "clipName": null,
    "beat": 89,
    "relBeat": 89,
    "duration": 0.25,
    "velocity": 100,
    "pitch": 60
  },
  {
    "clipIndex": 468,
    "trackId": "22",
    "clipName": null,
    "beat": 89,
    "relBeat": 25,
    "duration": 0.25,
    "velocity": 100,
    "pitch": 60
  },
  {
    "clipIndex": 468,
    "trackId": "22",
    "clipName": null,
    "beat": 89.25,
    "relBeat": 25.25,
    "duration": 0.25,
    "velocity": 100,
    "pitch": 60
  },
  {
    "clipIndex": 0,
    "trackId": "89",
    "clipName": null,
    "beat": 89.5,
    "relBeat": 89.5,
    "duration": 0.25,
    "velocity": 100,
    "pitch": 60
  },
  {
    "clipIndex": 468,
    "trackId": "22",
    "clipName": null,
    "beat": 89.5,
    "relBeat": 25.5,
    "duration": 0.25,
    "velocity": 100,
    "pitch": 60
  },
  {
    "clipIndex": 468,
    "trackId": "22",
    "clipName": null,
    "beat": 89.75,
    "relBeat": 25.75,
    "duration": 0.25,
    "velocity": 100,
    "pitch": 60
  },
  {
    "clipIndex": 0,
    "trackId": "89",
    "clipName": null,
    "beat": 90,
    "relBeat": 90,
    "duration": 0.25,
    "velocity": 100,
    "pitch": 60
  },
  {
    "clipIndex": 468,
    "trackId": "22",
    "clipName": null,
    "beat": 90,
    "relBeat": 26,
    "duration": 0.25,
    "velocity": 100,
    "pitch": 60
  },
  {
    "clipIndex": 468,
    "trackId": "22",
    "clipName": null,
    "beat": 90.25,
    "relBeat": 26.25,
    "duration": 0.25,
    "velocity": 100,
    "pitch": 60
  },
  {
    "clipIndex": 0,
    "trackId": "89",
    "clipName": null,
    "beat": 90.5,
    "relBeat": 90.5,
    "duration": 0.25,
    "velocity": 100,
    "pitch": 60
  },
  {
    "clipIndex": 468,
    "trackId": "22",
    "clipName": null,
    "beat": 90.5,
    "relBeat": 26.5,
    "duration": 0.25,
    "velocity": 100,
    "pitch": 60
  },
  {
    "clipIndex": 468,
    "trackId": "22",
    "clipName": null,
    "beat": 90.75,
    "relBeat": 26.75,
    "duration": 0.25,
    "velocity": 100,
    "pitch": 60
  },
  {
    "clipIndex": 0,
    "trackId": "89",
    "clipName": null,
    "beat": 91,
    "relBeat": 91,
    "duration": 0.25,
    "velocity": 100,
    "pitch": 60
  },
  {
    "clipIndex": 468,
    "trackId": "22",
    "clipName": null,
    "beat": 91,
    "relBeat": 27,
    "duration": 0.25,
    "velocity": 100,
    "pitch": 60
  },
  {
    "clipIndex": 468,
    "trackId": "22",
    "clipName": null,
    "beat": 91.25,
    "relBeat": 27.25,
    "duration": 0.25,
    "velocity": 100,
    "pitch": 60
  },
  {
    "clipIndex": 0,
    "trackId": "89",
    "clipName": null,
    "beat": 91.5,
    "relBeat": 91.5,
    "duration": 0.25,
    "velocity": 100,
    "pitch": 60
  },
  {
    "clipIndex": 468,
    "trackId": "22",
    "clipName": null,
    "beat": 91.5,
    "relBeat": 27.5,
    "duration": 0.25,
    "velocity": 100,
    "pitch": 60
  },
  {
    "clipIndex": 468,
    "trackId": "22",
    "clipName": null,
    "beat": 91.75,
    "relBeat": 27.75,
    "duration": 0.25,
    "velocity": 100,
    "pitch": 60
  },
  {
    "clipIndex": 0,
    "trackId": "89",
    "clipName": null,
    "beat": 92,
    "relBeat": 92,
    "duration": 0.25,
    "velocity": 100,
    "pitch": 60
  },
  {
    "clipIndex": 468,
    "trackId": "22",
    "clipName": null,
    "beat": 92,
    "relBeat": 28,
    "duration": 0.25,
    "velocity": 100,
    "pitch": 60
  },
  {
    "clipIndex": 468,
    "trackId": "22",
    "clipName": null,
    "beat": 92.25,
    "relBeat": 28.25,
    "duration": 0.25,
    "velocity": 100,
    "pitch": 60
  },
  {
    "clipIndex": 0,
    "trackId": "89",
    "clipName": null,
    "beat": 92.5,
    "relBeat": 92.5,
    "duration": 0.25,
    "velocity": 100,
    "pitch": 60
  },
  {
    "clipIndex": 468,
    "trackId": "22",
    "clipName": null,
    "beat": 92.5,
    "relBeat": 28.5,
    "duration": 0.25,
    "velocity": 100,
    "pitch": 60
  },
  {
    "clipIndex": 468,
    "trackId": "22",
    "clipName": null,
    "beat": 92.75,
    "relBeat": 28.75,
    "duration": 0.25,
    "velocity": 100,
    "pitch": 60
  },
  {
    "clipIndex": 0,
    "trackId": "89",
    "clipName": null,
    "beat": 93,
    "relBeat": 93,
    "duration": 0.25,
    "velocity": 100,
    "pitch": 60
  },
  {
    "clipIndex": 468,
    "trackId": "22",
    "clipName": null,
    "beat": 93,
    "relBeat": 29,
    "duration": 0.25,
    "velocity": 100,
    "pitch": 60
  },
  {
    "clipIndex": 468,
    "trackId": "22",
    "clipName": null,
    "beat": 93.25,
    "relBeat": 29.25,
    "duration": 0.25,
    "velocity": 100,
    "pitch": 60
  },
  {
    "clipIndex": 0,
    "trackId": "89",
    "clipName": null,
    "beat": 93.5,
    "relBeat": 93.5,
    "duration": 0.25,
    "velocity": 100,
    "pitch": 60
  },
  {
    "clipIndex": 468,
    "trackId": "22",
    "clipName": null,
    "beat": 93.5,
    "relBeat": 29.5,
    "duration": 0.25,
    "velocity": 100,
    "pitch": 60
  },
  {
    "clipIndex": 468,
    "trackId": "22",
    "clipName": null,
    "beat": 93.75,
    "relBeat": 29.75,
    "duration": 0.25,
    "velocity": 100,
    "pitch": 60
  },
  {
    "clipIndex": 0,
    "trackId": "89",
    "clipName": null,
    "beat": 94,
    "relBeat": 94,
    "duration": 0.25,
    "velocity": 100,
    "pitch": 60
  },
  {
    "clipIndex": 468,
    "trackId": "22",
    "clipName": null,
    "beat": 94,
    "relBeat": 30,
    "duration": 0.25,
    "velocity": 100,
    "pitch": 60
  },
  {
    "clipIndex": 468,
    "trackId": "22",
    "clipName": null,
    "beat": 94.25,
    "relBeat": 30.25,
    "duration": 0.25,
    "velocity": 100,
    "pitch": 60
  },
  {
    "clipIndex": 0,
    "trackId": "89",
    "clipName": null,
    "beat": 94.5,
    "relBeat": 94.5,
    "duration": 0.25,
    "velocity": 100,
    "pitch": 60
  },
  {
    "clipIndex": 468,
    "trackId": "22",
    "clipName": null,
    "beat": 94.5,
    "relBeat": 30.5,
    "duration": 0.25,
    "velocity": 100,
    "pitch": 60
  },
  {
    "clipIndex": 468,
    "trackId": "22",
    "clipName": null,
    "beat": 94.75,
    "relBeat": 30.75,
    "duration": 0.25,
    "velocity": 100,
    "pitch": 60
  },
  {
    "clipIndex": 0,
    "trackId": "89",
    "clipName": null,
    "beat": 95,
    "relBeat": 95,
    "duration": 0.25,
    "velocity": 100,
    "pitch": 60
  },
  {
    "clipIndex": 468,
    "trackId": "22",
    "clipName": null,
    "beat": 95,
    "relBeat": 31,
    "duration": 0.25,
    "velocity": 100,
    "pitch": 60
  },
  {
    "clipIndex": 468,
    "trackId": "22",
    "clipName": null,
    "beat": 95.25,
    "relBeat": 31.25,
    "duration": 0.25,
    "velocity": 100,
    "pitch": 60
  },
  {
    "clipIndex": 0,
    "trackId": "89",
    "clipName": null,
    "beat": 95.5,
    "relBeat": 95.5,
    "duration": 0.25,
    "velocity": 100,
    "pitch": 60
  },
  {
    "clipIndex": 468,
    "trackId": "22",
    "clipName": null,
    "beat": 95.5,
    "relBeat": 31.5,
    "duration": 0.25,
    "velocity": 100,
    "pitch": 60
  },
  {
    "clipIndex": 468,
    "trackId": "22",
    "clipName": null,
    "beat": 95.75,
    "relBeat": 31.75,
    "duration": 0.25,
    "velocity": 100,
    "pitch": 60
  },
  {
    "clipIndex": 0,
    "trackId": "89",
    "clipName": null,
    "beat": 96,
    "relBeat": 96,
    "duration": 0.25,
    "velocity": 100,
    "pitch": 60
  },
  {
    "clipIndex": 0,
    "trackId": "89",
    "clipName": null,
    "beat": 96.25,
    "relBeat": 96.25,
    "duration": 0.25,
    "velocity": 100,
    "pitch": 60
  },
  {
    "clipIndex": 337,
    "trackId": "55",
    "clipName": null,
    "beat": 97,
    "relBeat": 97,
    "duration": 0.32496565934065935,
    "velocity": 100,
    "pitch": 60
  },
  {
    "clipIndex": 0,
    "trackId": "89",
    "clipName": null,
    "beat": 97.5,
    "relBeat": 97.5,
    "duration": 0.25,
    "velocity": 100,
    "pitch": 60
  },
  {
    "clipIndex": 0,
    "trackId": "89",
    "clipName": null,
    "beat": 98.25,
    "relBeat": 98.25,
    "duration": 0.25,
    "velocity": 100,
    "pitch": 60
  },
  {
    "clipIndex": 0,
    "trackId": "89",
    "clipName": null,
    "beat": 99,
    "relBeat": 99,
    "duration": 0.25,
    "velocity": 100,
    "pitch": 60
  },
  {
    "clipIndex": 0,
    "trackId": "89",
    "clipName": null,
    "beat": 100,
    "relBeat": 100,
    "duration": 0.25,
    "velocity": 100,
    "pitch": 60
  },
  {
    "clipIndex": 0,
    "trackId": "89",
    "clipName": null,
    "beat": 100.25,
    "relBeat": 100.25,
    "duration": 0.25,
    "velocity": 100,
    "pitch": 60
  },
  {
    "clipIndex": 337,
    "trackId": "55",
    "clipName": null,
    "beat": 101,
    "relBeat": 101,
    "duration": 0.32496565934065935,
    "velocity": 100,
    "pitch": 60
  },
  {
    "clipIndex": 0,
    "trackId": "89",
    "clipName": null,
    "beat": 101.5,
    "relBeat": 101.5,
    "duration": 0.25,
    "velocity": 100,
    "pitch": 60
  },
  {
    "clipIndex": 0,
    "trackId": "89",
    "clipName": null,
    "beat": 102.25,
    "relBeat": 102.25,
    "duration": 0.25,
    "velocity": 100,
    "pitch": 60
  },
  {
    "clipIndex": 0,
    "trackId": "89",
    "clipName": null,
    "beat": 103,
    "relBeat": 103,
    "duration": 0.25,
    "velocity": 100,
    "pitch": 60
  },
  {
    "clipIndex": 0,
    "trackId": "89",
    "clipName": null,
    "beat": 104,
    "relBeat": 104,
    "duration": 0.25,
    "velocity": 100,
    "pitch": 60
  },
  {
    "clipIndex": 0,
    "trackId": "89",
    "clipName": null,
    "beat": 104.25,
    "relBeat": 104.25,
    "duration": 0.25,
    "velocity": 100,
    "pitch": 60
  },
  {
    "clipIndex": 337,
    "trackId": "55",
    "clipName": null,
    "beat": 105,
    "relBeat": 105,
    "duration": 0.32496565934065935,
    "velocity": 100,
    "pitch": 60
  },
  {
    "clipIndex": 0,
    "trackId": "89",
    "clipName": null,
    "beat": 105.5,
    "relBeat": 105.5,
    "duration": 0.25,
    "velocity": 100,
    "pitch": 60
  },
  {
    "clipIndex": 0,
    "trackId": "89",
    "clipName": null,
    "beat": 106.25,
    "relBeat": 106.25,
    "duration": 0.25,
    "velocity": 100,
    "pitch": 60
  },
  {
    "clipIndex": 0,
    "trackId": "89",
    "clipName": null,
    "beat": 107,
    "relBeat": 107,
    "duration": 0.25,
    "velocity": 100,
    "pitch": 60
  },
  {
    "clipIndex": 0,
    "trackId": "89",
    "clipName": null,
    "beat": 108,
    "relBeat": 108,
    "duration": 0.25,
    "velocity": 100,
    "pitch": 60
  },
  {
    "clipIndex": 0,
    "trackId": "89",
    "clipName": null,
    "beat": 108.25,
    "relBeat": 108.25,
    "duration": 0.25,
    "velocity": 100,
    "pitch": 60
  },
  {
    "clipIndex": 337,
    "trackId": "55",
    "clipName": null,
    "beat": 109,
    "relBeat": 109,
    "duration": 0.32496565934065935,
    "velocity": 100,
    "pitch": 60
  },
  {
    "clipIndex": 0,
    "trackId": "89",
    "clipName": null,
    "beat": 109.5,
    "relBeat": 109.5,
    "duration": 0.25,
    "velocity": 100,
    "pitch": 60
  },
  {
    "clipIndex": 0,
    "trackId": "89",
    "clipName": null,
    "beat": 110.25,
    "relBeat": 110.25,
    "duration": 0.25,
    "velocity": 100,
    "pitch": 60
  },
  {
    "clipIndex": 0,
    "trackId": "89",
    "clipName": null,
    "beat": 111,
    "relBeat": 111,
    "duration": 0.25,
    "velocity": 100,
    "pitch": 60
  },
  {
    "clipIndex": 0,
    "trackId": "89",
    "clipName": null,
    "beat": 111.25,
    "relBeat": 111.25,
    "duration": 0.25,
    "velocity": 100,
    "pitch": 60
  },
  {
    "clipIndex": 0,
    "trackId": "89",
    "clipName": null,
    "beat": 111.5,
    "relBeat": 111.5,
    "duration": 0.25,
    "velocity": 100,
    "pitch": 60
  },
  {
    "clipIndex": 0,
    "trackId": "89",
    "clipName": null,
    "beat": 112,
    "relBeat": 112,
    "duration": 0.25,
    "velocity": 100,
    "pitch": 60
  },
  {
    "clipIndex": 0,
    "trackId": "89",
    "clipName": null,
    "beat": 112.25,
    "relBeat": 112.25,
    "duration": 0.25,
    "velocity": 100,
    "pitch": 60
  },
  {
    "clipIndex": 337,
    "trackId": "55",
    "clipName": null,
    "beat": 113,
    "relBeat": 113,
    "duration": 0.32496565934065935,
    "velocity": 100,
    "pitch": 60
  },
  {
    "clipIndex": 0,
    "trackId": "89",
    "clipName": null,
    "beat": 113.5,
    "relBeat": 113.5,
    "duration": 0.25,
    "velocity": 100,
    "pitch": 60
  },
  {
    "clipIndex": 0,
    "trackId": "89",
    "clipName": null,
    "beat": 114.25,
    "relBeat": 114.25,
    "duration": 0.25,
    "velocity": 100,
    "pitch": 60
  },
  {
    "clipIndex": 0,
    "trackId": "89",
    "clipName": null,
    "beat": 115,
    "relBeat": 115,
    "duration": 0.25,
    "velocity": 100,
    "pitch": 60
  },
  {
    "clipIndex": 0,
    "trackId": "89",
    "clipName": null,
    "beat": 116,
    "relBeat": 116,
    "duration": 0.25,
    "velocity": 100,
    "pitch": 60
  },
  {
    "clipIndex": 0,
    "trackId": "89",
    "clipName": null,
    "beat": 116.25,
    "relBeat": 116.25,
    "duration": 0.25,
    "velocity": 100,
    "pitch": 60
  },
  {
    "clipIndex": 337,
    "trackId": "55",
    "clipName": null,
    "beat": 117,
    "relBeat": 117,
    "duration": 0.32496565934065935,
    "velocity": 100,
    "pitch": 60
  },
  {
    "clipIndex": 0,
    "trackId": "89",
    "clipName": null,
    "beat": 117.5,
    "relBeat": 117.5,
    "duration": 0.25,
    "velocity": 100,
    "pitch": 60
  },
  {
    "clipIndex": 0,
    "trackId": "89",
    "clipName": null,
    "beat": 118.25,
    "relBeat": 118.25,
    "duration": 0.25,
    "velocity": 100,
    "pitch": 60
  },
  {
    "clipIndex": 0,
    "trackId": "89",
    "clipName": null,
    "beat": 119,
    "relBeat": 119,
    "duration": 0.25,
    "velocity": 100,
    "pitch": 60
  },
  {
    "clipIndex": 0,
    "trackId": "89",
    "clipName": null,
    "beat": 120,
    "relBeat": 120,
    "duration": 0.25,
    "velocity": 100,
    "pitch": 60
  },
  {
    "clipIndex": 0,
    "trackId": "89",
    "clipName": null,
    "beat": 120.25,
    "relBeat": 120.25,
    "duration": 0.25,
    "velocity": 100,
    "pitch": 60
  },
  {
    "clipIndex": 0,
    "trackId": "89",
    "clipName": null,
    "beat": 121,
    "relBeat": 121,
    "duration": 0.25,
    "velocity": 100,
    "pitch": 60
  },
  {
    "clipIndex": 0,
    "trackId": "89",
    "clipName": null,
    "beat": 121.25,
    "relBeat": 121.25,
    "duration": 0.25,
    "velocity": 100,
    "pitch": 60
  },
  {
    "clipIndex": 0,
    "trackId": "89",
    "clipName": null,
    "beat": 122,
    "relBeat": 122,
    "duration": 0.25,
    "velocity": 100,
    "pitch": 60
  },
  {
    "clipIndex": 0,
    "trackId": "89",
    "clipName": null,
    "beat": 122.25,
    "relBeat": 122.25,
    "duration": 0.25,
    "velocity": 100,
    "pitch": 60
  },
  {
    "clipIndex": 0,
    "trackId": "89",
    "clipName": null,
    "beat": 123,
    "relBeat": 123,
    "duration": 0.25,
    "velocity": 100,
    "pitch": 60
  },
  {
    "clipIndex": 0,
    "trackId": "89",
    "clipName": null,
    "beat": 123.25,
    "relBeat": 123.25,
    "duration": 0.25,
    "velocity": 100,
    "pitch": 60
  },
  {
    "clipIndex": 0,
    "trackId": "89",
    "clipName": null,
    "beat": 124,
    "relBeat": 124,
    "duration": 0.25,
    "velocity": 100,
    "pitch": 60
  },
  {
    "clipIndex": 0,
    "trackId": "89",
    "clipName": null,
    "beat": 124.75,
    "relBeat": 124.75,
    "duration": 0.25,
    "velocity": 100,
    "pitch": 60
  },
  {
    "clipIndex": 0,
    "trackId": "89",
    "clipName": null,
    "beat": 125.5,
    "relBeat": 125.5,
    "duration": 0.25,
    "velocity": 100,
    "pitch": 60
  },
  {
    "clipIndex": 0,
    "trackId": "89",
    "clipName": null,
    "beat": 126.25,
    "relBeat": 126.25,
    "duration": 0.25,
    "velocity": 100,
    "pitch": 60
  },
  {
    "clipIndex": 337,
    "trackId": "55",
    "clipName": null,
    "beat": 127,
    "relBeat": 127,
    "duration": 0.32496565934065935,
    "velocity": 100,
    "pitch": 60
  },
  {
    "clipIndex": 0,
    "trackId": "89",
    "clipName": null,
    "beat": 128,
    "relBeat": 128,
    "duration": 0.25,
    "velocity": 100,
    "pitch": 60
  },
  {
    "clipIndex": 0,
    "trackId": "89",
    "clipName": null,
    "beat": 128.25,
    "relBeat": 128.25,
    "duration": 0.25,
    "velocity": 100,
    "pitch": 60
  },
  {
    "clipIndex": 337,
    "trackId": "55",
    "clipName": null,
    "beat": 129,
    "relBeat": 129,
    "duration": 0.32496565934065935,
    "velocity": 100,
    "pitch": 60
  },
  {
    "clipIndex": 350,
    "trackId": "60",
    "clipName": null,
    "beat": 129,
    "relBeat": 129,
    "duration": 0.25,
    "velocity": 100,
    "pitch": 60
  },
  {
    "clipIndex": 0,
    "trackId": "89",
    "clipName": null,
    "beat": 129.5,
    "relBeat": 129.5,
    "duration": 0.25,
    "velocity": 100,
    "pitch": 60
  },
  {
    "clipIndex": 0,
    "trackId": "89",
    "clipName": null,
    "beat": 130.25,
    "relBeat": 130.25,
    "duration": 0.25,
    "velocity": 100,
    "pitch": 60
  },
  {
    "clipIndex": 0,
    "trackId": "89",
    "clipName": null,
    "beat": 131,
    "relBeat": 131,
    "duration": 0.25,
    "velocity": 100,
    "pitch": 60
  },
  {
    "clipIndex": 0,
    "trackId": "89",
    "clipName": null,
    "beat": 132,
    "relBeat": 132,
    "duration": 0.25,
    "velocity": 100,
    "pitch": 60
  },
  {
    "clipIndex": 0,
    "trackId": "89",
    "clipName": null,
    "beat": 132.25,
    "relBeat": 132.25,
    "duration": 0.25,
    "velocity": 100,
    "pitch": 60
  },
  {
    "clipIndex": 337,
    "trackId": "55",
    "clipName": null,
    "beat": 133,
    "relBeat": 133,
    "duration": 0.32496565934065935,
    "velocity": 100,
    "pitch": 60
  },
  {
    "clipIndex": 350,
    "trackId": "60",
    "clipName": null,
    "beat": 133,
    "relBeat": 133,
    "duration": 0.25,
    "velocity": 100,
    "pitch": 60
  },
  {
    "clipIndex": 0,
    "trackId": "89",
    "clipName": null,
    "beat": 133.5,
    "relBeat": 133.5,
    "duration": 0.25,
    "velocity": 100,
    "pitch": 60
  },
  {
    "clipIndex": 0,
    "trackId": "89",
    "clipName": null,
    "beat": 134.25,
    "relBeat": 134.25,
    "duration": 0.25,
    "velocity": 100,
    "pitch": 60
  },
  {
    "clipIndex": 0,
    "trackId": "89",
    "clipName": null,
    "beat": 135,
    "relBeat": 135,
    "duration": 0.25,
    "velocity": 100,
    "pitch": 60
  },
  {
    "clipIndex": 0,
    "trackId": "89",
    "clipName": null,
    "beat": 136,
    "relBeat": 136,
    "duration": 0.25,
    "velocity": 100,
    "pitch": 60
  },
  {
    "clipIndex": 0,
    "trackId": "89",
    "clipName": null,
    "beat": 136.25,
    "relBeat": 136.25,
    "duration": 0.25,
    "velocity": 100,
    "pitch": 60
  },
  {
    "clipIndex": 337,
    "trackId": "55",
    "clipName": null,
    "beat": 137,
    "relBeat": 137,
    "duration": 0.32496565934065935,
    "velocity": 100,
    "pitch": 60
  },
  {
    "clipIndex": 350,
    "trackId": "60",
    "clipName": null,
    "beat": 137,
    "relBeat": 137,
    "duration": 0.25,
    "velocity": 100,
    "pitch": 60
  },
  {
    "clipIndex": 0,
    "trackId": "89",
    "clipName": null,
    "beat": 137.5,
    "relBeat": 137.5,
    "duration": 0.25,
    "velocity": 100,
    "pitch": 60
  },
  {
    "clipIndex": 0,
    "trackId": "89",
    "clipName": null,
    "beat": 138.25,
    "relBeat": 138.25,
    "duration": 0.25,
    "velocity": 100,
    "pitch": 60
  },
  {
    "clipIndex": 0,
    "trackId": "89",
    "clipName": null,
    "beat": 139,
    "relBeat": 139,
    "duration": 0.25,
    "velocity": 100,
    "pitch": 60
  },
  {
    "clipIndex": 0,
    "trackId": "89",
    "clipName": null,
    "beat": 140,
    "relBeat": 140,
    "duration": 0.25,
    "velocity": 100,
    "pitch": 60
  },
  {
    "clipIndex": 0,
    "trackId": "89",
    "clipName": null,
    "beat": 140.25,
    "relBeat": 140.25,
    "duration": 0.25,
    "velocity": 100,
    "pitch": 60
  },
  {
    "clipIndex": 0,
    "trackId": "89",
    "clipName": null,
    "beat": 144,
    "relBeat": 144,
    "duration": 0.25,
    "velocity": 100,
    "pitch": 60
  },
  {
    "clipIndex": 0,
    "trackId": "89",
    "clipName": null,
    "beat": 144.25,
    "relBeat": 144.25,
    "duration": 0.25,
    "velocity": 100,
    "pitch": 60
  },
  {
    "clipIndex": 337,
    "trackId": "55",
    "clipName": null,
    "beat": 145,
    "relBeat": 145,
    "duration": 0.32496565934065935,
    "velocity": 100,
    "pitch": 60
  },
  {
    "clipIndex": 350,
    "trackId": "60",
    "clipName": null,
    "beat": 145,
    "relBeat": 145,
    "duration": 0.25,
    "velocity": 100,
    "pitch": 60
  },
  {
    "clipIndex": 0,
    "trackId": "89",
    "clipName": null,
    "beat": 145.5,
    "relBeat": 145.5,
    "duration": 0.25,
    "velocity": 100,
    "pitch": 60
  },
  {
    "clipIndex": 0,
    "trackId": "89",
    "clipName": null,
    "beat": 146.25,
    "relBeat": 146.25,
    "duration": 0.25,
    "velocity": 100,
    "pitch": 60
  },
  {
    "clipIndex": 0,
    "trackId": "89",
    "clipName": null,
    "beat": 147,
    "relBeat": 147,
    "duration": 0.25,
    "velocity": 100,
    "pitch": 60
  },
  {
    "clipIndex": 0,
    "trackId": "89",
    "clipName": null,
    "beat": 148,
    "relBeat": 148,
    "duration": 0.25,
    "velocity": 100,
    "pitch": 60
  },
  {
    "clipIndex": 0,
    "trackId": "89",
    "clipName": null,
    "beat": 148.25,
    "relBeat": 148.25,
    "duration": 0.25,
    "velocity": 100,
    "pitch": 60
  },
  {
    "clipIndex": 337,
    "trackId": "55",
    "clipName": null,
    "beat": 149,
    "relBeat": 149,
    "duration": 0.32496565934065935,
    "velocity": 100,
    "pitch": 60
  },
  {
    "clipIndex": 350,
    "trackId": "60",
    "clipName": null,
    "beat": 149,
    "relBeat": 149,
    "duration": 0.25,
    "velocity": 100,
    "pitch": 60
  },
  {
    "clipIndex": 0,
    "trackId": "89",
    "clipName": null,
    "beat": 149.5,
    "relBeat": 149.5,
    "duration": 0.25,
    "velocity": 100,
    "pitch": 60
  },
  {
    "clipIndex": 0,
    "trackId": "89",
    "clipName": null,
    "beat": 150,
    "relBeat": 150,
    "duration": 0.25,
    "velocity": 100,
    "pitch": 60
  },
  {
    "clipIndex": 0,
    "trackId": "89",
    "clipName": null,
    "beat": 150.5,
    "relBeat": 150.5,
    "duration": 0.25,
    "velocity": 100,
    "pitch": 60
  },
  {
    "clipIndex": 0,
    "trackId": "89",
    "clipName": null,
    "beat": 151,
    "relBeat": 151,
    "duration": 0.25,
    "velocity": 100,
    "pitch": 60
  },
  {
    "clipIndex": 0,
    "trackId": "89",
    "clipName": null,
    "beat": 152,
    "relBeat": 152,
    "duration": 0.25,
    "velocity": 100,
    "pitch": 60
  },
  {
    "clipIndex": 0,
    "trackId": "89",
    "clipName": null,
    "beat": 152.25,
    "relBeat": 152.25,
    "duration": 0.25,
    "velocity": 100,
    "pitch": 60
  },
  {
    "clipIndex": 337,
    "trackId": "55",
    "clipName": null,
    "beat": 153,
    "relBeat": 153,
    "duration": 0.32496565934065935,
    "velocity": 100,
    "pitch": 60
  },
  {
    "clipIndex": 350,
    "trackId": "60",
    "clipName": null,
    "beat": 153,
    "relBeat": 153,
    "duration": 0.25,
    "velocity": 100,
    "pitch": 60
  },
  {
    "clipIndex": 0,
    "trackId": "89",
    "clipName": null,
    "beat": 153.5,
    "relBeat": 153.5,
    "duration": 0.25,
    "velocity": 100,
    "pitch": 60
  },
  {
    "clipIndex": 337,
    "trackId": "55",
    "clipName": null,
    "beat": 154,
    "relBeat": 154,
    "duration": 0.32496565934065935,
    "velocity": 100,
    "pitch": 60
  },
  {
    "clipIndex": 350,
    "trackId": "60",
    "clipName": null,
    "beat": 154,
    "relBeat": 154,
    "duration": 0.25,
    "velocity": 100,
    "pitch": 60
  },
  {
    "clipIndex": 0,
    "trackId": "89",
    "clipName": null,
    "beat": 154.5,
    "relBeat": 154.5,
    "duration": 0.25,
    "velocity": 100,
    "pitch": 60
  },
  {
    "clipIndex": 337,
    "trackId": "55",
    "clipName": null,
    "beat": 155,
    "relBeat": 155,
    "duration": 0.32496565934065935,
    "velocity": 100,
    "pitch": 60
  },
  {
    "clipIndex": 350,
    "trackId": "60",
    "clipName": null,
    "beat": 155,
    "relBeat": 155,
    "duration": 0.25,
    "velocity": 100,
    "pitch": 60
  },
  {
    "clipIndex": 0,
    "trackId": "89",
    "clipName": null,
    "beat": 155.5,
    "relBeat": 155.5,
    "duration": 0.25,
    "velocity": 100,
    "pitch": 60
  },
  {
    "clipIndex": 337,
    "trackId": "55",
    "clipName": null,
    "beat": 156,
    "relBeat": 156,
    "duration": 0.32496565934065935,
    "velocity": 100,
    "pitch": 60
  },
  {
    "clipIndex": 350,
    "trackId": "60",
    "clipName": null,
    "beat": 156,
    "relBeat": 156,
    "duration": 0.25,
    "velocity": 100,
    "pitch": 60
  },
  {
    "clipIndex": 0,
    "trackId": "89",
    "clipName": null,
    "beat": 156.5,
    "relBeat": 156.5,
    "duration": 0.25,
    "velocity": 100,
    "pitch": 60
  },
  {
    "clipIndex": 337,
    "trackId": "55",
    "clipName": null,
    "beat": 157,
    "relBeat": 157,
    "duration": 0.32496565934065935,
    "velocity": 100,
    "pitch": 60
  },
  {
    "clipIndex": 350,
    "trackId": "60",
    "clipName": null,
    "beat": 157,
    "relBeat": 157,
    "duration": 0.25,
    "velocity": 100,
    "pitch": 60
  },
  {
    "clipIndex": 0,
    "trackId": "89",
    "clipName": null,
    "beat": 157.5,
    "relBeat": 157.5,
    "duration": 0.25,
    "velocity": 100,
    "pitch": 60
  },
  {
    "clipIndex": 337,
    "trackId": "55",
    "clipName": null,
    "beat": 158,
    "relBeat": 158,
    "duration": 0.32496565934065935,
    "velocity": 100,
    "pitch": 60
  },
  {
    "clipIndex": 350,
    "trackId": "60",
    "clipName": null,
    "beat": 158,
    "relBeat": 158,
    "duration": 0.25,
    "velocity": 100,
    "pitch": 60
  },
  {
    "clipIndex": 0,
    "trackId": "89",
    "clipName": null,
    "beat": 158.5,
    "relBeat": 158.5,
    "duration": 0.25,
    "velocity": 100,
    "pitch": 60
  },
  {
    "clipIndex": 337,
    "trackId": "55",
    "clipName": null,
    "beat": 159,
    "relBeat": 159,
    "duration": 0.32496565934065935,
    "velocity": 100,
    "pitch": 60
  },
  {
    "clipIndex": 350,
    "trackId": "60",
    "clipName": null,
    "beat": 159,
    "relBeat": 159,
    "duration": 0.25,
    "velocity": 100,
    "pitch": 60
  },
  {
    "clipIndex": 337,
    "trackId": "55",
    "clipName": null,
    "beat": 160,
    "relBeat": 160,
    "duration": 0.25,
    "velocity": 100,
    "pitch": 60
  },
  {
    "clipIndex": 469,
    "trackId": "22",
    "clipName": null,
    "beat": 160,
    "relBeat": 0,
    "duration": 0.25,
    "velocity": 100,
    "pitch": 60
  },
  {
    "clipIndex": 337,
    "trackId": "55",
    "clipName": null,
    "beat": 160.25,
    "relBeat": 160.25,
    "duration": 0.30480014776889774,
    "velocity": 100,
    "pitch": 60
  },
  {
    "clipIndex": 469,
    "trackId": "22",
    "clipName": null,
    "beat": 160.25,
    "relBeat": 0.25,
    "duration": 0.25,
    "velocity": 100,
    "pitch": 60
  },
  {
    "clipIndex": 469,
    "trackId": "22",
    "clipName": null,
    "beat": 160.5,
    "relBeat": 0.5,
    "duration": 0.25,
    "velocity": 100,
    "pitch": 60
  },
  {
    "clipIndex": 469,
    "trackId": "22",
    "clipName": null,
    "beat": 160.75,
    "relBeat": 0.75,
    "duration": 0.25,
    "velocity": 100,
    "pitch": 60
  },
  {
    "clipIndex": 337,
    "trackId": "55",
    "clipName": null,
    "beat": 161,
    "relBeat": 161,
    "duration": 0.30480014776889774,
    "velocity": 100,
    "pitch": 60
  },
  {
    "clipIndex": 469,
    "trackId": "22",
    "clipName": null,
    "beat": 161,
    "relBeat": 1,
    "duration": 0.25,
    "velocity": 100,
    "pitch": 60
  },
  {
    "clipIndex": 469,
    "trackId": "22",
    "clipName": null,
    "beat": 161.25,
    "relBeat": 1.25,
    "duration": 0.25,
    "velocity": 100,
    "pitch": 60
  },
  {
    "clipIndex": 0,
    "trackId": "89",
    "clipName": null,
    "beat": 161.5,
    "relBeat": 161.5,
    "duration": 0.25,
    "velocity": 100,
    "pitch": 60
  },
  {
    "clipIndex": 469,
    "trackId": "22",
    "clipName": null,
    "beat": 161.5,
    "relBeat": 1.5,
    "duration": 0.25,
    "velocity": 100,
    "pitch": 60
  },
  {
    "clipIndex": 470,
    "trackId": "22",
    "clipName": null,
    "beat": 161.5,
    "relBeat": 0,
    "duration": 0.25,
    "velocity": 100,
    "pitch": 60
  },
  {
    "clipIndex": 469,
    "trackId": "22",
    "clipName": null,
    "beat": 161.75,
    "relBeat": 1.75,
    "duration": 0.25,
    "velocity": 100,
    "pitch": 60
  },
  {
    "clipIndex": 470,
    "trackId": "22",
    "clipName": null,
    "beat": 161.75,
    "relBeat": 0.25,
    "duration": 0.25,
    "velocity": 100,
    "pitch": 60
  },
  {
    "clipIndex": 469,
    "trackId": "22",
    "clipName": null,
    "beat": 162,
    "relBeat": 2,
    "duration": 0.25,
    "velocity": 100,
    "pitch": 60
  },
  {
    "clipIndex": 470,
    "trackId": "22",
    "clipName": null,
    "beat": 162,
    "relBeat": 0.5,
    "duration": 0.25,
    "velocity": 100,
    "pitch": 60
  },
  {
    "clipIndex": 469,
    "trackId": "22",
    "clipName": null,
    "beat": 162.25,
    "relBeat": 2.25,
    "duration": 0.25,
    "velocity": 100,
    "pitch": 60
  },
  {
    "clipIndex": 470,
    "trackId": "22",
    "clipName": null,
    "beat": 162.25,
    "relBeat": 0.75,
    "duration": 0.25,
    "velocity": 100,
    "pitch": 60
  },
  {
    "clipIndex": 0,
    "trackId": "89",
    "clipName": null,
    "beat": 162.5,
    "relBeat": 162.5,
    "duration": 0.25,
    "velocity": 100,
    "pitch": 60
  },
  {
    "clipIndex": 469,
    "trackId": "22",
    "clipName": null,
    "beat": 162.5,
    "relBeat": 2.5,
    "duration": 0.25,
    "velocity": 100,
    "pitch": 60
  },
  {
    "clipIndex": 470,
    "trackId": "22",
    "clipName": null,
    "beat": 162.5,
    "relBeat": 1,
    "duration": 0.25,
    "velocity": 100,
    "pitch": 60
  },
  {
    "clipIndex": 469,
    "trackId": "22",
    "clipName": null,
    "beat": 162.75,
    "relBeat": 2.75,
    "duration": 0.25,
    "velocity": 100,
    "pitch": 60
  },
  {
    "clipIndex": 470,
    "trackId": "22",
    "clipName": null,
    "beat": 162.75,
    "relBeat": 1.25,
    "duration": 0.25,
    "velocity": 100,
    "pitch": 60
  },
  {
    "clipIndex": 337,
    "trackId": "55",
    "clipName": null,
    "beat": 163,
    "relBeat": 163,
    "duration": 0.30480014776889774,
    "velocity": 100,
    "pitch": 60
  },
  {
    "clipIndex": 350,
    "trackId": "60",
    "clipName": null,
    "beat": 163,
    "relBeat": 163,
    "duration": 0.25,
    "velocity": 100,
    "pitch": 60
  },
  {
    "clipIndex": 469,
    "trackId": "22",
    "clipName": null,
    "beat": 163,
    "relBeat": 3,
    "duration": 0.25,
    "velocity": 100,
    "pitch": 60
  },
  {
    "clipIndex": 470,
    "trackId": "22",
    "clipName": null,
    "beat": 163,
    "relBeat": 1.5,
    "duration": 0.25,
    "velocity": 100,
    "pitch": 60
  },
  {
    "clipIndex": 469,
    "trackId": "22",
    "clipName": null,
    "beat": 163.25,
    "relBeat": 3.25,
    "duration": 0.25,
    "velocity": 100,
    "pitch": 60
  },
  {
    "clipIndex": 470,
    "trackId": "22",
    "clipName": null,
    "beat": 163.25,
    "relBeat": 1.75,
    "duration": 0.25,
    "velocity": 100,
    "pitch": 60
  },
  {
    "clipIndex": 469,
    "trackId": "22",
    "clipName": null,
    "beat": 163.5,
    "relBeat": 3.5,
    "duration": 0.25,
    "velocity": 100,
    "pitch": 60
  },
  {
    "clipIndex": 470,
    "trackId": "22",
    "clipName": null,
    "beat": 163.5,
    "relBeat": 2,
    "duration": 0.25,
    "velocity": 100,
    "pitch": 60
  },
  {
    "clipIndex": 469,
    "trackId": "22",
    "clipName": null,
    "beat": 163.75,
    "relBeat": 3.75,
    "duration": 0.25,
    "velocity": 100,
    "pitch": 60
  },
  {
    "clipIndex": 470,
    "trackId": "22",
    "clipName": null,
    "beat": 163.75,
    "relBeat": 2.25,
    "duration": 0.25,
    "velocity": 100,
    "pitch": 60
  },
  {
    "clipIndex": 0,
    "trackId": "89",
    "clipName": null,
    "beat": 164,
    "relBeat": 164,
    "duration": 0.25,
    "velocity": 100,
    "pitch": 60
  },
  {
    "clipIndex": 469,
    "trackId": "22",
    "clipName": null,
    "beat": 164,
    "relBeat": 4,
    "duration": 0.25,
    "velocity": 100,
    "pitch": 60
  },
  {
    "clipIndex": 470,
    "trackId": "22",
    "clipName": null,
    "beat": 164,
    "relBeat": 2.5,
    "duration": 0.25,
    "velocity": 100,
    "pitch": 60
  },
  {
    "clipIndex": 0,
    "trackId": "89",
    "clipName": null,
    "beat": 164.25,
    "relBeat": 164.25,
    "duration": 0.25,
    "velocity": 100,
    "pitch": 60
  },
  {
    "clipIndex": 469,
    "trackId": "22",
    "clipName": null,
    "beat": 164.25,
    "relBeat": 4.25,
    "duration": 0.25,
    "velocity": 100,
    "pitch": 60
  },
  {
    "clipIndex": 470,
    "trackId": "22",
    "clipName": null,
    "beat": 164.25,
    "relBeat": 2.75,
    "duration": 0.25,
    "velocity": 100,
    "pitch": 60
  },
  {
    "clipIndex": 469,
    "trackId": "22",
    "clipName": null,
    "beat": 164.5,
    "relBeat": 4.5,
    "duration": 0.25,
    "velocity": 100,
    "pitch": 60
  },
  {
    "clipIndex": 470,
    "trackId": "22",
    "clipName": null,
    "beat": 164.5,
    "relBeat": 3,
    "duration": 0.25,
    "velocity": 100,
    "pitch": 60
  },
  {
    "clipIndex": 469,
    "trackId": "22",
    "clipName": null,
    "beat": 164.75,
    "relBeat": 4.75,
    "duration": 0.25,
    "velocity": 100,
    "pitch": 60
  },
  {
    "clipIndex": 470,
    "trackId": "22",
    "clipName": null,
    "beat": 164.75,
    "relBeat": 3.25,
    "duration": 0.25,
    "velocity": 100,
    "pitch": 60
  },
  {
    "clipIndex": 337,
    "trackId": "55",
    "clipName": null,
    "beat": 165,
    "relBeat": 165,
    "duration": 0.32496565934065935,
    "velocity": 100,
    "pitch": 60
  },
  {
    "clipIndex": 350,
    "trackId": "60",
    "clipName": null,
    "beat": 165,
    "relBeat": 165,
    "duration": 0.25,
    "velocity": 100,
    "pitch": 60
  },
  {
    "clipIndex": 469,
    "trackId": "22",
    "clipName": null,
    "beat": 165,
    "relBeat": 5,
    "duration": 0.25,
    "velocity": 100,
    "pitch": 60
  },
  {
    "clipIndex": 470,
    "trackId": "22",
    "clipName": null,
    "beat": 165,
    "relBeat": 3.5,
    "duration": 0.25,
    "velocity": 100,
    "pitch": 60
  },
  {
    "clipIndex": 469,
    "trackId": "22",
    "clipName": null,
    "beat": 165.25,
    "relBeat": 5.25,
    "duration": 0.25,
    "velocity": 100,
    "pitch": 60
  },
  {
    "clipIndex": 470,
    "trackId": "22",
    "clipName": null,
    "beat": 165.25,
    "relBeat": 3.75,
    "duration": 0.25,
    "velocity": 100,
    "pitch": 60
  },
  {
    "clipIndex": 0,
    "trackId": "89",
    "clipName": null,
    "beat": 165.5,
    "relBeat": 165.5,
    "duration": 0.25,
    "velocity": 100,
    "pitch": 60
  },
  {
    "clipIndex": 469,
    "trackId": "22",
    "clipName": null,
    "beat": 165.5,
    "relBeat": 5.5,
    "duration": 0.25,
    "velocity": 100,
    "pitch": 60
  },
  {
    "clipIndex": 470,
    "trackId": "22",
    "clipName": null,
    "beat": 165.5,
    "relBeat": 4,
    "duration": 0.25,
    "velocity": 100,
    "pitch": 60
  },
  {
    "clipIndex": 469,
    "trackId": "22",
    "clipName": null,
    "beat": 165.75,
    "relBeat": 5.75,
    "duration": 0.25,
    "velocity": 100,
    "pitch": 60
  },
  {
    "clipIndex": 470,
    "trackId": "22",
    "clipName": null,
    "beat": 165.75,
    "relBeat": 4.25,
    "duration": 0.25,
    "velocity": 100,
    "pitch": 60
  },
  {
    "clipIndex": 470,
    "trackId": "22",
    "clipName": null,
    "beat": 166,
    "relBeat": 4.5,
    "duration": 0.25,
    "velocity": 100,
    "pitch": 60
  },
  {
    "clipIndex": 470,
    "trackId": "22",
    "clipName": null,
    "beat": 166.25,
    "relBeat": 4.75,
    "duration": 0.25,
    "velocity": 100,
    "pitch": 60
  },
  {
    "clipIndex": 470,
    "trackId": "22",
    "clipName": null,
    "beat": 166.5,
    "relBeat": 5,
    "duration": 0.25,
    "velocity": 100,
    "pitch": 60
  },
  {
    "clipIndex": 470,
    "trackId": "22",
    "clipName": null,
    "beat": 166.75,
    "relBeat": 5.25,
    "duration": 0.25,
    "velocity": 100,
    "pitch": 60
  },
  {
    "clipIndex": 470,
    "trackId": "22",
    "clipName": null,
    "beat": 167,
    "relBeat": 5.5,
    "duration": 0.25,
    "velocity": 100,
    "pitch": 60
  },
  {
    "clipIndex": 470,
    "trackId": "22",
    "clipName": null,
    "beat": 167.25,
    "relBeat": 5.75,
    "duration": 0.25,
    "velocity": 100,
    "pitch": 60
  },
  {
    "clipIndex": 337,
    "trackId": "55",
    "clipName": null,
    "beat": 169,
    "relBeat": 169,
    "duration": 0.32496565934065935,
    "velocity": 100,
    "pitch": 60
  },
  {
    "clipIndex": 350,
    "trackId": "60",
    "clipName": null,
    "beat": 169,
    "relBeat": 169,
    "duration": 0.25,
    "velocity": 100,
    "pitch": 60
  },
  {
    "clipIndex": 469,
    "trackId": "22",
    "clipName": null,
    "beat": 169,
    "relBeat": 9,
    "duration": 0.25,
    "velocity": 100,
    "pitch": 60
  },
  {
    "clipIndex": 469,
    "trackId": "22",
    "clipName": null,
    "beat": 169.25,
    "relBeat": 9.25,
    "duration": 0.25,
    "velocity": 100,
    "pitch": 60
  },
  {
    "clipIndex": 0,
    "trackId": "89",
    "clipName": null,
    "beat": 169.5,
    "relBeat": 169.5,
    "duration": 0.25,
    "velocity": 100,
    "pitch": 60
  },
  {
    "clipIndex": 469,
    "trackId": "22",
    "clipName": null,
    "beat": 169.5,
    "relBeat": 9.5,
    "duration": 0.25,
    "velocity": 100,
    "pitch": 60
  },
  {
    "clipIndex": 469,
    "trackId": "22",
    "clipName": null,
    "beat": 169.75,
    "relBeat": 9.75,
    "duration": 0.25,
    "velocity": 100,
    "pitch": 60
  },
  {
    "clipIndex": 469,
    "trackId": "22",
    "clipName": null,
    "beat": 170,
    "relBeat": 10,
    "duration": 0.25,
    "velocity": 100,
    "pitch": 60
  },
  {
    "clipIndex": 0,
    "trackId": "89",
    "clipName": null,
    "beat": 170.25,
    "relBeat": 170.25,
    "duration": 0.25,
    "velocity": 100,
    "pitch": 60
  },
  {
    "clipIndex": 470,
    "trackId": "22",
    "clipName": null,
    "beat": 170.5,
    "relBeat": 9,
    "duration": 0.25,
    "velocity": 100,
    "pitch": 60
  },
  {
    "clipIndex": 470,
    "trackId": "22",
    "clipName": null,
    "beat": 170.75,
    "relBeat": 9.25,
    "duration": 0.25,
    "velocity": 100,
    "pitch": 60
  },
  {
    "clipIndex": 470,
    "trackId": "22",
    "clipName": null,
    "beat": 171,
    "relBeat": 9.5,
    "duration": 0.25,
    "velocity": 100,
    "pitch": 60
  },
  {
    "clipIndex": 470,
    "trackId": "22",
    "clipName": null,
    "beat": 171.25,
    "relBeat": 9.75,
    "duration": 0.25,
    "velocity": 100,
    "pitch": 60
  },
  {
    "clipIndex": 470,
    "trackId": "22",
    "clipName": null,
    "beat": 171.5,
    "relBeat": 10,
    "duration": 0.25,
    "velocity": 100,
    "pitch": 60
  },
  {
    "clipIndex": 469,
    "trackId": "22",
    "clipName": null,
    "beat": 172,
    "relBeat": 12,
    "duration": 0.25,
    "velocity": 100,
    "pitch": 60
  },
  {
    "clipIndex": 471,
    "trackId": "22",
    "clipName": null,
    "beat": 172,
    "relBeat": 0,
    "duration": 0.25,
    "velocity": 100,
    "pitch": 60
  },
  {
    "clipIndex": 469,
    "trackId": "22",
    "clipName": null,
    "beat": 172.25,
    "relBeat": 12.25,
    "duration": 0.25,
    "velocity": 100,
    "pitch": 60
  },
  {
    "clipIndex": 471,
    "trackId": "22",
    "clipName": null,
    "beat": 172.25,
    "relBeat": 0.25,
    "duration": 0.25,
    "velocity": 100,
    "pitch": 60
  },
  {
    "clipIndex": 469,
    "trackId": "22",
    "clipName": null,
    "beat": 172.5,
    "relBeat": 12.5,
    "duration": 0.25,
    "velocity": 100,
    "pitch": 60
  },
  {
    "clipIndex": 471,
    "trackId": "22",
    "clipName": null,
    "beat": 172.5,
    "relBeat": 0.5,
    "duration": 0.25,
    "velocity": 100,
    "pitch": 60
  },
  {
    "clipIndex": 469,
    "trackId": "22",
    "clipName": null,
    "beat": 172.75,
    "relBeat": 12.75,
    "duration": 0.25,
    "velocity": 100,
    "pitch": 60
  },
  {
    "clipIndex": 471,
    "trackId": "22",
    "clipName": null,
    "beat": 172.75,
    "relBeat": 0.75,
    "duration": 0.25,
    "velocity": 100,
    "pitch": 60
  },
  {
    "clipIndex": 337,
    "trackId": "55",
    "clipName": null,
    "beat": 173,
    "relBeat": 173,
    "duration": 0.32496565934065935,
    "velocity": 100,
    "pitch": 60
  },
  {
    "clipIndex": 469,
    "trackId": "22",
    "clipName": null,
    "beat": 173,
    "relBeat": 13,
    "duration": 0.25,
    "velocity": 100,
    "pitch": 60
  },
  {
    "clipIndex": 471,
    "trackId": "22",
    "clipName": null,
    "beat": 173,
    "relBeat": 1,
    "duration": 0.25,
    "velocity": 100,
    "pitch": 60
  },
  {
    "clipIndex": 469,
    "trackId": "22",
    "clipName": null,
    "beat": 173.25,
    "relBeat": 13.25,
    "duration": 0.25,
    "velocity": 100,
    "pitch": 60
  },
  {
    "clipIndex": 471,
    "trackId": "22",
    "clipName": null,
    "beat": 173.25,
    "relBeat": 1.25,
    "duration": 0.25,
    "velocity": 100,
    "pitch": 60
  },
  {
    "clipIndex": 0,
    "trackId": "89",
    "clipName": null,
    "beat": 173.5,
    "relBeat": 173.5,
    "duration": 0.25,
    "velocity": 100,
    "pitch": 60
  },
  {
    "clipIndex": 469,
    "trackId": "22",
    "clipName": null,
    "beat": 173.5,
    "relBeat": 13.5,
    "duration": 0.25,
    "velocity": 100,
    "pitch": 60
  },
  {
    "clipIndex": 470,
    "trackId": "22",
    "clipName": null,
    "beat": 173.5,
    "relBeat": 12,
    "duration": 0.25,
    "velocity": 100,
    "pitch": 60
  },
  {
    "clipIndex": 471,
    "trackId": "22",
    "clipName": null,
    "beat": 173.5,
    "relBeat": 1.5,
    "duration": 0.25,
    "velocity": 100,
    "pitch": 60
  },
  {
    "clipIndex": 472,
    "trackId": "22",
    "clipName": null,
    "beat": 173.5,
    "relBeat": 0,
    "duration": 0.25,
    "velocity": 100,
    "pitch": 60
  },
  {
    "clipIndex": 469,
    "trackId": "22",
    "clipName": null,
    "beat": 173.75,
    "relBeat": 13.75,
    "duration": 0.25,
    "velocity": 100,
    "pitch": 60
  },
  {
    "clipIndex": 470,
    "trackId": "22",
    "clipName": null,
    "beat": 173.75,
    "relBeat": 12.25,
    "duration": 0.25,
    "velocity": 100,
    "pitch": 60
  },
  {
    "clipIndex": 471,
    "trackId": "22",
    "clipName": null,
    "beat": 173.75,
    "relBeat": 1.75,
    "duration": 0.25,
    "velocity": 100,
    "pitch": 60
  },
  {
    "clipIndex": 472,
    "trackId": "22",
    "clipName": null,
    "beat": 173.75,
    "relBeat": 0.25,
    "duration": 0.25,
    "velocity": 100,
    "pitch": 60
  },
  {
    "clipIndex": 469,
    "trackId": "22",
    "clipName": null,
    "beat": 174,
    "relBeat": 14,
    "duration": 0.25,
    "velocity": 100,
    "pitch": 60
  },
  {
    "clipIndex": 470,
    "trackId": "22",
    "clipName": null,
    "beat": 174,
    "relBeat": 12.5,
    "duration": 0.25,
    "velocity": 100,
    "pitch": 60
  },
  {
    "clipIndex": 471,
    "trackId": "22",
    "clipName": null,
    "beat": 174,
    "relBeat": 2,
    "duration": 0.25,
    "velocity": 100,
    "pitch": 60
  },
  {
    "clipIndex": 472,
    "trackId": "22",
    "clipName": null,
    "beat": 174,
    "relBeat": 0.5,
    "duration": 0.25,
    "velocity": 100,
    "pitch": 60
  },
  {
    "clipIndex": 0,
    "trackId": "89",
    "clipName": null,
    "beat": 174.25,
    "relBeat": 174.25,
    "duration": 0.25,
    "velocity": 100,
    "pitch": 60
  },
  {
    "clipIndex": 469,
    "trackId": "22",
    "clipName": null,
    "beat": 174.25,
    "relBeat": 14.25,
    "duration": 0.25,
    "velocity": 100,
    "pitch": 60
  },
  {
    "clipIndex": 470,
    "trackId": "22",
    "clipName": null,
    "beat": 174.25,
    "relBeat": 12.75,
    "duration": 0.25,
    "velocity": 100,
    "pitch": 60
  },
  {
    "clipIndex": 471,
    "trackId": "22",
    "clipName": null,
    "beat": 174.25,
    "relBeat": 2.25,
    "duration": 0.25,
    "velocity": 100,
    "pitch": 60
  },
  {
    "clipIndex": 472,
    "trackId": "22",
    "clipName": null,
    "beat": 174.25,
    "relBeat": 0.75,
    "duration": 0.25,
    "velocity": 100,
    "pitch": 60
  },
  {
    "clipIndex": 469,
    "trackId": "22",
    "clipName": null,
    "beat": 174.5,
    "relBeat": 14.5,
    "duration": 0.25,
    "velocity": 100,
    "pitch": 60
  },
  {
    "clipIndex": 470,
    "trackId": "22",
    "clipName": null,
    "beat": 174.5,
    "relBeat": 13,
    "duration": 0.25,
    "velocity": 100,
    "pitch": 60
  },
  {
    "clipIndex": 471,
    "trackId": "22",
    "clipName": null,
    "beat": 174.5,
    "relBeat": 2.5,
    "duration": 0.25,
    "velocity": 100,
    "pitch": 60
  },
  {
    "clipIndex": 472,
    "trackId": "22",
    "clipName": null,
    "beat": 174.5,
    "relBeat": 1,
    "duration": 0.25,
    "velocity": 100,
    "pitch": 60
  },
  {
    "clipIndex": 469,
    "trackId": "22",
    "clipName": null,
    "beat": 174.75,
    "relBeat": 14.75,
    "duration": 0.25,
    "velocity": 100,
    "pitch": 60
  },
  {
    "clipIndex": 470,
    "trackId": "22",
    "clipName": null,
    "beat": 174.75,
    "relBeat": 13.25,
    "duration": 0.25,
    "velocity": 100,
    "pitch": 60
  },
  {
    "clipIndex": 471,
    "trackId": "22",
    "clipName": null,
    "beat": 174.75,
    "relBeat": 2.75,
    "duration": 0.25,
    "velocity": 100,
    "pitch": 60
  },
  {
    "clipIndex": 472,
    "trackId": "22",
    "clipName": null,
    "beat": 174.75,
    "relBeat": 1.25,
    "duration": 0.25,
    "velocity": 100,
    "pitch": 60
  },
  {
    "clipIndex": 0,
    "trackId": "89",
    "clipName": null,
    "beat": 175,
    "relBeat": 175,
    "duration": 0.25,
    "velocity": 100,
    "pitch": 60
  },
  {
    "clipIndex": 469,
    "trackId": "22",
    "clipName": null,
    "beat": 175,
    "relBeat": 15,
    "duration": 0.25,
    "velocity": 100,
    "pitch": 60
  },
  {
    "clipIndex": 470,
    "trackId": "22",
    "clipName": null,
    "beat": 175,
    "relBeat": 13.5,
    "duration": 0.25,
    "velocity": 100,
    "pitch": 60
  },
  {
    "clipIndex": 471,
    "trackId": "22",
    "clipName": null,
    "beat": 175,
    "relBeat": 3,
    "duration": 0.25,
    "velocity": 100,
    "pitch": 60
  },
  {
    "clipIndex": 472,
    "trackId": "22",
    "clipName": null,
    "beat": 175,
    "relBeat": 1.5,
    "duration": 0.25,
    "velocity": 100,
    "pitch": 60
  },
  {
    "clipIndex": 469,
    "trackId": "22",
    "clipName": null,
    "beat": 175.25,
    "relBeat": 15.25,
    "duration": 0.25,
    "velocity": 100,
    "pitch": 60
  },
  {
    "clipIndex": 470,
    "trackId": "22",
    "clipName": null,
    "beat": 175.25,
    "relBeat": 13.75,
    "duration": 0.25,
    "velocity": 100,
    "pitch": 60
  },
  {
    "clipIndex": 471,
    "trackId": "22",
    "clipName": null,
    "beat": 175.25,
    "relBeat": 3.25,
    "duration": 0.25,
    "velocity": 100,
    "pitch": 60
  },
  {
    "clipIndex": 472,
    "trackId": "22",
    "clipName": null,
    "beat": 175.25,
    "relBeat": 1.75,
    "duration": 0.25,
    "velocity": 100,
    "pitch": 60
  },
  {
    "clipIndex": 469,
    "trackId": "22",
    "clipName": null,
    "beat": 175.5,
    "relBeat": 15.5,
    "duration": 0.25,
    "velocity": 100,
    "pitch": 60
  },
  {
    "clipIndex": 470,
    "trackId": "22",
    "clipName": null,
    "beat": 175.5,
    "relBeat": 14,
    "duration": 0.25,
    "velocity": 100,
    "pitch": 60
  },
  {
    "clipIndex": 471,
    "trackId": "22",
    "clipName": null,
    "beat": 175.5,
    "relBeat": 3.5,
    "duration": 0.25,
    "velocity": 100,
    "pitch": 60
  },
  {
    "clipIndex": 472,
    "trackId": "22",
    "clipName": null,
    "beat": 175.5,
    "relBeat": 2,
    "duration": 0.25,
    "velocity": 100,
    "pitch": 60
  },
  {
    "clipIndex": 0,
    "trackId": "89",
    "clipName": null,
    "beat": 175.75,
    "relBeat": 175.75,
    "duration": 0.25,
    "velocity": 100,
    "pitch": 60
  },
  {
    "clipIndex": 469,
    "trackId": "22",
    "clipName": null,
    "beat": 175.75,
    "relBeat": 15.75,
    "duration": 0.25,
    "velocity": 100,
    "pitch": 60
  },
  {
    "clipIndex": 470,
    "trackId": "22",
    "clipName": null,
    "beat": 175.75,
    "relBeat": 14.25,
    "duration": 0.25,
    "velocity": 100,
    "pitch": 60
  },
  {
    "clipIndex": 471,
    "trackId": "22",
    "clipName": null,
    "beat": 175.75,
    "relBeat": 3.75,
    "duration": 0.25,
    "velocity": 100,
    "pitch": 60
  },
  {
    "clipIndex": 472,
    "trackId": "22",
    "clipName": null,
    "beat": 175.75,
    "relBeat": 2.25,
    "duration": 0.25,
    "velocity": 100,
    "pitch": 60
  },
  {
    "clipIndex": 0,
    "trackId": "89",
    "clipName": null,
    "beat": 176,
    "relBeat": 176,
    "duration": 0.25,
    "velocity": 100,
    "pitch": 60
  },
  {
    "clipIndex": 469,
    "trackId": "22",
    "clipName": null,
    "beat": 176,
    "relBeat": 16,
    "duration": 0.25,
    "velocity": 100,
    "pitch": 60
  },
  {
    "clipIndex": 470,
    "trackId": "22",
    "clipName": null,
    "beat": 176,
    "relBeat": 14.5,
    "duration": 0.25,
    "velocity": 100,
    "pitch": 60
  },
  {
    "clipIndex": 471,
    "trackId": "22",
    "clipName": null,
    "beat": 176,
    "relBeat": 4,
    "duration": 0.25,
    "velocity": 100,
    "pitch": 60
  },
  {
    "clipIndex": 472,
    "trackId": "22",
    "clipName": null,
    "beat": 176,
    "relBeat": 2.5,
    "duration": 0.25,
    "velocity": 100,
    "pitch": 60
  },
  {
    "clipIndex": 0,
    "trackId": "89",
    "clipName": null,
    "beat": 176.25,
    "relBeat": 176.25,
    "duration": 0.25,
    "velocity": 100,
    "pitch": 60
  },
  {
    "clipIndex": 469,
    "trackId": "22",
    "clipName": null,
    "beat": 176.25,
    "relBeat": 16.25,
    "duration": 0.25,
    "velocity": 100,
    "pitch": 60
  },
  {
    "clipIndex": 470,
    "trackId": "22",
    "clipName": null,
    "beat": 176.25,
    "relBeat": 14.75,
    "duration": 0.25,
    "velocity": 100,
    "pitch": 60
  },
  {
    "clipIndex": 471,
    "trackId": "22",
    "clipName": null,
    "beat": 176.25,
    "relBeat": 4.25,
    "duration": 0.25,
    "velocity": 100,
    "pitch": 60
  },
  {
    "clipIndex": 472,
    "trackId": "22",
    "clipName": null,
    "beat": 176.25,
    "relBeat": 2.75,
    "duration": 0.25,
    "velocity": 100,
    "pitch": 60
  },
  {
    "clipIndex": 469,
    "trackId": "22",
    "clipName": null,
    "beat": 176.5,
    "relBeat": 16.5,
    "duration": 0.25,
    "velocity": 100,
    "pitch": 60
  },
  {
    "clipIndex": 470,
    "trackId": "22",
    "clipName": null,
    "beat": 176.5,
    "relBeat": 15,
    "duration": 0.25,
    "velocity": 100,
    "pitch": 60
  },
  {
    "clipIndex": 471,
    "trackId": "22",
    "clipName": null,
    "beat": 176.5,
    "relBeat": 4.5,
    "duration": 0.25,
    "velocity": 100,
    "pitch": 60
  },
  {
    "clipIndex": 472,
    "trackId": "22",
    "clipName": null,
    "beat": 176.5,
    "relBeat": 3,
    "duration": 0.25,
    "velocity": 100,
    "pitch": 60
  },
  {
    "clipIndex": 469,
    "trackId": "22",
    "clipName": null,
    "beat": 176.75,
    "relBeat": 16.75,
    "duration": 0.25,
    "velocity": 100,
    "pitch": 60
  },
  {
    "clipIndex": 470,
    "trackId": "22",
    "clipName": null,
    "beat": 176.75,
    "relBeat": 15.25,
    "duration": 0.25,
    "velocity": 100,
    "pitch": 60
  },
  {
    "clipIndex": 471,
    "trackId": "22",
    "clipName": null,
    "beat": 176.75,
    "relBeat": 4.75,
    "duration": 0.25,
    "velocity": 100,
    "pitch": 60
  },
  {
    "clipIndex": 472,
    "trackId": "22",
    "clipName": null,
    "beat": 176.75,
    "relBeat": 3.25,
    "duration": 0.25,
    "velocity": 100,
    "pitch": 60
  },
  {
    "clipIndex": 337,
    "trackId": "55",
    "clipName": null,
    "beat": 177,
    "relBeat": 177,
    "duration": 0.32496565934065935,
    "velocity": 100,
    "pitch": 60
  },
  {
    "clipIndex": 350,
    "trackId": "60",
    "clipName": null,
    "beat": 177,
    "relBeat": 177,
    "duration": 0.25,
    "velocity": 100,
    "pitch": 60
  },
  {
    "clipIndex": 469,
    "trackId": "22",
    "clipName": null,
    "beat": 177,
    "relBeat": 17,
    "duration": 0.25,
    "velocity": 100,
    "pitch": 60
  },
  {
    "clipIndex": 470,
    "trackId": "22",
    "clipName": null,
    "beat": 177,
    "relBeat": 15.5,
    "duration": 0.25,
    "velocity": 100,
    "pitch": 60
  },
  {
    "clipIndex": 471,
    "trackId": "22",
    "clipName": null,
    "beat": 177,
    "relBeat": 5,
    "duration": 0.25,
    "velocity": 100,
    "pitch": 60
  },
  {
    "clipIndex": 472,
    "trackId": "22",
    "clipName": null,
    "beat": 177,
    "relBeat": 3.5,
    "duration": 0.25,
    "velocity": 100,
    "pitch": 60
  },
  {
    "clipIndex": 469,
    "trackId": "22",
    "clipName": null,
    "beat": 177.25,
    "relBeat": 17.25,
    "duration": 0.25,
    "velocity": 100,
    "pitch": 60
  },
  {
    "clipIndex": 470,
    "trackId": "22",
    "clipName": null,
    "beat": 177.25,
    "relBeat": 15.75,
    "duration": 0.25,
    "velocity": 100,
    "pitch": 60
  },
  {
    "clipIndex": 471,
    "trackId": "22",
    "clipName": null,
    "beat": 177.25,
    "relBeat": 5.25,
    "duration": 0.25,
    "velocity": 100,
    "pitch": 60
  },
  {
    "clipIndex": 472,
    "trackId": "22",
    "clipName": null,
    "beat": 177.25,
    "relBeat": 3.75,
    "duration": 0.25,
    "velocity": 100,
    "pitch": 60
  },
  {
    "clipIndex": 0,
    "trackId": "89",
    "clipName": null,
    "beat": 177.5,
    "relBeat": 177.5,
    "duration": 0.25,
    "velocity": 100,
    "pitch": 60
  },
  {
    "clipIndex": 469,
    "trackId": "22",
    "clipName": null,
    "beat": 177.5,
    "relBeat": 17.5,
    "duration": 0.25,
    "velocity": 100,
    "pitch": 60
  },
  {
    "clipIndex": 470,
    "trackId": "22",
    "clipName": null,
    "beat": 177.5,
    "relBeat": 16,
    "duration": 0.25,
    "velocity": 100,
    "pitch": 60
  },
  {
    "clipIndex": 471,
    "trackId": "22",
    "clipName": null,
    "beat": 177.5,
    "relBeat": 5.5,
    "duration": 0.25,
    "velocity": 100,
    "pitch": 60
  },
  {
    "clipIndex": 472,
    "trackId": "22",
    "clipName": null,
    "beat": 177.5,
    "relBeat": 4,
    "duration": 0.25,
    "velocity": 100,
    "pitch": 60
  },
  {
    "clipIndex": 469,
    "trackId": "22",
    "clipName": null,
    "beat": 177.75,
    "relBeat": 17.75,
    "duration": 0.25,
    "velocity": 100,
    "pitch": 60
  },
  {
    "clipIndex": 470,
    "trackId": "22",
    "clipName": null,
    "beat": 177.75,
    "relBeat": 16.25,
    "duration": 0.25,
    "velocity": 100,
    "pitch": 60
  },
  {
    "clipIndex": 471,
    "trackId": "22",
    "clipName": null,
    "beat": 177.75,
    "relBeat": 5.75,
    "duration": 0.25,
    "velocity": 100,
    "pitch": 60
  },
  {
    "clipIndex": 472,
    "trackId": "22",
    "clipName": null,
    "beat": 177.75,
    "relBeat": 4.25,
    "duration": 0.25,
    "velocity": 100,
    "pitch": 60
  },
  {
    "clipIndex": 0,
    "trackId": "89",
    "clipName": null,
    "beat": 178,
    "relBeat": 178,
    "duration": 0.25,
    "velocity": 100,
    "pitch": 60
  },
  {
    "clipIndex": 469,
    "trackId": "22",
    "clipName": null,
    "beat": 178,
    "relBeat": 18,
    "duration": 0.25,
    "velocity": 100,
    "pitch": 60
  },
  {
    "clipIndex": 470,
    "trackId": "22",
    "clipName": null,
    "beat": 178,
    "relBeat": 16.5,
    "duration": 0.25,
    "velocity": 100,
    "pitch": 60
  },
  {
    "clipIndex": 472,
    "trackId": "22",
    "clipName": null,
    "beat": 178,
    "relBeat": 4.5,
    "duration": 0.25,
    "velocity": 100,
    "pitch": 60
  },
  {
    "clipIndex": 469,
    "trackId": "22",
    "clipName": null,
    "beat": 178.25,
    "relBeat": 18.25,
    "duration": 0.25,
    "velocity": 100,
    "pitch": 60
  },
  {
    "clipIndex": 470,
    "trackId": "22",
    "clipName": null,
    "beat": 178.25,
    "relBeat": 16.75,
    "duration": 0.25,
    "velocity": 100,
    "pitch": 60
  },
  {
    "clipIndex": 472,
    "trackId": "22",
    "clipName": null,
    "beat": 178.25,
    "relBeat": 4.75,
    "duration": 0.25,
    "velocity": 100,
    "pitch": 60
  },
  {
    "clipIndex": 0,
    "trackId": "89",
    "clipName": null,
    "beat": 178.5,
    "relBeat": 178.5,
    "duration": 0.25,
    "velocity": 100,
    "pitch": 60
  },
  {
    "clipIndex": 469,
    "trackId": "22",
    "clipName": null,
    "beat": 178.5,
    "relBeat": 18.5,
    "duration": 0.25,
    "velocity": 100,
    "pitch": 60
  },
  {
    "clipIndex": 470,
    "trackId": "22",
    "clipName": null,
    "beat": 178.5,
    "relBeat": 17,
    "duration": 0.25,
    "velocity": 100,
    "pitch": 60
  },
  {
    "clipIndex": 472,
    "trackId": "22",
    "clipName": null,
    "beat": 178.5,
    "relBeat": 5,
    "duration": 0.25,
    "velocity": 100,
    "pitch": 60
  },
  {
    "clipIndex": 469,
    "trackId": "22",
    "clipName": null,
    "beat": 178.75,
    "relBeat": 18.75,
    "duration": 0.25,
    "velocity": 100,
    "pitch": 60
  },
  {
    "clipIndex": 470,
    "trackId": "22",
    "clipName": null,
    "beat": 178.75,
    "relBeat": 17.25,
    "duration": 0.25,
    "velocity": 100,
    "pitch": 60
  },
  {
    "clipIndex": 472,
    "trackId": "22",
    "clipName": null,
    "beat": 178.75,
    "relBeat": 5.25,
    "duration": 0.25,
    "velocity": 100,
    "pitch": 60
  },
  {
    "clipIndex": 0,
    "trackId": "89",
    "clipName": null,
    "beat": 179,
    "relBeat": 179,
    "duration": 0.25,
    "velocity": 100,
    "pitch": 60
  },
  {
    "clipIndex": 469,
    "trackId": "22",
    "clipName": null,
    "beat": 179,
    "relBeat": 19,
    "duration": 0.25,
    "velocity": 100,
    "pitch": 60
  },
  {
    "clipIndex": 470,
    "trackId": "22",
    "clipName": null,
    "beat": 179,
    "relBeat": 17.5,
    "duration": 0.25,
    "velocity": 100,
    "pitch": 60
  },
  {
    "clipIndex": 472,
    "trackId": "22",
    "clipName": null,
    "beat": 179,
    "relBeat": 5.5,
    "duration": 0.25,
    "velocity": 100,
    "pitch": 60
  },
  {
    "clipIndex": 469,
    "trackId": "22",
    "clipName": null,
    "beat": 179.25,
    "relBeat": 19.25,
    "duration": 0.25,
    "velocity": 100,
    "pitch": 60
  },
  {
    "clipIndex": 470,
    "trackId": "22",
    "clipName": null,
    "beat": 179.25,
    "relBeat": 17.75,
    "duration": 0.25,
    "velocity": 100,
    "pitch": 60
  },
  {
    "clipIndex": 472,
    "trackId": "22",
    "clipName": null,
    "beat": 179.25,
    "relBeat": 5.75,
    "duration": 0.25,
    "velocity": 100,
    "pitch": 60
  },
  {
    "clipIndex": 0,
    "trackId": "89",
    "clipName": null,
    "beat": 179.5,
    "relBeat": 179.5,
    "duration": 0.25,
    "velocity": 100,
    "pitch": 60
  },
  {
    "clipIndex": 469,
    "trackId": "22",
    "clipName": null,
    "beat": 179.5,
    "relBeat": 19.5,
    "duration": 0.25,
    "velocity": 100,
    "pitch": 60
  },
  {
    "clipIndex": 470,
    "trackId": "22",
    "clipName": null,
    "beat": 179.5,
    "relBeat": 18,
    "duration": 0.25,
    "velocity": 100,
    "pitch": 60
  },
  {
    "clipIndex": 469,
    "trackId": "22",
    "clipName": null,
    "beat": 179.75,
    "relBeat": 19.75,
    "duration": 0.25,
    "velocity": 100,
    "pitch": 60
  },
  {
    "clipIndex": 470,
    "trackId": "22",
    "clipName": null,
    "beat": 179.75,
    "relBeat": 18.25,
    "duration": 0.25,
    "velocity": 100,
    "pitch": 60
  },
  {
    "clipIndex": 0,
    "trackId": "89",
    "clipName": null,
    "beat": 180,
    "relBeat": 180,
    "duration": 0.25,
    "velocity": 100,
    "pitch": 60
  },
  {
    "clipIndex": 469,
    "trackId": "22",
    "clipName": null,
    "beat": 180,
    "relBeat": 20,
    "duration": 0.25,
    "velocity": 100,
    "pitch": 60
  },
  {
    "clipIndex": 470,
    "trackId": "22",
    "clipName": null,
    "beat": 180,
    "relBeat": 18.5,
    "duration": 0.25,
    "velocity": 100,
    "pitch": 60
  },
  {
    "clipIndex": 0,
    "trackId": "89",
    "clipName": null,
    "beat": 180.25,
    "relBeat": 180.25,
    "duration": 0.25,
    "velocity": 100,
    "pitch": 60
  },
  {
    "clipIndex": 469,
    "trackId": "22",
    "clipName": null,
    "beat": 180.25,
    "relBeat": 20.25,
    "duration": 0.25,
    "velocity": 100,
    "pitch": 60
  },
  {
    "clipIndex": 470,
    "trackId": "22",
    "clipName": null,
    "beat": 180.25,
    "relBeat": 18.75,
    "duration": 0.25,
    "velocity": 100,
    "pitch": 60
  },
  {
    "clipIndex": 469,
    "trackId": "22",
    "clipName": null,
    "beat": 180.5,
    "relBeat": 20.5,
    "duration": 0.25,
    "velocity": 100,
    "pitch": 60
  },
  {
    "clipIndex": 470,
    "trackId": "22",
    "clipName": null,
    "beat": 180.5,
    "relBeat": 19,
    "duration": 0.25,
    "velocity": 100,
    "pitch": 60
  },
  {
    "clipIndex": 469,
    "trackId": "22",
    "clipName": null,
    "beat": 180.75,
    "relBeat": 20.75,
    "duration": 0.25,
    "velocity": 100,
    "pitch": 60
  },
  {
    "clipIndex": 470,
    "trackId": "22",
    "clipName": null,
    "beat": 180.75,
    "relBeat": 19.25,
    "duration": 0.25,
    "velocity": 100,
    "pitch": 60
  },
  {
    "clipIndex": 337,
    "trackId": "55",
    "clipName": null,
    "beat": 181,
    "relBeat": 181,
    "duration": 0.32496565934065935,
    "velocity": 100,
    "pitch": 60
  },
  {
    "clipIndex": 350,
    "trackId": "60",
    "clipName": null,
    "beat": 181,
    "relBeat": 181,
    "duration": 0.25,
    "velocity": 100,
    "pitch": 60
  },
  {
    "clipIndex": 469,
    "trackId": "22",
    "clipName": null,
    "beat": 181,
    "relBeat": 21,
    "duration": 0.25,
    "velocity": 100,
    "pitch": 60
  },
  {
    "clipIndex": 470,
    "trackId": "22",
    "clipName": null,
    "beat": 181,
    "relBeat": 19.5,
    "duration": 0.25,
    "velocity": 100,
    "pitch": 60
  },
  {
    "clipIndex": 471,
    "trackId": "22",
    "clipName": null,
    "beat": 181,
    "relBeat": 9,
    "duration": 0.25,
    "velocity": 100,
    "pitch": 60
  },
  {
    "clipIndex": 469,
    "trackId": "22",
    "clipName": null,
    "beat": 181.25,
    "relBeat": 21.25,
    "duration": 0.25,
    "velocity": 100,
    "pitch": 60
  },
  {
    "clipIndex": 470,
    "trackId": "22",
    "clipName": null,
    "beat": 181.25,
    "relBeat": 19.75,
    "duration": 0.25,
    "velocity": 100,
    "pitch": 60
  },
  {
    "clipIndex": 471,
    "trackId": "22",
    "clipName": null,
    "beat": 181.25,
    "relBeat": 9.25,
    "duration": 0.25,
    "velocity": 100,
    "pitch": 60
  },
  {
    "clipIndex": 0,
    "trackId": "89",
    "clipName": null,
    "beat": 181.5,
    "relBeat": 181.5,
    "duration": 0.25,
    "velocity": 100,
    "pitch": 60
  },
  {
    "clipIndex": 470,
    "trackId": "22",
    "clipName": null,
    "beat": 181.5,
    "relBeat": 20,
    "duration": 0.25,
    "velocity": 100,
    "pitch": 60
  },
  {
    "clipIndex": 471,
    "trackId": "22",
    "clipName": null,
    "beat": 181.5,
    "relBeat": 9.5,
    "duration": 0.25,
    "velocity": 100,
    "pitch": 60
  },
  {
    "clipIndex": 470,
    "trackId": "22",
    "clipName": null,
    "beat": 181.75,
    "relBeat": 20.25,
    "duration": 0.25,
    "velocity": 100,
    "pitch": 60
  },
  {
    "clipIndex": 471,
    "trackId": "22",
    "clipName": null,
    "beat": 181.75,
    "relBeat": 9.75,
    "duration": 0.25,
    "velocity": 100,
    "pitch": 60
  },
  {
    "clipIndex": 470,
    "trackId": "22",
    "clipName": null,
    "beat": 182,
    "relBeat": 20.5,
    "duration": 0.25,
    "velocity": 100,
    "pitch": 60
  },
  {
    "clipIndex": 471,
    "trackId": "22",
    "clipName": null,
    "beat": 182,
    "relBeat": 10,
    "duration": 0.25,
    "velocity": 100,
    "pitch": 60
  },
  {
    "clipIndex": 470,
    "trackId": "22",
    "clipName": null,
    "beat": 182.25,
    "relBeat": 20.75,
    "duration": 0.25,
    "velocity": 100,
    "pitch": 60
  },
  {
    "clipIndex": 470,
    "trackId": "22",
    "clipName": null,
    "beat": 182.5,
    "relBeat": 21,
    "duration": 0.25,
    "velocity": 100,
    "pitch": 60
  },
  {
    "clipIndex": 472,
    "trackId": "22",
    "clipName": null,
    "beat": 182.5,
    "relBeat": 9,
    "duration": 0.25,
    "velocity": 100,
    "pitch": 60
  },
  {
    "clipIndex": 470,
    "trackId": "22",
    "clipName": null,
    "beat": 182.75,
    "relBeat": 21.25,
    "duration": 0.25,
    "velocity": 100,
    "pitch": 60
  },
  {
    "clipIndex": 472,
    "trackId": "22",
    "clipName": null,
    "beat": 182.75,
    "relBeat": 9.25,
    "duration": 0.25,
    "velocity": 100,
    "pitch": 60
  },
  {
    "clipIndex": 472,
    "trackId": "22",
    "clipName": null,
    "beat": 183,
    "relBeat": 9.5,
    "duration": 0.25,
    "velocity": 100,
    "pitch": 60
  },
  {
    "clipIndex": 472,
    "trackId": "22",
    "clipName": null,
    "beat": 183.25,
    "relBeat": 9.75,
    "duration": 0.25,
    "velocity": 100,
    "pitch": 60
  },
  {
    "clipIndex": 472,
    "trackId": "22",
    "clipName": null,
    "beat": 183.5,
    "relBeat": 10,
    "duration": 0.25,
    "velocity": 100,
    "pitch": 60
  },
  {
    "clipIndex": 0,
    "trackId": "89",
    "clipName": null,
    "beat": 184,
    "relBeat": 184,
    "duration": 0.25,
    "velocity": 100,
    "pitch": 60
  },
  {
    "clipIndex": 469,
    "trackId": "22",
    "clipName": null,
    "beat": 184,
    "relBeat": 24,
    "duration": 0.25,
    "velocity": 100,
    "pitch": 60
  },
  {
    "clipIndex": 471,
    "trackId": "22",
    "clipName": null,
    "beat": 184,
    "relBeat": 12,
    "duration": 0.25,
    "velocity": 100,
    "pitch": 60
  },
  {
    "clipIndex": 0,
    "trackId": "89",
    "clipName": null,
    "beat": 184.25,
    "relBeat": 184.25,
    "duration": 0.25,
    "velocity": 100,
    "pitch": 60
  },
  {
    "clipIndex": 469,
    "trackId": "22",
    "clipName": null,
    "beat": 184.25,
    "relBeat": 24.25,
    "duration": 0.25,
    "velocity": 100,
    "pitch": 60
  },
  {
    "clipIndex": 471,
    "trackId": "22",
    "clipName": null,
    "beat": 184.25,
    "relBeat": 12.25,
    "duration": 0.25,
    "velocity": 100,
    "pitch": 60
  },
  {
    "clipIndex": 469,
    "trackId": "22",
    "clipName": null,
    "beat": 184.5,
    "relBeat": 24.5,
    "duration": 0.25,
    "velocity": 100,
    "pitch": 60
  },
  {
    "clipIndex": 471,
    "trackId": "22",
    "clipName": null,
    "beat": 184.5,
    "relBeat": 12.5,
    "duration": 0.25,
    "velocity": 100,
    "pitch": 60
  },
  {
    "clipIndex": 469,
    "trackId": "22",
    "clipName": null,
    "beat": 184.75,
    "relBeat": 24.75,
    "duration": 0.25,
    "velocity": 100,
    "pitch": 60
  },
  {
    "clipIndex": 471,
    "trackId": "22",
    "clipName": null,
    "beat": 184.75,
    "relBeat": 12.75,
    "duration": 0.25,
    "velocity": 100,
    "pitch": 60
  },
  {
    "clipIndex": 337,
    "trackId": "55",
    "clipName": null,
    "beat": 185,
    "relBeat": 185,
    "duration": 0.32496565934065935,
    "velocity": 100,
    "pitch": 60
  },
  {
    "clipIndex": 350,
    "trackId": "60",
    "clipName": null,
    "beat": 185,
    "relBeat": 185,
    "duration": 0.25,
    "velocity": 100,
    "pitch": 60
  },
  {
    "clipIndex": 469,
    "trackId": "22",
    "clipName": null,
    "beat": 185,
    "relBeat": 25,
    "duration": 0.25,
    "velocity": 100,
    "pitch": 60
  },
  {
    "clipIndex": 471,
    "trackId": "22",
    "clipName": null,
    "beat": 185,
    "relBeat": 13,
    "duration": 0.25,
    "velocity": 100,
    "pitch": 60
  },
  {
    "clipIndex": 469,
    "trackId": "22",
    "clipName": null,
    "beat": 185.25,
    "relBeat": 25.25,
    "duration": 0.25,
    "velocity": 100,
    "pitch": 60
  },
  {
    "clipIndex": 471,
    "trackId": "22",
    "clipName": null,
    "beat": 185.25,
    "relBeat": 13.25,
    "duration": 0.25,
    "velocity": 100,
    "pitch": 60
  },
  {
    "clipIndex": 0,
    "trackId": "89",
    "clipName": null,
    "beat": 185.5,
    "relBeat": 185.5,
    "duration": 0.25,
    "velocity": 100,
    "pitch": 60
  },
  {
    "clipIndex": 469,
    "trackId": "22",
    "clipName": null,
    "beat": 185.5,
    "relBeat": 25.5,
    "duration": 0.25,
    "velocity": 100,
    "pitch": 60
  },
  {
    "clipIndex": 470,
    "trackId": "22",
    "clipName": null,
    "beat": 185.5,
    "relBeat": 24,
    "duration": 0.25,
    "velocity": 100,
    "pitch": 60
  },
  {
    "clipIndex": 471,
    "trackId": "22",
    "clipName": null,
    "beat": 185.5,
    "relBeat": 13.5,
    "duration": 0.25,
    "velocity": 100,
    "pitch": 60
  },
  {
    "clipIndex": 472,
    "trackId": "22",
    "clipName": null,
    "beat": 185.5,
    "relBeat": 12,
    "duration": 0.25,
    "velocity": 100,
    "pitch": 60
  },
  {
    "clipIndex": 469,
    "trackId": "22",
    "clipName": null,
    "beat": 185.75,
    "relBeat": 25.75,
    "duration": 0.25,
    "velocity": 100,
    "pitch": 60
  },
  {
    "clipIndex": 470,
    "trackId": "22",
    "clipName": null,
    "beat": 185.75,
    "relBeat": 24.25,
    "duration": 0.25,
    "velocity": 100,
    "pitch": 60
  },
  {
    "clipIndex": 471,
    "trackId": "22",
    "clipName": null,
    "beat": 185.75,
    "relBeat": 13.75,
    "duration": 0.25,
    "velocity": 100,
    "pitch": 60
  },
  {
    "clipIndex": 472,
    "trackId": "22",
    "clipName": null,
    "beat": 185.75,
    "relBeat": 12.25,
    "duration": 0.25,
    "velocity": 100,
    "pitch": 60
  },
  {
    "clipIndex": 0,
    "trackId": "89",
    "clipName": null,
    "beat": 186,
    "relBeat": 186,
    "duration": 0.25,
    "velocity": 100,
    "pitch": 60
  },
  {
    "clipIndex": 469,
    "trackId": "22",
    "clipName": null,
    "beat": 186,
    "relBeat": 26,
    "duration": 0.25,
    "velocity": 100,
    "pitch": 60
  },
  {
    "clipIndex": 470,
    "trackId": "22",
    "clipName": null,
    "beat": 186,
    "relBeat": 24.5,
    "duration": 0.25,
    "velocity": 100,
    "pitch": 60
  },
  {
    "clipIndex": 471,
    "trackId": "22",
    "clipName": null,
    "beat": 186,
    "relBeat": 14,
    "duration": 0.25,
    "velocity": 100,
    "pitch": 60
  },
  {
    "clipIndex": 472,
    "trackId": "22",
    "clipName": null,
    "beat": 186,
    "relBeat": 12.5,
    "duration": 0.25,
    "velocity": 100,
    "pitch": 60
  },
  {
    "clipIndex": 469,
    "trackId": "22",
    "clipName": null,
    "beat": 186.25,
    "relBeat": 26.25,
    "duration": 0.25,
    "velocity": 100,
    "pitch": 60
  },
  {
    "clipIndex": 470,
    "trackId": "22",
    "clipName": null,
    "beat": 186.25,
    "relBeat": 24.75,
    "duration": 0.25,
    "velocity": 100,
    "pitch": 60
  },
  {
    "clipIndex": 471,
    "trackId": "22",
    "clipName": null,
    "beat": 186.25,
    "relBeat": 14.25,
    "duration": 0.25,
    "velocity": 100,
    "pitch": 60
  },
  {
    "clipIndex": 472,
    "trackId": "22",
    "clipName": null,
    "beat": 186.25,
    "relBeat": 12.75,
    "duration": 0.25,
    "velocity": 100,
    "pitch": 60
  },
  {
    "clipIndex": 0,
    "trackId": "89",
    "clipName": null,
    "beat": 186.5,
    "relBeat": 186.5,
    "duration": 0.25,
    "velocity": 100,
    "pitch": 60
  },
  {
    "clipIndex": 469,
    "trackId": "22",
    "clipName": null,
    "beat": 186.5,
    "relBeat": 26.5,
    "duration": 0.25,
    "velocity": 100,
    "pitch": 60
  },
  {
    "clipIndex": 470,
    "trackId": "22",
    "clipName": null,
    "beat": 186.5,
    "relBeat": 25,
    "duration": 0.25,
    "velocity": 100,
    "pitch": 60
  },
  {
    "clipIndex": 471,
    "trackId": "22",
    "clipName": null,
    "beat": 186.5,
    "relBeat": 14.5,
    "duration": 0.25,
    "velocity": 100,
    "pitch": 60
  },
  {
    "clipIndex": 472,
    "trackId": "22",
    "clipName": null,
    "beat": 186.5,
    "relBeat": 13,
    "duration": 0.25,
    "velocity": 100,
    "pitch": 60
  },
  {
    "clipIndex": 469,
    "trackId": "22",
    "clipName": null,
    "beat": 186.75,
    "relBeat": 26.75,
    "duration": 0.25,
    "velocity": 100,
    "pitch": 60
  },
  {
    "clipIndex": 470,
    "trackId": "22",
    "clipName": null,
    "beat": 186.75,
    "relBeat": 25.25,
    "duration": 0.25,
    "velocity": 100,
    "pitch": 60
  },
  {
    "clipIndex": 471,
    "trackId": "22",
    "clipName": null,
    "beat": 186.75,
    "relBeat": 14.75,
    "duration": 0.25,
    "velocity": 100,
    "pitch": 60
  },
  {
    "clipIndex": 472,
    "trackId": "22",
    "clipName": null,
    "beat": 186.75,
    "relBeat": 13.25,
    "duration": 0.25,
    "velocity": 100,
    "pitch": 60
  },
  {
    "clipIndex": 0,
    "trackId": "89",
    "clipName": null,
    "beat": 187,
    "relBeat": 187,
    "duration": 0.25,
    "velocity": 100,
    "pitch": 60
  },
  {
    "clipIndex": 469,
    "trackId": "22",
    "clipName": null,
    "beat": 187,
    "relBeat": 27,
    "duration": 0.25,
    "velocity": 100,
    "pitch": 60
  },
  {
    "clipIndex": 470,
    "trackId": "22",
    "clipName": null,
    "beat": 187,
    "relBeat": 25.5,
    "duration": 0.25,
    "velocity": 100,
    "pitch": 60
  },
  {
    "clipIndex": 471,
    "trackId": "22",
    "clipName": null,
    "beat": 187,
    "relBeat": 15,
    "duration": 0.25,
    "velocity": 100,
    "pitch": 60
  },
  {
    "clipIndex": 472,
    "trackId": "22",
    "clipName": null,
    "beat": 187,
    "relBeat": 13.5,
    "duration": 0.25,
    "velocity": 100,
    "pitch": 60
  },
  {
    "clipIndex": 469,
    "trackId": "22",
    "clipName": null,
    "beat": 187.25,
    "relBeat": 27.25,
    "duration": 0.25,
    "velocity": 100,
    "pitch": 60
  },
  {
    "clipIndex": 470,
    "trackId": "22",
    "clipName": null,
    "beat": 187.25,
    "relBeat": 25.75,
    "duration": 0.25,
    "velocity": 100,
    "pitch": 60
  },
  {
    "clipIndex": 471,
    "trackId": "22",
    "clipName": null,
    "beat": 187.25,
    "relBeat": 15.25,
    "duration": 0.25,
    "velocity": 100,
    "pitch": 60
  },
  {
    "clipIndex": 472,
    "trackId": "22",
    "clipName": null,
    "beat": 187.25,
    "relBeat": 13.75,
    "duration": 0.25,
    "velocity": 100,
    "pitch": 60
  },
  {
    "clipIndex": 0,
    "trackId": "89",
    "clipName": null,
    "beat": 187.5,
    "relBeat": 187.5,
    "duration": 0.25,
    "velocity": 100,
    "pitch": 60
  },
  {
    "clipIndex": 469,
    "trackId": "22",
    "clipName": null,
    "beat": 187.5,
    "relBeat": 27.5,
    "duration": 0.25,
    "velocity": 100,
    "pitch": 60
  },
  {
    "clipIndex": 470,
    "trackId": "22",
    "clipName": null,
    "beat": 187.5,
    "relBeat": 26,
    "duration": 0.25,
    "velocity": 100,
    "pitch": 60
  },
  {
    "clipIndex": 471,
    "trackId": "22",
    "clipName": null,
    "beat": 187.5,
    "relBeat": 15.5,
    "duration": 0.25,
    "velocity": 100,
    "pitch": 60
  },
  {
    "clipIndex": 472,
    "trackId": "22",
    "clipName": null,
    "beat": 187.5,
    "relBeat": 14,
    "duration": 0.25,
    "velocity": 100,
    "pitch": 60
  },
  {
    "clipIndex": 469,
    "trackId": "22",
    "clipName": null,
    "beat": 187.75,
    "relBeat": 27.75,
    "duration": 0.25,
    "velocity": 100,
    "pitch": 60
  },
  {
    "clipIndex": 470,
    "trackId": "22",
    "clipName": null,
    "beat": 187.75,
    "relBeat": 26.25,
    "duration": 0.25,
    "velocity": 100,
    "pitch": 60
  },
  {
    "clipIndex": 471,
    "trackId": "22",
    "clipName": null,
    "beat": 187.75,
    "relBeat": 15.75,
    "duration": 0.25,
    "velocity": 100,
    "pitch": 60
  },
  {
    "clipIndex": 472,
    "trackId": "22",
    "clipName": null,
    "beat": 187.75,
    "relBeat": 14.25,
    "duration": 0.25,
    "velocity": 100,
    "pitch": 60
  },
  {
    "clipIndex": 0,
    "trackId": "89",
    "clipName": null,
    "beat": 188,
    "relBeat": 188,
    "duration": 0.25,
    "velocity": 100,
    "pitch": 60
  },
  {
    "clipIndex": 469,
    "trackId": "22",
    "clipName": null,
    "beat": 188,
    "relBeat": 28,
    "duration": 0.25,
    "velocity": 100,
    "pitch": 60
  },
  {
    "clipIndex": 470,
    "trackId": "22",
    "clipName": null,
    "beat": 188,
    "relBeat": 26.5,
    "duration": 0.25,
    "velocity": 100,
    "pitch": 60
  },
  {
    "clipIndex": 471,
    "trackId": "22",
    "clipName": null,
    "beat": 188,
    "relBeat": 16,
    "duration": 0.25,
    "velocity": 100,
    "pitch": 60
  },
  {
    "clipIndex": 472,
    "trackId": "22",
    "clipName": null,
    "beat": 188,
    "relBeat": 14.5,
    "duration": 0.25,
    "velocity": 100,
    "pitch": 60
  },
  {
    "clipIndex": 469,
    "trackId": "22",
    "clipName": null,
    "beat": 188.25,
    "relBeat": 28.25,
    "duration": 0.25,
    "velocity": 100,
    "pitch": 60
  },
  {
    "clipIndex": 470,
    "trackId": "22",
    "clipName": null,
    "beat": 188.25,
    "relBeat": 26.75,
    "duration": 0.25,
    "velocity": 100,
    "pitch": 60
  },
  {
    "clipIndex": 471,
    "trackId": "22",
    "clipName": null,
    "beat": 188.25,
    "relBeat": 16.25,
    "duration": 0.25,
    "velocity": 100,
    "pitch": 60
  },
  {
    "clipIndex": 472,
    "trackId": "22",
    "clipName": null,
    "beat": 188.25,
    "relBeat": 14.75,
    "duration": 0.25,
    "velocity": 100,
    "pitch": 60
  },
  {
    "clipIndex": 0,
    "trackId": "89",
    "clipName": null,
    "beat": 188.5,
    "relBeat": 188.5,
    "duration": 0.25,
    "velocity": 100,
    "pitch": 60
  },
  {
    "clipIndex": 469,
    "trackId": "22",
    "clipName": null,
    "beat": 188.5,
    "relBeat": 28.5,
    "duration": 0.25,
    "velocity": 100,
    "pitch": 60
  },
  {
    "clipIndex": 470,
    "trackId": "22",
    "clipName": null,
    "beat": 188.5,
    "relBeat": 27,
    "duration": 0.25,
    "velocity": 100,
    "pitch": 60
  },
  {
    "clipIndex": 471,
    "trackId": "22",
    "clipName": null,
    "beat": 188.5,
    "relBeat": 16.5,
    "duration": 0.25,
    "velocity": 100,
    "pitch": 60
  },
  {
    "clipIndex": 472,
    "trackId": "22",
    "clipName": null,
    "beat": 188.5,
    "relBeat": 15,
    "duration": 0.25,
    "velocity": 100,
    "pitch": 60
  },
  {
    "clipIndex": 469,
    "trackId": "22",
    "clipName": null,
    "beat": 188.75,
    "relBeat": 28.75,
    "duration": 0.25,
    "velocity": 100,
    "pitch": 60
  },
  {
    "clipIndex": 470,
    "trackId": "22",
    "clipName": null,
    "beat": 188.75,
    "relBeat": 27.25,
    "duration": 0.25,
    "velocity": 100,
    "pitch": 60
  },
  {
    "clipIndex": 471,
    "trackId": "22",
    "clipName": null,
    "beat": 188.75,
    "relBeat": 16.75,
    "duration": 0.25,
    "velocity": 100,
    "pitch": 60
  },
  {
    "clipIndex": 472,
    "trackId": "22",
    "clipName": null,
    "beat": 188.75,
    "relBeat": 15.25,
    "duration": 0.25,
    "velocity": 100,
    "pitch": 60
  },
  {
    "clipIndex": 0,
    "trackId": "89",
    "clipName": null,
    "beat": 189,
    "relBeat": 189,
    "duration": 0.25,
    "velocity": 100,
    "pitch": 60
  },
  {
    "clipIndex": 469,
    "trackId": "22",
    "clipName": null,
    "beat": 189,
    "relBeat": 29,
    "duration": 0.25,
    "velocity": 100,
    "pitch": 60
  },
  {
    "clipIndex": 470,
    "trackId": "22",
    "clipName": null,
    "beat": 189,
    "relBeat": 27.5,
    "duration": 0.25,
    "velocity": 100,
    "pitch": 60
  },
  {
    "clipIndex": 471,
    "trackId": "22",
    "clipName": null,
    "beat": 189,
    "relBeat": 17,
    "duration": 0.25,
    "velocity": 100,
    "pitch": 60
  },
  {
    "clipIndex": 472,
    "trackId": "22",
    "clipName": null,
    "beat": 189,
    "relBeat": 15.5,
    "duration": 0.25,
    "velocity": 100,
    "pitch": 60
  },
  {
    "clipIndex": 469,
    "trackId": "22",
    "clipName": null,
    "beat": 189.25,
    "relBeat": 29.25,
    "duration": 0.25,
    "velocity": 100,
    "pitch": 60
  },
  {
    "clipIndex": 470,
    "trackId": "22",
    "clipName": null,
    "beat": 189.25,
    "relBeat": 27.75,
    "duration": 0.25,
    "velocity": 100,
    "pitch": 60
  },
  {
    "clipIndex": 471,
    "trackId": "22",
    "clipName": null,
    "beat": 189.25,
    "relBeat": 17.25,
    "duration": 0.25,
    "velocity": 100,
    "pitch": 60
  },
  {
    "clipIndex": 472,
    "trackId": "22",
    "clipName": null,
    "beat": 189.25,
    "relBeat": 15.75,
    "duration": 0.25,
    "velocity": 100,
    "pitch": 60
  },
  {
    "clipIndex": 0,
    "trackId": "89",
    "clipName": null,
    "beat": 189.5,
    "relBeat": 189.5,
    "duration": 0.25,
    "velocity": 100,
    "pitch": 60
  },
  {
    "clipIndex": 469,
    "trackId": "22",
    "clipName": null,
    "beat": 189.5,
    "relBeat": 29.5,
    "duration": 0.25,
    "velocity": 100,
    "pitch": 60
  },
  {
    "clipIndex": 470,
    "trackId": "22",
    "clipName": null,
    "beat": 189.5,
    "relBeat": 28,
    "duration": 0.25,
    "velocity": 100,
    "pitch": 60
  },
  {
    "clipIndex": 471,
    "trackId": "22",
    "clipName": null,
    "beat": 189.5,
    "relBeat": 17.5,
    "duration": 0.25,
    "velocity": 100,
    "pitch": 60
  },
  {
    "clipIndex": 472,
    "trackId": "22",
    "clipName": null,
    "beat": 189.5,
    "relBeat": 16,
    "duration": 0.25,
    "velocity": 100,
    "pitch": 60
  },
  {
    "clipIndex": 469,
    "trackId": "22",
    "clipName": null,
    "beat": 189.75,
    "relBeat": 29.75,
    "duration": 0.25,
    "velocity": 100,
    "pitch": 60
  },
  {
    "clipIndex": 470,
    "trackId": "22",
    "clipName": null,
    "beat": 189.75,
    "relBeat": 28.25,
    "duration": 0.25,
    "velocity": 100,
    "pitch": 60
  },
  {
    "clipIndex": 471,
    "trackId": "22",
    "clipName": null,
    "beat": 189.75,
    "relBeat": 17.75,
    "duration": 0.25,
    "velocity": 100,
    "pitch": 60
  },
  {
    "clipIndex": 472,
    "trackId": "22",
    "clipName": null,
    "beat": 189.75,
    "relBeat": 16.25,
    "duration": 0.25,
    "velocity": 100,
    "pitch": 60
  },
  {
    "clipIndex": 0,
    "trackId": "89",
    "clipName": null,
    "beat": 190,
    "relBeat": 190,
    "duration": 0.25,
    "velocity": 100,
    "pitch": 60
  },
  {
    "clipIndex": 469,
    "trackId": "22",
    "clipName": null,
    "beat": 190,
    "relBeat": 30,
    "duration": 0.25,
    "velocity": 100,
    "pitch": 60
  },
  {
    "clipIndex": 470,
    "trackId": "22",
    "clipName": null,
    "beat": 190,
    "relBeat": 28.5,
    "duration": 0.25,
    "velocity": 100,
    "pitch": 60
  },
  {
    "clipIndex": 471,
    "trackId": "22",
    "clipName": null,
    "beat": 190,
    "relBeat": 18,
    "duration": 0.25,
    "velocity": 100,
    "pitch": 60
  },
  {
    "clipIndex": 472,
    "trackId": "22",
    "clipName": null,
    "beat": 190,
    "relBeat": 16.5,
    "duration": 0.25,
    "velocity": 100,
    "pitch": 60
  },
  {
    "clipIndex": 469,
    "trackId": "22",
    "clipName": null,
    "beat": 190.25,
    "relBeat": 30.25,
    "duration": 0.25,
    "velocity": 100,
    "pitch": 60
  },
  {
    "clipIndex": 470,
    "trackId": "22",
    "clipName": null,
    "beat": 190.25,
    "relBeat": 28.75,
    "duration": 0.25,
    "velocity": 100,
    "pitch": 60
  },
  {
    "clipIndex": 471,
    "trackId": "22",
    "clipName": null,
    "beat": 190.25,
    "relBeat": 18.25,
    "duration": 0.25,
    "velocity": 100,
    "pitch": 60
  },
  {
    "clipIndex": 472,
    "trackId": "22",
    "clipName": null,
    "beat": 190.25,
    "relBeat": 16.75,
    "duration": 0.25,
    "velocity": 100,
    "pitch": 60
  },
  {
    "clipIndex": 0,
    "trackId": "89",
    "clipName": null,
    "beat": 190.5,
    "relBeat": 190.5,
    "duration": 0.25,
    "velocity": 100,
    "pitch": 60
  },
  {
    "clipIndex": 469,
    "trackId": "22",
    "clipName": null,
    "beat": 190.5,
    "relBeat": 30.5,
    "duration": 0.25,
    "velocity": 100,
    "pitch": 60
  },
  {
    "clipIndex": 470,
    "trackId": "22",
    "clipName": null,
    "beat": 190.5,
    "relBeat": 29,
    "duration": 0.25,
    "velocity": 100,
    "pitch": 60
  },
  {
    "clipIndex": 471,
    "trackId": "22",
    "clipName": null,
    "beat": 190.5,
    "relBeat": 18.5,
    "duration": 0.25,
    "velocity": 100,
    "pitch": 60
  },
  {
    "clipIndex": 472,
    "trackId": "22",
    "clipName": null,
    "beat": 190.5,
    "relBeat": 17,
    "duration": 0.25,
    "velocity": 100,
    "pitch": 60
  },
  {
    "clipIndex": 469,
    "trackId": "22",
    "clipName": null,
    "beat": 190.75,
    "relBeat": 30.75,
    "duration": 0.25,
    "velocity": 100,
    "pitch": 60
  },
  {
    "clipIndex": 470,
    "trackId": "22",
    "clipName": null,
    "beat": 190.75,
    "relBeat": 29.25,
    "duration": 0.25,
    "velocity": 100,
    "pitch": 60
  },
  {
    "clipIndex": 471,
    "trackId": "22",
    "clipName": null,
    "beat": 190.75,
    "relBeat": 18.75,
    "duration": 0.25,
    "velocity": 100,
    "pitch": 60
  },
  {
    "clipIndex": 472,
    "trackId": "22",
    "clipName": null,
    "beat": 190.75,
    "relBeat": 17.25,
    "duration": 0.25,
    "velocity": 100,
    "pitch": 60
  },
  {
    "clipIndex": 0,
    "trackId": "89",
    "clipName": null,
    "beat": 191,
    "relBeat": 191,
    "duration": 0.25,
    "velocity": 100,
    "pitch": 60
  },
  {
    "clipIndex": 469,
    "trackId": "22",
    "clipName": null,
    "beat": 191,
    "relBeat": 31,
    "duration": 0.25,
    "velocity": 100,
    "pitch": 60
  },
  {
    "clipIndex": 470,
    "trackId": "22",
    "clipName": null,
    "beat": 191,
    "relBeat": 29.5,
    "duration": 0.25,
    "velocity": 100,
    "pitch": 60
  },
  {
    "clipIndex": 471,
    "trackId": "22",
    "clipName": null,
    "beat": 191,
    "relBeat": 19,
    "duration": 0.25,
    "velocity": 100,
    "pitch": 60
  },
  {
    "clipIndex": 472,
    "trackId": "22",
    "clipName": null,
    "beat": 191,
    "relBeat": 17.5,
    "duration": 0.25,
    "velocity": 100,
    "pitch": 60
  },
  {
    "clipIndex": 469,
    "trackId": "22",
    "clipName": null,
    "beat": 191.25,
    "relBeat": 31.25,
    "duration": 0.25,
    "velocity": 100,
    "pitch": 60
  },
  {
    "clipIndex": 470,
    "trackId": "22",
    "clipName": null,
    "beat": 191.25,
    "relBeat": 29.75,
    "duration": 0.25,
    "velocity": 100,
    "pitch": 60
  },
  {
    "clipIndex": 471,
    "trackId": "22",
    "clipName": null,
    "beat": 191.25,
    "relBeat": 19.25,
    "duration": 0.25,
    "velocity": 100,
    "pitch": 60
  },
  {
    "clipIndex": 472,
    "trackId": "22",
    "clipName": null,
    "beat": 191.25,
    "relBeat": 17.75,
    "duration": 0.25,
    "velocity": 100,
    "pitch": 60
  },
  {
    "clipIndex": 0,
    "trackId": "89",
    "clipName": null,
    "beat": 191.5,
    "relBeat": 191.5,
    "duration": 0.25,
    "velocity": 100,
    "pitch": 60
  },
  {
    "clipIndex": 469,
    "trackId": "22",
    "clipName": null,
    "beat": 191.5,
    "relBeat": 31.5,
    "duration": 0.25,
    "velocity": 100,
    "pitch": 60
  },
  {
    "clipIndex": 470,
    "trackId": "22",
    "clipName": null,
    "beat": 191.5,
    "relBeat": 30,
    "duration": 0.25,
    "velocity": 100,
    "pitch": 60
  },
  {
    "clipIndex": 471,
    "trackId": "22",
    "clipName": null,
    "beat": 191.5,
    "relBeat": 19.5,
    "duration": 0.25,
    "velocity": 100,
    "pitch": 60
  },
  {
    "clipIndex": 472,
    "trackId": "22",
    "clipName": null,
    "beat": 191.5,
    "relBeat": 18,
    "duration": 0.25,
    "velocity": 100,
    "pitch": 60
  },
  {
    "clipIndex": 469,
    "trackId": "22",
    "clipName": null,
    "beat": 191.75,
    "relBeat": 31.75,
    "duration": 0.25,
    "velocity": 100,
    "pitch": 60
  },
  {
    "clipIndex": 470,
    "trackId": "22",
    "clipName": null,
    "beat": 191.75,
    "relBeat": 30.25,
    "duration": 0.25,
    "velocity": 100,
    "pitch": 60
  },
  {
    "clipIndex": 471,
    "trackId": "22",
    "clipName": null,
    "beat": 191.75,
    "relBeat": 19.75,
    "duration": 0.25,
    "velocity": 100,
    "pitch": 60
  },
  {
    "clipIndex": 472,
    "trackId": "22",
    "clipName": null,
    "beat": 191.75,
    "relBeat": 18.25,
    "duration": 0.25,
    "velocity": 100,
    "pitch": 60
  },
  {
    "clipIndex": 0,
    "trackId": "89",
    "clipName": null,
    "beat": 192,
    "relBeat": 192,
    "duration": 0.25,
    "velocity": 100,
    "pitch": 60
  },
  {
    "clipIndex": 470,
    "trackId": "22",
    "clipName": null,
    "beat": 192,
    "relBeat": 30.5,
    "duration": 0.25,
    "velocity": 100,
    "pitch": 60
  },
  {
    "clipIndex": 471,
    "trackId": "22",
    "clipName": null,
    "beat": 192,
    "relBeat": 20,
    "duration": 0.25,
    "velocity": 100,
    "pitch": 60
  },
  {
    "clipIndex": 472,
    "trackId": "22",
    "clipName": null,
    "beat": 192,
    "relBeat": 18.5,
    "duration": 0.25,
    "velocity": 100,
    "pitch": 60
  },
  {
    "clipIndex": 356,
    "trackId": "67",
    "clipName": null,
    "beat": 192.25,
    "relBeat": 192.25,
    "duration": 0.32496565934065935,
    "velocity": 100,
    "pitch": 72
  },
  {
    "clipIndex": 470,
    "trackId": "22",
    "clipName": null,
    "beat": 192.25,
    "relBeat": 30.75,
    "duration": 0.25,
    "velocity": 100,
    "pitch": 60
  },
  {
    "clipIndex": 471,
    "trackId": "22",
    "clipName": null,
    "beat": 192.25,
    "relBeat": 20.25,
    "duration": 0.25,
    "velocity": 100,
    "pitch": 60
  },
  {
    "clipIndex": 472,
    "trackId": "22",
    "clipName": null,
    "beat": 192.25,
    "relBeat": 18.75,
    "duration": 0.25,
    "velocity": 100,
    "pitch": 60
  },
  {
    "clipIndex": 0,
    "trackId": "89",
    "clipName": null,
    "beat": 192.5,
    "relBeat": 192.5,
    "duration": 0.25,
    "velocity": 100,
    "pitch": 60
  },
  {
    "clipIndex": 470,
    "trackId": "22",
    "clipName": null,
    "beat": 192.5,
    "relBeat": 31,
    "duration": 0.25,
    "velocity": 100,
    "pitch": 60
  },
  {
    "clipIndex": 471,
    "trackId": "22",
    "clipName": null,
    "beat": 192.5,
    "relBeat": 20.5,
    "duration": 0.25,
    "velocity": 100,
    "pitch": 60
  },
  {
    "clipIndex": 472,
    "trackId": "22",
    "clipName": null,
    "beat": 192.5,
    "relBeat": 19,
    "duration": 0.25,
    "velocity": 100,
    "pitch": 60
  },
  {
    "clipIndex": 356,
    "trackId": "67",
    "clipName": null,
    "beat": 192.75,
    "relBeat": 192.75,
    "duration": 0.32496565934065935,
    "velocity": 100,
    "pitch": 72
  },
  {
    "clipIndex": 470,
    "trackId": "22",
    "clipName": null,
    "beat": 192.75,
    "relBeat": 31.25,
    "duration": 0.25,
    "velocity": 100,
    "pitch": 60
  },
  {
    "clipIndex": 471,
    "trackId": "22",
    "clipName": null,
    "beat": 192.75,
    "relBeat": 20.75,
    "duration": 0.25,
    "velocity": 100,
    "pitch": 60
  },
  {
    "clipIndex": 472,
    "trackId": "22",
    "clipName": null,
    "beat": 192.75,
    "relBeat": 19.25,
    "duration": 0.25,
    "velocity": 100,
    "pitch": 60
  },
  {
    "clipIndex": 0,
    "trackId": "89",
    "clipName": null,
    "beat": 193,
    "relBeat": 193,
    "duration": 0.25,
    "velocity": 100,
    "pitch": 60
  },
  {
    "clipIndex": 470,
    "trackId": "22",
    "clipName": null,
    "beat": 193,
    "relBeat": 31.5,
    "duration": 0.25,
    "velocity": 100,
    "pitch": 60
  },
  {
    "clipIndex": 471,
    "trackId": "22",
    "clipName": null,
    "beat": 193,
    "relBeat": 21,
    "duration": 0.25,
    "velocity": 100,
    "pitch": 60
  },
  {
    "clipIndex": 472,
    "trackId": "22",
    "clipName": null,
    "beat": 193,
    "relBeat": 19.5,
    "duration": 0.25,
    "velocity": 100,
    "pitch": 60
  },
  {
    "clipIndex": 356,
    "trackId": "67",
    "clipName": null,
    "beat": 193.25,
    "relBeat": 193.25,
    "duration": 0.32496565934065935,
    "velocity": 100,
    "pitch": 72
  },
  {
    "clipIndex": 470,
    "trackId": "22",
    "clipName": null,
    "beat": 193.25,
    "relBeat": 31.75,
    "duration": 0.25,
    "velocity": 100,
    "pitch": 60
  },
  {
    "clipIndex": 471,
    "trackId": "22",
    "clipName": null,
    "beat": 193.25,
    "relBeat": 21.25,
    "duration": 0.25,
    "velocity": 100,
    "pitch": 60
  },
  {
    "clipIndex": 472,
    "trackId": "22",
    "clipName": null,
    "beat": 193.25,
    "relBeat": 19.75,
    "duration": 0.25,
    "velocity": 100,
    "pitch": 60
  },
  {
    "clipIndex": 0,
    "trackId": "89",
    "clipName": null,
    "beat": 193.5,
    "relBeat": 193.5,
    "duration": 0.25,
    "velocity": 100,
    "pitch": 60
  },
  {
    "clipIndex": 472,
    "trackId": "22",
    "clipName": null,
    "beat": 193.5,
    "relBeat": 20,
    "duration": 0.25,
    "velocity": 100,
    "pitch": 60
  },
  {
    "clipIndex": 356,
    "trackId": "67",
    "clipName": null,
    "beat": 193.75,
    "relBeat": 193.75,
    "duration": 0.25000026015651017,
    "velocity": 100,
    "pitch": 72
  },
  {
    "clipIndex": 472,
    "trackId": "22",
    "clipName": null,
    "beat": 193.75,
    "relBeat": 20.25,
    "duration": 0.25,
    "velocity": 100,
    "pitch": 60
  },
  {
    "clipIndex": 0,
    "trackId": "89",
    "clipName": null,
    "beat": 194,
    "relBeat": 194,
    "duration": 0.25,
    "velocity": 100,
    "pitch": 60
  },
  {
    "clipIndex": 472,
    "trackId": "22",
    "clipName": null,
    "beat": 194,
    "relBeat": 20.5,
    "duration": 0.25,
    "velocity": 100,
    "pitch": 60
  },
  {
    "clipIndex": 472,
    "trackId": "22",
    "clipName": null,
    "beat": 194.25,
    "relBeat": 20.75,
    "duration": 0.25,
    "velocity": 100,
    "pitch": 60
  },
  {
    "clipIndex": 472,
    "trackId": "22",
    "clipName": null,
    "beat": 194.5,
    "relBeat": 21,
    "duration": 0.25,
    "velocity": 100,
    "pitch": 60
  },
  {
    "clipIndex": 472,
    "trackId": "22",
    "clipName": null,
    "beat": 194.75,
    "relBeat": 21.25,
    "duration": 0.25,
    "velocity": 100,
    "pitch": 60
  },
  {
    "clipIndex": 356,
    "trackId": "67",
    "clipName": null,
    "beat": 195.25,
    "relBeat": 195.25,
    "duration": 0.32496565934065935,
    "velocity": 100,
    "pitch": 72
  },
  {
    "clipIndex": 356,
    "trackId": "67",
    "clipName": null,
    "beat": 196,
    "relBeat": 196,
    "duration": 0.32496565934065935,
    "velocity": 100,
    "pitch": 72
  },
  {
    "clipIndex": 471,
    "trackId": "22",
    "clipName": null,
    "beat": 196,
    "relBeat": 24,
    "duration": 0.25,
    "velocity": 100,
    "pitch": 60
  },
  {
    "clipIndex": 471,
    "trackId": "22",
    "clipName": null,
    "beat": 196.25,
    "relBeat": 24.25,
    "duration": 0.25,
    "velocity": 100,
    "pitch": 60
  },
  {
    "clipIndex": 471,
    "trackId": "22",
    "clipName": null,
    "beat": 196.5,
    "relBeat": 24.5,
    "duration": 0.25,
    "velocity": 100,
    "pitch": 60
  },
  {
    "clipIndex": 356,
    "trackId": "67",
    "clipName": null,
    "beat": 196.75,
    "relBeat": 196.75,
    "duration": 0.32496565934065935,
    "velocity": 100,
    "pitch": 72
  },
  {
    "clipIndex": 471,
    "trackId": "22",
    "clipName": null,
    "beat": 196.75,
    "relBeat": 24.75,
    "duration": 0.25,
    "velocity": 100,
    "pitch": 60
  },
  {
    "clipIndex": 471,
    "trackId": "22",
    "clipName": null,
    "beat": 197,
    "relBeat": 25,
    "duration": 0.25,
    "velocity": 100,
    "pitch": 60
  },
  {
    "clipIndex": 471,
    "trackId": "22",
    "clipName": null,
    "beat": 197.25,
    "relBeat": 25.25,
    "duration": 0.25,
    "velocity": 100,
    "pitch": 60
  },
  {
    "clipIndex": 356,
    "trackId": "67",
    "clipName": null,
    "beat": 197.5,
    "relBeat": 197.5,
    "duration": 0.25000026015651017,
    "velocity": 100,
    "pitch": 72
  },
  {
    "clipIndex": 471,
    "trackId": "22",
    "clipName": null,
    "beat": 197.5,
    "relBeat": 25.5,
    "duration": 0.25,
    "velocity": 100,
    "pitch": 60
  },
  {
    "clipIndex": 472,
    "trackId": "22",
    "clipName": null,
    "beat": 197.5,
    "relBeat": 24,
    "duration": 0.25,
    "velocity": 100,
    "pitch": 60
  },
  {
    "clipIndex": 471,
    "trackId": "22",
    "clipName": null,
    "beat": 197.75,
    "relBeat": 25.75,
    "duration": 0.25,
    "velocity": 100,
    "pitch": 60
  },
  {
    "clipIndex": 472,
    "trackId": "22",
    "clipName": null,
    "beat": 197.75,
    "relBeat": 24.25,
    "duration": 0.25,
    "velocity": 100,
    "pitch": 60
  },
  {
    "clipIndex": 356,
    "trackId": "67",
    "clipName": null,
    "beat": 198,
    "relBeat": 198,
    "duration": 0.25000026015651017,
    "velocity": 100,
    "pitch": 72
  },
  {
    "clipIndex": 471,
    "trackId": "22",
    "clipName": null,
    "beat": 198,
    "relBeat": 26,
    "duration": 0.25,
    "velocity": 100,
    "pitch": 60
  },
  {
    "clipIndex": 472,
    "trackId": "22",
    "clipName": null,
    "beat": 198,
    "relBeat": 24.5,
    "duration": 0.25,
    "velocity": 100,
    "pitch": 60
  },
  {
    "clipIndex": 471,
    "trackId": "22",
    "clipName": null,
    "beat": 198.25,
    "relBeat": 26.25,
    "duration": 0.25,
    "velocity": 100,
    "pitch": 60
  },
  {
    "clipIndex": 472,
    "trackId": "22",
    "clipName": null,
    "beat": 198.25,
    "relBeat": 24.75,
    "duration": 0.25,
    "velocity": 100,
    "pitch": 60
  },
  {
    "clipIndex": 471,
    "trackId": "22",
    "clipName": null,
    "beat": 198.5,
    "relBeat": 26.5,
    "duration": 0.25,
    "velocity": 100,
    "pitch": 60
  },
  {
    "clipIndex": 472,
    "trackId": "22",
    "clipName": null,
    "beat": 198.5,
    "relBeat": 25,
    "duration": 0.25,
    "velocity": 100,
    "pitch": 60
  },
  {
    "clipIndex": 471,
    "trackId": "22",
    "clipName": null,
    "beat": 198.75,
    "relBeat": 26.75,
    "duration": 0.25,
    "velocity": 100,
    "pitch": 60
  },
  {
    "clipIndex": 472,
    "trackId": "22",
    "clipName": null,
    "beat": 198.75,
    "relBeat": 25.25,
    "duration": 0.25,
    "velocity": 100,
    "pitch": 60
  },
  {
    "clipIndex": 471,
    "trackId": "22",
    "clipName": null,
    "beat": 199,
    "relBeat": 27,
    "duration": 0.25,
    "velocity": 100,
    "pitch": 60
  },
  {
    "clipIndex": 472,
    "trackId": "22",
    "clipName": null,
    "beat": 199,
    "relBeat": 25.5,
    "duration": 0.25,
    "velocity": 100,
    "pitch": 60
  },
  {
    "clipIndex": 471,
    "trackId": "22",
    "clipName": null,
    "beat": 199.25,
    "relBeat": 27.25,
    "duration": 0.25,
    "velocity": 100,
    "pitch": 60
  },
  {
    "clipIndex": 472,
    "trackId": "22",
    "clipName": null,
    "beat": 199.25,
    "relBeat": 25.75,
    "duration": 0.25,
    "velocity": 100,
    "pitch": 60
  },
  {
    "clipIndex": 471,
    "trackId": "22",
    "clipName": null,
    "beat": 199.5,
    "relBeat": 27.5,
    "duration": 0.25,
    "velocity": 100,
    "pitch": 60
  },
  {
    "clipIndex": 472,
    "trackId": "22",
    "clipName": null,
    "beat": 199.5,
    "relBeat": 26,
    "duration": 0.25,
    "velocity": 100,
    "pitch": 60
  },
  {
    "clipIndex": 471,
    "trackId": "22",
    "clipName": null,
    "beat": 199.75,
    "relBeat": 27.75,
    "duration": 0.25,
    "velocity": 100,
    "pitch": 60
  },
  {
    "clipIndex": 472,
    "trackId": "22",
    "clipName": null,
    "beat": 199.75,
    "relBeat": 26.25,
    "duration": 0.25,
    "velocity": 100,
    "pitch": 60
  },
  {
    "clipIndex": 0,
    "trackId": "89",
    "clipName": null,
    "beat": 200,
    "relBeat": 200,
    "duration": 0.25,
    "velocity": 100,
    "pitch": 60
  },
  {
    "clipIndex": 471,
    "trackId": "22",
    "clipName": null,
    "beat": 200,
    "relBeat": 28,
    "duration": 0.25,
    "velocity": 100,
    "pitch": 60
  },
  {
    "clipIndex": 472,
    "trackId": "22",
    "clipName": null,
    "beat": 200,
    "relBeat": 26.5,
    "duration": 0.25,
    "velocity": 100,
    "pitch": 60
  },
  {
    "clipIndex": 0,
    "trackId": "89",
    "clipName": null,
    "beat": 200.25,
    "relBeat": 200.25,
    "duration": 0.25,
    "velocity": 100,
    "pitch": 60
  },
  {
    "clipIndex": 338,
    "trackId": "55",
    "clipName": null,
    "beat": 200.25,
    "relBeat": 0.25,
    "duration": 0.32496565934065935,
    "velocity": 100,
    "pitch": 60
  },
  {
    "clipIndex": 471,
    "trackId": "22",
    "clipName": null,
    "beat": 200.25,
    "relBeat": 28.25,
    "duration": 0.25,
    "velocity": 100,
    "pitch": 60
  },
  {
    "clipIndex": 472,
    "trackId": "22",
    "clipName": null,
    "beat": 200.25,
    "relBeat": 26.75,
    "duration": 0.25,
    "velocity": 100,
    "pitch": 60
  },
  {
    "clipIndex": 471,
    "trackId": "22",
    "clipName": null,
    "beat": 200.5,
    "relBeat": 28.5,
    "duration": 0.25,
    "velocity": 100,
    "pitch": 60
  },
  {
    "clipIndex": 472,
    "trackId": "22",
    "clipName": null,
    "beat": 200.5,
    "relBeat": 27,
    "duration": 0.25,
    "velocity": 100,
    "pitch": 60
  },
  {
    "clipIndex": 338,
    "trackId": "55",
    "clipName": null,
    "beat": 200.75,
    "relBeat": 0.75,
    "duration": 0.32496565934065935,
    "velocity": 100,
    "pitch": 60
  },
  {
    "clipIndex": 471,
    "trackId": "22",
    "clipName": null,
    "beat": 200.75,
    "relBeat": 28.75,
    "duration": 0.25,
    "velocity": 100,
    "pitch": 60
  },
  {
    "clipIndex": 472,
    "trackId": "22",
    "clipName": null,
    "beat": 200.75,
    "relBeat": 27.25,
    "duration": 0.25,
    "velocity": 100,
    "pitch": 60
  },
  {
    "clipIndex": 0,
    "trackId": "89",
    "clipName": null,
    "beat": 201,
    "relBeat": 201,
    "duration": 0.25,
    "velocity": 100,
    "pitch": 60
  },
  {
    "clipIndex": 471,
    "trackId": "22",
    "clipName": null,
    "beat": 201,
    "relBeat": 29,
    "duration": 0.25,
    "velocity": 100,
    "pitch": 60
  },
  {
    "clipIndex": 472,
    "trackId": "22",
    "clipName": null,
    "beat": 201,
    "relBeat": 27.5,
    "duration": 0.25,
    "velocity": 100,
    "pitch": 60
  },
  {
    "clipIndex": 0,
    "trackId": "89",
    "clipName": null,
    "beat": 201.25,
    "relBeat": 201.25,
    "duration": 0.25,
    "velocity": 100,
    "pitch": 60
  },
  {
    "clipIndex": 338,
    "trackId": "55",
    "clipName": null,
    "beat": 201.25,
    "relBeat": 1.25,
    "duration": 0.32496565934065935,
    "velocity": 100,
    "pitch": 60
  },
  {
    "clipIndex": 471,
    "trackId": "22",
    "clipName": null,
    "beat": 201.25,
    "relBeat": 29.25,
    "duration": 0.25,
    "velocity": 100,
    "pitch": 60
  },
  {
    "clipIndex": 472,
    "trackId": "22",
    "clipName": null,
    "beat": 201.25,
    "relBeat": 27.75,
    "duration": 0.25,
    "velocity": 100,
    "pitch": 60
  },
  {
    "clipIndex": 471,
    "trackId": "22",
    "clipName": null,
    "beat": 201.5,
    "relBeat": 29.5,
    "duration": 0.25,
    "velocity": 100,
    "pitch": 60
  },
  {
    "clipIndex": 472,
    "trackId": "22",
    "clipName": null,
    "beat": 201.5,
    "relBeat": 28,
    "duration": 0.25,
    "velocity": 100,
    "pitch": 60
  },
  {
    "clipIndex": 338,
    "trackId": "55",
    "clipName": null,
    "beat": 201.75,
    "relBeat": 1.75,
    "duration": 0.25000026015651017,
    "velocity": 100,
    "pitch": 60
  },
  {
    "clipIndex": 471,
    "trackId": "22",
    "clipName": null,
    "beat": 201.75,
    "relBeat": 29.75,
    "duration": 0.25,
    "velocity": 100,
    "pitch": 60
  },
  {
    "clipIndex": 472,
    "trackId": "22",
    "clipName": null,
    "beat": 201.75,
    "relBeat": 28.25,
    "duration": 0.25,
    "velocity": 100,
    "pitch": 60
  },
  {
    "clipIndex": 471,
    "trackId": "22",
    "clipName": null,
    "beat": 202,
    "relBeat": 30,
    "duration": 0.25,
    "velocity": 100,
    "pitch": 60
  },
  {
    "clipIndex": 472,
    "trackId": "22",
    "clipName": null,
    "beat": 202,
    "relBeat": 28.5,
    "duration": 0.25,
    "velocity": 100,
    "pitch": 60
  },
  {
    "clipIndex": 471,
    "trackId": "22",
    "clipName": null,
    "beat": 202.25,
    "relBeat": 30.25,
    "duration": 0.25,
    "velocity": 100,
    "pitch": 60
  },
  {
    "clipIndex": 472,
    "trackId": "22",
    "clipName": null,
    "beat": 202.25,
    "relBeat": 28.75,
    "duration": 0.25,
    "velocity": 100,
    "pitch": 60
  },
  {
    "clipIndex": 471,
    "trackId": "22",
    "clipName": null,
    "beat": 202.5,
    "relBeat": 30.5,
    "duration": 0.25,
    "velocity": 100,
    "pitch": 60
  },
  {
    "clipIndex": 472,
    "trackId": "22",
    "clipName": null,
    "beat": 202.5,
    "relBeat": 29,
    "duration": 0.25,
    "velocity": 100,
    "pitch": 60
  },
  {
    "clipIndex": 0,
    "trackId": "89",
    "clipName": null,
    "beat": 202.75,
    "relBeat": 202.75,
    "duration": 0.25,
    "velocity": 100,
    "pitch": 60
  },
  {
    "clipIndex": 471,
    "trackId": "22",
    "clipName": null,
    "beat": 202.75,
    "relBeat": 30.75,
    "duration": 0.25,
    "velocity": 100,
    "pitch": 60
  },
  {
    "clipIndex": 472,
    "trackId": "22",
    "clipName": null,
    "beat": 202.75,
    "relBeat": 29.25,
    "duration": 0.25,
    "velocity": 100,
    "pitch": 60
  },
  {
    "clipIndex": 0,
    "trackId": "89",
    "clipName": null,
    "beat": 203,
    "relBeat": 203,
    "duration": 0.25,
    "velocity": 100,
    "pitch": 60
  },
  {
    "clipIndex": 471,
    "trackId": "22",
    "clipName": null,
    "beat": 203,
    "relBeat": 31,
    "duration": 0.25,
    "velocity": 100,
    "pitch": 60
  },
  {
    "clipIndex": 472,
    "trackId": "22",
    "clipName": null,
    "beat": 203,
    "relBeat": 29.5,
    "duration": 0.25,
    "velocity": 100,
    "pitch": 60
  },
  {
    "clipIndex": 471,
    "trackId": "22",
    "clipName": null,
    "beat": 203.25,
    "relBeat": 31.25,
    "duration": 0.25,
    "velocity": 100,
    "pitch": 60
  },
  {
    "clipIndex": 472,
    "trackId": "22",
    "clipName": null,
    "beat": 203.25,
    "relBeat": 29.75,
    "duration": 0.25,
    "velocity": 100,
    "pitch": 60
  },
  {
    "clipIndex": 0,
    "trackId": "89",
    "clipName": null,
    "beat": 203.5,
    "relBeat": 203.5,
    "duration": 0.25,
    "velocity": 100,
    "pitch": 60
  },
  {
    "clipIndex": 471,
    "trackId": "22",
    "clipName": null,
    "beat": 203.5,
    "relBeat": 31.5,
    "duration": 0.25,
    "velocity": 100,
    "pitch": 60
  },
  {
    "clipIndex": 472,
    "trackId": "22",
    "clipName": null,
    "beat": 203.5,
    "relBeat": 30,
    "duration": 0.25,
    "velocity": 100,
    "pitch": 60
  },
  {
    "clipIndex": 471,
    "trackId": "22",
    "clipName": null,
    "beat": 203.75,
    "relBeat": 31.75,
    "duration": 0.25,
    "velocity": 100,
    "pitch": 60
  },
  {
    "clipIndex": 472,
    "trackId": "22",
    "clipName": null,
    "beat": 203.75,
    "relBeat": 30.25,
    "duration": 0.25,
    "velocity": 100,
    "pitch": 60
  },
  {
    "clipIndex": 0,
    "trackId": "89",
    "clipName": null,
    "beat": 204,
    "relBeat": 204,
    "duration": 0.25,
    "velocity": 100,
    "pitch": 60
  },
  {
    "clipIndex": 472,
    "trackId": "22",
    "clipName": null,
    "beat": 204,
    "relBeat": 30.5,
    "duration": 0.25,
    "velocity": 100,
    "pitch": 60
  },
  {
    "clipIndex": 472,
    "trackId": "22",
    "clipName": null,
    "beat": 204.25,
    "relBeat": 30.75,
    "duration": 0.25,
    "velocity": 100,
    "pitch": 60
  },
  {
    "clipIndex": 0,
    "trackId": "89",
    "clipName": null,
    "beat": 204.5,
    "relBeat": 204.5,
    "duration": 0.25,
    "velocity": 100,
    "pitch": 60
  },
  {
    "clipIndex": 472,
    "trackId": "22",
    "clipName": null,
    "beat": 204.5,
    "relBeat": 31,
    "duration": 0.25,
    "velocity": 100,
    "pitch": 60
  },
  {
    "clipIndex": 472,
    "trackId": "22",
    "clipName": null,
    "beat": 204.75,
    "relBeat": 31.25,
    "duration": 0.25,
    "velocity": 100,
    "pitch": 60
  },
  {
    "clipIndex": 0,
    "trackId": "89",
    "clipName": null,
    "beat": 205,
    "relBeat": 205,
    "duration": 0.25,
    "velocity": 100,
    "pitch": 60
  },
  {
    "clipIndex": 472,
    "trackId": "22",
    "clipName": null,
    "beat": 205,
    "relBeat": 31.5,
    "duration": 0.25,
    "velocity": 100,
    "pitch": 60
  },
  {
    "clipIndex": 472,
    "trackId": "22",
    "clipName": null,
    "beat": 205.25,
    "relBeat": 31.75,
    "duration": 0.25,
    "velocity": 100,
    "pitch": 60
  },
  {
    "clipIndex": 0,
    "trackId": "89",
    "clipName": null,
    "beat": 205.5,
    "relBeat": 205.5,
    "duration": 0.25,
    "velocity": 100,
    "pitch": 60
  },
  {
    "clipIndex": 0,
    "trackId": "89",
    "clipName": null,
    "beat": 206,
    "relBeat": 206,
    "duration": 0.25,
    "velocity": 100,
    "pitch": 60
  },
  {
    "clipIndex": 0,
    "trackId": "89",
    "clipName": null,
    "beat": 206.5,
    "relBeat": 206.5,
    "duration": 0.25,
    "velocity": 100,
    "pitch": 60
  },
  {
    "clipIndex": 0,
    "trackId": "89",
    "clipName": null,
    "beat": 207,
    "relBeat": 207,
    "duration": 0.25,
    "velocity": 100,
    "pitch": 60
  },
  {
    "clipIndex": 353,
    "trackId": "66",
    "clipName": null,
    "beat": 207.25,
    "relBeat": 207.25,
    "duration": 0.32496565934065935,
    "velocity": 100,
    "pitch": 72
  },
  {
    "clipIndex": 0,
    "trackId": "89",
    "clipName": null,
    "beat": 207.5,
    "relBeat": 207.5,
    "duration": 0.25,
    "velocity": 100,
    "pitch": 60
  },
  {
    "clipIndex": 353,
    "trackId": "66",
    "clipName": null,
    "beat": 207.75,
    "relBeat": 207.75,
    "duration": 0.32496565934065935,
    "velocity": 100,
    "pitch": 72
  },
  {
    "clipIndex": 0,
    "trackId": "89",
    "clipName": null,
    "beat": 208,
    "relBeat": 208,
    "duration": 0.25,
    "velocity": 100,
    "pitch": 60
  },
  {
    "clipIndex": 353,
    "trackId": "66",
    "clipName": null,
    "beat": 208.25,
    "relBeat": 208.25,
    "duration": 0.32496565934065935,
    "velocity": 100,
    "pitch": 72
  },
  {
    "clipIndex": 0,
    "trackId": "89",
    "clipName": null,
    "beat": 208.5,
    "relBeat": 208.5,
    "duration": 0.25,
    "velocity": 100,
    "pitch": 60
  },
  {
    "clipIndex": 353,
    "trackId": "66",
    "clipName": null,
    "beat": 208.75,
    "relBeat": 208.75,
    "duration": 0.25,
    "velocity": 100,
    "pitch": 72
  },
  {
    "clipIndex": 0,
    "trackId": "89",
    "clipName": null,
    "beat": 209,
    "relBeat": 209,
    "duration": 0.25,
    "velocity": 100,
    "pitch": 60
  },
  {
    "clipIndex": 353,
    "trackId": "66",
    "clipName": null,
    "beat": 209.25,
    "relBeat": 209.25,
    "duration": 0.32496565934065935,
    "velocity": 100,
    "pitch": 72
  },
  {
    "clipIndex": 0,
    "trackId": "89",
    "clipName": null,
    "beat": 209.5,
    "relBeat": 209.5,
    "duration": 0.25,
    "velocity": 100,
    "pitch": 60
  },
  {
    "clipIndex": 353,
    "trackId": "66",
    "clipName": null,
    "beat": 209.75,
    "relBeat": 209.75,
    "duration": 0.32496565934065935,
    "velocity": 100,
    "pitch": 72
  },
  {
    "clipIndex": 0,
    "trackId": "89",
    "clipName": null,
    "beat": 210,
    "relBeat": 210,
    "duration": 0.25,
    "velocity": 100,
    "pitch": 60
  },
  {
    "clipIndex": 353,
    "trackId": "66",
    "clipName": null,
    "beat": 210.25,
    "relBeat": 210.25,
    "duration": 0.32496565934065935,
    "velocity": 100,
    "pitch": 72
  },
  {
    "clipIndex": 0,
    "trackId": "89",
    "clipName": null,
    "beat": 210.5,
    "relBeat": 210.5,
    "duration": 0.25,
    "velocity": 100,
    "pitch": 60
  },
  {
    "clipIndex": 353,
    "trackId": "66",
    "clipName": null,
    "beat": 210.75,
    "relBeat": 210.75,
    "duration": 0.25,
    "velocity": 100,
    "pitch": 72
  },
  {
    "clipIndex": 0,
    "trackId": "89",
    "clipName": null,
    "beat": 211,
    "relBeat": 211,
    "duration": 0.25,
    "velocity": 100,
    "pitch": 60
  },
  {
    "clipIndex": 353,
    "trackId": "66",
    "clipName": null,
    "beat": 211.25,
    "relBeat": 211.25,
    "duration": 0.32496565934065935,
    "velocity": 100,
    "pitch": 72
  },
  {
    "clipIndex": 0,
    "trackId": "89",
    "clipName": null,
    "beat": 211.5,
    "relBeat": 211.5,
    "duration": 0.25,
    "velocity": 100,
    "pitch": 60
  },
  {
    "clipIndex": 353,
    "trackId": "66",
    "clipName": null,
    "beat": 211.75,
    "relBeat": 211.75,
    "duration": 0.32496565934065935,
    "velocity": 100,
    "pitch": 72
  },
  {
    "clipIndex": 0,
    "trackId": "89",
    "clipName": null,
    "beat": 212,
    "relBeat": 212,
    "duration": 0.25,
    "velocity": 100,
    "pitch": 60
  },
  {
    "clipIndex": 353,
    "trackId": "66",
    "clipName": null,
    "beat": 212.25,
    "relBeat": 212.25,
    "duration": 0.32496565934065935,
    "velocity": 100,
    "pitch": 72
  },
  {
    "clipIndex": 0,
    "trackId": "89",
    "clipName": null,
    "beat": 212.5,
    "relBeat": 212.5,
    "duration": 0.25,
    "velocity": 100,
    "pitch": 60
  },
  {
    "clipIndex": 353,
    "trackId": "66",
    "clipName": null,
    "beat": 212.75,
    "relBeat": 212.75,
    "duration": 0.25,
    "velocity": 100,
    "pitch": 72
  },
  {
    "clipIndex": 0,
    "trackId": "89",
    "clipName": null,
    "beat": 213,
    "relBeat": 213,
    "duration": 0.25,
    "velocity": 100,
    "pitch": 60
  },
  {
    "clipIndex": 353,
    "trackId": "66",
    "clipName": null,
    "beat": 213.25,
    "relBeat": 213.25,
    "duration": 0.32496565934065935,
    "velocity": 100,
    "pitch": 72
  },
  {
    "clipIndex": 0,
    "trackId": "89",
    "clipName": null,
    "beat": 213.5,
    "relBeat": 213.5,
    "duration": 0.25,
    "velocity": 100,
    "pitch": 60
  },
  {
    "clipIndex": 353,
    "trackId": "66",
    "clipName": null,
    "beat": 213.75,
    "relBeat": 213.75,
    "duration": 0.32496565934065935,
    "velocity": 100,
    "pitch": 72
  },
  {
    "clipIndex": 0,
    "trackId": "89",
    "clipName": null,
    "beat": 214,
    "relBeat": 214,
    "duration": 0.25,
    "velocity": 100,
    "pitch": 60
  },
  {
    "clipIndex": 353,
    "trackId": "66",
    "clipName": null,
    "beat": 214.25,
    "relBeat": 214.25,
    "duration": 0.32496565934065935,
    "velocity": 100,
    "pitch": 72
  },
  {
    "clipIndex": 0,
    "trackId": "89",
    "clipName": null,
    "beat": 214.5,
    "relBeat": 214.5,
    "duration": 0.25,
    "velocity": 100,
    "pitch": 60
  },
  {
    "clipIndex": 353,
    "trackId": "66",
    "clipName": null,
    "beat": 214.75,
    "relBeat": 214.75,
    "duration": 0.25,
    "velocity": 100,
    "pitch": 72
  },
  {
    "clipIndex": 0,
    "trackId": "89",
    "clipName": null,
    "beat": 215,
    "relBeat": 215,
    "duration": 0.25,
    "velocity": 100,
    "pitch": 60
  },
  {
    "clipIndex": 353,
    "trackId": "66",
    "clipName": null,
    "beat": 215.25,
    "relBeat": 215.25,
    "duration": 0.32496565934065935,
    "velocity": 100,
    "pitch": 72
  },
  {
    "clipIndex": 0,
    "trackId": "89",
    "clipName": null,
    "beat": 216.5,
    "relBeat": 216.5,
    "duration": 0.25,
    "velocity": 100,
    "pitch": 60
  },
  {
    "clipIndex": 473,
    "trackId": "22",
    "clipName": null,
    "beat": 216.5,
    "relBeat": 0,
    "duration": 0.25,
    "velocity": 100,
    "pitch": 60
  },
  {
    "clipIndex": 473,
    "trackId": "22",
    "clipName": null,
    "beat": 216.75,
    "relBeat": 0.25,
    "duration": 0.25,
    "velocity": 100,
    "pitch": 60
  },
  {
    "clipIndex": 473,
    "trackId": "22",
    "clipName": null,
    "beat": 217,
    "relBeat": 0.5,
    "duration": 0.25,
    "velocity": 100,
    "pitch": 60
  },
  {
    "clipIndex": 0,
    "trackId": "89",
    "clipName": null,
    "beat": 217.25,
    "relBeat": 217.25,
    "duration": 0.25,
    "velocity": 100,
    "pitch": 60
  },
  {
    "clipIndex": 473,
    "trackId": "22",
    "clipName": null,
    "beat": 217.25,
    "relBeat": 0.75,
    "duration": 0.25,
    "velocity": 100,
    "pitch": 60
  },
  {
    "clipIndex": 339,
    "trackId": "55",
    "clipName": null,
    "beat": 217.5,
    "relBeat": 1.5,
    "duration": 0.25000026015651017,
    "velocity": 100,
    "pitch": 60
  },
  {
    "clipIndex": 350,
    "trackId": "60",
    "clipName": null,
    "beat": 217.5,
    "relBeat": 217.5,
    "duration": 0.25,
    "velocity": 100,
    "pitch": 60
  },
  {
    "clipIndex": 473,
    "trackId": "22",
    "clipName": null,
    "beat": 217.5,
    "relBeat": 1,
    "duration": 0.25,
    "velocity": 100,
    "pitch": 60
  },
  {
    "clipIndex": 473,
    "trackId": "22",
    "clipName": null,
    "beat": 217.75,
    "relBeat": 1.25,
    "duration": 0.25,
    "velocity": 100,
    "pitch": 60
  },
  {
    "clipIndex": 0,
    "trackId": "89",
    "clipName": null,
    "beat": 218,
    "relBeat": 218,
    "duration": 0.25,
    "velocity": 100,
    "pitch": 60
  },
  {
    "clipIndex": 473,
    "trackId": "22",
    "clipName": null,
    "beat": 218,
    "relBeat": 1.5,
    "duration": 0.25,
    "velocity": 100,
    "pitch": 60
  },
  {
    "clipIndex": 473,
    "trackId": "22",
    "clipName": null,
    "beat": 218.25,
    "relBeat": 1.75,
    "duration": 0.25,
    "velocity": 100,
    "pitch": 60
  },
  {
    "clipIndex": 473,
    "trackId": "22",
    "clipName": null,
    "beat": 218.5,
    "relBeat": 2,
    "duration": 0.25,
    "velocity": 100,
    "pitch": 60
  },
  {
    "clipIndex": 473,
    "trackId": "22",
    "clipName": null,
    "beat": 218.75,
    "relBeat": 2.25,
    "duration": 0.25,
    "velocity": 100,
    "pitch": 60
  },
  {
    "clipIndex": 473,
    "trackId": "22",
    "clipName": null,
    "beat": 219,
    "relBeat": 2.5,
    "duration": 0.25,
    "velocity": 100,
    "pitch": 60
  },
  {
    "clipIndex": 473,
    "trackId": "22",
    "clipName": null,
    "beat": 219.25,
    "relBeat": 2.75,
    "duration": 0.25,
    "velocity": 100,
    "pitch": 60
  },
  {
    "clipIndex": 339,
    "trackId": "55",
    "clipName": null,
    "beat": 219.5,
    "relBeat": 3.5,
    "duration": 0.25000026015651017,
    "velocity": 100,
    "pitch": 60
  },
  {
    "clipIndex": 350,
    "trackId": "60",
    "clipName": null,
    "beat": 219.5,
    "relBeat": 219.5,
    "duration": 0.25,
    "velocity": 100,
    "pitch": 60
  },
  {
    "clipIndex": 473,
    "trackId": "22",
    "clipName": null,
    "beat": 219.5,
    "relBeat": 3,
    "duration": 0.25,
    "velocity": 100,
    "pitch": 60
  },
  {
    "clipIndex": 473,
    "trackId": "22",
    "clipName": null,
    "beat": 219.75,
    "relBeat": 3.25,
    "duration": 0.25,
    "velocity": 100,
    "pitch": 60
  },
  {
    "clipIndex": 473,
    "trackId": "22",
    "clipName": null,
    "beat": 220,
    "relBeat": 3.5,
    "duration": 0.25,
    "velocity": 100,
    "pitch": 60
  },
  {
    "clipIndex": 473,
    "trackId": "22",
    "clipName": null,
    "beat": 220.25,
    "relBeat": 3.75,
    "duration": 0.25,
    "velocity": 100,
    "pitch": 60
  },
  {
    "clipIndex": 0,
    "trackId": "89",
    "clipName": null,
    "beat": 220.5,
    "relBeat": 220.5,
    "duration": 0.25,
    "velocity": 100,
    "pitch": 60
  },
  {
    "clipIndex": 473,
    "trackId": "22",
    "clipName": null,
    "beat": 220.5,
    "relBeat": 4,
    "duration": 0.25,
    "velocity": 100,
    "pitch": 60
  },
  {
    "clipIndex": 473,
    "trackId": "22",
    "clipName": null,
    "beat": 220.75,
    "relBeat": 4.25,
    "duration": 0.25,
    "velocity": 100,
    "pitch": 60
  },
  {
    "clipIndex": 473,
    "trackId": "22",
    "clipName": null,
    "beat": 221,
    "relBeat": 4.5,
    "duration": 0.25,
    "velocity": 100,
    "pitch": 60
  },
  {
    "clipIndex": 0,
    "trackId": "89",
    "clipName": null,
    "beat": 221.25,
    "relBeat": 221.25,
    "duration": 0.25,
    "velocity": 100,
    "pitch": 60
  },
  {
    "clipIndex": 473,
    "trackId": "22",
    "clipName": null,
    "beat": 221.25,
    "relBeat": 4.75,
    "duration": 0.25,
    "velocity": 100,
    "pitch": 60
  },
  {
    "clipIndex": 339,
    "trackId": "55",
    "clipName": null,
    "beat": 221.5,
    "relBeat": 5.5,
    "duration": 0.25000026015651017,
    "velocity": 100,
    "pitch": 60
  },
  {
    "clipIndex": 350,
    "trackId": "60",
    "clipName": null,
    "beat": 221.5,
    "relBeat": 221.5,
    "duration": 0.25,
    "velocity": 100,
    "pitch": 60
  },
  {
    "clipIndex": 473,
    "trackId": "22",
    "clipName": null,
    "beat": 221.5,
    "relBeat": 5,
    "duration": 0.25,
    "velocity": 100,
    "pitch": 60
  },
  {
    "clipIndex": 473,
    "trackId": "22",
    "clipName": null,
    "beat": 221.75,
    "relBeat": 5.25,
    "duration": 0.25,
    "velocity": 100,
    "pitch": 60
  },
  {
    "clipIndex": 0,
    "trackId": "89",
    "clipName": null,
    "beat": 222,
    "relBeat": 222,
    "duration": 0.25,
    "velocity": 100,
    "pitch": 60
  },
  {
    "clipIndex": 473,
    "trackId": "22",
    "clipName": null,
    "beat": 222,
    "relBeat": 5.5,
    "duration": 0.25,
    "velocity": 100,
    "pitch": 60
  },
  {
    "clipIndex": 473,
    "trackId": "22",
    "clipName": null,
    "beat": 222.25,
    "relBeat": 5.75,
    "duration": 0.25,
    "velocity": 100,
    "pitch": 60
  },
  {
    "clipIndex": 0,
    "trackId": "89",
    "clipName": null,
    "beat": 223,
    "relBeat": 223,
    "duration": 0.25,
    "velocity": 100,
    "pitch": 60
  },
  {
    "clipIndex": 339,
    "trackId": "55",
    "clipName": null,
    "beat": 223.5,
    "relBeat": 7.5,
    "duration": 0.25000026015651017,
    "velocity": 100,
    "pitch": 60
  },
  {
    "clipIndex": 350,
    "trackId": "60",
    "clipName": null,
    "beat": 223.5,
    "relBeat": 223.5,
    "duration": 0.25,
    "velocity": 100,
    "pitch": 60
  },
  {
    "clipIndex": 0,
    "trackId": "89",
    "clipName": null,
    "beat": 224.5,
    "relBeat": 224.5,
    "duration": 0.25,
    "velocity": 100,
    "pitch": 60
  },
  {
    "clipIndex": 474,
    "trackId": "22",
    "clipName": null,
    "beat": 224.5,
    "relBeat": 0,
    "duration": 0.25,
    "velocity": 100,
    "pitch": 60
  },
  {
    "clipIndex": 474,
    "trackId": "22",
    "clipName": null,
    "beat": 224.75,
    "relBeat": 0.25,
    "duration": 0.25,
    "velocity": 100,
    "pitch": 60
  },
  {
    "clipIndex": 474,
    "trackId": "22",
    "clipName": null,
    "beat": 225,
    "relBeat": 0.5,
    "duration": 0.25,
    "velocity": 100,
    "pitch": 60
  },
  {
    "clipIndex": 0,
    "trackId": "89",
    "clipName": null,
    "beat": 225.25,
    "relBeat": 225.25,
    "duration": 0.25,
    "velocity": 100,
    "pitch": 60
  },
  {
    "clipIndex": 474,
    "trackId": "22",
    "clipName": null,
    "beat": 225.25,
    "relBeat": 0.75,
    "duration": 0.25,
    "velocity": 100,
    "pitch": 60
  },
  {
    "clipIndex": 339,
    "trackId": "55",
    "clipName": null,
    "beat": 225.5,
    "relBeat": 9.5,
    "duration": 0.25000026015651017,
    "velocity": 100,
    "pitch": 60
  },
  {
    "clipIndex": 350,
    "trackId": "60",
    "clipName": null,
    "beat": 225.5,
    "relBeat": 225.5,
    "duration": 0.25,
    "velocity": 100,
    "pitch": 60
  },
  {
    "clipIndex": 473,
    "trackId": "22",
    "clipName": null,
    "beat": 225.5,
    "relBeat": 9,
    "duration": 0.25,
    "velocity": 100,
    "pitch": 60
  },
  {
    "clipIndex": 474,
    "trackId": "22",
    "clipName": null,
    "beat": 225.5,
    "relBeat": 1,
    "duration": 0.25,
    "velocity": 100,
    "pitch": 60
  },
  {
    "clipIndex": 473,
    "trackId": "22",
    "clipName": null,
    "beat": 225.75,
    "relBeat": 9.25,
    "duration": 0.25,
    "velocity": 100,
    "pitch": 60
  },
  {
    "clipIndex": 474,
    "trackId": "22",
    "clipName": null,
    "beat": 225.75,
    "relBeat": 1.25,
    "duration": 0.25,
    "velocity": 100,
    "pitch": 60
  },
  {
    "clipIndex": 0,
    "trackId": "89",
    "clipName": null,
    "beat": 226,
    "relBeat": 226,
    "duration": 0.25,
    "velocity": 100,
    "pitch": 60
  },
  {
    "clipIndex": 473,
    "trackId": "22",
    "clipName": null,
    "beat": 226,
    "relBeat": 9.5,
    "duration": 0.25,
    "velocity": 100,
    "pitch": 60
  },
  {
    "clipIndex": 474,
    "trackId": "22",
    "clipName": null,
    "beat": 226,
    "relBeat": 1.5,
    "duration": 0.25,
    "velocity": 100,
    "pitch": 60
  },
  {
    "clipIndex": 473,
    "trackId": "22",
    "clipName": null,
    "beat": 226.25,
    "relBeat": 9.75,
    "duration": 0.25,
    "velocity": 100,
    "pitch": 60
  },
  {
    "clipIndex": 474,
    "trackId": "22",
    "clipName": null,
    "beat": 226.25,
    "relBeat": 1.75,
    "duration": 0.25,
    "velocity": 100,
    "pitch": 60
  },
  {
    "clipIndex": 473,
    "trackId": "22",
    "clipName": null,
    "beat": 226.5,
    "relBeat": 10,
    "duration": 0.25,
    "velocity": 100,
    "pitch": 60
  },
  {
    "clipIndex": 474,
    "trackId": "22",
    "clipName": null,
    "beat": 226.5,
    "relBeat": 2,
    "duration": 0.25,
    "velocity": 100,
    "pitch": 60
  },
  {
    "clipIndex": 0,
    "trackId": "89",
    "clipName": null,
    "beat": 226.75,
    "relBeat": 226.75,
    "duration": 0.25,
    "velocity": 100,
    "pitch": 60
  },
  {
    "clipIndex": 474,
    "trackId": "22",
    "clipName": null,
    "beat": 226.75,
    "relBeat": 2.25,
    "duration": 0.25,
    "velocity": 100,
    "pitch": 60
  },
  {
    "clipIndex": 474,
    "trackId": "22",
    "clipName": null,
    "beat": 227,
    "relBeat": 2.5,
    "duration": 0.25,
    "velocity": 100,
    "pitch": 60
  },
  {
    "clipIndex": 474,
    "trackId": "22",
    "clipName": null,
    "beat": 227.25,
    "relBeat": 2.75,
    "duration": 0.25,
    "velocity": 100,
    "pitch": 60
  },
  {
    "clipIndex": 0,
    "trackId": "89",
    "clipName": null,
    "beat": 227.5,
    "relBeat": 227.5,
    "duration": 0.25,
    "velocity": 100,
    "pitch": 60
  },
  {
    "clipIndex": 474,
    "trackId": "22",
    "clipName": null,
    "beat": 227.5,
    "relBeat": 3,
    "duration": 0.25,
    "velocity": 100,
    "pitch": 60
  },
  {
    "clipIndex": 474,
    "trackId": "22",
    "clipName": null,
    "beat": 227.75,
    "relBeat": 3.25,
    "duration": 0.25,
    "velocity": 100,
    "pitch": 60
  },
  {
    "clipIndex": 474,
    "trackId": "22",
    "clipName": null,
    "beat": 228,
    "relBeat": 3.5,
    "duration": 0.25,
    "velocity": 100,
    "pitch": 60
  },
  {
    "clipIndex": 474,
    "trackId": "22",
    "clipName": null,
    "beat": 228.25,
    "relBeat": 3.75,
    "duration": 0.25,
    "velocity": 100,
    "pitch": 60
  },
  {
    "clipIndex": 0,
    "trackId": "89",
    "clipName": null,
    "beat": 228.5,
    "relBeat": 228.5,
    "duration": 0.25,
    "velocity": 100,
    "pitch": 60
  },
  {
    "clipIndex": 473,
    "trackId": "22",
    "clipName": null,
    "beat": 228.5,
    "relBeat": 12,
    "duration": 0.25,
    "velocity": 100,
    "pitch": 60
  },
  {
    "clipIndex": 474,
    "trackId": "22",
    "clipName": null,
    "beat": 228.5,
    "relBeat": 4,
    "duration": 0.25,
    "velocity": 100,
    "pitch": 60
  },
  {
    "clipIndex": 475,
    "trackId": "22",
    "clipName": null,
    "beat": 228.5,
    "relBeat": 0,
    "duration": 0.25,
    "velocity": 100,
    "pitch": 60
  },
  {
    "clipIndex": 473,
    "trackId": "22",
    "clipName": null,
    "beat": 228.75,
    "relBeat": 12.25,
    "duration": 0.25,
    "velocity": 100,
    "pitch": 60
  },
  {
    "clipIndex": 474,
    "trackId": "22",
    "clipName": null,
    "beat": 228.75,
    "relBeat": 4.25,
    "duration": 0.25,
    "velocity": 100,
    "pitch": 60
  },
  {
    "clipIndex": 475,
    "trackId": "22",
    "clipName": null,
    "beat": 228.75,
    "relBeat": 0.25,
    "duration": 0.25,
    "velocity": 100,
    "pitch": 60
  },
  {
    "clipIndex": 473,
    "trackId": "22",
    "clipName": null,
    "beat": 229,
    "relBeat": 12.5,
    "duration": 0.25,
    "velocity": 100,
    "pitch": 60
  },
  {
    "clipIndex": 474,
    "trackId": "22",
    "clipName": null,
    "beat": 229,
    "relBeat": 4.5,
    "duration": 0.25,
    "velocity": 100,
    "pitch": 60
  },
  {
    "clipIndex": 475,
    "trackId": "22",
    "clipName": null,
    "beat": 229,
    "relBeat": 0.5,
    "duration": 0.25,
    "velocity": 100,
    "pitch": 60
  },
  {
    "clipIndex": 0,
    "trackId": "89",
    "clipName": null,
    "beat": 229.25,
    "relBeat": 229.25,
    "duration": 0.25,
    "velocity": 100,
    "pitch": 60
  },
  {
    "clipIndex": 473,
    "trackId": "22",
    "clipName": null,
    "beat": 229.25,
    "relBeat": 12.75,
    "duration": 0.25,
    "velocity": 100,
    "pitch": 60
  },
  {
    "clipIndex": 474,
    "trackId": "22",
    "clipName": null,
    "beat": 229.25,
    "relBeat": 4.75,
    "duration": 0.25,
    "velocity": 100,
    "pitch": 60
  },
  {
    "clipIndex": 475,
    "trackId": "22",
    "clipName": null,
    "beat": 229.25,
    "relBeat": 0.75,
    "duration": 0.25,
    "velocity": 100,
    "pitch": 60
  },
  {
    "clipIndex": 340,
    "trackId": "55",
    "clipName": null,
    "beat": 229.5,
    "relBeat": 1.5,
    "duration": 0.25000026015651017,
    "velocity": 100,
    "pitch": 60
  },
  {
    "clipIndex": 350,
    "trackId": "60",
    "clipName": null,
    "beat": 229.5,
    "relBeat": 229.5,
    "duration": 0.25,
    "velocity": 100,
    "pitch": 60
  },
  {
    "clipIndex": 473,
    "trackId": "22",
    "clipName": null,
    "beat": 229.5,
    "relBeat": 13,
    "duration": 0.25,
    "velocity": 100,
    "pitch": 60
  },
  {
    "clipIndex": 474,
    "trackId": "22",
    "clipName": null,
    "beat": 229.5,
    "relBeat": 5,
    "duration": 0.25,
    "velocity": 100,
    "pitch": 60
  },
  {
    "clipIndex": 475,
    "trackId": "22",
    "clipName": null,
    "beat": 229.5,
    "relBeat": 1,
    "duration": 0.25,
    "velocity": 100,
    "pitch": 60
  },
  {
    "clipIndex": 0,
    "trackId": "89",
    "clipName": null,
    "beat": 229.75,
    "relBeat": 229.75,
    "duration": 0.25,
    "velocity": 100,
    "pitch": 60
  },
  {
    "clipIndex": 473,
    "trackId": "22",
    "clipName": null,
    "beat": 229.75,
    "relBeat": 13.25,
    "duration": 0.25,
    "velocity": 100,
    "pitch": 60
  },
  {
    "clipIndex": 474,
    "trackId": "22",
    "clipName": null,
    "beat": 229.75,
    "relBeat": 5.25,
    "duration": 0.25,
    "velocity": 100,
    "pitch": 60
  },
  {
    "clipIndex": 475,
    "trackId": "22",
    "clipName": null,
    "beat": 229.75,
    "relBeat": 1.25,
    "duration": 0.25,
    "velocity": 100,
    "pitch": 60
  },
  {
    "clipIndex": 473,
    "trackId": "22",
    "clipName": null,
    "beat": 230,
    "relBeat": 13.5,
    "duration": 0.25,
    "velocity": 100,
    "pitch": 60
  },
  {
    "clipIndex": 474,
    "trackId": "22",
    "clipName": null,
    "beat": 230,
    "relBeat": 5.5,
    "duration": 0.25,
    "velocity": 100,
    "pitch": 60
  },
  {
    "clipIndex": 475,
    "trackId": "22",
    "clipName": null,
    "beat": 230,
    "relBeat": 1.5,
    "duration": 0.25,
    "velocity": 100,
    "pitch": 60
  },
  {
    "clipIndex": 0,
    "trackId": "89",
    "clipName": null,
    "beat": 230.25,
    "relBeat": 230.25,
    "duration": 0.25,
    "velocity": 100,
    "pitch": 60
  },
  {
    "clipIndex": 473,
    "trackId": "22",
    "clipName": null,
    "beat": 230.25,
    "relBeat": 13.75,
    "duration": 0.25,
    "velocity": 100,
    "pitch": 60
  },
  {
    "clipIndex": 474,
    "trackId": "22",
    "clipName": null,
    "beat": 230.25,
    "relBeat": 5.75,
    "duration": 0.25,
    "velocity": 100,
    "pitch": 60
  },
  {
    "clipIndex": 475,
    "trackId": "22",
    "clipName": null,
    "beat": 230.25,
    "relBeat": 1.75,
    "duration": 0.25,
    "velocity": 100,
    "pitch": 60
  },
  {
    "clipIndex": 473,
    "trackId": "22",
    "clipName": null,
    "beat": 230.5,
    "relBeat": 14,
    "duration": 0.25,
    "velocity": 100,
    "pitch": 60
  },
  {
    "clipIndex": 475,
    "trackId": "22",
    "clipName": null,
    "beat": 230.5,
    "relBeat": 2,
    "duration": 0.25,
    "velocity": 100,
    "pitch": 60
  },
  {
    "clipIndex": 0,
    "trackId": "89",
    "clipName": null,
    "beat": 230.75,
    "relBeat": 230.75,
    "duration": 0.25,
    "velocity": 100,
    "pitch": 60
  },
  {
    "clipIndex": 473,
    "trackId": "22",
    "clipName": null,
    "beat": 230.75,
    "relBeat": 14.25,
    "duration": 0.25,
    "velocity": 100,
    "pitch": 60
  },
  {
    "clipIndex": 475,
    "trackId": "22",
    "clipName": null,
    "beat": 230.75,
    "relBeat": 2.25,
    "duration": 0.25,
    "velocity": 100,
    "pitch": 60
  },
  {
    "clipIndex": 473,
    "trackId": "22",
    "clipName": null,
    "beat": 231,
    "relBeat": 14.5,
    "duration": 0.25,
    "velocity": 100,
    "pitch": 60
  },
  {
    "clipIndex": 475,
    "trackId": "22",
    "clipName": null,
    "beat": 231,
    "relBeat": 2.5,
    "duration": 0.25,
    "velocity": 100,
    "pitch": 60
  },
  {
    "clipIndex": 473,
    "trackId": "22",
    "clipName": null,
    "beat": 231.25,
    "relBeat": 14.75,
    "duration": 0.25,
    "velocity": 100,
    "pitch": 60
  },
  {
    "clipIndex": 475,
    "trackId": "22",
    "clipName": null,
    "beat": 231.25,
    "relBeat": 2.75,
    "duration": 0.25,
    "velocity": 100,
    "pitch": 60
  },
  {
    "clipIndex": 340,
    "trackId": "55",
    "clipName": null,
    "beat": 231.5,
    "relBeat": 3.5,
    "duration": 0.25000026015651017,
    "velocity": 100,
    "pitch": 60
  },
  {
    "clipIndex": 350,
    "trackId": "60",
    "clipName": null,
    "beat": 231.5,
    "relBeat": 231.5,
    "duration": 0.25,
    "velocity": 100,
    "pitch": 60
  },
  {
    "clipIndex": 473,
    "trackId": "22",
    "clipName": null,
    "beat": 231.5,
    "relBeat": 15,
    "duration": 0.25,
    "velocity": 100,
    "pitch": 60
  },
  {
    "clipIndex": 475,
    "trackId": "22",
    "clipName": null,
    "beat": 231.5,
    "relBeat": 3,
    "duration": 0.25,
    "velocity": 100,
    "pitch": 60
  },
  {
    "clipIndex": 473,
    "trackId": "22",
    "clipName": null,
    "beat": 231.75,
    "relBeat": 15.25,
    "duration": 0.25,
    "velocity": 100,
    "pitch": 60
  },
  {
    "clipIndex": 475,
    "trackId": "22",
    "clipName": null,
    "beat": 231.75,
    "relBeat": 3.25,
    "duration": 0.25,
    "velocity": 100,
    "pitch": 60
  },
  {
    "clipIndex": 0,
    "trackId": "89",
    "clipName": null,
    "beat": 232,
    "relBeat": 232,
    "duration": 0.25,
    "velocity": 100,
    "pitch": 60
  },
  {
    "clipIndex": 473,
    "trackId": "22",
    "clipName": null,
    "beat": 232,
    "relBeat": 15.5,
    "duration": 0.25,
    "velocity": 100,
    "pitch": 60
  },
  {
    "clipIndex": 475,
    "trackId": "22",
    "clipName": null,
    "beat": 232,
    "relBeat": 3.5,
    "duration": 0.25,
    "velocity": 100,
    "pitch": 60
  },
  {
    "clipIndex": 0,
    "trackId": "89",
    "clipName": null,
    "beat": 232.25,
    "relBeat": 232.25,
    "duration": 0.25,
    "velocity": 100,
    "pitch": 60
  },
  {
    "clipIndex": 473,
    "trackId": "22",
    "clipName": null,
    "beat": 232.25,
    "relBeat": 15.75,
    "duration": 0.25,
    "velocity": 100,
    "pitch": 60
  },
  {
    "clipIndex": 475,
    "trackId": "22",
    "clipName": null,
    "beat": 232.25,
    "relBeat": 3.75,
    "duration": 0.25,
    "velocity": 100,
    "pitch": 60
  },
  {
    "clipIndex": 0,
    "trackId": "89",
    "clipName": null,
    "beat": 232.5,
    "relBeat": 232.5,
    "duration": 0.25,
    "velocity": 100,
    "pitch": 60
  },
  {
    "clipIndex": 350,
    "trackId": "60",
    "clipName": null,
    "beat": 232.5,
    "relBeat": 232.5,
    "duration": 0.25,
    "velocity": 100,
    "pitch": 60
  },
  {
    "clipIndex": 473,
    "trackId": "22",
    "clipName": null,
    "beat": 232.5,
    "relBeat": 16,
    "duration": 0.25,
    "velocity": 100,
    "pitch": 60
  },
  {
    "clipIndex": 475,
    "trackId": "22",
    "clipName": null,
    "beat": 232.5,
    "relBeat": 4,
    "duration": 0.25,
    "velocity": 100,
    "pitch": 60
  },
  {
    "clipIndex": 476,
    "trackId": "22",
    "clipName": null,
    "beat": 232.5,
    "relBeat": 0,
    "duration": 0.25,
    "velocity": 100,
    "pitch": 60
  },
  {
    "clipIndex": 0,
    "trackId": "89",
    "clipName": null,
    "beat": 232.75,
    "relBeat": 232.75,
    "duration": 0.25,
    "velocity": 100,
    "pitch": 60
  },
  {
    "clipIndex": 473,
    "trackId": "22",
    "clipName": null,
    "beat": 232.75,
    "relBeat": 16.25,
    "duration": 0.25,
    "velocity": 100,
    "pitch": 60
  },
  {
    "clipIndex": 475,
    "trackId": "22",
    "clipName": null,
    "beat": 232.75,
    "relBeat": 4.25,
    "duration": 0.25,
    "velocity": 100,
    "pitch": 60
  },
  {
    "clipIndex": 476,
    "trackId": "22",
    "clipName": null,
    "beat": 232.75,
    "relBeat": 0.25,
    "duration": 0.25,
    "velocity": 100,
    "pitch": 60
  },
  {
    "clipIndex": 0,
    "trackId": "89",
    "clipName": null,
    "beat": 233,
    "relBeat": 233,
    "duration": 0.25,
    "velocity": 100,
    "pitch": 60
  },
  {
    "clipIndex": 473,
    "trackId": "22",
    "clipName": null,
    "beat": 233,
    "relBeat": 16.5,
    "duration": 0.25,
    "velocity": 100,
    "pitch": 60
  },
  {
    "clipIndex": 475,
    "trackId": "22",
    "clipName": null,
    "beat": 233,
    "relBeat": 4.5,
    "duration": 0.25,
    "velocity": 100,
    "pitch": 60
  },
  {
    "clipIndex": 476,
    "trackId": "22",
    "clipName": null,
    "beat": 233,
    "relBeat": 0.5,
    "duration": 0.25,
    "velocity": 100,
    "pitch": 60
  },
  {
    "clipIndex": 0,
    "trackId": "89",
    "clipName": null,
    "beat": 233.25,
    "relBeat": 233.25,
    "duration": 0.25,
    "velocity": 100,
    "pitch": 60
  },
  {
    "clipIndex": 473,
    "trackId": "22",
    "clipName": null,
    "beat": 233.25,
    "relBeat": 16.75,
    "duration": 0.25,
    "velocity": 100,
    "pitch": 60
  },
  {
    "clipIndex": 475,
    "trackId": "22",
    "clipName": null,
    "beat": 233.25,
    "relBeat": 4.75,
    "duration": 0.25,
    "velocity": 100,
    "pitch": 60
  },
  {
    "clipIndex": 476,
    "trackId": "22",
    "clipName": null,
    "beat": 233.25,
    "relBeat": 0.75,
    "duration": 0.25,
    "velocity": 100,
    "pitch": 60
  },
  {
    "clipIndex": 0,
    "trackId": "89",
    "clipName": null,
    "beat": 233.5,
    "relBeat": 233.5,
    "duration": 0.25,
    "velocity": 100,
    "pitch": 60
  },
  {
    "clipIndex": 340,
    "trackId": "55",
    "clipName": null,
    "beat": 233.5,
    "relBeat": 5.5,
    "duration": 0.25000026015651017,
    "velocity": 100,
    "pitch": 60
  },
  {
    "clipIndex": 350,
    "trackId": "60",
    "clipName": null,
    "beat": 233.5,
    "relBeat": 233.5,
    "duration": 0.25,
    "velocity": 100,
    "pitch": 60
  },
  {
    "clipIndex": 473,
    "trackId": "22",
    "clipName": null,
    "beat": 233.5,
    "relBeat": 17,
    "duration": 0.25,
    "velocity": 100,
    "pitch": 60
  },
  {
    "clipIndex": 474,
    "trackId": "22",
    "clipName": null,
    "beat": 233.5,
    "relBeat": 9,
    "duration": 0.25,
    "velocity": 100,
    "pitch": 60
  },
  {
    "clipIndex": 475,
    "trackId": "22",
    "clipName": null,
    "beat": 233.5,
    "relBeat": 5,
    "duration": 0.25,
    "velocity": 100,
    "pitch": 60
  },
  {
    "clipIndex": 476,
    "trackId": "22",
    "clipName": null,
    "beat": 233.5,
    "relBeat": 1,
    "duration": 0.25,
    "velocity": 100,
    "pitch": 60
  },
  {
    "clipIndex": 0,
    "trackId": "89",
    "clipName": null,
    "beat": 233.75,
    "relBeat": 233.75,
    "duration": 0.25,
    "velocity": 100,
    "pitch": 60
  },
  {
    "clipIndex": 473,
    "trackId": "22",
    "clipName": null,
    "beat": 233.75,
    "relBeat": 17.25,
    "duration": 0.25,
    "velocity": 100,
    "pitch": 60
  },
  {
    "clipIndex": 474,
    "trackId": "22",
    "clipName": null,
    "beat": 233.75,
    "relBeat": 9.25,
    "duration": 0.25,
    "velocity": 100,
    "pitch": 60
  },
  {
    "clipIndex": 475,
    "trackId": "22",
    "clipName": null,
    "beat": 233.75,
    "relBeat": 5.25,
    "duration": 0.25,
    "velocity": 100,
    "pitch": 60
  },
  {
    "clipIndex": 476,
    "trackId": "22",
    "clipName": null,
    "beat": 233.75,
    "relBeat": 1.25,
    "duration": 0.25,
    "velocity": 100,
    "pitch": 60
  },
  {
    "clipIndex": 341,
    "trackId": "55",
    "clipName": null,
    "beat": 234,
    "relBeat": 1.5,
    "duration": 0.25000026015651017,
    "velocity": 100,
    "pitch": 60
  },
  {
    "clipIndex": 473,
    "trackId": "22",
    "clipName": null,
    "beat": 234,
    "relBeat": 17.5,
    "duration": 0.25,
    "velocity": 100,
    "pitch": 60
  },
  {
    "clipIndex": 474,
    "trackId": "22",
    "clipName": null,
    "beat": 234,
    "relBeat": 9.5,
    "duration": 0.25,
    "velocity": 100,
    "pitch": 60
  },
  {
    "clipIndex": 475,
    "trackId": "22",
    "clipName": null,
    "beat": 234,
    "relBeat": 5.5,
    "duration": 0.25,
    "velocity": 100,
    "pitch": 60
  },
  {
    "clipIndex": 476,
    "trackId": "22",
    "clipName": null,
    "beat": 234,
    "relBeat": 1.5,
    "duration": 0.25,
    "velocity": 100,
    "pitch": 60
  },
  {
    "clipIndex": 473,
    "trackId": "22",
    "clipName": null,
    "beat": 234.25,
    "relBeat": 17.75,
    "duration": 0.25,
    "velocity": 100,
    "pitch": 60
  },
  {
    "clipIndex": 474,
    "trackId": "22",
    "clipName": null,
    "beat": 234.25,
    "relBeat": 9.75,
    "duration": 0.25,
    "velocity": 100,
    "pitch": 60
  },
  {
    "clipIndex": 475,
    "trackId": "22",
    "clipName": null,
    "beat": 234.25,
    "relBeat": 5.75,
    "duration": 0.25,
    "velocity": 100,
    "pitch": 60
  },
  {
    "clipIndex": 476,
    "trackId": "22",
    "clipName": null,
    "beat": 234.25,
    "relBeat": 1.75,
    "duration": 0.25,
    "velocity": 100,
    "pitch": 60
  },
  {
    "clipIndex": 342,
    "trackId": "55",
    "clipName": null,
    "beat": 234.5,
    "relBeat": 1.5,
    "duration": 0.25000026015651017,
    "velocity": 100,
    "pitch": 60
  },
  {
    "clipIndex": 473,
    "trackId": "22",
    "clipName": null,
    "beat": 234.5,
    "relBeat": 18,
    "duration": 0.25,
    "velocity": 100,
    "pitch": 60
  },
  {
    "clipIndex": 474,
    "trackId": "22",
    "clipName": null,
    "beat": 234.5,
    "relBeat": 10,
    "duration": 0.25,
    "velocity": 100,
    "pitch": 60
  },
  {
    "clipIndex": 476,
    "trackId": "22",
    "clipName": null,
    "beat": 234.5,
    "relBeat": 2,
    "duration": 0.25,
    "velocity": 100,
    "pitch": 60
  },
  {
    "clipIndex": 0,
    "trackId": "89",
    "clipName": null,
    "beat": 234.75,
    "relBeat": 234.75,
    "duration": 0.25,
    "velocity": 100,
    "pitch": 60
  },
  {
    "clipIndex": 473,
    "trackId": "22",
    "clipName": null,
    "beat": 234.75,
    "relBeat": 18.25,
    "duration": 0.25,
    "velocity": 100,
    "pitch": 60
  },
  {
    "clipIndex": 476,
    "trackId": "22",
    "clipName": null,
    "beat": 234.75,
    "relBeat": 2.25,
    "duration": 0.25,
    "velocity": 100,
    "pitch": 60
  },
  {
    "clipIndex": 0,
    "trackId": "89",
    "clipName": null,
    "beat": 235,
    "relBeat": 235,
    "duration": 0.25,
    "velocity": 100,
    "pitch": 60
  },
  {
    "clipIndex": 473,
    "trackId": "22",
    "clipName": null,
    "beat": 235,
    "relBeat": 18.5,
    "duration": 0.25,
    "velocity": 100,
    "pitch": 60
  },
  {
    "clipIndex": 476,
    "trackId": "22",
    "clipName": null,
    "beat": 235,
    "relBeat": 2.5,
    "duration": 0.25,
    "velocity": 100,
    "pitch": 60
  },
  {
    "clipIndex": 473,
    "trackId": "22",
    "clipName": null,
    "beat": 235.25,
    "relBeat": 18.75,
    "duration": 0.25,
    "velocity": 100,
    "pitch": 60
  },
  {
    "clipIndex": 476,
    "trackId": "22",
    "clipName": null,
    "beat": 235.25,
    "relBeat": 2.75,
    "duration": 0.25,
    "velocity": 100,
    "pitch": 60
  },
  {
    "clipIndex": 340,
    "trackId": "55",
    "clipName": null,
    "beat": 235.5,
    "relBeat": 7.5,
    "duration": 0.25000026015651017,
    "velocity": 100,
    "pitch": 60
  },
  {
    "clipIndex": 350,
    "trackId": "60",
    "clipName": null,
    "beat": 235.5,
    "relBeat": 235.5,
    "duration": 0.25,
    "velocity": 100,
    "pitch": 60
  },
  {
    "clipIndex": 473,
    "trackId": "22",
    "clipName": null,
    "beat": 235.5,
    "relBeat": 19,
    "duration": 0.25,
    "velocity": 100,
    "pitch": 60
  },
  {
    "clipIndex": 476,
    "trackId": "22",
    "clipName": null,
    "beat": 235.5,
    "relBeat": 3,
    "duration": 0.25,
    "velocity": 100,
    "pitch": 60
  },
  {
    "clipIndex": 473,
    "trackId": "22",
    "clipName": null,
    "beat": 235.75,
    "relBeat": 19.25,
    "duration": 0.25,
    "velocity": 100,
    "pitch": 60
  },
  {
    "clipIndex": 476,
    "trackId": "22",
    "clipName": null,
    "beat": 235.75,
    "relBeat": 3.25,
    "duration": 0.25,
    "velocity": 100,
    "pitch": 60
  },
  {
    "clipIndex": 341,
    "trackId": "55",
    "clipName": null,
    "beat": 236,
    "relBeat": 3.5,
    "duration": 0.25000026015651017,
    "velocity": 100,
    "pitch": 60
  },
  {
    "clipIndex": 473,
    "trackId": "22",
    "clipName": null,
    "beat": 236,
    "relBeat": 19.5,
    "duration": 0.25,
    "velocity": 100,
    "pitch": 60
  },
  {
    "clipIndex": 476,
    "trackId": "22",
    "clipName": null,
    "beat": 236,
    "relBeat": 3.5,
    "duration": 0.25,
    "velocity": 100,
    "pitch": 60
  },
  {
    "clipIndex": 473,
    "trackId": "22",
    "clipName": null,
    "beat": 236.25,
    "relBeat": 19.75,
    "duration": 0.25,
    "velocity": 100,
    "pitch": 60
  },
  {
    "clipIndex": 476,
    "trackId": "22",
    "clipName": null,
    "beat": 236.25,
    "relBeat": 3.75,
    "duration": 0.25,
    "velocity": 100,
    "pitch": 60
  },
  {
    "clipIndex": 342,
    "trackId": "55",
    "clipName": null,
    "beat": 236.5,
    "relBeat": 3.5,
    "duration": 0.25000026015651017,
    "velocity": 100,
    "pitch": 60
  },
  {
    "clipIndex": 473,
    "trackId": "22",
    "clipName": null,
    "beat": 236.5,
    "relBeat": 20,
    "duration": 0.25,
    "velocity": 100,
    "pitch": 60
  },
  {
    "clipIndex": 474,
    "trackId": "22",
    "clipName": null,
    "beat": 236.5,
    "relBeat": 12,
    "duration": 0.25,
    "velocity": 100,
    "pitch": 60
  },
  {
    "clipIndex": 476,
    "trackId": "22",
    "clipName": null,
    "beat": 236.5,
    "relBeat": 4,
    "duration": 0.25,
    "velocity": 100,
    "pitch": 60
  },
  {
    "clipIndex": 477,
    "trackId": "22",
    "clipName": null,
    "beat": 236.5,
    "relBeat": 0,
    "duration": 0.25,
    "velocity": 100,
    "pitch": 60
  },
  {
    "clipIndex": 473,
    "trackId": "22",
    "clipName": null,
    "beat": 236.75,
    "relBeat": 20.25,
    "duration": 0.25,
    "velocity": 100,
    "pitch": 60
  },
  {
    "clipIndex": 474,
    "trackId": "22",
    "clipName": null,
    "beat": 236.75,
    "relBeat": 12.25,
    "duration": 0.25,
    "velocity": 100,
    "pitch": 60
  },
  {
    "clipIndex": 476,
    "trackId": "22",
    "clipName": null,
    "beat": 236.75,
    "relBeat": 4.25,
    "duration": 0.25,
    "velocity": 100,
    "pitch": 60
  },
  {
    "clipIndex": 477,
    "trackId": "22",
    "clipName": null,
    "beat": 236.75,
    "relBeat": 0.25,
    "duration": 0.25,
    "velocity": 100,
    "pitch": 60
  },
  {
    "clipIndex": 473,
    "trackId": "22",
    "clipName": null,
    "beat": 237,
    "relBeat": 20.5,
    "duration": 0.25,
    "velocity": 100,
    "pitch": 60
  },
  {
    "clipIndex": 474,
    "trackId": "22",
    "clipName": null,
    "beat": 237,
    "relBeat": 12.5,
    "duration": 0.25,
    "velocity": 100,
    "pitch": 60
  },
  {
    "clipIndex": 476,
    "trackId": "22",
    "clipName": null,
    "beat": 237,
    "relBeat": 4.5,
    "duration": 0.25,
    "velocity": 100,
    "pitch": 60
  },
  {
    "clipIndex": 477,
    "trackId": "22",
    "clipName": null,
    "beat": 237,
    "relBeat": 0.5,
    "duration": 0.25,
    "velocity": 100,
    "pitch": 60
  },
  {
    "clipIndex": 0,
    "trackId": "89",
    "clipName": null,
    "beat": 237.25,
    "relBeat": 237.25,
    "duration": 0.25,
    "velocity": 100,
    "pitch": 60
  },
  {
    "clipIndex": 473,
    "trackId": "22",
    "clipName": null,
    "beat": 237.25,
    "relBeat": 20.75,
    "duration": 0.25,
    "velocity": 100,
    "pitch": 60
  },
  {
    "clipIndex": 474,
    "trackId": "22",
    "clipName": null,
    "beat": 237.25,
    "relBeat": 12.75,
    "duration": 0.25,
    "velocity": 100,
    "pitch": 60
  },
  {
    "clipIndex": 476,
    "trackId": "22",
    "clipName": null,
    "beat": 237.25,
    "relBeat": 4.75,
    "duration": 0.25,
    "velocity": 100,
    "pitch": 60
  },
  {
    "clipIndex": 477,
    "trackId": "22",
    "clipName": null,
    "beat": 237.25,
    "relBeat": 0.75,
    "duration": 0.25,
    "velocity": 100,
    "pitch": 60
  },
  {
    "clipIndex": 340,
    "trackId": "55",
    "clipName": null,
    "beat": 237.5,
    "relBeat": 9.5,
    "duration": 0.25000026015651017,
    "velocity": 100,
    "pitch": 60
  },
  {
    "clipIndex": 350,
    "trackId": "60",
    "clipName": null,
    "beat": 237.5,
    "relBeat": 237.5,
    "duration": 0.25,
    "velocity": 100,
    "pitch": 60
  },
  {
    "clipIndex": 473,
    "trackId": "22",
    "clipName": null,
    "beat": 237.5,
    "relBeat": 21,
    "duration": 0.25,
    "velocity": 100,
    "pitch": 60
  },
  {
    "clipIndex": 474,
    "trackId": "22",
    "clipName": null,
    "beat": 237.5,
    "relBeat": 13,
    "duration": 0.25,
    "velocity": 100,
    "pitch": 60
  },
  {
    "clipIndex": 475,
    "trackId": "22",
    "clipName": null,
    "beat": 237.5,
    "relBeat": 9,
    "duration": 0.25,
    "velocity": 100,
    "pitch": 60
  },
  {
    "clipIndex": 476,
    "trackId": "22",
    "clipName": null,
    "beat": 237.5,
    "relBeat": 5,
    "duration": 0.25,
    "velocity": 100,
    "pitch": 60
  },
  {
    "clipIndex": 477,
    "trackId": "22",
    "clipName": null,
    "beat": 237.5,
    "relBeat": 1,
    "duration": 0.25,
    "velocity": 100,
    "pitch": 60
  },
  {
    "clipIndex": 473,
    "trackId": "22",
    "clipName": null,
    "beat": 237.75,
    "relBeat": 21.25,
    "duration": 0.25,
    "velocity": 100,
    "pitch": 60
  },
  {
    "clipIndex": 474,
    "trackId": "22",
    "clipName": null,
    "beat": 237.75,
    "relBeat": 13.25,
    "duration": 0.25,
    "velocity": 100,
    "pitch": 60
  },
  {
    "clipIndex": 475,
    "trackId": "22",
    "clipName": null,
    "beat": 237.75,
    "relBeat": 9.25,
    "duration": 0.25,
    "velocity": 100,
    "pitch": 60
  },
  {
    "clipIndex": 476,
    "trackId": "22",
    "clipName": null,
    "beat": 237.75,
    "relBeat": 5.25,
    "duration": 0.25,
    "velocity": 100,
    "pitch": 60
  },
  {
    "clipIndex": 477,
    "trackId": "22",
    "clipName": null,
    "beat": 237.75,
    "relBeat": 1.25,
    "duration": 0.25,
    "velocity": 100,
    "pitch": 60
  },
  {
    "clipIndex": 341,
    "trackId": "55",
    "clipName": null,
    "beat": 238,
    "relBeat": 5.5,
    "duration": 0.25000026015651017,
    "velocity": 100,
    "pitch": 60
  },
  {
    "clipIndex": 474,
    "trackId": "22",
    "clipName": null,
    "beat": 238,
    "relBeat": 13.5,
    "duration": 0.25,
    "velocity": 100,
    "pitch": 60
  },
  {
    "clipIndex": 475,
    "trackId": "22",
    "clipName": null,
    "beat": 238,
    "relBeat": 9.5,
    "duration": 0.25,
    "velocity": 100,
    "pitch": 60
  },
  {
    "clipIndex": 476,
    "trackId": "22",
    "clipName": null,
    "beat": 238,
    "relBeat": 5.5,
    "duration": 0.25,
    "velocity": 100,
    "pitch": 60
  },
  {
    "clipIndex": 477,
    "trackId": "22",
    "clipName": null,
    "beat": 238,
    "relBeat": 1.5,
    "duration": 0.25,
    "velocity": 100,
    "pitch": 60
  },
  {
    "clipIndex": 474,
    "trackId": "22",
    "clipName": null,
    "beat": 238.25,
    "relBeat": 13.75,
    "duration": 0.25,
    "velocity": 100,
    "pitch": 60
  },
  {
    "clipIndex": 475,
    "trackId": "22",
    "clipName": null,
    "beat": 238.25,
    "relBeat": 9.75,
    "duration": 0.25,
    "velocity": 100,
    "pitch": 60
  },
  {
    "clipIndex": 476,
    "trackId": "22",
    "clipName": null,
    "beat": 238.25,
    "relBeat": 5.75,
    "duration": 0.25,
    "velocity": 100,
    "pitch": 60
  },
  {
    "clipIndex": 477,
    "trackId": "22",
    "clipName": null,
    "beat": 238.25,
    "relBeat": 1.75,
    "duration": 0.25,
    "velocity": 100,
    "pitch": 60
  },
  {
    "clipIndex": 342,
    "trackId": "55",
    "clipName": null,
    "beat": 238.5,
    "relBeat": 5.5,
    "duration": 0.25000026015651017,
    "velocity": 100,
    "pitch": 60
  },
  {
    "clipIndex": 474,
    "trackId": "22",
    "clipName": null,
    "beat": 238.5,
    "relBeat": 14,
    "duration": 0.25,
    "velocity": 100,
    "pitch": 60
  },
  {
    "clipIndex": 475,
    "trackId": "22",
    "clipName": null,
    "beat": 238.5,
    "relBeat": 10,
    "duration": 0.25,
    "velocity": 100,
    "pitch": 60
  },
  {
    "clipIndex": 477,
    "trackId": "22",
    "clipName": null,
    "beat": 238.5,
    "relBeat": 2,
    "duration": 0.25,
    "velocity": 100,
    "pitch": 60
  },
  {
    "clipIndex": 474,
    "trackId": "22",
    "clipName": null,
    "beat": 238.75,
    "relBeat": 14.25,
    "duration": 0.25,
    "velocity": 100,
    "pitch": 60
  },
  {
    "clipIndex": 477,
    "trackId": "22",
    "clipName": null,
    "beat": 238.75,
    "relBeat": 2.25,
    "duration": 0.25,
    "velocity": 100,
    "pitch": 60
  },
  {
    "clipIndex": 0,
    "trackId": "89",
    "clipName": null,
    "beat": 239,
    "relBeat": 239,
    "duration": 0.25,
    "velocity": 100,
    "pitch": 60
  },
  {
    "clipIndex": 474,
    "trackId": "22",
    "clipName": null,
    "beat": 239,
    "relBeat": 14.5,
    "duration": 0.25,
    "velocity": 100,
    "pitch": 60
  },
  {
    "clipIndex": 477,
    "trackId": "22",
    "clipName": null,
    "beat": 239,
    "relBeat": 2.5,
    "duration": 0.25,
    "velocity": 100,
    "pitch": 60
  },
  {
    "clipIndex": 474,
    "trackId": "22",
    "clipName": null,
    "beat": 239.25,
    "relBeat": 14.75,
    "duration": 0.25,
    "velocity": 100,
    "pitch": 60
  },
  {
    "clipIndex": 477,
    "trackId": "22",
    "clipName": null,
    "beat": 239.25,
    "relBeat": 2.75,
    "duration": 0.25,
    "velocity": 100,
    "pitch": 60
  },
  {
    "clipIndex": 474,
    "trackId": "22",
    "clipName": null,
    "beat": 239.5,
    "relBeat": 15,
    "duration": 0.25,
    "velocity": 100,
    "pitch": 60
  },
  {
    "clipIndex": 477,
    "trackId": "22",
    "clipName": null,
    "beat": 239.5,
    "relBeat": 3,
    "duration": 0.25,
    "velocity": 100,
    "pitch": 60
  },
  {
    "clipIndex": 474,
    "trackId": "22",
    "clipName": null,
    "beat": 239.75,
    "relBeat": 15.25,
    "duration": 0.25,
    "velocity": 100,
    "pitch": 60
  },
  {
    "clipIndex": 477,
    "trackId": "22",
    "clipName": null,
    "beat": 239.75,
    "relBeat": 3.25,
    "duration": 0.25,
    "velocity": 100,
    "pitch": 60
  },
  {
    "clipIndex": 0,
    "trackId": "89",
    "clipName": null,
    "beat": 240,
    "relBeat": 240,
    "duration": 0.25,
    "velocity": 100,
    "pitch": 60
  },
  {
    "clipIndex": 341,
    "trackId": "55",
    "clipName": null,
    "beat": 240,
    "relBeat": 7.5,
    "duration": 0.25000026015651017,
    "velocity": 100,
    "pitch": 60
  },
  {
    "clipIndex": 474,
    "trackId": "22",
    "clipName": null,
    "beat": 240,
    "relBeat": 15.5,
    "duration": 0.25,
    "velocity": 100,
    "pitch": 60
  },
  {
    "clipIndex": 477,
    "trackId": "22",
    "clipName": null,
    "beat": 240,
    "relBeat": 3.5,
    "duration": 0.25,
    "velocity": 100,
    "pitch": 60
  },
  {
    "clipIndex": 343,
    "trackId": "55",
    "clipName": null,
    "beat": 240.25,
    "relBeat": 0.25,
    "duration": 0.32496565934065935,
    "velocity": 100,
    "pitch": 60
  },
  {
    "clipIndex": 474,
    "trackId": "22",
    "clipName": null,
    "beat": 240.25,
    "relBeat": 15.75,
    "duration": 0.25,
    "velocity": 100,
    "pitch": 60
  },
  {
    "clipIndex": 477,
    "trackId": "22",
    "clipName": null,
    "beat": 240.25,
    "relBeat": 3.75,
    "duration": 0.25,
    "velocity": 100,
    "pitch": 60
  },
  {
    "clipIndex": 342,
    "trackId": "55",
    "clipName": null,
    "beat": 240.5,
    "relBeat": 7.5,
    "duration": 0.25000026015651017,
    "velocity": 100,
    "pitch": 60
  },
  {
    "clipIndex": 353,
    "trackId": "66",
    "clipName": null,
    "beat": 240.5,
    "relBeat": 240.5,
    "duration": 0.25,
    "velocity": 100,
    "pitch": 72
  },
  {
    "clipIndex": 473,
    "trackId": "22",
    "clipName": null,
    "beat": 240.5,
    "relBeat": 24,
    "duration": 0.25,
    "velocity": 100,
    "pitch": 60
  },
  {
    "clipIndex": 474,
    "trackId": "22",
    "clipName": null,
    "beat": 240.5,
    "relBeat": 16,
    "duration": 0.25,
    "velocity": 100,
    "pitch": 60
  },
  {
    "clipIndex": 475,
    "trackId": "22",
    "clipName": null,
    "beat": 240.5,
    "relBeat": 12,
    "duration": 0.25,
    "velocity": 100,
    "pitch": 60
  },
  {
    "clipIndex": 477,
    "trackId": "22",
    "clipName": null,
    "beat": 240.5,
    "relBeat": 4,
    "duration": 0.25,
    "velocity": 100,
    "pitch": 60
  },
  {
    "clipIndex": 343,
    "trackId": "55",
    "clipName": null,
    "beat": 240.75,
    "relBeat": 0.75,
    "duration": 0.32496565934065935,
    "velocity": 100,
    "pitch": 60
  },
  {
    "clipIndex": 353,
    "trackId": "66",
    "clipName": null,
    "beat": 240.75,
    "relBeat": 240.75,
    "duration": 0.25,
    "velocity": 100,
    "pitch": 72
  },
  {
    "clipIndex": 473,
    "trackId": "22",
    "clipName": null,
    "beat": 240.75,
    "relBeat": 24.25,
    "duration": 0.25,
    "velocity": 100,
    "pitch": 60
  },
  {
    "clipIndex": 474,
    "trackId": "22",
    "clipName": null,
    "beat": 240.75,
    "relBeat": 16.25,
    "duration": 0.25,
    "velocity": 100,
    "pitch": 60
  },
  {
    "clipIndex": 475,
    "trackId": "22",
    "clipName": null,
    "beat": 240.75,
    "relBeat": 12.25,
    "duration": 0.25,
    "velocity": 100,
    "pitch": 60
  },
  {
    "clipIndex": 477,
    "trackId": "22",
    "clipName": null,
    "beat": 240.75,
    "relBeat": 4.25,
    "duration": 0.25,
    "velocity": 100,
    "pitch": 60
  },
  {
    "clipIndex": 353,
    "trackId": "66",
    "clipName": null,
    "beat": 241,
    "relBeat": 241,
    "duration": 0.25,
    "velocity": 100,
    "pitch": 72
  },
  {
    "clipIndex": 473,
    "trackId": "22",
    "clipName": null,
    "beat": 241,
    "relBeat": 24.5,
    "duration": 0.25,
    "velocity": 100,
    "pitch": 60
  },
  {
    "clipIndex": 474,
    "trackId": "22",
    "clipName": null,
    "beat": 241,
    "relBeat": 16.5,
    "duration": 0.25,
    "velocity": 100,
    "pitch": 60
  },
  {
    "clipIndex": 475,
    "trackId": "22",
    "clipName": null,
    "beat": 241,
    "relBeat": 12.5,
    "duration": 0.25,
    "velocity": 100,
    "pitch": 60
  },
  {
    "clipIndex": 477,
    "trackId": "22",
    "clipName": null,
    "beat": 241,
    "relBeat": 4.5,
    "duration": 0.25,
    "velocity": 100,
    "pitch": 60
  },
  {
    "clipIndex": 343,
    "trackId": "55",
    "clipName": null,
    "beat": 241.25,
    "relBeat": 1.25,
    "duration": 0.32496565934065935,
    "velocity": 100,
    "pitch": 60
  },
  {
    "clipIndex": 353,
    "trackId": "66",
    "clipName": null,
    "beat": 241.25,
    "relBeat": 241.25,
    "duration": 0.25,
    "velocity": 100,
    "pitch": 72
  },
  {
    "clipIndex": 473,
    "trackId": "22",
    "clipName": null,
    "beat": 241.25,
    "relBeat": 24.75,
    "duration": 0.25,
    "velocity": 100,
    "pitch": 60
  },
  {
    "clipIndex": 474,
    "trackId": "22",
    "clipName": null,
    "beat": 241.25,
    "relBeat": 16.75,
    "duration": 0.25,
    "velocity": 100,
    "pitch": 60
  },
  {
    "clipIndex": 475,
    "trackId": "22",
    "clipName": null,
    "beat": 241.25,
    "relBeat": 12.75,
    "duration": 0.25,
    "velocity": 100,
    "pitch": 60
  },
  {
    "clipIndex": 477,
    "trackId": "22",
    "clipName": null,
    "beat": 241.25,
    "relBeat": 4.75,
    "duration": 0.25,
    "velocity": 100,
    "pitch": 60
  },
  {
    "clipIndex": 353,
    "trackId": "66",
    "clipName": null,
    "beat": 241.5,
    "relBeat": 241.5,
    "duration": 0.25,
    "velocity": 100,
    "pitch": 72
  },
  {
    "clipIndex": 473,
    "trackId": "22",
    "clipName": null,
    "beat": 241.5,
    "relBeat": 25,
    "duration": 0.25,
    "velocity": 100,
    "pitch": 60
  },
  {
    "clipIndex": 474,
    "trackId": "22",
    "clipName": null,
    "beat": 241.5,
    "relBeat": 17,
    "duration": 0.25,
    "velocity": 100,
    "pitch": 60
  },
  {
    "clipIndex": 475,
    "trackId": "22",
    "clipName": null,
    "beat": 241.5,
    "relBeat": 13,
    "duration": 0.25,
    "velocity": 100,
    "pitch": 60
  },
  {
    "clipIndex": 476,
    "trackId": "22",
    "clipName": null,
    "beat": 241.5,
    "relBeat": 9,
    "duration": 0.25,
    "velocity": 100,
    "pitch": 60
  },
  {
    "clipIndex": 477,
    "trackId": "22",
    "clipName": null,
    "beat": 241.5,
    "relBeat": 5,
    "duration": 0.25,
    "velocity": 100,
    "pitch": 60
  },
  {
    "clipIndex": 343,
    "trackId": "55",
    "clipName": null,
    "beat": 241.75,
    "relBeat": 1.75,
    "duration": 0.25000026015651017,
    "velocity": 100,
    "pitch": 60
  },
  {
    "clipIndex": 353,
    "trackId": "66",
    "clipName": null,
    "beat": 241.75,
    "relBeat": 241.75,
    "duration": 0.25,
    "velocity": 100,
    "pitch": 72
  },
  {
    "clipIndex": 473,
    "trackId": "22",
    "clipName": null,
    "beat": 241.75,
    "relBeat": 25.25,
    "duration": 0.25,
    "velocity": 100,
    "pitch": 60
  },
  {
    "clipIndex": 474,
    "trackId": "22",
    "clipName": null,
    "beat": 241.75,
    "relBeat": 17.25,
    "duration": 0.25,
    "velocity": 100,
    "pitch": 60
  },
  {
    "clipIndex": 475,
    "trackId": "22",
    "clipName": null,
    "beat": 241.75,
    "relBeat": 13.25,
    "duration": 0.25,
    "velocity": 100,
    "pitch": 60
  },
  {
    "clipIndex": 476,
    "trackId": "22",
    "clipName": null,
    "beat": 241.75,
    "relBeat": 9.25,
    "duration": 0.25,
    "velocity": 100,
    "pitch": 60
  },
  {
    "clipIndex": 477,
    "trackId": "22",
    "clipName": null,
    "beat": 241.75,
    "relBeat": 5.25,
    "duration": 0.25,
    "velocity": 100,
    "pitch": 60
  },
  {
    "clipIndex": 341,
    "trackId": "55",
    "clipName": null,
    "beat": 242,
    "relBeat": 9.5,
    "duration": 0.25000026015651017,
    "velocity": 100,
    "pitch": 60
  },
  {
    "clipIndex": 353,
    "trackId": "66",
    "clipName": null,
    "beat": 242,
    "relBeat": 242,
    "duration": 0.25,
    "velocity": 100,
    "pitch": 72
  },
  {
    "clipIndex": 473,
    "trackId": "22",
    "clipName": null,
    "beat": 242,
    "relBeat": 25.5,
    "duration": 0.25,
    "velocity": 100,
    "pitch": 60
  },
  {
    "clipIndex": 474,
    "trackId": "22",
    "clipName": null,
    "beat": 242,
    "relBeat": 17.5,
    "duration": 0.25,
    "velocity": 100,
    "pitch": 60
  },
  {
    "clipIndex": 475,
    "trackId": "22",
    "clipName": null,
    "beat": 242,
    "relBeat": 13.5,
    "duration": 0.25,
    "velocity": 100,
    "pitch": 60
  },
  {
    "clipIndex": 476,
    "trackId": "22",
    "clipName": null,
    "beat": 242,
    "relBeat": 9.5,
    "duration": 0.25,
    "velocity": 100,
    "pitch": 60
  },
  {
    "clipIndex": 477,
    "trackId": "22",
    "clipName": null,
    "beat": 242,
    "relBeat": 5.5,
    "duration": 0.25,
    "velocity": 100,
    "pitch": 60
  },
  {
    "clipIndex": 353,
    "trackId": "66",
    "clipName": null,
    "beat": 242.25,
    "relBeat": 242.25,
    "duration": 0.25,
    "velocity": 100,
    "pitch": 72
  },
  {
    "clipIndex": 473,
    "trackId": "22",
    "clipName": null,
    "beat": 242.25,
    "relBeat": 25.75,
    "duration": 0.25,
    "velocity": 100,
    "pitch": 60
  },
  {
    "clipIndex": 474,
    "trackId": "22",
    "clipName": null,
    "beat": 242.25,
    "relBeat": 17.75,
    "duration": 0.25,
    "velocity": 100,
    "pitch": 60
  },
  {
    "clipIndex": 475,
    "trackId": "22",
    "clipName": null,
    "beat": 242.25,
    "relBeat": 13.75,
    "duration": 0.25,
    "velocity": 100,
    "pitch": 60
  },
  {
    "clipIndex": 476,
    "trackId": "22",
    "clipName": null,
    "beat": 242.25,
    "relBeat": 9.75,
    "duration": 0.25,
    "velocity": 100,
    "pitch": 60
  },
  {
    "clipIndex": 477,
    "trackId": "22",
    "clipName": null,
    "beat": 242.25,
    "relBeat": 5.75,
    "duration": 0.25,
    "velocity": 100,
    "pitch": 60
  },
  {
    "clipIndex": 342,
    "trackId": "55",
    "clipName": null,
    "beat": 242.5,
    "relBeat": 9.5,
    "duration": 0.25000026015651017,
    "velocity": 100,
    "pitch": 60
  },
  {
    "clipIndex": 353,
    "trackId": "66",
    "clipName": null,
    "beat": 242.5,
    "relBeat": 242.5,
    "duration": 0.25,
    "velocity": 100,
    "pitch": 72
  },
  {
    "clipIndex": 473,
    "trackId": "22",
    "clipName": null,
    "beat": 242.5,
    "relBeat": 26,
    "duration": 0.25,
    "velocity": 100,
    "pitch": 60
  },
  {
    "clipIndex": 474,
    "trackId": "22",
    "clipName": null,
    "beat": 242.5,
    "relBeat": 18,
    "duration": 0.25,
    "velocity": 100,
    "pitch": 60
  },
  {
    "clipIndex": 475,
    "trackId": "22",
    "clipName": null,
    "beat": 242.5,
    "relBeat": 14,
    "duration": 0.25,
    "velocity": 100,
    "pitch": 60
  },
  {
    "clipIndex": 476,
    "trackId": "22",
    "clipName": null,
    "beat": 242.5,
    "relBeat": 10,
    "duration": 0.25,
    "velocity": 100,
    "pitch": 60
  },
  {
    "clipIndex": 353,
    "trackId": "66",
    "clipName": null,
    "beat": 242.75,
    "relBeat": 242.75,
    "duration": 0.25,
    "velocity": 100,
    "pitch": 72
  },
  {
    "clipIndex": 473,
    "trackId": "22",
    "clipName": null,
    "beat": 242.75,
    "relBeat": 26.25,
    "duration": 0.25,
    "velocity": 100,
    "pitch": 60
  },
  {
    "clipIndex": 474,
    "trackId": "22",
    "clipName": null,
    "beat": 242.75,
    "relBeat": 18.25,
    "duration": 0.25,
    "velocity": 100,
    "pitch": 60
  },
  {
    "clipIndex": 475,
    "trackId": "22",
    "clipName": null,
    "beat": 242.75,
    "relBeat": 14.25,
    "duration": 0.25,
    "velocity": 100,
    "pitch": 60
  },
  {
    "clipIndex": 353,
    "trackId": "66",
    "clipName": null,
    "beat": 243,
    "relBeat": 243,
    "duration": 0.25,
    "velocity": 100,
    "pitch": 72
  },
  {
    "clipIndex": 473,
    "trackId": "22",
    "clipName": null,
    "beat": 243,
    "relBeat": 26.5,
    "duration": 0.25,
    "velocity": 100,
    "pitch": 60
  },
  {
    "clipIndex": 474,
    "trackId": "22",
    "clipName": null,
    "beat": 243,
    "relBeat": 18.5,
    "duration": 0.25,
    "velocity": 100,
    "pitch": 60
  },
  {
    "clipIndex": 475,
    "trackId": "22",
    "clipName": null,
    "beat": 243,
    "relBeat": 14.5,
    "duration": 0.25,
    "velocity": 100,
    "pitch": 60
  },
  {
    "clipIndex": 353,
    "trackId": "66",
    "clipName": null,
    "beat": 243.25,
    "relBeat": 243.25,
    "duration": 0.25,
    "velocity": 100,
    "pitch": 72
  },
  {
    "clipIndex": 473,
    "trackId": "22",
    "clipName": null,
    "beat": 243.25,
    "relBeat": 26.75,
    "duration": 0.25,
    "velocity": 100,
    "pitch": 60
  },
  {
    "clipIndex": 474,
    "trackId": "22",
    "clipName": null,
    "beat": 243.25,
    "relBeat": 18.75,
    "duration": 0.25,
    "velocity": 100,
    "pitch": 60
  },
  {
    "clipIndex": 475,
    "trackId": "22",
    "clipName": null,
    "beat": 243.25,
    "relBeat": 14.75,
    "duration": 0.25,
    "velocity": 100,
    "pitch": 60
  },
  {
    "clipIndex": 353,
    "trackId": "66",
    "clipName": null,
    "beat": 243.5,
    "relBeat": 243.5,
    "duration": 0.25,
    "velocity": 100,
    "pitch": 72
  },
  {
    "clipIndex": 473,
    "trackId": "22",
    "clipName": null,
    "beat": 243.5,
    "relBeat": 27,
    "duration": 0.25,
    "velocity": 100,
    "pitch": 60
  },
  {
    "clipIndex": 474,
    "trackId": "22",
    "clipName": null,
    "beat": 243.5,
    "relBeat": 19,
    "duration": 0.25,
    "velocity": 100,
    "pitch": 60
  },
  {
    "clipIndex": 475,
    "trackId": "22",
    "clipName": null,
    "beat": 243.5,
    "relBeat": 15,
    "duration": 0.25,
    "velocity": 100,
    "pitch": 60
  },
  {
    "clipIndex": 353,
    "trackId": "66",
    "clipName": null,
    "beat": 243.75,
    "relBeat": 243.75,
    "duration": 0.25,
    "velocity": 100,
    "pitch": 72
  },
  {
    "clipIndex": 473,
    "trackId": "22",
    "clipName": null,
    "beat": 243.75,
    "relBeat": 27.25,
    "duration": 0.25,
    "velocity": 100,
    "pitch": 60
  },
  {
    "clipIndex": 474,
    "trackId": "22",
    "clipName": null,
    "beat": 243.75,
    "relBeat": 19.25,
    "duration": 0.25,
    "velocity": 100,
    "pitch": 60
  },
  {
    "clipIndex": 475,
    "trackId": "22",
    "clipName": null,
    "beat": 243.75,
    "relBeat": 15.25,
    "duration": 0.25,
    "velocity": 100,
    "pitch": 60
  },
  {
    "clipIndex": 353,
    "trackId": "66",
    "clipName": null,
    "beat": 244,
    "relBeat": 244,
    "duration": 0.25,
    "velocity": 100,
    "pitch": 72
  },
  {
    "clipIndex": 473,
    "trackId": "22",
    "clipName": null,
    "beat": 244,
    "relBeat": 27.5,
    "duration": 0.25,
    "velocity": 100,
    "pitch": 60
  },
  {
    "clipIndex": 474,
    "trackId": "22",
    "clipName": null,
    "beat": 244,
    "relBeat": 19.5,
    "duration": 0.25,
    "velocity": 100,
    "pitch": 60
  },
  {
    "clipIndex": 475,
    "trackId": "22",
    "clipName": null,
    "beat": 244,
    "relBeat": 15.5,
    "duration": 0.25,
    "velocity": 100,
    "pitch": 60
  },
  {
    "clipIndex": 353,
    "trackId": "66",
    "clipName": null,
    "beat": 244.25,
    "relBeat": 244.25,
    "duration": 0.25,
    "velocity": 100,
    "pitch": 72
  },
  {
    "clipIndex": 473,
    "trackId": "22",
    "clipName": null,
    "beat": 244.25,
    "relBeat": 27.75,
    "duration": 0.25,
    "velocity": 100,
    "pitch": 60
  },
  {
    "clipIndex": 474,
    "trackId": "22",
    "clipName": null,
    "beat": 244.25,
    "relBeat": 19.75,
    "duration": 0.25,
    "velocity": 100,
    "pitch": 60
  },
  {
    "clipIndex": 475,
    "trackId": "22",
    "clipName": null,
    "beat": 244.25,
    "relBeat": 15.75,
    "duration": 0.25,
    "velocity": 100,
    "pitch": 60
  },
  {
    "clipIndex": 353,
    "trackId": "66",
    "clipName": null,
    "beat": 244.5,
    "relBeat": 244.5,
    "duration": 0.25,
    "velocity": 100,
    "pitch": 72
  },
  {
    "clipIndex": 473,
    "trackId": "22",
    "clipName": null,
    "beat": 244.5,
    "relBeat": 28,
    "duration": 0.25,
    "velocity": 100,
    "pitch": 60
  },
  {
    "clipIndex": 474,
    "trackId": "22",
    "clipName": null,
    "beat": 244.5,
    "relBeat": 20,
    "duration": 0.25,
    "velocity": 100,
    "pitch": 60
  },
  {
    "clipIndex": 475,
    "trackId": "22",
    "clipName": null,
    "beat": 244.5,
    "relBeat": 16,
    "duration": 0.25,
    "velocity": 100,
    "pitch": 60
  },
  {
    "clipIndex": 476,
    "trackId": "22",
    "clipName": null,
    "beat": 244.5,
    "relBeat": 12,
    "duration": 0.25,
    "velocity": 100,
    "pitch": 60
  },
  {
    "clipIndex": 353,
    "trackId": "66",
    "clipName": null,
    "beat": 244.75,
    "relBeat": 244.75,
    "duration": 0.25,
    "velocity": 100,
    "pitch": 72
  },
  {
    "clipIndex": 473,
    "trackId": "22",
    "clipName": null,
    "beat": 244.75,
    "relBeat": 28.25,
    "duration": 0.25,
    "velocity": 100,
    "pitch": 60
  },
  {
    "clipIndex": 474,
    "trackId": "22",
    "clipName": null,
    "beat": 244.75,
    "relBeat": 20.25,
    "duration": 0.25,
    "velocity": 100,
    "pitch": 60
  },
  {
    "clipIndex": 475,
    "trackId": "22",
    "clipName": null,
    "beat": 244.75,
    "relBeat": 16.25,
    "duration": 0.25,
    "velocity": 100,
    "pitch": 60
  },
  {
    "clipIndex": 476,
    "trackId": "22",
    "clipName": null,
    "beat": 244.75,
    "relBeat": 12.25,
    "duration": 0.25,
    "velocity": 100,
    "pitch": 60
  },
  {
    "clipIndex": 353,
    "trackId": "66",
    "clipName": null,
    "beat": 245,
    "relBeat": 245,
    "duration": 0.25,
    "velocity": 100,
    "pitch": 72
  },
  {
    "clipIndex": 473,
    "trackId": "22",
    "clipName": null,
    "beat": 245,
    "relBeat": 28.5,
    "duration": 0.25,
    "velocity": 100,
    "pitch": 60
  },
  {
    "clipIndex": 474,
    "trackId": "22",
    "clipName": null,
    "beat": 245,
    "relBeat": 20.5,
    "duration": 0.25,
    "velocity": 100,
    "pitch": 60
  },
  {
    "clipIndex": 475,
    "trackId": "22",
    "clipName": null,
    "beat": 245,
    "relBeat": 16.5,
    "duration": 0.25,
    "velocity": 100,
    "pitch": 60
  },
  {
    "clipIndex": 476,
    "trackId": "22",
    "clipName": null,
    "beat": 245,
    "relBeat": 12.5,
    "duration": 0.25,
    "velocity": 100,
    "pitch": 60
  },
  {
    "clipIndex": 353,
    "trackId": "66",
    "clipName": null,
    "beat": 245.25,
    "relBeat": 245.25,
    "duration": 0.25,
    "velocity": 100,
    "pitch": 72
  },
  {
    "clipIndex": 473,
    "trackId": "22",
    "clipName": null,
    "beat": 245.25,
    "relBeat": 28.75,
    "duration": 0.25,
    "velocity": 100,
    "pitch": 60
  },
  {
    "clipIndex": 474,
    "trackId": "22",
    "clipName": null,
    "beat": 245.25,
    "relBeat": 20.75,
    "duration": 0.25,
    "velocity": 100,
    "pitch": 60
  },
  {
    "clipIndex": 475,
    "trackId": "22",
    "clipName": null,
    "beat": 245.25,
    "relBeat": 16.75,
    "duration": 0.25,
    "velocity": 100,
    "pitch": 60
  },
  {
    "clipIndex": 476,
    "trackId": "22",
    "clipName": null,
    "beat": 245.25,
    "relBeat": 12.75,
    "duration": 0.25,
    "velocity": 100,
    "pitch": 60
  },
  {
    "clipIndex": 353,
    "trackId": "66",
    "clipName": null,
    "beat": 245.5,
    "relBeat": 245.5,
    "duration": 0.25,
    "velocity": 100,
    "pitch": 72
  },
  {
    "clipIndex": 473,
    "trackId": "22",
    "clipName": null,
    "beat": 245.5,
    "relBeat": 29,
    "duration": 0.25,
    "velocity": 100,
    "pitch": 60
  },
  {
    "clipIndex": 474,
    "trackId": "22",
    "clipName": null,
    "beat": 245.5,
    "relBeat": 21,
    "duration": 0.25,
    "velocity": 100,
    "pitch": 60
  },
  {
    "clipIndex": 475,
    "trackId": "22",
    "clipName": null,
    "beat": 245.5,
    "relBeat": 17,
    "duration": 0.25,
    "velocity": 100,
    "pitch": 60
  },
  {
    "clipIndex": 476,
    "trackId": "22",
    "clipName": null,
    "beat": 245.5,
    "relBeat": 13,
    "duration": 0.25,
    "velocity": 100,
    "pitch": 60
  },
  {
    "clipIndex": 477,
    "trackId": "22",
    "clipName": null,
    "beat": 245.5,
    "relBeat": 9,
    "duration": 0.25,
    "velocity": 100,
    "pitch": 60
  },
  {
    "clipIndex": 353,
    "trackId": "66",
    "clipName": null,
    "beat": 245.75,
    "relBeat": 245.75,
    "duration": 0.25,
    "velocity": 100,
    "pitch": 72
  },
  {
    "clipIndex": 473,
    "trackId": "22",
    "clipName": null,
    "beat": 245.75,
    "relBeat": 29.25,
    "duration": 0.25,
    "velocity": 100,
    "pitch": 60
  },
  {
    "clipIndex": 474,
    "trackId": "22",
    "clipName": null,
    "beat": 245.75,
    "relBeat": 21.25,
    "duration": 0.25,
    "velocity": 100,
    "pitch": 60
  },
  {
    "clipIndex": 475,
    "trackId": "22",
    "clipName": null,
    "beat": 245.75,
    "relBeat": 17.25,
    "duration": 0.25,
    "velocity": 100,
    "pitch": 60
  },
  {
    "clipIndex": 476,
    "trackId": "22",
    "clipName": null,
    "beat": 245.75,
    "relBeat": 13.25,
    "duration": 0.25,
    "velocity": 100,
    "pitch": 60
  },
  {
    "clipIndex": 477,
    "trackId": "22",
    "clipName": null,
    "beat": 245.75,
    "relBeat": 9.25,
    "duration": 0.25,
    "velocity": 100,
    "pitch": 60
  },
  {
    "clipIndex": 353,
    "trackId": "66",
    "clipName": null,
    "beat": 246,
    "relBeat": 246,
    "duration": 0.25,
    "velocity": 100,
    "pitch": 72
  },
  {
    "clipIndex": 473,
    "trackId": "22",
    "clipName": null,
    "beat": 246,
    "relBeat": 29.5,
    "duration": 0.25,
    "velocity": 100,
    "pitch": 60
  },
  {
    "clipIndex": 475,
    "trackId": "22",
    "clipName": null,
    "beat": 246,
    "relBeat": 17.5,
    "duration": 0.25,
    "velocity": 100,
    "pitch": 60
  },
  {
    "clipIndex": 476,
    "trackId": "22",
    "clipName": null,
    "beat": 246,
    "relBeat": 13.5,
    "duration": 0.25,
    "velocity": 100,
    "pitch": 60
  },
  {
    "clipIndex": 477,
    "trackId": "22",
    "clipName": null,
    "beat": 246,
    "relBeat": 9.5,
    "duration": 0.25,
    "velocity": 100,
    "pitch": 60
  },
  {
    "clipIndex": 353,
    "trackId": "66",
    "clipName": null,
    "beat": 246.25,
    "relBeat": 246.25,
    "duration": 0.25,
    "velocity": 100,
    "pitch": 72
  },
  {
    "clipIndex": 473,
    "trackId": "22",
    "clipName": null,
    "beat": 246.25,
    "relBeat": 29.75,
    "duration": 0.25,
    "velocity": 100,
    "pitch": 60
  },
  {
    "clipIndex": 475,
    "trackId": "22",
    "clipName": null,
    "beat": 246.25,
    "relBeat": 17.75,
    "duration": 0.25,
    "velocity": 100,
    "pitch": 60
  },
  {
    "clipIndex": 476,
    "trackId": "22",
    "clipName": null,
    "beat": 246.25,
    "relBeat": 13.75,
    "duration": 0.25,
    "velocity": 100,
    "pitch": 60
  },
  {
    "clipIndex": 477,
    "trackId": "22",
    "clipName": null,
    "beat": 246.25,
    "relBeat": 9.75,
    "duration": 0.25,
    "velocity": 100,
    "pitch": 60
  },
  {
    "clipIndex": 353,
    "trackId": "66",
    "clipName": null,
    "beat": 246.5,
    "relBeat": 246.5,
    "duration": 0.25,
    "velocity": 100,
    "pitch": 72
  },
  {
    "clipIndex": 473,
    "trackId": "22",
    "clipName": null,
    "beat": 246.5,
    "relBeat": 30,
    "duration": 0.25,
    "velocity": 100,
    "pitch": 60
  },
  {
    "clipIndex": 475,
    "trackId": "22",
    "clipName": null,
    "beat": 246.5,
    "relBeat": 18,
    "duration": 0.25,
    "velocity": 100,
    "pitch": 60
  },
  {
    "clipIndex": 476,
    "trackId": "22",
    "clipName": null,
    "beat": 246.5,
    "relBeat": 14,
    "duration": 0.25,
    "velocity": 100,
    "pitch": 60
  },
  {
    "clipIndex": 477,
    "trackId": "22",
    "clipName": null,
    "beat": 246.5,
    "relBeat": 10,
    "duration": 0.25,
    "velocity": 100,
    "pitch": 60
  },
  {
    "clipIndex": 353,
    "trackId": "66",
    "clipName": null,
    "beat": 246.75,
    "relBeat": 246.75,
    "duration": 0.25000026015651017,
    "velocity": 100,
    "pitch": 72
  },
  {
    "clipIndex": 473,
    "trackId": "22",
    "clipName": null,
    "beat": 246.75,
    "relBeat": 30.25,
    "duration": 0.25,
    "velocity": 100,
    "pitch": 60
  },
  {
    "clipIndex": 475,
    "trackId": "22",
    "clipName": null,
    "beat": 246.75,
    "relBeat": 18.25,
    "duration": 0.25,
    "velocity": 100,
    "pitch": 60
  },
  {
    "clipIndex": 476,
    "trackId": "22",
    "clipName": null,
    "beat": 246.75,
    "relBeat": 14.25,
    "duration": 0.25,
    "velocity": 100,
    "pitch": 60
  },
  {
    "clipIndex": 0,
    "trackId": "89",
    "clipName": null,
    "beat": 247,
    "relBeat": 247,
    "duration": 0.25,
    "velocity": 100,
    "pitch": 60
  },
  {
    "clipIndex": 473,
    "trackId": "22",
    "clipName": null,
    "beat": 247,
    "relBeat": 30.5,
    "duration": 0.25,
    "velocity": 100,
    "pitch": 60
  },
  {
    "clipIndex": 475,
    "trackId": "22",
    "clipName": null,
    "beat": 247,
    "relBeat": 18.5,
    "duration": 0.25,
    "velocity": 100,
    "pitch": 60
  },
  {
    "clipIndex": 476,
    "trackId": "22",
    "clipName": null,
    "beat": 247,
    "relBeat": 14.5,
    "duration": 0.25,
    "velocity": 100,
    "pitch": 60
  },
  {
    "clipIndex": 473,
    "trackId": "22",
    "clipName": null,
    "beat": 247.25,
    "relBeat": 30.75,
    "duration": 0.25,
    "velocity": 100,
    "pitch": 60
  },
  {
    "clipIndex": 475,
    "trackId": "22",
    "clipName": null,
    "beat": 247.25,
    "relBeat": 18.75,
    "duration": 0.25,
    "velocity": 100,
    "pitch": 60
  },
  {
    "clipIndex": 476,
    "trackId": "22",
    "clipName": null,
    "beat": 247.25,
    "relBeat": 14.75,
    "duration": 0.25,
    "velocity": 100,
    "pitch": 60
  },
  {
    "clipIndex": 478,
    "trackId": "22",
    "clipName": null,
    "beat": 247.25,
    "relBeat": 0,
    "duration": 0.25,
    "velocity": 100,
    "pitch": 60
  },
  {
    "clipIndex": 0,
    "trackId": "89",
    "clipName": null,
    "beat": 247.5,
    "relBeat": 247.5,
    "duration": 0.25,
    "velocity": 100,
    "pitch": 60
  },
  {
    "clipIndex": 473,
    "trackId": "22",
    "clipName": null,
    "beat": 247.5,
    "relBeat": 31,
    "duration": 0.25,
    "velocity": 100,
    "pitch": 60
  },
  {
    "clipIndex": 475,
    "trackId": "22",
    "clipName": null,
    "beat": 247.5,
    "relBeat": 19,
    "duration": 0.25,
    "velocity": 100,
    "pitch": 60
  },
  {
    "clipIndex": 476,
    "trackId": "22",
    "clipName": null,
    "beat": 247.5,
    "relBeat": 15,
    "duration": 0.25,
    "velocity": 100,
    "pitch": 60
  },
  {
    "clipIndex": 478,
    "trackId": "22",
    "clipName": null,
    "beat": 247.5,
    "relBeat": 0.25,
    "duration": 0.25,
    "velocity": 100,
    "pitch": 60
  },
  {
    "clipIndex": 473,
    "trackId": "22",
    "clipName": null,
    "beat": 247.75,
    "relBeat": 31.25,
    "duration": 0.25,
    "velocity": 100,
    "pitch": 60
  },
  {
    "clipIndex": 475,
    "trackId": "22",
    "clipName": null,
    "beat": 247.75,
    "relBeat": 19.25,
    "duration": 0.25,
    "velocity": 100,
    "pitch": 60
  },
  {
    "clipIndex": 476,
    "trackId": "22",
    "clipName": null,
    "beat": 247.75,
    "relBeat": 15.25,
    "duration": 0.25,
    "velocity": 100,
    "pitch": 60
  },
  {
    "clipIndex": 478,
    "trackId": "22",
    "clipName": null,
    "beat": 247.75,
    "relBeat": 0.5,
    "duration": 0.25,
    "velocity": 100,
    "pitch": 60
  },
  {
    "clipIndex": 479,
    "trackId": "22",
    "clipName": null,
    "beat": 247.75,
    "relBeat": 0,
    "duration": 0.25,
    "velocity": 100,
    "pitch": 60
  },
  {
    "clipIndex": 0,
    "trackId": "89",
    "clipName": null,
    "beat": 248,
    "relBeat": 248,
    "duration": 0.25,
    "velocity": 100,
    "pitch": 60
  },
  {
    "clipIndex": 473,
    "trackId": "22",
    "clipName": null,
    "beat": 248,
    "relBeat": 31.5,
    "duration": 0.25,
    "velocity": 100,
    "pitch": 60
  },
  {
    "clipIndex": 475,
    "trackId": "22",
    "clipName": null,
    "beat": 248,
    "relBeat": 19.5,
    "duration": 0.25,
    "velocity": 100,
    "pitch": 60
  },
  {
    "clipIndex": 476,
    "trackId": "22",
    "clipName": null,
    "beat": 248,
    "relBeat": 15.5,
    "duration": 0.25,
    "velocity": 100,
    "pitch": 60
  },
  {
    "clipIndex": 478,
    "trackId": "22",
    "clipName": null,
    "beat": 248,
    "relBeat": 0.75,
    "duration": 0.25,
    "velocity": 100,
    "pitch": 60
  },
  {
    "clipIndex": 479,
    "trackId": "22",
    "clipName": null,
    "beat": 248,
    "relBeat": 0.25,
    "duration": 0.25,
    "velocity": 100,
    "pitch": 60
  },
  {
    "clipIndex": 473,
    "trackId": "22",
    "clipName": null,
    "beat": 248.25,
    "relBeat": 31.75,
    "duration": 0.25,
    "velocity": 100,
    "pitch": 60
  },
  {
    "clipIndex": 475,
    "trackId": "22",
    "clipName": null,
    "beat": 248.25,
    "relBeat": 19.75,
    "duration": 0.25,
    "velocity": 100,
    "pitch": 60
  },
  {
    "clipIndex": 476,
    "trackId": "22",
    "clipName": null,
    "beat": 248.25,
    "relBeat": 15.75,
    "duration": 0.25,
    "velocity": 100,
    "pitch": 60
  },
  {
    "clipIndex": 478,
    "trackId": "22",
    "clipName": null,
    "beat": 248.25,
    "relBeat": 1,
    "duration": 0.25,
    "velocity": 100,
    "pitch": 60
  },
  {
    "clipIndex": 479,
    "trackId": "22",
    "clipName": null,
    "beat": 248.25,
    "relBeat": 0.5,
    "duration": 0.25,
    "velocity": 100,
    "pitch": 60
  },
  {
    "clipIndex": 480,
    "trackId": "22",
    "clipName": null,
    "beat": 248.25,
    "relBeat": 0,
    "duration": 0.25,
    "velocity": 100,
    "pitch": 60
  },
  {
    "clipIndex": 0,
    "trackId": "89",
    "clipName": null,
    "beat": 248.5,
    "relBeat": 248.5,
    "duration": 0.25,
    "velocity": 100,
    "pitch": 60
  },
  {
    "clipIndex": 474,
    "trackId": "22",
    "clipName": null,
    "beat": 248.5,
    "relBeat": 24,
    "duration": 0.25,
    "velocity": 100,
    "pitch": 60
  },
  {
    "clipIndex": 475,
    "trackId": "22",
    "clipName": null,
    "beat": 248.5,
    "relBeat": 20,
    "duration": 0.25,
    "velocity": 100,
    "pitch": 60
  },
  {
    "clipIndex": 476,
    "trackId": "22",
    "clipName": null,
    "beat": 248.5,
    "relBeat": 16,
    "duration": 0.25,
    "velocity": 100,
    "pitch": 60
  },
  {
    "clipIndex": 477,
    "trackId": "22",
    "clipName": null,
    "beat": 248.5,
    "relBeat": 12,
    "duration": 0.25,
    "velocity": 100,
    "pitch": 60
  },
  {
    "clipIndex": 478,
    "trackId": "22",
    "clipName": null,
    "beat": 248.5,
    "relBeat": 1.25,
    "duration": 0.25,
    "velocity": 100,
    "pitch": 60
  },
  {
    "clipIndex": 479,
    "trackId": "22",
    "clipName": null,
    "beat": 248.5,
    "relBeat": 0.75,
    "duration": 0.25,
    "velocity": 100,
    "pitch": 60
  },
  {
    "clipIndex": 480,
    "trackId": "22",
    "clipName": null,
    "beat": 248.5,
    "relBeat": 0.25,
    "duration": 0.25,
    "velocity": 100,
    "pitch": 60
  },
  {
    "clipIndex": 474,
    "trackId": "22",
    "clipName": null,
    "beat": 248.75,
    "relBeat": 24.25,
    "duration": 0.25,
    "velocity": 100,
    "pitch": 60
  },
  {
    "clipIndex": 475,
    "trackId": "22",
    "clipName": null,
    "beat": 248.75,
    "relBeat": 20.25,
    "duration": 0.25,
    "velocity": 100,
    "pitch": 60
  },
  {
    "clipIndex": 476,
    "trackId": "22",
    "clipName": null,
    "beat": 248.75,
    "relBeat": 16.25,
    "duration": 0.25,
    "velocity": 100,
    "pitch": 60
  },
  {
    "clipIndex": 477,
    "trackId": "22",
    "clipName": null,
    "beat": 248.75,
    "relBeat": 12.25,
    "duration": 0.25,
    "velocity": 100,
    "pitch": 60
  },
  {
    "clipIndex": 478,
    "trackId": "22",
    "clipName": null,
    "beat": 248.75,
    "relBeat": 1.5,
    "duration": 0.25,
    "velocity": 100,
    "pitch": 60
  },
  {
    "clipIndex": 479,
    "trackId": "22",
    "clipName": null,
    "beat": 248.75,
    "relBeat": 1,
    "duration": 0.25,
    "velocity": 100,
    "pitch": 60
  },
  {
    "clipIndex": 480,
    "trackId": "22",
    "clipName": null,
    "beat": 248.75,
    "relBeat": 0.5,
    "duration": 0.25,
    "velocity": 100,
    "pitch": 60
  },
  {
    "clipIndex": 481,
    "trackId": "22",
    "clipName": null,
    "beat": 248.75,
    "relBeat": 0,
    "duration": 0.25,
    "velocity": 100,
    "pitch": 60
  },
  {
    "clipIndex": 0,
    "trackId": "89",
    "clipName": null,
    "beat": 249,
    "relBeat": 249,
    "duration": 0.25,
    "velocity": 100,
    "pitch": 60
  },
  {
    "clipIndex": 474,
    "trackId": "22",
    "clipName": null,
    "beat": 249,
    "relBeat": 24.5,
    "duration": 0.25,
    "velocity": 100,
    "pitch": 60
  },
  {
    "clipIndex": 475,
    "trackId": "22",
    "clipName": null,
    "beat": 249,
    "relBeat": 20.5,
    "duration": 0.25,
    "velocity": 100,
    "pitch": 60
  },
  {
    "clipIndex": 476,
    "trackId": "22",
    "clipName": null,
    "beat": 249,
    "relBeat": 16.5,
    "duration": 0.25,
    "velocity": 100,
    "pitch": 60
  },
  {
    "clipIndex": 477,
    "trackId": "22",
    "clipName": null,
    "beat": 249,
    "relBeat": 12.5,
    "duration": 0.25,
    "velocity": 100,
    "pitch": 60
  },
  {
    "clipIndex": 478,
    "trackId": "22",
    "clipName": null,
    "beat": 249,
    "relBeat": 1.75,
    "duration": 0.25,
    "velocity": 100,
    "pitch": 60
  },
  {
    "clipIndex": 479,
    "trackId": "22",
    "clipName": null,
    "beat": 249,
    "relBeat": 1.25,
    "duration": 0.25,
    "velocity": 100,
    "pitch": 60
  },
  {
    "clipIndex": 480,
    "trackId": "22",
    "clipName": null,
    "beat": 249,
    "relBeat": 0.75,
    "duration": 0.25,
    "velocity": 100,
    "pitch": 60
  },
  {
    "clipIndex": 481,
    "trackId": "22",
    "clipName": null,
    "beat": 249,
    "relBeat": 0.25,
    "duration": 0.25,
    "velocity": 100,
    "pitch": 60
  },
  {
    "clipIndex": 0,
    "trackId": "89",
    "clipName": null,
    "beat": 249.25,
    "relBeat": 249.25,
    "duration": 0.25,
    "velocity": 100,
    "pitch": 60
  },
  {
    "clipIndex": 474,
    "trackId": "22",
    "clipName": null,
    "beat": 249.25,
    "relBeat": 24.75,
    "duration": 0.25,
    "velocity": 100,
    "pitch": 60
  },
  {
    "clipIndex": 475,
    "trackId": "22",
    "clipName": null,
    "beat": 249.25,
    "relBeat": 20.75,
    "duration": 0.25,
    "velocity": 100,
    "pitch": 60
  },
  {
    "clipIndex": 476,
    "trackId": "22",
    "clipName": null,
    "beat": 249.25,
    "relBeat": 16.75,
    "duration": 0.25,
    "velocity": 100,
    "pitch": 60
  },
  {
    "clipIndex": 477,
    "trackId": "22",
    "clipName": null,
    "beat": 249.25,
    "relBeat": 12.75,
    "duration": 0.25,
    "velocity": 100,
    "pitch": 60
  },
  {
    "clipIndex": 478,
    "trackId": "22",
    "clipName": null,
    "beat": 249.25,
    "relBeat": 2,
    "duration": 0.25,
    "velocity": 100,
    "pitch": 60
  },
  {
    "clipIndex": 479,
    "trackId": "22",
    "clipName": null,
    "beat": 249.25,
    "relBeat": 1.5,
    "duration": 0.25,
    "velocity": 100,
    "pitch": 60
  },
  {
    "clipIndex": 480,
    "trackId": "22",
    "clipName": null,
    "beat": 249.25,
    "relBeat": 1,
    "duration": 0.25,
    "velocity": 100,
    "pitch": 60
  },
  {
    "clipIndex": 481,
    "trackId": "22",
    "clipName": null,
    "beat": 249.25,
    "relBeat": 0.5,
    "duration": 0.25,
    "velocity": 100,
    "pitch": 60
  },
  {
    "clipIndex": 474,
    "trackId": "22",
    "clipName": null,
    "beat": 249.5,
    "relBeat": 25,
    "duration": 0.25,
    "velocity": 100,
    "pitch": 60
  },
  {
    "clipIndex": 475,
    "trackId": "22",
    "clipName": null,
    "beat": 249.5,
    "relBeat": 21,
    "duration": 0.25,
    "velocity": 100,
    "pitch": 60
  },
  {
    "clipIndex": 476,
    "trackId": "22",
    "clipName": null,
    "beat": 249.5,
    "relBeat": 17,
    "duration": 0.25,
    "velocity": 100,
    "pitch": 60
  },
  {
    "clipIndex": 477,
    "trackId": "22",
    "clipName": null,
    "beat": 249.5,
    "relBeat": 13,
    "duration": 0.25,
    "velocity": 100,
    "pitch": 60
  },
  {
    "clipIndex": 478,
    "trackId": "22",
    "clipName": null,
    "beat": 249.5,
    "relBeat": 2.25,
    "duration": 0.25,
    "velocity": 100,
    "pitch": 60
  },
  {
    "clipIndex": 479,
    "trackId": "22",
    "clipName": null,
    "beat": 249.5,
    "relBeat": 1.75,
    "duration": 0.25,
    "velocity": 100,
    "pitch": 60
  },
  {
    "clipIndex": 480,
    "trackId": "22",
    "clipName": null,
    "beat": 249.5,
    "relBeat": 1.25,
    "duration": 0.25,
    "velocity": 100,
    "pitch": 60
  },
  {
    "clipIndex": 481,
    "trackId": "22",
    "clipName": null,
    "beat": 249.5,
    "relBeat": 0.75,
    "duration": 0.25,
    "velocity": 100,
    "pitch": 60
  },
  {
    "clipIndex": 474,
    "trackId": "22",
    "clipName": null,
    "beat": 249.75,
    "relBeat": 25.25,
    "duration": 0.25,
    "velocity": 100,
    "pitch": 60
  },
  {
    "clipIndex": 475,
    "trackId": "22",
    "clipName": null,
    "beat": 249.75,
    "relBeat": 21.25,
    "duration": 0.25,
    "velocity": 100,
    "pitch": 60
  },
  {
    "clipIndex": 476,
    "trackId": "22",
    "clipName": null,
    "beat": 249.75,
    "relBeat": 17.25,
    "duration": 0.25,
    "velocity": 100,
    "pitch": 60
  },
  {
    "clipIndex": 477,
    "trackId": "22",
    "clipName": null,
    "beat": 249.75,
    "relBeat": 13.25,
    "duration": 0.25,
    "velocity": 100,
    "pitch": 60
  },
  {
    "clipIndex": 478,
    "trackId": "22",
    "clipName": null,
    "beat": 249.75,
    "relBeat": 2.5,
    "duration": 0.25,
    "velocity": 100,
    "pitch": 60
  },
  {
    "clipIndex": 479,
    "trackId": "22",
    "clipName": null,
    "beat": 249.75,
    "relBeat": 2,
    "duration": 0.25,
    "velocity": 100,
    "pitch": 60
  },
  {
    "clipIndex": 480,
    "trackId": "22",
    "clipName": null,
    "beat": 249.75,
    "relBeat": 1.5,
    "duration": 0.25,
    "velocity": 100,
    "pitch": 60
  },
  {
    "clipIndex": 481,
    "trackId": "22",
    "clipName": null,
    "beat": 249.75,
    "relBeat": 1,
    "duration": 0.25,
    "velocity": 100,
    "pitch": 60
  },
  {
    "clipIndex": 0,
    "trackId": "89",
    "clipName": null,
    "beat": 250,
    "relBeat": 250,
    "duration": 0.25,
    "velocity": 100,
    "pitch": 60
  },
  {
    "clipIndex": 474,
    "trackId": "22",
    "clipName": null,
    "beat": 250,
    "relBeat": 25.5,
    "duration": 0.25,
    "velocity": 100,
    "pitch": 60
  },
  {
    "clipIndex": 476,
    "trackId": "22",
    "clipName": null,
    "beat": 250,
    "relBeat": 17.5,
    "duration": 0.25,
    "velocity": 100,
    "pitch": 60
  },
  {
    "clipIndex": 477,
    "trackId": "22",
    "clipName": null,
    "beat": 250,
    "relBeat": 13.5,
    "duration": 0.25,
    "velocity": 100,
    "pitch": 60
  },
  {
    "clipIndex": 478,
    "trackId": "22",
    "clipName": null,
    "beat": 250,
    "relBeat": 2.75,
    "duration": 0.25,
    "velocity": 100,
    "pitch": 60
  },
  {
    "clipIndex": 479,
    "trackId": "22",
    "clipName": null,
    "beat": 250,
    "relBeat": 2.25,
    "duration": 0.25,
    "velocity": 100,
    "pitch": 60
  },
  {
    "clipIndex": 480,
    "trackId": "22",
    "clipName": null,
    "beat": 250,
    "relBeat": 1.75,
    "duration": 0.25,
    "velocity": 100,
    "pitch": 60
  },
  {
    "clipIndex": 481,
    "trackId": "22",
    "clipName": null,
    "beat": 250,
    "relBeat": 1.25,
    "duration": 0.25,
    "velocity": 100,
    "pitch": 60
  },
  {
    "clipIndex": 474,
    "trackId": "22",
    "clipName": null,
    "beat": 250.25,
    "relBeat": 25.75,
    "duration": 0.25,
    "velocity": 100,
    "pitch": 60
  },
  {
    "clipIndex": 476,
    "trackId": "22",
    "clipName": null,
    "beat": 250.25,
    "relBeat": 17.75,
    "duration": 0.25,
    "velocity": 100,
    "pitch": 60
  },
  {
    "clipIndex": 477,
    "trackId": "22",
    "clipName": null,
    "beat": 250.25,
    "relBeat": 13.75,
    "duration": 0.25,
    "velocity": 100,
    "pitch": 60
  },
  {
    "clipIndex": 478,
    "trackId": "22",
    "clipName": null,
    "beat": 250.25,
    "relBeat": 3,
    "duration": 0.25,
    "velocity": 100,
    "pitch": 60
  },
  {
    "clipIndex": 479,
    "trackId": "22",
    "clipName": null,
    "beat": 250.25,
    "relBeat": 2.5,
    "duration": 0.25,
    "velocity": 100,
    "pitch": 60
  },
  {
    "clipIndex": 480,
    "trackId": "22",
    "clipName": null,
    "beat": 250.25,
    "relBeat": 2,
    "duration": 0.25,
    "velocity": 100,
    "pitch": 60
  },
  {
    "clipIndex": 481,
    "trackId": "22",
    "clipName": null,
    "beat": 250.25,
    "relBeat": 1.5,
    "duration": 0.25,
    "velocity": 100,
    "pitch": 60
  },
  {
    "clipIndex": 474,
    "trackId": "22",
    "clipName": null,
    "beat": 250.5,
    "relBeat": 26,
    "duration": 0.25,
    "velocity": 100,
    "pitch": 60
  },
  {
    "clipIndex": 476,
    "trackId": "22",
    "clipName": null,
    "beat": 250.5,
    "relBeat": 18,
    "duration": 0.25,
    "velocity": 100,
    "pitch": 60
  },
  {
    "clipIndex": 477,
    "trackId": "22",
    "clipName": null,
    "beat": 250.5,
    "relBeat": 14,
    "duration": 0.25,
    "velocity": 100,
    "pitch": 60
  },
  {
    "clipIndex": 478,
    "trackId": "22",
    "clipName": null,
    "beat": 250.5,
    "relBeat": 3.25,
    "duration": 0.25,
    "velocity": 100,
    "pitch": 60
  },
  {
    "clipIndex": 479,
    "trackId": "22",
    "clipName": null,
    "beat": 250.5,
    "relBeat": 2.75,
    "duration": 0.25,
    "velocity": 100,
    "pitch": 60
  },
  {
    "clipIndex": 480,
    "trackId": "22",
    "clipName": null,
    "beat": 250.5,
    "relBeat": 2.25,
    "duration": 0.25,
    "velocity": 100,
    "pitch": 60
  },
  {
    "clipIndex": 481,
    "trackId": "22",
    "clipName": null,
    "beat": 250.5,
    "relBeat": 1.75,
    "duration": 0.25,
    "velocity": 100,
    "pitch": 60
  },
  {
    "clipIndex": 0,
    "trackId": "89",
    "clipName": null,
    "beat": 250.75,
    "relBeat": 250.75,
    "duration": 0.25,
    "velocity": 100,
    "pitch": 60
  },
  {
    "clipIndex": 474,
    "trackId": "22",
    "clipName": null,
    "beat": 250.75,
    "relBeat": 26.25,
    "duration": 0.25,
    "velocity": 100,
    "pitch": 60
  },
  {
    "clipIndex": 476,
    "trackId": "22",
    "clipName": null,
    "beat": 250.75,
    "relBeat": 18.25,
    "duration": 0.25,
    "velocity": 100,
    "pitch": 60
  },
  {
    "clipIndex": 477,
    "trackId": "22",
    "clipName": null,
    "beat": 250.75,
    "relBeat": 14.25,
    "duration": 0.25,
    "velocity": 100,
    "pitch": 60
  },
  {
    "clipIndex": 478,
    "trackId": "22",
    "clipName": null,
    "beat": 250.75,
    "relBeat": 3.5,
    "duration": 0.25,
    "velocity": 100,
    "pitch": 60
  },
  {
    "clipIndex": 479,
    "trackId": "22",
    "clipName": null,
    "beat": 250.75,
    "relBeat": 3,
    "duration": 0.25,
    "velocity": 100,
    "pitch": 60
  },
  {
    "clipIndex": 480,
    "trackId": "22",
    "clipName": null,
    "beat": 250.75,
    "relBeat": 2.5,
    "duration": 0.25,
    "velocity": 100,
    "pitch": 60
  },
  {
    "clipIndex": 481,
    "trackId": "22",
    "clipName": null,
    "beat": 250.75,
    "relBeat": 2,
    "duration": 0.25,
    "velocity": 100,
    "pitch": 60
  },
  {
    "clipIndex": 0,
    "trackId": "89",
    "clipName": null,
    "beat": 251,
    "relBeat": 251,
    "duration": 0.25,
    "velocity": 100,
    "pitch": 60
  },
  {
    "clipIndex": 474,
    "trackId": "22",
    "clipName": null,
    "beat": 251,
    "relBeat": 26.5,
    "duration": 0.25,
    "velocity": 100,
    "pitch": 60
  },
  {
    "clipIndex": 476,
    "trackId": "22",
    "clipName": null,
    "beat": 251,
    "relBeat": 18.5,
    "duration": 0.25,
    "velocity": 100,
    "pitch": 60
  },
  {
    "clipIndex": 477,
    "trackId": "22",
    "clipName": null,
    "beat": 251,
    "relBeat": 14.5,
    "duration": 0.25,
    "velocity": 100,
    "pitch": 60
  },
  {
    "clipIndex": 478,
    "trackId": "22",
    "clipName": null,
    "beat": 251,
    "relBeat": 3.75,
    "duration": 0.25,
    "velocity": 100,
    "pitch": 60
  },
  {
    "clipIndex": 479,
    "trackId": "22",
    "clipName": null,
    "beat": 251,
    "relBeat": 3.25,
    "duration": 0.25,
    "velocity": 100,
    "pitch": 60
  },
  {
    "clipIndex": 480,
    "trackId": "22",
    "clipName": null,
    "beat": 251,
    "relBeat": 2.75,
    "duration": 0.25,
    "velocity": 100,
    "pitch": 60
  },
  {
    "clipIndex": 481,
    "trackId": "22",
    "clipName": null,
    "beat": 251,
    "relBeat": 2.25,
    "duration": 0.25,
    "velocity": 100,
    "pitch": 60
  },
  {
    "clipIndex": 474,
    "trackId": "22",
    "clipName": null,
    "beat": 251.25,
    "relBeat": 26.75,
    "duration": 0.25,
    "velocity": 100,
    "pitch": 60
  },
  {
    "clipIndex": 476,
    "trackId": "22",
    "clipName": null,
    "beat": 251.25,
    "relBeat": 18.75,
    "duration": 0.25,
    "velocity": 100,
    "pitch": 60
  },
  {
    "clipIndex": 477,
    "trackId": "22",
    "clipName": null,
    "beat": 251.25,
    "relBeat": 14.75,
    "duration": 0.25,
    "velocity": 100,
    "pitch": 60
  },
  {
    "clipIndex": 478,
    "trackId": "22",
    "clipName": null,
    "beat": 251.25,
    "relBeat": 4,
    "duration": 0.25,
    "velocity": 100,
    "pitch": 60
  },
  {
    "clipIndex": 479,
    "trackId": "22",
    "clipName": null,
    "beat": 251.25,
    "relBeat": 3.5,
    "duration": 0.25,
    "velocity": 100,
    "pitch": 60
  },
  {
    "clipIndex": 480,
    "trackId": "22",
    "clipName": null,
    "beat": 251.25,
    "relBeat": 3,
    "duration": 0.25,
    "velocity": 100,
    "pitch": 60
  },
  {
    "clipIndex": 481,
    "trackId": "22",
    "clipName": null,
    "beat": 251.25,
    "relBeat": 2.5,
    "duration": 0.25,
    "velocity": 100,
    "pitch": 60
  },
  {
    "clipIndex": 474,
    "trackId": "22",
    "clipName": null,
    "beat": 251.5,
    "relBeat": 27,
    "duration": 0.25,
    "velocity": 100,
    "pitch": 60
  },
  {
    "clipIndex": 476,
    "trackId": "22",
    "clipName": null,
    "beat": 251.5,
    "relBeat": 19,
    "duration": 0.25,
    "velocity": 100,
    "pitch": 60
  },
  {
    "clipIndex": 477,
    "trackId": "22",
    "clipName": null,
    "beat": 251.5,
    "relBeat": 15,
    "duration": 0.25,
    "velocity": 100,
    "pitch": 60
  },
  {
    "clipIndex": 478,
    "trackId": "22",
    "clipName": null,
    "beat": 251.5,
    "relBeat": 4.25,
    "duration": 0.25,
    "velocity": 100,
    "pitch": 60
  },
  {
    "clipIndex": 479,
    "trackId": "22",
    "clipName": null,
    "beat": 251.5,
    "relBeat": 3.75,
    "duration": 0.25,
    "velocity": 100,
    "pitch": 60
  },
  {
    "clipIndex": 480,
    "trackId": "22",
    "clipName": null,
    "beat": 251.5,
    "relBeat": 3.25,
    "duration": 0.25,
    "velocity": 100,
    "pitch": 60
  },
  {
    "clipIndex": 481,
    "trackId": "22",
    "clipName": null,
    "beat": 251.5,
    "relBeat": 2.75,
    "duration": 0.25,
    "velocity": 100,
    "pitch": 60
  },
  {
    "clipIndex": 0,
    "trackId": "89",
    "clipName": null,
    "beat": 251.75,
    "relBeat": 251.75,
    "duration": 0.25,
    "velocity": 100,
    "pitch": 60
  },
  {
    "clipIndex": 474,
    "trackId": "22",
    "clipName": null,
    "beat": 251.75,
    "relBeat": 27.25,
    "duration": 0.25,
    "velocity": 100,
    "pitch": 60
  },
  {
    "clipIndex": 476,
    "trackId": "22",
    "clipName": null,
    "beat": 251.75,
    "relBeat": 19.25,
    "duration": 0.25,
    "velocity": 100,
    "pitch": 60
  },
  {
    "clipIndex": 477,
    "trackId": "22",
    "clipName": null,
    "beat": 251.75,
    "relBeat": 15.25,
    "duration": 0.25,
    "velocity": 100,
    "pitch": 60
  },
  {
    "clipIndex": 478,
    "trackId": "22",
    "clipName": null,
    "beat": 251.75,
    "relBeat": 4.5,
    "duration": 0.25,
    "velocity": 100,
    "pitch": 60
  },
  {
    "clipIndex": 479,
    "trackId": "22",
    "clipName": null,
    "beat": 251.75,
    "relBeat": 4,
    "duration": 0.25,
    "velocity": 100,
    "pitch": 60
  },
  {
    "clipIndex": 480,
    "trackId": "22",
    "clipName": null,
    "beat": 251.75,
    "relBeat": 3.5,
    "duration": 0.25,
    "velocity": 100,
    "pitch": 60
  },
  {
    "clipIndex": 481,
    "trackId": "22",
    "clipName": null,
    "beat": 251.75,
    "relBeat": 3,
    "duration": 0.25,
    "velocity": 100,
    "pitch": 60
  },
  {
    "clipIndex": 0,
    "trackId": "89",
    "clipName": null,
    "beat": 252,
    "relBeat": 252,
    "duration": 0.25,
    "velocity": 100,
    "pitch": 60
  },
  {
    "clipIndex": 474,
    "trackId": "22",
    "clipName": null,
    "beat": 252,
    "relBeat": 27.5,
    "duration": 0.25,
    "velocity": 100,
    "pitch": 60
  },
  {
    "clipIndex": 476,
    "trackId": "22",
    "clipName": null,
    "beat": 252,
    "relBeat": 19.5,
    "duration": 0.25,
    "velocity": 100,
    "pitch": 60
  },
  {
    "clipIndex": 477,
    "trackId": "22",
    "clipName": null,
    "beat": 252,
    "relBeat": 15.5,
    "duration": 0.25,
    "velocity": 100,
    "pitch": 60
  },
  {
    "clipIndex": 478,
    "trackId": "22",
    "clipName": null,
    "beat": 252,
    "relBeat": 4.75,
    "duration": 0.25,
    "velocity": 100,
    "pitch": 60
  },
  {
    "clipIndex": 479,
    "trackId": "22",
    "clipName": null,
    "beat": 252,
    "relBeat": 4.25,
    "duration": 0.25,
    "velocity": 100,
    "pitch": 60
  },
  {
    "clipIndex": 480,
    "trackId": "22",
    "clipName": null,
    "beat": 252,
    "relBeat": 3.75,
    "duration": 0.25,
    "velocity": 100,
    "pitch": 60
  },
  {
    "clipIndex": 481,
    "trackId": "22",
    "clipName": null,
    "beat": 252,
    "relBeat": 3.25,
    "duration": 0.25,
    "velocity": 100,
    "pitch": 60
  },
  {
    "clipIndex": 474,
    "trackId": "22",
    "clipName": null,
    "beat": 252.25,
    "relBeat": 27.75,
    "duration": 0.25,
    "velocity": 100,
    "pitch": 60
  },
  {
    "clipIndex": 476,
    "trackId": "22",
    "clipName": null,
    "beat": 252.25,
    "relBeat": 19.75,
    "duration": 0.25,
    "velocity": 100,
    "pitch": 60
  },
  {
    "clipIndex": 477,
    "trackId": "22",
    "clipName": null,
    "beat": 252.25,
    "relBeat": 15.75,
    "duration": 0.25,
    "velocity": 100,
    "pitch": 60
  },
  {
    "clipIndex": 478,
    "trackId": "22",
    "clipName": null,
    "beat": 252.25,
    "relBeat": 5,
    "duration": 0.25,
    "velocity": 100,
    "pitch": 60
  },
  {
    "clipIndex": 479,
    "trackId": "22",
    "clipName": null,
    "beat": 252.25,
    "relBeat": 4.5,
    "duration": 0.25,
    "velocity": 100,
    "pitch": 60
  },
  {
    "clipIndex": 480,
    "trackId": "22",
    "clipName": null,
    "beat": 252.25,
    "relBeat": 4,
    "duration": 0.25,
    "velocity": 100,
    "pitch": 60
  },
  {
    "clipIndex": 481,
    "trackId": "22",
    "clipName": null,
    "beat": 252.25,
    "relBeat": 3.5,
    "duration": 0.25,
    "velocity": 100,
    "pitch": 60
  },
  {
    "clipIndex": 474,
    "trackId": "22",
    "clipName": null,
    "beat": 252.5,
    "relBeat": 28,
    "duration": 0.25,
    "velocity": 100,
    "pitch": 60
  },
  {
    "clipIndex": 475,
    "trackId": "22",
    "clipName": null,
    "beat": 252.5,
    "relBeat": 24,
    "duration": 0.25,
    "velocity": 100,
    "pitch": 60
  },
  {
    "clipIndex": 476,
    "trackId": "22",
    "clipName": null,
    "beat": 252.5,
    "relBeat": 20,
    "duration": 0.25,
    "velocity": 100,
    "pitch": 60
  },
  {
    "clipIndex": 477,
    "trackId": "22",
    "clipName": null,
    "beat": 252.5,
    "relBeat": 16,
    "duration": 0.25,
    "velocity": 100,
    "pitch": 60
  },
  {
    "clipIndex": 478,
    "trackId": "22",
    "clipName": null,
    "beat": 252.5,
    "relBeat": 5.25,
    "duration": 0.25,
    "velocity": 100,
    "pitch": 60
  },
  {
    "clipIndex": 479,
    "trackId": "22",
    "clipName": null,
    "beat": 252.5,
    "relBeat": 4.75,
    "duration": 0.25,
    "velocity": 100,
    "pitch": 60
  },
  {
    "clipIndex": 480,
    "trackId": "22",
    "clipName": null,
    "beat": 252.5,
    "relBeat": 4.25,
    "duration": 0.25,
    "velocity": 100,
    "pitch": 60
  },
  {
    "clipIndex": 481,
    "trackId": "22",
    "clipName": null,
    "beat": 252.5,
    "relBeat": 3.75,
    "duration": 0.25,
    "velocity": 100,
    "pitch": 60
  },
  {
    "clipIndex": 0,
    "trackId": "89",
    "clipName": null,
    "beat": 252.75,
    "relBeat": 252.75,
    "duration": 0.25,
    "velocity": 100,
    "pitch": 60
  },
  {
    "clipIndex": 474,
    "trackId": "22",
    "clipName": null,
    "beat": 252.75,
    "relBeat": 28.25,
    "duration": 0.25,
    "velocity": 100,
    "pitch": 60
  },
  {
    "clipIndex": 475,
    "trackId": "22",
    "clipName": null,
    "beat": 252.75,
    "relBeat": 24.25,
    "duration": 0.25,
    "velocity": 100,
    "pitch": 60
  },
  {
    "clipIndex": 476,
    "trackId": "22",
    "clipName": null,
    "beat": 252.75,
    "relBeat": 20.25,
    "duration": 0.25,
    "velocity": 100,
    "pitch": 60
  },
  {
    "clipIndex": 477,
    "trackId": "22",
    "clipName": null,
    "beat": 252.75,
    "relBeat": 16.25,
    "duration": 0.25,
    "velocity": 100,
    "pitch": 60
  },
  {
    "clipIndex": 478,
    "trackId": "22",
    "clipName": null,
    "beat": 252.75,
    "relBeat": 5.5,
    "duration": 0.25,
    "velocity": 100,
    "pitch": 60
  },
  {
    "clipIndex": 479,
    "trackId": "22",
    "clipName": null,
    "beat": 252.75,
    "relBeat": 5,
    "duration": 0.25,
    "velocity": 100,
    "pitch": 60
  },
  {
    "clipIndex": 480,
    "trackId": "22",
    "clipName": null,
    "beat": 252.75,
    "relBeat": 4.5,
    "duration": 0.25,
    "velocity": 100,
    "pitch": 60
  },
  {
    "clipIndex": 481,
    "trackId": "22",
    "clipName": null,
    "beat": 252.75,
    "relBeat": 4,
    "duration": 0.25,
    "velocity": 100,
    "pitch": 60
  },
  {
    "clipIndex": 0,
    "trackId": "89",
    "clipName": null,
    "beat": 253,
    "relBeat": 253,
    "duration": 0.25,
    "velocity": 100,
    "pitch": 60
  },
  {
    "clipIndex": 474,
    "trackId": "22",
    "clipName": null,
    "beat": 253,
    "relBeat": 28.5,
    "duration": 0.25,
    "velocity": 100,
    "pitch": 60
  },
  {
    "clipIndex": 475,
    "trackId": "22",
    "clipName": null,
    "beat": 253,
    "relBeat": 24.5,
    "duration": 0.25,
    "velocity": 100,
    "pitch": 60
  },
  {
    "clipIndex": 476,
    "trackId": "22",
    "clipName": null,
    "beat": 253,
    "relBeat": 20.5,
    "duration": 0.25,
    "velocity": 100,
    "pitch": 60
  },
  {
    "clipIndex": 477,
    "trackId": "22",
    "clipName": null,
    "beat": 253,
    "relBeat": 16.5,
    "duration": 0.25,
    "velocity": 100,
    "pitch": 60
  },
  {
    "clipIndex": 478,
    "trackId": "22",
    "clipName": null,
    "beat": 253,
    "relBeat": 5.75,
    "duration": 0.25,
    "velocity": 100,
    "pitch": 60
  },
  {
    "clipIndex": 479,
    "trackId": "22",
    "clipName": null,
    "beat": 253,
    "relBeat": 5.25,
    "duration": 0.25,
    "velocity": 100,
    "pitch": 60
  },
  {
    "clipIndex": 480,
    "trackId": "22",
    "clipName": null,
    "beat": 253,
    "relBeat": 4.75,
    "duration": 0.25,
    "velocity": 100,
    "pitch": 60
  },
  {
    "clipIndex": 481,
    "trackId": "22",
    "clipName": null,
    "beat": 253,
    "relBeat": 4.25,
    "duration": 0.25,
    "velocity": 100,
    "pitch": 60
  },
  {
    "clipIndex": 474,
    "trackId": "22",
    "clipName": null,
    "beat": 253.25,
    "relBeat": 28.75,
    "duration": 0.25,
    "velocity": 100,
    "pitch": 60
  },
  {
    "clipIndex": 475,
    "trackId": "22",
    "clipName": null,
    "beat": 253.25,
    "relBeat": 24.75,
    "duration": 0.25,
    "velocity": 100,
    "pitch": 60
  },
  {
    "clipIndex": 476,
    "trackId": "22",
    "clipName": null,
    "beat": 253.25,
    "relBeat": 20.75,
    "duration": 0.25,
    "velocity": 100,
    "pitch": 60
  },
  {
    "clipIndex": 477,
    "trackId": "22",
    "clipName": null,
    "beat": 253.25,
    "relBeat": 16.75,
    "duration": 0.25,
    "velocity": 100,
    "pitch": 60
  },
  {
    "clipIndex": 479,
    "trackId": "22",
    "clipName": null,
    "beat": 253.25,
    "relBeat": 5.5,
    "duration": 0.25,
    "velocity": 100,
    "pitch": 60
  },
  {
    "clipIndex": 480,
    "trackId": "22",
    "clipName": null,
    "beat": 253.25,
    "relBeat": 5,
    "duration": 0.25,
    "velocity": 100,
    "pitch": 60
  },
  {
    "clipIndex": 481,
    "trackId": "22",
    "clipName": null,
    "beat": 253.25,
    "relBeat": 4.5,
    "duration": 0.25,
    "velocity": 100,
    "pitch": 60
  },
  {
    "clipIndex": 474,
    "trackId": "22",
    "clipName": null,
    "beat": 253.5,
    "relBeat": 29,
    "duration": 0.25,
    "velocity": 100,
    "pitch": 60
  },
  {
    "clipIndex": 475,
    "trackId": "22",
    "clipName": null,
    "beat": 253.5,
    "relBeat": 25,
    "duration": 0.25,
    "velocity": 100,
    "pitch": 60
  },
  {
    "clipIndex": 476,
    "trackId": "22",
    "clipName": null,
    "beat": 253.5,
    "relBeat": 21,
    "duration": 0.25,
    "velocity": 100,
    "pitch": 60
  },
  {
    "clipIndex": 477,
    "trackId": "22",
    "clipName": null,
    "beat": 253.5,
    "relBeat": 17,
    "duration": 0.25,
    "velocity": 100,
    "pitch": 60
  },
  {
    "clipIndex": 479,
    "trackId": "22",
    "clipName": null,
    "beat": 253.5,
    "relBeat": 5.75,
    "duration": 0.25,
    "velocity": 100,
    "pitch": 60
  },
  {
    "clipIndex": 480,
    "trackId": "22",
    "clipName": null,
    "beat": 253.5,
    "relBeat": 5.25,
    "duration": 0.25,
    "velocity": 100,
    "pitch": 60
  },
  {
    "clipIndex": 481,
    "trackId": "22",
    "clipName": null,
    "beat": 253.5,
    "relBeat": 4.75,
    "duration": 0.25,
    "velocity": 100,
    "pitch": 60
  },
  {
    "clipIndex": 0,
    "trackId": "89",
    "clipName": null,
    "beat": 253.75,
    "relBeat": 253.75,
    "duration": 0.25,
    "velocity": 100,
    "pitch": 60
  },
  {
    "clipIndex": 474,
    "trackId": "22",
    "clipName": null,
    "beat": 253.75,
    "relBeat": 29.25,
    "duration": 0.25,
    "velocity": 100,
    "pitch": 60
  },
  {
    "clipIndex": 475,
    "trackId": "22",
    "clipName": null,
    "beat": 253.75,
    "relBeat": 25.25,
    "duration": 0.25,
    "velocity": 100,
    "pitch": 60
  },
  {
    "clipIndex": 476,
    "trackId": "22",
    "clipName": null,
    "beat": 253.75,
    "relBeat": 21.25,
    "duration": 0.25,
    "velocity": 100,
    "pitch": 60
  },
  {
    "clipIndex": 477,
    "trackId": "22",
    "clipName": null,
    "beat": 253.75,
    "relBeat": 17.25,
    "duration": 0.25,
    "velocity": 100,
    "pitch": 60
  },
  {
    "clipIndex": 480,
    "trackId": "22",
    "clipName": null,
    "beat": 253.75,
    "relBeat": 5.5,
    "duration": 0.25,
    "velocity": 100,
    "pitch": 60
  },
  {
    "clipIndex": 481,
    "trackId": "22",
    "clipName": null,
    "beat": 253.75,
    "relBeat": 5,
    "duration": 0.25,
    "velocity": 100,
    "pitch": 60
  },
  {
    "clipIndex": 0,
    "trackId": "89",
    "clipName": null,
    "beat": 254,
    "relBeat": 254,
    "duration": 0.25,
    "velocity": 100,
    "pitch": 60
  },
  {
    "clipIndex": 474,
    "trackId": "22",
    "clipName": null,
    "beat": 254,
    "relBeat": 29.5,
    "duration": 0.25,
    "velocity": 100,
    "pitch": 60
  },
  {
    "clipIndex": 475,
    "trackId": "22",
    "clipName": null,
    "beat": 254,
    "relBeat": 25.5,
    "duration": 0.25,
    "velocity": 100,
    "pitch": 60
  },
  {
    "clipIndex": 477,
    "trackId": "22",
    "clipName": null,
    "beat": 254,
    "relBeat": 17.5,
    "duration": 0.25,
    "velocity": 100,
    "pitch": 60
  },
  {
    "clipIndex": 480,
    "trackId": "22",
    "clipName": null,
    "beat": 254,
    "relBeat": 5.75,
    "duration": 0.25,
    "velocity": 100,
    "pitch": 60
  },
  {
    "clipIndex": 481,
    "trackId": "22",
    "clipName": null,
    "beat": 254,
    "relBeat": 5.25,
    "duration": 0.25,
    "velocity": 100,
    "pitch": 60
  },
  {
    "clipIndex": 474,
    "trackId": "22",
    "clipName": null,
    "beat": 254.25,
    "relBeat": 29.75,
    "duration": 0.25,
    "velocity": 100,
    "pitch": 60
  },
  {
    "clipIndex": 475,
    "trackId": "22",
    "clipName": null,
    "beat": 254.25,
    "relBeat": 25.75,
    "duration": 0.25,
    "velocity": 100,
    "pitch": 60
  },
  {
    "clipIndex": 477,
    "trackId": "22",
    "clipName": null,
    "beat": 254.25,
    "relBeat": 17.75,
    "duration": 0.25,
    "velocity": 100,
    "pitch": 60
  },
  {
    "clipIndex": 481,
    "trackId": "22",
    "clipName": null,
    "beat": 254.25,
    "relBeat": 5.5,
    "duration": 0.25,
    "velocity": 100,
    "pitch": 60
  },
  {
    "clipIndex": 474,
    "trackId": "22",
    "clipName": null,
    "beat": 254.5,
    "relBeat": 30,
    "duration": 0.25,
    "velocity": 100,
    "pitch": 60
  },
  {
    "clipIndex": 475,
    "trackId": "22",
    "clipName": null,
    "beat": 254.5,
    "relBeat": 26,
    "duration": 0.25,
    "velocity": 100,
    "pitch": 60
  },
  {
    "clipIndex": 477,
    "trackId": "22",
    "clipName": null,
    "beat": 254.5,
    "relBeat": 18,
    "duration": 0.25,
    "velocity": 100,
    "pitch": 60
  },
  {
    "clipIndex": 481,
    "trackId": "22",
    "clipName": null,
    "beat": 254.5,
    "relBeat": 5.75,
    "duration": 0.25,
    "velocity": 100,
    "pitch": 60
  },
  {
    "clipIndex": 474,
    "trackId": "22",
    "clipName": null,
    "beat": 254.75,
    "relBeat": 30.25,
    "duration": 0.25,
    "velocity": 100,
    "pitch": 60
  },
  {
    "clipIndex": 475,
    "trackId": "22",
    "clipName": null,
    "beat": 254.75,
    "relBeat": 26.25,
    "duration": 0.25,
    "velocity": 100,
    "pitch": 60
  },
  {
    "clipIndex": 477,
    "trackId": "22",
    "clipName": null,
    "beat": 254.75,
    "relBeat": 18.25,
    "duration": 0.25,
    "velocity": 100,
    "pitch": 60
  },
  {
    "clipIndex": 0,
    "trackId": "89",
    "clipName": null,
    "beat": 255,
    "relBeat": 255,
    "duration": 0.25,
    "velocity": 100,
    "pitch": 60
  },
  {
    "clipIndex": 474,
    "trackId": "22",
    "clipName": null,
    "beat": 255,
    "relBeat": 30.5,
    "duration": 0.25,
    "velocity": 100,
    "pitch": 60
  },
  {
    "clipIndex": 475,
    "trackId": "22",
    "clipName": null,
    "beat": 255,
    "relBeat": 26.5,
    "duration": 0.25,
    "velocity": 100,
    "pitch": 60
  },
  {
    "clipIndex": 477,
    "trackId": "22",
    "clipName": null,
    "beat": 255,
    "relBeat": 18.5,
    "duration": 0.25,
    "velocity": 100,
    "pitch": 60
  },
  {
    "clipIndex": 474,
    "trackId": "22",
    "clipName": null,
    "beat": 255.25,
    "relBeat": 30.75,
    "duration": 0.25,
    "velocity": 100,
    "pitch": 60
  },
  {
    "clipIndex": 475,
    "trackId": "22",
    "clipName": null,
    "beat": 255.25,
    "relBeat": 26.75,
    "duration": 0.25,
    "velocity": 100,
    "pitch": 60
  },
  {
    "clipIndex": 477,
    "trackId": "22",
    "clipName": null,
    "beat": 255.25,
    "relBeat": 18.75,
    "duration": 0.25,
    "velocity": 100,
    "pitch": 60
  },
  {
    "clipIndex": 0,
    "trackId": "89",
    "clipName": null,
    "beat": 255.5,
    "relBeat": 255.5,
    "duration": 0.25,
    "velocity": 100,
    "pitch": 60
  },
  {
    "clipIndex": 474,
    "trackId": "22",
    "clipName": null,
    "beat": 255.5,
    "relBeat": 31,
    "duration": 0.25,
    "velocity": 100,
    "pitch": 60
  },
  {
    "clipIndex": 475,
    "trackId": "22",
    "clipName": null,
    "beat": 255.5,
    "relBeat": 27,
    "duration": 0.25,
    "velocity": 100,
    "pitch": 60
  },
  {
    "clipIndex": 477,
    "trackId": "22",
    "clipName": null,
    "beat": 255.5,
    "relBeat": 19,
    "duration": 0.25,
    "velocity": 100,
    "pitch": 60
  },
  {
    "clipIndex": 0,
    "trackId": "89",
    "clipName": null,
    "beat": 255.75,
    "relBeat": 255.75,
    "duration": 0.25,
    "velocity": 100,
    "pitch": 60
  },
  {
    "clipIndex": 474,
    "trackId": "22",
    "clipName": null,
    "beat": 255.75,
    "relBeat": 31.25,
    "duration": 0.25,
    "velocity": 100,
    "pitch": 60
  },
  {
    "clipIndex": 475,
    "trackId": "22",
    "clipName": null,
    "beat": 255.75,
    "relBeat": 27.25,
    "duration": 0.25,
    "velocity": 100,
    "pitch": 60
  },
  {
    "clipIndex": 477,
    "trackId": "22",
    "clipName": null,
    "beat": 255.75,
    "relBeat": 19.25,
    "duration": 0.25,
    "velocity": 100,
    "pitch": 60
  },
  {
    "clipIndex": 474,
    "trackId": "22",
    "clipName": null,
    "beat": 256,
    "relBeat": 31.5,
    "duration": 0.25,
    "velocity": 100,
    "pitch": 60
  },
  {
    "clipIndex": 475,
    "trackId": "22",
    "clipName": null,
    "beat": 256,
    "relBeat": 27.5,
    "duration": 0.25,
    "velocity": 100,
    "pitch": 60
  },
  {
    "clipIndex": 477,
    "trackId": "22",
    "clipName": null,
    "beat": 256,
    "relBeat": 19.5,
    "duration": 0.25,
    "velocity": 100,
    "pitch": 60
  },
  {
    "clipIndex": 0,
    "trackId": "89",
    "clipName": null,
    "beat": 256.25,
    "relBeat": 256.25,
    "duration": 0.25,
    "velocity": 100,
    "pitch": 60
  },
  {
    "clipIndex": 474,
    "trackId": "22",
    "clipName": null,
    "beat": 256.25,
    "relBeat": 31.75,
    "duration": 0.25,
    "velocity": 100,
    "pitch": 60
  },
  {
    "clipIndex": 475,
    "trackId": "22",
    "clipName": null,
    "beat": 256.25,
    "relBeat": 27.75,
    "duration": 0.25,
    "velocity": 100,
    "pitch": 60
  },
  {
    "clipIndex": 477,
    "trackId": "22",
    "clipName": null,
    "beat": 256.25,
    "relBeat": 19.75,
    "duration": 0.25,
    "velocity": 100,
    "pitch": 60
  },
  {
    "clipIndex": 478,
    "trackId": "22",
    "clipName": null,
    "beat": 256.25,
    "relBeat": 9,
    "duration": 0.25,
    "velocity": 100,
    "pitch": 60
  },
  {
    "clipIndex": 0,
    "trackId": "89",
    "clipName": null,
    "beat": 256.5,
    "relBeat": 256.5,
    "duration": 0.25,
    "velocity": 100,
    "pitch": 60
  },
  {
    "clipIndex": 475,
    "trackId": "22",
    "clipName": null,
    "beat": 256.5,
    "relBeat": 28,
    "duration": 0.25,
    "velocity": 100,
    "pitch": 60
  },
  {
    "clipIndex": 476,
    "trackId": "22",
    "clipName": null,
    "beat": 256.5,
    "relBeat": 24,
    "duration": 0.25,
    "velocity": 100,
    "pitch": 60
  },
  {
    "clipIndex": 477,
    "trackId": "22",
    "clipName": null,
    "beat": 256.5,
    "relBeat": 20,
    "duration": 0.25,
    "velocity": 100,
    "pitch": 60
  },
  {
    "clipIndex": 478,
    "trackId": "22",
    "clipName": null,
    "beat": 256.5,
    "relBeat": 9.25,
    "duration": 0.25,
    "velocity": 100,
    "pitch": 60
  },
  {
    "clipIndex": 475,
    "trackId": "22",
    "clipName": null,
    "beat": 256.75,
    "relBeat": 28.25,
    "duration": 0.25,
    "velocity": 100,
    "pitch": 60
  },
  {
    "clipIndex": 476,
    "trackId": "22",
    "clipName": null,
    "beat": 256.75,
    "relBeat": 24.25,
    "duration": 0.25,
    "velocity": 100,
    "pitch": 60
  },
  {
    "clipIndex": 477,
    "trackId": "22",
    "clipName": null,
    "beat": 256.75,
    "relBeat": 20.25,
    "duration": 0.25,
    "velocity": 100,
    "pitch": 60
  },
  {
    "clipIndex": 478,
    "trackId": "22",
    "clipName": null,
    "beat": 256.75,
    "relBeat": 9.5,
    "duration": 0.25,
    "velocity": 100,
    "pitch": 60
  },
  {
    "clipIndex": 479,
    "trackId": "22",
    "clipName": null,
    "beat": 256.75,
    "relBeat": 9,
    "duration": 0.25,
    "velocity": 100,
    "pitch": 60
  },
  {
    "clipIndex": 0,
    "trackId": "89",
    "clipName": null,
    "beat": 257,
    "relBeat": 257,
    "duration": 0.25,
    "velocity": 100,
    "pitch": 60
  },
  {
    "clipIndex": 475,
    "trackId": "22",
    "clipName": null,
    "beat": 257,
    "relBeat": 28.5,
    "duration": 0.25,
    "velocity": 100,
    "pitch": 60
  },
  {
    "clipIndex": 476,
    "trackId": "22",
    "clipName": null,
    "beat": 257,
    "relBeat": 24.5,
    "duration": 0.25,
    "velocity": 100,
    "pitch": 60
  },
  {
    "clipIndex": 477,
    "trackId": "22",
    "clipName": null,
    "beat": 257,
    "relBeat": 20.5,
    "duration": 0.25,
    "velocity": 100,
    "pitch": 60
  },
  {
    "clipIndex": 478,
    "trackId": "22",
    "clipName": null,
    "beat": 257,
    "relBeat": 9.75,
    "duration": 0.25,
    "velocity": 100,
    "pitch": 60
  },
  {
    "clipIndex": 479,
    "trackId": "22",
    "clipName": null,
    "beat": 257,
    "relBeat": 9.25,
    "duration": 0.25,
    "velocity": 100,
    "pitch": 60
  },
  {
    "clipIndex": 475,
    "trackId": "22",
    "clipName": null,
    "beat": 257.25,
    "relBeat": 28.75,
    "duration": 0.25,
    "velocity": 100,
    "pitch": 60
  },
  {
    "clipIndex": 476,
    "trackId": "22",
    "clipName": null,
    "beat": 257.25,
    "relBeat": 24.75,
    "duration": 0.25,
    "velocity": 100,
    "pitch": 60
  },
  {
    "clipIndex": 477,
    "trackId": "22",
    "clipName": null,
    "beat": 257.25,
    "relBeat": 20.75,
    "duration": 0.25,
    "velocity": 100,
    "pitch": 60
  },
  {
    "clipIndex": 478,
    "trackId": "22",
    "clipName": null,
    "beat": 257.25,
    "relBeat": 10,
    "duration": 0.25,
    "velocity": 100,
    "pitch": 60
  },
  {
    "clipIndex": 479,
    "trackId": "22",
    "clipName": null,
    "beat": 257.25,
    "relBeat": 9.5,
    "duration": 0.25,
    "velocity": 100,
    "pitch": 60
  },
  {
    "clipIndex": 480,
    "trackId": "22",
    "clipName": null,
    "beat": 257.25,
    "relBeat": 9,
    "duration": 0.25,
    "velocity": 100,
    "pitch": 60
  },
  {
    "clipIndex": 0,
    "trackId": "89",
    "clipName": null,
    "beat": 257.5,
    "relBeat": 257.5,
    "duration": 0.25,
    "velocity": 100,
    "pitch": 60
  },
  {
    "clipIndex": 475,
    "trackId": "22",
    "clipName": null,
    "beat": 257.5,
    "relBeat": 29,
    "duration": 0.25,
    "velocity": 100,
    "pitch": 60
  },
  {
    "clipIndex": 476,
    "trackId": "22",
    "clipName": null,
    "beat": 257.5,
    "relBeat": 25,
    "duration": 0.25,
    "velocity": 100,
    "pitch": 60
  },
  {
    "clipIndex": 477,
    "trackId": "22",
    "clipName": null,
    "beat": 257.5,
    "relBeat": 21,
    "duration": 0.25,
    "velocity": 100,
    "pitch": 60
  },
  {
    "clipIndex": 479,
    "trackId": "22",
    "clipName": null,
    "beat": 257.5,
    "relBeat": 9.75,
    "duration": 0.25,
    "velocity": 100,
    "pitch": 60
  },
  {
    "clipIndex": 480,
    "trackId": "22",
    "clipName": null,
    "beat": 257.5,
    "relBeat": 9.25,
    "duration": 0.25,
    "velocity": 100,
    "pitch": 60
  },
  {
    "clipIndex": 475,
    "trackId": "22",
    "clipName": null,
    "beat": 257.75,
    "relBeat": 29.25,
    "duration": 0.25,
    "velocity": 100,
    "pitch": 60
  },
  {
    "clipIndex": 476,
    "trackId": "22",
    "clipName": null,
    "beat": 257.75,
    "relBeat": 25.25,
    "duration": 0.25,
    "velocity": 100,
    "pitch": 60
  },
  {
    "clipIndex": 477,
    "trackId": "22",
    "clipName": null,
    "beat": 257.75,
    "relBeat": 21.25,
    "duration": 0.25,
    "velocity": 100,
    "pitch": 60
  },
  {
    "clipIndex": 479,
    "trackId": "22",
    "clipName": null,
    "beat": 257.75,
    "relBeat": 10,
    "duration": 0.25,
    "velocity": 100,
    "pitch": 60
  },
  {
    "clipIndex": 480,
    "trackId": "22",
    "clipName": null,
    "beat": 257.75,
    "relBeat": 9.5,
    "duration": 0.25,
    "velocity": 100,
    "pitch": 60
  },
  {
    "clipIndex": 481,
    "trackId": "22",
    "clipName": null,
    "beat": 257.75,
    "relBeat": 9,
    "duration": 0.25,
    "velocity": 100,
    "pitch": 60
  },
  {
    "clipIndex": 0,
    "trackId": "89",
    "clipName": null,
    "beat": 258,
    "relBeat": 258,
    "duration": 0.25,
    "velocity": 100,
    "pitch": 60
  },
  {
    "clipIndex": 475,
    "trackId": "22",
    "clipName": null,
    "beat": 258,
    "relBeat": 29.5,
    "duration": 0.25,
    "velocity": 100,
    "pitch": 60
  },
  {
    "clipIndex": 476,
    "trackId": "22",
    "clipName": null,
    "beat": 258,
    "relBeat": 25.5,
    "duration": 0.25,
    "velocity": 100,
    "pitch": 60
  },
  {
    "clipIndex": 480,
    "trackId": "22",
    "clipName": null,
    "beat": 258,
    "relBeat": 9.75,
    "duration": 0.25,
    "velocity": 100,
    "pitch": 60
  },
  {
    "clipIndex": 481,
    "trackId": "22",
    "clipName": null,
    "beat": 258,
    "relBeat": 9.25,
    "duration": 0.25,
    "velocity": 100,
    "pitch": 60
  },
  {
    "clipIndex": 475,
    "trackId": "22",
    "clipName": null,
    "beat": 258.25,
    "relBeat": 29.75,
    "duration": 0.25,
    "velocity": 100,
    "pitch": 60
  },
  {
    "clipIndex": 476,
    "trackId": "22",
    "clipName": null,
    "beat": 258.25,
    "relBeat": 25.75,
    "duration": 0.25,
    "velocity": 100,
    "pitch": 60
  },
  {
    "clipIndex": 480,
    "trackId": "22",
    "clipName": null,
    "beat": 258.25,
    "relBeat": 10,
    "duration": 0.25,
    "velocity": 100,
    "pitch": 60
  },
  {
    "clipIndex": 481,
    "trackId": "22",
    "clipName": null,
    "beat": 258.25,
    "relBeat": 9.5,
    "duration": 0.25,
    "velocity": 100,
    "pitch": 60
  },
  {
    "clipIndex": 0,
    "trackId": "89",
    "clipName": null,
    "beat": 258.5,
    "relBeat": 258.5,
    "duration": 0.25,
    "velocity": 100,
    "pitch": 60
  },
  {
    "clipIndex": 475,
    "trackId": "22",
    "clipName": null,
    "beat": 258.5,
    "relBeat": 30,
    "duration": 0.25,
    "velocity": 100,
    "pitch": 60
  },
  {
    "clipIndex": 476,
    "trackId": "22",
    "clipName": null,
    "beat": 258.5,
    "relBeat": 26,
    "duration": 0.25,
    "velocity": 100,
    "pitch": 60
  },
  {
    "clipIndex": 481,
    "trackId": "22",
    "clipName": null,
    "beat": 258.5,
    "relBeat": 9.75,
    "duration": 0.25,
    "velocity": 100,
    "pitch": 60
  },
  {
    "clipIndex": 356,
    "trackId": "67",
    "clipName": null,
    "beat": 258.75,
    "relBeat": 258.75,
    "duration": 0.25000026015651017,
    "velocity": 100,
    "pitch": 72
  },
  {
    "clipIndex": 475,
    "trackId": "22",
    "clipName": null,
    "beat": 258.75,
    "relBeat": 30.25,
    "duration": 0.25,
    "velocity": 100,
    "pitch": 60
  },
  {
    "clipIndex": 476,
    "trackId": "22",
    "clipName": null,
    "beat": 258.75,
    "relBeat": 26.25,
    "duration": 0.25,
    "velocity": 100,
    "pitch": 60
  },
  {
    "clipIndex": 481,
    "trackId": "22",
    "clipName": null,
    "beat": 258.75,
    "relBeat": 10,
    "duration": 0.25,
    "velocity": 100,
    "pitch": 60
  },
  {
    "clipIndex": 475,
    "trackId": "22",
    "clipName": null,
    "beat": 259,
    "relBeat": 30.5,
    "duration": 0.25,
    "velocity": 100,
    "pitch": 60
  },
  {
    "clipIndex": 476,
    "trackId": "22",
    "clipName": null,
    "beat": 259,
    "relBeat": 26.5,
    "duration": 0.25,
    "velocity": 100,
    "pitch": 60
  },
  {
    "clipIndex": 356,
    "trackId": "67",
    "clipName": null,
    "beat": 259.25,
    "relBeat": 259.25,
    "duration": 0.25000026015651017,
    "velocity": 100,
    "pitch": 72
  },
  {
    "clipIndex": 475,
    "trackId": "22",
    "clipName": null,
    "beat": 259.25,
    "relBeat": 30.75,
    "duration": 0.25,
    "velocity": 100,
    "pitch": 60
  },
  {
    "clipIndex": 476,
    "trackId": "22",
    "clipName": null,
    "beat": 259.25,
    "relBeat": 26.75,
    "duration": 0.25,
    "velocity": 100,
    "pitch": 60
  },
  {
    "clipIndex": 478,
    "trackId": "22",
    "clipName": null,
    "beat": 259.25,
    "relBeat": 12,
    "duration": 0.25,
    "velocity": 100,
    "pitch": 60
  },
  {
    "clipIndex": 475,
    "trackId": "22",
    "clipName": null,
    "beat": 259.5,
    "relBeat": 31,
    "duration": 0.25,
    "velocity": 100,
    "pitch": 60
  },
  {
    "clipIndex": 476,
    "trackId": "22",
    "clipName": null,
    "beat": 259.5,
    "relBeat": 27,
    "duration": 0.25,
    "velocity": 100,
    "pitch": 60
  },
  {
    "clipIndex": 478,
    "trackId": "22",
    "clipName": null,
    "beat": 259.5,
    "relBeat": 12.25,
    "duration": 0.25,
    "velocity": 100,
    "pitch": 60
  },
  {
    "clipIndex": 356,
    "trackId": "67",
    "clipName": null,
    "beat": 259.75,
    "relBeat": 259.75,
    "duration": 0.25000026015651017,
    "velocity": 100,
    "pitch": 72
  },
  {
    "clipIndex": 475,
    "trackId": "22",
    "clipName": null,
    "beat": 259.75,
    "relBeat": 31.25,
    "duration": 0.25,
    "velocity": 100,
    "pitch": 60
  },
  {
    "clipIndex": 476,
    "trackId": "22",
    "clipName": null,
    "beat": 259.75,
    "relBeat": 27.25,
    "duration": 0.25,
    "velocity": 100,
    "pitch": 60
  },
  {
    "clipIndex": 478,
    "trackId": "22",
    "clipName": null,
    "beat": 259.75,
    "relBeat": 12.5,
    "duration": 0.25,
    "velocity": 100,
    "pitch": 60
  },
  {
    "clipIndex": 479,
    "trackId": "22",
    "clipName": null,
    "beat": 259.75,
    "relBeat": 12,
    "duration": 0.25,
    "velocity": 100,
    "pitch": 60
  },
  {
    "clipIndex": 475,
    "trackId": "22",
    "clipName": null,
    "beat": 260,
    "relBeat": 31.5,
    "duration": 0.25,
    "velocity": 100,
    "pitch": 60
  },
  {
    "clipIndex": 476,
    "trackId": "22",
    "clipName": null,
    "beat": 260,
    "relBeat": 27.5,
    "duration": 0.25,
    "velocity": 100,
    "pitch": 60
  },
  {
    "clipIndex": 478,
    "trackId": "22",
    "clipName": null,
    "beat": 260,
    "relBeat": 12.75,
    "duration": 0.25,
    "velocity": 100,
    "pitch": 60
  },
  {
    "clipIndex": 479,
    "trackId": "22",
    "clipName": null,
    "beat": 260,
    "relBeat": 12.25,
    "duration": 0.25,
    "velocity": 100,
    "pitch": 60
  },
  {
    "clipIndex": 356,
    "trackId": "67",
    "clipName": null,
    "beat": 260.25,
    "relBeat": 260.25,
    "duration": 0.25000026015651017,
    "velocity": 100,
    "pitch": 72
  },
  {
    "clipIndex": 475,
    "trackId": "22",
    "clipName": null,
    "beat": 260.25,
    "relBeat": 31.75,
    "duration": 0.25,
    "velocity": 100,
    "pitch": 60
  },
  {
    "clipIndex": 476,
    "trackId": "22",
    "clipName": null,
    "beat": 260.25,
    "relBeat": 27.75,
    "duration": 0.25,
    "velocity": 100,
    "pitch": 60
  },
  {
    "clipIndex": 478,
    "trackId": "22",
    "clipName": null,
    "beat": 260.25,
    "relBeat": 13,
    "duration": 0.25,
    "velocity": 100,
    "pitch": 60
  },
  {
    "clipIndex": 479,
    "trackId": "22",
    "clipName": null,
    "beat": 260.25,
    "relBeat": 12.5,
    "duration": 0.25,
    "velocity": 100,
    "pitch": 60
  },
  {
    "clipIndex": 480,
    "trackId": "22",
    "clipName": null,
    "beat": 260.25,
    "relBeat": 12,
    "duration": 0.25,
    "velocity": 100,
    "pitch": 60
  },
  {
    "clipIndex": 476,
    "trackId": "22",
    "clipName": null,
    "beat": 260.5,
    "relBeat": 28,
    "duration": 0.25,
    "velocity": 100,
    "pitch": 60
  },
  {
    "clipIndex": 477,
    "trackId": "22",
    "clipName": null,
    "beat": 260.5,
    "relBeat": 24,
    "duration": 0.25,
    "velocity": 100,
    "pitch": 60
  },
  {
    "clipIndex": 478,
    "trackId": "22",
    "clipName": null,
    "beat": 260.5,
    "relBeat": 13.25,
    "duration": 0.25,
    "velocity": 100,
    "pitch": 60
  },
  {
    "clipIndex": 479,
    "trackId": "22",
    "clipName": null,
    "beat": 260.5,
    "relBeat": 12.75,
    "duration": 0.25,
    "velocity": 100,
    "pitch": 60
  },
  {
    "clipIndex": 480,
    "trackId": "22",
    "clipName": null,
    "beat": 260.5,
    "relBeat": 12.25,
    "duration": 0.25,
    "velocity": 100,
    "pitch": 60
  },
  {
    "clipIndex": 356,
    "trackId": "67",
    "clipName": null,
    "beat": 260.75,
    "relBeat": 260.75,
    "duration": 0.25000026015651017,
    "velocity": 100,
    "pitch": 72
  },
  {
    "clipIndex": 476,
    "trackId": "22",
    "clipName": null,
    "beat": 260.75,
    "relBeat": 28.25,
    "duration": 0.25,
    "velocity": 100,
    "pitch": 60
  },
  {
    "clipIndex": 477,
    "trackId": "22",
    "clipName": null,
    "beat": 260.75,
    "relBeat": 24.25,
    "duration": 0.25,
    "velocity": 100,
    "pitch": 60
  },
  {
    "clipIndex": 478,
    "trackId": "22",
    "clipName": null,
    "beat": 260.75,
    "relBeat": 13.5,
    "duration": 0.25,
    "velocity": 100,
    "pitch": 60
  },
  {
    "clipIndex": 479,
    "trackId": "22",
    "clipName": null,
    "beat": 260.75,
    "relBeat": 13,
    "duration": 0.25,
    "velocity": 100,
    "pitch": 60
  },
  {
    "clipIndex": 480,
    "trackId": "22",
    "clipName": null,
    "beat": 260.75,
    "relBeat": 12.5,
    "duration": 0.25,
    "velocity": 100,
    "pitch": 60
  },
  {
    "clipIndex": 481,
    "trackId": "22",
    "clipName": null,
    "beat": 260.75,
    "relBeat": 12,
    "duration": 0.25,
    "velocity": 100,
    "pitch": 60
  },
  {
    "clipIndex": 476,
    "trackId": "22",
    "clipName": null,
    "beat": 261,
    "relBeat": 28.5,
    "duration": 0.25,
    "velocity": 100,
    "pitch": 60
  },
  {
    "clipIndex": 477,
    "trackId": "22",
    "clipName": null,
    "beat": 261,
    "relBeat": 24.5,
    "duration": 0.25,
    "velocity": 100,
    "pitch": 60
  },
  {
    "clipIndex": 478,
    "trackId": "22",
    "clipName": null,
    "beat": 261,
    "relBeat": 13.75,
    "duration": 0.25,
    "velocity": 100,
    "pitch": 60
  },
  {
    "clipIndex": 479,
    "trackId": "22",
    "clipName": null,
    "beat": 261,
    "relBeat": 13.25,
    "duration": 0.25,
    "velocity": 100,
    "pitch": 60
  },
  {
    "clipIndex": 480,
    "trackId": "22",
    "clipName": null,
    "beat": 261,
    "relBeat": 12.75,
    "duration": 0.25,
    "velocity": 100,
    "pitch": 60
  },
  {
    "clipIndex": 481,
    "trackId": "22",
    "clipName": null,
    "beat": 261,
    "relBeat": 12.25,
    "duration": 0.25,
    "velocity": 100,
    "pitch": 60
  },
  {
    "clipIndex": 356,
    "trackId": "67",
    "clipName": null,
    "beat": 261.25,
    "relBeat": 261.25,
    "duration": 0.25000026015651017,
    "velocity": 100,
    "pitch": 72
  },
  {
    "clipIndex": 476,
    "trackId": "22",
    "clipName": null,
    "beat": 261.25,
    "relBeat": 28.75,
    "duration": 0.25,
    "velocity": 100,
    "pitch": 60
  },
  {
    "clipIndex": 477,
    "trackId": "22",
    "clipName": null,
    "beat": 261.25,
    "relBeat": 24.75,
    "duration": 0.25,
    "velocity": 100,
    "pitch": 60
  },
  {
    "clipIndex": 478,
    "trackId": "22",
    "clipName": null,
    "beat": 261.25,
    "relBeat": 14,
    "duration": 0.25,
    "velocity": 100,
    "pitch": 60
  },
  {
    "clipIndex": 479,
    "trackId": "22",
    "clipName": null,
    "beat": 261.25,
    "relBeat": 13.5,
    "duration": 0.25,
    "velocity": 100,
    "pitch": 60
  },
  {
    "clipIndex": 480,
    "trackId": "22",
    "clipName": null,
    "beat": 261.25,
    "relBeat": 13,
    "duration": 0.25,
    "velocity": 100,
    "pitch": 60
  },
  {
    "clipIndex": 481,
    "trackId": "22",
    "clipName": null,
    "beat": 261.25,
    "relBeat": 12.5,
    "duration": 0.25,
    "velocity": 100,
    "pitch": 60
  },
  {
    "clipIndex": 476,
    "trackId": "22",
    "clipName": null,
    "beat": 261.5,
    "relBeat": 29,
    "duration": 0.25,
    "velocity": 100,
    "pitch": 60
  },
  {
    "clipIndex": 477,
    "trackId": "22",
    "clipName": null,
    "beat": 261.5,
    "relBeat": 25,
    "duration": 0.25,
    "velocity": 100,
    "pitch": 60
  },
  {
    "clipIndex": 478,
    "trackId": "22",
    "clipName": null,
    "beat": 261.5,
    "relBeat": 14.25,
    "duration": 0.25,
    "velocity": 100,
    "pitch": 60
  },
  {
    "clipIndex": 479,
    "trackId": "22",
    "clipName": null,
    "beat": 261.5,
    "relBeat": 13.75,
    "duration": 0.25,
    "velocity": 100,
    "pitch": 60
  },
  {
    "clipIndex": 480,
    "trackId": "22",
    "clipName": null,
    "beat": 261.5,
    "relBeat": 13.25,
    "duration": 0.25,
    "velocity": 100,
    "pitch": 60
  },
  {
    "clipIndex": 481,
    "trackId": "22",
    "clipName": null,
    "beat": 261.5,
    "relBeat": 12.75,
    "duration": 0.25,
    "velocity": 100,
    "pitch": 60
  },
  {
    "clipIndex": 356,
    "trackId": "67",
    "clipName": null,
    "beat": 261.75,
    "relBeat": 261.75,
    "duration": 0.25000026015651017,
    "velocity": 100,
    "pitch": 72
  },
  {
    "clipIndex": 476,
    "trackId": "22",
    "clipName": null,
    "beat": 261.75,
    "relBeat": 29.25,
    "duration": 0.25,
    "velocity": 100,
    "pitch": 60
  },
  {
    "clipIndex": 477,
    "trackId": "22",
    "clipName": null,
    "beat": 261.75,
    "relBeat": 25.25,
    "duration": 0.25,
    "velocity": 100,
    "pitch": 60
  },
  {
    "clipIndex": 478,
    "trackId": "22",
    "clipName": null,
    "beat": 261.75,
    "relBeat": 14.5,
    "duration": 0.25,
    "velocity": 100,
    "pitch": 60
  },
  {
    "clipIndex": 479,
    "trackId": "22",
    "clipName": null,
    "beat": 261.75,
    "relBeat": 14,
    "duration": 0.25,
    "velocity": 100,
    "pitch": 60
  },
  {
    "clipIndex": 480,
    "trackId": "22",
    "clipName": null,
    "beat": 261.75,
    "relBeat": 13.5,
    "duration": 0.25,
    "velocity": 100,
    "pitch": 60
  },
  {
    "clipIndex": 481,
    "trackId": "22",
    "clipName": null,
    "beat": 261.75,
    "relBeat": 13,
    "duration": 0.25,
    "velocity": 100,
    "pitch": 60
  },
  {
    "clipIndex": 476,
    "trackId": "22",
    "clipName": null,
    "beat": 262,
    "relBeat": 29.5,
    "duration": 0.25,
    "velocity": 100,
    "pitch": 60
  },
  {
    "clipIndex": 477,
    "trackId": "22",
    "clipName": null,
    "beat": 262,
    "relBeat": 25.5,
    "duration": 0.25,
    "velocity": 100,
    "pitch": 60
  },
  {
    "clipIndex": 478,
    "trackId": "22",
    "clipName": null,
    "beat": 262,
    "relBeat": 14.75,
    "duration": 0.25,
    "velocity": 100,
    "pitch": 60
  },
  {
    "clipIndex": 479,
    "trackId": "22",
    "clipName": null,
    "beat": 262,
    "relBeat": 14.25,
    "duration": 0.25,
    "velocity": 100,
    "pitch": 60
  },
  {
    "clipIndex": 480,
    "trackId": "22",
    "clipName": null,
    "beat": 262,
    "relBeat": 13.75,
    "duration": 0.25,
    "velocity": 100,
    "pitch": 60
  },
  {
    "clipIndex": 481,
    "trackId": "22",
    "clipName": null,
    "beat": 262,
    "relBeat": 13.25,
    "duration": 0.25,
    "velocity": 100,
    "pitch": 60
  },
  {
    "clipIndex": 356,
    "trackId": "67",
    "clipName": null,
    "beat": 262.25,
    "relBeat": 262.25,
    "duration": 0.25000026015651017,
    "velocity": 100,
    "pitch": 72
  },
  {
    "clipIndex": 476,
    "trackId": "22",
    "clipName": null,
    "beat": 262.25,
    "relBeat": 29.75,
    "duration": 0.25,
    "velocity": 100,
    "pitch": 60
  },
  {
    "clipIndex": 477,
    "trackId": "22",
    "clipName": null,
    "beat": 262.25,
    "relBeat": 25.75,
    "duration": 0.25,
    "velocity": 100,
    "pitch": 60
  },
  {
    "clipIndex": 478,
    "trackId": "22",
    "clipName": null,
    "beat": 262.25,
    "relBeat": 15,
    "duration": 0.25,
    "velocity": 100,
    "pitch": 60
  },
  {
    "clipIndex": 479,
    "trackId": "22",
    "clipName": null,
    "beat": 262.25,
    "relBeat": 14.5,
    "duration": 0.25,
    "velocity": 100,
    "pitch": 60
  },
  {
    "clipIndex": 480,
    "trackId": "22",
    "clipName": null,
    "beat": 262.25,
    "relBeat": 14,
    "duration": 0.25,
    "velocity": 100,
    "pitch": 60
  },
  {
    "clipIndex": 481,
    "trackId": "22",
    "clipName": null,
    "beat": 262.25,
    "relBeat": 13.5,
    "duration": 0.25,
    "velocity": 100,
    "pitch": 60
  },
  {
    "clipIndex": 476,
    "trackId": "22",
    "clipName": null,
    "beat": 262.5,
    "relBeat": 30,
    "duration": 0.25,
    "velocity": 100,
    "pitch": 60
  },
  {
    "clipIndex": 477,
    "trackId": "22",
    "clipName": null,
    "beat": 262.5,
    "relBeat": 26,
    "duration": 0.25,
    "velocity": 100,
    "pitch": 60
  },
  {
    "clipIndex": 478,
    "trackId": "22",
    "clipName": null,
    "beat": 262.5,
    "relBeat": 15.25,
    "duration": 0.25,
    "velocity": 100,
    "pitch": 60
  },
  {
    "clipIndex": 479,
    "trackId": "22",
    "clipName": null,
    "beat": 262.5,
    "relBeat": 14.75,
    "duration": 0.25,
    "velocity": 100,
    "pitch": 60
  },
  {
    "clipIndex": 480,
    "trackId": "22",
    "clipName": null,
    "beat": 262.5,
    "relBeat": 14.25,
    "duration": 0.25,
    "velocity": 100,
    "pitch": 60
  },
  {
    "clipIndex": 481,
    "trackId": "22",
    "clipName": null,
    "beat": 262.5,
    "relBeat": 13.75,
    "duration": 0.25,
    "velocity": 100,
    "pitch": 60
  },
  {
    "clipIndex": 0,
    "trackId": "89",
    "clipName": null,
    "beat": 262.75,
    "relBeat": 262.75,
    "duration": 0.25,
    "velocity": 100,
    "pitch": 60
  },
  {
    "clipIndex": 476,
    "trackId": "22",
    "clipName": null,
    "beat": 262.75,
    "relBeat": 30.25,
    "duration": 0.25,
    "velocity": 100,
    "pitch": 60
  },
  {
    "clipIndex": 477,
    "trackId": "22",
    "clipName": null,
    "beat": 262.75,
    "relBeat": 26.25,
    "duration": 0.25,
    "velocity": 100,
    "pitch": 60
  },
  {
    "clipIndex": 478,
    "trackId": "22",
    "clipName": null,
    "beat": 262.75,
    "relBeat": 15.5,
    "duration": 0.25,
    "velocity": 100,
    "pitch": 60
  },
  {
    "clipIndex": 479,
    "trackId": "22",
    "clipName": null,
    "beat": 262.75,
    "relBeat": 15,
    "duration": 0.25,
    "velocity": 100,
    "pitch": 60
  },
  {
    "clipIndex": 480,
    "trackId": "22",
    "clipName": null,
    "beat": 262.75,
    "relBeat": 14.5,
    "duration": 0.25,
    "velocity": 100,
    "pitch": 60
  },
  {
    "clipIndex": 481,
    "trackId": "22",
    "clipName": null,
    "beat": 262.75,
    "relBeat": 14,
    "duration": 0.25,
    "velocity": 100,
    "pitch": 60
  },
  {
    "clipIndex": 0,
    "trackId": "89",
    "clipName": null,
    "beat": 263,
    "relBeat": 263,
    "duration": 0.25,
    "velocity": 100,
    "pitch": 60
  },
  {
    "clipIndex": 476,
    "trackId": "22",
    "clipName": null,
    "beat": 263,
    "relBeat": 30.5,
    "duration": 0.25,
    "velocity": 100,
    "pitch": 60
  },
  {
    "clipIndex": 477,
    "trackId": "22",
    "clipName": null,
    "beat": 263,
    "relBeat": 26.5,
    "duration": 0.25,
    "velocity": 100,
    "pitch": 60
  },
  {
    "clipIndex": 478,
    "trackId": "22",
    "clipName": null,
    "beat": 263,
    "relBeat": 15.75,
    "duration": 0.25,
    "velocity": 100,
    "pitch": 60
  },
  {
    "clipIndex": 479,
    "trackId": "22",
    "clipName": null,
    "beat": 263,
    "relBeat": 15.25,
    "duration": 0.25,
    "velocity": 100,
    "pitch": 60
  },
  {
    "clipIndex": 480,
    "trackId": "22",
    "clipName": null,
    "beat": 263,
    "relBeat": 14.75,
    "duration": 0.25,
    "velocity": 100,
    "pitch": 60
  },
  {
    "clipIndex": 481,
    "trackId": "22",
    "clipName": null,
    "beat": 263,
    "relBeat": 14.25,
    "duration": 0.25,
    "velocity": 100,
    "pitch": 60
  },
  {
    "clipIndex": 476,
    "trackId": "22",
    "clipName": null,
    "beat": 263.25,
    "relBeat": 30.75,
    "duration": 0.25,
    "velocity": 100,
    "pitch": 60
  },
  {
    "clipIndex": 477,
    "trackId": "22",
    "clipName": null,
    "beat": 263.25,
    "relBeat": 26.75,
    "duration": 0.25,
    "velocity": 100,
    "pitch": 60
  },
  {
    "clipIndex": 478,
    "trackId": "22",
    "clipName": null,
    "beat": 263.25,
    "relBeat": 16,
    "duration": 0.25,
    "velocity": 100,
    "pitch": 60
  },
  {
    "clipIndex": 479,
    "trackId": "22",
    "clipName": null,
    "beat": 263.25,
    "relBeat": 15.5,
    "duration": 0.25,
    "velocity": 100,
    "pitch": 60
  },
  {
    "clipIndex": 480,
    "trackId": "22",
    "clipName": null,
    "beat": 263.25,
    "relBeat": 15,
    "duration": 0.25,
    "velocity": 100,
    "pitch": 60
  },
  {
    "clipIndex": 481,
    "trackId": "22",
    "clipName": null,
    "beat": 263.25,
    "relBeat": 14.5,
    "duration": 0.25,
    "velocity": 100,
    "pitch": 60
  },
  {
    "clipIndex": 476,
    "trackId": "22",
    "clipName": null,
    "beat": 263.5,
    "relBeat": 31,
    "duration": 0.25,
    "velocity": 100,
    "pitch": 60
  },
  {
    "clipIndex": 477,
    "trackId": "22",
    "clipName": null,
    "beat": 263.5,
    "relBeat": 27,
    "duration": 0.25,
    "velocity": 100,
    "pitch": 60
  },
  {
    "clipIndex": 478,
    "trackId": "22",
    "clipName": null,
    "beat": 263.5,
    "relBeat": 16.25,
    "duration": 0.25,
    "velocity": 100,
    "pitch": 60
  },
  {
    "clipIndex": 479,
    "trackId": "22",
    "clipName": null,
    "beat": 263.5,
    "relBeat": 15.75,
    "duration": 0.25,
    "velocity": 100,
    "pitch": 60
  },
  {
    "clipIndex": 480,
    "trackId": "22",
    "clipName": null,
    "beat": 263.5,
    "relBeat": 15.25,
    "duration": 0.25,
    "velocity": 100,
    "pitch": 60
  },
  {
    "clipIndex": 481,
    "trackId": "22",
    "clipName": null,
    "beat": 263.5,
    "relBeat": 14.75,
    "duration": 0.25,
    "velocity": 100,
    "pitch": 60
  },
  {
    "clipIndex": 476,
    "trackId": "22",
    "clipName": null,
    "beat": 263.75,
    "relBeat": 31.25,
    "duration": 0.25,
    "velocity": 100,
    "pitch": 60
  },
  {
    "clipIndex": 477,
    "trackId": "22",
    "clipName": null,
    "beat": 263.75,
    "relBeat": 27.25,
    "duration": 0.25,
    "velocity": 100,
    "pitch": 60
  },
  {
    "clipIndex": 478,
    "trackId": "22",
    "clipName": null,
    "beat": 263.75,
    "relBeat": 16.5,
    "duration": 0.25,
    "velocity": 100,
    "pitch": 60
  },
  {
    "clipIndex": 479,
    "trackId": "22",
    "clipName": null,
    "beat": 263.75,
    "relBeat": 16,
    "duration": 0.25,
    "velocity": 100,
    "pitch": 60
  },
  {
    "clipIndex": 480,
    "trackId": "22",
    "clipName": null,
    "beat": 263.75,
    "relBeat": 15.5,
    "duration": 0.25,
    "velocity": 100,
    "pitch": 60
  },
  {
    "clipIndex": 481,
    "trackId": "22",
    "clipName": null,
    "beat": 263.75,
    "relBeat": 15,
    "duration": 0.25,
    "velocity": 100,
    "pitch": 60
  },
  {
    "clipIndex": 0,
    "trackId": "89",
    "clipName": null,
    "beat": 264,
    "relBeat": 264,
    "duration": 0.25,
    "velocity": 100,
    "pitch": 60
  },
  {
    "clipIndex": 476,
    "trackId": "22",
    "clipName": null,
    "beat": 264,
    "relBeat": 31.5,
    "duration": 0.25,
    "velocity": 100,
    "pitch": 60
  },
  {
    "clipIndex": 477,
    "trackId": "22",
    "clipName": null,
    "beat": 264,
    "relBeat": 27.5,
    "duration": 0.25,
    "velocity": 100,
    "pitch": 60
  },
  {
    "clipIndex": 478,
    "trackId": "22",
    "clipName": null,
    "beat": 264,
    "relBeat": 16.75,
    "duration": 0.25,
    "velocity": 100,
    "pitch": 60
  },
  {
    "clipIndex": 479,
    "trackId": "22",
    "clipName": null,
    "beat": 264,
    "relBeat": 16.25,
    "duration": 0.25,
    "velocity": 100,
    "pitch": 60
  },
  {
    "clipIndex": 480,
    "trackId": "22",
    "clipName": null,
    "beat": 264,
    "relBeat": 15.75,
    "duration": 0.25,
    "velocity": 100,
    "pitch": 60
  },
  {
    "clipIndex": 481,
    "trackId": "22",
    "clipName": null,
    "beat": 264,
    "relBeat": 15.25,
    "duration": 0.25,
    "velocity": 100,
    "pitch": 60
  },
  {
    "clipIndex": 482,
    "trackId": "22",
    "clipName": null,
    "beat": 264,
    "relBeat": 0,
    "duration": 0.25,
    "velocity": 100,
    "pitch": 60
  },
  {
    "clipIndex": 476,
    "trackId": "22",
    "clipName": null,
    "beat": 264.25,
    "relBeat": 31.75,
    "duration": 0.25,
    "velocity": 100,
    "pitch": 60
  },
  {
    "clipIndex": 477,
    "trackId": "22",
    "clipName": null,
    "beat": 264.25,
    "relBeat": 27.75,
    "duration": 0.25,
    "velocity": 100,
    "pitch": 60
  },
  {
    "clipIndex": 478,
    "trackId": "22",
    "clipName": null,
    "beat": 264.25,
    "relBeat": 17,
    "duration": 0.25,
    "velocity": 100,
    "pitch": 60
  },
  {
    "clipIndex": 479,
    "trackId": "22",
    "clipName": null,
    "beat": 264.25,
    "relBeat": 16.5,
    "duration": 0.25,
    "velocity": 100,
    "pitch": 60
  },
  {
    "clipIndex": 480,
    "trackId": "22",
    "clipName": null,
    "beat": 264.25,
    "relBeat": 16,
    "duration": 0.25,
    "velocity": 100,
    "pitch": 60
  },
  {
    "clipIndex": 481,
    "trackId": "22",
    "clipName": null,
    "beat": 264.25,
    "relBeat": 15.5,
    "duration": 0.25,
    "velocity": 100,
    "pitch": 60
  },
  {
    "clipIndex": 482,
    "trackId": "22",
    "clipName": null,
    "beat": 264.25,
    "relBeat": 0.25,
    "duration": 0.25,
    "velocity": 100,
    "pitch": 60
  },
  {
    "clipIndex": 0,
    "trackId": "89",
    "clipName": null,
    "beat": 264.5,
    "relBeat": 264.5,
    "duration": 0.25,
    "velocity": 100,
    "pitch": 60
  },
  {
    "clipIndex": 477,
    "trackId": "22",
    "clipName": null,
    "beat": 264.5,
    "relBeat": 28,
    "duration": 0.25,
    "velocity": 100,
    "pitch": 60
  },
  {
    "clipIndex": 478,
    "trackId": "22",
    "clipName": null,
    "beat": 264.5,
    "relBeat": 17.25,
    "duration": 0.25,
    "velocity": 100,
    "pitch": 60
  },
  {
    "clipIndex": 479,
    "trackId": "22",
    "clipName": null,
    "beat": 264.5,
    "relBeat": 16.75,
    "duration": 0.25,
    "velocity": 100,
    "pitch": 60
  },
  {
    "clipIndex": 480,
    "trackId": "22",
    "clipName": null,
    "beat": 264.5,
    "relBeat": 16.25,
    "duration": 0.25,
    "velocity": 100,
    "pitch": 60
  },
  {
    "clipIndex": 481,
    "trackId": "22",
    "clipName": null,
    "beat": 264.5,
    "relBeat": 15.75,
    "duration": 0.25,
    "velocity": 100,
    "pitch": 60
  },
  {
    "clipIndex": 482,
    "trackId": "22",
    "clipName": null,
    "beat": 264.5,
    "relBeat": 0.5,
    "duration": 0.25,
    "velocity": 100,
    "pitch": 60
  },
  {
    "clipIndex": 477,
    "trackId": "22",
    "clipName": null,
    "beat": 264.75,
    "relBeat": 28.25,
    "duration": 0.25,
    "velocity": 100,
    "pitch": 60
  },
  {
    "clipIndex": 478,
    "trackId": "22",
    "clipName": null,
    "beat": 264.75,
    "relBeat": 17.5,
    "duration": 0.25,
    "velocity": 100,
    "pitch": 60
  },
  {
    "clipIndex": 479,
    "trackId": "22",
    "clipName": null,
    "beat": 264.75,
    "relBeat": 17,
    "duration": 0.25,
    "velocity": 100,
    "pitch": 60
  },
  {
    "clipIndex": 480,
    "trackId": "22",
    "clipName": null,
    "beat": 264.75,
    "relBeat": 16.5,
    "duration": 0.25,
    "velocity": 100,
    "pitch": 60
  },
  {
    "clipIndex": 481,
    "trackId": "22",
    "clipName": null,
    "beat": 264.75,
    "relBeat": 16,
    "duration": 0.25,
    "velocity": 100,
    "pitch": 60
  },
  {
    "clipIndex": 482,
    "trackId": "22",
    "clipName": null,
    "beat": 264.75,
    "relBeat": 0.75,
    "duration": 0.25,
    "velocity": 100,
    "pitch": 60
  },
  {
    "clipIndex": 0,
    "trackId": "89",
    "clipName": null,
    "beat": 265,
    "relBeat": 265,
    "duration": 0.25,
    "velocity": 100,
    "pitch": 60
  },
  {
    "clipIndex": 344,
    "trackId": "55",
    "clipName": null,
    "beat": 265,
    "relBeat": 1,
    "duration": 0.25000026015651017,
    "velocity": 100,
    "pitch": 60
  },
  {
    "clipIndex": 350,
    "trackId": "60",
    "clipName": null,
    "beat": 265,
    "relBeat": 265,
    "duration": 0.25,
    "velocity": 100,
    "pitch": 60
  },
  {
    "clipIndex": 477,
    "trackId": "22",
    "clipName": null,
    "beat": 265,
    "relBeat": 28.5,
    "duration": 0.25,
    "velocity": 100,
    "pitch": 60
  },
  {
    "clipIndex": 478,
    "trackId": "22",
    "clipName": null,
    "beat": 265,
    "relBeat": 17.75,
    "duration": 0.25,
    "velocity": 100,
    "pitch": 60
  },
  {
    "clipIndex": 479,
    "trackId": "22",
    "clipName": null,
    "beat": 265,
    "relBeat": 17.25,
    "duration": 0.25,
    "velocity": 100,
    "pitch": 60
  },
  {
    "clipIndex": 480,
    "trackId": "22",
    "clipName": null,
    "beat": 265,
    "relBeat": 16.75,
    "duration": 0.25,
    "velocity": 100,
    "pitch": 60
  },
  {
    "clipIndex": 481,
    "trackId": "22",
    "clipName": null,
    "beat": 265,
    "relBeat": 16.25,
    "duration": 0.25,
    "velocity": 100,
    "pitch": 60
  },
  {
    "clipIndex": 482,
    "trackId": "22",
    "clipName": null,
    "beat": 265,
    "relBeat": 1,
    "duration": 0.25,
    "velocity": 100,
    "pitch": 60
  },
  {
    "clipIndex": 0,
    "trackId": "89",
    "clipName": null,
    "beat": 265.25,
    "relBeat": 265.25,
    "duration": 0.25,
    "velocity": 100,
    "pitch": 60
  },
  {
    "clipIndex": 477,
    "trackId": "22",
    "clipName": null,
    "beat": 265.25,
    "relBeat": 28.75,
    "duration": 0.25,
    "velocity": 100,
    "pitch": 60
  },
  {
    "clipIndex": 478,
    "trackId": "22",
    "clipName": null,
    "beat": 265.25,
    "relBeat": 18,
    "duration": 0.25,
    "velocity": 100,
    "pitch": 60
  },
  {
    "clipIndex": 479,
    "trackId": "22",
    "clipName": null,
    "beat": 265.25,
    "relBeat": 17.5,
    "duration": 0.25,
    "velocity": 100,
    "pitch": 60
  },
  {
    "clipIndex": 480,
    "trackId": "22",
    "clipName": null,
    "beat": 265.25,
    "relBeat": 17,
    "duration": 0.25,
    "velocity": 100,
    "pitch": 60
  },
  {
    "clipIndex": 481,
    "trackId": "22",
    "clipName": null,
    "beat": 265.25,
    "relBeat": 16.5,
    "duration": 0.25,
    "velocity": 100,
    "pitch": 60
  },
  {
    "clipIndex": 482,
    "trackId": "22",
    "clipName": null,
    "beat": 265.25,
    "relBeat": 1.25,
    "duration": 0.25,
    "velocity": 100,
    "pitch": 60
  },
  {
    "clipIndex": 477,
    "trackId": "22",
    "clipName": null,
    "beat": 265.5,
    "relBeat": 29,
    "duration": 0.25,
    "velocity": 100,
    "pitch": 60
  },
  {
    "clipIndex": 478,
    "trackId": "22",
    "clipName": null,
    "beat": 265.5,
    "relBeat": 18.25,
    "duration": 0.25,
    "velocity": 100,
    "pitch": 60
  },
  {
    "clipIndex": 479,
    "trackId": "22",
    "clipName": null,
    "beat": 265.5,
    "relBeat": 17.75,
    "duration": 0.25,
    "velocity": 100,
    "pitch": 60
  },
  {
    "clipIndex": 480,
    "trackId": "22",
    "clipName": null,
    "beat": 265.5,
    "relBeat": 17.25,
    "duration": 0.25,
    "velocity": 100,
    "pitch": 60
  },
  {
    "clipIndex": 481,
    "trackId": "22",
    "clipName": null,
    "beat": 265.5,
    "relBeat": 16.75,
    "duration": 0.25,
    "velocity": 100,
    "pitch": 60
  },
  {
    "clipIndex": 482,
    "trackId": "22",
    "clipName": null,
    "beat": 265.5,
    "relBeat": 1.5,
    "duration": 0.25,
    "velocity": 100,
    "pitch": 60
  },
  {
    "clipIndex": 477,
    "trackId": "22",
    "clipName": null,
    "beat": 265.75,
    "relBeat": 29.25,
    "duration": 0.25,
    "velocity": 100,
    "pitch": 60
  },
  {
    "clipIndex": 478,
    "trackId": "22",
    "clipName": null,
    "beat": 265.75,
    "relBeat": 18.5,
    "duration": 0.25,
    "velocity": 100,
    "pitch": 60
  },
  {
    "clipIndex": 479,
    "trackId": "22",
    "clipName": null,
    "beat": 265.75,
    "relBeat": 18,
    "duration": 0.25,
    "velocity": 100,
    "pitch": 60
  },
  {
    "clipIndex": 480,
    "trackId": "22",
    "clipName": null,
    "beat": 265.75,
    "relBeat": 17.5,
    "duration": 0.25,
    "velocity": 100,
    "pitch": 60
  },
  {
    "clipIndex": 481,
    "trackId": "22",
    "clipName": null,
    "beat": 265.75,
    "relBeat": 17,
    "duration": 0.25,
    "velocity": 100,
    "pitch": 60
  },
  {
    "clipIndex": 482,
    "trackId": "22",
    "clipName": null,
    "beat": 265.75,
    "relBeat": 1.75,
    "duration": 0.25,
    "velocity": 100,
    "pitch": 60
  },
  {
    "clipIndex": 0,
    "trackId": "89",
    "clipName": null,
    "beat": 266,
    "relBeat": 266,
    "duration": 0.25,
    "velocity": 100,
    "pitch": 60
  },
  {
    "clipIndex": 477,
    "trackId": "22",
    "clipName": null,
    "beat": 266,
    "relBeat": 29.5,
    "duration": 0.25,
    "velocity": 100,
    "pitch": 60
  },
  {
    "clipIndex": 478,
    "trackId": "22",
    "clipName": null,
    "beat": 266,
    "relBeat": 18.75,
    "duration": 0.25,
    "velocity": 100,
    "pitch": 60
  },
  {
    "clipIndex": 479,
    "trackId": "22",
    "clipName": null,
    "beat": 266,
    "relBeat": 18.25,
    "duration": 0.25,
    "velocity": 100,
    "pitch": 60
  },
  {
    "clipIndex": 480,
    "trackId": "22",
    "clipName": null,
    "beat": 266,
    "relBeat": 17.75,
    "duration": 0.25,
    "velocity": 100,
    "pitch": 60
  },
  {
    "clipIndex": 481,
    "trackId": "22",
    "clipName": null,
    "beat": 266,
    "relBeat": 17.25,
    "duration": 0.25,
    "velocity": 100,
    "pitch": 60
  },
  {
    "clipIndex": 482,
    "trackId": "22",
    "clipName": null,
    "beat": 266,
    "relBeat": 2,
    "duration": 0.25,
    "velocity": 100,
    "pitch": 60
  },
  {
    "clipIndex": 477,
    "trackId": "22",
    "clipName": null,
    "beat": 266.25,
    "relBeat": 29.75,
    "duration": 0.25,
    "velocity": 100,
    "pitch": 60
  },
  {
    "clipIndex": 478,
    "trackId": "22",
    "clipName": null,
    "beat": 266.25,
    "relBeat": 19,
    "duration": 0.25,
    "velocity": 100,
    "pitch": 60
  },
  {
    "clipIndex": 479,
    "trackId": "22",
    "clipName": null,
    "beat": 266.25,
    "relBeat": 18.5,
    "duration": 0.25,
    "velocity": 100,
    "pitch": 60
  },
  {
    "clipIndex": 480,
    "trackId": "22",
    "clipName": null,
    "beat": 266.25,
    "relBeat": 18,
    "duration": 0.25,
    "velocity": 100,
    "pitch": 60
  },
  {
    "clipIndex": 481,
    "trackId": "22",
    "clipName": null,
    "beat": 266.25,
    "relBeat": 17.5,
    "duration": 0.25,
    "velocity": 100,
    "pitch": 60
  },
  {
    "clipIndex": 482,
    "trackId": "22",
    "clipName": null,
    "beat": 266.25,
    "relBeat": 2.25,
    "duration": 0.25,
    "velocity": 100,
    "pitch": 60
  },
  {
    "clipIndex": 477,
    "trackId": "22",
    "clipName": null,
    "beat": 266.5,
    "relBeat": 30,
    "duration": 0.25,
    "velocity": 100,
    "pitch": 60
  },
  {
    "clipIndex": 478,
    "trackId": "22",
    "clipName": null,
    "beat": 266.5,
    "relBeat": 19.25,
    "duration": 0.25,
    "velocity": 100,
    "pitch": 60
  },
  {
    "clipIndex": 479,
    "trackId": "22",
    "clipName": null,
    "beat": 266.5,
    "relBeat": 18.75,
    "duration": 0.25,
    "velocity": 100,
    "pitch": 60
  },
  {
    "clipIndex": 480,
    "trackId": "22",
    "clipName": null,
    "beat": 266.5,
    "relBeat": 18.25,
    "duration": 0.25,
    "velocity": 100,
    "pitch": 60
  },
  {
    "clipIndex": 481,
    "trackId": "22",
    "clipName": null,
    "beat": 266.5,
    "relBeat": 17.75,
    "duration": 0.25,
    "velocity": 100,
    "pitch": 60
  },
  {
    "clipIndex": 482,
    "trackId": "22",
    "clipName": null,
    "beat": 266.5,
    "relBeat": 2.5,
    "duration": 0.25,
    "velocity": 100,
    "pitch": 60
  },
  {
    "clipIndex": 477,
    "trackId": "22",
    "clipName": null,
    "beat": 266.75,
    "relBeat": 30.25,
    "duration": 0.25,
    "velocity": 100,
    "pitch": 60
  },
  {
    "clipIndex": 478,
    "trackId": "22",
    "clipName": null,
    "beat": 266.75,
    "relBeat": 19.5,
    "duration": 0.25,
    "velocity": 100,
    "pitch": 60
  },
  {
    "clipIndex": 479,
    "trackId": "22",
    "clipName": null,
    "beat": 266.75,
    "relBeat": 19,
    "duration": 0.25,
    "velocity": 100,
    "pitch": 60
  },
  {
    "clipIndex": 480,
    "trackId": "22",
    "clipName": null,
    "beat": 266.75,
    "relBeat": 18.5,
    "duration": 0.25,
    "velocity": 100,
    "pitch": 60
  },
  {
    "clipIndex": 481,
    "trackId": "22",
    "clipName": null,
    "beat": 266.75,
    "relBeat": 18,
    "duration": 0.25,
    "velocity": 100,
    "pitch": 60
  },
  {
    "clipIndex": 482,
    "trackId": "22",
    "clipName": null,
    "beat": 266.75,
    "relBeat": 2.75,
    "duration": 0.25,
    "velocity": 100,
    "pitch": 60
  },
  {
    "clipIndex": 0,
    "trackId": "89",
    "clipName": null,
    "beat": 267,
    "relBeat": 267,
    "duration": 0.25,
    "velocity": 100,
    "pitch": 60
  },
  {
    "clipIndex": 344,
    "trackId": "55",
    "clipName": null,
    "beat": 267,
    "relBeat": 3,
    "duration": 0.25000026015651017,
    "velocity": 100,
    "pitch": 60
  },
  {
    "clipIndex": 350,
    "trackId": "60",
    "clipName": null,
    "beat": 267,
    "relBeat": 267,
    "duration": 0.25,
    "velocity": 100,
    "pitch": 60
  },
  {
    "clipIndex": 477,
    "trackId": "22",
    "clipName": null,
    "beat": 267,
    "relBeat": 30.5,
    "duration": 0.25,
    "velocity": 100,
    "pitch": 60
  },
  {
    "clipIndex": 478,
    "trackId": "22",
    "clipName": null,
    "beat": 267,
    "relBeat": 19.75,
    "duration": 0.25,
    "velocity": 100,
    "pitch": 60
  },
  {
    "clipIndex": 479,
    "trackId": "22",
    "clipName": null,
    "beat": 267,
    "relBeat": 19.25,
    "duration": 0.25,
    "velocity": 100,
    "pitch": 60
  },
  {
    "clipIndex": 480,
    "trackId": "22",
    "clipName": null,
    "beat": 267,
    "relBeat": 18.75,
    "duration": 0.25,
    "velocity": 100,
    "pitch": 60
  },
  {
    "clipIndex": 481,
    "trackId": "22",
    "clipName": null,
    "beat": 267,
    "relBeat": 18.25,
    "duration": 0.25,
    "velocity": 100,
    "pitch": 60
  },
  {
    "clipIndex": 482,
    "trackId": "22",
    "clipName": null,
    "beat": 267,
    "relBeat": 3,
    "duration": 0.25,
    "velocity": 100,
    "pitch": 60
  },
  {
    "clipIndex": 477,
    "trackId": "22",
    "clipName": null,
    "beat": 267.25,
    "relBeat": 30.75,
    "duration": 0.25,
    "velocity": 100,
    "pitch": 60
  },
  {
    "clipIndex": 478,
    "trackId": "22",
    "clipName": null,
    "beat": 267.25,
    "relBeat": 20,
    "duration": 0.25,
    "velocity": 100,
    "pitch": 60
  },
  {
    "clipIndex": 479,
    "trackId": "22",
    "clipName": null,
    "beat": 267.25,
    "relBeat": 19.5,
    "duration": 0.25,
    "velocity": 100,
    "pitch": 60
  },
  {
    "clipIndex": 480,
    "trackId": "22",
    "clipName": null,
    "beat": 267.25,
    "relBeat": 19,
    "duration": 0.25,
    "velocity": 100,
    "pitch": 60
  },
  {
    "clipIndex": 481,
    "trackId": "22",
    "clipName": null,
    "beat": 267.25,
    "relBeat": 18.5,
    "duration": 0.25,
    "velocity": 100,
    "pitch": 60
  },
  {
    "clipIndex": 482,
    "trackId": "22",
    "clipName": null,
    "beat": 267.25,
    "relBeat": 3.25,
    "duration": 0.25,
    "velocity": 100,
    "pitch": 60
  },
  {
    "clipIndex": 477,
    "trackId": "22",
    "clipName": null,
    "beat": 267.5,
    "relBeat": 31,
    "duration": 0.25,
    "velocity": 100,
    "pitch": 60
  },
  {
    "clipIndex": 478,
    "trackId": "22",
    "clipName": null,
    "beat": 267.5,
    "relBeat": 20.25,
    "duration": 0.25,
    "velocity": 100,
    "pitch": 60
  },
  {
    "clipIndex": 479,
    "trackId": "22",
    "clipName": null,
    "beat": 267.5,
    "relBeat": 19.75,
    "duration": 0.25,
    "velocity": 100,
    "pitch": 60
  },
  {
    "clipIndex": 480,
    "trackId": "22",
    "clipName": null,
    "beat": 267.5,
    "relBeat": 19.25,
    "duration": 0.25,
    "velocity": 100,
    "pitch": 60
  },
  {
    "clipIndex": 481,
    "trackId": "22",
    "clipName": null,
    "beat": 267.5,
    "relBeat": 18.75,
    "duration": 0.25,
    "velocity": 100,
    "pitch": 60
  },
  {
    "clipIndex": 482,
    "trackId": "22",
    "clipName": null,
    "beat": 267.5,
    "relBeat": 3.5,
    "duration": 0.25,
    "velocity": 100,
    "pitch": 60
  },
  {
    "clipIndex": 477,
    "trackId": "22",
    "clipName": null,
    "beat": 267.75,
    "relBeat": 31.25,
    "duration": 0.25,
    "velocity": 100,
    "pitch": 60
  },
  {
    "clipIndex": 478,
    "trackId": "22",
    "clipName": null,
    "beat": 267.75,
    "relBeat": 20.5,
    "duration": 0.25,
    "velocity": 100,
    "pitch": 60
  },
  {
    "clipIndex": 479,
    "trackId": "22",
    "clipName": null,
    "beat": 267.75,
    "relBeat": 20,
    "duration": 0.25,
    "velocity": 100,
    "pitch": 60
  },
  {
    "clipIndex": 480,
    "trackId": "22",
    "clipName": null,
    "beat": 267.75,
    "relBeat": 19.5,
    "duration": 0.25,
    "velocity": 100,
    "pitch": 60
  },
  {
    "clipIndex": 481,
    "trackId": "22",
    "clipName": null,
    "beat": 267.75,
    "relBeat": 19,
    "duration": 0.25,
    "velocity": 100,
    "pitch": 60
  },
  {
    "clipIndex": 482,
    "trackId": "22",
    "clipName": null,
    "beat": 267.75,
    "relBeat": 3.75,
    "duration": 0.25,
    "velocity": 100,
    "pitch": 60
  },
  {
    "clipIndex": 0,
    "trackId": "89",
    "clipName": null,
    "beat": 268,
    "relBeat": 268,
    "duration": 0.25,
    "velocity": 100,
    "pitch": 60
  },
  {
    "clipIndex": 477,
    "trackId": "22",
    "clipName": null,
    "beat": 268,
    "relBeat": 31.5,
    "duration": 0.25,
    "velocity": 100,
    "pitch": 60
  },
  {
    "clipIndex": 478,
    "trackId": "22",
    "clipName": null,
    "beat": 268,
    "relBeat": 20.75,
    "duration": 0.25,
    "velocity": 100,
    "pitch": 60
  },
  {
    "clipIndex": 479,
    "trackId": "22",
    "clipName": null,
    "beat": 268,
    "relBeat": 20.25,
    "duration": 0.25,
    "velocity": 100,
    "pitch": 60
  },
  {
    "clipIndex": 480,
    "trackId": "22",
    "clipName": null,
    "beat": 268,
    "relBeat": 19.75,
    "duration": 0.25,
    "velocity": 100,
    "pitch": 60
  },
  {
    "clipIndex": 481,
    "trackId": "22",
    "clipName": null,
    "beat": 268,
    "relBeat": 19.25,
    "duration": 0.25,
    "velocity": 100,
    "pitch": 60
  },
  {
    "clipIndex": 482,
    "trackId": "22",
    "clipName": null,
    "beat": 268,
    "relBeat": 4,
    "duration": 0.25,
    "velocity": 100,
    "pitch": 60
  },
  {
    "clipIndex": 0,
    "trackId": "89",
    "clipName": null,
    "beat": 268.25,
    "relBeat": 268.25,
    "duration": 0.25,
    "velocity": 100,
    "pitch": 60
  },
  {
    "clipIndex": 477,
    "trackId": "22",
    "clipName": null,
    "beat": 268.25,
    "relBeat": 31.75,
    "duration": 0.25,
    "velocity": 100,
    "pitch": 60
  },
  {
    "clipIndex": 478,
    "trackId": "22",
    "clipName": null,
    "beat": 268.25,
    "relBeat": 21,
    "duration": 0.25,
    "velocity": 100,
    "pitch": 60
  },
  {
    "clipIndex": 479,
    "trackId": "22",
    "clipName": null,
    "beat": 268.25,
    "relBeat": 20.5,
    "duration": 0.25,
    "velocity": 100,
    "pitch": 60
  },
  {
    "clipIndex": 480,
    "trackId": "22",
    "clipName": null,
    "beat": 268.25,
    "relBeat": 20,
    "duration": 0.25,
    "velocity": 100,
    "pitch": 60
  },
  {
    "clipIndex": 481,
    "trackId": "22",
    "clipName": null,
    "beat": 268.25,
    "relBeat": 19.5,
    "duration": 0.25,
    "velocity": 100,
    "pitch": 60
  },
  {
    "clipIndex": 482,
    "trackId": "22",
    "clipName": null,
    "beat": 268.25,
    "relBeat": 4.25,
    "duration": 0.25,
    "velocity": 100,
    "pitch": 60
  },
  {
    "clipIndex": 0,
    "trackId": "89",
    "clipName": null,
    "beat": 268.5,
    "relBeat": 268.5,
    "duration": 0.25,
    "velocity": 100,
    "pitch": 60
  },
  {
    "clipIndex": 478,
    "trackId": "22",
    "clipName": null,
    "beat": 268.5,
    "relBeat": 21.25,
    "duration": 0.25,
    "velocity": 100,
    "pitch": 60
  },
  {
    "clipIndex": 479,
    "trackId": "22",
    "clipName": null,
    "beat": 268.5,
    "relBeat": 20.75,
    "duration": 0.25,
    "velocity": 100,
    "pitch": 60
  },
  {
    "clipIndex": 480,
    "trackId": "22",
    "clipName": null,
    "beat": 268.5,
    "relBeat": 20.25,
    "duration": 0.25,
    "velocity": 100,
    "pitch": 60
  },
  {
    "clipIndex": 481,
    "trackId": "22",
    "clipName": null,
    "beat": 268.5,
    "relBeat": 19.75,
    "duration": 0.25,
    "velocity": 100,
    "pitch": 60
  },
  {
    "clipIndex": 482,
    "trackId": "22",
    "clipName": null,
    "beat": 268.5,
    "relBeat": 4.5,
    "duration": 0.25,
    "velocity": 100,
    "pitch": 60
  },
  {
    "clipIndex": 0,
    "trackId": "89",
    "clipName": null,
    "beat": 268.75,
    "relBeat": 268.75,
    "duration": 0.25,
    "velocity": 100,
    "pitch": 60
  },
  {
    "clipIndex": 479,
    "trackId": "22",
    "clipName": null,
    "beat": 268.75,
    "relBeat": 21,
    "duration": 0.25,
    "velocity": 100,
    "pitch": 60
  },
  {
    "clipIndex": 480,
    "trackId": "22",
    "clipName": null,
    "beat": 268.75,
    "relBeat": 20.5,
    "duration": 0.25,
    "velocity": 100,
    "pitch": 60
  },
  {
    "clipIndex": 481,
    "trackId": "22",
    "clipName": null,
    "beat": 268.75,
    "relBeat": 20,
    "duration": 0.25,
    "velocity": 100,
    "pitch": 60
  },
  {
    "clipIndex": 482,
    "trackId": "22",
    "clipName": null,
    "beat": 268.75,
    "relBeat": 4.75,
    "duration": 0.25,
    "velocity": 100,
    "pitch": 60
  },
  {
    "clipIndex": 0,
    "trackId": "89",
    "clipName": null,
    "beat": 269,
    "relBeat": 269,
    "duration": 0.25,
    "velocity": 100,
    "pitch": 60
  },
  {
    "clipIndex": 344,
    "trackId": "55",
    "clipName": null,
    "beat": 269,
    "relBeat": 5,
    "duration": 0.25000026015651017,
    "velocity": 100,
    "pitch": 60
  },
  {
    "clipIndex": 350,
    "trackId": "60",
    "clipName": null,
    "beat": 269,
    "relBeat": 269,
    "duration": 0.25,
    "velocity": 100,
    "pitch": 60
  },
  {
    "clipIndex": 479,
    "trackId": "22",
    "clipName": null,
    "beat": 269,
    "relBeat": 21.25,
    "duration": 0.25,
    "velocity": 100,
    "pitch": 60
  },
  {
    "clipIndex": 480,
    "trackId": "22",
    "clipName": null,
    "beat": 269,
    "relBeat": 20.75,
    "duration": 0.25,
    "velocity": 100,
    "pitch": 60
  },
  {
    "clipIndex": 481,
    "trackId": "22",
    "clipName": null,
    "beat": 269,
    "relBeat": 20.25,
    "duration": 0.25,
    "velocity": 100,
    "pitch": 60
  },
  {
    "clipIndex": 482,
    "trackId": "22",
    "clipName": null,
    "beat": 269,
    "relBeat": 5,
    "duration": 0.25,
    "velocity": 100,
    "pitch": 60
  },
  {
    "clipIndex": 483,
    "trackId": "22",
    "clipName": null,
    "beat": 269,
    "relBeat": 0,
    "duration": 0.25,
    "velocity": 100,
    "pitch": 60
  },
  {
    "clipIndex": 0,
    "trackId": "89",
    "clipName": null,
    "beat": 269.25,
    "relBeat": 269.25,
    "duration": 0.25,
    "velocity": 100,
    "pitch": 60
  },
  {
    "clipIndex": 480,
    "trackId": "22",
    "clipName": null,
    "beat": 269.25,
    "relBeat": 21,
    "duration": 0.25,
    "velocity": 100,
    "pitch": 60
  },
  {
    "clipIndex": 481,
    "trackId": "22",
    "clipName": null,
    "beat": 269.25,
    "relBeat": 20.5,
    "duration": 0.25,
    "velocity": 100,
    "pitch": 60
  },
  {
    "clipIndex": 482,
    "trackId": "22",
    "clipName": null,
    "beat": 269.25,
    "relBeat": 5.25,
    "duration": 0.25,
    "velocity": 100,
    "pitch": 60
  },
  {
    "clipIndex": 483,
    "trackId": "22",
    "clipName": null,
    "beat": 269.25,
    "relBeat": 0.25,
    "duration": 0.25,
    "velocity": 100,
    "pitch": 60
  },
  {
    "clipIndex": 480,
    "trackId": "22",
    "clipName": null,
    "beat": 269.5,
    "relBeat": 21.25,
    "duration": 0.25,
    "velocity": 100,
    "pitch": 60
  },
  {
    "clipIndex": 481,
    "trackId": "22",
    "clipName": null,
    "beat": 269.5,
    "relBeat": 20.75,
    "duration": 0.25,
    "velocity": 100,
    "pitch": 60
  },
  {
    "clipIndex": 482,
    "trackId": "22",
    "clipName": null,
    "beat": 269.5,
    "relBeat": 5.5,
    "duration": 0.25,
    "velocity": 100,
    "pitch": 60
  },
  {
    "clipIndex": 483,
    "trackId": "22",
    "clipName": null,
    "beat": 269.5,
    "relBeat": 0.5,
    "duration": 0.25,
    "velocity": 100,
    "pitch": 60
  },
  {
    "clipIndex": 0,
    "trackId": "89",
    "clipName": null,
    "beat": 269.75,
    "relBeat": 269.75,
    "duration": 0.25,
    "velocity": 100,
    "pitch": 60
  },
  {
    "clipIndex": 481,
    "trackId": "22",
    "clipName": null,
    "beat": 269.75,
    "relBeat": 21,
    "duration": 0.25,
    "velocity": 100,
    "pitch": 60
  },
  {
    "clipIndex": 482,
    "trackId": "22",
    "clipName": null,
    "beat": 269.75,
    "relBeat": 5.75,
    "duration": 0.25,
    "velocity": 100,
    "pitch": 60
  },
  {
    "clipIndex": 483,
    "trackId": "22",
    "clipName": null,
    "beat": 269.75,
    "relBeat": 0.75,
    "duration": 0.25,
    "velocity": 100,
    "pitch": 60
  },
  {
    "clipIndex": 481,
    "trackId": "22",
    "clipName": null,
    "beat": 270,
    "relBeat": 21.25,
    "duration": 0.25,
    "velocity": 100,
    "pitch": 60
  },
  {
    "clipIndex": 483,
    "trackId": "22",
    "clipName": null,
    "beat": 270,
    "relBeat": 1,
    "duration": 0.25,
    "velocity": 100,
    "pitch": 60
  },
  {
    "clipIndex": 483,
    "trackId": "22",
    "clipName": null,
    "beat": 270.25,
    "relBeat": 1.25,
    "duration": 0.25,
    "velocity": 100,
    "pitch": 60
  },
  {
    "clipIndex": 483,
    "trackId": "22",
    "clipName": null,
    "beat": 270.5,
    "relBeat": 1.5,
    "duration": 0.25,
    "velocity": 100,
    "pitch": 60
  },
  {
    "clipIndex": 0,
    "trackId": "89",
    "clipName": null,
    "beat": 270.75,
    "relBeat": 270.75,
    "duration": 0.25,
    "velocity": 100,
    "pitch": 60
  },
  {
    "clipIndex": 483,
    "trackId": "22",
    "clipName": null,
    "beat": 270.75,
    "relBeat": 1.75,
    "duration": 0.25,
    "velocity": 100,
    "pitch": 60
  },
  {
    "clipIndex": 344,
    "trackId": "55",
    "clipName": null,
    "beat": 271,
    "relBeat": 7,
    "duration": 0.25000026015651017,
    "velocity": 100,
    "pitch": 60
  },
  {
    "clipIndex": 350,
    "trackId": "60",
    "clipName": null,
    "beat": 271,
    "relBeat": 271,
    "duration": 0.25,
    "velocity": 100,
    "pitch": 60
  },
  {
    "clipIndex": 483,
    "trackId": "22",
    "clipName": null,
    "beat": 271,
    "relBeat": 2,
    "duration": 0.25,
    "velocity": 100,
    "pitch": 60
  },
  {
    "clipIndex": 478,
    "trackId": "22",
    "clipName": null,
    "beat": 271.25,
    "relBeat": 24,
    "duration": 0.25,
    "velocity": 100,
    "pitch": 60
  },
  {
    "clipIndex": 483,
    "trackId": "22",
    "clipName": null,
    "beat": 271.25,
    "relBeat": 2.25,
    "duration": 0.25,
    "velocity": 100,
    "pitch": 60
  },
  {
    "clipIndex": 478,
    "trackId": "22",
    "clipName": null,
    "beat": 271.5,
    "relBeat": 24.25,
    "duration": 0.25,
    "velocity": 100,
    "pitch": 60
  },
  {
    "clipIndex": 483,
    "trackId": "22",
    "clipName": null,
    "beat": 271.5,
    "relBeat": 2.5,
    "duration": 0.25,
    "velocity": 100,
    "pitch": 60
  },
  {
    "clipIndex": 478,
    "trackId": "22",
    "clipName": null,
    "beat": 271.75,
    "relBeat": 24.5,
    "duration": 0.25,
    "velocity": 100,
    "pitch": 60
  },
  {
    "clipIndex": 479,
    "trackId": "22",
    "clipName": null,
    "beat": 271.75,
    "relBeat": 24,
    "duration": 0.25,
    "velocity": 100,
    "pitch": 60
  },
  {
    "clipIndex": 483,
    "trackId": "22",
    "clipName": null,
    "beat": 271.75,
    "relBeat": 2.75,
    "duration": 0.25,
    "velocity": 100,
    "pitch": 60
  },
  {
    "clipIndex": 478,
    "trackId": "22",
    "clipName": null,
    "beat": 272,
    "relBeat": 24.75,
    "duration": 0.25,
    "velocity": 100,
    "pitch": 60
  },
  {
    "clipIndex": 479,
    "trackId": "22",
    "clipName": null,
    "beat": 272,
    "relBeat": 24.25,
    "duration": 0.25,
    "velocity": 100,
    "pitch": 60
  },
  {
    "clipIndex": 483,
    "trackId": "22",
    "clipName": null,
    "beat": 272,
    "relBeat": 3,
    "duration": 0.25,
    "velocity": 100,
    "pitch": 60
  },
  {
    "clipIndex": 484,
    "trackId": "22",
    "clipName": null,
    "beat": 272,
    "relBeat": 0,
    "duration": 0.25,
    "velocity": 100,
    "pitch": 60
  },
  {
    "clipIndex": 478,
    "trackId": "22",
    "clipName": null,
    "beat": 272.25,
    "relBeat": 25,
    "duration": 0.25,
    "velocity": 100,
    "pitch": 60
  },
  {
    "clipIndex": 479,
    "trackId": "22",
    "clipName": null,
    "beat": 272.25,
    "relBeat": 24.5,
    "duration": 0.25,
    "velocity": 100,
    "pitch": 60
  },
  {
    "clipIndex": 480,
    "trackId": "22",
    "clipName": null,
    "beat": 272.25,
    "relBeat": 24,
    "duration": 0.25,
    "velocity": 100,
    "pitch": 60
  },
  {
    "clipIndex": 483,
    "trackId": "22",
    "clipName": null,
    "beat": 272.25,
    "relBeat": 3.25,
    "duration": 0.25,
    "velocity": 100,
    "pitch": 60
  },
  {
    "clipIndex": 484,
    "trackId": "22",
    "clipName": null,
    "beat": 272.25,
    "relBeat": 0.25,
    "duration": 0.25,
    "velocity": 100,
    "pitch": 60
  },
  {
    "clipIndex": 478,
    "trackId": "22",
    "clipName": null,
    "beat": 272.5,
    "relBeat": 25.25,
    "duration": 0.25,
    "velocity": 100,
    "pitch": 60
  },
  {
    "clipIndex": 479,
    "trackId": "22",
    "clipName": null,
    "beat": 272.5,
    "relBeat": 24.75,
    "duration": 0.25,
    "velocity": 100,
    "pitch": 60
  },
  {
    "clipIndex": 480,
    "trackId": "22",
    "clipName": null,
    "beat": 272.5,
    "relBeat": 24.25,
    "duration": 0.25,
    "velocity": 100,
    "pitch": 60
  },
  {
    "clipIndex": 483,
    "trackId": "22",
    "clipName": null,
    "beat": 272.5,
    "relBeat": 3.5,
    "duration": 0.25,
    "velocity": 100,
    "pitch": 60
  },
  {
    "clipIndex": 484,
    "trackId": "22",
    "clipName": null,
    "beat": 272.5,
    "relBeat": 0.5,
    "duration": 0.25,
    "velocity": 100,
    "pitch": 60
  },
  {
    "clipIndex": 478,
    "trackId": "22",
    "clipName": null,
    "beat": 272.75,
    "relBeat": 25.5,
    "duration": 0.25,
    "velocity": 100,
    "pitch": 60
  },
  {
    "clipIndex": 479,
    "trackId": "22",
    "clipName": null,
    "beat": 272.75,
    "relBeat": 25,
    "duration": 0.25,
    "velocity": 100,
    "pitch": 60
  },
  {
    "clipIndex": 480,
    "trackId": "22",
    "clipName": null,
    "beat": 272.75,
    "relBeat": 24.5,
    "duration": 0.25,
    "velocity": 100,
    "pitch": 60
  },
  {
    "clipIndex": 481,
    "trackId": "22",
    "clipName": null,
    "beat": 272.75,
    "relBeat": 24,
    "duration": 0.25,
    "velocity": 100,
    "pitch": 60
  },
  {
    "clipIndex": 483,
    "trackId": "22",
    "clipName": null,
    "beat": 272.75,
    "relBeat": 3.75,
    "duration": 0.25,
    "velocity": 100,
    "pitch": 60
  },
  {
    "clipIndex": 484,
    "trackId": "22",
    "clipName": null,
    "beat": 272.75,
    "relBeat": 0.75,
    "duration": 0.25,
    "velocity": 100,
    "pitch": 60
  },
  {
    "clipIndex": 344,
    "trackId": "55",
    "clipName": null,
    "beat": 273,
    "relBeat": 9,
    "duration": 0.25000026015651017,
    "velocity": 100,
    "pitch": 60
  },
  {
    "clipIndex": 478,
    "trackId": "22",
    "clipName": null,
    "beat": 273,
    "relBeat": 25.75,
    "duration": 0.25,
    "velocity": 100,
    "pitch": 60
  },
  {
    "clipIndex": 479,
    "trackId": "22",
    "clipName": null,
    "beat": 273,
    "relBeat": 25.25,
    "duration": 0.25,
    "velocity": 100,
    "pitch": 60
  },
  {
    "clipIndex": 480,
    "trackId": "22",
    "clipName": null,
    "beat": 273,
    "relBeat": 24.75,
    "duration": 0.25,
    "velocity": 100,
    "pitch": 60
  },
  {
    "clipIndex": 481,
    "trackId": "22",
    "clipName": null,
    "beat": 273,
    "relBeat": 24.25,
    "duration": 0.25,
    "velocity": 100,
    "pitch": 60
  },
  {
    "clipIndex": 482,
    "trackId": "22",
    "clipName": null,
    "beat": 273,
    "relBeat": 9,
    "duration": 0.25,
    "velocity": 100,
    "pitch": 60
  },
  {
    "clipIndex": 483,
    "trackId": "22",
    "clipName": null,
    "beat": 273,
    "relBeat": 4,
    "duration": 0.25,
    "velocity": 100,
    "pitch": 60
  },
  {
    "clipIndex": 484,
    "trackId": "22",
    "clipName": null,
    "beat": 273,
    "relBeat": 1,
    "duration": 0.25,
    "velocity": 100,
    "pitch": 60
  },
  {
    "clipIndex": 356,
    "trackId": "67",
    "clipName": null,
    "beat": 273.25,
    "relBeat": 273.25,
    "duration": 0.25000026015651017,
    "velocity": 100,
    "pitch": 72
  },
  {
    "clipIndex": 478,
    "trackId": "22",
    "clipName": null,
    "beat": 273.25,
    "relBeat": 26,
    "duration": 0.25,
    "velocity": 100,
    "pitch": 60
  },
  {
    "clipIndex": 479,
    "trackId": "22",
    "clipName": null,
    "beat": 273.25,
    "relBeat": 25.5,
    "duration": 0.25,
    "velocity": 100,
    "pitch": 60
  },
  {
    "clipIndex": 480,
    "trackId": "22",
    "clipName": null,
    "beat": 273.25,
    "relBeat": 25,
    "duration": 0.25,
    "velocity": 100,
    "pitch": 60
  },
  {
    "clipIndex": 481,
    "trackId": "22",
    "clipName": null,
    "beat": 273.25,
    "relBeat": 24.5,
    "duration": 0.25,
    "velocity": 100,
    "pitch": 60
  },
  {
    "clipIndex": 482,
    "trackId": "22",
    "clipName": null,
    "beat": 273.25,
    "relBeat": 9.25,
    "duration": 0.25,
    "velocity": 100,
    "pitch": 60
  },
  {
    "clipIndex": 483,
    "trackId": "22",
    "clipName": null,
    "beat": 273.25,
    "relBeat": 4.25,
    "duration": 0.25,
    "velocity": 100,
    "pitch": 60
  },
  {
    "clipIndex": 484,
    "trackId": "22",
    "clipName": null,
    "beat": 273.25,
    "relBeat": 1.25,
    "duration": 0.25,
    "velocity": 100,
    "pitch": 60
  },
  {
    "clipIndex": 478,
    "trackId": "22",
    "clipName": null,
    "beat": 273.5,
    "relBeat": 26.25,
    "duration": 0.25,
    "velocity": 100,
    "pitch": 60
  },
  {
    "clipIndex": 479,
    "trackId": "22",
    "clipName": null,
    "beat": 273.5,
    "relBeat": 25.75,
    "duration": 0.25,
    "velocity": 100,
    "pitch": 60
  },
  {
    "clipIndex": 480,
    "trackId": "22",
    "clipName": null,
    "beat": 273.5,
    "relBeat": 25.25,
    "duration": 0.25,
    "velocity": 100,
    "pitch": 60
  },
  {
    "clipIndex": 481,
    "trackId": "22",
    "clipName": null,
    "beat": 273.5,
    "relBeat": 24.75,
    "duration": 0.25,
    "velocity": 100,
    "pitch": 60
  },
  {
    "clipIndex": 482,
    "trackId": "22",
    "clipName": null,
    "beat": 273.5,
    "relBeat": 9.5,
    "duration": 0.25,
    "velocity": 100,
    "pitch": 60
  },
  {
    "clipIndex": 483,
    "trackId": "22",
    "clipName": null,
    "beat": 273.5,
    "relBeat": 4.5,
    "duration": 0.25,
    "velocity": 100,
    "pitch": 60
  },
  {
    "clipIndex": 484,
    "trackId": "22",
    "clipName": null,
    "beat": 273.5,
    "relBeat": 1.5,
    "duration": 0.25,
    "velocity": 100,
    "pitch": 60
  },
  {
    "clipIndex": 356,
    "trackId": "67",
    "clipName": null,
    "beat": 273.75,
    "relBeat": 273.75,
    "duration": 0.25000026015651017,
    "velocity": 100,
    "pitch": 72
  },
  {
    "clipIndex": 478,
    "trackId": "22",
    "clipName": null,
    "beat": 273.75,
    "relBeat": 26.5,
    "duration": 0.25,
    "velocity": 100,
    "pitch": 60
  },
  {
    "clipIndex": 479,
    "trackId": "22",
    "clipName": null,
    "beat": 273.75,
    "relBeat": 26,
    "duration": 0.25,
    "velocity": 100,
    "pitch": 60
  },
  {
    "clipIndex": 480,
    "trackId": "22",
    "clipName": null,
    "beat": 273.75,
    "relBeat": 25.5,
    "duration": 0.25,
    "velocity": 100,
    "pitch": 60
  },
  {
    "clipIndex": 481,
    "trackId": "22",
    "clipName": null,
    "beat": 273.75,
    "relBeat": 25,
    "duration": 0.25,
    "velocity": 100,
    "pitch": 60
  },
  {
    "clipIndex": 482,
    "trackId": "22",
    "clipName": null,
    "beat": 273.75,
    "relBeat": 9.75,
    "duration": 0.25,
    "velocity": 100,
    "pitch": 60
  },
  {
    "clipIndex": 483,
    "trackId": "22",
    "clipName": null,
    "beat": 273.75,
    "relBeat": 4.75,
    "duration": 0.25,
    "velocity": 100,
    "pitch": 60
  },
  {
    "clipIndex": 484,
    "trackId": "22",
    "clipName": null,
    "beat": 273.75,
    "relBeat": 1.75,
    "duration": 0.25,
    "velocity": 100,
    "pitch": 60
  },
  {
    "clipIndex": 478,
    "trackId": "22",
    "clipName": null,
    "beat": 274,
    "relBeat": 26.75,
    "duration": 0.25,
    "velocity": 100,
    "pitch": 60
  },
  {
    "clipIndex": 479,
    "trackId": "22",
    "clipName": null,
    "beat": 274,
    "relBeat": 26.25,
    "duration": 0.25,
    "velocity": 100,
    "pitch": 60
  },
  {
    "clipIndex": 480,
    "trackId": "22",
    "clipName": null,
    "beat": 274,
    "relBeat": 25.75,
    "duration": 0.25,
    "velocity": 100,
    "pitch": 60
  },
  {
    "clipIndex": 481,
    "trackId": "22",
    "clipName": null,
    "beat": 274,
    "relBeat": 25.25,
    "duration": 0.25,
    "velocity": 100,
    "pitch": 60
  },
  {
    "clipIndex": 482,
    "trackId": "22",
    "clipName": null,
    "beat": 274,
    "relBeat": 10,
    "duration": 0.25,
    "velocity": 100,
    "pitch": 60
  },
  {
    "clipIndex": 483,
    "trackId": "22",
    "clipName": null,
    "beat": 274,
    "relBeat": 5,
    "duration": 0.25,
    "velocity": 100,
    "pitch": 60
  },
  {
    "clipIndex": 484,
    "trackId": "22",
    "clipName": null,
    "beat": 274,
    "relBeat": 2,
    "duration": 0.25,
    "velocity": 100,
    "pitch": 60
  },
  {
    "clipIndex": 356,
    "trackId": "67",
    "clipName": null,
    "beat": 274.25,
    "relBeat": 274.25,
    "duration": 0.25000026015651017,
    "velocity": 100,
    "pitch": 72
  },
  {
    "clipIndex": 478,
    "trackId": "22",
    "clipName": null,
    "beat": 274.25,
    "relBeat": 27,
    "duration": 0.25,
    "velocity": 100,
    "pitch": 60
  },
  {
    "clipIndex": 479,
    "trackId": "22",
    "clipName": null,
    "beat": 274.25,
    "relBeat": 26.5,
    "duration": 0.25,
    "velocity": 100,
    "pitch": 60
  },
  {
    "clipIndex": 480,
    "trackId": "22",
    "clipName": null,
    "beat": 274.25,
    "relBeat": 26,
    "duration": 0.25,
    "velocity": 100,
    "pitch": 60
  },
  {
    "clipIndex": 481,
    "trackId": "22",
    "clipName": null,
    "beat": 274.25,
    "relBeat": 25.5,
    "duration": 0.25,
    "velocity": 100,
    "pitch": 60
  },
  {
    "clipIndex": 483,
    "trackId": "22",
    "clipName": null,
    "beat": 274.25,
    "relBeat": 5.25,
    "duration": 0.25,
    "velocity": 100,
    "pitch": 60
  },
  {
    "clipIndex": 484,
    "trackId": "22",
    "clipName": null,
    "beat": 274.25,
    "relBeat": 2.25,
    "duration": 0.25,
    "velocity": 100,
    "pitch": 60
  },
  {
    "clipIndex": 478,
    "trackId": "22",
    "clipName": null,
    "beat": 274.5,
    "relBeat": 27.25,
    "duration": 0.25,
    "velocity": 100,
    "pitch": 60
  },
  {
    "clipIndex": 479,
    "trackId": "22",
    "clipName": null,
    "beat": 274.5,
    "relBeat": 26.75,
    "duration": 0.25,
    "velocity": 100,
    "pitch": 60
  },
  {
    "clipIndex": 480,
    "trackId": "22",
    "clipName": null,
    "beat": 274.5,
    "relBeat": 26.25,
    "duration": 0.25,
    "velocity": 100,
    "pitch": 60
  },
  {
    "clipIndex": 481,
    "trackId": "22",
    "clipName": null,
    "beat": 274.5,
    "relBeat": 25.75,
    "duration": 0.25,
    "velocity": 100,
    "pitch": 60
  },
  {
    "clipIndex": 483,
    "trackId": "22",
    "clipName": null,
    "beat": 274.5,
    "relBeat": 5.5,
    "duration": 0.25,
    "velocity": 100,
    "pitch": 60
  },
  {
    "clipIndex": 484,
    "trackId": "22",
    "clipName": null,
    "beat": 274.5,
    "relBeat": 2.5,
    "duration": 0.25,
    "velocity": 100,
    "pitch": 60
  },
  {
    "clipIndex": 356,
    "trackId": "67",
    "clipName": null,
    "beat": 274.75,
    "relBeat": 274.75,
    "duration": 0.25000026015651017,
    "velocity": 100,
    "pitch": 72
  },
  {
    "clipIndex": 478,
    "trackId": "22",
    "clipName": null,
    "beat": 274.75,
    "relBeat": 27.5,
    "duration": 0.25,
    "velocity": 100,
    "pitch": 60
  },
  {
    "clipIndex": 479,
    "trackId": "22",
    "clipName": null,
    "beat": 274.75,
    "relBeat": 27,
    "duration": 0.25,
    "velocity": 100,
    "pitch": 60
  },
  {
    "clipIndex": 480,
    "trackId": "22",
    "clipName": null,
    "beat": 274.75,
    "relBeat": 26.5,
    "duration": 0.25,
    "velocity": 100,
    "pitch": 60
  },
  {
    "clipIndex": 481,
    "trackId": "22",
    "clipName": null,
    "beat": 274.75,
    "relBeat": 26,
    "duration": 0.25,
    "velocity": 100,
    "pitch": 60
  },
  {
    "clipIndex": 483,
    "trackId": "22",
    "clipName": null,
    "beat": 274.75,
    "relBeat": 5.75,
    "duration": 0.25,
    "velocity": 100,
    "pitch": 60
  },
  {
    "clipIndex": 484,
    "trackId": "22",
    "clipName": null,
    "beat": 274.75,
    "relBeat": 2.75,
    "duration": 0.25,
    "velocity": 100,
    "pitch": 60
  },
  {
    "clipIndex": 344,
    "trackId": "55",
    "clipName": null,
    "beat": 275,
    "relBeat": 11,
    "duration": 0.25000026015651017,
    "velocity": 100,
    "pitch": 60
  },
  {
    "clipIndex": 478,
    "trackId": "22",
    "clipName": null,
    "beat": 275,
    "relBeat": 27.75,
    "duration": 0.25,
    "velocity": 100,
    "pitch": 60
  },
  {
    "clipIndex": 479,
    "trackId": "22",
    "clipName": null,
    "beat": 275,
    "relBeat": 27.25,
    "duration": 0.25,
    "velocity": 100,
    "pitch": 60
  },
  {
    "clipIndex": 480,
    "trackId": "22",
    "clipName": null,
    "beat": 275,
    "relBeat": 26.75,
    "duration": 0.25,
    "velocity": 100,
    "pitch": 60
  },
  {
    "clipIndex": 481,
    "trackId": "22",
    "clipName": null,
    "beat": 275,
    "relBeat": 26.25,
    "duration": 0.25,
    "velocity": 100,
    "pitch": 60
  },
  {
    "clipIndex": 484,
    "trackId": "22",
    "clipName": null,
    "beat": 275,
    "relBeat": 3,
    "duration": 0.25,
    "velocity": 100,
    "pitch": 60
  },
  {
    "clipIndex": 356,
    "trackId": "67",
    "clipName": null,
    "beat": 275.25,
    "relBeat": 275.25,
    "duration": 0.25000026015651017,
    "velocity": 100,
    "pitch": 72
  },
  {
    "clipIndex": 478,
    "trackId": "22",
    "clipName": null,
    "beat": 275.25,
    "relBeat": 28,
    "duration": 0.25,
    "velocity": 100,
    "pitch": 60
  },
  {
    "clipIndex": 479,
    "trackId": "22",
    "clipName": null,
    "beat": 275.25,
    "relBeat": 27.5,
    "duration": 0.25,
    "velocity": 100,
    "pitch": 60
  },
  {
    "clipIndex": 480,
    "trackId": "22",
    "clipName": null,
    "beat": 275.25,
    "relBeat": 27,
    "duration": 0.25,
    "velocity": 100,
    "pitch": 60
  },
  {
    "clipIndex": 481,
    "trackId": "22",
    "clipName": null,
    "beat": 275.25,
    "relBeat": 26.5,
    "duration": 0.25,
    "velocity": 100,
    "pitch": 60
  },
  {
    "clipIndex": 484,
    "trackId": "22",
    "clipName": null,
    "beat": 275.25,
    "relBeat": 3.25,
    "duration": 0.25,
    "velocity": 100,
    "pitch": 60
  },
  {
    "clipIndex": 478,
    "trackId": "22",
    "clipName": null,
    "beat": 275.5,
    "relBeat": 28.25,
    "duration": 0.25,
    "velocity": 100,
    "pitch": 60
  },
  {
    "clipIndex": 479,
    "trackId": "22",
    "clipName": null,
    "beat": 275.5,
    "relBeat": 27.75,
    "duration": 0.25,
    "velocity": 100,
    "pitch": 60
  },
  {
    "clipIndex": 480,
    "trackId": "22",
    "clipName": null,
    "beat": 275.5,
    "relBeat": 27.25,
    "duration": 0.25,
    "velocity": 100,
    "pitch": 60
  },
  {
    "clipIndex": 481,
    "trackId": "22",
    "clipName": null,
    "beat": 275.5,
    "relBeat": 26.75,
    "duration": 0.25,
    "velocity": 100,
    "pitch": 60
  },
  {
    "clipIndex": 484,
    "trackId": "22",
    "clipName": null,
    "beat": 275.5,
    "relBeat": 3.5,
    "duration": 0.25,
    "velocity": 100,
    "pitch": 60
  },
  {
    "clipIndex": 356,
    "trackId": "67",
    "clipName": null,
    "beat": 275.75,
    "relBeat": 275.75,
    "duration": 0.25000026015651017,
    "velocity": 100,
    "pitch": 72
  },
  {
    "clipIndex": 478,
    "trackId": "22",
    "clipName": null,
    "beat": 275.75,
    "relBeat": 28.5,
    "duration": 0.25,
    "velocity": 100,
    "pitch": 60
  },
  {
    "clipIndex": 479,
    "trackId": "22",
    "clipName": null,
    "beat": 275.75,
    "relBeat": 28,
    "duration": 0.25,
    "velocity": 100,
    "pitch": 60
  },
  {
    "clipIndex": 480,
    "trackId": "22",
    "clipName": null,
    "beat": 275.75,
    "relBeat": 27.5,
    "duration": 0.25,
    "velocity": 100,
    "pitch": 60
  },
  {
    "clipIndex": 481,
    "trackId": "22",
    "clipName": null,
    "beat": 275.75,
    "relBeat": 27,
    "duration": 0.25,
    "velocity": 100,
    "pitch": 60
  },
  {
    "clipIndex": 484,
    "trackId": "22",
    "clipName": null,
    "beat": 275.75,
    "relBeat": 3.75,
    "duration": 0.25,
    "velocity": 100,
    "pitch": 60
  },
  {
    "clipIndex": 478,
    "trackId": "22",
    "clipName": null,
    "beat": 276,
    "relBeat": 28.75,
    "duration": 0.25,
    "velocity": 100,
    "pitch": 60
  },
  {
    "clipIndex": 479,
    "trackId": "22",
    "clipName": null,
    "beat": 276,
    "relBeat": 28.25,
    "duration": 0.25,
    "velocity": 100,
    "pitch": 60
  },
  {
    "clipIndex": 480,
    "trackId": "22",
    "clipName": null,
    "beat": 276,
    "relBeat": 27.75,
    "duration": 0.25,
    "velocity": 100,
    "pitch": 60
  },
  {
    "clipIndex": 481,
    "trackId": "22",
    "clipName": null,
    "beat": 276,
    "relBeat": 27.25,
    "duration": 0.25,
    "velocity": 100,
    "pitch": 60
  },
  {
    "clipIndex": 482,
    "trackId": "22",
    "clipName": null,
    "beat": 276,
    "relBeat": 12,
    "duration": 0.25,
    "velocity": 100,
    "pitch": 60
  },
  {
    "clipIndex": 484,
    "trackId": "22",
    "clipName": null,
    "beat": 276,
    "relBeat": 4,
    "duration": 0.25,
    "velocity": 100,
    "pitch": 60
  },
  {
    "clipIndex": 356,
    "trackId": "67",
    "clipName": null,
    "beat": 276.25,
    "relBeat": 276.25,
    "duration": 0.25000026015651017,
    "velocity": 100,
    "pitch": 72
  },
  {
    "clipIndex": 478,
    "trackId": "22",
    "clipName": null,
    "beat": 276.25,
    "relBeat": 29,
    "duration": 0.25,
    "velocity": 100,
    "pitch": 60
  },
  {
    "clipIndex": 479,
    "trackId": "22",
    "clipName": null,
    "beat": 276.25,
    "relBeat": 28.5,
    "duration": 0.25,
    "velocity": 100,
    "pitch": 60
  },
  {
    "clipIndex": 480,
    "trackId": "22",
    "clipName": null,
    "beat": 276.25,
    "relBeat": 28,
    "duration": 0.25,
    "velocity": 100,
    "pitch": 60
  },
  {
    "clipIndex": 481,
    "trackId": "22",
    "clipName": null,
    "beat": 276.25,
    "relBeat": 27.5,
    "duration": 0.25,
    "velocity": 100,
    "pitch": 60
  },
  {
    "clipIndex": 482,
    "trackId": "22",
    "clipName": null,
    "beat": 276.25,
    "relBeat": 12.25,
    "duration": 0.25,
    "velocity": 100,
    "pitch": 60
  },
  {
    "clipIndex": 484,
    "trackId": "22",
    "clipName": null,
    "beat": 276.25,
    "relBeat": 4.25,
    "duration": 0.25,
    "velocity": 100,
    "pitch": 60
  },
  {
    "clipIndex": 478,
    "trackId": "22",
    "clipName": null,
    "beat": 276.5,
    "relBeat": 29.25,
    "duration": 0.25,
    "velocity": 100,
    "pitch": 60
  },
  {
    "clipIndex": 479,
    "trackId": "22",
    "clipName": null,
    "beat": 276.5,
    "relBeat": 28.75,
    "duration": 0.25,
    "velocity": 100,
    "pitch": 60
  },
  {
    "clipIndex": 480,
    "trackId": "22",
    "clipName": null,
    "beat": 276.5,
    "relBeat": 28.25,
    "duration": 0.25,
    "velocity": 100,
    "pitch": 60
  },
  {
    "clipIndex": 481,
    "trackId": "22",
    "clipName": null,
    "beat": 276.5,
    "relBeat": 27.75,
    "duration": 0.25,
    "velocity": 100,
    "pitch": 60
  },
  {
    "clipIndex": 482,
    "trackId": "22",
    "clipName": null,
    "beat": 276.5,
    "relBeat": 12.5,
    "duration": 0.25,
    "velocity": 100,
    "pitch": 60
  },
  {
    "clipIndex": 484,
    "trackId": "22",
    "clipName": null,
    "beat": 276.5,
    "relBeat": 4.5,
    "duration": 0.25,
    "velocity": 100,
    "pitch": 60
  },
  {
    "clipIndex": 356,
    "trackId": "67",
    "clipName": null,
    "beat": 276.75,
    "relBeat": 276.75,
    "duration": 0.22643788503163503,
    "velocity": 100,
    "pitch": 72
  },
  {
    "clipIndex": 478,
    "trackId": "22",
    "clipName": null,
    "beat": 276.75,
    "relBeat": 29.5,
    "duration": 0.25,
    "velocity": 100,
    "pitch": 60
  },
  {
    "clipIndex": 479,
    "trackId": "22",
    "clipName": null,
    "beat": 276.75,
    "relBeat": 29,
    "duration": 0.25,
    "velocity": 100,
    "pitch": 60
  },
  {
    "clipIndex": 480,
    "trackId": "22",
    "clipName": null,
    "beat": 276.75,
    "relBeat": 28.5,
    "duration": 0.25,
    "velocity": 100,
    "pitch": 60
  },
  {
    "clipIndex": 481,
    "trackId": "22",
    "clipName": null,
    "beat": 276.75,
    "relBeat": 28,
    "duration": 0.25,
    "velocity": 100,
    "pitch": 60
  },
  {
    "clipIndex": 482,
    "trackId": "22",
    "clipName": null,
    "beat": 276.75,
    "relBeat": 12.75,
    "duration": 0.25,
    "velocity": 100,
    "pitch": 60
  },
  {
    "clipIndex": 484,
    "trackId": "22",
    "clipName": null,
    "beat": 276.75,
    "relBeat": 4.75,
    "duration": 0.25,
    "velocity": 100,
    "pitch": 60
  },
  {
    "clipIndex": 344,
    "trackId": "55",
    "clipName": null,
    "beat": 277,
    "relBeat": 13,
    "duration": 0.25000026015651017,
    "velocity": 100,
    "pitch": 60
  },
  {
    "clipIndex": 478,
    "trackId": "22",
    "clipName": null,
    "beat": 277,
    "relBeat": 29.75,
    "duration": 0.25,
    "velocity": 100,
    "pitch": 60
  },
  {
    "clipIndex": 479,
    "trackId": "22",
    "clipName": null,
    "beat": 277,
    "relBeat": 29.25,
    "duration": 0.25,
    "velocity": 100,
    "pitch": 60
  },
  {
    "clipIndex": 480,
    "trackId": "22",
    "clipName": null,
    "beat": 277,
    "relBeat": 28.75,
    "duration": 0.25,
    "velocity": 100,
    "pitch": 60
  },
  {
    "clipIndex": 481,
    "trackId": "22",
    "clipName": null,
    "beat": 277,
    "relBeat": 28.25,
    "duration": 0.25,
    "velocity": 100,
    "pitch": 60
  },
  {
    "clipIndex": 482,
    "trackId": "22",
    "clipName": null,
    "beat": 277,
    "relBeat": 13,
    "duration": 0.25,
    "velocity": 100,
    "pitch": 60
  },
  {
    "clipIndex": 484,
    "trackId": "22",
    "clipName": null,
    "beat": 277,
    "relBeat": 5,
    "duration": 0.25,
    "velocity": 100,
    "pitch": 60
  },
  {
    "clipIndex": 356,
    "trackId": "67",
    "clipName": null,
    "beat": 277.22643788503166,
    "relBeat": 277.22643788503166,
    "duration": 0.25000026015651017,
    "velocity": 100,
    "pitch": 72
  },
  {
    "clipIndex": 478,
    "trackId": "22",
    "clipName": null,
    "beat": 277.25,
    "relBeat": 30,
    "duration": 0.25,
    "velocity": 100,
    "pitch": 60
  },
  {
    "clipIndex": 479,
    "trackId": "22",
    "clipName": null,
    "beat": 277.25,
    "relBeat": 29.5,
    "duration": 0.25,
    "velocity": 100,
    "pitch": 60
  },
  {
    "clipIndex": 480,
    "trackId": "22",
    "clipName": null,
    "beat": 277.25,
    "relBeat": 29,
    "duration": 0.25,
    "velocity": 100,
    "pitch": 60
  },
  {
    "clipIndex": 481,
    "trackId": "22",
    "clipName": null,
    "beat": 277.25,
    "relBeat": 28.5,
    "duration": 0.25,
    "velocity": 100,
    "pitch": 60
  },
  {
    "clipIndex": 482,
    "trackId": "22",
    "clipName": null,
    "beat": 277.25,
    "relBeat": 13.25,
    "duration": 0.25,
    "velocity": 100,
    "pitch": 60
  },
  {
    "clipIndex": 484,
    "trackId": "22",
    "clipName": null,
    "beat": 277.25,
    "relBeat": 5.25,
    "duration": 0.25,
    "velocity": 100,
    "pitch": 60
  },
  {
    "clipIndex": 478,
    "trackId": "22",
    "clipName": null,
    "beat": 277.5,
    "relBeat": 30.25,
    "duration": 0.25,
    "velocity": 100,
    "pitch": 60
  },
  {
    "clipIndex": 479,
    "trackId": "22",
    "clipName": null,
    "beat": 277.5,
    "relBeat": 29.75,
    "duration": 0.25,
    "velocity": 100,
    "pitch": 60
  },
  {
    "clipIndex": 480,
    "trackId": "22",
    "clipName": null,
    "beat": 277.5,
    "relBeat": 29.25,
    "duration": 0.25,
    "velocity": 100,
    "pitch": 60
  },
  {
    "clipIndex": 481,
    "trackId": "22",
    "clipName": null,
    "beat": 277.5,
    "relBeat": 28.75,
    "duration": 0.25,
    "velocity": 100,
    "pitch": 60
  },
  {
    "clipIndex": 482,
    "trackId": "22",
    "clipName": null,
    "beat": 277.5,
    "relBeat": 13.5,
    "duration": 0.25,
    "velocity": 100,
    "pitch": 60
  },
  {
    "clipIndex": 484,
    "trackId": "22",
    "clipName": null,
    "beat": 277.5,
    "relBeat": 5.5,
    "duration": 0.25,
    "velocity": 100,
    "pitch": 60
  },
  {
    "clipIndex": 478,
    "trackId": "22",
    "clipName": null,
    "beat": 277.75,
    "relBeat": 30.5,
    "duration": 0.25,
    "velocity": 100,
    "pitch": 60
  },
  {
    "clipIndex": 479,
    "trackId": "22",
    "clipName": null,
    "beat": 277.75,
    "relBeat": 30,
    "duration": 0.25,
    "velocity": 100,
    "pitch": 60
  },
  {
    "clipIndex": 480,
    "trackId": "22",
    "clipName": null,
    "beat": 277.75,
    "relBeat": 29.5,
    "duration": 0.25,
    "velocity": 100,
    "pitch": 60
  },
  {
    "clipIndex": 481,
    "trackId": "22",
    "clipName": null,
    "beat": 277.75,
    "relBeat": 29,
    "duration": 0.25,
    "velocity": 100,
    "pitch": 60
  },
  {
    "clipIndex": 482,
    "trackId": "22",
    "clipName": null,
    "beat": 277.75,
    "relBeat": 13.75,
    "duration": 0.25,
    "velocity": 100,
    "pitch": 60
  },
  {
    "clipIndex": 484,
    "trackId": "22",
    "clipName": null,
    "beat": 277.75,
    "relBeat": 5.75,
    "duration": 0.25,
    "velocity": 100,
    "pitch": 60
  },
  {
    "clipIndex": 478,
    "trackId": "22",
    "clipName": null,
    "beat": 278,
    "relBeat": 30.75,
    "duration": 0.25,
    "velocity": 100,
    "pitch": 60
  },
  {
    "clipIndex": 479,
    "trackId": "22",
    "clipName": null,
    "beat": 278,
    "relBeat": 30.25,
    "duration": 0.25,
    "velocity": 100,
    "pitch": 60
  },
  {
    "clipIndex": 480,
    "trackId": "22",
    "clipName": null,
    "beat": 278,
    "relBeat": 29.75,
    "duration": 0.25,
    "velocity": 100,
    "pitch": 60
  },
  {
    "clipIndex": 481,
    "trackId": "22",
    "clipName": null,
    "beat": 278,
    "relBeat": 29.25,
    "duration": 0.25,
    "velocity": 100,
    "pitch": 60
  },
  {
    "clipIndex": 482,
    "trackId": "22",
    "clipName": null,
    "beat": 278,
    "relBeat": 14,
    "duration": 0.25,
    "velocity": 100,
    "pitch": 60
  },
  {
    "clipIndex": 483,
    "trackId": "22",
    "clipName": null,
    "beat": 278,
    "relBeat": 9,
    "duration": 0.25,
    "velocity": 100,
    "pitch": 60
  },
  {
    "clipIndex": 478,
    "trackId": "22",
    "clipName": null,
    "beat": 278.25,
    "relBeat": 31,
    "duration": 0.25,
    "velocity": 100,
    "pitch": 60
  },
  {
    "clipIndex": 479,
    "trackId": "22",
    "clipName": null,
    "beat": 278.25,
    "relBeat": 30.5,
    "duration": 0.25,
    "velocity": 100,
    "pitch": 60
  },
  {
    "clipIndex": 480,
    "trackId": "22",
    "clipName": null,
    "beat": 278.25,
    "relBeat": 30,
    "duration": 0.25,
    "velocity": 100,
    "pitch": 60
  },
  {
    "clipIndex": 481,
    "trackId": "22",
    "clipName": null,
    "beat": 278.25,
    "relBeat": 29.5,
    "duration": 0.25,
    "velocity": 100,
    "pitch": 60
  },
  {
    "clipIndex": 482,
    "trackId": "22",
    "clipName": null,
    "beat": 278.25,
    "relBeat": 14.25,
    "duration": 0.25,
    "velocity": 100,
    "pitch": 60
  },
  {
    "clipIndex": 483,
    "trackId": "22",
    "clipName": null,
    "beat": 278.25,
    "relBeat": 9.25,
    "duration": 0.25,
    "velocity": 100,
    "pitch": 60
  },
  {
    "clipIndex": 478,
    "trackId": "22",
    "clipName": null,
    "beat": 278.5,
    "relBeat": 31.25,
    "duration": 0.25,
    "velocity": 100,
    "pitch": 60
  },
  {
    "clipIndex": 479,
    "trackId": "22",
    "clipName": null,
    "beat": 278.5,
    "relBeat": 30.75,
    "duration": 0.25,
    "velocity": 100,
    "pitch": 60
  },
  {
    "clipIndex": 480,
    "trackId": "22",
    "clipName": null,
    "beat": 278.5,
    "relBeat": 30.25,
    "duration": 0.25,
    "velocity": 100,
    "pitch": 60
  },
  {
    "clipIndex": 481,
    "trackId": "22",
    "clipName": null,
    "beat": 278.5,
    "relBeat": 29.75,
    "duration": 0.25,
    "velocity": 100,
    "pitch": 60
  },
  {
    "clipIndex": 482,
    "trackId": "22",
    "clipName": null,
    "beat": 278.5,
    "relBeat": 14.5,
    "duration": 0.25,
    "velocity": 100,
    "pitch": 60
  },
  {
    "clipIndex": 483,
    "trackId": "22",
    "clipName": null,
    "beat": 278.5,
    "relBeat": 9.5,
    "duration": 0.25,
    "velocity": 100,
    "pitch": 60
  },
  {
    "clipIndex": 0,
    "trackId": "89",
    "clipName": null,
    "beat": 278.75,
    "relBeat": 278.75,
    "duration": 0.25,
    "velocity": 100,
    "pitch": 60
  },
  {
    "clipIndex": 478,
    "trackId": "22",
    "clipName": null,
    "beat": 278.75,
    "relBeat": 31.5,
    "duration": 0.25,
    "velocity": 100,
    "pitch": 60
  },
  {
    "clipIndex": 479,
    "trackId": "22",
    "clipName": null,
    "beat": 278.75,
    "relBeat": 31,
    "duration": 0.25,
    "velocity": 100,
    "pitch": 60
  },
  {
    "clipIndex": 480,
    "trackId": "22",
    "clipName": null,
    "beat": 278.75,
    "relBeat": 30.5,
    "duration": 0.25,
    "velocity": 100,
    "pitch": 60
  },
  {
    "clipIndex": 481,
    "trackId": "22",
    "clipName": null,
    "beat": 278.75,
    "relBeat": 30,
    "duration": 0.25,
    "velocity": 100,
    "pitch": 60
  },
  {
    "clipIndex": 482,
    "trackId": "22",
    "clipName": null,
    "beat": 278.75,
    "relBeat": 14.75,
    "duration": 0.25,
    "velocity": 100,
    "pitch": 60
  },
  {
    "clipIndex": 483,
    "trackId": "22",
    "clipName": null,
    "beat": 278.75,
    "relBeat": 9.75,
    "duration": 0.25,
    "velocity": 100,
    "pitch": 60
  },
  {
    "clipIndex": 0,
    "trackId": "89",
    "clipName": null,
    "beat": 279,
    "relBeat": 279,
    "duration": 0.25,
    "velocity": 100,
    "pitch": 60
  },
  {
    "clipIndex": 344,
    "trackId": "55",
    "clipName": null,
    "beat": 279,
    "relBeat": 15,
    "duration": 0.25000026015651017,
    "velocity": 100,
    "pitch": 60
  },
  {
    "clipIndex": 478,
    "trackId": "22",
    "clipName": null,
    "beat": 279,
    "relBeat": 31.75,
    "duration": 0.25,
    "velocity": 100,
    "pitch": 60
  },
  {
    "clipIndex": 479,
    "trackId": "22",
    "clipName": null,
    "beat": 279,
    "relBeat": 31.25,
    "duration": 0.25,
    "velocity": 100,
    "pitch": 60
  },
  {
    "clipIndex": 480,
    "trackId": "22",
    "clipName": null,
    "beat": 279,
    "relBeat": 30.75,
    "duration": 0.25,
    "velocity": 100,
    "pitch": 60
  },
  {
    "clipIndex": 481,
    "trackId": "22",
    "clipName": null,
    "beat": 279,
    "relBeat": 30.25,
    "duration": 0.25,
    "velocity": 100,
    "pitch": 60
  },
  {
    "clipIndex": 482,
    "trackId": "22",
    "clipName": null,
    "beat": 279,
    "relBeat": 15,
    "duration": 0.25,
    "velocity": 100,
    "pitch": 60
  },
  {
    "clipIndex": 483,
    "trackId": "22",
    "clipName": null,
    "beat": 279,
    "relBeat": 10,
    "duration": 0.25,
    "velocity": 100,
    "pitch": 60
  },
  {
    "clipIndex": 479,
    "trackId": "22",
    "clipName": null,
    "beat": 279.25,
    "relBeat": 31.5,
    "duration": 0.25,
    "velocity": 100,
    "pitch": 60
  },
  {
    "clipIndex": 480,
    "trackId": "22",
    "clipName": null,
    "beat": 279.25,
    "relBeat": 31,
    "duration": 0.25,
    "velocity": 100,
    "pitch": 60
  },
  {
    "clipIndex": 481,
    "trackId": "22",
    "clipName": null,
    "beat": 279.25,
    "relBeat": 30.5,
    "duration": 0.25,
    "velocity": 100,
    "pitch": 60
  },
  {
    "clipIndex": 482,
    "trackId": "22",
    "clipName": null,
    "beat": 279.25,
    "relBeat": 15.25,
    "duration": 0.25,
    "velocity": 100,
    "pitch": 60
  },
  {
    "clipIndex": 479,
    "trackId": "22",
    "clipName": null,
    "beat": 279.5,
    "relBeat": 31.75,
    "duration": 0.25,
    "velocity": 100,
    "pitch": 60
  },
  {
    "clipIndex": 480,
    "trackId": "22",
    "clipName": null,
    "beat": 279.5,
    "relBeat": 31.25,
    "duration": 0.25,
    "velocity": 100,
    "pitch": 60
  },
  {
    "clipIndex": 481,
    "trackId": "22",
    "clipName": null,
    "beat": 279.5,
    "relBeat": 30.75,
    "duration": 0.25,
    "velocity": 100,
    "pitch": 60
  },
  {
    "clipIndex": 482,
    "trackId": "22",
    "clipName": null,
    "beat": 279.5,
    "relBeat": 15.5,
    "duration": 0.25,
    "velocity": 100,
    "pitch": 60
  },
  {
    "clipIndex": 480,
    "trackId": "22",
    "clipName": null,
    "beat": 279.75,
    "relBeat": 31.5,
    "duration": 0.25,
    "velocity": 100,
    "pitch": 60
  },
  {
    "clipIndex": 481,
    "trackId": "22",
    "clipName": null,
    "beat": 279.75,
    "relBeat": 31,
    "duration": 0.25,
    "velocity": 100,
    "pitch": 60
  },
  {
    "clipIndex": 482,
    "trackId": "22",
    "clipName": null,
    "beat": 279.75,
    "relBeat": 15.75,
    "duration": 0.25,
    "velocity": 100,
    "pitch": 60
  },
  {
    "clipIndex": 480,
    "trackId": "22",
    "clipName": null,
    "beat": 280,
    "relBeat": 31.75,
    "duration": 0.25,
    "velocity": 100,
    "pitch": 60
  },
  {
    "clipIndex": 481,
    "trackId": "22",
    "clipName": null,
    "beat": 280,
    "relBeat": 31.25,
    "duration": 0.25,
    "velocity": 100,
    "pitch": 60
  },
  {
    "clipIndex": 482,
    "trackId": "22",
    "clipName": null,
    "beat": 280,
    "relBeat": 16,
    "duration": 0.25,
    "velocity": 100,
    "pitch": 60
  },
  {
    "clipIndex": 485,
    "trackId": "22",
    "clipName": null,
    "beat": 280,
    "relBeat": 0,
    "duration": 0.25,
    "velocity": 100,
    "pitch": 60
  },
  {
    "clipIndex": 481,
    "trackId": "22",
    "clipName": null,
    "beat": 280.25,
    "relBeat": 31.5,
    "duration": 0.25,
    "velocity": 100,
    "pitch": 60
  },
  {
    "clipIndex": 482,
    "trackId": "22",
    "clipName": null,
    "beat": 280.25,
    "relBeat": 16.25,
    "duration": 0.25,
    "velocity": 100,
    "pitch": 60
  },
  {
    "clipIndex": 485,
    "trackId": "22",
    "clipName": null,
    "beat": 280.25,
    "relBeat": 0.25,
    "duration": 0.25,
    "velocity": 100,
    "pitch": 60
  },
  {
    "clipIndex": 0,
    "trackId": "89",
    "clipName": null,
    "beat": 280.5,
    "relBeat": 280.5,
    "duration": 0.25,
    "velocity": 100,
    "pitch": 60
  },
  {
    "clipIndex": 481,
    "trackId": "22",
    "clipName": null,
    "beat": 280.5,
    "relBeat": 31.75,
    "duration": 0.25,
    "velocity": 100,
    "pitch": 60
  },
  {
    "clipIndex": 482,
    "trackId": "22",
    "clipName": null,
    "beat": 280.5,
    "relBeat": 16.5,
    "duration": 0.25,
    "velocity": 100,
    "pitch": 60
  },
  {
    "clipIndex": 485,
    "trackId": "22",
    "clipName": null,
    "beat": 280.5,
    "relBeat": 0.5,
    "duration": 0.25,
    "velocity": 100,
    "pitch": 60
  },
  {
    "clipIndex": 482,
    "trackId": "22",
    "clipName": null,
    "beat": 280.75,
    "relBeat": 16.75,
    "duration": 0.25,
    "velocity": 100,
    "pitch": 60
  },
  {
    "clipIndex": 485,
    "trackId": "22",
    "clipName": null,
    "beat": 280.75,
    "relBeat": 0.75,
    "duration": 0.25,
    "velocity": 100,
    "pitch": 60
  },
  {
    "clipIndex": 344,
    "trackId": "55",
    "clipName": null,
    "beat": 281,
    "relBeat": 17,
    "duration": 0.25000026015651017,
    "velocity": 100,
    "pitch": 60
  },
  {
    "clipIndex": 350,
    "trackId": "60",
    "clipName": null,
    "beat": 281,
    "relBeat": 281,
    "duration": 0.25,
    "velocity": 100,
    "pitch": 60
  },
  {
    "clipIndex": 482,
    "trackId": "22",
    "clipName": null,
    "beat": 281,
    "relBeat": 17,
    "duration": 0.25,
    "velocity": 100,
    "pitch": 60
  },
  {
    "clipIndex": 483,
    "trackId": "22",
    "clipName": null,
    "beat": 281,
    "relBeat": 12,
    "duration": 0.25,
    "velocity": 100,
    "pitch": 60
  },
  {
    "clipIndex": 484,
    "trackId": "22",
    "clipName": null,
    "beat": 281,
    "relBeat": 9,
    "duration": 0.25,
    "velocity": 100,
    "pitch": 60
  },
  {
    "clipIndex": 485,
    "trackId": "22",
    "clipName": null,
    "beat": 281,
    "relBeat": 1,
    "duration": 0.25,
    "velocity": 100,
    "pitch": 60
  },
  {
    "clipIndex": 0,
    "trackId": "89",
    "clipName": null,
    "beat": 281.25,
    "relBeat": 281.25,
    "duration": 0.25,
    "velocity": 100,
    "pitch": 60
  },
  {
    "clipIndex": 482,
    "trackId": "22",
    "clipName": null,
    "beat": 281.25,
    "relBeat": 17.25,
    "duration": 0.25,
    "velocity": 100,
    "pitch": 60
  },
  {
    "clipIndex": 483,
    "trackId": "22",
    "clipName": null,
    "beat": 281.25,
    "relBeat": 12.25,
    "duration": 0.25,
    "velocity": 100,
    "pitch": 60
  },
  {
    "clipIndex": 484,
    "trackId": "22",
    "clipName": null,
    "beat": 281.25,
    "relBeat": 9.25,
    "duration": 0.25,
    "velocity": 100,
    "pitch": 60
  },
  {
    "clipIndex": 485,
    "trackId": "22",
    "clipName": null,
    "beat": 281.25,
    "relBeat": 1.25,
    "duration": 0.25,
    "velocity": 100,
    "pitch": 60
  },
  {
    "clipIndex": 482,
    "trackId": "22",
    "clipName": null,
    "beat": 281.5,
    "relBeat": 17.5,
    "duration": 0.25,
    "velocity": 100,
    "pitch": 60
  },
  {
    "clipIndex": 483,
    "trackId": "22",
    "clipName": null,
    "beat": 281.5,
    "relBeat": 12.5,
    "duration": 0.25,
    "velocity": 100,
    "pitch": 60
  },
  {
    "clipIndex": 484,
    "trackId": "22",
    "clipName": null,
    "beat": 281.5,
    "relBeat": 9.5,
    "duration": 0.25,
    "velocity": 100,
    "pitch": 60
  },
  {
    "clipIndex": 485,
    "trackId": "22",
    "clipName": null,
    "beat": 281.5,
    "relBeat": 1.5,
    "duration": 0.25,
    "velocity": 100,
    "pitch": 60
  },
  {
    "clipIndex": 482,
    "trackId": "22",
    "clipName": null,
    "beat": 281.75,
    "relBeat": 17.75,
    "duration": 0.25,
    "velocity": 100,
    "pitch": 60
  },
  {
    "clipIndex": 483,
    "trackId": "22",
    "clipName": null,
    "beat": 281.75,
    "relBeat": 12.75,
    "duration": 0.25,
    "velocity": 100,
    "pitch": 60
  },
  {
    "clipIndex": 484,
    "trackId": "22",
    "clipName": null,
    "beat": 281.75,
    "relBeat": 9.75,
    "duration": 0.25,
    "velocity": 100,
    "pitch": 60
  },
  {
    "clipIndex": 485,
    "trackId": "22",
    "clipName": null,
    "beat": 281.75,
    "relBeat": 1.75,
    "duration": 0.25,
    "velocity": 100,
    "pitch": 60
  },
  {
    "clipIndex": 482,
    "trackId": "22",
    "clipName": null,
    "beat": 282,
    "relBeat": 18,
    "duration": 0.25,
    "velocity": 100,
    "pitch": 60
  },
  {
    "clipIndex": 483,
    "trackId": "22",
    "clipName": null,
    "beat": 282,
    "relBeat": 13,
    "duration": 0.25,
    "velocity": 100,
    "pitch": 60
  },
  {
    "clipIndex": 484,
    "trackId": "22",
    "clipName": null,
    "beat": 282,
    "relBeat": 10,
    "duration": 0.25,
    "velocity": 100,
    "pitch": 60
  },
  {
    "clipIndex": 485,
    "trackId": "22",
    "clipName": null,
    "beat": 282,
    "relBeat": 2,
    "duration": 0.25,
    "velocity": 100,
    "pitch": 60
  },
  {
    "clipIndex": 482,
    "trackId": "22",
    "clipName": null,
    "beat": 282.25,
    "relBeat": 18.25,
    "duration": 0.25,
    "velocity": 100,
    "pitch": 60
  },
  {
    "clipIndex": 483,
    "trackId": "22",
    "clipName": null,
    "beat": 282.25,
    "relBeat": 13.25,
    "duration": 0.25,
    "velocity": 100,
    "pitch": 60
  },
  {
    "clipIndex": 485,
    "trackId": "22",
    "clipName": null,
    "beat": 282.25,
    "relBeat": 2.25,
    "duration": 0.25,
    "velocity": 100,
    "pitch": 60
  },
  {
    "clipIndex": 482,
    "trackId": "22",
    "clipName": null,
    "beat": 282.5,
    "relBeat": 18.5,
    "duration": 0.25,
    "velocity": 100,
    "pitch": 60
  },
  {
    "clipIndex": 483,
    "trackId": "22",
    "clipName": null,
    "beat": 282.5,
    "relBeat": 13.5,
    "duration": 0.25,
    "velocity": 100,
    "pitch": 60
  },
  {
    "clipIndex": 485,
    "trackId": "22",
    "clipName": null,
    "beat": 282.5,
    "relBeat": 2.5,
    "duration": 0.25,
    "velocity": 100,
    "pitch": 60
  },
  {
    "clipIndex": 482,
    "trackId": "22",
    "clipName": null,
    "beat": 282.75,
    "relBeat": 18.75,
    "duration": 0.25,
    "velocity": 100,
    "pitch": 60
  },
  {
    "clipIndex": 483,
    "trackId": "22",
    "clipName": null,
    "beat": 282.75,
    "relBeat": 13.75,
    "duration": 0.25,
    "velocity": 100,
    "pitch": 60
  },
  {
    "clipIndex": 485,
    "trackId": "22",
    "clipName": null,
    "beat": 282.75,
    "relBeat": 2.75,
    "duration": 0.25,
    "velocity": 100,
    "pitch": 60
  },
  {
    "clipIndex": 0,
    "trackId": "89",
    "clipName": null,
    "beat": 283,
    "relBeat": 283,
    "duration": 0.25,
    "velocity": 100,
    "pitch": 60
  },
  {
    "clipIndex": 344,
    "trackId": "55",
    "clipName": null,
    "beat": 283,
    "relBeat": 19,
    "duration": 0.25000026015651017,
    "velocity": 100,
    "pitch": 60
  },
  {
    "clipIndex": 350,
    "trackId": "60",
    "clipName": null,
    "beat": 283,
    "relBeat": 283,
    "duration": 0.25,
    "velocity": 100,
    "pitch": 60
  },
  {
    "clipIndex": 482,
    "trackId": "22",
    "clipName": null,
    "beat": 283,
    "relBeat": 19,
    "duration": 0.25,
    "velocity": 100,
    "pitch": 60
  },
  {
    "clipIndex": 483,
    "trackId": "22",
    "clipName": null,
    "beat": 283,
    "relBeat": 14,
    "duration": 0.25,
    "velocity": 100,
    "pitch": 60
  },
  {
    "clipIndex": 485,
    "trackId": "22",
    "clipName": null,
    "beat": 283,
    "relBeat": 3,
    "duration": 0.25,
    "velocity": 100,
    "pitch": 60
  },
  {
    "clipIndex": 486,
    "trackId": "22",
    "clipName": null,
    "beat": 283,
    "relBeat": 0,
    "duration": 0.25,
    "velocity": 100,
    "pitch": 60
  },
  {
    "clipIndex": 0,
    "trackId": "89",
    "clipName": null,
    "beat": 283.25,
    "relBeat": 283.25,
    "duration": 0.25,
    "velocity": 100,
    "pitch": 60
  },
  {
    "clipIndex": 482,
    "trackId": "22",
    "clipName": null,
    "beat": 283.25,
    "relBeat": 19.25,
    "duration": 0.25,
    "velocity": 100,
    "pitch": 60
  },
  {
    "clipIndex": 483,
    "trackId": "22",
    "clipName": null,
    "beat": 283.25,
    "relBeat": 14.25,
    "duration": 0.25,
    "velocity": 100,
    "pitch": 60
  },
  {
    "clipIndex": 485,
    "trackId": "22",
    "clipName": null,
    "beat": 283.25,
    "relBeat": 3.25,
    "duration": 0.25,
    "velocity": 100,
    "pitch": 60
  },
  {
    "clipIndex": 486,
    "trackId": "22",
    "clipName": null,
    "beat": 283.25,
    "relBeat": 0.25,
    "duration": 0.25,
    "velocity": 100,
    "pitch": 60
  },
  {
    "clipIndex": 482,
    "trackId": "22",
    "clipName": null,
    "beat": 283.5,
    "relBeat": 19.5,
    "duration": 0.25,
    "velocity": 100,
    "pitch": 60
  },
  {
    "clipIndex": 483,
    "trackId": "22",
    "clipName": null,
    "beat": 283.5,
    "relBeat": 14.5,
    "duration": 0.25,
    "velocity": 100,
    "pitch": 60
  },
  {
    "clipIndex": 485,
    "trackId": "22",
    "clipName": null,
    "beat": 283.5,
    "relBeat": 3.5,
    "duration": 0.25,
    "velocity": 100,
    "pitch": 60
  },
  {
    "clipIndex": 486,
    "trackId": "22",
    "clipName": null,
    "beat": 283.5,
    "relBeat": 0.5,
    "duration": 0.25,
    "velocity": 100,
    "pitch": 60
  },
  {
    "clipIndex": 482,
    "trackId": "22",
    "clipName": null,
    "beat": 283.75,
    "relBeat": 19.75,
    "duration": 0.25,
    "velocity": 100,
    "pitch": 60
  },
  {
    "clipIndex": 483,
    "trackId": "22",
    "clipName": null,
    "beat": 283.75,
    "relBeat": 14.75,
    "duration": 0.25,
    "velocity": 100,
    "pitch": 60
  },
  {
    "clipIndex": 485,
    "trackId": "22",
    "clipName": null,
    "beat": 283.75,
    "relBeat": 3.75,
    "duration": 0.25,
    "velocity": 100,
    "pitch": 60
  },
  {
    "clipIndex": 486,
    "trackId": "22",
    "clipName": null,
    "beat": 283.75,
    "relBeat": 0.75,
    "duration": 0.25,
    "velocity": 100,
    "pitch": 60
  },
  {
    "clipIndex": 482,
    "trackId": "22",
    "clipName": null,
    "beat": 284,
    "relBeat": 20,
    "duration": 0.25,
    "velocity": 100,
    "pitch": 60
  },
  {
    "clipIndex": 483,
    "trackId": "22",
    "clipName": null,
    "beat": 284,
    "relBeat": 15,
    "duration": 0.25,
    "velocity": 100,
    "pitch": 60
  },
  {
    "clipIndex": 484,
    "trackId": "22",
    "clipName": null,
    "beat": 284,
    "relBeat": 12,
    "duration": 0.25,
    "velocity": 100,
    "pitch": 60
  },
  {
    "clipIndex": 485,
    "trackId": "22",
    "clipName": null,
    "beat": 284,
    "relBeat": 4,
    "duration": 0.25,
    "velocity": 100,
    "pitch": 60
  },
  {
    "clipIndex": 486,
    "trackId": "22",
    "clipName": null,
    "beat": 284,
    "relBeat": 1,
    "duration": 0.25,
    "velocity": 100,
    "pitch": 60
  },
  {
    "clipIndex": 482,
    "trackId": "22",
    "clipName": null,
    "beat": 284.25,
    "relBeat": 20.25,
    "duration": 0.25,
    "velocity": 100,
    "pitch": 60
  },
  {
    "clipIndex": 483,
    "trackId": "22",
    "clipName": null,
    "beat": 284.25,
    "relBeat": 15.25,
    "duration": 0.25,
    "velocity": 100,
    "pitch": 60
  },
  {
    "clipIndex": 484,
    "trackId": "22",
    "clipName": null,
    "beat": 284.25,
    "relBeat": 12.25,
    "duration": 0.25,
    "velocity": 100,
    "pitch": 60
  },
  {
    "clipIndex": 485,
    "trackId": "22",
    "clipName": null,
    "beat": 284.25,
    "relBeat": 4.25,
    "duration": 0.25,
    "velocity": 100,
    "pitch": 60
  },
  {
    "clipIndex": 486,
    "trackId": "22",
    "clipName": null,
    "beat": 284.25,
    "relBeat": 1.25,
    "duration": 0.25,
    "velocity": 100,
    "pitch": 60
  },
  {
    "clipIndex": 482,
    "trackId": "22",
    "clipName": null,
    "beat": 284.5,
    "relBeat": 20.5,
    "duration": 0.25,
    "velocity": 100,
    "pitch": 60
  },
  {
    "clipIndex": 483,
    "trackId": "22",
    "clipName": null,
    "beat": 284.5,
    "relBeat": 15.5,
    "duration": 0.25,
    "velocity": 100,
    "pitch": 60
  },
  {
    "clipIndex": 484,
    "trackId": "22",
    "clipName": null,
    "beat": 284.5,
    "relBeat": 12.5,
    "duration": 0.25,
    "velocity": 100,
    "pitch": 60
  },
  {
    "clipIndex": 485,
    "trackId": "22",
    "clipName": null,
    "beat": 284.5,
    "relBeat": 4.5,
    "duration": 0.25,
    "velocity": 100,
    "pitch": 60
  },
  {
    "clipIndex": 486,
    "trackId": "22",
    "clipName": null,
    "beat": 284.5,
    "relBeat": 1.5,
    "duration": 0.25,
    "velocity": 100,
    "pitch": 60
  },
  {
    "clipIndex": 0,
    "trackId": "89",
    "clipName": null,
    "beat": 284.75,
    "relBeat": 284.75,
    "duration": 0.25,
    "velocity": 100,
    "pitch": 60
  },
  {
    "clipIndex": 482,
    "trackId": "22",
    "clipName": null,
    "beat": 284.75,
    "relBeat": 20.75,
    "duration": 0.25,
    "velocity": 100,
    "pitch": 60
  },
  {
    "clipIndex": 483,
    "trackId": "22",
    "clipName": null,
    "beat": 284.75,
    "relBeat": 15.75,
    "duration": 0.25,
    "velocity": 100,
    "pitch": 60
  },
  {
    "clipIndex": 484,
    "trackId": "22",
    "clipName": null,
    "beat": 284.75,
    "relBeat": 12.75,
    "duration": 0.25,
    "velocity": 100,
    "pitch": 60
  },
  {
    "clipIndex": 485,
    "trackId": "22",
    "clipName": null,
    "beat": 284.75,
    "relBeat": 4.75,
    "duration": 0.25,
    "velocity": 100,
    "pitch": 60
  },
  {
    "clipIndex": 486,
    "trackId": "22",
    "clipName": null,
    "beat": 284.75,
    "relBeat": 1.75,
    "duration": 0.25,
    "velocity": 100,
    "pitch": 60
  },
  {
    "clipIndex": 345,
    "trackId": "55",
    "clipName": null,
    "beat": 285,
    "relBeat": 1,
    "duration": 0.25000026015651017,
    "velocity": 100,
    "pitch": 60
  },
  {
    "clipIndex": 350,
    "trackId": "60",
    "clipName": null,
    "beat": 285,
    "relBeat": 285,
    "duration": 0.25,
    "velocity": 100,
    "pitch": 60
  },
  {
    "clipIndex": 482,
    "trackId": "22",
    "clipName": null,
    "beat": 285,
    "relBeat": 21,
    "duration": 0.25,
    "velocity": 100,
    "pitch": 60
  },
  {
    "clipIndex": 483,
    "trackId": "22",
    "clipName": null,
    "beat": 285,
    "relBeat": 16,
    "duration": 0.25,
    "velocity": 100,
    "pitch": 60
  },
  {
    "clipIndex": 484,
    "trackId": "22",
    "clipName": null,
    "beat": 285,
    "relBeat": 13,
    "duration": 0.25,
    "velocity": 100,
    "pitch": 60
  },
  {
    "clipIndex": 485,
    "trackId": "22",
    "clipName": null,
    "beat": 285,
    "relBeat": 5,
    "duration": 0.25,
    "velocity": 100,
    "pitch": 60
  },
  {
    "clipIndex": 486,
    "trackId": "22",
    "clipName": null,
    "beat": 285,
    "relBeat": 2,
    "duration": 0.25,
    "velocity": 100,
    "pitch": 60
  },
  {
    "clipIndex": 482,
    "trackId": "22",
    "clipName": null,
    "beat": 285.25,
    "relBeat": 21.25,
    "duration": 0.25,
    "velocity": 100,
    "pitch": 60
  },
  {
    "clipIndex": 483,
    "trackId": "22",
    "clipName": null,
    "beat": 285.25,
    "relBeat": 16.25,
    "duration": 0.25,
    "velocity": 100,
    "pitch": 60
  },
  {
    "clipIndex": 484,
    "trackId": "22",
    "clipName": null,
    "beat": 285.25,
    "relBeat": 13.25,
    "duration": 0.25,
    "velocity": 100,
    "pitch": 60
  },
  {
    "clipIndex": 485,
    "trackId": "22",
    "clipName": null,
    "beat": 285.25,
    "relBeat": 5.25,
    "duration": 0.25,
    "velocity": 100,
    "pitch": 60
  },
  {
    "clipIndex": 486,
    "trackId": "22",
    "clipName": null,
    "beat": 285.25,
    "relBeat": 2.25,
    "duration": 0.25,
    "velocity": 100,
    "pitch": 60
  },
  {
    "clipIndex": 483,
    "trackId": "22",
    "clipName": null,
    "beat": 285.5,
    "relBeat": 16.5,
    "duration": 0.25,
    "velocity": 100,
    "pitch": 60
  },
  {
    "clipIndex": 484,
    "trackId": "22",
    "clipName": null,
    "beat": 285.5,
    "relBeat": 13.5,
    "duration": 0.25,
    "velocity": 100,
    "pitch": 60
  },
  {
    "clipIndex": 485,
    "trackId": "22",
    "clipName": null,
    "beat": 285.5,
    "relBeat": 5.5,
    "duration": 0.25,
    "velocity": 100,
    "pitch": 60
  },
  {
    "clipIndex": 486,
    "trackId": "22",
    "clipName": null,
    "beat": 285.5,
    "relBeat": 2.5,
    "duration": 0.25,
    "velocity": 100,
    "pitch": 60
  },
  {
    "clipIndex": 0,
    "trackId": "89",
    "clipName": null,
    "beat": 285.75,
    "relBeat": 285.75,
    "duration": 0.25,
    "velocity": 100,
    "pitch": 60
  },
  {
    "clipIndex": 483,
    "trackId": "22",
    "clipName": null,
    "beat": 285.75,
    "relBeat": 16.75,
    "duration": 0.25,
    "velocity": 100,
    "pitch": 60
  },
  {
    "clipIndex": 484,
    "trackId": "22",
    "clipName": null,
    "beat": 285.75,
    "relBeat": 13.75,
    "duration": 0.25,
    "velocity": 100,
    "pitch": 60
  },
  {
    "clipIndex": 485,
    "trackId": "22",
    "clipName": null,
    "beat": 285.75,
    "relBeat": 5.75,
    "duration": 0.25,
    "velocity": 100,
    "pitch": 60
  },
  {
    "clipIndex": 486,
    "trackId": "22",
    "clipName": null,
    "beat": 285.75,
    "relBeat": 2.75,
    "duration": 0.25,
    "velocity": 100,
    "pitch": 60
  },
  {
    "clipIndex": 483,
    "trackId": "22",
    "clipName": null,
    "beat": 286,
    "relBeat": 17,
    "duration": 0.25,
    "velocity": 100,
    "pitch": 60
  },
  {
    "clipIndex": 484,
    "trackId": "22",
    "clipName": null,
    "beat": 286,
    "relBeat": 14,
    "duration": 0.25,
    "velocity": 100,
    "pitch": 60
  },
  {
    "clipIndex": 486,
    "trackId": "22",
    "clipName": null,
    "beat": 286,
    "relBeat": 3,
    "duration": 0.25,
    "velocity": 100,
    "pitch": 60
  },
  {
    "clipIndex": 483,
    "trackId": "22",
    "clipName": null,
    "beat": 286.25,
    "relBeat": 17.25,
    "duration": 0.25,
    "velocity": 100,
    "pitch": 60
  },
  {
    "clipIndex": 484,
    "trackId": "22",
    "clipName": null,
    "beat": 286.25,
    "relBeat": 14.25,
    "duration": 0.25,
    "velocity": 100,
    "pitch": 60
  },
  {
    "clipIndex": 486,
    "trackId": "22",
    "clipName": null,
    "beat": 286.25,
    "relBeat": 3.25,
    "duration": 0.25,
    "velocity": 100,
    "pitch": 60
  },
  {
    "clipIndex": 0,
    "trackId": "89",
    "clipName": null,
    "beat": 286.5,
    "relBeat": 286.5,
    "duration": 0.25,
    "velocity": 100,
    "pitch": 60
  },
  {
    "clipIndex": 483,
    "trackId": "22",
    "clipName": null,
    "beat": 286.5,
    "relBeat": 17.5,
    "duration": 0.25,
    "velocity": 100,
    "pitch": 60
  },
  {
    "clipIndex": 484,
    "trackId": "22",
    "clipName": null,
    "beat": 286.5,
    "relBeat": 14.5,
    "duration": 0.25,
    "velocity": 100,
    "pitch": 60
  },
  {
    "clipIndex": 486,
    "trackId": "22",
    "clipName": null,
    "beat": 286.5,
    "relBeat": 3.5,
    "duration": 0.25,
    "velocity": 100,
    "pitch": 60
  },
  {
    "clipIndex": 483,
    "trackId": "22",
    "clipName": null,
    "beat": 286.75,
    "relBeat": 17.75,
    "duration": 0.25,
    "velocity": 100,
    "pitch": 60
  },
  {
    "clipIndex": 484,
    "trackId": "22",
    "clipName": null,
    "beat": 286.75,
    "relBeat": 14.75,
    "duration": 0.25,
    "velocity": 100,
    "pitch": 60
  },
  {
    "clipIndex": 486,
    "trackId": "22",
    "clipName": null,
    "beat": 286.75,
    "relBeat": 3.75,
    "duration": 0.25,
    "velocity": 100,
    "pitch": 60
  },
  {
    "clipIndex": 345,
    "trackId": "55",
    "clipName": null,
    "beat": 287,
    "relBeat": 3,
    "duration": 0.25000026015651017,
    "velocity": 100,
    "pitch": 60
  },
  {
    "clipIndex": 350,
    "trackId": "60",
    "clipName": null,
    "beat": 287,
    "relBeat": 287,
    "duration": 0.25,
    "velocity": 100,
    "pitch": 60
  },
  {
    "clipIndex": 483,
    "trackId": "22",
    "clipName": null,
    "beat": 287,
    "relBeat": 18,
    "duration": 0.25,
    "velocity": 100,
    "pitch": 60
  },
  {
    "clipIndex": 484,
    "trackId": "22",
    "clipName": null,
    "beat": 287,
    "relBeat": 15,
    "duration": 0.25,
    "velocity": 100,
    "pitch": 60
  },
  {
    "clipIndex": 486,
    "trackId": "22",
    "clipName": null,
    "beat": 287,
    "relBeat": 4,
    "duration": 0.25,
    "velocity": 100,
    "pitch": 60
  },
  {
    "clipIndex": 483,
    "trackId": "22",
    "clipName": null,
    "beat": 287.25,
    "relBeat": 18.25,
    "duration": 0.25,
    "velocity": 100,
    "pitch": 60
  },
  {
    "clipIndex": 484,
    "trackId": "22",
    "clipName": null,
    "beat": 287.25,
    "relBeat": 15.25,
    "duration": 0.25,
    "velocity": 100,
    "pitch": 60
  },
  {
    "clipIndex": 486,
    "trackId": "22",
    "clipName": null,
    "beat": 287.25,
    "relBeat": 4.25,
    "duration": 0.25,
    "velocity": 100,
    "pitch": 60
  },
  {
    "clipIndex": 338,
    "trackId": "55",
    "clipName": null,
    "beat": 287.5,
    "relBeat": 87.5,
    "duration": 0.25000026015651017,
    "velocity": 100,
    "pitch": 60
  },
  {
    "clipIndex": 483,
    "trackId": "22",
    "clipName": null,
    "beat": 287.5,
    "relBeat": 18.5,
    "duration": 0.25,
    "velocity": 100,
    "pitch": 60
  },
  {
    "clipIndex": 484,
    "trackId": "22",
    "clipName": null,
    "beat": 287.5,
    "relBeat": 15.5,
    "duration": 0.25,
    "velocity": 100,
    "pitch": 60
  },
  {
    "clipIndex": 486,
    "trackId": "22",
    "clipName": null,
    "beat": 287.5,
    "relBeat": 4.5,
    "duration": 0.25,
    "velocity": 100,
    "pitch": 60
  },
  {
    "clipIndex": 483,
    "trackId": "22",
    "clipName": null,
    "beat": 287.75,
    "relBeat": 18.75,
    "duration": 0.25,
    "velocity": 100,
    "pitch": 60
  },
  {
    "clipIndex": 484,
    "trackId": "22",
    "clipName": null,
    "beat": 287.75,
    "relBeat": 15.75,
    "duration": 0.25,
    "velocity": 100,
    "pitch": 60
  },
  {
    "clipIndex": 486,
    "trackId": "22",
    "clipName": null,
    "beat": 287.75,
    "relBeat": 4.75,
    "duration": 0.25,
    "velocity": 100,
    "pitch": 60
  },
  {
    "clipIndex": 482,
    "trackId": "22",
    "clipName": null,
    "beat": 288,
    "relBeat": 24,
    "duration": 0.25,
    "velocity": 100,
    "pitch": 60
  },
  {
    "clipIndex": 483,
    "trackId": "22",
    "clipName": null,
    "beat": 288,
    "relBeat": 19,
    "duration": 0.25,
    "velocity": 100,
    "pitch": 60
  },
  {
    "clipIndex": 484,
    "trackId": "22",
    "clipName": null,
    "beat": 288,
    "relBeat": 16,
    "duration": 0.25,
    "velocity": 100,
    "pitch": 60
  },
  {
    "clipIndex": 486,
    "trackId": "22",
    "clipName": null,
    "beat": 288,
    "relBeat": 5,
    "duration": 0.25,
    "velocity": 100,
    "pitch": 60
  },
  {
    "clipIndex": 487,
    "trackId": "22",
    "clipName": null,
    "beat": 288,
    "relBeat": 0,
    "duration": 0.25,
    "velocity": 100,
    "pitch": 60
  },
  {
    "clipIndex": 482,
    "trackId": "22",
    "clipName": null,
    "beat": 288.25,
    "relBeat": 24.25,
    "duration": 0.25,
    "velocity": 100,
    "pitch": 60
  },
  {
    "clipIndex": 483,
    "trackId": "22",
    "clipName": null,
    "beat": 288.25,
    "relBeat": 19.25,
    "duration": 0.25,
    "velocity": 100,
    "pitch": 60
  },
  {
    "clipIndex": 484,
    "trackId": "22",
    "clipName": null,
    "beat": 288.25,
    "relBeat": 16.25,
    "duration": 0.25,
    "velocity": 100,
    "pitch": 60
  },
  {
    "clipIndex": 486,
    "trackId": "22",
    "clipName": null,
    "beat": 288.25,
    "relBeat": 5.25,
    "duration": 0.25,
    "velocity": 100,
    "pitch": 60
  },
  {
    "clipIndex": 487,
    "trackId": "22",
    "clipName": null,
    "beat": 288.25,
    "relBeat": 0.25,
    "duration": 0.25,
    "velocity": 100,
    "pitch": 60
  },
  {
    "clipIndex": 482,
    "trackId": "22",
    "clipName": null,
    "beat": 288.5,
    "relBeat": 24.5,
    "duration": 0.25,
    "velocity": 100,
    "pitch": 60
  },
  {
    "clipIndex": 483,
    "trackId": "22",
    "clipName": null,
    "beat": 288.5,
    "relBeat": 19.5,
    "duration": 0.25,
    "velocity": 100,
    "pitch": 60
  },
  {
    "clipIndex": 484,
    "trackId": "22",
    "clipName": null,
    "beat": 288.5,
    "relBeat": 16.5,
    "duration": 0.25,
    "velocity": 100,
    "pitch": 60
  },
  {
    "clipIndex": 486,
    "trackId": "22",
    "clipName": null,
    "beat": 288.5,
    "relBeat": 5.5,
    "duration": 0.25,
    "velocity": 100,
    "pitch": 60
  },
  {
    "clipIndex": 487,
    "trackId": "22",
    "clipName": null,
    "beat": 288.5,
    "relBeat": 0.5,
    "duration": 0.25,
    "velocity": 100,
    "pitch": 60
  },
  {
    "clipIndex": 482,
    "trackId": "22",
    "clipName": null,
    "beat": 288.75,
    "relBeat": 24.75,
    "duration": 0.25,
    "velocity": 100,
    "pitch": 60
  },
  {
    "clipIndex": 483,
    "trackId": "22",
    "clipName": null,
    "beat": 288.75,
    "relBeat": 19.75,
    "duration": 0.25,
    "velocity": 100,
    "pitch": 60
  },
  {
    "clipIndex": 484,
    "trackId": "22",
    "clipName": null,
    "beat": 288.75,
    "relBeat": 16.75,
    "duration": 0.25,
    "velocity": 100,
    "pitch": 60
  },
  {
    "clipIndex": 486,
    "trackId": "22",
    "clipName": null,
    "beat": 288.75,
    "relBeat": 5.75,
    "duration": 0.25,
    "velocity": 100,
    "pitch": 60
  },
  {
    "clipIndex": 487,
    "trackId": "22",
    "clipName": null,
    "beat": 288.75,
    "relBeat": 0.75,
    "duration": 0.25,
    "velocity": 100,
    "pitch": 60
  },
  {
    "clipIndex": 0,
    "trackId": "89",
    "clipName": null,
    "beat": 289,
    "relBeat": 289,
    "duration": 0.25,
    "velocity": 100,
    "pitch": 60
  },
  {
    "clipIndex": 345,
    "trackId": "55",
    "clipName": null,
    "beat": 289,
    "relBeat": 5,
    "duration": 0.25000026015651017,
    "velocity": 100,
    "pitch": 60
  },
  {
    "clipIndex": 346,
    "trackId": "55",
    "clipName": null,
    "beat": 289,
    "relBeat": 1,
    "duration": 0.25000026015651017,
    "velocity": 100,
    "pitch": 60
  },
  {
    "clipIndex": 350,
    "trackId": "60",
    "clipName": null,
    "beat": 289,
    "relBeat": 289,
    "duration": 0.25,
    "velocity": 100,
    "pitch": 60
  },
  {
    "clipIndex": 482,
    "trackId": "22",
    "clipName": null,
    "beat": 289,
    "relBeat": 25,
    "duration": 0.25,
    "velocity": 100,
    "pitch": 60
  },
  {
    "clipIndex": 483,
    "trackId": "22",
    "clipName": null,
    "beat": 289,
    "relBeat": 20,
    "duration": 0.25,
    "velocity": 100,
    "pitch": 60
  },
  {
    "clipIndex": 484,
    "trackId": "22",
    "clipName": null,
    "beat": 289,
    "relBeat": 17,
    "duration": 0.25,
    "velocity": 100,
    "pitch": 60
  },
  {
    "clipIndex": 485,
    "trackId": "22",
    "clipName": null,
    "beat": 289,
    "relBeat": 9,
    "duration": 0.25,
    "velocity": 100,
    "pitch": 60
  },
  {
    "clipIndex": 487,
    "trackId": "22",
    "clipName": null,
    "beat": 289,
    "relBeat": 1,
    "duration": 0.25,
    "velocity": 100,
    "pitch": 60
  },
  {
    "clipIndex": 482,
    "trackId": "22",
    "clipName": null,
    "beat": 289.25,
    "relBeat": 25.25,
    "duration": 0.25,
    "velocity": 100,
    "pitch": 60
  },
  {
    "clipIndex": 483,
    "trackId": "22",
    "clipName": null,
    "beat": 289.25,
    "relBeat": 20.25,
    "duration": 0.25,
    "velocity": 100,
    "pitch": 60
  },
  {
    "clipIndex": 484,
    "trackId": "22",
    "clipName": null,
    "beat": 289.25,
    "relBeat": 17.25,
    "duration": 0.25,
    "velocity": 100,
    "pitch": 60
  },
  {
    "clipIndex": 485,
    "trackId": "22",
    "clipName": null,
    "beat": 289.25,
    "relBeat": 9.25,
    "duration": 0.25,
    "velocity": 100,
    "pitch": 60
  },
  {
    "clipIndex": 487,
    "trackId": "22",
    "clipName": null,
    "beat": 289.25,
    "relBeat": 1.25,
    "duration": 0.25,
    "velocity": 100,
    "pitch": 60
  },
  {
    "clipIndex": 482,
    "trackId": "22",
    "clipName": null,
    "beat": 289.5,
    "relBeat": 25.5,
    "duration": 0.25,
    "velocity": 100,
    "pitch": 60
  },
  {
    "clipIndex": 483,
    "trackId": "22",
    "clipName": null,
    "beat": 289.5,
    "relBeat": 20.5,
    "duration": 0.25,
    "velocity": 100,
    "pitch": 60
  },
  {
    "clipIndex": 484,
    "trackId": "22",
    "clipName": null,
    "beat": 289.5,
    "relBeat": 17.5,
    "duration": 0.25,
    "velocity": 100,
    "pitch": 60
  },
  {
    "clipIndex": 485,
    "trackId": "22",
    "clipName": null,
    "beat": 289.5,
    "relBeat": 9.5,
    "duration": 0.25,
    "velocity": 100,
    "pitch": 60
  },
  {
    "clipIndex": 487,
    "trackId": "22",
    "clipName": null,
    "beat": 289.5,
    "relBeat": 1.5,
    "duration": 0.25,
    "velocity": 100,
    "pitch": 60
  },
  {
    "clipIndex": 482,
    "trackId": "22",
    "clipName": null,
    "beat": 289.75,
    "relBeat": 25.75,
    "duration": 0.25,
    "velocity": 100,
    "pitch": 60
  },
  {
    "clipIndex": 483,
    "trackId": "22",
    "clipName": null,
    "beat": 289.75,
    "relBeat": 20.75,
    "duration": 0.25,
    "velocity": 100,
    "pitch": 60
  },
  {
    "clipIndex": 484,
    "trackId": "22",
    "clipName": null,
    "beat": 289.75,
    "relBeat": 17.75,
    "duration": 0.25,
    "velocity": 100,
    "pitch": 60
  },
  {
    "clipIndex": 485,
    "trackId": "22",
    "clipName": null,
    "beat": 289.75,
    "relBeat": 9.75,
    "duration": 0.25,
    "velocity": 100,
    "pitch": 60
  },
  {
    "clipIndex": 487,
    "trackId": "22",
    "clipName": null,
    "beat": 289.75,
    "relBeat": 1.75,
    "duration": 0.25,
    "velocity": 100,
    "pitch": 60
  },
  {
    "clipIndex": 0,
    "trackId": "89",
    "clipName": null,
    "beat": 290,
    "relBeat": 290,
    "duration": 0.25,
    "velocity": 100,
    "pitch": 60
  },
  {
    "clipIndex": 482,
    "trackId": "22",
    "clipName": null,
    "beat": 290,
    "relBeat": 26,
    "duration": 0.25,
    "velocity": 100,
    "pitch": 60
  },
  {
    "clipIndex": 483,
    "trackId": "22",
    "clipName": null,
    "beat": 290,
    "relBeat": 21,
    "duration": 0.25,
    "velocity": 100,
    "pitch": 60
  },
  {
    "clipIndex": 484,
    "trackId": "22",
    "clipName": null,
    "beat": 290,
    "relBeat": 18,
    "duration": 0.25,
    "velocity": 100,
    "pitch": 60
  },
  {
    "clipIndex": 485,
    "trackId": "22",
    "clipName": null,
    "beat": 290,
    "relBeat": 10,
    "duration": 0.25,
    "velocity": 100,
    "pitch": 60
  },
  {
    "clipIndex": 487,
    "trackId": "22",
    "clipName": null,
    "beat": 290,
    "relBeat": 2,
    "duration": 0.25,
    "velocity": 100,
    "pitch": 60
  },
  {
    "clipIndex": 488,
    "trackId": "22",
    "clipName": null,
    "beat": 290,
    "relBeat": 0,
    "duration": 0.25,
    "velocity": 100,
    "pitch": 60
  },
  {
    "clipIndex": 482,
    "trackId": "22",
    "clipName": null,
    "beat": 290.25,
    "relBeat": 26.25,
    "duration": 0.25,
    "velocity": 100,
    "pitch": 60
  },
  {
    "clipIndex": 483,
    "trackId": "22",
    "clipName": null,
    "beat": 290.25,
    "relBeat": 21.25,
    "duration": 0.25,
    "velocity": 100,
    "pitch": 60
  },
  {
    "clipIndex": 484,
    "trackId": "22",
    "clipName": null,
    "beat": 290.25,
    "relBeat": 18.25,
    "duration": 0.25,
    "velocity": 100,
    "pitch": 60
  },
  {
    "clipIndex": 487,
    "trackId": "22",
    "clipName": null,
    "beat": 290.25,
    "relBeat": 2.25,
    "duration": 0.25,
    "velocity": 100,
    "pitch": 60
  },
  {
    "clipIndex": 488,
    "trackId": "22",
    "clipName": null,
    "beat": 290.25,
    "relBeat": 0.25,
    "duration": 0.25,
    "velocity": 100,
    "pitch": 60
  },
  {
    "clipIndex": 482,
    "trackId": "22",
    "clipName": null,
    "beat": 290.5,
    "relBeat": 26.5,
    "duration": 0.25,
    "velocity": 100,
    "pitch": 60
  },
  {
    "clipIndex": 484,
    "trackId": "22",
    "clipName": null,
    "beat": 290.5,
    "relBeat": 18.5,
    "duration": 0.25,
    "velocity": 100,
    "pitch": 60
  },
  {
    "clipIndex": 487,
    "trackId": "22",
    "clipName": null,
    "beat": 290.5,
    "relBeat": 2.5,
    "duration": 0.25,
    "velocity": 100,
    "pitch": 60
  },
  {
    "clipIndex": 488,
    "trackId": "22",
    "clipName": null,
    "beat": 290.5,
    "relBeat": 0.5,
    "duration": 0.25,
    "velocity": 100,
    "pitch": 60
  },
  {
    "clipIndex": 482,
    "trackId": "22",
    "clipName": null,
    "beat": 290.75,
    "relBeat": 26.75,
    "duration": 0.25,
    "velocity": 100,
    "pitch": 60
  },
  {
    "clipIndex": 484,
    "trackId": "22",
    "clipName": null,
    "beat": 290.75,
    "relBeat": 18.75,
    "duration": 0.25,
    "velocity": 100,
    "pitch": 60
  },
  {
    "clipIndex": 487,
    "trackId": "22",
    "clipName": null,
    "beat": 290.75,
    "relBeat": 2.75,
    "duration": 0.25,
    "velocity": 100,
    "pitch": 60
  },
  {
    "clipIndex": 488,
    "trackId": "22",
    "clipName": null,
    "beat": 290.75,
    "relBeat": 0.75,
    "duration": 0.25,
    "velocity": 100,
    "pitch": 60
  },
  {
    "clipIndex": 345,
    "trackId": "55",
    "clipName": null,
    "beat": 291,
    "relBeat": 7,
    "duration": 0.25000026015651017,
    "velocity": 100,
    "pitch": 60
  },
  {
    "clipIndex": 346,
    "trackId": "55",
    "clipName": null,
    "beat": 291,
    "relBeat": 3,
    "duration": 0.25000026015651017,
    "velocity": 100,
    "pitch": 60
  },
  {
    "clipIndex": 350,
    "trackId": "60",
    "clipName": null,
    "beat": 291,
    "relBeat": 291,
    "duration": 0.25,
    "velocity": 100,
    "pitch": 60
  },
  {
    "clipIndex": 482,
    "trackId": "22",
    "clipName": null,
    "beat": 291,
    "relBeat": 27,
    "duration": 0.25,
    "velocity": 100,
    "pitch": 60
  },
  {
    "clipIndex": 484,
    "trackId": "22",
    "clipName": null,
    "beat": 291,
    "relBeat": 19,
    "duration": 0.25,
    "velocity": 100,
    "pitch": 60
  },
  {
    "clipIndex": 487,
    "trackId": "22",
    "clipName": null,
    "beat": 291,
    "relBeat": 3,
    "duration": 0.25,
    "velocity": 100,
    "pitch": 60
  },
  {
    "clipIndex": 488,
    "trackId": "22",
    "clipName": null,
    "beat": 291,
    "relBeat": 1,
    "duration": 0.25,
    "velocity": 100,
    "pitch": 60
  },
  {
    "clipIndex": 0,
    "trackId": "89",
    "clipName": null,
    "beat": 291.25,
    "relBeat": 291.25,
    "duration": 0.25,
    "velocity": 100,
    "pitch": 60
  },
  {
    "clipIndex": 482,
    "trackId": "22",
    "clipName": null,
    "beat": 291.25,
    "relBeat": 27.25,
    "duration": 0.25,
    "velocity": 100,
    "pitch": 60
  },
  {
    "clipIndex": 484,
    "trackId": "22",
    "clipName": null,
    "beat": 291.25,
    "relBeat": 19.25,
    "duration": 0.25,
    "velocity": 100,
    "pitch": 60
  },
  {
    "clipIndex": 487,
    "trackId": "22",
    "clipName": null,
    "beat": 291.25,
    "relBeat": 3.25,
    "duration": 0.25,
    "velocity": 100,
    "pitch": 60
  },
  {
    "clipIndex": 488,
    "trackId": "22",
    "clipName": null,
    "beat": 291.25,
    "relBeat": 1.25,
    "duration": 0.25,
    "velocity": 100,
    "pitch": 60
  },
  {
    "clipIndex": 0,
    "trackId": "89",
    "clipName": null,
    "beat": 291.5,
    "relBeat": 291.5,
    "duration": 0.25,
    "velocity": 100,
    "pitch": 60
  },
  {
    "clipIndex": 482,
    "trackId": "22",
    "clipName": null,
    "beat": 291.5,
    "relBeat": 27.5,
    "duration": 0.25,
    "velocity": 100,
    "pitch": 60
  },
  {
    "clipIndex": 484,
    "trackId": "22",
    "clipName": null,
    "beat": 291.5,
    "relBeat": 19.5,
    "duration": 0.25,
    "velocity": 100,
    "pitch": 60
  },
  {
    "clipIndex": 487,
    "trackId": "22",
    "clipName": null,
    "beat": 291.5,
    "relBeat": 3.5,
    "duration": 0.25,
    "velocity": 100,
    "pitch": 60
  },
  {
    "clipIndex": 488,
    "trackId": "22",
    "clipName": null,
    "beat": 291.5,
    "relBeat": 1.5,
    "duration": 0.25,
    "velocity": 100,
    "pitch": 60
  },
  {
    "clipIndex": 482,
    "trackId": "22",
    "clipName": null,
    "beat": 291.75,
    "relBeat": 27.75,
    "duration": 0.25,
    "velocity": 100,
    "pitch": 60
  },
  {
    "clipIndex": 484,
    "trackId": "22",
    "clipName": null,
    "beat": 291.75,
    "relBeat": 19.75,
    "duration": 0.25,
    "velocity": 100,
    "pitch": 60
  },
  {
    "clipIndex": 487,
    "trackId": "22",
    "clipName": null,
    "beat": 291.75,
    "relBeat": 3.75,
    "duration": 0.25,
    "velocity": 100,
    "pitch": 60
  },
  {
    "clipIndex": 488,
    "trackId": "22",
    "clipName": null,
    "beat": 291.75,
    "relBeat": 1.75,
    "duration": 0.25,
    "velocity": 100,
    "pitch": 60
  },
  {
    "clipIndex": 482,
    "trackId": "22",
    "clipName": null,
    "beat": 292,
    "relBeat": 28,
    "duration": 0.25,
    "velocity": 100,
    "pitch": 60
  },
  {
    "clipIndex": 484,
    "trackId": "22",
    "clipName": null,
    "beat": 292,
    "relBeat": 20,
    "duration": 0.25,
    "velocity": 100,
    "pitch": 60
  },
  {
    "clipIndex": 485,
    "trackId": "22",
    "clipName": null,
    "beat": 292,
    "relBeat": 12,
    "duration": 0.25,
    "velocity": 100,
    "pitch": 60
  },
  {
    "clipIndex": 486,
    "trackId": "22",
    "clipName": null,
    "beat": 292,
    "relBeat": 9,
    "duration": 0.25,
    "velocity": 100,
    "pitch": 60
  },
  {
    "clipIndex": 487,
    "trackId": "22",
    "clipName": null,
    "beat": 292,
    "relBeat": 4,
    "duration": 0.25,
    "velocity": 100,
    "pitch": 60
  },
  {
    "clipIndex": 488,
    "trackId": "22",
    "clipName": null,
    "beat": 292,
    "relBeat": 2,
    "duration": 0.25,
    "velocity": 100,
    "pitch": 60
  },
  {
    "clipIndex": 489,
    "trackId": "22",
    "clipName": null,
    "beat": 292,
    "relBeat": 0,
    "duration": 0.25,
    "velocity": 100,
    "pitch": 60
  },
  {
    "clipIndex": 482,
    "trackId": "22",
    "clipName": null,
    "beat": 292.25,
    "relBeat": 28.25,
    "duration": 0.25,
    "velocity": 100,
    "pitch": 60
  },
  {
    "clipIndex": 484,
    "trackId": "22",
    "clipName": null,
    "beat": 292.25,
    "relBeat": 20.25,
    "duration": 0.25,
    "velocity": 100,
    "pitch": 60
  },
  {
    "clipIndex": 485,
    "trackId": "22",
    "clipName": null,
    "beat": 292.25,
    "relBeat": 12.25,
    "duration": 0.25,
    "velocity": 100,
    "pitch": 60
  },
  {
    "clipIndex": 486,
    "trackId": "22",
    "clipName": null,
    "beat": 292.25,
    "relBeat": 9.25,
    "duration": 0.25,
    "velocity": 100,
    "pitch": 60
  },
  {
    "clipIndex": 487,
    "trackId": "22",
    "clipName": null,
    "beat": 292.25,
    "relBeat": 4.25,
    "duration": 0.25,
    "velocity": 100,
    "pitch": 60
  },
  {
    "clipIndex": 488,
    "trackId": "22",
    "clipName": null,
    "beat": 292.25,
    "relBeat": 2.25,
    "duration": 0.25,
    "velocity": 100,
    "pitch": 60
  },
  {
    "clipIndex": 489,
    "trackId": "22",
    "clipName": null,
    "beat": 292.25,
    "relBeat": 0.25,
    "duration": 0.25,
    "velocity": 100,
    "pitch": 60
  },
  {
    "clipIndex": 482,
    "trackId": "22",
    "clipName": null,
    "beat": 292.5,
    "relBeat": 28.5,
    "duration": 0.25,
    "velocity": 100,
    "pitch": 60
  },
  {
    "clipIndex": 484,
    "trackId": "22",
    "clipName": null,
    "beat": 292.5,
    "relBeat": 20.5,
    "duration": 0.25,
    "velocity": 100,
    "pitch": 60
  },
  {
    "clipIndex": 485,
    "trackId": "22",
    "clipName": null,
    "beat": 292.5,
    "relBeat": 12.5,
    "duration": 0.25,
    "velocity": 100,
    "pitch": 60
  },
  {
    "clipIndex": 486,
    "trackId": "22",
    "clipName": null,
    "beat": 292.5,
    "relBeat": 9.5,
    "duration": 0.25,
    "velocity": 100,
    "pitch": 60
  },
  {
    "clipIndex": 487,
    "trackId": "22",
    "clipName": null,
    "beat": 292.5,
    "relBeat": 4.5,
    "duration": 0.25,
    "velocity": 100,
    "pitch": 60
  },
  {
    "clipIndex": 488,
    "trackId": "22",
    "clipName": null,
    "beat": 292.5,
    "relBeat": 2.5,
    "duration": 0.25,
    "velocity": 100,
    "pitch": 60
  },
  {
    "clipIndex": 489,
    "trackId": "22",
    "clipName": null,
    "beat": 292.5,
    "relBeat": 0.5,
    "duration": 0.25,
    "velocity": 100,
    "pitch": 60
  },
  {
    "clipIndex": 482,
    "trackId": "22",
    "clipName": null,
    "beat": 292.75,
    "relBeat": 28.75,
    "duration": 0.25,
    "velocity": 100,
    "pitch": 60
  },
  {
    "clipIndex": 484,
    "trackId": "22",
    "clipName": null,
    "beat": 292.75,
    "relBeat": 20.75,
    "duration": 0.25,
    "velocity": 100,
    "pitch": 60
  },
  {
    "clipIndex": 485,
    "trackId": "22",
    "clipName": null,
    "beat": 292.75,
    "relBeat": 12.75,
    "duration": 0.25,
    "velocity": 100,
    "pitch": 60
  },
  {
    "clipIndex": 486,
    "trackId": "22",
    "clipName": null,
    "beat": 292.75,
    "relBeat": 9.75,
    "duration": 0.25,
    "velocity": 100,
    "pitch": 60
  },
  {
    "clipIndex": 487,
    "trackId": "22",
    "clipName": null,
    "beat": 292.75,
    "relBeat": 4.75,
    "duration": 0.25,
    "velocity": 100,
    "pitch": 60
  },
  {
    "clipIndex": 488,
    "trackId": "22",
    "clipName": null,
    "beat": 292.75,
    "relBeat": 2.75,
    "duration": 0.25,
    "velocity": 100,
    "pitch": 60
  },
  {
    "clipIndex": 489,
    "trackId": "22",
    "clipName": null,
    "beat": 292.75,
    "relBeat": 0.75,
    "duration": 0.25,
    "velocity": 100,
    "pitch": 60
  },
  {
    "clipIndex": 0,
    "trackId": "89",
    "clipName": null,
    "beat": 293,
    "relBeat": 293,
    "duration": 0.25,
    "velocity": 100,
    "pitch": 60
  },
  {
    "clipIndex": 345,
    "trackId": "55",
    "clipName": null,
    "beat": 293,
    "relBeat": 9,
    "duration": 0.25000026015651017,
    "velocity": 100,
    "pitch": 60
  },
  {
    "clipIndex": 346,
    "trackId": "55",
    "clipName": null,
    "beat": 293,
    "relBeat": 5,
    "duration": 0.25000026015651017,
    "velocity": 100,
    "pitch": 60
  },
  {
    "clipIndex": 347,
    "trackId": "55",
    "clipName": null,
    "beat": 293,
    "relBeat": 1,
    "duration": 0.25000026015651017,
    "velocity": 100,
    "pitch": 60
  },
  {
    "clipIndex": 350,
    "trackId": "60",
    "clipName": null,
    "beat": 293,
    "relBeat": 293,
    "duration": 0.25,
    "velocity": 100,
    "pitch": 60
  },
  {
    "clipIndex": 482,
    "trackId": "22",
    "clipName": null,
    "beat": 293,
    "relBeat": 29,
    "duration": 0.25,
    "velocity": 100,
    "pitch": 60
  },
  {
    "clipIndex": 483,
    "trackId": "22",
    "clipName": null,
    "beat": 293,
    "relBeat": 24,
    "duration": 0.25,
    "velocity": 100,
    "pitch": 60
  },
  {
    "clipIndex": 484,
    "trackId": "22",
    "clipName": null,
    "beat": 293,
    "relBeat": 21,
    "duration": 0.25,
    "velocity": 100,
    "pitch": 60
  },
  {
    "clipIndex": 485,
    "trackId": "22",
    "clipName": null,
    "beat": 293,
    "relBeat": 13,
    "duration": 0.25,
    "velocity": 100,
    "pitch": 60
  },
  {
    "clipIndex": 486,
    "trackId": "22",
    "clipName": null,
    "beat": 293,
    "relBeat": 10,
    "duration": 0.25,
    "velocity": 100,
    "pitch": 60
  },
  {
    "clipIndex": 487,
    "trackId": "22",
    "clipName": null,
    "beat": 293,
    "relBeat": 5,
    "duration": 0.25,
    "velocity": 100,
    "pitch": 60
  },
  {
    "clipIndex": 488,
    "trackId": "22",
    "clipName": null,
    "beat": 293,
    "relBeat": 3,
    "duration": 0.25,
    "velocity": 100,
    "pitch": 60
  },
  {
    "clipIndex": 489,
    "trackId": "22",
    "clipName": null,
    "beat": 293,
    "relBeat": 1,
    "duration": 0.25,
    "velocity": 100,
    "pitch": 60
  },
  {
    "clipIndex": 482,
    "trackId": "22",
    "clipName": null,
    "beat": 293.25,
    "relBeat": 29.25,
    "duration": 0.25,
    "velocity": 100,
    "pitch": 60
  },
  {
    "clipIndex": 483,
    "trackId": "22",
    "clipName": null,
    "beat": 293.25,
    "relBeat": 24.25,
    "duration": 0.25,
    "velocity": 100,
    "pitch": 60
  },
  {
    "clipIndex": 484,
    "trackId": "22",
    "clipName": null,
    "beat": 293.25,
    "relBeat": 21.25,
    "duration": 0.25,
    "velocity": 100,
    "pitch": 60
  },
  {
    "clipIndex": 485,
    "trackId": "22",
    "clipName": null,
    "beat": 293.25,
    "relBeat": 13.25,
    "duration": 0.25,
    "velocity": 100,
    "pitch": 60
  },
  {
    "clipIndex": 487,
    "trackId": "22",
    "clipName": null,
    "beat": 293.25,
    "relBeat": 5.25,
    "duration": 0.25,
    "velocity": 100,
    "pitch": 60
  },
  {
    "clipIndex": 488,
    "trackId": "22",
    "clipName": null,
    "beat": 293.25,
    "relBeat": 3.25,
    "duration": 0.25,
    "velocity": 100,
    "pitch": 60
  },
  {
    "clipIndex": 489,
    "trackId": "22",
    "clipName": null,
    "beat": 293.25,
    "relBeat": 1.25,
    "duration": 0.25,
    "velocity": 100,
    "pitch": 60
  },
  {
    "clipIndex": 482,
    "trackId": "22",
    "clipName": null,
    "beat": 293.5,
    "relBeat": 29.5,
    "duration": 0.25,
    "velocity": 100,
    "pitch": 60
  },
  {
    "clipIndex": 483,
    "trackId": "22",
    "clipName": null,
    "beat": 293.5,
    "relBeat": 24.5,
    "duration": 0.25,
    "velocity": 100,
    "pitch": 60
  },
  {
    "clipIndex": 485,
    "trackId": "22",
    "clipName": null,
    "beat": 293.5,
    "relBeat": 13.5,
    "duration": 0.25,
    "velocity": 100,
    "pitch": 60
  },
  {
    "clipIndex": 487,
    "trackId": "22",
    "clipName": null,
    "beat": 293.5,
    "relBeat": 5.5,
    "duration": 0.25,
    "velocity": 100,
    "pitch": 60
  },
  {
    "clipIndex": 488,
    "trackId": "22",
    "clipName": null,
    "beat": 293.5,
    "relBeat": 3.5,
    "duration": 0.25,
    "velocity": 100,
    "pitch": 60
  },
  {
    "clipIndex": 489,
    "trackId": "22",
    "clipName": null,
    "beat": 293.5,
    "relBeat": 1.5,
    "duration": 0.25,
    "velocity": 100,
    "pitch": 60
  },
  {
    "clipIndex": 0,
    "trackId": "89",
    "clipName": null,
    "beat": 293.75,
    "relBeat": 293.75,
    "duration": 0.25,
    "velocity": 100,
    "pitch": 60
  },
  {
    "clipIndex": 482,
    "trackId": "22",
    "clipName": null,
    "beat": 293.75,
    "relBeat": 29.75,
    "duration": 0.25,
    "velocity": 100,
    "pitch": 60
  },
  {
    "clipIndex": 483,
    "trackId": "22",
    "clipName": null,
    "beat": 293.75,
    "relBeat": 24.75,
    "duration": 0.25,
    "velocity": 100,
    "pitch": 60
  },
  {
    "clipIndex": 485,
    "trackId": "22",
    "clipName": null,
    "beat": 293.75,
    "relBeat": 13.75,
    "duration": 0.25,
    "velocity": 100,
    "pitch": 60
  },
  {
    "clipIndex": 487,
    "trackId": "22",
    "clipName": null,
    "beat": 293.75,
    "relBeat": 5.75,
    "duration": 0.25,
    "velocity": 100,
    "pitch": 60
  },
  {
    "clipIndex": 488,
    "trackId": "22",
    "clipName": null,
    "beat": 293.75,
    "relBeat": 3.75,
    "duration": 0.25,
    "velocity": 100,
    "pitch": 60
  },
  {
    "clipIndex": 489,
    "trackId": "22",
    "clipName": null,
    "beat": 293.75,
    "relBeat": 1.75,
    "duration": 0.25,
    "velocity": 100,
    "pitch": 60
  },
  {
    "clipIndex": 482,
    "trackId": "22",
    "clipName": null,
    "beat": 294,
    "relBeat": 30,
    "duration": 0.25,
    "velocity": 100,
    "pitch": 60
  },
  {
    "clipIndex": 483,
    "trackId": "22",
    "clipName": null,
    "beat": 294,
    "relBeat": 25,
    "duration": 0.25,
    "velocity": 100,
    "pitch": 60
  },
  {
    "clipIndex": 485,
    "trackId": "22",
    "clipName": null,
    "beat": 294,
    "relBeat": 14,
    "duration": 0.25,
    "velocity": 100,
    "pitch": 60
  },
  {
    "clipIndex": 488,
    "trackId": "22",
    "clipName": null,
    "beat": 294,
    "relBeat": 4,
    "duration": 0.25,
    "velocity": 100,
    "pitch": 60
  },
  {
    "clipIndex": 489,
    "trackId": "22",
    "clipName": null,
    "beat": 294,
    "relBeat": 2,
    "duration": 0.25,
    "velocity": 100,
    "pitch": 60
  },
  {
    "clipIndex": 490,
    "trackId": "22",
    "clipName": null,
    "beat": 294,
    "relBeat": 0,
    "duration": 0.25,
    "velocity": 100,
    "pitch": 60
  },
  {
    "clipIndex": 482,
    "trackId": "22",
    "clipName": null,
    "beat": 294.25,
    "relBeat": 30.25,
    "duration": 0.25,
    "velocity": 100,
    "pitch": 60
  },
  {
    "clipIndex": 483,
    "trackId": "22",
    "clipName": null,
    "beat": 294.25,
    "relBeat": 25.25,
    "duration": 0.25,
    "velocity": 100,
    "pitch": 60
  },
  {
    "clipIndex": 485,
    "trackId": "22",
    "clipName": null,
    "beat": 294.25,
    "relBeat": 14.25,
    "duration": 0.25,
    "velocity": 100,
    "pitch": 60
  },
  {
    "clipIndex": 488,
    "trackId": "22",
    "clipName": null,
    "beat": 294.25,
    "relBeat": 4.25,
    "duration": 0.25,
    "velocity": 100,
    "pitch": 60
  },
  {
    "clipIndex": 489,
    "trackId": "22",
    "clipName": null,
    "beat": 294.25,
    "relBeat": 2.25,
    "duration": 0.25,
    "velocity": 100,
    "pitch": 60
  },
  {
    "clipIndex": 490,
    "trackId": "22",
    "clipName": null,
    "beat": 294.25,
    "relBeat": 0.25,
    "duration": 0.25,
    "velocity": 100,
    "pitch": 60
  },
  {
    "clipIndex": 0,
    "trackId": "89",
    "clipName": null,
    "beat": 294.5,
    "relBeat": 294.5,
    "duration": 0.25,
    "velocity": 100,
    "pitch": 60
  },
  {
    "clipIndex": 356,
    "trackId": "67",
    "clipName": null,
    "beat": 294.5,
    "relBeat": 294.5,
    "duration": 0.25000026015651017,
    "velocity": 100,
    "pitch": 72
  },
  {
    "clipIndex": 482,
    "trackId": "22",
    "clipName": null,
    "beat": 294.5,
    "relBeat": 30.5,
    "duration": 0.25,
    "velocity": 100,
    "pitch": 60
  },
  {
    "clipIndex": 483,
    "trackId": "22",
    "clipName": null,
    "beat": 294.5,
    "relBeat": 25.5,
    "duration": 0.25,
    "velocity": 100,
    "pitch": 60
  },
  {
    "clipIndex": 485,
    "trackId": "22",
    "clipName": null,
    "beat": 294.5,
    "relBeat": 14.5,
    "duration": 0.25,
    "velocity": 100,
    "pitch": 60
  },
  {
    "clipIndex": 488,
    "trackId": "22",
    "clipName": null,
    "beat": 294.5,
    "relBeat": 4.5,
    "duration": 0.25,
    "velocity": 100,
    "pitch": 60
  },
  {
    "clipIndex": 489,
    "trackId": "22",
    "clipName": null,
    "beat": 294.5,
    "relBeat": 2.5,
    "duration": 0.25,
    "velocity": 100,
    "pitch": 60
  },
  {
    "clipIndex": 490,
    "trackId": "22",
    "clipName": null,
    "beat": 294.5,
    "relBeat": 0.5,
    "duration": 0.25,
    "velocity": 100,
    "pitch": 60
  },
  {
    "clipIndex": 482,
    "trackId": "22",
    "clipName": null,
    "beat": 294.75,
    "relBeat": 30.75,
    "duration": 0.25,
    "velocity": 100,
    "pitch": 60
  },
  {
    "clipIndex": 483,
    "trackId": "22",
    "clipName": null,
    "beat": 294.75,
    "relBeat": 25.75,
    "duration": 0.25,
    "velocity": 100,
    "pitch": 60
  },
  {
    "clipIndex": 485,
    "trackId": "22",
    "clipName": null,
    "beat": 294.75,
    "relBeat": 14.75,
    "duration": 0.25,
    "velocity": 100,
    "pitch": 60
  },
  {
    "clipIndex": 488,
    "trackId": "22",
    "clipName": null,
    "beat": 294.75,
    "relBeat": 4.75,
    "duration": 0.25,
    "velocity": 100,
    "pitch": 60
  },
  {
    "clipIndex": 489,
    "trackId": "22",
    "clipName": null,
    "beat": 294.75,
    "relBeat": 2.75,
    "duration": 0.25,
    "velocity": 100,
    "pitch": 60
  },
  {
    "clipIndex": 490,
    "trackId": "22",
    "clipName": null,
    "beat": 294.75,
    "relBeat": 0.75,
    "duration": 0.25,
    "velocity": 100,
    "pitch": 60
  },
  {
    "clipIndex": 345,
    "trackId": "55",
    "clipName": null,
    "beat": 295,
    "relBeat": 11,
    "duration": 0.25000026015651017,
    "velocity": 100,
    "pitch": 60
  },
  {
    "clipIndex": 346,
    "trackId": "55",
    "clipName": null,
    "beat": 295,
    "relBeat": 7,
    "duration": 0.25000026015651017,
    "velocity": 100,
    "pitch": 60
  },
  {
    "clipIndex": 347,
    "trackId": "55",
    "clipName": null,
    "beat": 295,
    "relBeat": 3,
    "duration": 0.25000026015651017,
    "velocity": 100,
    "pitch": 60
  },
  {
    "clipIndex": 350,
    "trackId": "60",
    "clipName": null,
    "beat": 295,
    "relBeat": 295,
    "duration": 0.25,
    "velocity": 100,
    "pitch": 60
  },
  {
    "clipIndex": 482,
    "trackId": "22",
    "clipName": null,
    "beat": 295,
    "relBeat": 31,
    "duration": 0.25,
    "velocity": 100,
    "pitch": 60
  },
  {
    "clipIndex": 483,
    "trackId": "22",
    "clipName": null,
    "beat": 295,
    "relBeat": 26,
    "duration": 0.25,
    "velocity": 100,
    "pitch": 60
  },
  {
    "clipIndex": 485,
    "trackId": "22",
    "clipName": null,
    "beat": 295,
    "relBeat": 15,
    "duration": 0.25,
    "velocity": 100,
    "pitch": 60
  },
  {
    "clipIndex": 486,
    "trackId": "22",
    "clipName": null,
    "beat": 295,
    "relBeat": 12,
    "duration": 0.25,
    "velocity": 100,
    "pitch": 60
  },
  {
    "clipIndex": 488,
    "trackId": "22",
    "clipName": null,
    "beat": 295,
    "relBeat": 5,
    "duration": 0.25,
    "velocity": 100,
    "pitch": 60
  },
  {
    "clipIndex": 489,
    "trackId": "22",
    "clipName": null,
    "beat": 295,
    "relBeat": 3,
    "duration": 0.25,
    "velocity": 100,
    "pitch": 60
  },
  {
    "clipIndex": 490,
    "trackId": "22",
    "clipName": null,
    "beat": 295,
    "relBeat": 1,
    "duration": 0.25,
    "velocity": 100,
    "pitch": 60
  },
  {
    "clipIndex": 482,
    "trackId": "22",
    "clipName": null,
    "beat": 295.25,
    "relBeat": 31.25,
    "duration": 0.25,
    "velocity": 100,
    "pitch": 60
  },
  {
    "clipIndex": 483,
    "trackId": "22",
    "clipName": null,
    "beat": 295.25,
    "relBeat": 26.25,
    "duration": 0.25,
    "velocity": 100,
    "pitch": 60
  },
  {
    "clipIndex": 485,
    "trackId": "22",
    "clipName": null,
    "beat": 295.25,
    "relBeat": 15.25,
    "duration": 0.25,
    "velocity": 100,
    "pitch": 60
  },
  {
    "clipIndex": 486,
    "trackId": "22",
    "clipName": null,
    "beat": 295.25,
    "relBeat": 12.25,
    "duration": 0.25,
    "velocity": 100,
    "pitch": 60
  },
  {
    "clipIndex": 488,
    "trackId": "22",
    "clipName": null,
    "beat": 295.25,
    "relBeat": 5.25,
    "duration": 0.25,
    "velocity": 100,
    "pitch": 60
  },
  {
    "clipIndex": 489,
    "trackId": "22",
    "clipName": null,
    "beat": 295.25,
    "relBeat": 3.25,
    "duration": 0.25,
    "velocity": 100,
    "pitch": 60
  },
  {
    "clipIndex": 490,
    "trackId": "22",
    "clipName": null,
    "beat": 295.25,
    "relBeat": 1.25,
    "duration": 0.25,
    "velocity": 100,
    "pitch": 60
  },
  {
    "clipIndex": 482,
    "trackId": "22",
    "clipName": null,
    "beat": 295.5,
    "relBeat": 31.5,
    "duration": 0.25,
    "velocity": 100,
    "pitch": 60
  },
  {
    "clipIndex": 483,
    "trackId": "22",
    "clipName": null,
    "beat": 295.5,
    "relBeat": 26.5,
    "duration": 0.25,
    "velocity": 100,
    "pitch": 60
  },
  {
    "clipIndex": 485,
    "trackId": "22",
    "clipName": null,
    "beat": 295.5,
    "relBeat": 15.5,
    "duration": 0.25,
    "velocity": 100,
    "pitch": 60
  },
  {
    "clipIndex": 486,
    "trackId": "22",
    "clipName": null,
    "beat": 295.5,
    "relBeat": 12.5,
    "duration": 0.25,
    "velocity": 100,
    "pitch": 60
  },
  {
    "clipIndex": 488,
    "trackId": "22",
    "clipName": null,
    "beat": 295.5,
    "relBeat": 5.5,
    "duration": 0.25,
    "velocity": 100,
    "pitch": 60
  },
  {
    "clipIndex": 489,
    "trackId": "22",
    "clipName": null,
    "beat": 295.5,
    "relBeat": 3.5,
    "duration": 0.25,
    "velocity": 100,
    "pitch": 60
  },
  {
    "clipIndex": 490,
    "trackId": "22",
    "clipName": null,
    "beat": 295.5,
    "relBeat": 1.5,
    "duration": 0.25,
    "velocity": 100,
    "pitch": 60
  },
  {
    "clipIndex": 482,
    "trackId": "22",
    "clipName": null,
    "beat": 295.75,
    "relBeat": 31.75,
    "duration": 0.25,
    "velocity": 100,
    "pitch": 60
  },
  {
    "clipIndex": 483,
    "trackId": "22",
    "clipName": null,
    "beat": 295.75,
    "relBeat": 26.75,
    "duration": 0.25,
    "velocity": 100,
    "pitch": 60
  },
  {
    "clipIndex": 485,
    "trackId": "22",
    "clipName": null,
    "beat": 295.75,
    "relBeat": 15.75,
    "duration": 0.25,
    "velocity": 100,
    "pitch": 60
  },
  {
    "clipIndex": 486,
    "trackId": "22",
    "clipName": null,
    "beat": 295.75,
    "relBeat": 12.75,
    "duration": 0.25,
    "velocity": 100,
    "pitch": 60
  },
  {
    "clipIndex": 488,
    "trackId": "22",
    "clipName": null,
    "beat": 295.75,
    "relBeat": 5.75,
    "duration": 0.25,
    "velocity": 100,
    "pitch": 60
  },
  {
    "clipIndex": 489,
    "trackId": "22",
    "clipName": null,
    "beat": 295.75,
    "relBeat": 3.75,
    "duration": 0.25,
    "velocity": 100,
    "pitch": 60
  },
  {
    "clipIndex": 490,
    "trackId": "22",
    "clipName": null,
    "beat": 295.75,
    "relBeat": 1.75,
    "duration": 0.25,
    "velocity": 100,
    "pitch": 60
  },
  {
    "clipIndex": 483,
    "trackId": "22",
    "clipName": null,
    "beat": 296,
    "relBeat": 27,
    "duration": 0.25,
    "velocity": 100,
    "pitch": 60
  },
  {
    "clipIndex": 484,
    "trackId": "22",
    "clipName": null,
    "beat": 296,
    "relBeat": 24,
    "duration": 0.25,
    "velocity": 100,
    "pitch": 60
  },
  {
    "clipIndex": 485,
    "trackId": "22",
    "clipName": null,
    "beat": 296,
    "relBeat": 16,
    "duration": 0.25,
    "velocity": 100,
    "pitch": 60
  },
  {
    "clipIndex": 486,
    "trackId": "22",
    "clipName": null,
    "beat": 296,
    "relBeat": 13,
    "duration": 0.25,
    "velocity": 100,
    "pitch": 60
  },
  {
    "clipIndex": 489,
    "trackId": "22",
    "clipName": null,
    "beat": 296,
    "relBeat": 4,
    "duration": 0.25,
    "velocity": 100,
    "pitch": 60
  },
  {
    "clipIndex": 490,
    "trackId": "22",
    "clipName": null,
    "beat": 296,
    "relBeat": 2,
    "duration": 0.25,
    "velocity": 100,
    "pitch": 60
  },
  {
    "clipIndex": 491,
    "trackId": "22",
    "clipName": null,
    "beat": 296,
    "relBeat": 0,
    "duration": 0.25,
    "velocity": 100,
    "pitch": 60
  },
  {
    "clipIndex": 348,
    "trackId": "55",
    "clipName": null,
    "beat": 296.25,
    "relBeat": 0.25,
    "duration": 0.32496565934065935,
    "velocity": 100,
    "pitch": 60
  },
  {
    "clipIndex": 483,
    "trackId": "22",
    "clipName": null,
    "beat": 296.25,
    "relBeat": 27.25,
    "duration": 0.25,
    "velocity": 100,
    "pitch": 60
  },
  {
    "clipIndex": 484,
    "trackId": "22",
    "clipName": null,
    "beat": 296.25,
    "relBeat": 24.25,
    "duration": 0.25,
    "velocity": 100,
    "pitch": 60
  },
  {
    "clipIndex": 485,
    "trackId": "22",
    "clipName": null,
    "beat": 296.25,
    "relBeat": 16.25,
    "duration": 0.25,
    "velocity": 100,
    "pitch": 60
  },
  {
    "clipIndex": 486,
    "trackId": "22",
    "clipName": null,
    "beat": 296.25,
    "relBeat": 13.25,
    "duration": 0.25,
    "velocity": 100,
    "pitch": 60
  },
  {
    "clipIndex": 489,
    "trackId": "22",
    "clipName": null,
    "beat": 296.25,
    "relBeat": 4.25,
    "duration": 0.25,
    "velocity": 100,
    "pitch": 60
  },
  {
    "clipIndex": 490,
    "trackId": "22",
    "clipName": null,
    "beat": 296.25,
    "relBeat": 2.25,
    "duration": 0.25,
    "velocity": 100,
    "pitch": 60
  },
  {
    "clipIndex": 491,
    "trackId": "22",
    "clipName": null,
    "beat": 296.25,
    "relBeat": 0.25,
    "duration": 0.25,
    "velocity": 100,
    "pitch": 60
  },
  {
    "clipIndex": 483,
    "trackId": "22",
    "clipName": null,
    "beat": 296.5,
    "relBeat": 27.5,
    "duration": 0.25,
    "velocity": 100,
    "pitch": 60
  },
  {
    "clipIndex": 484,
    "trackId": "22",
    "clipName": null,
    "beat": 296.5,
    "relBeat": 24.5,
    "duration": 0.25,
    "velocity": 100,
    "pitch": 60
  },
  {
    "clipIndex": 485,
    "trackId": "22",
    "clipName": null,
    "beat": 296.5,
    "relBeat": 16.5,
    "duration": 0.25,
    "velocity": 100,
    "pitch": 60
  },
  {
    "clipIndex": 486,
    "trackId": "22",
    "clipName": null,
    "beat": 296.5,
    "relBeat": 13.5,
    "duration": 0.25,
    "velocity": 100,
    "pitch": 60
  },
  {
    "clipIndex": 489,
    "trackId": "22",
    "clipName": null,
    "beat": 296.5,
    "relBeat": 4.5,
    "duration": 0.25,
    "velocity": 100,
    "pitch": 60
  },
  {
    "clipIndex": 490,
    "trackId": "22",
    "clipName": null,
    "beat": 296.5,
    "relBeat": 2.5,
    "duration": 0.25,
    "velocity": 100,
    "pitch": 60
  },
  {
    "clipIndex": 491,
    "trackId": "22",
    "clipName": null,
    "beat": 296.5,
    "relBeat": 0.5,
    "duration": 0.25,
    "velocity": 100,
    "pitch": 60
  },
  {
    "clipIndex": 348,
    "trackId": "55",
    "clipName": null,
    "beat": 296.75,
    "relBeat": 0.75,
    "duration": 0.32496565934065935,
    "velocity": 100,
    "pitch": 60
  },
  {
    "clipIndex": 483,
    "trackId": "22",
    "clipName": null,
    "beat": 296.75,
    "relBeat": 27.75,
    "duration": 0.25,
    "velocity": 100,
    "pitch": 60
  },
  {
    "clipIndex": 484,
    "trackId": "22",
    "clipName": null,
    "beat": 296.75,
    "relBeat": 24.75,
    "duration": 0.25,
    "velocity": 100,
    "pitch": 60
  },
  {
    "clipIndex": 485,
    "trackId": "22",
    "clipName": null,
    "beat": 296.75,
    "relBeat": 16.75,
    "duration": 0.25,
    "velocity": 100,
    "pitch": 60
  },
  {
    "clipIndex": 486,
    "trackId": "22",
    "clipName": null,
    "beat": 296.75,
    "relBeat": 13.75,
    "duration": 0.25,
    "velocity": 100,
    "pitch": 60
  },
  {
    "clipIndex": 489,
    "trackId": "22",
    "clipName": null,
    "beat": 296.75,
    "relBeat": 4.75,
    "duration": 0.25,
    "velocity": 100,
    "pitch": 60
  },
  {
    "clipIndex": 490,
    "trackId": "22",
    "clipName": null,
    "beat": 296.75,
    "relBeat": 2.75,
    "duration": 0.25,
    "velocity": 100,
    "pitch": 60
  },
  {
    "clipIndex": 491,
    "trackId": "22",
    "clipName": null,
    "beat": 296.75,
    "relBeat": 0.75,
    "duration": 0.25,
    "velocity": 100,
    "pitch": 60
  },
  {
    "clipIndex": 0,
    "trackId": "89",
    "clipName": null,
    "beat": 297,
    "relBeat": 297,
    "duration": 0.25,
    "velocity": 100,
    "pitch": 60
  },
  {
    "clipIndex": 345,
    "trackId": "55",
    "clipName": null,
    "beat": 297,
    "relBeat": 13,
    "duration": 0.25000026015651017,
    "velocity": 100,
    "pitch": 60
  },
  {
    "clipIndex": 346,
    "trackId": "55",
    "clipName": null,
    "beat": 297,
    "relBeat": 9,
    "duration": 0.25000026015651017,
    "velocity": 100,
    "pitch": 60
  },
  {
    "clipIndex": 347,
    "trackId": "55",
    "clipName": null,
    "beat": 297,
    "relBeat": 5,
    "duration": 0.25000026015651017,
    "velocity": 100,
    "pitch": 60
  },
  {
    "clipIndex": 483,
    "trackId": "22",
    "clipName": null,
    "beat": 297,
    "relBeat": 28,
    "duration": 0.25,
    "velocity": 100,
    "pitch": 60
  },
  {
    "clipIndex": 484,
    "trackId": "22",
    "clipName": null,
    "beat": 297,
    "relBeat": 25,
    "duration": 0.25,
    "velocity": 100,
    "pitch": 60
  },
  {
    "clipIndex": 485,
    "trackId": "22",
    "clipName": null,
    "beat": 297,
    "relBeat": 17,
    "duration": 0.25,
    "velocity": 100,
    "pitch": 60
  },
  {
    "clipIndex": 486,
    "trackId": "22",
    "clipName": null,
    "beat": 297,
    "relBeat": 14,
    "duration": 0.25,
    "velocity": 100,
    "pitch": 60
  },
  {
    "clipIndex": 487,
    "trackId": "22",
    "clipName": null,
    "beat": 297,
    "relBeat": 9,
    "duration": 0.25,
    "velocity": 100,
    "pitch": 60
  },
  {
    "clipIndex": 489,
    "trackId": "22",
    "clipName": null,
    "beat": 297,
    "relBeat": 5,
    "duration": 0.25,
    "velocity": 100,
    "pitch": 60
  },
  {
    "clipIndex": 490,
    "trackId": "22",
    "clipName": null,
    "beat": 297,
    "relBeat": 3,
    "duration": 0.25,
    "velocity": 100,
    "pitch": 60
  },
  {
    "clipIndex": 491,
    "trackId": "22",
    "clipName": null,
    "beat": 297,
    "relBeat": 1,
    "duration": 0.25,
    "velocity": 100,
    "pitch": 60
  },
  {
    "clipIndex": 348,
    "trackId": "55",
    "clipName": null,
    "beat": 297.25,
    "relBeat": 1.25,
    "duration": 0.32496565934065935,
    "velocity": 100,
    "pitch": 60
  },
  {
    "clipIndex": 483,
    "trackId": "22",
    "clipName": null,
    "beat": 297.25,
    "relBeat": 28.25,
    "duration": 0.25,
    "velocity": 100,
    "pitch": 60
  },
  {
    "clipIndex": 484,
    "trackId": "22",
    "clipName": null,
    "beat": 297.25,
    "relBeat": 25.25,
    "duration": 0.25,
    "velocity": 100,
    "pitch": 60
  },
  {
    "clipIndex": 485,
    "trackId": "22",
    "clipName": null,
    "beat": 297.25,
    "relBeat": 17.25,
    "duration": 0.25,
    "velocity": 100,
    "pitch": 60
  },
  {
    "clipIndex": 486,
    "trackId": "22",
    "clipName": null,
    "beat": 297.25,
    "relBeat": 14.25,
    "duration": 0.25,
    "velocity": 100,
    "pitch": 60
  },
  {
    "clipIndex": 487,
    "trackId": "22",
    "clipName": null,
    "beat": 297.25,
    "relBeat": 9.25,
    "duration": 0.25,
    "velocity": 100,
    "pitch": 60
  },
  {
    "clipIndex": 489,
    "trackId": "22",
    "clipName": null,
    "beat": 297.25,
    "relBeat": 5.25,
    "duration": 0.25,
    "velocity": 100,
    "pitch": 60
  },
  {
    "clipIndex": 490,
    "trackId": "22",
    "clipName": null,
    "beat": 297.25,
    "relBeat": 3.25,
    "duration": 0.25,
    "velocity": 100,
    "pitch": 60
  },
  {
    "clipIndex": 491,
    "trackId": "22",
    "clipName": null,
    "beat": 297.25,
    "relBeat": 1.25,
    "duration": 0.25,
    "velocity": 100,
    "pitch": 60
  },
  {
    "clipIndex": 0,
    "trackId": "89",
    "clipName": null,
    "beat": 297.5,
    "relBeat": 297.5,
    "duration": 0.25,
    "velocity": 100,
    "pitch": 60
  },
  {
    "clipIndex": 483,
    "trackId": "22",
    "clipName": null,
    "beat": 297.5,
    "relBeat": 28.5,
    "duration": 0.25,
    "velocity": 100,
    "pitch": 60
  },
  {
    "clipIndex": 484,
    "trackId": "22",
    "clipName": null,
    "beat": 297.5,
    "relBeat": 25.5,
    "duration": 0.25,
    "velocity": 100,
    "pitch": 60
  },
  {
    "clipIndex": 485,
    "trackId": "22",
    "clipName": null,
    "beat": 297.5,
    "relBeat": 17.5,
    "duration": 0.25,
    "velocity": 100,
    "pitch": 60
  },
  {
    "clipIndex": 486,
    "trackId": "22",
    "clipName": null,
    "beat": 297.5,
    "relBeat": 14.5,
    "duration": 0.25,
    "velocity": 100,
    "pitch": 60
  },
  {
    "clipIndex": 487,
    "trackId": "22",
    "clipName": null,
    "beat": 297.5,
    "relBeat": 9.5,
    "duration": 0.25,
    "velocity": 100,
    "pitch": 60
  },
  {
    "clipIndex": 489,
    "trackId": "22",
    "clipName": null,
    "beat": 297.5,
    "relBeat": 5.5,
    "duration": 0.25,
    "velocity": 100,
    "pitch": 60
  },
  {
    "clipIndex": 490,
    "trackId": "22",
    "clipName": null,
    "beat": 297.5,
    "relBeat": 3.5,
    "duration": 0.25,
    "velocity": 100,
    "pitch": 60
  },
  {
    "clipIndex": 491,
    "trackId": "22",
    "clipName": null,
    "beat": 297.5,
    "relBeat": 1.5,
    "duration": 0.25,
    "velocity": 100,
    "pitch": 60
  },
  {
    "clipIndex": 348,
    "trackId": "55",
    "clipName": null,
    "beat": 297.75,
    "relBeat": 1.75,
    "duration": 0.25000026015651017,
    "velocity": 100,
    "pitch": 60
  },
  {
    "clipIndex": 483,
    "trackId": "22",
    "clipName": null,
    "beat": 297.75,
    "relBeat": 28.75,
    "duration": 0.25,
    "velocity": 100,
    "pitch": 60
  },
  {
    "clipIndex": 484,
    "trackId": "22",
    "clipName": null,
    "beat": 297.75,
    "relBeat": 25.75,
    "duration": 0.25,
    "velocity": 100,
    "pitch": 60
  },
  {
    "clipIndex": 485,
    "trackId": "22",
    "clipName": null,
    "beat": 297.75,
    "relBeat": 17.75,
    "duration": 0.25,
    "velocity": 100,
    "pitch": 60
  },
  {
    "clipIndex": 486,
    "trackId": "22",
    "clipName": null,
    "beat": 297.75,
    "relBeat": 14.75,
    "duration": 0.25,
    "velocity": 100,
    "pitch": 60
  },
  {
    "clipIndex": 487,
    "trackId": "22",
    "clipName": null,
    "beat": 297.75,
    "relBeat": 9.75,
    "duration": 0.25,
    "velocity": 100,
    "pitch": 60
  },
  {
    "clipIndex": 489,
    "trackId": "22",
    "clipName": null,
    "beat": 297.75,
    "relBeat": 5.75,
    "duration": 0.25,
    "velocity": 100,
    "pitch": 60
  },
  {
    "clipIndex": 490,
    "trackId": "22",
    "clipName": null,
    "beat": 297.75,
    "relBeat": 3.75,
    "duration": 0.25,
    "velocity": 100,
    "pitch": 60
  },
  {
    "clipIndex": 491,
    "trackId": "22",
    "clipName": null,
    "beat": 297.75,
    "relBeat": 1.75,
    "duration": 0.25,
    "velocity": 100,
    "pitch": 60
  },
  {
    "clipIndex": 0,
    "trackId": "89",
    "clipName": null,
    "beat": 298,
    "relBeat": 298,
    "duration": 0.25,
    "velocity": 100,
    "pitch": 60
  },
  {
    "clipIndex": 483,
    "trackId": "22",
    "clipName": null,
    "beat": 298,
    "relBeat": 29,
    "duration": 0.25,
    "velocity": 100,
    "pitch": 60
  },
  {
    "clipIndex": 484,
    "trackId": "22",
    "clipName": null,
    "beat": 298,
    "relBeat": 26,
    "duration": 0.25,
    "velocity": 100,
    "pitch": 60
  },
  {
    "clipIndex": 485,
    "trackId": "22",
    "clipName": null,
    "beat": 298,
    "relBeat": 18,
    "duration": 0.25,
    "velocity": 100,
    "pitch": 60
  },
  {
    "clipIndex": 486,
    "trackId": "22",
    "clipName": null,
    "beat": 298,
    "relBeat": 15,
    "duration": 0.25,
    "velocity": 100,
    "pitch": 60
  },
  {
    "clipIndex": 487,
    "trackId": "22",
    "clipName": null,
    "beat": 298,
    "relBeat": 10,
    "duration": 0.25,
    "velocity": 100,
    "pitch": 60
  },
  {
    "clipIndex": 490,
    "trackId": "22",
    "clipName": null,
    "beat": 298,
    "relBeat": 4,
    "duration": 0.25,
    "velocity": 100,
    "pitch": 60
  },
  {
    "clipIndex": 491,
    "trackId": "22",
    "clipName": null,
    "beat": 298,
    "relBeat": 2,
    "duration": 0.25,
    "velocity": 100,
    "pitch": 60
  },
  {
    "clipIndex": 492,
    "trackId": "22",
    "clipName": null,
    "beat": 298,
    "relBeat": 0,
    "duration": 0.25,
    "velocity": 100,
    "pitch": 60
  },
  {
    "clipIndex": 483,
    "trackId": "22",
    "clipName": null,
    "beat": 298.25,
    "relBeat": 29.25,
    "duration": 0.25,
    "velocity": 100,
    "pitch": 60
  },
  {
    "clipIndex": 484,
    "trackId": "22",
    "clipName": null,
    "beat": 298.25,
    "relBeat": 26.25,
    "duration": 0.25,
    "velocity": 100,
    "pitch": 60
  },
  {
    "clipIndex": 485,
    "trackId": "22",
    "clipName": null,
    "beat": 298.25,
    "relBeat": 18.25,
    "duration": 0.25,
    "velocity": 100,
    "pitch": 60
  },
  {
    "clipIndex": 486,
    "trackId": "22",
    "clipName": null,
    "beat": 298.25,
    "relBeat": 15.25,
    "duration": 0.25,
    "velocity": 100,
    "pitch": 60
  },
  {
    "clipIndex": 490,
    "trackId": "22",
    "clipName": null,
    "beat": 298.25,
    "relBeat": 4.25,
    "duration": 0.25,
    "velocity": 100,
    "pitch": 60
  },
  {
    "clipIndex": 491,
    "trackId": "22",
    "clipName": null,
    "beat": 298.25,
    "relBeat": 2.25,
    "duration": 0.25,
    "velocity": 100,
    "pitch": 60
  },
  {
    "clipIndex": 492,
    "trackId": "22",
    "clipName": null,
    "beat": 298.25,
    "relBeat": 0.25,
    "duration": 0.25,
    "velocity": 100,
    "pitch": 60
  },
  {
    "clipIndex": 0,
    "trackId": "89",
    "clipName": null,
    "beat": 298.5,
    "relBeat": 298.5,
    "duration": 0.25,
    "velocity": 100,
    "pitch": 60
  },
  {
    "clipIndex": 483,
    "trackId": "22",
    "clipName": null,
    "beat": 298.5,
    "relBeat": 29.5,
    "duration": 0.25,
    "velocity": 100,
    "pitch": 60
  },
  {
    "clipIndex": 484,
    "trackId": "22",
    "clipName": null,
    "beat": 298.5,
    "relBeat": 26.5,
    "duration": 0.25,
    "velocity": 100,
    "pitch": 60
  },
  {
    "clipIndex": 485,
    "trackId": "22",
    "clipName": null,
    "beat": 298.5,
    "relBeat": 18.5,
    "duration": 0.25,
    "velocity": 100,
    "pitch": 60
  },
  {
    "clipIndex": 486,
    "trackId": "22",
    "clipName": null,
    "beat": 298.5,
    "relBeat": 15.5,
    "duration": 0.25,
    "velocity": 100,
    "pitch": 60
  },
  {
    "clipIndex": 490,
    "trackId": "22",
    "clipName": null,
    "beat": 298.5,
    "relBeat": 4.5,
    "duration": 0.25,
    "velocity": 100,
    "pitch": 60
  },
  {
    "clipIndex": 491,
    "trackId": "22",
    "clipName": null,
    "beat": 298.5,
    "relBeat": 2.5,
    "duration": 0.25,
    "velocity": 100,
    "pitch": 60
  },
  {
    "clipIndex": 492,
    "trackId": "22",
    "clipName": null,
    "beat": 298.5,
    "relBeat": 0.5,
    "duration": 0.25,
    "velocity": 100,
    "pitch": 60
  },
  {
    "clipIndex": 483,
    "trackId": "22",
    "clipName": null,
    "beat": 298.75,
    "relBeat": 29.75,
    "duration": 0.25,
    "velocity": 100,
    "pitch": 60
  },
  {
    "clipIndex": 484,
    "trackId": "22",
    "clipName": null,
    "beat": 298.75,
    "relBeat": 26.75,
    "duration": 0.25,
    "velocity": 100,
    "pitch": 60
  },
  {
    "clipIndex": 485,
    "trackId": "22",
    "clipName": null,
    "beat": 298.75,
    "relBeat": 18.75,
    "duration": 0.25,
    "velocity": 100,
    "pitch": 60
  },
  {
    "clipIndex": 486,
    "trackId": "22",
    "clipName": null,
    "beat": 298.75,
    "relBeat": 15.75,
    "duration": 0.25,
    "velocity": 100,
    "pitch": 60
  },
  {
    "clipIndex": 490,
    "trackId": "22",
    "clipName": null,
    "beat": 298.75,
    "relBeat": 4.75,
    "duration": 0.25,
    "velocity": 100,
    "pitch": 60
  },
  {
    "clipIndex": 491,
    "trackId": "22",
    "clipName": null,
    "beat": 298.75,
    "relBeat": 2.75,
    "duration": 0.25,
    "velocity": 100,
    "pitch": 60
  },
  {
    "clipIndex": 492,
    "trackId": "22",
    "clipName": null,
    "beat": 298.75,
    "relBeat": 0.75,
    "duration": 0.25,
    "velocity": 100,
    "pitch": 60
  },
  {
    "clipIndex": 0,
    "trackId": "89",
    "clipName": null,
    "beat": 299,
    "relBeat": 299,
    "duration": 0.25,
    "velocity": 100,
    "pitch": 60
  },
  {
    "clipIndex": 345,
    "trackId": "55",
    "clipName": null,
    "beat": 299,
    "relBeat": 15,
    "duration": 0.25000026015651017,
    "velocity": 100,
    "pitch": 60
  },
  {
    "clipIndex": 346,
    "trackId": "55",
    "clipName": null,
    "beat": 299,
    "relBeat": 11,
    "duration": 0.25000026015651017,
    "velocity": 100,
    "pitch": 60
  },
  {
    "clipIndex": 347,
    "trackId": "55",
    "clipName": null,
    "beat": 299,
    "relBeat": 7,
    "duration": 0.25000026015651017,
    "velocity": 100,
    "pitch": 60
  },
  {
    "clipIndex": 483,
    "trackId": "22",
    "clipName": null,
    "beat": 299,
    "relBeat": 30,
    "duration": 0.25,
    "velocity": 100,
    "pitch": 60
  },
  {
    "clipIndex": 484,
    "trackId": "22",
    "clipName": null,
    "beat": 299,
    "relBeat": 27,
    "duration": 0.25,
    "velocity": 100,
    "pitch": 60
  },
  {
    "clipIndex": 485,
    "trackId": "22",
    "clipName": null,
    "beat": 299,
    "relBeat": 19,
    "duration": 0.25,
    "velocity": 100,
    "pitch": 60
  },
  {
    "clipIndex": 486,
    "trackId": "22",
    "clipName": null,
    "beat": 299,
    "relBeat": 16,
    "duration": 0.25,
    "velocity": 100,
    "pitch": 60
  },
  {
    "clipIndex": 488,
    "trackId": "22",
    "clipName": null,
    "beat": 299,
    "relBeat": 9,
    "duration": 0.25,
    "velocity": 100,
    "pitch": 60
  },
  {
    "clipIndex": 490,
    "trackId": "22",
    "clipName": null,
    "beat": 299,
    "relBeat": 5,
    "duration": 0.25,
    "velocity": 100,
    "pitch": 60
  },
  {
    "clipIndex": 491,
    "trackId": "22",
    "clipName": null,
    "beat": 299,
    "relBeat": 3,
    "duration": 0.25,
    "velocity": 100,
    "pitch": 60
  },
  {
    "clipIndex": 492,
    "trackId": "22",
    "clipName": null,
    "beat": 299,
    "relBeat": 1,
    "duration": 0.25,
    "velocity": 100,
    "pitch": 60
  },
  {
    "clipIndex": 483,
    "trackId": "22",
    "clipName": null,
    "beat": 299.25,
    "relBeat": 30.25,
    "duration": 0.25,
    "velocity": 100,
    "pitch": 60
  },
  {
    "clipIndex": 484,
    "trackId": "22",
    "clipName": null,
    "beat": 299.25,
    "relBeat": 27.25,
    "duration": 0.25,
    "velocity": 100,
    "pitch": 60
  },
  {
    "clipIndex": 485,
    "trackId": "22",
    "clipName": null,
    "beat": 299.25,
    "relBeat": 19.25,
    "duration": 0.25,
    "velocity": 100,
    "pitch": 60
  },
  {
    "clipIndex": 486,
    "trackId": "22",
    "clipName": null,
    "beat": 299.25,
    "relBeat": 16.25,
    "duration": 0.25,
    "velocity": 100,
    "pitch": 60
  },
  {
    "clipIndex": 488,
    "trackId": "22",
    "clipName": null,
    "beat": 299.25,
    "relBeat": 9.25,
    "duration": 0.25,
    "velocity": 100,
    "pitch": 60
  },
  {
    "clipIndex": 490,
    "trackId": "22",
    "clipName": null,
    "beat": 299.25,
    "relBeat": 5.25,
    "duration": 0.25,
    "velocity": 100,
    "pitch": 60
  },
  {
    "clipIndex": 491,
    "trackId": "22",
    "clipName": null,
    "beat": 299.25,
    "relBeat": 3.25,
    "duration": 0.25,
    "velocity": 100,
    "pitch": 60
  },
  {
    "clipIndex": 492,
    "trackId": "22",
    "clipName": null,
    "beat": 299.25,
    "relBeat": 1.25,
    "duration": 0.25,
    "velocity": 100,
    "pitch": 60
  },
  {
    "clipIndex": 0,
    "trackId": "89",
    "clipName": null,
    "beat": 299.5,
    "relBeat": 299.5,
    "duration": 0.25,
    "velocity": 100,
    "pitch": 60
  },
  {
    "clipIndex": 483,
    "trackId": "22",
    "clipName": null,
    "beat": 299.5,
    "relBeat": 30.5,
    "duration": 0.25,
    "velocity": 100,
    "pitch": 60
  },
  {
    "clipIndex": 484,
    "trackId": "22",
    "clipName": null,
    "beat": 299.5,
    "relBeat": 27.5,
    "duration": 0.25,
    "velocity": 100,
    "pitch": 60
  },
  {
    "clipIndex": 485,
    "trackId": "22",
    "clipName": null,
    "beat": 299.5,
    "relBeat": 19.5,
    "duration": 0.25,
    "velocity": 100,
    "pitch": 60
  },
  {
    "clipIndex": 486,
    "trackId": "22",
    "clipName": null,
    "beat": 299.5,
    "relBeat": 16.5,
    "duration": 0.25,
    "velocity": 100,
    "pitch": 60
  },
  {
    "clipIndex": 488,
    "trackId": "22",
    "clipName": null,
    "beat": 299.5,
    "relBeat": 9.5,
    "duration": 0.25,
    "velocity": 100,
    "pitch": 60
  },
  {
    "clipIndex": 490,
    "trackId": "22",
    "clipName": null,
    "beat": 299.5,
    "relBeat": 5.5,
    "duration": 0.25,
    "velocity": 100,
    "pitch": 60
  },
  {
    "clipIndex": 491,
    "trackId": "22",
    "clipName": null,
    "beat": 299.5,
    "relBeat": 3.5,
    "duration": 0.25,
    "velocity": 100,
    "pitch": 60
  },
  {
    "clipIndex": 492,
    "trackId": "22",
    "clipName": null,
    "beat": 299.5,
    "relBeat": 1.5,
    "duration": 0.25,
    "velocity": 100,
    "pitch": 60
  },
  {
    "clipIndex": 483,
    "trackId": "22",
    "clipName": null,
    "beat": 299.75,
    "relBeat": 30.75,
    "duration": 0.25,
    "velocity": 100,
    "pitch": 60
  },
  {
    "clipIndex": 484,
    "trackId": "22",
    "clipName": null,
    "beat": 299.75,
    "relBeat": 27.75,
    "duration": 0.25,
    "velocity": 100,
    "pitch": 60
  },
  {
    "clipIndex": 485,
    "trackId": "22",
    "clipName": null,
    "beat": 299.75,
    "relBeat": 19.75,
    "duration": 0.25,
    "velocity": 100,
    "pitch": 60
  },
  {
    "clipIndex": 486,
    "trackId": "22",
    "clipName": null,
    "beat": 299.75,
    "relBeat": 16.75,
    "duration": 0.25,
    "velocity": 100,
    "pitch": 60
  },
  {
    "clipIndex": 488,
    "trackId": "22",
    "clipName": null,
    "beat": 299.75,
    "relBeat": 9.75,
    "duration": 0.25,
    "velocity": 100,
    "pitch": 60
  },
  {
    "clipIndex": 490,
    "trackId": "22",
    "clipName": null,
    "beat": 299.75,
    "relBeat": 5.75,
    "duration": 0.25,
    "velocity": 100,
    "pitch": 60
  },
  {
    "clipIndex": 491,
    "trackId": "22",
    "clipName": null,
    "beat": 299.75,
    "relBeat": 3.75,
    "duration": 0.25,
    "velocity": 100,
    "pitch": 60
  },
  {
    "clipIndex": 492,
    "trackId": "22",
    "clipName": null,
    "beat": 299.75,
    "relBeat": 1.75,
    "duration": 0.25,
    "velocity": 100,
    "pitch": 60
  },
  {
    "clipIndex": 0,
    "trackId": "89",
    "clipName": null,
    "beat": 300,
    "relBeat": 300,
    "duration": 0.25,
    "velocity": 100,
    "pitch": 60
  },
  {
    "clipIndex": 483,
    "trackId": "22",
    "clipName": null,
    "beat": 300,
    "relBeat": 31,
    "duration": 0.25,
    "velocity": 100,
    "pitch": 60
  },
  {
    "clipIndex": 484,
    "trackId": "22",
    "clipName": null,
    "beat": 300,
    "relBeat": 28,
    "duration": 0.25,
    "velocity": 100,
    "pitch": 60
  },
  {
    "clipIndex": 485,
    "trackId": "22",
    "clipName": null,
    "beat": 300,
    "relBeat": 20,
    "duration": 0.25,
    "velocity": 100,
    "pitch": 60
  },
  {
    "clipIndex": 486,
    "trackId": "22",
    "clipName": null,
    "beat": 300,
    "relBeat": 17,
    "duration": 0.25,
    "velocity": 100,
    "pitch": 60
  },
  {
    "clipIndex": 487,
    "trackId": "22",
    "clipName": null,
    "beat": 300,
    "relBeat": 12,
    "duration": 0.25,
    "velocity": 100,
    "pitch": 60
  },
  {
    "clipIndex": 488,
    "trackId": "22",
    "clipName": null,
    "beat": 300,
    "relBeat": 10,
    "duration": 0.25,
    "velocity": 100,
    "pitch": 60
  },
  {
    "clipIndex": 491,
    "trackId": "22",
    "clipName": null,
    "beat": 300,
    "relBeat": 4,
    "duration": 0.25,
    "velocity": 100,
    "pitch": 60
  },
  {
    "clipIndex": 492,
    "trackId": "22",
    "clipName": null,
    "beat": 300,
    "relBeat": 2,
    "duration": 0.25,
    "velocity": 100,
    "pitch": 60
  },
  {
    "clipIndex": 493,
    "trackId": "22",
    "clipName": null,
    "beat": 300,
    "relBeat": 0,
    "duration": 0.25,
    "velocity": 100,
    "pitch": 60
  },
  {
    "clipIndex": 483,
    "trackId": "22",
    "clipName": null,
    "beat": 300.25,
    "relBeat": 31.25,
    "duration": 0.25,
    "velocity": 100,
    "pitch": 60
  },
  {
    "clipIndex": 484,
    "trackId": "22",
    "clipName": null,
    "beat": 300.25,
    "relBeat": 28.25,
    "duration": 0.25,
    "velocity": 100,
    "pitch": 60
  },
  {
    "clipIndex": 485,
    "trackId": "22",
    "clipName": null,
    "beat": 300.25,
    "relBeat": 20.25,
    "duration": 0.25,
    "velocity": 100,
    "pitch": 60
  },
  {
    "clipIndex": 486,
    "trackId": "22",
    "clipName": null,
    "beat": 300.25,
    "relBeat": 17.25,
    "duration": 0.25,
    "velocity": 100,
    "pitch": 60
  },
  {
    "clipIndex": 487,
    "trackId": "22",
    "clipName": null,
    "beat": 300.25,
    "relBeat": 12.25,
    "duration": 0.25,
    "velocity": 100,
    "pitch": 60
  },
  {
    "clipIndex": 491,
    "trackId": "22",
    "clipName": null,
    "beat": 300.25,
    "relBeat": 4.25,
    "duration": 0.25,
    "velocity": 100,
    "pitch": 60
  },
  {
    "clipIndex": 492,
    "trackId": "22",
    "clipName": null,
    "beat": 300.25,
    "relBeat": 2.25,
    "duration": 0.25,
    "velocity": 100,
    "pitch": 60
  },
  {
    "clipIndex": 493,
    "trackId": "22",
    "clipName": null,
    "beat": 300.25,
    "relBeat": 0.25,
    "duration": 0.25,
    "velocity": 100,
    "pitch": 60
  },
  {
    "clipIndex": 0,
    "trackId": "89",
    "clipName": null,
    "beat": 300.5,
    "relBeat": 300.5,
    "duration": 0.25,
    "velocity": 100,
    "pitch": 60
  },
  {
    "clipIndex": 483,
    "trackId": "22",
    "clipName": null,
    "beat": 300.5,
    "relBeat": 31.5,
    "duration": 0.25,
    "velocity": 100,
    "pitch": 60
  },
  {
    "clipIndex": 484,
    "trackId": "22",
    "clipName": null,
    "beat": 300.5,
    "relBeat": 28.5,
    "duration": 0.25,
    "velocity": 100,
    "pitch": 60
  },
  {
    "clipIndex": 485,
    "trackId": "22",
    "clipName": null,
    "beat": 300.5,
    "relBeat": 20.5,
    "duration": 0.25,
    "velocity": 100,
    "pitch": 60
  },
  {
    "clipIndex": 486,
    "trackId": "22",
    "clipName": null,
    "beat": 300.5,
    "relBeat": 17.5,
    "duration": 0.25,
    "velocity": 100,
    "pitch": 60
  },
  {
    "clipIndex": 487,
    "trackId": "22",
    "clipName": null,
    "beat": 300.5,
    "relBeat": 12.5,
    "duration": 0.25,
    "velocity": 100,
    "pitch": 60
  },
  {
    "clipIndex": 491,
    "trackId": "22",
    "clipName": null,
    "beat": 300.5,
    "relBeat": 4.5,
    "duration": 0.25,
    "velocity": 100,
    "pitch": 60
  },
  {
    "clipIndex": 492,
    "trackId": "22",
    "clipName": null,
    "beat": 300.5,
    "relBeat": 2.5,
    "duration": 0.25,
    "velocity": 100,
    "pitch": 60
  },
  {
    "clipIndex": 493,
    "trackId": "22",
    "clipName": null,
    "beat": 300.5,
    "relBeat": 0.5,
    "duration": 0.25,
    "velocity": 100,
    "pitch": 60
  },
  {
    "clipIndex": 483,
    "trackId": "22",
    "clipName": null,
    "beat": 300.75,
    "relBeat": 31.75,
    "duration": 0.25,
    "velocity": 100,
    "pitch": 60
  },
  {
    "clipIndex": 484,
    "trackId": "22",
    "clipName": null,
    "beat": 300.75,
    "relBeat": 28.75,
    "duration": 0.25,
    "velocity": 100,
    "pitch": 60
  },
  {
    "clipIndex": 485,
    "trackId": "22",
    "clipName": null,
    "beat": 300.75,
    "relBeat": 20.75,
    "duration": 0.25,
    "velocity": 100,
    "pitch": 60
  },
  {
    "clipIndex": 486,
    "trackId": "22",
    "clipName": null,
    "beat": 300.75,
    "relBeat": 17.75,
    "duration": 0.25,
    "velocity": 100,
    "pitch": 60
  },
  {
    "clipIndex": 487,
    "trackId": "22",
    "clipName": null,
    "beat": 300.75,
    "relBeat": 12.75,
    "duration": 0.25,
    "velocity": 100,
    "pitch": 60
  },
  {
    "clipIndex": 491,
    "trackId": "22",
    "clipName": null,
    "beat": 300.75,
    "relBeat": 4.75,
    "duration": 0.25,
    "velocity": 100,
    "pitch": 60
  },
  {
    "clipIndex": 492,
    "trackId": "22",
    "clipName": null,
    "beat": 300.75,
    "relBeat": 2.75,
    "duration": 0.25,
    "velocity": 100,
    "pitch": 60
  },
  {
    "clipIndex": 493,
    "trackId": "22",
    "clipName": null,
    "beat": 300.75,
    "relBeat": 0.75,
    "duration": 0.25,
    "velocity": 100,
    "pitch": 60
  },
  {
    "clipIndex": 0,
    "trackId": "89",
    "clipName": null,
    "beat": 301,
    "relBeat": 301,
    "duration": 0.25,
    "velocity": 100,
    "pitch": 60
  },
  {
    "clipIndex": 345,
    "trackId": "55",
    "clipName": null,
    "beat": 301,
    "relBeat": 17,
    "duration": 0.25000026015651017,
    "velocity": 100,
    "pitch": 60
  },
  {
    "clipIndex": 346,
    "trackId": "55",
    "clipName": null,
    "beat": 301,
    "relBeat": 13,
    "duration": 0.25000026015651017,
    "velocity": 100,
    "pitch": 60
  },
  {
    "clipIndex": 347,
    "trackId": "55",
    "clipName": null,
    "beat": 301,
    "relBeat": 9,
    "duration": 0.25000026015651017,
    "velocity": 100,
    "pitch": 60
  },
  {
    "clipIndex": 484,
    "trackId": "22",
    "clipName": null,
    "beat": 301,
    "relBeat": 29,
    "duration": 0.25,
    "velocity": 100,
    "pitch": 60
  },
  {
    "clipIndex": 485,
    "trackId": "22",
    "clipName": null,
    "beat": 301,
    "relBeat": 21,
    "duration": 0.25,
    "velocity": 100,
    "pitch": 60
  },
  {
    "clipIndex": 486,
    "trackId": "22",
    "clipName": null,
    "beat": 301,
    "relBeat": 18,
    "duration": 0.25,
    "velocity": 100,
    "pitch": 60
  },
  {
    "clipIndex": 487,
    "trackId": "22",
    "clipName": null,
    "beat": 301,
    "relBeat": 13,
    "duration": 0.25,
    "velocity": 100,
    "pitch": 60
  },
  {
    "clipIndex": 489,
    "trackId": "22",
    "clipName": null,
    "beat": 301,
    "relBeat": 9,
    "duration": 0.25,
    "velocity": 100,
    "pitch": 60
  },
  {
    "clipIndex": 491,
    "trackId": "22",
    "clipName": null,
    "beat": 301,
    "relBeat": 5,
    "duration": 0.25,
    "velocity": 100,
    "pitch": 60
  },
  {
    "clipIndex": 492,
    "trackId": "22",
    "clipName": null,
    "beat": 301,
    "relBeat": 3,
    "duration": 0.25,
    "velocity": 100,
    "pitch": 60
  },
  {
    "clipIndex": 493,
    "trackId": "22",
    "clipName": null,
    "beat": 301,
    "relBeat": 1,
    "duration": 0.25,
    "velocity": 100,
    "pitch": 60
  },
  {
    "clipIndex": 484,
    "trackId": "22",
    "clipName": null,
    "beat": 301.25,
    "relBeat": 29.25,
    "duration": 0.25,
    "velocity": 100,
    "pitch": 60
  },
  {
    "clipIndex": 485,
    "trackId": "22",
    "clipName": null,
    "beat": 301.25,
    "relBeat": 21.25,
    "duration": 0.25,
    "velocity": 100,
    "pitch": 60
  },
  {
    "clipIndex": 486,
    "trackId": "22",
    "clipName": null,
    "beat": 301.25,
    "relBeat": 18.25,
    "duration": 0.25,
    "velocity": 100,
    "pitch": 60
  },
  {
    "clipIndex": 487,
    "trackId": "22",
    "clipName": null,
    "beat": 301.25,
    "relBeat": 13.25,
    "duration": 0.25,
    "velocity": 100,
    "pitch": 60
  },
  {
    "clipIndex": 489,
    "trackId": "22",
    "clipName": null,
    "beat": 301.25,
    "relBeat": 9.25,
    "duration": 0.25,
    "velocity": 100,
    "pitch": 60
  },
  {
    "clipIndex": 491,
    "trackId": "22",
    "clipName": null,
    "beat": 301.25,
    "relBeat": 5.25,
    "duration": 0.25,
    "velocity": 100,
    "pitch": 60
  },
  {
    "clipIndex": 492,
    "trackId": "22",
    "clipName": null,
    "beat": 301.25,
    "relBeat": 3.25,
    "duration": 0.25,
    "velocity": 100,
    "pitch": 60
  },
  {
    "clipIndex": 493,
    "trackId": "22",
    "clipName": null,
    "beat": 301.25,
    "relBeat": 1.25,
    "duration": 0.25,
    "velocity": 100,
    "pitch": 60
  },
  {
    "clipIndex": 0,
    "trackId": "89",
    "clipName": null,
    "beat": 301.5,
    "relBeat": 301.5,
    "duration": 0.25,
    "velocity": 100,
    "pitch": 60
  },
  {
    "clipIndex": 484,
    "trackId": "22",
    "clipName": null,
    "beat": 301.5,
    "relBeat": 29.5,
    "duration": 0.25,
    "velocity": 100,
    "pitch": 60
  },
  {
    "clipIndex": 486,
    "trackId": "22",
    "clipName": null,
    "beat": 301.5,
    "relBeat": 18.5,
    "duration": 0.25,
    "velocity": 100,
    "pitch": 60
  },
  {
    "clipIndex": 487,
    "trackId": "22",
    "clipName": null,
    "beat": 301.5,
    "relBeat": 13.5,
    "duration": 0.25,
    "velocity": 100,
    "pitch": 60
  },
  {
    "clipIndex": 489,
    "trackId": "22",
    "clipName": null,
    "beat": 301.5,
    "relBeat": 9.5,
    "duration": 0.25,
    "velocity": 100,
    "pitch": 60
  },
  {
    "clipIndex": 491,
    "trackId": "22",
    "clipName": null,
    "beat": 301.5,
    "relBeat": 5.5,
    "duration": 0.25,
    "velocity": 100,
    "pitch": 60
  },
  {
    "clipIndex": 492,
    "trackId": "22",
    "clipName": null,
    "beat": 301.5,
    "relBeat": 3.5,
    "duration": 0.25,
    "velocity": 100,
    "pitch": 60
  },
  {
    "clipIndex": 493,
    "trackId": "22",
    "clipName": null,
    "beat": 301.5,
    "relBeat": 1.5,
    "duration": 0.25,
    "velocity": 100,
    "pitch": 60
  },
  {
    "clipIndex": 484,
    "trackId": "22",
    "clipName": null,
    "beat": 301.75,
    "relBeat": 29.75,
    "duration": 0.25,
    "velocity": 100,
    "pitch": 60
  },
  {
    "clipIndex": 486,
    "trackId": "22",
    "clipName": null,
    "beat": 301.75,
    "relBeat": 18.75,
    "duration": 0.25,
    "velocity": 100,
    "pitch": 60
  },
  {
    "clipIndex": 487,
    "trackId": "22",
    "clipName": null,
    "beat": 301.75,
    "relBeat": 13.75,
    "duration": 0.25,
    "velocity": 100,
    "pitch": 60
  },
  {
    "clipIndex": 489,
    "trackId": "22",
    "clipName": null,
    "beat": 301.75,
    "relBeat": 9.75,
    "duration": 0.25,
    "velocity": 100,
    "pitch": 60
  },
  {
    "clipIndex": 491,
    "trackId": "22",
    "clipName": null,
    "beat": 301.75,
    "relBeat": 5.75,
    "duration": 0.25,
    "velocity": 100,
    "pitch": 60
  },
  {
    "clipIndex": 492,
    "trackId": "22",
    "clipName": null,
    "beat": 301.75,
    "relBeat": 3.75,
    "duration": 0.25,
    "velocity": 100,
    "pitch": 60
  },
  {
    "clipIndex": 493,
    "trackId": "22",
    "clipName": null,
    "beat": 301.75,
    "relBeat": 1.75,
    "duration": 0.25,
    "velocity": 100,
    "pitch": 60
  },
  {
    "clipIndex": 0,
    "trackId": "89",
    "clipName": null,
    "beat": 302,
    "relBeat": 302,
    "duration": 0.25,
    "velocity": 100,
    "pitch": 60
  },
  {
    "clipIndex": 484,
    "trackId": "22",
    "clipName": null,
    "beat": 302,
    "relBeat": 30,
    "duration": 0.25,
    "velocity": 100,
    "pitch": 60
  },
  {
    "clipIndex": 486,
    "trackId": "22",
    "clipName": null,
    "beat": 302,
    "relBeat": 19,
    "duration": 0.25,
    "velocity": 100,
    "pitch": 60
  },
  {
    "clipIndex": 487,
    "trackId": "22",
    "clipName": null,
    "beat": 302,
    "relBeat": 14,
    "duration": 0.25,
    "velocity": 100,
    "pitch": 60
  },
  {
    "clipIndex": 488,
    "trackId": "22",
    "clipName": null,
    "beat": 302,
    "relBeat": 12,
    "duration": 0.25,
    "velocity": 100,
    "pitch": 60
  },
  {
    "clipIndex": 489,
    "trackId": "22",
    "clipName": null,
    "beat": 302,
    "relBeat": 10,
    "duration": 0.25,
    "velocity": 100,
    "pitch": 60
  },
  {
    "clipIndex": 492,
    "trackId": "22",
    "clipName": null,
    "beat": 302,
    "relBeat": 4,
    "duration": 0.25,
    "velocity": 100,
    "pitch": 60
  },
  {
    "clipIndex": 493,
    "trackId": "22",
    "clipName": null,
    "beat": 302,
    "relBeat": 2,
    "duration": 0.25,
    "velocity": 100,
    "pitch": 60
  },
  {
    "clipIndex": 494,
    "trackId": "22",
    "clipName": null,
    "beat": 302,
    "relBeat": 0,
    "duration": 0.25,
    "velocity": 100,
    "pitch": 60
  },
  {
    "clipIndex": 484,
    "trackId": "22",
    "clipName": null,
    "beat": 302.25,
    "relBeat": 30.25,
    "duration": 0.25,
    "velocity": 100,
    "pitch": 60
  },
  {
    "clipIndex": 486,
    "trackId": "22",
    "clipName": null,
    "beat": 302.25,
    "relBeat": 19.25,
    "duration": 0.25,
    "velocity": 100,
    "pitch": 60
  },
  {
    "clipIndex": 487,
    "trackId": "22",
    "clipName": null,
    "beat": 302.25,
    "relBeat": 14.25,
    "duration": 0.25,
    "velocity": 100,
    "pitch": 60
  },
  {
    "clipIndex": 488,
    "trackId": "22",
    "clipName": null,
    "beat": 302.25,
    "relBeat": 12.25,
    "duration": 0.25,
    "velocity": 100,
    "pitch": 60
  },
  {
    "clipIndex": 492,
    "trackId": "22",
    "clipName": null,
    "beat": 302.25,
    "relBeat": 4.25,
    "duration": 0.25,
    "velocity": 100,
    "pitch": 60
  },
  {
    "clipIndex": 493,
    "trackId": "22",
    "clipName": null,
    "beat": 302.25,
    "relBeat": 2.25,
    "duration": 0.25,
    "velocity": 100,
    "pitch": 60
  },
  {
    "clipIndex": 494,
    "trackId": "22",
    "clipName": null,
    "beat": 302.25,
    "relBeat": 0.25,
    "duration": 0.25,
    "velocity": 100,
    "pitch": 60
  },
  {
    "clipIndex": 484,
    "trackId": "22",
    "clipName": null,
    "beat": 302.5,
    "relBeat": 30.5,
    "duration": 0.25,
    "velocity": 100,
    "pitch": 60
  },
  {
    "clipIndex": 486,
    "trackId": "22",
    "clipName": null,
    "beat": 302.5,
    "relBeat": 19.5,
    "duration": 0.25,
    "velocity": 100,
    "pitch": 60
  },
  {
    "clipIndex": 487,
    "trackId": "22",
    "clipName": null,
    "beat": 302.5,
    "relBeat": 14.5,
    "duration": 0.25,
    "velocity": 100,
    "pitch": 60
  },
  {
    "clipIndex": 488,
    "trackId": "22",
    "clipName": null,
    "beat": 302.5,
    "relBeat": 12.5,
    "duration": 0.25,
    "velocity": 100,
    "pitch": 60
  },
  {
    "clipIndex": 492,
    "trackId": "22",
    "clipName": null,
    "beat": 302.5,
    "relBeat": 4.5,
    "duration": 0.25,
    "velocity": 100,
    "pitch": 60
  },
  {
    "clipIndex": 493,
    "trackId": "22",
    "clipName": null,
    "beat": 302.5,
    "relBeat": 2.5,
    "duration": 0.25,
    "velocity": 100,
    "pitch": 60
  },
  {
    "clipIndex": 494,
    "trackId": "22",
    "clipName": null,
    "beat": 302.5,
    "relBeat": 0.5,
    "duration": 0.25,
    "velocity": 100,
    "pitch": 60
  },
  {
    "clipIndex": 484,
    "trackId": "22",
    "clipName": null,
    "beat": 302.75,
    "relBeat": 30.75,
    "duration": 0.25,
    "velocity": 100,
    "pitch": 60
  },
  {
    "clipIndex": 486,
    "trackId": "22",
    "clipName": null,
    "beat": 302.75,
    "relBeat": 19.75,
    "duration": 0.25,
    "velocity": 100,
    "pitch": 60
  },
  {
    "clipIndex": 487,
    "trackId": "22",
    "clipName": null,
    "beat": 302.75,
    "relBeat": 14.75,
    "duration": 0.25,
    "velocity": 100,
    "pitch": 60
  },
  {
    "clipIndex": 488,
    "trackId": "22",
    "clipName": null,
    "beat": 302.75,
    "relBeat": 12.75,
    "duration": 0.25,
    "velocity": 100,
    "pitch": 60
  },
  {
    "clipIndex": 492,
    "trackId": "22",
    "clipName": null,
    "beat": 302.75,
    "relBeat": 4.75,
    "duration": 0.25,
    "velocity": 100,
    "pitch": 60
  },
  {
    "clipIndex": 493,
    "trackId": "22",
    "clipName": null,
    "beat": 302.75,
    "relBeat": 2.75,
    "duration": 0.25,
    "velocity": 100,
    "pitch": 60
  },
  {
    "clipIndex": 494,
    "trackId": "22",
    "clipName": null,
    "beat": 302.75,
    "relBeat": 0.75,
    "duration": 0.25,
    "velocity": 100,
    "pitch": 60
  },
  {
    "clipIndex": 345,
    "trackId": "55",
    "clipName": null,
    "beat": 303,
    "relBeat": 19,
    "duration": 0.25000026015651017,
    "velocity": 100,
    "pitch": 60
  },
  {
    "clipIndex": 346,
    "trackId": "55",
    "clipName": null,
    "beat": 303,
    "relBeat": 15,
    "duration": 0.25000026015651017,
    "velocity": 100,
    "pitch": 60
  },
  {
    "clipIndex": 347,
    "trackId": "55",
    "clipName": null,
    "beat": 303,
    "relBeat": 11,
    "duration": 0.25000026015651017,
    "velocity": 100,
    "pitch": 60
  },
  {
    "clipIndex": 484,
    "trackId": "22",
    "clipName": null,
    "beat": 303,
    "relBeat": 31,
    "duration": 0.25,
    "velocity": 100,
    "pitch": 60
  },
  {
    "clipIndex": 486,
    "trackId": "22",
    "clipName": null,
    "beat": 303,
    "relBeat": 20,
    "duration": 0.25,
    "velocity": 100,
    "pitch": 60
  },
  {
    "clipIndex": 487,
    "trackId": "22",
    "clipName": null,
    "beat": 303,
    "relBeat": 15,
    "duration": 0.25,
    "velocity": 100,
    "pitch": 60
  },
  {
    "clipIndex": 488,
    "trackId": "22",
    "clipName": null,
    "beat": 303,
    "relBeat": 13,
    "duration": 0.25,
    "velocity": 100,
    "pitch": 60
  },
  {
    "clipIndex": 490,
    "trackId": "22",
    "clipName": null,
    "beat": 303,
    "relBeat": 9,
    "duration": 0.25,
    "velocity": 100,
    "pitch": 60
  },
  {
    "clipIndex": 492,
    "trackId": "22",
    "clipName": null,
    "beat": 303,
    "relBeat": 5,
    "duration": 0.25,
    "velocity": 100,
    "pitch": 60
  },
  {
    "clipIndex": 493,
    "trackId": "22",
    "clipName": null,
    "beat": 303,
    "relBeat": 3,
    "duration": 0.25,
    "velocity": 100,
    "pitch": 60
  },
  {
    "clipIndex": 494,
    "trackId": "22",
    "clipName": null,
    "beat": 303,
    "relBeat": 1,
    "duration": 0.25,
    "velocity": 100,
    "pitch": 60
  },
  {
    "clipIndex": 0,
    "trackId": "89",
    "clipName": null,
    "beat": 303.25,
    "relBeat": 303.25,
    "duration": 0.25,
    "velocity": 100,
    "pitch": 60
  },
  {
    "clipIndex": 484,
    "trackId": "22",
    "clipName": null,
    "beat": 303.25,
    "relBeat": 31.25,
    "duration": 0.25,
    "velocity": 100,
    "pitch": 60
  },
  {
    "clipIndex": 486,
    "trackId": "22",
    "clipName": null,
    "beat": 303.25,
    "relBeat": 20.25,
    "duration": 0.25,
    "velocity": 100,
    "pitch": 60
  },
  {
    "clipIndex": 487,
    "trackId": "22",
    "clipName": null,
    "beat": 303.25,
    "relBeat": 15.25,
    "duration": 0.25,
    "velocity": 100,
    "pitch": 60
  },
  {
    "clipIndex": 488,
    "trackId": "22",
    "clipName": null,
    "beat": 303.25,
    "relBeat": 13.25,
    "duration": 0.25,
    "velocity": 100,
    "pitch": 60
  },
  {
    "clipIndex": 490,
    "trackId": "22",
    "clipName": null,
    "beat": 303.25,
    "relBeat": 9.25,
    "duration": 0.25,
    "velocity": 100,
    "pitch": 60
  },
  {
    "clipIndex": 492,
    "trackId": "22",
    "clipName": null,
    "beat": 303.25,
    "relBeat": 5.25,
    "duration": 0.25,
    "velocity": 100,
    "pitch": 60
  },
  {
    "clipIndex": 493,
    "trackId": "22",
    "clipName": null,
    "beat": 303.25,
    "relBeat": 3.25,
    "duration": 0.25,
    "velocity": 100,
    "pitch": 60
  },
  {
    "clipIndex": 494,
    "trackId": "22",
    "clipName": null,
    "beat": 303.25,
    "relBeat": 1.25,
    "duration": 0.25,
    "velocity": 100,
    "pitch": 60
  },
  {
    "clipIndex": 0,
    "trackId": "89",
    "clipName": null,
    "beat": 303.5,
    "relBeat": 303.5,
    "duration": 0.25,
    "velocity": 100,
    "pitch": 60
  },
  {
    "clipIndex": 484,
    "trackId": "22",
    "clipName": null,
    "beat": 303.5,
    "relBeat": 31.5,
    "duration": 0.25,
    "velocity": 100,
    "pitch": 60
  },
  {
    "clipIndex": 486,
    "trackId": "22",
    "clipName": null,
    "beat": 303.5,
    "relBeat": 20.5,
    "duration": 0.25,
    "velocity": 100,
    "pitch": 60
  },
  {
    "clipIndex": 487,
    "trackId": "22",
    "clipName": null,
    "beat": 303.5,
    "relBeat": 15.5,
    "duration": 0.25,
    "velocity": 100,
    "pitch": 60
  },
  {
    "clipIndex": 488,
    "trackId": "22",
    "clipName": null,
    "beat": 303.5,
    "relBeat": 13.5,
    "duration": 0.25,
    "velocity": 100,
    "pitch": 60
  },
  {
    "clipIndex": 490,
    "trackId": "22",
    "clipName": null,
    "beat": 303.5,
    "relBeat": 9.5,
    "duration": 0.25,
    "velocity": 100,
    "pitch": 60
  },
  {
    "clipIndex": 492,
    "trackId": "22",
    "clipName": null,
    "beat": 303.5,
    "relBeat": 5.5,
    "duration": 0.25,
    "velocity": 100,
    "pitch": 60
  },
  {
    "clipIndex": 493,
    "trackId": "22",
    "clipName": null,
    "beat": 303.5,
    "relBeat": 3.5,
    "duration": 0.25,
    "velocity": 100,
    "pitch": 60
  },
  {
    "clipIndex": 494,
    "trackId": "22",
    "clipName": null,
    "beat": 303.5,
    "relBeat": 1.5,
    "duration": 0.25,
    "velocity": 100,
    "pitch": 60
  },
  {
    "clipIndex": 484,
    "trackId": "22",
    "clipName": null,
    "beat": 303.75,
    "relBeat": 31.75,
    "duration": 0.25,
    "velocity": 100,
    "pitch": 60
  },
  {
    "clipIndex": 486,
    "trackId": "22",
    "clipName": null,
    "beat": 303.75,
    "relBeat": 20.75,
    "duration": 0.25,
    "velocity": 100,
    "pitch": 60
  },
  {
    "clipIndex": 487,
    "trackId": "22",
    "clipName": null,
    "beat": 303.75,
    "relBeat": 15.75,
    "duration": 0.25,
    "velocity": 100,
    "pitch": 60
  },
  {
    "clipIndex": 488,
    "trackId": "22",
    "clipName": null,
    "beat": 303.75,
    "relBeat": 13.75,
    "duration": 0.25,
    "velocity": 100,
    "pitch": 60
  },
  {
    "clipIndex": 490,
    "trackId": "22",
    "clipName": null,
    "beat": 303.75,
    "relBeat": 9.75,
    "duration": 0.25,
    "velocity": 100,
    "pitch": 60
  },
  {
    "clipIndex": 492,
    "trackId": "22",
    "clipName": null,
    "beat": 303.75,
    "relBeat": 5.75,
    "duration": 0.25,
    "velocity": 100,
    "pitch": 60
  },
  {
    "clipIndex": 493,
    "trackId": "22",
    "clipName": null,
    "beat": 303.75,
    "relBeat": 3.75,
    "duration": 0.25,
    "velocity": 100,
    "pitch": 60
  },
  {
    "clipIndex": 494,
    "trackId": "22",
    "clipName": null,
    "beat": 303.75,
    "relBeat": 1.75,
    "duration": 0.25,
    "velocity": 100,
    "pitch": 60
  },
  {
    "clipIndex": 485,
    "trackId": "22",
    "clipName": null,
    "beat": 304,
    "relBeat": 24,
    "duration": 0.25,
    "velocity": 100,
    "pitch": 60
  },
  {
    "clipIndex": 486,
    "trackId": "22",
    "clipName": null,
    "beat": 304,
    "relBeat": 21,
    "duration": 0.25,
    "velocity": 100,
    "pitch": 60
  },
  {
    "clipIndex": 487,
    "trackId": "22",
    "clipName": null,
    "beat": 304,
    "relBeat": 16,
    "duration": 0.25,
    "velocity": 100,
    "pitch": 60
  },
  {
    "clipIndex": 488,
    "trackId": "22",
    "clipName": null,
    "beat": 304,
    "relBeat": 14,
    "duration": 0.25,
    "velocity": 100,
    "pitch": 60
  },
  {
    "clipIndex": 489,
    "trackId": "22",
    "clipName": null,
    "beat": 304,
    "relBeat": 12,
    "duration": 0.25,
    "velocity": 100,
    "pitch": 60
  },
  {
    "clipIndex": 490,
    "trackId": "22",
    "clipName": null,
    "beat": 304,
    "relBeat": 10,
    "duration": 0.25,
    "velocity": 100,
    "pitch": 60
  },
  {
    "clipIndex": 493,
    "trackId": "22",
    "clipName": null,
    "beat": 304,
    "relBeat": 4,
    "duration": 0.25,
    "velocity": 100,
    "pitch": 60
  },
  {
    "clipIndex": 494,
    "trackId": "22",
    "clipName": null,
    "beat": 304,
    "relBeat": 2,
    "duration": 0.25,
    "velocity": 100,
    "pitch": 60
  },
  {
    "clipIndex": 495,
    "trackId": "22",
    "clipName": null,
    "beat": 304,
    "relBeat": 0,
    "duration": 0.25,
    "velocity": 100,
    "pitch": 60
  },
  {
    "clipIndex": 349,
    "trackId": "55",
    "clipName": null,
    "beat": 304.25,
    "relBeat": 0.25,
    "duration": 0.32496565934065935,
    "velocity": 100,
    "pitch": 60
  },
  {
    "clipIndex": 485,
    "trackId": "22",
    "clipName": null,
    "beat": 304.25,
    "relBeat": 24.25,
    "duration": 0.25,
    "velocity": 100,
    "pitch": 60
  },
  {
    "clipIndex": 486,
    "trackId": "22",
    "clipName": null,
    "beat": 304.25,
    "relBeat": 21.25,
    "duration": 0.25,
    "velocity": 100,
    "pitch": 60
  },
  {
    "clipIndex": 487,
    "trackId": "22",
    "clipName": null,
    "beat": 304.25,
    "relBeat": 16.25,
    "duration": 0.25,
    "velocity": 100,
    "pitch": 60
  },
  {
    "clipIndex": 488,
    "trackId": "22",
    "clipName": null,
    "beat": 304.25,
    "relBeat": 14.25,
    "duration": 0.25,
    "velocity": 100,
    "pitch": 60
  },
  {
    "clipIndex": 489,
    "trackId": "22",
    "clipName": null,
    "beat": 304.25,
    "relBeat": 12.25,
    "duration": 0.25,
    "velocity": 100,
    "pitch": 60
  },
  {
    "clipIndex": 493,
    "trackId": "22",
    "clipName": null,
    "beat": 304.25,
    "relBeat": 4.25,
    "duration": 0.25,
    "velocity": 100,
    "pitch": 60
  },
  {
    "clipIndex": 494,
    "trackId": "22",
    "clipName": null,
    "beat": 304.25,
    "relBeat": 2.25,
    "duration": 0.25,
    "velocity": 100,
    "pitch": 60
  },
  {
    "clipIndex": 495,
    "trackId": "22",
    "clipName": null,
    "beat": 304.25,
    "relBeat": 0.25,
    "duration": 0.25,
    "velocity": 100,
    "pitch": 60
  },
  {
    "clipIndex": 485,
    "trackId": "22",
    "clipName": null,
    "beat": 304.5,
    "relBeat": 24.5,
    "duration": 0.25,
    "velocity": 100,
    "pitch": 60
  },
  {
    "clipIndex": 487,
    "trackId": "22",
    "clipName": null,
    "beat": 304.5,
    "relBeat": 16.5,
    "duration": 0.25,
    "velocity": 100,
    "pitch": 60
  },
  {
    "clipIndex": 488,
    "trackId": "22",
    "clipName": null,
    "beat": 304.5,
    "relBeat": 14.5,
    "duration": 0.25,
    "velocity": 100,
    "pitch": 60
  },
  {
    "clipIndex": 489,
    "trackId": "22",
    "clipName": null,
    "beat": 304.5,
    "relBeat": 12.5,
    "duration": 0.25,
    "velocity": 100,
    "pitch": 60
  },
  {
    "clipIndex": 493,
    "trackId": "22",
    "clipName": null,
    "beat": 304.5,
    "relBeat": 4.5,
    "duration": 0.25,
    "velocity": 100,
    "pitch": 60
  },
  {
    "clipIndex": 494,
    "trackId": "22",
    "clipName": null,
    "beat": 304.5,
    "relBeat": 2.5,
    "duration": 0.25,
    "velocity": 100,
    "pitch": 60
  },
  {
    "clipIndex": 349,
    "trackId": "55",
    "clipName": null,
    "beat": 304.75,
    "relBeat": 0.75,
    "duration": 0.32496565934065935,
    "velocity": 100,
    "pitch": 60
  },
  {
    "clipIndex": 485,
    "trackId": "22",
    "clipName": null,
    "beat": 304.75,
    "relBeat": 24.75,
    "duration": 0.25,
    "velocity": 100,
    "pitch": 60
  },
  {
    "clipIndex": 487,
    "trackId": "22",
    "clipName": null,
    "beat": 304.75,
    "relBeat": 16.75,
    "duration": 0.25,
    "velocity": 100,
    "pitch": 60
  },
  {
    "clipIndex": 488,
    "trackId": "22",
    "clipName": null,
    "beat": 304.75,
    "relBeat": 14.75,
    "duration": 0.25,
    "velocity": 100,
    "pitch": 60
  },
  {
    "clipIndex": 489,
    "trackId": "22",
    "clipName": null,
    "beat": 304.75,
    "relBeat": 12.75,
    "duration": 0.25,
    "velocity": 100,
    "pitch": 60
  },
  {
    "clipIndex": 493,
    "trackId": "22",
    "clipName": null,
    "beat": 304.75,
    "relBeat": 4.75,
    "duration": 0.25,
    "velocity": 100,
    "pitch": 60
  },
  {
    "clipIndex": 494,
    "trackId": "22",
    "clipName": null,
    "beat": 304.75,
    "relBeat": 2.75,
    "duration": 0.25,
    "velocity": 100,
    "pitch": 60
  },
  {
    "clipIndex": 346,
    "trackId": "55",
    "clipName": null,
    "beat": 305,
    "relBeat": 17,
    "duration": 0.25000026015651017,
    "velocity": 100,
    "pitch": 60
  },
  {
    "clipIndex": 347,
    "trackId": "55",
    "clipName": null,
    "beat": 305,
    "relBeat": 13,
    "duration": 0.25000026015651017,
    "velocity": 100,
    "pitch": 60
  },
  {
    "clipIndex": 356,
    "trackId": "67",
    "clipName": null,
    "beat": 305,
    "relBeat": 305,
    "duration": 0.25000026015651017,
    "velocity": 100,
    "pitch": 72
  },
  {
    "clipIndex": 485,
    "trackId": "22",
    "clipName": null,
    "beat": 305,
    "relBeat": 25,
    "duration": 0.25,
    "velocity": 100,
    "pitch": 60
  },
  {
    "clipIndex": 487,
    "trackId": "22",
    "clipName": null,
    "beat": 305,
    "relBeat": 17,
    "duration": 0.25,
    "velocity": 100,
    "pitch": 60
  },
  {
    "clipIndex": 488,
    "trackId": "22",
    "clipName": null,
    "beat": 305,
    "relBeat": 15,
    "duration": 0.25,
    "velocity": 100,
    "pitch": 60
  },
  {
    "clipIndex": 489,
    "trackId": "22",
    "clipName": null,
    "beat": 305,
    "relBeat": 13,
    "duration": 0.25,
    "velocity": 100,
    "pitch": 60
  },
  {
    "clipIndex": 491,
    "trackId": "22",
    "clipName": null,
    "beat": 305,
    "relBeat": 9,
    "duration": 0.25,
    "velocity": 100,
    "pitch": 60
  },
  {
    "clipIndex": 493,
    "trackId": "22",
    "clipName": null,
    "beat": 305,
    "relBeat": 5,
    "duration": 0.25,
    "velocity": 100,
    "pitch": 60
  },
  {
    "clipIndex": 494,
    "trackId": "22",
    "clipName": null,
    "beat": 305,
    "relBeat": 3,
    "duration": 0.25,
    "velocity": 100,
    "pitch": 60
  },
  {
    "clipIndex": 495,
    "trackId": "22",
    "clipName": null,
    "beat": 305,
    "relBeat": 1,
    "duration": 0.25,
    "velocity": 100,
    "pitch": 60
  },
  {
    "clipIndex": 338,
    "trackId": "55",
    "clipName": null,
    "beat": 305.25,
    "relBeat": 105.25,
    "duration": 0.25000026015651017,
    "velocity": 100,
    "pitch": 60
  },
  {
    "clipIndex": 349,
    "trackId": "55",
    "clipName": null,
    "beat": 305.25,
    "relBeat": 1.25,
    "duration": 0.32496565934065935,
    "velocity": 100,
    "pitch": 60
  },
  {
    "clipIndex": 485,
    "trackId": "22",
    "clipName": null,
    "beat": 305.25,
    "relBeat": 25.25,
    "duration": 0.25,
    "velocity": 100,
    "pitch": 60
  },
  {
    "clipIndex": 487,
    "trackId": "22",
    "clipName": null,
    "beat": 305.25,
    "relBeat": 17.25,
    "duration": 0.25,
    "velocity": 100,
    "pitch": 60
  },
  {
    "clipIndex": 488,
    "trackId": "22",
    "clipName": null,
    "beat": 305.25,
    "relBeat": 15.25,
    "duration": 0.25,
    "velocity": 100,
    "pitch": 60
  },
  {
    "clipIndex": 489,
    "trackId": "22",
    "clipName": null,
    "beat": 305.25,
    "relBeat": 13.25,
    "duration": 0.25,
    "velocity": 100,
    "pitch": 60
  },
  {
    "clipIndex": 491,
    "trackId": "22",
    "clipName": null,
    "beat": 305.25,
    "relBeat": 9.25,
    "duration": 0.25,
    "velocity": 100,
    "pitch": 60
  },
  {
    "clipIndex": 493,
    "trackId": "22",
    "clipName": null,
    "beat": 305.25,
    "relBeat": 5.25,
    "duration": 0.25,
    "velocity": 100,
    "pitch": 60
  },
  {
    "clipIndex": 494,
    "trackId": "22",
    "clipName": null,
    "beat": 305.25,
    "relBeat": 3.25,
    "duration": 0.25,
    "velocity": 100,
    "pitch": 60
  },
  {
    "clipIndex": 495,
    "trackId": "22",
    "clipName": null,
    "beat": 305.25,
    "relBeat": 1.25,
    "duration": 0.25,
    "velocity": 100,
    "pitch": 60
  },
  {
    "clipIndex": 485,
    "trackId": "22",
    "clipName": null,
    "beat": 305.5,
    "relBeat": 25.5,
    "duration": 0.25,
    "velocity": 100,
    "pitch": 60
  },
  {
    "clipIndex": 487,
    "trackId": "22",
    "clipName": null,
    "beat": 305.5,
    "relBeat": 17.5,
    "duration": 0.25,
    "velocity": 100,
    "pitch": 60
  },
  {
    "clipIndex": 488,
    "trackId": "22",
    "clipName": null,
    "beat": 305.5,
    "relBeat": 15.5,
    "duration": 0.25,
    "velocity": 100,
    "pitch": 60
  },
  {
    "clipIndex": 489,
    "trackId": "22",
    "clipName": null,
    "beat": 305.5,
    "relBeat": 13.5,
    "duration": 0.25,
    "velocity": 100,
    "pitch": 60
  },
  {
    "clipIndex": 491,
    "trackId": "22",
    "clipName": null,
    "beat": 305.5,
    "relBeat": 9.5,
    "duration": 0.25,
    "velocity": 100,
    "pitch": 60
  },
  {
    "clipIndex": 493,
    "trackId": "22",
    "clipName": null,
    "beat": 305.5,
    "relBeat": 5.5,
    "duration": 0.25,
    "velocity": 100,
    "pitch": 60
  },
  {
    "clipIndex": 494,
    "trackId": "22",
    "clipName": null,
    "beat": 305.5,
    "relBeat": 3.5,
    "duration": 0.25,
    "velocity": 100,
    "pitch": 60
  },
  {
    "clipIndex": 495,
    "trackId": "22",
    "clipName": null,
    "beat": 305.5,
    "relBeat": 1.5,
    "duration": 0.25,
    "velocity": 100,
    "pitch": 60
  },
  {
    "clipIndex": 349,
    "trackId": "55",
    "clipName": null,
    "beat": 305.75,
    "relBeat": 1.75,
    "duration": 0.25000026015651017,
    "velocity": 100,
    "pitch": 60
  },
  {
    "clipIndex": 485,
    "trackId": "22",
    "clipName": null,
    "beat": 305.75,
    "relBeat": 25.75,
    "duration": 0.25,
    "velocity": 100,
    "pitch": 60
  },
  {
    "clipIndex": 487,
    "trackId": "22",
    "clipName": null,
    "beat": 305.75,
    "relBeat": 17.75,
    "duration": 0.25,
    "velocity": 100,
    "pitch": 60
  },
  {
    "clipIndex": 488,
    "trackId": "22",
    "clipName": null,
    "beat": 305.75,
    "relBeat": 15.75,
    "duration": 0.25,
    "velocity": 100,
    "pitch": 60
  },
  {
    "clipIndex": 489,
    "trackId": "22",
    "clipName": null,
    "beat": 305.75,
    "relBeat": 13.75,
    "duration": 0.25,
    "velocity": 100,
    "pitch": 60
  },
  {
    "clipIndex": 491,
    "trackId": "22",
    "clipName": null,
    "beat": 305.75,
    "relBeat": 9.75,
    "duration": 0.25,
    "velocity": 100,
    "pitch": 60
  },
  {
    "clipIndex": 493,
    "trackId": "22",
    "clipName": null,
    "beat": 305.75,
    "relBeat": 5.75,
    "duration": 0.25,
    "velocity": 100,
    "pitch": 60
  },
  {
    "clipIndex": 494,
    "trackId": "22",
    "clipName": null,
    "beat": 305.75,
    "relBeat": 3.75,
    "duration": 0.25,
    "velocity": 100,
    "pitch": 60
  },
  {
    "clipIndex": 495,
    "trackId": "22",
    "clipName": null,
    "beat": 305.75,
    "relBeat": 1.75,
    "duration": 0.25,
    "velocity": 100,
    "pitch": 60
  },
  {
    "clipIndex": 338,
    "trackId": "55",
    "clipName": null,
    "beat": 306,
    "relBeat": 106,
    "duration": 0.25000026015651017,
    "velocity": 100,
    "pitch": 60
  },
  {
    "clipIndex": 485,
    "trackId": "22",
    "clipName": null,
    "beat": 306,
    "relBeat": 26,
    "duration": 0.25,
    "velocity": 100,
    "pitch": 60
  },
  {
    "clipIndex": 487,
    "trackId": "22",
    "clipName": null,
    "beat": 306,
    "relBeat": 18,
    "duration": 0.25,
    "velocity": 100,
    "pitch": 60
  },
  {
    "clipIndex": 488,
    "trackId": "22",
    "clipName": null,
    "beat": 306,
    "relBeat": 16,
    "duration": 0.25,
    "velocity": 100,
    "pitch": 60
  },
  {
    "clipIndex": 489,
    "trackId": "22",
    "clipName": null,
    "beat": 306,
    "relBeat": 14,
    "duration": 0.25,
    "velocity": 100,
    "pitch": 60
  },
  {
    "clipIndex": 490,
    "trackId": "22",
    "clipName": null,
    "beat": 306,
    "relBeat": 12,
    "duration": 0.25,
    "velocity": 100,
    "pitch": 60
  },
  {
    "clipIndex": 491,
    "trackId": "22",
    "clipName": null,
    "beat": 306,
    "relBeat": 10,
    "duration": 0.25,
    "velocity": 100,
    "pitch": 60
  },
  {
    "clipIndex": 494,
    "trackId": "22",
    "clipName": null,
    "beat": 306,
    "relBeat": 4,
    "duration": 0.25,
    "velocity": 100,
    "pitch": 60
  },
  {
    "clipIndex": 485,
    "trackId": "22",
    "clipName": null,
    "beat": 306.25,
    "relBeat": 26.25,
    "duration": 0.25,
    "velocity": 100,
    "pitch": 60
  },
  {
    "clipIndex": 487,
    "trackId": "22",
    "clipName": null,
    "beat": 306.25,
    "relBeat": 18.25,
    "duration": 0.25,
    "velocity": 100,
    "pitch": 60
  },
  {
    "clipIndex": 488,
    "trackId": "22",
    "clipName": null,
    "beat": 306.25,
    "relBeat": 16.25,
    "duration": 0.25,
    "velocity": 100,
    "pitch": 60
  },
  {
    "clipIndex": 489,
    "trackId": "22",
    "clipName": null,
    "beat": 306.25,
    "relBeat": 14.25,
    "duration": 0.25,
    "velocity": 100,
    "pitch": 60
  },
  {
    "clipIndex": 490,
    "trackId": "22",
    "clipName": null,
    "beat": 306.25,
    "relBeat": 12.25,
    "duration": 0.25,
    "velocity": 100,
    "pitch": 60
  },
  {
    "clipIndex": 494,
    "trackId": "22",
    "clipName": null,
    "beat": 306.25,
    "relBeat": 4.25,
    "duration": 0.25,
    "velocity": 100,
    "pitch": 60
  },
  {
    "clipIndex": 485,
    "trackId": "22",
    "clipName": null,
    "beat": 306.5,
    "relBeat": 26.5,
    "duration": 0.25,
    "velocity": 100,
    "pitch": 60
  },
  {
    "clipIndex": 487,
    "trackId": "22",
    "clipName": null,
    "beat": 306.5,
    "relBeat": 18.5,
    "duration": 0.25,
    "velocity": 100,
    "pitch": 60
  },
  {
    "clipIndex": 488,
    "trackId": "22",
    "clipName": null,
    "beat": 306.5,
    "relBeat": 16.5,
    "duration": 0.25,
    "velocity": 100,
    "pitch": 60
  },
  {
    "clipIndex": 489,
    "trackId": "22",
    "clipName": null,
    "beat": 306.5,
    "relBeat": 14.5,
    "duration": 0.25,
    "velocity": 100,
    "pitch": 60
  },
  {
    "clipIndex": 490,
    "trackId": "22",
    "clipName": null,
    "beat": 306.5,
    "relBeat": 12.5,
    "duration": 0.25,
    "velocity": 100,
    "pitch": 60
  },
  {
    "clipIndex": 494,
    "trackId": "22",
    "clipName": null,
    "beat": 306.5,
    "relBeat": 4.5,
    "duration": 0.25,
    "velocity": 100,
    "pitch": 60
  },
  {
    "clipIndex": 495,
    "trackId": "22",
    "clipName": null,
    "beat": 306.5,
    "relBeat": 2.5,
    "duration": 0.25,
    "velocity": 100,
    "pitch": 60
  },
  {
    "clipIndex": 338,
    "trackId": "55",
    "clipName": null,
    "beat": 306.75,
    "relBeat": 106.75,
    "duration": 0.25000026015651017,
    "velocity": 100,
    "pitch": 60
  },
  {
    "clipIndex": 485,
    "trackId": "22",
    "clipName": null,
    "beat": 306.75,
    "relBeat": 26.75,
    "duration": 0.25,
    "velocity": 100,
    "pitch": 60
  },
  {
    "clipIndex": 487,
    "trackId": "22",
    "clipName": null,
    "beat": 306.75,
    "relBeat": 18.75,
    "duration": 0.25,
    "velocity": 100,
    "pitch": 60
  },
  {
    "clipIndex": 488,
    "trackId": "22",
    "clipName": null,
    "beat": 306.75,
    "relBeat": 16.75,
    "duration": 0.25,
    "velocity": 100,
    "pitch": 60
  },
  {
    "clipIndex": 489,
    "trackId": "22",
    "clipName": null,
    "beat": 306.75,
    "relBeat": 14.75,
    "duration": 0.25,
    "velocity": 100,
    "pitch": 60
  },
  {
    "clipIndex": 490,
    "trackId": "22",
    "clipName": null,
    "beat": 306.75,
    "relBeat": 12.75,
    "duration": 0.25,
    "velocity": 100,
    "pitch": 60
  },
  {
    "clipIndex": 494,
    "trackId": "22",
    "clipName": null,
    "beat": 306.75,
    "relBeat": 4.75,
    "duration": 0.25,
    "velocity": 100,
    "pitch": 60
  },
  {
    "clipIndex": 495,
    "trackId": "22",
    "clipName": null,
    "beat": 306.75,
    "relBeat": 2.75,
    "duration": 0.25,
    "velocity": 100,
    "pitch": 60
  },
  {
    "clipIndex": 346,
    "trackId": "55",
    "clipName": null,
    "beat": 307,
    "relBeat": 19,
    "duration": 0.25000026015651017,
    "velocity": 100,
    "pitch": 60
  },
  {
    "clipIndex": 347,
    "trackId": "55",
    "clipName": null,
    "beat": 307,
    "relBeat": 15,
    "duration": 0.25000026015651017,
    "velocity": 100,
    "pitch": 60
  },
  {
    "clipIndex": 485,
    "trackId": "22",
    "clipName": null,
    "beat": 307,
    "relBeat": 27,
    "duration": 0.25,
    "velocity": 100,
    "pitch": 60
  },
  {
    "clipIndex": 486,
    "trackId": "22",
    "clipName": null,
    "beat": 307,
    "relBeat": 24,
    "duration": 0.25,
    "velocity": 100,
    "pitch": 60
  },
  {
    "clipIndex": 487,
    "trackId": "22",
    "clipName": null,
    "beat": 307,
    "relBeat": 19,
    "duration": 0.25,
    "velocity": 100,
    "pitch": 60
  },
  {
    "clipIndex": 488,
    "trackId": "22",
    "clipName": null,
    "beat": 307,
    "relBeat": 17,
    "duration": 0.25,
    "velocity": 100,
    "pitch": 60
  },
  {
    "clipIndex": 489,
    "trackId": "22",
    "clipName": null,
    "beat": 307,
    "relBeat": 15,
    "duration": 0.25,
    "velocity": 100,
    "pitch": 60
  },
  {
    "clipIndex": 490,
    "trackId": "22",
    "clipName": null,
    "beat": 307,
    "relBeat": 13,
    "duration": 0.25,
    "velocity": 100,
    "pitch": 60
  },
  {
    "clipIndex": 492,
    "trackId": "22",
    "clipName": null,
    "beat": 307,
    "relBeat": 9,
    "duration": 0.25,
    "velocity": 100,
    "pitch": 60
  },
  {
    "clipIndex": 494,
    "trackId": "22",
    "clipName": null,
    "beat": 307,
    "relBeat": 5,
    "duration": 0.25,
    "velocity": 100,
    "pitch": 60
  },
  {
    "clipIndex": 495,
    "trackId": "22",
    "clipName": null,
    "beat": 307,
    "relBeat": 3,
    "duration": 0.25,
    "velocity": 100,
    "pitch": 60
  },
  {
    "clipIndex": 485,
    "trackId": "22",
    "clipName": null,
    "beat": 307.25,
    "relBeat": 27.25,
    "duration": 0.25,
    "velocity": 100,
    "pitch": 60
  },
  {
    "clipIndex": 486,
    "trackId": "22",
    "clipName": null,
    "beat": 307.25,
    "relBeat": 24.25,
    "duration": 0.25,
    "velocity": 100,
    "pitch": 60
  },
  {
    "clipIndex": 487,
    "trackId": "22",
    "clipName": null,
    "beat": 307.25,
    "relBeat": 19.25,
    "duration": 0.25,
    "velocity": 100,
    "pitch": 60
  },
  {
    "clipIndex": 488,
    "trackId": "22",
    "clipName": null,
    "beat": 307.25,
    "relBeat": 17.25,
    "duration": 0.25,
    "velocity": 100,
    "pitch": 60
  },
  {
    "clipIndex": 489,
    "trackId": "22",
    "clipName": null,
    "beat": 307.25,
    "relBeat": 15.25,
    "duration": 0.25,
    "velocity": 100,
    "pitch": 60
  },
  {
    "clipIndex": 490,
    "trackId": "22",
    "clipName": null,
    "beat": 307.25,
    "relBeat": 13.25,
    "duration": 0.25,
    "velocity": 100,
    "pitch": 60
  },
  {
    "clipIndex": 492,
    "trackId": "22",
    "clipName": null,
    "beat": 307.25,
    "relBeat": 9.25,
    "duration": 0.25,
    "velocity": 100,
    "pitch": 60
  },
  {
    "clipIndex": 494,
    "trackId": "22",
    "clipName": null,
    "beat": 307.25,
    "relBeat": 5.25,
    "duration": 0.25,
    "velocity": 100,
    "pitch": 60
  },
  {
    "clipIndex": 495,
    "trackId": "22",
    "clipName": null,
    "beat": 307.25,
    "relBeat": 3.25,
    "duration": 0.25,
    "velocity": 100,
    "pitch": 60
  },
  {
    "clipIndex": 338,
    "trackId": "55",
    "clipName": null,
    "beat": 307.5,
    "relBeat": 107.5,
    "duration": 0.25000026015651017,
    "velocity": 100,
    "pitch": 60
  },
  {
    "clipIndex": 356,
    "trackId": "67",
    "clipName": null,
    "beat": 307.5,
    "relBeat": 307.5,
    "duration": 0.25000026015651017,
    "velocity": 100,
    "pitch": 72
  },
  {
    "clipIndex": 485,
    "trackId": "22",
    "clipName": null,
    "beat": 307.5,
    "relBeat": 27.5,
    "duration": 0.25,
    "velocity": 100,
    "pitch": 60
  },
  {
    "clipIndex": 486,
    "trackId": "22",
    "clipName": null,
    "beat": 307.5,
    "relBeat": 24.5,
    "duration": 0.25,
    "velocity": 100,
    "pitch": 60
  },
  {
    "clipIndex": 487,
    "trackId": "22",
    "clipName": null,
    "beat": 307.5,
    "relBeat": 19.5,
    "duration": 0.25,
    "velocity": 100,
    "pitch": 60
  },
  {
    "clipIndex": 488,
    "trackId": "22",
    "clipName": null,
    "beat": 307.5,
    "relBeat": 17.5,
    "duration": 0.25,
    "velocity": 100,
    "pitch": 60
  },
  {
    "clipIndex": 489,
    "trackId": "22",
    "clipName": null,
    "beat": 307.5,
    "relBeat": 15.5,
    "duration": 0.25,
    "velocity": 100,
    "pitch": 60
  },
  {
    "clipIndex": 490,
    "trackId": "22",
    "clipName": null,
    "beat": 307.5,
    "relBeat": 13.5,
    "duration": 0.25,
    "velocity": 100,
    "pitch": 60
  },
  {
    "clipIndex": 492,
    "trackId": "22",
    "clipName": null,
    "beat": 307.5,
    "relBeat": 9.5,
    "duration": 0.25,
    "velocity": 100,
    "pitch": 60
  },
  {
    "clipIndex": 494,
    "trackId": "22",
    "clipName": null,
    "beat": 307.5,
    "relBeat": 5.5,
    "duration": 0.25,
    "velocity": 100,
    "pitch": 60
  },
  {
    "clipIndex": 495,
    "trackId": "22",
    "clipName": null,
    "beat": 307.5,
    "relBeat": 3.5,
    "duration": 0.25,
    "velocity": 100,
    "pitch": 60
  },
  {
    "clipIndex": 485,
    "trackId": "22",
    "clipName": null,
    "beat": 307.75,
    "relBeat": 27.75,
    "duration": 0.25,
    "velocity": 100,
    "pitch": 60
  },
  {
    "clipIndex": 486,
    "trackId": "22",
    "clipName": null,
    "beat": 307.75,
    "relBeat": 24.75,
    "duration": 0.25,
    "velocity": 100,
    "pitch": 60
  },
  {
    "clipIndex": 487,
    "trackId": "22",
    "clipName": null,
    "beat": 307.75,
    "relBeat": 19.75,
    "duration": 0.25,
    "velocity": 100,
    "pitch": 60
  },
  {
    "clipIndex": 488,
    "trackId": "22",
    "clipName": null,
    "beat": 307.75,
    "relBeat": 17.75,
    "duration": 0.25,
    "velocity": 100,
    "pitch": 60
  },
  {
    "clipIndex": 489,
    "trackId": "22",
    "clipName": null,
    "beat": 307.75,
    "relBeat": 15.75,
    "duration": 0.25,
    "velocity": 100,
    "pitch": 60
  },
  {
    "clipIndex": 490,
    "trackId": "22",
    "clipName": null,
    "beat": 307.75,
    "relBeat": 13.75,
    "duration": 0.25,
    "velocity": 100,
    "pitch": 60
  },
  {
    "clipIndex": 492,
    "trackId": "22",
    "clipName": null,
    "beat": 307.75,
    "relBeat": 9.75,
    "duration": 0.25,
    "velocity": 100,
    "pitch": 60
  },
  {
    "clipIndex": 494,
    "trackId": "22",
    "clipName": null,
    "beat": 307.75,
    "relBeat": 5.75,
    "duration": 0.25,
    "velocity": 100,
    "pitch": 60
  },
  {
    "clipIndex": 495,
    "trackId": "22",
    "clipName": null,
    "beat": 307.75,
    "relBeat": 3.75,
    "duration": 0.25,
    "velocity": 100,
    "pitch": 60
  },
  {
    "clipIndex": 485,
    "trackId": "22",
    "clipName": null,
    "beat": 308,
    "relBeat": 28,
    "duration": 0.25,
    "velocity": 100,
    "pitch": 60
  },
  {
    "clipIndex": 486,
    "trackId": "22",
    "clipName": null,
    "beat": 308,
    "relBeat": 25,
    "duration": 0.25,
    "velocity": 100,
    "pitch": 60
  },
  {
    "clipIndex": 487,
    "trackId": "22",
    "clipName": null,
    "beat": 308,
    "relBeat": 20,
    "duration": 0.25,
    "velocity": 100,
    "pitch": 60
  },
  {
    "clipIndex": 488,
    "trackId": "22",
    "clipName": null,
    "beat": 308,
    "relBeat": 18,
    "duration": 0.25,
    "velocity": 100,
    "pitch": 60
  },
  {
    "clipIndex": 489,
    "trackId": "22",
    "clipName": null,
    "beat": 308,
    "relBeat": 16,
    "duration": 0.25,
    "velocity": 100,
    "pitch": 60
  },
  {
    "clipIndex": 490,
    "trackId": "22",
    "clipName": null,
    "beat": 308,
    "relBeat": 14,
    "duration": 0.25,
    "velocity": 100,
    "pitch": 60
  },
  {
    "clipIndex": 491,
    "trackId": "22",
    "clipName": null,
    "beat": 308,
    "relBeat": 12,
    "duration": 0.25,
    "velocity": 100,
    "pitch": 60
  },
  {
    "clipIndex": 492,
    "trackId": "22",
    "clipName": null,
    "beat": 308,
    "relBeat": 10,
    "duration": 0.25,
    "velocity": 100,
    "pitch": 60
  },
  {
    "clipIndex": 495,
    "trackId": "22",
    "clipName": null,
    "beat": 308,
    "relBeat": 4,
    "duration": 0.25,
    "velocity": 100,
    "pitch": 60
  },
  {
    "clipIndex": 338,
    "trackId": "55",
    "clipName": null,
    "beat": 308.25,
    "relBeat": 108.25,
    "duration": 0.25000026015651017,
    "velocity": 100,
    "pitch": 60
  },
  {
    "clipIndex": 485,
    "trackId": "22",
    "clipName": null,
    "beat": 308.25,
    "relBeat": 28.25,
    "duration": 0.25,
    "velocity": 100,
    "pitch": 60
  },
  {
    "clipIndex": 486,
    "trackId": "22",
    "clipName": null,
    "beat": 308.25,
    "relBeat": 25.25,
    "duration": 0.25,
    "velocity": 100,
    "pitch": 60
  },
  {
    "clipIndex": 487,
    "trackId": "22",
    "clipName": null,
    "beat": 308.25,
    "relBeat": 20.25,
    "duration": 0.25,
    "velocity": 100,
    "pitch": 60
  },
  {
    "clipIndex": 488,
    "trackId": "22",
    "clipName": null,
    "beat": 308.25,
    "relBeat": 18.25,
    "duration": 0.25,
    "velocity": 100,
    "pitch": 60
  },
  {
    "clipIndex": 489,
    "trackId": "22",
    "clipName": null,
    "beat": 308.25,
    "relBeat": 16.25,
    "duration": 0.25,
    "velocity": 100,
    "pitch": 60
  },
  {
    "clipIndex": 490,
    "trackId": "22",
    "clipName": null,
    "beat": 308.25,
    "relBeat": 14.25,
    "duration": 0.25,
    "velocity": 100,
    "pitch": 60
  },
  {
    "clipIndex": 491,
    "trackId": "22",
    "clipName": null,
    "beat": 308.25,
    "relBeat": 12.25,
    "duration": 0.25,
    "velocity": 100,
    "pitch": 60
  },
  {
    "clipIndex": 495,
    "trackId": "22",
    "clipName": null,
    "beat": 308.25,
    "relBeat": 4.25,
    "duration": 0.25,
    "velocity": 100,
    "pitch": 60
  },
  {
    "clipIndex": 485,
    "trackId": "22",
    "clipName": null,
    "beat": 308.5,
    "relBeat": 28.5,
    "duration": 0.25,
    "velocity": 100,
    "pitch": 60
  },
  {
    "clipIndex": 486,
    "trackId": "22",
    "clipName": null,
    "beat": 308.5,
    "relBeat": 25.5,
    "duration": 0.25,
    "velocity": 100,
    "pitch": 60
  },
  {
    "clipIndex": 487,
    "trackId": "22",
    "clipName": null,
    "beat": 308.5,
    "relBeat": 20.5,
    "duration": 0.25,
    "velocity": 100,
    "pitch": 60
  },
  {
    "clipIndex": 488,
    "trackId": "22",
    "clipName": null,
    "beat": 308.5,
    "relBeat": 18.5,
    "duration": 0.25,
    "velocity": 100,
    "pitch": 60
  },
  {
    "clipIndex": 489,
    "trackId": "22",
    "clipName": null,
    "beat": 308.5,
    "relBeat": 16.5,
    "duration": 0.25,
    "velocity": 100,
    "pitch": 60
  },
  {
    "clipIndex": 490,
    "trackId": "22",
    "clipName": null,
    "beat": 308.5,
    "relBeat": 14.5,
    "duration": 0.25,
    "velocity": 100,
    "pitch": 60
  },
  {
    "clipIndex": 491,
    "trackId": "22",
    "clipName": null,
    "beat": 308.5,
    "relBeat": 12.5,
    "duration": 0.25,
    "velocity": 100,
    "pitch": 60
  },
  {
    "clipIndex": 485,
    "trackId": "22",
    "clipName": null,
    "beat": 308.75,
    "relBeat": 28.75,
    "duration": 0.25,
    "velocity": 100,
    "pitch": 60
  },
  {
    "clipIndex": 486,
    "trackId": "22",
    "clipName": null,
    "beat": 308.75,
    "relBeat": 25.75,
    "duration": 0.25,
    "velocity": 100,
    "pitch": 60
  },
  {
    "clipIndex": 487,
    "trackId": "22",
    "clipName": null,
    "beat": 308.75,
    "relBeat": 20.75,
    "duration": 0.25,
    "velocity": 100,
    "pitch": 60
  },
  {
    "clipIndex": 488,
    "trackId": "22",
    "clipName": null,
    "beat": 308.75,
    "relBeat": 18.75,
    "duration": 0.25,
    "velocity": 100,
    "pitch": 60
  },
  {
    "clipIndex": 489,
    "trackId": "22",
    "clipName": null,
    "beat": 308.75,
    "relBeat": 16.75,
    "duration": 0.25,
    "velocity": 100,
    "pitch": 60
  },
  {
    "clipIndex": 490,
    "trackId": "22",
    "clipName": null,
    "beat": 308.75,
    "relBeat": 14.75,
    "duration": 0.25,
    "velocity": 100,
    "pitch": 60
  },
  {
    "clipIndex": 491,
    "trackId": "22",
    "clipName": null,
    "beat": 308.75,
    "relBeat": 12.75,
    "duration": 0.25,
    "velocity": 100,
    "pitch": 60
  },
  {
    "clipIndex": 338,
    "trackId": "55",
    "clipName": null,
    "beat": 309,
    "relBeat": 109,
    "duration": 0.25000026015651017,
    "velocity": 100,
    "pitch": 60
  },
  {
    "clipIndex": 347,
    "trackId": "55",
    "clipName": null,
    "beat": 309,
    "relBeat": 17,
    "duration": 0.25000026015651017,
    "velocity": 100,
    "pitch": 60
  },
  {
    "clipIndex": 356,
    "trackId": "67",
    "clipName": null,
    "beat": 309,
    "relBeat": 309,
    "duration": 0.25000026015651017,
    "velocity": 100,
    "pitch": 72
  },
  {
    "clipIndex": 485,
    "trackId": "22",
    "clipName": null,
    "beat": 309,
    "relBeat": 29,
    "duration": 0.25,
    "velocity": 100,
    "pitch": 60
  },
  {
    "clipIndex": 486,
    "trackId": "22",
    "clipName": null,
    "beat": 309,
    "relBeat": 26,
    "duration": 0.25,
    "velocity": 100,
    "pitch": 60
  },
  {
    "clipIndex": 487,
    "trackId": "22",
    "clipName": null,
    "beat": 309,
    "relBeat": 21,
    "duration": 0.25,
    "velocity": 100,
    "pitch": 60
  },
  {
    "clipIndex": 488,
    "trackId": "22",
    "clipName": null,
    "beat": 309,
    "relBeat": 19,
    "duration": 0.25,
    "velocity": 100,
    "pitch": 60
  },
  {
    "clipIndex": 489,
    "trackId": "22",
    "clipName": null,
    "beat": 309,
    "relBeat": 17,
    "duration": 0.25,
    "velocity": 100,
    "pitch": 60
  },
  {
    "clipIndex": 490,
    "trackId": "22",
    "clipName": null,
    "beat": 309,
    "relBeat": 15,
    "duration": 0.25,
    "velocity": 100,
    "pitch": 60
  },
  {
    "clipIndex": 491,
    "trackId": "22",
    "clipName": null,
    "beat": 309,
    "relBeat": 13,
    "duration": 0.25,
    "velocity": 100,
    "pitch": 60
  },
  {
    "clipIndex": 493,
    "trackId": "22",
    "clipName": null,
    "beat": 309,
    "relBeat": 9,
    "duration": 0.25,
    "velocity": 100,
    "pitch": 60
  },
  {
    "clipIndex": 495,
    "trackId": "22",
    "clipName": null,
    "beat": 309,
    "relBeat": 5,
    "duration": 0.25,
    "velocity": 100,
    "pitch": 60
  },
  {
    "clipIndex": 485,
    "trackId": "22",
    "clipName": null,
    "beat": 309.25,
    "relBeat": 29.25,
    "duration": 0.25,
    "velocity": 100,
    "pitch": 60
  },
  {
    "clipIndex": 486,
    "trackId": "22",
    "clipName": null,
    "beat": 309.25,
    "relBeat": 26.25,
    "duration": 0.25,
    "velocity": 100,
    "pitch": 60
  },
  {
    "clipIndex": 487,
    "trackId": "22",
    "clipName": null,
    "beat": 309.25,
    "relBeat": 21.25,
    "duration": 0.25,
    "velocity": 100,
    "pitch": 60
  },
  {
    "clipIndex": 488,
    "trackId": "22",
    "clipName": null,
    "beat": 309.25,
    "relBeat": 19.25,
    "duration": 0.25,
    "velocity": 100,
    "pitch": 60
  },
  {
    "clipIndex": 489,
    "trackId": "22",
    "clipName": null,
    "beat": 309.25,
    "relBeat": 17.25,
    "duration": 0.25,
    "velocity": 100,
    "pitch": 60
  },
  {
    "clipIndex": 490,
    "trackId": "22",
    "clipName": null,
    "beat": 309.25,
    "relBeat": 15.25,
    "duration": 0.25,
    "velocity": 100,
    "pitch": 60
  },
  {
    "clipIndex": 491,
    "trackId": "22",
    "clipName": null,
    "beat": 309.25,
    "relBeat": 13.25,
    "duration": 0.25,
    "velocity": 100,
    "pitch": 60
  },
  {
    "clipIndex": 493,
    "trackId": "22",
    "clipName": null,
    "beat": 309.25,
    "relBeat": 9.25,
    "duration": 0.25,
    "velocity": 100,
    "pitch": 60
  },
  {
    "clipIndex": 495,
    "trackId": "22",
    "clipName": null,
    "beat": 309.25,
    "relBeat": 5.25,
    "duration": 0.25,
    "velocity": 100,
    "pitch": 60
  },
  {
    "clipIndex": 485,
    "trackId": "22",
    "clipName": null,
    "beat": 309.5,
    "relBeat": 29.5,
    "duration": 0.25,
    "velocity": 100,
    "pitch": 60
  },
  {
    "clipIndex": 486,
    "trackId": "22",
    "clipName": null,
    "beat": 309.5,
    "relBeat": 26.5,
    "duration": 0.25,
    "velocity": 100,
    "pitch": 60
  },
  {
    "clipIndex": 488,
    "trackId": "22",
    "clipName": null,
    "beat": 309.5,
    "relBeat": 19.5,
    "duration": 0.25,
    "velocity": 100,
    "pitch": 60
  },
  {
    "clipIndex": 489,
    "trackId": "22",
    "clipName": null,
    "beat": 309.5,
    "relBeat": 17.5,
    "duration": 0.25,
    "velocity": 100,
    "pitch": 60
  },
  {
    "clipIndex": 490,
    "trackId": "22",
    "clipName": null,
    "beat": 309.5,
    "relBeat": 15.5,
    "duration": 0.25,
    "velocity": 100,
    "pitch": 60
  },
  {
    "clipIndex": 491,
    "trackId": "22",
    "clipName": null,
    "beat": 309.5,
    "relBeat": 13.5,
    "duration": 0.25,
    "velocity": 100,
    "pitch": 60
  },
  {
    "clipIndex": 493,
    "trackId": "22",
    "clipName": null,
    "beat": 309.5,
    "relBeat": 9.5,
    "duration": 0.25,
    "velocity": 100,
    "pitch": 60
  },
  {
    "clipIndex": 495,
    "trackId": "22",
    "clipName": null,
    "beat": 309.5,
    "relBeat": 5.5,
    "duration": 0.25,
    "velocity": 100,
    "pitch": 60
  },
  {
    "clipIndex": 338,
    "trackId": "55",
    "clipName": null,
    "beat": 309.75,
    "relBeat": 109.75,
    "duration": 0.25000026015651017,
    "velocity": 100,
    "pitch": 60
  },
  {
    "clipIndex": 485,
    "trackId": "22",
    "clipName": null,
    "beat": 309.75,
    "relBeat": 29.75,
    "duration": 0.25,
    "velocity": 100,
    "pitch": 60
  },
  {
    "clipIndex": 486,
    "trackId": "22",
    "clipName": null,
    "beat": 309.75,
    "relBeat": 26.75,
    "duration": 0.25,
    "velocity": 100,
    "pitch": 60
  },
  {
    "clipIndex": 488,
    "trackId": "22",
    "clipName": null,
    "beat": 309.75,
    "relBeat": 19.75,
    "duration": 0.25,
    "velocity": 100,
    "pitch": 60
  },
  {
    "clipIndex": 489,
    "trackId": "22",
    "clipName": null,
    "beat": 309.75,
    "relBeat": 17.75,
    "duration": 0.25,
    "velocity": 100,
    "pitch": 60
  },
  {
    "clipIndex": 490,
    "trackId": "22",
    "clipName": null,
    "beat": 309.75,
    "relBeat": 15.75,
    "duration": 0.25,
    "velocity": 100,
    "pitch": 60
  },
  {
    "clipIndex": 491,
    "trackId": "22",
    "clipName": null,
    "beat": 309.75,
    "relBeat": 13.75,
    "duration": 0.25,
    "velocity": 100,
    "pitch": 60
  },
  {
    "clipIndex": 493,
    "trackId": "22",
    "clipName": null,
    "beat": 309.75,
    "relBeat": 9.75,
    "duration": 0.25,
    "velocity": 100,
    "pitch": 60
  },
  {
    "clipIndex": 495,
    "trackId": "22",
    "clipName": null,
    "beat": 309.75,
    "relBeat": 5.75,
    "duration": 0.25,
    "velocity": 100,
    "pitch": 60
  },
  {
    "clipIndex": 485,
    "trackId": "22",
    "clipName": null,
    "beat": 310,
    "relBeat": 30,
    "duration": 0.25,
    "velocity": 100,
    "pitch": 60
  },
  {
    "clipIndex": 486,
    "trackId": "22",
    "clipName": null,
    "beat": 310,
    "relBeat": 27,
    "duration": 0.25,
    "velocity": 100,
    "pitch": 60
  },
  {
    "clipIndex": 488,
    "trackId": "22",
    "clipName": null,
    "beat": 310,
    "relBeat": 20,
    "duration": 0.25,
    "velocity": 100,
    "pitch": 60
  },
  {
    "clipIndex": 489,
    "trackId": "22",
    "clipName": null,
    "beat": 310,
    "relBeat": 18,
    "duration": 0.25,
    "velocity": 100,
    "pitch": 60
  },
  {
    "clipIndex": 490,
    "trackId": "22",
    "clipName": null,
    "beat": 310,
    "relBeat": 16,
    "duration": 0.25,
    "velocity": 100,
    "pitch": 60
  },
  {
    "clipIndex": 491,
    "trackId": "22",
    "clipName": null,
    "beat": 310,
    "relBeat": 14,
    "duration": 0.25,
    "velocity": 100,
    "pitch": 60
  },
  {
    "clipIndex": 492,
    "trackId": "22",
    "clipName": null,
    "beat": 310,
    "relBeat": 12,
    "duration": 0.25,
    "velocity": 100,
    "pitch": 60
  },
  {
    "clipIndex": 493,
    "trackId": "22",
    "clipName": null,
    "beat": 310,
    "relBeat": 10,
    "duration": 0.25,
    "velocity": 100,
    "pitch": 60
  },
  {
    "clipIndex": 485,
    "trackId": "22",
    "clipName": null,
    "beat": 310.25,
    "relBeat": 30.25,
    "duration": 0.25,
    "velocity": 100,
    "pitch": 60
  },
  {
    "clipIndex": 486,
    "trackId": "22",
    "clipName": null,
    "beat": 310.25,
    "relBeat": 27.25,
    "duration": 0.25,
    "velocity": 100,
    "pitch": 60
  },
  {
    "clipIndex": 488,
    "trackId": "22",
    "clipName": null,
    "beat": 310.25,
    "relBeat": 20.25,
    "duration": 0.25,
    "velocity": 100,
    "pitch": 60
  },
  {
    "clipIndex": 489,
    "trackId": "22",
    "clipName": null,
    "beat": 310.25,
    "relBeat": 18.25,
    "duration": 0.25,
    "velocity": 100,
    "pitch": 60
  },
  {
    "clipIndex": 490,
    "trackId": "22",
    "clipName": null,
    "beat": 310.25,
    "relBeat": 16.25,
    "duration": 0.25,
    "velocity": 100,
    "pitch": 60
  },
  {
    "clipIndex": 491,
    "trackId": "22",
    "clipName": null,
    "beat": 310.25,
    "relBeat": 14.25,
    "duration": 0.25,
    "velocity": 100,
    "pitch": 60
  },
  {
    "clipIndex": 492,
    "trackId": "22",
    "clipName": null,
    "beat": 310.25,
    "relBeat": 12.25,
    "duration": 0.25,
    "velocity": 100,
    "pitch": 60
  },
  {
    "clipIndex": 338,
    "trackId": "55",
    "clipName": null,
    "beat": 310.5,
    "relBeat": 110.5,
    "duration": 0.25000026015651017,
    "velocity": 100,
    "pitch": 60
  },
  {
    "clipIndex": 356,
    "trackId": "67",
    "clipName": null,
    "beat": 310.5,
    "relBeat": 310.5,
    "duration": 0.25000026015651017,
    "velocity": 100,
    "pitch": 72
  },
  {
    "clipIndex": 485,
    "trackId": "22",
    "clipName": null,
    "beat": 310.5,
    "relBeat": 30.5,
    "duration": 0.25,
    "velocity": 100,
    "pitch": 60
  },
  {
    "clipIndex": 486,
    "trackId": "22",
    "clipName": null,
    "beat": 310.5,
    "relBeat": 27.5,
    "duration": 0.25,
    "velocity": 100,
    "pitch": 60
  },
  {
    "clipIndex": 488,
    "trackId": "22",
    "clipName": null,
    "beat": 310.5,
    "relBeat": 20.5,
    "duration": 0.25,
    "velocity": 100,
    "pitch": 60
  },
  {
    "clipIndex": 489,
    "trackId": "22",
    "clipName": null,
    "beat": 310.5,
    "relBeat": 18.5,
    "duration": 0.25,
    "velocity": 100,
    "pitch": 60
  },
  {
    "clipIndex": 490,
    "trackId": "22",
    "clipName": null,
    "beat": 310.5,
    "relBeat": 16.5,
    "duration": 0.25,
    "velocity": 100,
    "pitch": 60
  },
  {
    "clipIndex": 491,
    "trackId": "22",
    "clipName": null,
    "beat": 310.5,
    "relBeat": 14.5,
    "duration": 0.25,
    "velocity": 100,
    "pitch": 60
  },
  {
    "clipIndex": 492,
    "trackId": "22",
    "clipName": null,
    "beat": 310.5,
    "relBeat": 12.5,
    "duration": 0.25,
    "velocity": 100,
    "pitch": 60
  },
  {
    "clipIndex": 495,
    "trackId": "22",
    "clipName": null,
    "beat": 310.5,
    "relBeat": 6.5,
    "duration": 0.25,
    "velocity": 100,
    "pitch": 60
  },
  {
    "clipIndex": 485,
    "trackId": "22",
    "clipName": null,
    "beat": 310.75,
    "relBeat": 30.75,
    "duration": 0.25,
    "velocity": 100,
    "pitch": 60
  },
  {
    "clipIndex": 486,
    "trackId": "22",
    "clipName": null,
    "beat": 310.75,
    "relBeat": 27.75,
    "duration": 0.25,
    "velocity": 100,
    "pitch": 60
  },
  {
    "clipIndex": 488,
    "trackId": "22",
    "clipName": null,
    "beat": 310.75,
    "relBeat": 20.75,
    "duration": 0.25,
    "velocity": 100,
    "pitch": 60
  },
  {
    "clipIndex": 489,
    "trackId": "22",
    "clipName": null,
    "beat": 310.75,
    "relBeat": 18.75,
    "duration": 0.25,
    "velocity": 100,
    "pitch": 60
  },
  {
    "clipIndex": 490,
    "trackId": "22",
    "clipName": null,
    "beat": 310.75,
    "relBeat": 16.75,
    "duration": 0.25,
    "velocity": 100,
    "pitch": 60
  },
  {
    "clipIndex": 491,
    "trackId": "22",
    "clipName": null,
    "beat": 310.75,
    "relBeat": 14.75,
    "duration": 0.25,
    "velocity": 100,
    "pitch": 60
  },
  {
    "clipIndex": 492,
    "trackId": "22",
    "clipName": null,
    "beat": 310.75,
    "relBeat": 12.75,
    "duration": 0.25,
    "velocity": 100,
    "pitch": 60
  },
  {
    "clipIndex": 495,
    "trackId": "22",
    "clipName": null,
    "beat": 310.75,
    "relBeat": 6.75,
    "duration": 0.25,
    "velocity": 100,
    "pitch": 60
  },
  {
    "clipIndex": 347,
    "trackId": "55",
    "clipName": null,
    "beat": 311,
    "relBeat": 19,
    "duration": 0.25000026015651017,
    "velocity": 100,
    "pitch": 60
  },
  {
    "clipIndex": 485,
    "trackId": "22",
    "clipName": null,
    "beat": 311,
    "relBeat": 31,
    "duration": 0.25,
    "velocity": 100,
    "pitch": 60
  },
  {
    "clipIndex": 486,
    "trackId": "22",
    "clipName": null,
    "beat": 311,
    "relBeat": 28,
    "duration": 0.25,
    "velocity": 100,
    "pitch": 60
  },
  {
    "clipIndex": 488,
    "trackId": "22",
    "clipName": null,
    "beat": 311,
    "relBeat": 21,
    "duration": 0.25,
    "velocity": 100,
    "pitch": 60
  },
  {
    "clipIndex": 489,
    "trackId": "22",
    "clipName": null,
    "beat": 311,
    "relBeat": 19,
    "duration": 0.25,
    "velocity": 100,
    "pitch": 60
  },
  {
    "clipIndex": 490,
    "trackId": "22",
    "clipName": null,
    "beat": 311,
    "relBeat": 17,
    "duration": 0.25,
    "velocity": 100,
    "pitch": 60
  },
  {
    "clipIndex": 491,
    "trackId": "22",
    "clipName": null,
    "beat": 311,
    "relBeat": 15,
    "duration": 0.25,
    "velocity": 100,
    "pitch": 60
  },
  {
    "clipIndex": 492,
    "trackId": "22",
    "clipName": null,
    "beat": 311,
    "relBeat": 13,
    "duration": 0.25,
    "velocity": 100,
    "pitch": 60
  },
  {
    "clipIndex": 494,
    "trackId": "22",
    "clipName": null,
    "beat": 311,
    "relBeat": 9,
    "duration": 0.25,
    "velocity": 100,
    "pitch": 60
  },
  {
    "clipIndex": 495,
    "trackId": "22",
    "clipName": null,
    "beat": 311,
    "relBeat": 7,
    "duration": 0.25,
    "velocity": 100,
    "pitch": 60
  },
  {
    "clipIndex": 0,
    "trackId": "89",
    "clipName": null,
    "beat": 311.25,
    "relBeat": 311.25,
    "duration": 0.25,
    "velocity": 100,
    "pitch": 60
  },
  {
    "clipIndex": 485,
    "trackId": "22",
    "clipName": null,
    "beat": 311.25,
    "relBeat": 31.25,
    "duration": 0.25,
    "velocity": 100,
    "pitch": 60
  },
  {
    "clipIndex": 486,
    "trackId": "22",
    "clipName": null,
    "beat": 311.25,
    "relBeat": 28.25,
    "duration": 0.25,
    "velocity": 100,
    "pitch": 60
  },
  {
    "clipIndex": 488,
    "trackId": "22",
    "clipName": null,
    "beat": 311.25,
    "relBeat": 21.25,
    "duration": 0.25,
    "velocity": 100,
    "pitch": 60
  },
  {
    "clipIndex": 489,
    "trackId": "22",
    "clipName": null,
    "beat": 311.25,
    "relBeat": 19.25,
    "duration": 0.25,
    "velocity": 100,
    "pitch": 60
  },
  {
    "clipIndex": 490,
    "trackId": "22",
    "clipName": null,
    "beat": 311.25,
    "relBeat": 17.25,
    "duration": 0.25,
    "velocity": 100,
    "pitch": 60
  },
  {
    "clipIndex": 491,
    "trackId": "22",
    "clipName": null,
    "beat": 311.25,
    "relBeat": 15.25,
    "duration": 0.25,
    "velocity": 100,
    "pitch": 60
  },
  {
    "clipIndex": 492,
    "trackId": "22",
    "clipName": null,
    "beat": 311.25,
    "relBeat": 13.25,
    "duration": 0.25,
    "velocity": 100,
    "pitch": 60
  },
  {
    "clipIndex": 494,
    "trackId": "22",
    "clipName": null,
    "beat": 311.25,
    "relBeat": 9.25,
    "duration": 0.25,
    "velocity": 100,
    "pitch": 60
  },
  {
    "clipIndex": 495,
    "trackId": "22",
    "clipName": null,
    "beat": 311.25,
    "relBeat": 7.25,
    "duration": 0.25,
    "velocity": 100,
    "pitch": 60
  },
  {
    "clipIndex": 0,
    "trackId": "89",
    "clipName": null,
    "beat": 311.5,
    "relBeat": 311.5,
    "duration": 0.25,
    "velocity": 100,
    "pitch": 60
  },
  {
    "clipIndex": 485,
    "trackId": "22",
    "clipName": null,
    "beat": 311.5,
    "relBeat": 31.5,
    "duration": 0.25,
    "velocity": 100,
    "pitch": 60
  },
  {
    "clipIndex": 486,
    "trackId": "22",
    "clipName": null,
    "beat": 311.5,
    "relBeat": 28.5,
    "duration": 0.25,
    "velocity": 100,
    "pitch": 60
  },
  {
    "clipIndex": 489,
    "trackId": "22",
    "clipName": null,
    "beat": 311.5,
    "relBeat": 19.5,
    "duration": 0.25,
    "velocity": 100,
    "pitch": 60
  },
  {
    "clipIndex": 490,
    "trackId": "22",
    "clipName": null,
    "beat": 311.5,
    "relBeat": 17.5,
    "duration": 0.25,
    "velocity": 100,
    "pitch": 60
  },
  {
    "clipIndex": 491,
    "trackId": "22",
    "clipName": null,
    "beat": 311.5,
    "relBeat": 15.5,
    "duration": 0.25,
    "velocity": 100,
    "pitch": 60
  },
  {
    "clipIndex": 492,
    "trackId": "22",
    "clipName": null,
    "beat": 311.5,
    "relBeat": 13.5,
    "duration": 0.25,
    "velocity": 100,
    "pitch": 60
  },
  {
    "clipIndex": 494,
    "trackId": "22",
    "clipName": null,
    "beat": 311.5,
    "relBeat": 9.5,
    "duration": 0.25,
    "velocity": 100,
    "pitch": 60
  },
  {
    "clipIndex": 495,
    "trackId": "22",
    "clipName": null,
    "beat": 311.5,
    "relBeat": 7.5,
    "duration": 0.25,
    "velocity": 100,
    "pitch": 60
  },
  {
    "clipIndex": 485,
    "trackId": "22",
    "clipName": null,
    "beat": 311.75,
    "relBeat": 31.75,
    "duration": 0.25,
    "velocity": 100,
    "pitch": 60
  },
  {
    "clipIndex": 486,
    "trackId": "22",
    "clipName": null,
    "beat": 311.75,
    "relBeat": 28.75,
    "duration": 0.25,
    "velocity": 100,
    "pitch": 60
  },
  {
    "clipIndex": 489,
    "trackId": "22",
    "clipName": null,
    "beat": 311.75,
    "relBeat": 19.75,
    "duration": 0.25,
    "velocity": 100,
    "pitch": 60
  },
  {
    "clipIndex": 490,
    "trackId": "22",
    "clipName": null,
    "beat": 311.75,
    "relBeat": 17.75,
    "duration": 0.25,
    "velocity": 100,
    "pitch": 60
  },
  {
    "clipIndex": 491,
    "trackId": "22",
    "clipName": null,
    "beat": 311.75,
    "relBeat": 15.75,
    "duration": 0.25,
    "velocity": 100,
    "pitch": 60
  },
  {
    "clipIndex": 492,
    "trackId": "22",
    "clipName": null,
    "beat": 311.75,
    "relBeat": 13.75,
    "duration": 0.25,
    "velocity": 100,
    "pitch": 60
  },
  {
    "clipIndex": 494,
    "trackId": "22",
    "clipName": null,
    "beat": 311.75,
    "relBeat": 9.75,
    "duration": 0.25,
    "velocity": 100,
    "pitch": 60
  },
  {
    "clipIndex": 495,
    "trackId": "22",
    "clipName": null,
    "beat": 311.75,
    "relBeat": 7.75,
    "duration": 0.25,
    "velocity": 100,
    "pitch": 60
  },
  {
    "clipIndex": 486,
    "trackId": "22",
    "clipName": null,
    "beat": 312,
    "relBeat": 29,
    "duration": 0.25,
    "velocity": 100,
    "pitch": 60
  },
  {
    "clipIndex": 487,
    "trackId": "22",
    "clipName": null,
    "beat": 312,
    "relBeat": 24,
    "duration": 0.25,
    "velocity": 100,
    "pitch": 60
  },
  {
    "clipIndex": 489,
    "trackId": "22",
    "clipName": null,
    "beat": 312,
    "relBeat": 20,
    "duration": 0.25,
    "velocity": 100,
    "pitch": 60
  },
  {
    "clipIndex": 490,
    "trackId": "22",
    "clipName": null,
    "beat": 312,
    "relBeat": 18,
    "duration": 0.25,
    "velocity": 100,
    "pitch": 60
  },
  {
    "clipIndex": 491,
    "trackId": "22",
    "clipName": null,
    "beat": 312,
    "relBeat": 16,
    "duration": 0.25,
    "velocity": 100,
    "pitch": 60
  },
  {
    "clipIndex": 492,
    "trackId": "22",
    "clipName": null,
    "beat": 312,
    "relBeat": 14,
    "duration": 0.25,
    "velocity": 100,
    "pitch": 60
  },
  {
    "clipIndex": 493,
    "trackId": "22",
    "clipName": null,
    "beat": 312,
    "relBeat": 12,
    "duration": 0.25,
    "velocity": 100,
    "pitch": 60
  },
  {
    "clipIndex": 494,
    "trackId": "22",
    "clipName": null,
    "beat": 312,
    "relBeat": 10,
    "duration": 0.25,
    "velocity": 100,
    "pitch": 60
  },
  {
    "clipIndex": 495,
    "trackId": "22",
    "clipName": null,
    "beat": 312,
    "relBeat": 8,
    "duration": 0.25,
    "velocity": 100,
    "pitch": 60
  },
  {
    "clipIndex": 496,
    "trackId": "22",
    "clipName": null,
    "beat": 312,
    "relBeat": 0,
    "duration": 0.25,
    "velocity": 100,
    "pitch": 60
  },
  {
    "clipIndex": 486,
    "trackId": "22",
    "clipName": null,
    "beat": 312.25,
    "relBeat": 29.25,
    "duration": 0.25,
    "velocity": 100,
    "pitch": 60
  },
  {
    "clipIndex": 487,
    "trackId": "22",
    "clipName": null,
    "beat": 312.25,
    "relBeat": 24.25,
    "duration": 0.25,
    "velocity": 100,
    "pitch": 60
  },
  {
    "clipIndex": 489,
    "trackId": "22",
    "clipName": null,
    "beat": 312.25,
    "relBeat": 20.25,
    "duration": 0.25,
    "velocity": 100,
    "pitch": 60
  },
  {
    "clipIndex": 490,
    "trackId": "22",
    "clipName": null,
    "beat": 312.25,
    "relBeat": 18.25,
    "duration": 0.25,
    "velocity": 100,
    "pitch": 60
  },
  {
    "clipIndex": 491,
    "trackId": "22",
    "clipName": null,
    "beat": 312.25,
    "relBeat": 16.25,
    "duration": 0.25,
    "velocity": 100,
    "pitch": 60
  },
  {
    "clipIndex": 492,
    "trackId": "22",
    "clipName": null,
    "beat": 312.25,
    "relBeat": 14.25,
    "duration": 0.25,
    "velocity": 100,
    "pitch": 60
  },
  {
    "clipIndex": 493,
    "trackId": "22",
    "clipName": null,
    "beat": 312.25,
    "relBeat": 12.25,
    "duration": 0.25,
    "velocity": 100,
    "pitch": 60
  },
  {
    "clipIndex": 495,
    "trackId": "22",
    "clipName": null,
    "beat": 312.25,
    "relBeat": 8.25,
    "duration": 0.25,
    "velocity": 100,
    "pitch": 60
  },
  {
    "clipIndex": 496,
    "trackId": "22",
    "clipName": null,
    "beat": 312.25,
    "relBeat": 0.25,
    "duration": 0.25,
    "velocity": 100,
    "pitch": 60
  },
  {
    "clipIndex": 0,
    "trackId": "89",
    "clipName": null,
    "beat": 312.5,
    "relBeat": 312.5,
    "duration": 0.25,
    "velocity": 100,
    "pitch": 60
  },
  {
    "clipIndex": 486,
    "trackId": "22",
    "clipName": null,
    "beat": 312.5,
    "relBeat": 29.5,
    "duration": 0.25,
    "velocity": 100,
    "pitch": 60
  },
  {
    "clipIndex": 487,
    "trackId": "22",
    "clipName": null,
    "beat": 312.5,
    "relBeat": 24.5,
    "duration": 0.25,
    "velocity": 100,
    "pitch": 60
  },
  {
    "clipIndex": 489,
    "trackId": "22",
    "clipName": null,
    "beat": 312.5,
    "relBeat": 20.5,
    "duration": 0.25,
    "velocity": 100,
    "pitch": 60
  },
  {
    "clipIndex": 490,
    "trackId": "22",
    "clipName": null,
    "beat": 312.5,
    "relBeat": 18.5,
    "duration": 0.25,
    "velocity": 100,
    "pitch": 60
  },
  {
    "clipIndex": 491,
    "trackId": "22",
    "clipName": null,
    "beat": 312.5,
    "relBeat": 16.5,
    "duration": 0.25,
    "velocity": 100,
    "pitch": 60
  },
  {
    "clipIndex": 492,
    "trackId": "22",
    "clipName": null,
    "beat": 312.5,
    "relBeat": 14.5,
    "duration": 0.25,
    "velocity": 100,
    "pitch": 60
  },
  {
    "clipIndex": 493,
    "trackId": "22",
    "clipName": null,
    "beat": 312.5,
    "relBeat": 12.5,
    "duration": 0.25,
    "velocity": 100,
    "pitch": 60
  },
  {
    "clipIndex": 496,
    "trackId": "22",
    "clipName": null,
    "beat": 312.5,
    "relBeat": 0.5,
    "duration": 0.25,
    "velocity": 100,
    "pitch": 60
  },
  {
    "clipIndex": 0,
    "trackId": "89",
    "clipName": null,
    "beat": 312.75,
    "relBeat": 312.75,
    "duration": 0.25,
    "velocity": 100,
    "pitch": 60
  },
  {
    "clipIndex": 486,
    "trackId": "22",
    "clipName": null,
    "beat": 312.75,
    "relBeat": 29.75,
    "duration": 0.25,
    "velocity": 100,
    "pitch": 60
  },
  {
    "clipIndex": 487,
    "trackId": "22",
    "clipName": null,
    "beat": 312.75,
    "relBeat": 24.75,
    "duration": 0.25,
    "velocity": 100,
    "pitch": 60
  },
  {
    "clipIndex": 489,
    "trackId": "22",
    "clipName": null,
    "beat": 312.75,
    "relBeat": 20.75,
    "duration": 0.25,
    "velocity": 100,
    "pitch": 60
  },
  {
    "clipIndex": 490,
    "trackId": "22",
    "clipName": null,
    "beat": 312.75,
    "relBeat": 18.75,
    "duration": 0.25,
    "velocity": 100,
    "pitch": 60
  },
  {
    "clipIndex": 491,
    "trackId": "22",
    "clipName": null,
    "beat": 312.75,
    "relBeat": 16.75,
    "duration": 0.25,
    "velocity": 100,
    "pitch": 60
  },
  {
    "clipIndex": 492,
    "trackId": "22",
    "clipName": null,
    "beat": 312.75,
    "relBeat": 14.75,
    "duration": 0.25,
    "velocity": 100,
    "pitch": 60
  },
  {
    "clipIndex": 493,
    "trackId": "22",
    "clipName": null,
    "beat": 312.75,
    "relBeat": 12.75,
    "duration": 0.25,
    "velocity": 100,
    "pitch": 60
  },
  {
    "clipIndex": 496,
    "trackId": "22",
    "clipName": null,
    "beat": 312.75,
    "relBeat": 0.75,
    "duration": 0.25,
    "velocity": 100,
    "pitch": 60
  },
  {
    "clipIndex": 486,
    "trackId": "22",
    "clipName": null,
    "beat": 313,
    "relBeat": 30,
    "duration": 0.25,
    "velocity": 100,
    "pitch": 60
  },
  {
    "clipIndex": 487,
    "trackId": "22",
    "clipName": null,
    "beat": 313,
    "relBeat": 25,
    "duration": 0.25,
    "velocity": 100,
    "pitch": 60
  },
  {
    "clipIndex": 489,
    "trackId": "22",
    "clipName": null,
    "beat": 313,
    "relBeat": 21,
    "duration": 0.25,
    "velocity": 100,
    "pitch": 60
  },
  {
    "clipIndex": 490,
    "trackId": "22",
    "clipName": null,
    "beat": 313,
    "relBeat": 19,
    "duration": 0.25,
    "velocity": 100,
    "pitch": 60
  },
  {
    "clipIndex": 491,
    "trackId": "22",
    "clipName": null,
    "beat": 313,
    "relBeat": 17,
    "duration": 0.25,
    "velocity": 100,
    "pitch": 60
  },
  {
    "clipIndex": 492,
    "trackId": "22",
    "clipName": null,
    "beat": 313,
    "relBeat": 15,
    "duration": 0.25,
    "velocity": 100,
    "pitch": 60
  },
  {
    "clipIndex": 493,
    "trackId": "22",
    "clipName": null,
    "beat": 313,
    "relBeat": 13,
    "duration": 0.25,
    "velocity": 100,
    "pitch": 60
  },
  {
    "clipIndex": 495,
    "trackId": "22",
    "clipName": null,
    "beat": 313,
    "relBeat": 9,
    "duration": 0.25,
    "velocity": 100,
    "pitch": 60
  },
  {
    "clipIndex": 496,
    "trackId": "22",
    "clipName": null,
    "beat": 313,
    "relBeat": 1,
    "duration": 0.25,
    "velocity": 100,
    "pitch": 60
  },
  {
    "clipIndex": 486,
    "trackId": "22",
    "clipName": null,
    "beat": 313.25,
    "relBeat": 30.25,
    "duration": 0.25,
    "velocity": 100,
    "pitch": 60
  },
  {
    "clipIndex": 487,
    "trackId": "22",
    "clipName": null,
    "beat": 313.25,
    "relBeat": 25.25,
    "duration": 0.25,
    "velocity": 100,
    "pitch": 60
  },
  {
    "clipIndex": 489,
    "trackId": "22",
    "clipName": null,
    "beat": 313.25,
    "relBeat": 21.25,
    "duration": 0.25,
    "velocity": 100,
    "pitch": 60
  },
  {
    "clipIndex": 490,
    "trackId": "22",
    "clipName": null,
    "beat": 313.25,
    "relBeat": 19.25,
    "duration": 0.25,
    "velocity": 100,
    "pitch": 60
  },
  {
    "clipIndex": 491,
    "trackId": "22",
    "clipName": null,
    "beat": 313.25,
    "relBeat": 17.25,
    "duration": 0.25,
    "velocity": 100,
    "pitch": 60
  },
  {
    "clipIndex": 492,
    "trackId": "22",
    "clipName": null,
    "beat": 313.25,
    "relBeat": 15.25,
    "duration": 0.25,
    "velocity": 100,
    "pitch": 60
  },
  {
    "clipIndex": 493,
    "trackId": "22",
    "clipName": null,
    "beat": 313.25,
    "relBeat": 13.25,
    "duration": 0.25,
    "velocity": 100,
    "pitch": 60
  },
  {
    "clipIndex": 495,
    "trackId": "22",
    "clipName": null,
    "beat": 313.25,
    "relBeat": 9.25,
    "duration": 0.25,
    "velocity": 100,
    "pitch": 60
  },
  {
    "clipIndex": 496,
    "trackId": "22",
    "clipName": null,
    "beat": 313.25,
    "relBeat": 1.25,
    "duration": 0.25,
    "velocity": 100,
    "pitch": 60
  },
  {
    "clipIndex": 486,
    "trackId": "22",
    "clipName": null,
    "beat": 313.5,
    "relBeat": 30.5,
    "duration": 0.25,
    "velocity": 100,
    "pitch": 60
  },
  {
    "clipIndex": 487,
    "trackId": "22",
    "clipName": null,
    "beat": 313.5,
    "relBeat": 25.5,
    "duration": 0.25,
    "velocity": 100,
    "pitch": 60
  },
  {
    "clipIndex": 490,
    "trackId": "22",
    "clipName": null,
    "beat": 313.5,
    "relBeat": 19.5,
    "duration": 0.25,
    "velocity": 100,
    "pitch": 60
  },
  {
    "clipIndex": 491,
    "trackId": "22",
    "clipName": null,
    "beat": 313.5,
    "relBeat": 17.5,
    "duration": 0.25,
    "velocity": 100,
    "pitch": 60
  },
  {
    "clipIndex": 492,
    "trackId": "22",
    "clipName": null,
    "beat": 313.5,
    "relBeat": 15.5,
    "duration": 0.25,
    "velocity": 100,
    "pitch": 60
  },
  {
    "clipIndex": 493,
    "trackId": "22",
    "clipName": null,
    "beat": 313.5,
    "relBeat": 13.5,
    "duration": 0.25,
    "velocity": 100,
    "pitch": 60
  },
  {
    "clipIndex": 495,
    "trackId": "22",
    "clipName": null,
    "beat": 313.5,
    "relBeat": 9.5,
    "duration": 0.25,
    "velocity": 100,
    "pitch": 60
  },
  {
    "clipIndex": 496,
    "trackId": "22",
    "clipName": null,
    "beat": 313.5,
    "relBeat": 1.5,
    "duration": 0.25,
    "velocity": 100,
    "pitch": 60
  },
  {
    "clipIndex": 0,
    "trackId": "89",
    "clipName": null,
    "beat": 313.75,
    "relBeat": 313.75,
    "duration": 0.25,
    "velocity": 100,
    "pitch": 60
  },
  {
    "clipIndex": 486,
    "trackId": "22",
    "clipName": null,
    "beat": 313.75,
    "relBeat": 30.75,
    "duration": 0.25,
    "velocity": 100,
    "pitch": 60
  },
  {
    "clipIndex": 487,
    "trackId": "22",
    "clipName": null,
    "beat": 313.75,
    "relBeat": 25.75,
    "duration": 0.25,
    "velocity": 100,
    "pitch": 60
  },
  {
    "clipIndex": 490,
    "trackId": "22",
    "clipName": null,
    "beat": 313.75,
    "relBeat": 19.75,
    "duration": 0.25,
    "velocity": 100,
    "pitch": 60
  },
  {
    "clipIndex": 491,
    "trackId": "22",
    "clipName": null,
    "beat": 313.75,
    "relBeat": 17.75,
    "duration": 0.25,
    "velocity": 100,
    "pitch": 60
  },
  {
    "clipIndex": 492,
    "trackId": "22",
    "clipName": null,
    "beat": 313.75,
    "relBeat": 15.75,
    "duration": 0.25,
    "velocity": 100,
    "pitch": 60
  },
  {
    "clipIndex": 493,
    "trackId": "22",
    "clipName": null,
    "beat": 313.75,
    "relBeat": 13.75,
    "duration": 0.25,
    "velocity": 100,
    "pitch": 60
  },
  {
    "clipIndex": 495,
    "trackId": "22",
    "clipName": null,
    "beat": 313.75,
    "relBeat": 9.75,
    "duration": 0.25,
    "velocity": 100,
    "pitch": 60
  },
  {
    "clipIndex": 496,
    "trackId": "22",
    "clipName": null,
    "beat": 313.75,
    "relBeat": 1.75,
    "duration": 0.25,
    "velocity": 100,
    "pitch": 60
  },
  {
    "clipIndex": 0,
    "trackId": "89",
    "clipName": null,
    "beat": 314,
    "relBeat": 314,
    "duration": 0.25,
    "velocity": 100,
    "pitch": 60
  },
  {
    "clipIndex": 486,
    "trackId": "22",
    "clipName": null,
    "beat": 314,
    "relBeat": 31,
    "duration": 0.25,
    "velocity": 100,
    "pitch": 60
  },
  {
    "clipIndex": 487,
    "trackId": "22",
    "clipName": null,
    "beat": 314,
    "relBeat": 26,
    "duration": 0.25,
    "velocity": 100,
    "pitch": 60
  },
  {
    "clipIndex": 488,
    "trackId": "22",
    "clipName": null,
    "beat": 314,
    "relBeat": 24,
    "duration": 0.25,
    "velocity": 100,
    "pitch": 60
  },
  {
    "clipIndex": 490,
    "trackId": "22",
    "clipName": null,
    "beat": 314,
    "relBeat": 20,
    "duration": 0.25,
    "velocity": 100,
    "pitch": 60
  },
  {
    "clipIndex": 491,
    "trackId": "22",
    "clipName": null,
    "beat": 314,
    "relBeat": 18,
    "duration": 0.25,
    "velocity": 100,
    "pitch": 60
  },
  {
    "clipIndex": 492,
    "trackId": "22",
    "clipName": null,
    "beat": 314,
    "relBeat": 16,
    "duration": 0.25,
    "velocity": 100,
    "pitch": 60
  },
  {
    "clipIndex": 493,
    "trackId": "22",
    "clipName": null,
    "beat": 314,
    "relBeat": 14,
    "duration": 0.25,
    "velocity": 100,
    "pitch": 60
  },
  {
    "clipIndex": 494,
    "trackId": "22",
    "clipName": null,
    "beat": 314,
    "relBeat": 12,
    "duration": 0.25,
    "velocity": 100,
    "pitch": 60
  },
  {
    "clipIndex": 496,
    "trackId": "22",
    "clipName": null,
    "beat": 314,
    "relBeat": 2,
    "duration": 0.25,
    "velocity": 100,
    "pitch": 60
  },
  {
    "clipIndex": 497,
    "trackId": "22",
    "clipName": null,
    "beat": 314,
    "relBeat": 0,
    "duration": 0.25,
    "velocity": 100,
    "pitch": 60
  },
  {
    "clipIndex": 486,
    "trackId": "22",
    "clipName": null,
    "beat": 314.25,
    "relBeat": 31.25,
    "duration": 0.25,
    "velocity": 100,
    "pitch": 60
  },
  {
    "clipIndex": 487,
    "trackId": "22",
    "clipName": null,
    "beat": 314.25,
    "relBeat": 26.25,
    "duration": 0.25,
    "velocity": 100,
    "pitch": 60
  },
  {
    "clipIndex": 488,
    "trackId": "22",
    "clipName": null,
    "beat": 314.25,
    "relBeat": 24.25,
    "duration": 0.25,
    "velocity": 100,
    "pitch": 60
  },
  {
    "clipIndex": 490,
    "trackId": "22",
    "clipName": null,
    "beat": 314.25,
    "relBeat": 20.25,
    "duration": 0.25,
    "velocity": 100,
    "pitch": 60
  },
  {
    "clipIndex": 491,
    "trackId": "22",
    "clipName": null,
    "beat": 314.25,
    "relBeat": 18.25,
    "duration": 0.25,
    "velocity": 100,
    "pitch": 60
  },
  {
    "clipIndex": 492,
    "trackId": "22",
    "clipName": null,
    "beat": 314.25,
    "relBeat": 16.25,
    "duration": 0.25,
    "velocity": 100,
    "pitch": 60
  },
  {
    "clipIndex": 493,
    "trackId": "22",
    "clipName": null,
    "beat": 314.25,
    "relBeat": 14.25,
    "duration": 0.25,
    "velocity": 100,
    "pitch": 60
  },
  {
    "clipIndex": 494,
    "trackId": "22",
    "clipName": null,
    "beat": 314.25,
    "relBeat": 12.25,
    "duration": 0.25,
    "velocity": 100,
    "pitch": 60
  },
  {
    "clipIndex": 496,
    "trackId": "22",
    "clipName": null,
    "beat": 314.25,
    "relBeat": 2.25,
    "duration": 0.25,
    "velocity": 100,
    "pitch": 60
  },
  {
    "clipIndex": 497,
    "trackId": "22",
    "clipName": null,
    "beat": 314.25,
    "relBeat": 0.25,
    "duration": 0.25,
    "velocity": 100,
    "pitch": 60
  },
  {
    "clipIndex": 486,
    "trackId": "22",
    "clipName": null,
    "beat": 314.5,
    "relBeat": 31.5,
    "duration": 0.25,
    "velocity": 100,
    "pitch": 60
  },
  {
    "clipIndex": 487,
    "trackId": "22",
    "clipName": null,
    "beat": 314.5,
    "relBeat": 26.5,
    "duration": 0.25,
    "velocity": 100,
    "pitch": 60
  },
  {
    "clipIndex": 488,
    "trackId": "22",
    "clipName": null,
    "beat": 314.5,
    "relBeat": 24.5,
    "duration": 0.25,
    "velocity": 100,
    "pitch": 60
  },
  {
    "clipIndex": 490,
    "trackId": "22",
    "clipName": null,
    "beat": 314.5,
    "relBeat": 20.5,
    "duration": 0.25,
    "velocity": 100,
    "pitch": 60
  },
  {
    "clipIndex": 491,
    "trackId": "22",
    "clipName": null,
    "beat": 314.5,
    "relBeat": 18.5,
    "duration": 0.25,
    "velocity": 100,
    "pitch": 60
  },
  {
    "clipIndex": 492,
    "trackId": "22",
    "clipName": null,
    "beat": 314.5,
    "relBeat": 16.5,
    "duration": 0.25,
    "velocity": 100,
    "pitch": 60
  },
  {
    "clipIndex": 493,
    "trackId": "22",
    "clipName": null,
    "beat": 314.5,
    "relBeat": 14.5,
    "duration": 0.25,
    "velocity": 100,
    "pitch": 60
  },
  {
    "clipIndex": 494,
    "trackId": "22",
    "clipName": null,
    "beat": 314.5,
    "relBeat": 12.5,
    "duration": 0.25,
    "velocity": 100,
    "pitch": 60
  },
  {
    "clipIndex": 495,
    "trackId": "22",
    "clipName": null,
    "beat": 314.5,
    "relBeat": 10.5,
    "duration": 0.25,
    "velocity": 100,
    "pitch": 60
  },
  {
    "clipIndex": 496,
    "trackId": "22",
    "clipName": null,
    "beat": 314.5,
    "relBeat": 2.5,
    "duration": 0.25,
    "velocity": 100,
    "pitch": 60
  },
  {
    "clipIndex": 497,
    "trackId": "22",
    "clipName": null,
    "beat": 314.5,
    "relBeat": 0.5,
    "duration": 0.25,
    "velocity": 100,
    "pitch": 60
  },
  {
    "clipIndex": 486,
    "trackId": "22",
    "clipName": null,
    "beat": 314.75,
    "relBeat": 31.75,
    "duration": 0.25,
    "velocity": 100,
    "pitch": 60
  },
  {
    "clipIndex": 487,
    "trackId": "22",
    "clipName": null,
    "beat": 314.75,
    "relBeat": 26.75,
    "duration": 0.25,
    "velocity": 100,
    "pitch": 60
  },
  {
    "clipIndex": 488,
    "trackId": "22",
    "clipName": null,
    "beat": 314.75,
    "relBeat": 24.75,
    "duration": 0.25,
    "velocity": 100,
    "pitch": 60
  },
  {
    "clipIndex": 490,
    "trackId": "22",
    "clipName": null,
    "beat": 314.75,
    "relBeat": 20.75,
    "duration": 0.25,
    "velocity": 100,
    "pitch": 60
  },
  {
    "clipIndex": 491,
    "trackId": "22",
    "clipName": null,
    "beat": 314.75,
    "relBeat": 18.75,
    "duration": 0.25,
    "velocity": 100,
    "pitch": 60
  },
  {
    "clipIndex": 492,
    "trackId": "22",
    "clipName": null,
    "beat": 314.75,
    "relBeat": 16.75,
    "duration": 0.25,
    "velocity": 100,
    "pitch": 60
  },
  {
    "clipIndex": 493,
    "trackId": "22",
    "clipName": null,
    "beat": 314.75,
    "relBeat": 14.75,
    "duration": 0.25,
    "velocity": 100,
    "pitch": 60
  },
  {
    "clipIndex": 494,
    "trackId": "22",
    "clipName": null,
    "beat": 314.75,
    "relBeat": 12.75,
    "duration": 0.25,
    "velocity": 100,
    "pitch": 60
  },
  {
    "clipIndex": 495,
    "trackId": "22",
    "clipName": null,
    "beat": 314.75,
    "relBeat": 10.75,
    "duration": 0.25,
    "velocity": 100,
    "pitch": 60
  },
  {
    "clipIndex": 496,
    "trackId": "22",
    "clipName": null,
    "beat": 314.75,
    "relBeat": 2.75,
    "duration": 0.25,
    "velocity": 100,
    "pitch": 60
  },
  {
    "clipIndex": 497,
    "trackId": "22",
    "clipName": null,
    "beat": 314.75,
    "relBeat": 0.75,
    "duration": 0.25,
    "velocity": 100,
    "pitch": 60
  },
  {
    "clipIndex": 0,
    "trackId": "89",
    "clipName": null,
    "beat": 315,
    "relBeat": 315,
    "duration": 0.25,
    "velocity": 100,
    "pitch": 60
  },
  {
    "clipIndex": 487,
    "trackId": "22",
    "clipName": null,
    "beat": 315,
    "relBeat": 27,
    "duration": 0.25,
    "velocity": 100,
    "pitch": 60
  },
  {
    "clipIndex": 488,
    "trackId": "22",
    "clipName": null,
    "beat": 315,
    "relBeat": 25,
    "duration": 0.25,
    "velocity": 100,
    "pitch": 60
  },
  {
    "clipIndex": 490,
    "trackId": "22",
    "clipName": null,
    "beat": 315,
    "relBeat": 21,
    "duration": 0.25,
    "velocity": 100,
    "pitch": 60
  },
  {
    "clipIndex": 491,
    "trackId": "22",
    "clipName": null,
    "beat": 315,
    "relBeat": 19,
    "duration": 0.25,
    "velocity": 100,
    "pitch": 60
  },
  {
    "clipIndex": 492,
    "trackId": "22",
    "clipName": null,
    "beat": 315,
    "relBeat": 17,
    "duration": 0.25,
    "velocity": 100,
    "pitch": 60
  },
  {
    "clipIndex": 493,
    "trackId": "22",
    "clipName": null,
    "beat": 315,
    "relBeat": 15,
    "duration": 0.25,
    "velocity": 100,
    "pitch": 60
  },
  {
    "clipIndex": 494,
    "trackId": "22",
    "clipName": null,
    "beat": 315,
    "relBeat": 13,
    "duration": 0.25,
    "velocity": 100,
    "pitch": 60
  },
  {
    "clipIndex": 495,
    "trackId": "22",
    "clipName": null,
    "beat": 315,
    "relBeat": 11,
    "duration": 0.25,
    "velocity": 100,
    "pitch": 60
  },
  {
    "clipIndex": 496,
    "trackId": "22",
    "clipName": null,
    "beat": 315,
    "relBeat": 3,
    "duration": 0.25,
    "velocity": 100,
    "pitch": 60
  },
  {
    "clipIndex": 497,
    "trackId": "22",
    "clipName": null,
    "beat": 315,
    "relBeat": 1,
    "duration": 0.25,
    "velocity": 100,
    "pitch": 60
  },
  {
    "clipIndex": 0,
    "trackId": "89",
    "clipName": null,
    "beat": 315.25,
    "relBeat": 315.25,
    "duration": 0.25,
    "velocity": 100,
    "pitch": 60
  },
  {
    "clipIndex": 487,
    "trackId": "22",
    "clipName": null,
    "beat": 315.25,
    "relBeat": 27.25,
    "duration": 0.25,
    "velocity": 100,
    "pitch": 60
  },
  {
    "clipIndex": 488,
    "trackId": "22",
    "clipName": null,
    "beat": 315.25,
    "relBeat": 25.25,
    "duration": 0.25,
    "velocity": 100,
    "pitch": 60
  },
  {
    "clipIndex": 490,
    "trackId": "22",
    "clipName": null,
    "beat": 315.25,
    "relBeat": 21.25,
    "duration": 0.25,
    "velocity": 100,
    "pitch": 60
  },
  {
    "clipIndex": 491,
    "trackId": "22",
    "clipName": null,
    "beat": 315.25,
    "relBeat": 19.25,
    "duration": 0.25,
    "velocity": 100,
    "pitch": 60
  },
  {
    "clipIndex": 492,
    "trackId": "22",
    "clipName": null,
    "beat": 315.25,
    "relBeat": 17.25,
    "duration": 0.25,
    "velocity": 100,
    "pitch": 60
  },
  {
    "clipIndex": 493,
    "trackId": "22",
    "clipName": null,
    "beat": 315.25,
    "relBeat": 15.25,
    "duration": 0.25,
    "velocity": 100,
    "pitch": 60
  },
  {
    "clipIndex": 494,
    "trackId": "22",
    "clipName": null,
    "beat": 315.25,
    "relBeat": 13.25,
    "duration": 0.25,
    "velocity": 100,
    "pitch": 60
  },
  {
    "clipIndex": 495,
    "trackId": "22",
    "clipName": null,
    "beat": 315.25,
    "relBeat": 11.25,
    "duration": 0.25,
    "velocity": 100,
    "pitch": 60
  },
  {
    "clipIndex": 496,
    "trackId": "22",
    "clipName": null,
    "beat": 315.25,
    "relBeat": 3.25,
    "duration": 0.25,
    "velocity": 100,
    "pitch": 60
  },
  {
    "clipIndex": 497,
    "trackId": "22",
    "clipName": null,
    "beat": 315.25,
    "relBeat": 1.25,
    "duration": 0.25,
    "velocity": 100,
    "pitch": 60
  },
  {
    "clipIndex": 487,
    "trackId": "22",
    "clipName": null,
    "beat": 315.5,
    "relBeat": 27.5,
    "duration": 0.25,
    "velocity": 100,
    "pitch": 60
  },
  {
    "clipIndex": 488,
    "trackId": "22",
    "clipName": null,
    "beat": 315.5,
    "relBeat": 25.5,
    "duration": 0.25,
    "velocity": 100,
    "pitch": 60
  },
  {
    "clipIndex": 491,
    "trackId": "22",
    "clipName": null,
    "beat": 315.5,
    "relBeat": 19.5,
    "duration": 0.25,
    "velocity": 100,
    "pitch": 60
  },
  {
    "clipIndex": 492,
    "trackId": "22",
    "clipName": null,
    "beat": 315.5,
    "relBeat": 17.5,
    "duration": 0.25,
    "velocity": 100,
    "pitch": 60
  },
  {
    "clipIndex": 493,
    "trackId": "22",
    "clipName": null,
    "beat": 315.5,
    "relBeat": 15.5,
    "duration": 0.25,
    "velocity": 100,
    "pitch": 60
  },
  {
    "clipIndex": 494,
    "trackId": "22",
    "clipName": null,
    "beat": 315.5,
    "relBeat": 13.5,
    "duration": 0.25,
    "velocity": 100,
    "pitch": 60
  },
  {
    "clipIndex": 495,
    "trackId": "22",
    "clipName": null,
    "beat": 315.5,
    "relBeat": 11.5,
    "duration": 0.25,
    "velocity": 100,
    "pitch": 60
  },
  {
    "clipIndex": 496,
    "trackId": "22",
    "clipName": null,
    "beat": 315.5,
    "relBeat": 3.5,
    "duration": 0.25,
    "velocity": 100,
    "pitch": 60
  },
  {
    "clipIndex": 497,
    "trackId": "22",
    "clipName": null,
    "beat": 315.5,
    "relBeat": 1.5,
    "duration": 0.25,
    "velocity": 100,
    "pitch": 60
  },
  {
    "clipIndex": 487,
    "trackId": "22",
    "clipName": null,
    "beat": 315.75,
    "relBeat": 27.75,
    "duration": 0.25,
    "velocity": 100,
    "pitch": 60
  },
  {
    "clipIndex": 488,
    "trackId": "22",
    "clipName": null,
    "beat": 315.75,
    "relBeat": 25.75,
    "duration": 0.25,
    "velocity": 100,
    "pitch": 60
  },
  {
    "clipIndex": 491,
    "trackId": "22",
    "clipName": null,
    "beat": 315.75,
    "relBeat": 19.75,
    "duration": 0.25,
    "velocity": 100,
    "pitch": 60
  },
  {
    "clipIndex": 492,
    "trackId": "22",
    "clipName": null,
    "beat": 315.75,
    "relBeat": 17.75,
    "duration": 0.25,
    "velocity": 100,
    "pitch": 60
  },
  {
    "clipIndex": 493,
    "trackId": "22",
    "clipName": null,
    "beat": 315.75,
    "relBeat": 15.75,
    "duration": 0.25,
    "velocity": 100,
    "pitch": 60
  },
  {
    "clipIndex": 494,
    "trackId": "22",
    "clipName": null,
    "beat": 315.75,
    "relBeat": 13.75,
    "duration": 0.25,
    "velocity": 100,
    "pitch": 60
  },
  {
    "clipIndex": 495,
    "trackId": "22",
    "clipName": null,
    "beat": 315.75,
    "relBeat": 11.75,
    "duration": 0.25,
    "velocity": 100,
    "pitch": 60
  },
  {
    "clipIndex": 496,
    "trackId": "22",
    "clipName": null,
    "beat": 315.75,
    "relBeat": 3.75,
    "duration": 0.25,
    "velocity": 100,
    "pitch": 60
  },
  {
    "clipIndex": 497,
    "trackId": "22",
    "clipName": null,
    "beat": 315.75,
    "relBeat": 1.75,
    "duration": 0.25,
    "velocity": 100,
    "pitch": 60
  },
  {
    "clipIndex": 487,
    "trackId": "22",
    "clipName": null,
    "beat": 316,
    "relBeat": 28,
    "duration": 0.25,
    "velocity": 100,
    "pitch": 60
  },
  {
    "clipIndex": 488,
    "trackId": "22",
    "clipName": null,
    "beat": 316,
    "relBeat": 26,
    "duration": 0.25,
    "velocity": 100,
    "pitch": 60
  },
  {
    "clipIndex": 489,
    "trackId": "22",
    "clipName": null,
    "beat": 316,
    "relBeat": 24,
    "duration": 0.25,
    "velocity": 100,
    "pitch": 60
  },
  {
    "clipIndex": 491,
    "trackId": "22",
    "clipName": null,
    "beat": 316,
    "relBeat": 20,
    "duration": 0.25,
    "velocity": 100,
    "pitch": 60
  },
  {
    "clipIndex": 492,
    "trackId": "22",
    "clipName": null,
    "beat": 316,
    "relBeat": 18,
    "duration": 0.25,
    "velocity": 100,
    "pitch": 60
  },
  {
    "clipIndex": 493,
    "trackId": "22",
    "clipName": null,
    "beat": 316,
    "relBeat": 16,
    "duration": 0.25,
    "velocity": 100,
    "pitch": 60
  },
  {
    "clipIndex": 494,
    "trackId": "22",
    "clipName": null,
    "beat": 316,
    "relBeat": 14,
    "duration": 0.25,
    "velocity": 100,
    "pitch": 60
  },
  {
    "clipIndex": 495,
    "trackId": "22",
    "clipName": null,
    "beat": 316,
    "relBeat": 12,
    "duration": 0.25,
    "velocity": 100,
    "pitch": 60
  },
  {
    "clipIndex": 496,
    "trackId": "22",
    "clipName": null,
    "beat": 316,
    "relBeat": 4,
    "duration": 0.25,
    "velocity": 100,
    "pitch": 60
  },
  {
    "clipIndex": 497,
    "trackId": "22",
    "clipName": null,
    "beat": 316,
    "relBeat": 2,
    "duration": 0.25,
    "velocity": 100,
    "pitch": 60
  },
  {
    "clipIndex": 498,
    "trackId": "22",
    "clipName": null,
    "beat": 316,
    "relBeat": 0,
    "duration": 0.25,
    "velocity": 100,
    "pitch": 60
  },
  {
    "clipIndex": 487,
    "trackId": "22",
    "clipName": null,
    "beat": 316.25,
    "relBeat": 28.25,
    "duration": 0.25,
    "velocity": 100,
    "pitch": 60
  },
  {
    "clipIndex": 488,
    "trackId": "22",
    "clipName": null,
    "beat": 316.25,
    "relBeat": 26.25,
    "duration": 0.25,
    "velocity": 100,
    "pitch": 60
  },
  {
    "clipIndex": 489,
    "trackId": "22",
    "clipName": null,
    "beat": 316.25,
    "relBeat": 24.25,
    "duration": 0.25,
    "velocity": 100,
    "pitch": 60
  },
  {
    "clipIndex": 491,
    "trackId": "22",
    "clipName": null,
    "beat": 316.25,
    "relBeat": 20.25,
    "duration": 0.25,
    "velocity": 100,
    "pitch": 60
  },
  {
    "clipIndex": 492,
    "trackId": "22",
    "clipName": null,
    "beat": 316.25,
    "relBeat": 18.25,
    "duration": 0.25,
    "velocity": 100,
    "pitch": 60
  },
  {
    "clipIndex": 493,
    "trackId": "22",
    "clipName": null,
    "beat": 316.25,
    "relBeat": 16.25,
    "duration": 0.25,
    "velocity": 100,
    "pitch": 60
  },
  {
    "clipIndex": 494,
    "trackId": "22",
    "clipName": null,
    "beat": 316.25,
    "relBeat": 14.25,
    "duration": 0.25,
    "velocity": 100,
    "pitch": 60
  },
  {
    "clipIndex": 495,
    "trackId": "22",
    "clipName": null,
    "beat": 316.25,
    "relBeat": 12.25,
    "duration": 0.25,
    "velocity": 100,
    "pitch": 60
  },
  {
    "clipIndex": 496,
    "trackId": "22",
    "clipName": null,
    "beat": 316.25,
    "relBeat": 4.25,
    "duration": 0.25,
    "velocity": 100,
    "pitch": 60
  },
  {
    "clipIndex": 497,
    "trackId": "22",
    "clipName": null,
    "beat": 316.25,
    "relBeat": 2.25,
    "duration": 0.25,
    "velocity": 100,
    "pitch": 60
  },
  {
    "clipIndex": 498,
    "trackId": "22",
    "clipName": null,
    "beat": 316.25,
    "relBeat": 0.25,
    "duration": 0.25,
    "velocity": 100,
    "pitch": 60
  },
  {
    "clipIndex": 356,
    "trackId": "67",
    "clipName": null,
    "beat": 316.5,
    "relBeat": 316.5,
    "duration": 0.25000026015651017,
    "velocity": 100,
    "pitch": 72
  },
  {
    "clipIndex": 487,
    "trackId": "22",
    "clipName": null,
    "beat": 316.5,
    "relBeat": 28.5,
    "duration": 0.25,
    "velocity": 100,
    "pitch": 60
  },
  {
    "clipIndex": 488,
    "trackId": "22",
    "clipName": null,
    "beat": 316.5,
    "relBeat": 26.5,
    "duration": 0.25,
    "velocity": 100,
    "pitch": 60
  },
  {
    "clipIndex": 489,
    "trackId": "22",
    "clipName": null,
    "beat": 316.5,
    "relBeat": 24.5,
    "duration": 0.25,
    "velocity": 100,
    "pitch": 60
  },
  {
    "clipIndex": 491,
    "trackId": "22",
    "clipName": null,
    "beat": 316.5,
    "relBeat": 20.5,
    "duration": 0.25,
    "velocity": 100,
    "pitch": 60
  },
  {
    "clipIndex": 492,
    "trackId": "22",
    "clipName": null,
    "beat": 316.5,
    "relBeat": 18.5,
    "duration": 0.25,
    "velocity": 100,
    "pitch": 60
  },
  {
    "clipIndex": 493,
    "trackId": "22",
    "clipName": null,
    "beat": 316.5,
    "relBeat": 16.5,
    "duration": 0.25,
    "velocity": 100,
    "pitch": 60
  },
  {
    "clipIndex": 494,
    "trackId": "22",
    "clipName": null,
    "beat": 316.5,
    "relBeat": 14.5,
    "duration": 0.25,
    "velocity": 100,
    "pitch": 60
  },
  {
    "clipIndex": 496,
    "trackId": "22",
    "clipName": null,
    "beat": 316.5,
    "relBeat": 4.5,
    "duration": 0.25,
    "velocity": 100,
    "pitch": 60
  },
  {
    "clipIndex": 497,
    "trackId": "22",
    "clipName": null,
    "beat": 316.5,
    "relBeat": 2.5,
    "duration": 0.25,
    "velocity": 100,
    "pitch": 60
  },
  {
    "clipIndex": 498,
    "trackId": "22",
    "clipName": null,
    "beat": 316.5,
    "relBeat": 0.5,
    "duration": 0.25,
    "velocity": 100,
    "pitch": 60
  },
  {
    "clipIndex": 487,
    "trackId": "22",
    "clipName": null,
    "beat": 316.75,
    "relBeat": 28.75,
    "duration": 0.25,
    "velocity": 100,
    "pitch": 60
  },
  {
    "clipIndex": 488,
    "trackId": "22",
    "clipName": null,
    "beat": 316.75,
    "relBeat": 26.75,
    "duration": 0.25,
    "velocity": 100,
    "pitch": 60
  },
  {
    "clipIndex": 489,
    "trackId": "22",
    "clipName": null,
    "beat": 316.75,
    "relBeat": 24.75,
    "duration": 0.25,
    "velocity": 100,
    "pitch": 60
  },
  {
    "clipIndex": 491,
    "trackId": "22",
    "clipName": null,
    "beat": 316.75,
    "relBeat": 20.75,
    "duration": 0.25,
    "velocity": 100,
    "pitch": 60
  },
  {
    "clipIndex": 492,
    "trackId": "22",
    "clipName": null,
    "beat": 316.75,
    "relBeat": 18.75,
    "duration": 0.25,
    "velocity": 100,
    "pitch": 60
  },
  {
    "clipIndex": 493,
    "trackId": "22",
    "clipName": null,
    "beat": 316.75,
    "relBeat": 16.75,
    "duration": 0.25,
    "velocity": 100,
    "pitch": 60
  },
  {
    "clipIndex": 494,
    "trackId": "22",
    "clipName": null,
    "beat": 316.75,
    "relBeat": 14.75,
    "duration": 0.25,
    "velocity": 100,
    "pitch": 60
  },
  {
    "clipIndex": 496,
    "trackId": "22",
    "clipName": null,
    "beat": 316.75,
    "relBeat": 4.75,
    "duration": 0.25,
    "velocity": 100,
    "pitch": 60
  },
  {
    "clipIndex": 497,
    "trackId": "22",
    "clipName": null,
    "beat": 316.75,
    "relBeat": 2.75,
    "duration": 0.25,
    "velocity": 100,
    "pitch": 60
  },
  {
    "clipIndex": 498,
    "trackId": "22",
    "clipName": null,
    "beat": 316.75,
    "relBeat": 0.75,
    "duration": 0.25,
    "velocity": 100,
    "pitch": 60
  },
  {
    "clipIndex": 487,
    "trackId": "22",
    "clipName": null,
    "beat": 317,
    "relBeat": 29,
    "duration": 0.25,
    "velocity": 100,
    "pitch": 60
  },
  {
    "clipIndex": 488,
    "trackId": "22",
    "clipName": null,
    "beat": 317,
    "relBeat": 27,
    "duration": 0.25,
    "velocity": 100,
    "pitch": 60
  },
  {
    "clipIndex": 489,
    "trackId": "22",
    "clipName": null,
    "beat": 317,
    "relBeat": 25,
    "duration": 0.25,
    "velocity": 100,
    "pitch": 60
  },
  {
    "clipIndex": 491,
    "trackId": "22",
    "clipName": null,
    "beat": 317,
    "relBeat": 21,
    "duration": 0.25,
    "velocity": 100,
    "pitch": 60
  },
  {
    "clipIndex": 492,
    "trackId": "22",
    "clipName": null,
    "beat": 317,
    "relBeat": 19,
    "duration": 0.25,
    "velocity": 100,
    "pitch": 60
  },
  {
    "clipIndex": 493,
    "trackId": "22",
    "clipName": null,
    "beat": 317,
    "relBeat": 17,
    "duration": 0.25,
    "velocity": 100,
    "pitch": 60
  },
  {
    "clipIndex": 494,
    "trackId": "22",
    "clipName": null,
    "beat": 317,
    "relBeat": 15,
    "duration": 0.25,
    "velocity": 100,
    "pitch": 60
  },
  {
    "clipIndex": 495,
    "trackId": "22",
    "clipName": null,
    "beat": 317,
    "relBeat": 13,
    "duration": 0.25,
    "velocity": 100,
    "pitch": 60
  },
  {
    "clipIndex": 496,
    "trackId": "22",
    "clipName": null,
    "beat": 317,
    "relBeat": 5,
    "duration": 0.25,
    "velocity": 100,
    "pitch": 60
  },
  {
    "clipIndex": 497,
    "trackId": "22",
    "clipName": null,
    "beat": 317,
    "relBeat": 3,
    "duration": 0.25,
    "velocity": 100,
    "pitch": 60
  },
  {
    "clipIndex": 498,
    "trackId": "22",
    "clipName": null,
    "beat": 317,
    "relBeat": 1,
    "duration": 0.25,
    "velocity": 100,
    "pitch": 60
  },
  {
    "clipIndex": 487,
    "trackId": "22",
    "clipName": null,
    "beat": 317.25,
    "relBeat": 29.25,
    "duration": 0.25,
    "velocity": 100,
    "pitch": 60
  },
  {
    "clipIndex": 488,
    "trackId": "22",
    "clipName": null,
    "beat": 317.25,
    "relBeat": 27.25,
    "duration": 0.25,
    "velocity": 100,
    "pitch": 60
  },
  {
    "clipIndex": 489,
    "trackId": "22",
    "clipName": null,
    "beat": 317.25,
    "relBeat": 25.25,
    "duration": 0.25,
    "velocity": 100,
    "pitch": 60
  },
  {
    "clipIndex": 491,
    "trackId": "22",
    "clipName": null,
    "beat": 317.25,
    "relBeat": 21.25,
    "duration": 0.25,
    "velocity": 100,
    "pitch": 60
  },
  {
    "clipIndex": 492,
    "trackId": "22",
    "clipName": null,
    "beat": 317.25,
    "relBeat": 19.25,
    "duration": 0.25,
    "velocity": 100,
    "pitch": 60
  },
  {
    "clipIndex": 493,
    "trackId": "22",
    "clipName": null,
    "beat": 317.25,
    "relBeat": 17.25,
    "duration": 0.25,
    "velocity": 100,
    "pitch": 60
  },
  {
    "clipIndex": 494,
    "trackId": "22",
    "clipName": null,
    "beat": 317.25,
    "relBeat": 15.25,
    "duration": 0.25,
    "velocity": 100,
    "pitch": 60
  },
  {
    "clipIndex": 495,
    "trackId": "22",
    "clipName": null,
    "beat": 317.25,
    "relBeat": 13.25,
    "duration": 0.25,
    "velocity": 100,
    "pitch": 60
  },
  {
    "clipIndex": 496,
    "trackId": "22",
    "clipName": null,
    "beat": 317.25,
    "relBeat": 5.25,
    "duration": 0.25,
    "velocity": 100,
    "pitch": 60
  },
  {
    "clipIndex": 497,
    "trackId": "22",
    "clipName": null,
    "beat": 317.25,
    "relBeat": 3.25,
    "duration": 0.25,
    "velocity": 100,
    "pitch": 60
  },
  {
    "clipIndex": 498,
    "trackId": "22",
    "clipName": null,
    "beat": 317.25,
    "relBeat": 1.25,
    "duration": 0.25,
    "velocity": 100,
    "pitch": 60
  },
  {
    "clipIndex": 487,
    "trackId": "22",
    "clipName": null,
    "beat": 317.5,
    "relBeat": 29.5,
    "duration": 0.25,
    "velocity": 100,
    "pitch": 60
  },
  {
    "clipIndex": 488,
    "trackId": "22",
    "clipName": null,
    "beat": 317.5,
    "relBeat": 27.5,
    "duration": 0.25,
    "velocity": 100,
    "pitch": 60
  },
  {
    "clipIndex": 489,
    "trackId": "22",
    "clipName": null,
    "beat": 317.5,
    "relBeat": 25.5,
    "duration": 0.25,
    "velocity": 100,
    "pitch": 60
  },
  {
    "clipIndex": 492,
    "trackId": "22",
    "clipName": null,
    "beat": 317.5,
    "relBeat": 19.5,
    "duration": 0.25,
    "velocity": 100,
    "pitch": 60
  },
  {
    "clipIndex": 493,
    "trackId": "22",
    "clipName": null,
    "beat": 317.5,
    "relBeat": 17.5,
    "duration": 0.25,
    "velocity": 100,
    "pitch": 60
  },
  {
    "clipIndex": 494,
    "trackId": "22",
    "clipName": null,
    "beat": 317.5,
    "relBeat": 15.5,
    "duration": 0.25,
    "velocity": 100,
    "pitch": 60
  },
  {
    "clipIndex": 495,
    "trackId": "22",
    "clipName": null,
    "beat": 317.5,
    "relBeat": 13.5,
    "duration": 0.25,
    "velocity": 100,
    "pitch": 60
  },
  {
    "clipIndex": 496,
    "trackId": "22",
    "clipName": null,
    "beat": 317.5,
    "relBeat": 5.5,
    "duration": 0.25,
    "velocity": 100,
    "pitch": 60
  },
  {
    "clipIndex": 497,
    "trackId": "22",
    "clipName": null,
    "beat": 317.5,
    "relBeat": 3.5,
    "duration": 0.25,
    "velocity": 100,
    "pitch": 60
  },
  {
    "clipIndex": 498,
    "trackId": "22",
    "clipName": null,
    "beat": 317.5,
    "relBeat": 1.5,
    "duration": 0.25,
    "velocity": 100,
    "pitch": 60
  },
  {
    "clipIndex": 356,
    "trackId": "67",
    "clipName": null,
    "beat": 317.75,
    "relBeat": 317.75,
    "duration": 0.25000026015651017,
    "velocity": 100,
    "pitch": 72
  },
  {
    "clipIndex": 487,
    "trackId": "22",
    "clipName": null,
    "beat": 317.75,
    "relBeat": 29.75,
    "duration": 0.25,
    "velocity": 100,
    "pitch": 60
  },
  {
    "clipIndex": 488,
    "trackId": "22",
    "clipName": null,
    "beat": 317.75,
    "relBeat": 27.75,
    "duration": 0.25,
    "velocity": 100,
    "pitch": 60
  },
  {
    "clipIndex": 489,
    "trackId": "22",
    "clipName": null,
    "beat": 317.75,
    "relBeat": 25.75,
    "duration": 0.25,
    "velocity": 100,
    "pitch": 60
  },
  {
    "clipIndex": 492,
    "trackId": "22",
    "clipName": null,
    "beat": 317.75,
    "relBeat": 19.75,
    "duration": 0.25,
    "velocity": 100,
    "pitch": 60
  },
  {
    "clipIndex": 493,
    "trackId": "22",
    "clipName": null,
    "beat": 317.75,
    "relBeat": 17.75,
    "duration": 0.25,
    "velocity": 100,
    "pitch": 60
  },
  {
    "clipIndex": 494,
    "trackId": "22",
    "clipName": null,
    "beat": 317.75,
    "relBeat": 15.75,
    "duration": 0.25,
    "velocity": 100,
    "pitch": 60
  },
  {
    "clipIndex": 495,
    "trackId": "22",
    "clipName": null,
    "beat": 317.75,
    "relBeat": 13.75,
    "duration": 0.25,
    "velocity": 100,
    "pitch": 60
  },
  {
    "clipIndex": 496,
    "trackId": "22",
    "clipName": null,
    "beat": 317.75,
    "relBeat": 5.75,
    "duration": 0.25,
    "velocity": 100,
    "pitch": 60
  },
  {
    "clipIndex": 497,
    "trackId": "22",
    "clipName": null,
    "beat": 317.75,
    "relBeat": 3.75,
    "duration": 0.25,
    "velocity": 100,
    "pitch": 60
  },
  {
    "clipIndex": 498,
    "trackId": "22",
    "clipName": null,
    "beat": 317.75,
    "relBeat": 1.75,
    "duration": 0.25,
    "velocity": 100,
    "pitch": 60
  },
  {
    "clipIndex": 487,
    "trackId": "22",
    "clipName": null,
    "beat": 318,
    "relBeat": 30,
    "duration": 0.25,
    "velocity": 100,
    "pitch": 60
  },
  {
    "clipIndex": 488,
    "trackId": "22",
    "clipName": null,
    "beat": 318,
    "relBeat": 28,
    "duration": 0.25,
    "velocity": 100,
    "pitch": 60
  },
  {
    "clipIndex": 489,
    "trackId": "22",
    "clipName": null,
    "beat": 318,
    "relBeat": 26,
    "duration": 0.25,
    "velocity": 100,
    "pitch": 60
  },
  {
    "clipIndex": 490,
    "trackId": "22",
    "clipName": null,
    "beat": 318,
    "relBeat": 24,
    "duration": 0.25,
    "velocity": 100,
    "pitch": 60
  },
  {
    "clipIndex": 492,
    "trackId": "22",
    "clipName": null,
    "beat": 318,
    "relBeat": 20,
    "duration": 0.25,
    "velocity": 100,
    "pitch": 60
  },
  {
    "clipIndex": 493,
    "trackId": "22",
    "clipName": null,
    "beat": 318,
    "relBeat": 18,
    "duration": 0.25,
    "velocity": 100,
    "pitch": 60
  },
  {
    "clipIndex": 494,
    "trackId": "22",
    "clipName": null,
    "beat": 318,
    "relBeat": 16,
    "duration": 0.25,
    "velocity": 100,
    "pitch": 60
  },
  {
    "clipIndex": 497,
    "trackId": "22",
    "clipName": null,
    "beat": 318,
    "relBeat": 4,
    "duration": 0.25,
    "velocity": 100,
    "pitch": 60
  },
  {
    "clipIndex": 498,
    "trackId": "22",
    "clipName": null,
    "beat": 318,
    "relBeat": 2,
    "duration": 0.25,
    "velocity": 100,
    "pitch": 60
  },
  {
    "clipIndex": 499,
    "trackId": "22",
    "clipName": null,
    "beat": 318,
    "relBeat": 0,
    "duration": 0.25,
    "velocity": 100,
    "pitch": 60
  },
  {
    "clipIndex": 487,
    "trackId": "22",
    "clipName": null,
    "beat": 318.25,
    "relBeat": 30.25,
    "duration": 0.25,
    "velocity": 100,
    "pitch": 60
  },
  {
    "clipIndex": 488,
    "trackId": "22",
    "clipName": null,
    "beat": 318.25,
    "relBeat": 28.25,
    "duration": 0.25,
    "velocity": 100,
    "pitch": 60
  },
  {
    "clipIndex": 489,
    "trackId": "22",
    "clipName": null,
    "beat": 318.25,
    "relBeat": 26.25,
    "duration": 0.25,
    "velocity": 100,
    "pitch": 60
  },
  {
    "clipIndex": 490,
    "trackId": "22",
    "clipName": null,
    "beat": 318.25,
    "relBeat": 24.25,
    "duration": 0.25,
    "velocity": 100,
    "pitch": 60
  },
  {
    "clipIndex": 492,
    "trackId": "22",
    "clipName": null,
    "beat": 318.25,
    "relBeat": 20.25,
    "duration": 0.25,
    "velocity": 100,
    "pitch": 60
  },
  {
    "clipIndex": 493,
    "trackId": "22",
    "clipName": null,
    "beat": 318.25,
    "relBeat": 18.25,
    "duration": 0.25,
    "velocity": 100,
    "pitch": 60
  },
  {
    "clipIndex": 494,
    "trackId": "22",
    "clipName": null,
    "beat": 318.25,
    "relBeat": 16.25,
    "duration": 0.25,
    "velocity": 100,
    "pitch": 60
  },
  {
    "clipIndex": 497,
    "trackId": "22",
    "clipName": null,
    "beat": 318.25,
    "relBeat": 4.25,
    "duration": 0.25,
    "velocity": 100,
    "pitch": 60
  },
  {
    "clipIndex": 498,
    "trackId": "22",
    "clipName": null,
    "beat": 318.25,
    "relBeat": 2.25,
    "duration": 0.25,
    "velocity": 100,
    "pitch": 60
  },
  {
    "clipIndex": 499,
    "trackId": "22",
    "clipName": null,
    "beat": 318.25,
    "relBeat": 0.25,
    "duration": 0.25,
    "velocity": 100,
    "pitch": 60
  },
  {
    "clipIndex": 487,
    "trackId": "22",
    "clipName": null,
    "beat": 318.5,
    "relBeat": 30.5,
    "duration": 0.25,
    "velocity": 100,
    "pitch": 60
  },
  {
    "clipIndex": 488,
    "trackId": "22",
    "clipName": null,
    "beat": 318.5,
    "relBeat": 28.5,
    "duration": 0.25,
    "velocity": 100,
    "pitch": 60
  },
  {
    "clipIndex": 489,
    "trackId": "22",
    "clipName": null,
    "beat": 318.5,
    "relBeat": 26.5,
    "duration": 0.25,
    "velocity": 100,
    "pitch": 60
  },
  {
    "clipIndex": 490,
    "trackId": "22",
    "clipName": null,
    "beat": 318.5,
    "relBeat": 24.5,
    "duration": 0.25,
    "velocity": 100,
    "pitch": 60
  },
  {
    "clipIndex": 492,
    "trackId": "22",
    "clipName": null,
    "beat": 318.5,
    "relBeat": 20.5,
    "duration": 0.25,
    "velocity": 100,
    "pitch": 60
  },
  {
    "clipIndex": 493,
    "trackId": "22",
    "clipName": null,
    "beat": 318.5,
    "relBeat": 18.5,
    "duration": 0.25,
    "velocity": 100,
    "pitch": 60
  },
  {
    "clipIndex": 494,
    "trackId": "22",
    "clipName": null,
    "beat": 318.5,
    "relBeat": 16.5,
    "duration": 0.25,
    "velocity": 100,
    "pitch": 60
  },
  {
    "clipIndex": 495,
    "trackId": "22",
    "clipName": null,
    "beat": 318.5,
    "relBeat": 14.5,
    "duration": 0.25,
    "velocity": 100,
    "pitch": 60
  },
  {
    "clipIndex": 497,
    "trackId": "22",
    "clipName": null,
    "beat": 318.5,
    "relBeat": 4.5,
    "duration": 0.25,
    "velocity": 100,
    "pitch": 60
  },
  {
    "clipIndex": 498,
    "trackId": "22",
    "clipName": null,
    "beat": 318.5,
    "relBeat": 2.5,
    "duration": 0.25,
    "velocity": 100,
    "pitch": 60
  },
  {
    "clipIndex": 499,
    "trackId": "22",
    "clipName": null,
    "beat": 318.5,
    "relBeat": 0.5,
    "duration": 0.25,
    "velocity": 100,
    "pitch": 60
  },
  {
    "clipIndex": 487,
    "trackId": "22",
    "clipName": null,
    "beat": 318.75,
    "relBeat": 30.75,
    "duration": 0.25,
    "velocity": 100,
    "pitch": 60
  },
  {
    "clipIndex": 488,
    "trackId": "22",
    "clipName": null,
    "beat": 318.75,
    "relBeat": 28.75,
    "duration": 0.25,
    "velocity": 100,
    "pitch": 60
  },
  {
    "clipIndex": 489,
    "trackId": "22",
    "clipName": null,
    "beat": 318.75,
    "relBeat": 26.75,
    "duration": 0.25,
    "velocity": 100,
    "pitch": 60
  },
  {
    "clipIndex": 490,
    "trackId": "22",
    "clipName": null,
    "beat": 318.75,
    "relBeat": 24.75,
    "duration": 0.25,
    "velocity": 100,
    "pitch": 60
  },
  {
    "clipIndex": 492,
    "trackId": "22",
    "clipName": null,
    "beat": 318.75,
    "relBeat": 20.75,
    "duration": 0.25,
    "velocity": 100,
    "pitch": 60
  },
  {
    "clipIndex": 493,
    "trackId": "22",
    "clipName": null,
    "beat": 318.75,
    "relBeat": 18.75,
    "duration": 0.25,
    "velocity": 100,
    "pitch": 60
  },
  {
    "clipIndex": 494,
    "trackId": "22",
    "clipName": null,
    "beat": 318.75,
    "relBeat": 16.75,
    "duration": 0.25,
    "velocity": 100,
    "pitch": 60
  },
  {
    "clipIndex": 495,
    "trackId": "22",
    "clipName": null,
    "beat": 318.75,
    "relBeat": 14.75,
    "duration": 0.25,
    "velocity": 100,
    "pitch": 60
  },
  {
    "clipIndex": 497,
    "trackId": "22",
    "clipName": null,
    "beat": 318.75,
    "relBeat": 4.75,
    "duration": 0.25,
    "velocity": 100,
    "pitch": 60
  },
  {
    "clipIndex": 498,
    "trackId": "22",
    "clipName": null,
    "beat": 318.75,
    "relBeat": 2.75,
    "duration": 0.25,
    "velocity": 100,
    "pitch": 60
  },
  {
    "clipIndex": 499,
    "trackId": "22",
    "clipName": null,
    "beat": 318.75,
    "relBeat": 0.75,
    "duration": 0.25,
    "velocity": 100,
    "pitch": 60
  },
  {
    "clipIndex": 487,
    "trackId": "22",
    "clipName": null,
    "beat": 319,
    "relBeat": 31,
    "duration": 0.25,
    "velocity": 100,
    "pitch": 60
  },
  {
    "clipIndex": 488,
    "trackId": "22",
    "clipName": null,
    "beat": 319,
    "relBeat": 29,
    "duration": 0.25,
    "velocity": 100,
    "pitch": 60
  },
  {
    "clipIndex": 489,
    "trackId": "22",
    "clipName": null,
    "beat": 319,
    "relBeat": 27,
    "duration": 0.25,
    "velocity": 100,
    "pitch": 60
  },
  {
    "clipIndex": 490,
    "trackId": "22",
    "clipName": null,
    "beat": 319,
    "relBeat": 25,
    "duration": 0.25,
    "velocity": 100,
    "pitch": 60
  },
  {
    "clipIndex": 492,
    "trackId": "22",
    "clipName": null,
    "beat": 319,
    "relBeat": 21,
    "duration": 0.25,
    "velocity": 100,
    "pitch": 60
  },
  {
    "clipIndex": 493,
    "trackId": "22",
    "clipName": null,
    "beat": 319,
    "relBeat": 19,
    "duration": 0.25,
    "velocity": 100,
    "pitch": 60
  },
  {
    "clipIndex": 494,
    "trackId": "22",
    "clipName": null,
    "beat": 319,
    "relBeat": 17,
    "duration": 0.25,
    "velocity": 100,
    "pitch": 60
  },
  {
    "clipIndex": 495,
    "trackId": "22",
    "clipName": null,
    "beat": 319,
    "relBeat": 15,
    "duration": 0.25,
    "velocity": 100,
    "pitch": 60
  },
  {
    "clipIndex": 497,
    "trackId": "22",
    "clipName": null,
    "beat": 319,
    "relBeat": 5,
    "duration": 0.25,
    "velocity": 100,
    "pitch": 60
  },
  {
    "clipIndex": 498,
    "trackId": "22",
    "clipName": null,
    "beat": 319,
    "relBeat": 3,
    "duration": 0.25,
    "velocity": 100,
    "pitch": 60
  },
  {
    "clipIndex": 499,
    "trackId": "22",
    "clipName": null,
    "beat": 319,
    "relBeat": 1,
    "duration": 0.25,
    "velocity": 100,
    "pitch": 60
  },
  {
    "clipIndex": 0,
    "trackId": "89",
    "clipName": null,
    "beat": 319.25,
    "relBeat": 319.25,
    "duration": 0.25,
    "velocity": 100,
    "pitch": 60
  },
  {
    "clipIndex": 487,
    "trackId": "22",
    "clipName": null,
    "beat": 319.25,
    "relBeat": 31.25,
    "duration": 0.25,
    "velocity": 100,
    "pitch": 60
  },
  {
    "clipIndex": 488,
    "trackId": "22",
    "clipName": null,
    "beat": 319.25,
    "relBeat": 29.25,
    "duration": 0.25,
    "velocity": 100,
    "pitch": 60
  },
  {
    "clipIndex": 489,
    "trackId": "22",
    "clipName": null,
    "beat": 319.25,
    "relBeat": 27.25,
    "duration": 0.25,
    "velocity": 100,
    "pitch": 60
  },
  {
    "clipIndex": 490,
    "trackId": "22",
    "clipName": null,
    "beat": 319.25,
    "relBeat": 25.25,
    "duration": 0.25,
    "velocity": 100,
    "pitch": 60
  },
  {
    "clipIndex": 492,
    "trackId": "22",
    "clipName": null,
    "beat": 319.25,
    "relBeat": 21.25,
    "duration": 0.25,
    "velocity": 100,
    "pitch": 60
  },
  {
    "clipIndex": 493,
    "trackId": "22",
    "clipName": null,
    "beat": 319.25,
    "relBeat": 19.25,
    "duration": 0.25,
    "velocity": 100,
    "pitch": 60
  },
  {
    "clipIndex": 494,
    "trackId": "22",
    "clipName": null,
    "beat": 319.25,
    "relBeat": 17.25,
    "duration": 0.25,
    "velocity": 100,
    "pitch": 60
  },
  {
    "clipIndex": 495,
    "trackId": "22",
    "clipName": null,
    "beat": 319.25,
    "relBeat": 15.25,
    "duration": 0.25,
    "velocity": 100,
    "pitch": 60
  },
  {
    "clipIndex": 497,
    "trackId": "22",
    "clipName": null,
    "beat": 319.25,
    "relBeat": 5.25,
    "duration": 0.25,
    "velocity": 100,
    "pitch": 60
  },
  {
    "clipIndex": 498,
    "trackId": "22",
    "clipName": null,
    "beat": 319.25,
    "relBeat": 3.25,
    "duration": 0.25,
    "velocity": 100,
    "pitch": 60
  },
  {
    "clipIndex": 499,
    "trackId": "22",
    "clipName": null,
    "beat": 319.25,
    "relBeat": 1.25,
    "duration": 0.25,
    "velocity": 100,
    "pitch": 60
  },
  {
    "clipIndex": 487,
    "trackId": "22",
    "clipName": null,
    "beat": 319.5,
    "relBeat": 31.5,
    "duration": 0.25,
    "velocity": 100,
    "pitch": 60
  },
  {
    "clipIndex": 488,
    "trackId": "22",
    "clipName": null,
    "beat": 319.5,
    "relBeat": 29.5,
    "duration": 0.25,
    "velocity": 100,
    "pitch": 60
  },
  {
    "clipIndex": 489,
    "trackId": "22",
    "clipName": null,
    "beat": 319.5,
    "relBeat": 27.5,
    "duration": 0.25,
    "velocity": 100,
    "pitch": 60
  },
  {
    "clipIndex": 490,
    "trackId": "22",
    "clipName": null,
    "beat": 319.5,
    "relBeat": 25.5,
    "duration": 0.25,
    "velocity": 100,
    "pitch": 60
  },
  {
    "clipIndex": 493,
    "trackId": "22",
    "clipName": null,
    "beat": 319.5,
    "relBeat": 19.5,
    "duration": 0.25,
    "velocity": 100,
    "pitch": 60
  },
  {
    "clipIndex": 494,
    "trackId": "22",
    "clipName": null,
    "beat": 319.5,
    "relBeat": 17.5,
    "duration": 0.25,
    "velocity": 100,
    "pitch": 60
  },
  {
    "clipIndex": 495,
    "trackId": "22",
    "clipName": null,
    "beat": 319.5,
    "relBeat": 15.5,
    "duration": 0.25,
    "velocity": 100,
    "pitch": 60
  },
  {
    "clipIndex": 497,
    "trackId": "22",
    "clipName": null,
    "beat": 319.5,
    "relBeat": 5.5,
    "duration": 0.25,
    "velocity": 100,
    "pitch": 60
  },
  {
    "clipIndex": 498,
    "trackId": "22",
    "clipName": null,
    "beat": 319.5,
    "relBeat": 3.5,
    "duration": 0.25,
    "velocity": 100,
    "pitch": 60
  },
  {
    "clipIndex": 499,
    "trackId": "22",
    "clipName": null,
    "beat": 319.5,
    "relBeat": 1.5,
    "duration": 0.25,
    "velocity": 100,
    "pitch": 60
  },
  {
    "clipIndex": 487,
    "trackId": "22",
    "clipName": null,
    "beat": 319.75,
    "relBeat": 31.75,
    "duration": 0.25,
    "velocity": 100,
    "pitch": 60
  },
  {
    "clipIndex": 488,
    "trackId": "22",
    "clipName": null,
    "beat": 319.75,
    "relBeat": 29.75,
    "duration": 0.25,
    "velocity": 100,
    "pitch": 60
  },
  {
    "clipIndex": 489,
    "trackId": "22",
    "clipName": null,
    "beat": 319.75,
    "relBeat": 27.75,
    "duration": 0.25,
    "velocity": 100,
    "pitch": 60
  },
  {
    "clipIndex": 490,
    "trackId": "22",
    "clipName": null,
    "beat": 319.75,
    "relBeat": 25.75,
    "duration": 0.25,
    "velocity": 100,
    "pitch": 60
  },
  {
    "clipIndex": 493,
    "trackId": "22",
    "clipName": null,
    "beat": 319.75,
    "relBeat": 19.75,
    "duration": 0.25,
    "velocity": 100,
    "pitch": 60
  },
  {
    "clipIndex": 494,
    "trackId": "22",
    "clipName": null,
    "beat": 319.75,
    "relBeat": 17.75,
    "duration": 0.25,
    "velocity": 100,
    "pitch": 60
  },
  {
    "clipIndex": 495,
    "trackId": "22",
    "clipName": null,
    "beat": 319.75,
    "relBeat": 15.75,
    "duration": 0.25,
    "velocity": 100,
    "pitch": 60
  },
  {
    "clipIndex": 497,
    "trackId": "22",
    "clipName": null,
    "beat": 319.75,
    "relBeat": 5.75,
    "duration": 0.25,
    "velocity": 100,
    "pitch": 60
  },
  {
    "clipIndex": 498,
    "trackId": "22",
    "clipName": null,
    "beat": 319.75,
    "relBeat": 3.75,
    "duration": 0.25,
    "velocity": 100,
    "pitch": 60
  },
  {
    "clipIndex": 499,
    "trackId": "22",
    "clipName": null,
    "beat": 319.75,
    "relBeat": 1.75,
    "duration": 0.25,
    "velocity": 100,
    "pitch": 60
  },
  {
    "clipIndex": 0,
    "trackId": "89",
    "clipName": null,
    "beat": 320,
    "relBeat": 320,
    "duration": 0.25,
    "velocity": 100,
    "pitch": 60
  },
  {
    "clipIndex": 488,
    "trackId": "22",
    "clipName": null,
    "beat": 320,
    "relBeat": 30,
    "duration": 0.25,
    "velocity": 100,
    "pitch": 60
  },
  {
    "clipIndex": 489,
    "trackId": "22",
    "clipName": null,
    "beat": 320,
    "relBeat": 28,
    "duration": 0.25,
    "velocity": 100,
    "pitch": 60
  },
  {
    "clipIndex": 490,
    "trackId": "22",
    "clipName": null,
    "beat": 320,
    "relBeat": 26,
    "duration": 0.25,
    "velocity": 100,
    "pitch": 60
  },
  {
    "clipIndex": 491,
    "trackId": "22",
    "clipName": null,
    "beat": 320,
    "relBeat": 24,
    "duration": 0.25,
    "velocity": 100,
    "pitch": 60
  },
  {
    "clipIndex": 493,
    "trackId": "22",
    "clipName": null,
    "beat": 320,
    "relBeat": 20,
    "duration": 0.25,
    "velocity": 100,
    "pitch": 60
  },
  {
    "clipIndex": 494,
    "trackId": "22",
    "clipName": null,
    "beat": 320,
    "relBeat": 18,
    "duration": 0.25,
    "velocity": 100,
    "pitch": 60
  },
  {
    "clipIndex": 495,
    "trackId": "22",
    "clipName": null,
    "beat": 320,
    "relBeat": 16,
    "duration": 0.25,
    "velocity": 100,
    "pitch": 60
  },
  {
    "clipIndex": 498,
    "trackId": "22",
    "clipName": null,
    "beat": 320,
    "relBeat": 4,
    "duration": 0.25,
    "velocity": 100,
    "pitch": 60
  },
  {
    "clipIndex": 499,
    "trackId": "22",
    "clipName": null,
    "beat": 320,
    "relBeat": 2,
    "duration": 0.25,
    "velocity": 100,
    "pitch": 60
  },
  {
    "clipIndex": 500,
    "trackId": "22",
    "clipName": null,
    "beat": 320,
    "relBeat": 0,
    "duration": 0.25,
    "velocity": 100,
    "pitch": 60
  },
  {
    "clipIndex": 488,
    "trackId": "22",
    "clipName": null,
    "beat": 320.25,
    "relBeat": 30.25,
    "duration": 0.25,
    "velocity": 100,
    "pitch": 60
  },
  {
    "clipIndex": 489,
    "trackId": "22",
    "clipName": null,
    "beat": 320.25,
    "relBeat": 28.25,
    "duration": 0.25,
    "velocity": 100,
    "pitch": 60
  },
  {
    "clipIndex": 490,
    "trackId": "22",
    "clipName": null,
    "beat": 320.25,
    "relBeat": 26.25,
    "duration": 0.25,
    "velocity": 100,
    "pitch": 60
  },
  {
    "clipIndex": 491,
    "trackId": "22",
    "clipName": null,
    "beat": 320.25,
    "relBeat": 24.25,
    "duration": 0.25,
    "velocity": 100,
    "pitch": 60
  },
  {
    "clipIndex": 493,
    "trackId": "22",
    "clipName": null,
    "beat": 320.25,
    "relBeat": 20.25,
    "duration": 0.25,
    "velocity": 100,
    "pitch": 60
  },
  {
    "clipIndex": 494,
    "trackId": "22",
    "clipName": null,
    "beat": 320.25,
    "relBeat": 18.25,
    "duration": 0.25,
    "velocity": 100,
    "pitch": 60
  },
  {
    "clipIndex": 495,
    "trackId": "22",
    "clipName": null,
    "beat": 320.25,
    "relBeat": 16.25,
    "duration": 0.25,
    "velocity": 100,
    "pitch": 60
  },
  {
    "clipIndex": 498,
    "trackId": "22",
    "clipName": null,
    "beat": 320.25,
    "relBeat": 4.25,
    "duration": 0.25,
    "velocity": 100,
    "pitch": 60
  },
  {
    "clipIndex": 499,
    "trackId": "22",
    "clipName": null,
    "beat": 320.25,
    "relBeat": 2.25,
    "duration": 0.25,
    "velocity": 100,
    "pitch": 60
  },
  {
    "clipIndex": 500,
    "trackId": "22",
    "clipName": null,
    "beat": 320.25,
    "relBeat": 0.25,
    "duration": 0.25,
    "velocity": 100,
    "pitch": 60
  },
  {
    "clipIndex": 488,
    "trackId": "22",
    "clipName": null,
    "beat": 320.5,
    "relBeat": 30.5,
    "duration": 0.25,
    "velocity": 100,
    "pitch": 60
  },
  {
    "clipIndex": 489,
    "trackId": "22",
    "clipName": null,
    "beat": 320.5,
    "relBeat": 28.5,
    "duration": 0.25,
    "velocity": 100,
    "pitch": 60
  },
  {
    "clipIndex": 490,
    "trackId": "22",
    "clipName": null,
    "beat": 320.5,
    "relBeat": 26.5,
    "duration": 0.25,
    "velocity": 100,
    "pitch": 60
  },
  {
    "clipIndex": 491,
    "trackId": "22",
    "clipName": null,
    "beat": 320.5,
    "relBeat": 24.5,
    "duration": 0.25,
    "velocity": 100,
    "pitch": 60
  },
  {
    "clipIndex": 493,
    "trackId": "22",
    "clipName": null,
    "beat": 320.5,
    "relBeat": 20.5,
    "duration": 0.25,
    "velocity": 100,
    "pitch": 60
  },
  {
    "clipIndex": 494,
    "trackId": "22",
    "clipName": null,
    "beat": 320.5,
    "relBeat": 18.5,
    "duration": 0.25,
    "velocity": 100,
    "pitch": 60
  },
  {
    "clipIndex": 498,
    "trackId": "22",
    "clipName": null,
    "beat": 320.5,
    "relBeat": 4.5,
    "duration": 0.25,
    "velocity": 100,
    "pitch": 60
  },
  {
    "clipIndex": 499,
    "trackId": "22",
    "clipName": null,
    "beat": 320.5,
    "relBeat": 2.5,
    "duration": 0.25,
    "velocity": 100,
    "pitch": 60
  },
  {
    "clipIndex": 500,
    "trackId": "22",
    "clipName": null,
    "beat": 320.5,
    "relBeat": 0.5,
    "duration": 0.25,
    "velocity": 100,
    "pitch": 60
  },
  {
    "clipIndex": 488,
    "trackId": "22",
    "clipName": null,
    "beat": 320.75,
    "relBeat": 30.75,
    "duration": 0.25,
    "velocity": 100,
    "pitch": 60
  },
  {
    "clipIndex": 489,
    "trackId": "22",
    "clipName": null,
    "beat": 320.75,
    "relBeat": 28.75,
    "duration": 0.25,
    "velocity": 100,
    "pitch": 60
  },
  {
    "clipIndex": 490,
    "trackId": "22",
    "clipName": null,
    "beat": 320.75,
    "relBeat": 26.75,
    "duration": 0.25,
    "velocity": 100,
    "pitch": 60
  },
  {
    "clipIndex": 491,
    "trackId": "22",
    "clipName": null,
    "beat": 320.75,
    "relBeat": 24.75,
    "duration": 0.25,
    "velocity": 100,
    "pitch": 60
  },
  {
    "clipIndex": 493,
    "trackId": "22",
    "clipName": null,
    "beat": 320.75,
    "relBeat": 20.75,
    "duration": 0.25,
    "velocity": 100,
    "pitch": 60
  },
  {
    "clipIndex": 494,
    "trackId": "22",
    "clipName": null,
    "beat": 320.75,
    "relBeat": 18.75,
    "duration": 0.25,
    "velocity": 100,
    "pitch": 60
  },
  {
    "clipIndex": 498,
    "trackId": "22",
    "clipName": null,
    "beat": 320.75,
    "relBeat": 4.75,
    "duration": 0.25,
    "velocity": 100,
    "pitch": 60
  },
  {
    "clipIndex": 499,
    "trackId": "22",
    "clipName": null,
    "beat": 320.75,
    "relBeat": 2.75,
    "duration": 0.25,
    "velocity": 100,
    "pitch": 60
  },
  {
    "clipIndex": 500,
    "trackId": "22",
    "clipName": null,
    "beat": 320.75,
    "relBeat": 0.75,
    "duration": 0.25,
    "velocity": 100,
    "pitch": 60
  },
  {
    "clipIndex": 488,
    "trackId": "22",
    "clipName": null,
    "beat": 321,
    "relBeat": 31,
    "duration": 0.25,
    "velocity": 100,
    "pitch": 60
  },
  {
    "clipIndex": 489,
    "trackId": "22",
    "clipName": null,
    "beat": 321,
    "relBeat": 29,
    "duration": 0.25,
    "velocity": 100,
    "pitch": 60
  },
  {
    "clipIndex": 490,
    "trackId": "22",
    "clipName": null,
    "beat": 321,
    "relBeat": 27,
    "duration": 0.25,
    "velocity": 100,
    "pitch": 60
  },
  {
    "clipIndex": 491,
    "trackId": "22",
    "clipName": null,
    "beat": 321,
    "relBeat": 25,
    "duration": 0.25,
    "velocity": 100,
    "pitch": 60
  },
  {
    "clipIndex": 493,
    "trackId": "22",
    "clipName": null,
    "beat": 321,
    "relBeat": 21,
    "duration": 0.25,
    "velocity": 100,
    "pitch": 60
  },
  {
    "clipIndex": 494,
    "trackId": "22",
    "clipName": null,
    "beat": 321,
    "relBeat": 19,
    "duration": 0.25,
    "velocity": 100,
    "pitch": 60
  },
  {
    "clipIndex": 495,
    "trackId": "22",
    "clipName": null,
    "beat": 321,
    "relBeat": 17,
    "duration": 0.25,
    "velocity": 100,
    "pitch": 60
  },
  {
    "clipIndex": 496,
    "trackId": "22",
    "clipName": null,
    "beat": 321,
    "relBeat": 9,
    "duration": 0.25,
    "velocity": 100,
    "pitch": 60
  },
  {
    "clipIndex": 498,
    "trackId": "22",
    "clipName": null,
    "beat": 321,
    "relBeat": 5,
    "duration": 0.25,
    "velocity": 100,
    "pitch": 60
  },
  {
    "clipIndex": 499,
    "trackId": "22",
    "clipName": null,
    "beat": 321,
    "relBeat": 3,
    "duration": 0.25,
    "velocity": 100,
    "pitch": 60
  },
  {
    "clipIndex": 500,
    "trackId": "22",
    "clipName": null,
    "beat": 321,
    "relBeat": 1,
    "duration": 0.25,
    "velocity": 100,
    "pitch": 60
  },
  {
    "clipIndex": 0,
    "trackId": "89",
    "clipName": null,
    "beat": 321.25,
    "relBeat": 321.25,
    "duration": 0.25,
    "velocity": 100,
    "pitch": 60
  },
  {
    "clipIndex": 488,
    "trackId": "22",
    "clipName": null,
    "beat": 321.25,
    "relBeat": 31.25,
    "duration": 0.25,
    "velocity": 100,
    "pitch": 60
  },
  {
    "clipIndex": 489,
    "trackId": "22",
    "clipName": null,
    "beat": 321.25,
    "relBeat": 29.25,
    "duration": 0.25,
    "velocity": 100,
    "pitch": 60
  },
  {
    "clipIndex": 490,
    "trackId": "22",
    "clipName": null,
    "beat": 321.25,
    "relBeat": 27.25,
    "duration": 0.25,
    "velocity": 100,
    "pitch": 60
  },
  {
    "clipIndex": 491,
    "trackId": "22",
    "clipName": null,
    "beat": 321.25,
    "relBeat": 25.25,
    "duration": 0.25,
    "velocity": 100,
    "pitch": 60
  },
  {
    "clipIndex": 493,
    "trackId": "22",
    "clipName": null,
    "beat": 321.25,
    "relBeat": 21.25,
    "duration": 0.25,
    "velocity": 100,
    "pitch": 60
  },
  {
    "clipIndex": 494,
    "trackId": "22",
    "clipName": null,
    "beat": 321.25,
    "relBeat": 19.25,
    "duration": 0.25,
    "velocity": 100,
    "pitch": 60
  },
  {
    "clipIndex": 495,
    "trackId": "22",
    "clipName": null,
    "beat": 321.25,
    "relBeat": 17.25,
    "duration": 0.25,
    "velocity": 100,
    "pitch": 60
  },
  {
    "clipIndex": 496,
    "trackId": "22",
    "clipName": null,
    "beat": 321.25,
    "relBeat": 9.25,
    "duration": 0.25,
    "velocity": 100,
    "pitch": 60
  },
  {
    "clipIndex": 498,
    "trackId": "22",
    "clipName": null,
    "beat": 321.25,
    "relBeat": 5.25,
    "duration": 0.25,
    "velocity": 100,
    "pitch": 60
  },
  {
    "clipIndex": 499,
    "trackId": "22",
    "clipName": null,
    "beat": 321.25,
    "relBeat": 3.25,
    "duration": 0.25,
    "velocity": 100,
    "pitch": 60
  },
  {
    "clipIndex": 500,
    "trackId": "22",
    "clipName": null,
    "beat": 321.25,
    "relBeat": 1.25,
    "duration": 0.25,
    "velocity": 100,
    "pitch": 60
  },
  {
    "clipIndex": 488,
    "trackId": "22",
    "clipName": null,
    "beat": 321.5,
    "relBeat": 31.5,
    "duration": 0.25,
    "velocity": 100,
    "pitch": 60
  },
  {
    "clipIndex": 489,
    "trackId": "22",
    "clipName": null,
    "beat": 321.5,
    "relBeat": 29.5,
    "duration": 0.25,
    "velocity": 100,
    "pitch": 60
  },
  {
    "clipIndex": 490,
    "trackId": "22",
    "clipName": null,
    "beat": 321.5,
    "relBeat": 27.5,
    "duration": 0.25,
    "velocity": 100,
    "pitch": 60
  },
  {
    "clipIndex": 491,
    "trackId": "22",
    "clipName": null,
    "beat": 321.5,
    "relBeat": 25.5,
    "duration": 0.25,
    "velocity": 100,
    "pitch": 60
  },
  {
    "clipIndex": 494,
    "trackId": "22",
    "clipName": null,
    "beat": 321.5,
    "relBeat": 19.5,
    "duration": 0.25,
    "velocity": 100,
    "pitch": 60
  },
  {
    "clipIndex": 495,
    "trackId": "22",
    "clipName": null,
    "beat": 321.5,
    "relBeat": 17.5,
    "duration": 0.25,
    "velocity": 100,
    "pitch": 60
  },
  {
    "clipIndex": 496,
    "trackId": "22",
    "clipName": null,
    "beat": 321.5,
    "relBeat": 9.5,
    "duration": 0.25,
    "velocity": 100,
    "pitch": 60
  },
  {
    "clipIndex": 498,
    "trackId": "22",
    "clipName": null,
    "beat": 321.5,
    "relBeat": 5.5,
    "duration": 0.25,
    "velocity": 100,
    "pitch": 60
  },
  {
    "clipIndex": 499,
    "trackId": "22",
    "clipName": null,
    "beat": 321.5,
    "relBeat": 3.5,
    "duration": 0.25,
    "velocity": 100,
    "pitch": 60
  },
  {
    "clipIndex": 500,
    "trackId": "22",
    "clipName": null,
    "beat": 321.5,
    "relBeat": 1.5,
    "duration": 0.25,
    "velocity": 100,
    "pitch": 60
  },
  {
    "clipIndex": 488,
    "trackId": "22",
    "clipName": null,
    "beat": 321.75,
    "relBeat": 31.75,
    "duration": 0.25,
    "velocity": 100,
    "pitch": 60
  },
  {
    "clipIndex": 489,
    "trackId": "22",
    "clipName": null,
    "beat": 321.75,
    "relBeat": 29.75,
    "duration": 0.25,
    "velocity": 100,
    "pitch": 60
  },
  {
    "clipIndex": 490,
    "trackId": "22",
    "clipName": null,
    "beat": 321.75,
    "relBeat": 27.75,
    "duration": 0.25,
    "velocity": 100,
    "pitch": 60
  },
  {
    "clipIndex": 491,
    "trackId": "22",
    "clipName": null,
    "beat": 321.75,
    "relBeat": 25.75,
    "duration": 0.25,
    "velocity": 100,
    "pitch": 60
  },
  {
    "clipIndex": 494,
    "trackId": "22",
    "clipName": null,
    "beat": 321.75,
    "relBeat": 19.75,
    "duration": 0.25,
    "velocity": 100,
    "pitch": 60
  },
  {
    "clipIndex": 495,
    "trackId": "22",
    "clipName": null,
    "beat": 321.75,
    "relBeat": 17.75,
    "duration": 0.25,
    "velocity": 100,
    "pitch": 60
  },
  {
    "clipIndex": 496,
    "trackId": "22",
    "clipName": null,
    "beat": 321.75,
    "relBeat": 9.75,
    "duration": 0.25,
    "velocity": 100,
    "pitch": 60
  },
  {
    "clipIndex": 498,
    "trackId": "22",
    "clipName": null,
    "beat": 321.75,
    "relBeat": 5.75,
    "duration": 0.25,
    "velocity": 100,
    "pitch": 60
  },
  {
    "clipIndex": 499,
    "trackId": "22",
    "clipName": null,
    "beat": 321.75,
    "relBeat": 3.75,
    "duration": 0.25,
    "velocity": 100,
    "pitch": 60
  },
  {
    "clipIndex": 500,
    "trackId": "22",
    "clipName": null,
    "beat": 321.75,
    "relBeat": 1.75,
    "duration": 0.25,
    "velocity": 100,
    "pitch": 60
  },
  {
    "clipIndex": 489,
    "trackId": "22",
    "clipName": null,
    "beat": 322,
    "relBeat": 30,
    "duration": 0.25,
    "velocity": 100,
    "pitch": 60
  },
  {
    "clipIndex": 490,
    "trackId": "22",
    "clipName": null,
    "beat": 322,
    "relBeat": 28,
    "duration": 0.25,
    "velocity": 100,
    "pitch": 60
  },
  {
    "clipIndex": 491,
    "trackId": "22",
    "clipName": null,
    "beat": 322,
    "relBeat": 26,
    "duration": 0.25,
    "velocity": 100,
    "pitch": 60
  },
  {
    "clipIndex": 492,
    "trackId": "22",
    "clipName": null,
    "beat": 322,
    "relBeat": 24,
    "duration": 0.25,
    "velocity": 100,
    "pitch": 60
  },
  {
    "clipIndex": 494,
    "trackId": "22",
    "clipName": null,
    "beat": 322,
    "relBeat": 20,
    "duration": 0.25,
    "velocity": 100,
    "pitch": 60
  },
  {
    "clipIndex": 496,
    "trackId": "22",
    "clipName": null,
    "beat": 322,
    "relBeat": 10,
    "duration": 0.25,
    "velocity": 100,
    "pitch": 60
  },
  {
    "clipIndex": 499,
    "trackId": "22",
    "clipName": null,
    "beat": 322,
    "relBeat": 4,
    "duration": 0.25,
    "velocity": 100,
    "pitch": 60
  },
  {
    "clipIndex": 500,
    "trackId": "22",
    "clipName": null,
    "beat": 322,
    "relBeat": 2,
    "duration": 0.25,
    "velocity": 100,
    "pitch": 60
  },
  {
    "clipIndex": 501,
    "trackId": "22",
    "clipName": null,
    "beat": 322,
    "relBeat": 0,
    "duration": 0.25,
    "velocity": 100,
    "pitch": 60
  },
  {
    "clipIndex": 489,
    "trackId": "22",
    "clipName": null,
    "beat": 322.25,
    "relBeat": 30.25,
    "duration": 0.25,
    "velocity": 100,
    "pitch": 60
  },
  {
    "clipIndex": 490,
    "trackId": "22",
    "clipName": null,
    "beat": 322.25,
    "relBeat": 28.25,
    "duration": 0.25,
    "velocity": 100,
    "pitch": 60
  },
  {
    "clipIndex": 491,
    "trackId": "22",
    "clipName": null,
    "beat": 322.25,
    "relBeat": 26.25,
    "duration": 0.25,
    "velocity": 100,
    "pitch": 60
  },
  {
    "clipIndex": 492,
    "trackId": "22",
    "clipName": null,
    "beat": 322.25,
    "relBeat": 24.25,
    "duration": 0.25,
    "velocity": 100,
    "pitch": 60
  },
  {
    "clipIndex": 494,
    "trackId": "22",
    "clipName": null,
    "beat": 322.25,
    "relBeat": 20.25,
    "duration": 0.25,
    "velocity": 100,
    "pitch": 60
  },
  {
    "clipIndex": 499,
    "trackId": "22",
    "clipName": null,
    "beat": 322.25,
    "relBeat": 4.25,
    "duration": 0.25,
    "velocity": 100,
    "pitch": 60
  },
  {
    "clipIndex": 500,
    "trackId": "22",
    "clipName": null,
    "beat": 322.25,
    "relBeat": 2.25,
    "duration": 0.25,
    "velocity": 100,
    "pitch": 60
  },
  {
    "clipIndex": 501,
    "trackId": "22",
    "clipName": null,
    "beat": 322.25,
    "relBeat": 0.25,
    "duration": 0.25,
    "velocity": 100,
    "pitch": 60
  },
  {
    "clipIndex": 0,
    "trackId": "89",
    "clipName": null,
    "beat": 322.5,
    "relBeat": 322.5,
    "duration": 0.25,
    "velocity": 100,
    "pitch": 60
  },
  {
    "clipIndex": 489,
    "trackId": "22",
    "clipName": null,
    "beat": 322.5,
    "relBeat": 30.5,
    "duration": 0.25,
    "velocity": 100,
    "pitch": 60
  },
  {
    "clipIndex": 490,
    "trackId": "22",
    "clipName": null,
    "beat": 322.5,
    "relBeat": 28.5,
    "duration": 0.25,
    "velocity": 100,
    "pitch": 60
  },
  {
    "clipIndex": 491,
    "trackId": "22",
    "clipName": null,
    "beat": 322.5,
    "relBeat": 26.5,
    "duration": 0.25,
    "velocity": 100,
    "pitch": 60
  },
  {
    "clipIndex": 492,
    "trackId": "22",
    "clipName": null,
    "beat": 322.5,
    "relBeat": 24.5,
    "duration": 0.25,
    "velocity": 100,
    "pitch": 60
  },
  {
    "clipIndex": 494,
    "trackId": "22",
    "clipName": null,
    "beat": 322.5,
    "relBeat": 20.5,
    "duration": 0.25,
    "velocity": 100,
    "pitch": 60
  },
  {
    "clipIndex": 495,
    "trackId": "22",
    "clipName": null,
    "beat": 322.5,
    "relBeat": 18.5,
    "duration": 0.25,
    "velocity": 100,
    "pitch": 60
  },
  {
    "clipIndex": 499,
    "trackId": "22",
    "clipName": null,
    "beat": 322.5,
    "relBeat": 4.5,
    "duration": 0.25,
    "velocity": 100,
    "pitch": 60
  },
  {
    "clipIndex": 500,
    "trackId": "22",
    "clipName": null,
    "beat": 322.5,
    "relBeat": 2.5,
    "duration": 0.25,
    "velocity": 100,
    "pitch": 60
  },
  {
    "clipIndex": 501,
    "trackId": "22",
    "clipName": null,
    "beat": 322.5,
    "relBeat": 0.5,
    "duration": 0.25,
    "velocity": 100,
    "pitch": 60
  },
  {
    "clipIndex": 489,
    "trackId": "22",
    "clipName": null,
    "beat": 322.75,
    "relBeat": 30.75,
    "duration": 0.25,
    "velocity": 100,
    "pitch": 60
  },
  {
    "clipIndex": 490,
    "trackId": "22",
    "clipName": null,
    "beat": 322.75,
    "relBeat": 28.75,
    "duration": 0.25,
    "velocity": 100,
    "pitch": 60
  },
  {
    "clipIndex": 491,
    "trackId": "22",
    "clipName": null,
    "beat": 322.75,
    "relBeat": 26.75,
    "duration": 0.25,
    "velocity": 100,
    "pitch": 60
  },
  {
    "clipIndex": 492,
    "trackId": "22",
    "clipName": null,
    "beat": 322.75,
    "relBeat": 24.75,
    "duration": 0.25,
    "velocity": 100,
    "pitch": 60
  },
  {
    "clipIndex": 494,
    "trackId": "22",
    "clipName": null,
    "beat": 322.75,
    "relBeat": 20.75,
    "duration": 0.25,
    "velocity": 100,
    "pitch": 60
  },
  {
    "clipIndex": 495,
    "trackId": "22",
    "clipName": null,
    "beat": 322.75,
    "relBeat": 18.75,
    "duration": 0.25,
    "velocity": 100,
    "pitch": 60
  },
  {
    "clipIndex": 499,
    "trackId": "22",
    "clipName": null,
    "beat": 322.75,
    "relBeat": 4.75,
    "duration": 0.25,
    "velocity": 100,
    "pitch": 60
  },
  {
    "clipIndex": 500,
    "trackId": "22",
    "clipName": null,
    "beat": 322.75,
    "relBeat": 2.75,
    "duration": 0.25,
    "velocity": 100,
    "pitch": 60
  },
  {
    "clipIndex": 501,
    "trackId": "22",
    "clipName": null,
    "beat": 322.75,
    "relBeat": 0.75,
    "duration": 0.25,
    "velocity": 100,
    "pitch": 60
  },
  {
    "clipIndex": 489,
    "trackId": "22",
    "clipName": null,
    "beat": 323,
    "relBeat": 31,
    "duration": 0.25,
    "velocity": 100,
    "pitch": 60
  },
  {
    "clipIndex": 490,
    "trackId": "22",
    "clipName": null,
    "beat": 323,
    "relBeat": 29,
    "duration": 0.25,
    "velocity": 100,
    "pitch": 60
  },
  {
    "clipIndex": 491,
    "trackId": "22",
    "clipName": null,
    "beat": 323,
    "relBeat": 27,
    "duration": 0.25,
    "velocity": 100,
    "pitch": 60
  },
  {
    "clipIndex": 492,
    "trackId": "22",
    "clipName": null,
    "beat": 323,
    "relBeat": 25,
    "duration": 0.25,
    "velocity": 100,
    "pitch": 60
  },
  {
    "clipIndex": 494,
    "trackId": "22",
    "clipName": null,
    "beat": 323,
    "relBeat": 21,
    "duration": 0.25,
    "velocity": 100,
    "pitch": 60
  },
  {
    "clipIndex": 495,
    "trackId": "22",
    "clipName": null,
    "beat": 323,
    "relBeat": 19,
    "duration": 0.25,
    "velocity": 100,
    "pitch": 60
  },
  {
    "clipIndex": 497,
    "trackId": "22",
    "clipName": null,
    "beat": 323,
    "relBeat": 9,
    "duration": 0.25,
    "velocity": 100,
    "pitch": 60
  },
  {
    "clipIndex": 499,
    "trackId": "22",
    "clipName": null,
    "beat": 323,
    "relBeat": 5,
    "duration": 0.25,
    "velocity": 100,
    "pitch": 60
  },
  {
    "clipIndex": 500,
    "trackId": "22",
    "clipName": null,
    "beat": 323,
    "relBeat": 3,
    "duration": 0.25,
    "velocity": 100,
    "pitch": 60
  },
  {
    "clipIndex": 501,
    "trackId": "22",
    "clipName": null,
    "beat": 323,
    "relBeat": 1,
    "duration": 0.25,
    "velocity": 100,
    "pitch": 60
  },
  {
    "clipIndex": 0,
    "trackId": "89",
    "clipName": null,
    "beat": 323.25,
    "relBeat": 323.25,
    "duration": 0.25,
    "velocity": 100,
    "pitch": 60
  },
  {
    "clipIndex": 489,
    "trackId": "22",
    "clipName": null,
    "beat": 323.25,
    "relBeat": 31.25,
    "duration": 0.25,
    "velocity": 100,
    "pitch": 60
  },
  {
    "clipIndex": 490,
    "trackId": "22",
    "clipName": null,
    "beat": 323.25,
    "relBeat": 29.25,
    "duration": 0.25,
    "velocity": 100,
    "pitch": 60
  },
  {
    "clipIndex": 491,
    "trackId": "22",
    "clipName": null,
    "beat": 323.25,
    "relBeat": 27.25,
    "duration": 0.25,
    "velocity": 100,
    "pitch": 60
  },
  {
    "clipIndex": 492,
    "trackId": "22",
    "clipName": null,
    "beat": 323.25,
    "relBeat": 25.25,
    "duration": 0.25,
    "velocity": 100,
    "pitch": 60
  },
  {
    "clipIndex": 494,
    "trackId": "22",
    "clipName": null,
    "beat": 323.25,
    "relBeat": 21.25,
    "duration": 0.25,
    "velocity": 100,
    "pitch": 60
  },
  {
    "clipIndex": 495,
    "trackId": "22",
    "clipName": null,
    "beat": 323.25,
    "relBeat": 19.25,
    "duration": 0.25,
    "velocity": 100,
    "pitch": 60
  },
  {
    "clipIndex": 497,
    "trackId": "22",
    "clipName": null,
    "beat": 323.25,
    "relBeat": 9.25,
    "duration": 0.25,
    "velocity": 100,
    "pitch": 60
  },
  {
    "clipIndex": 499,
    "trackId": "22",
    "clipName": null,
    "beat": 323.25,
    "relBeat": 5.25,
    "duration": 0.25,
    "velocity": 100,
    "pitch": 60
  },
  {
    "clipIndex": 500,
    "trackId": "22",
    "clipName": null,
    "beat": 323.25,
    "relBeat": 3.25,
    "duration": 0.25,
    "velocity": 100,
    "pitch": 60
  },
  {
    "clipIndex": 501,
    "trackId": "22",
    "clipName": null,
    "beat": 323.25,
    "relBeat": 1.25,
    "duration": 0.25,
    "velocity": 100,
    "pitch": 60
  },
  {
    "clipIndex": 338,
    "trackId": "55",
    "clipName": null,
    "beat": 323.5,
    "relBeat": 123.5,
    "duration": 0.25000026015651017,
    "velocity": 100,
    "pitch": 60
  },
  {
    "clipIndex": 489,
    "trackId": "22",
    "clipName": null,
    "beat": 323.5,
    "relBeat": 31.5,
    "duration": 0.25,
    "velocity": 100,
    "pitch": 60
  },
  {
    "clipIndex": 490,
    "trackId": "22",
    "clipName": null,
    "beat": 323.5,
    "relBeat": 29.5,
    "duration": 0.25,
    "velocity": 100,
    "pitch": 60
  },
  {
    "clipIndex": 491,
    "trackId": "22",
    "clipName": null,
    "beat": 323.5,
    "relBeat": 27.5,
    "duration": 0.25,
    "velocity": 100,
    "pitch": 60
  },
  {
    "clipIndex": 492,
    "trackId": "22",
    "clipName": null,
    "beat": 323.5,
    "relBeat": 25.5,
    "duration": 0.25,
    "velocity": 100,
    "pitch": 60
  },
  {
    "clipIndex": 495,
    "trackId": "22",
    "clipName": null,
    "beat": 323.5,
    "relBeat": 19.5,
    "duration": 0.25,
    "velocity": 100,
    "pitch": 60
  },
  {
    "clipIndex": 497,
    "trackId": "22",
    "clipName": null,
    "beat": 323.5,
    "relBeat": 9.5,
    "duration": 0.25,
    "velocity": 100,
    "pitch": 60
  },
  {
    "clipIndex": 499,
    "trackId": "22",
    "clipName": null,
    "beat": 323.5,
    "relBeat": 5.5,
    "duration": 0.25,
    "velocity": 100,
    "pitch": 60
  },
  {
    "clipIndex": 500,
    "trackId": "22",
    "clipName": null,
    "beat": 323.5,
    "relBeat": 3.5,
    "duration": 0.25,
    "velocity": 100,
    "pitch": 60
  },
  {
    "clipIndex": 501,
    "trackId": "22",
    "clipName": null,
    "beat": 323.5,
    "relBeat": 1.5,
    "duration": 0.25,
    "velocity": 100,
    "pitch": 60
  },
  {
    "clipIndex": 489,
    "trackId": "22",
    "clipName": null,
    "beat": 323.75,
    "relBeat": 31.75,
    "duration": 0.25,
    "velocity": 100,
    "pitch": 60
  },
  {
    "clipIndex": 490,
    "trackId": "22",
    "clipName": null,
    "beat": 323.75,
    "relBeat": 29.75,
    "duration": 0.25,
    "velocity": 100,
    "pitch": 60
  },
  {
    "clipIndex": 491,
    "trackId": "22",
    "clipName": null,
    "beat": 323.75,
    "relBeat": 27.75,
    "duration": 0.25,
    "velocity": 100,
    "pitch": 60
  },
  {
    "clipIndex": 492,
    "trackId": "22",
    "clipName": null,
    "beat": 323.75,
    "relBeat": 25.75,
    "duration": 0.25,
    "velocity": 100,
    "pitch": 60
  },
  {
    "clipIndex": 495,
    "trackId": "22",
    "clipName": null,
    "beat": 323.75,
    "relBeat": 19.75,
    "duration": 0.25,
    "velocity": 100,
    "pitch": 60
  },
  {
    "clipIndex": 497,
    "trackId": "22",
    "clipName": null,
    "beat": 323.75,
    "relBeat": 9.75,
    "duration": 0.25,
    "velocity": 100,
    "pitch": 60
  },
  {
    "clipIndex": 499,
    "trackId": "22",
    "clipName": null,
    "beat": 323.75,
    "relBeat": 5.75,
    "duration": 0.25,
    "velocity": 100,
    "pitch": 60
  },
  {
    "clipIndex": 500,
    "trackId": "22",
    "clipName": null,
    "beat": 323.75,
    "relBeat": 3.75,
    "duration": 0.25,
    "velocity": 100,
    "pitch": 60
  },
  {
    "clipIndex": 501,
    "trackId": "22",
    "clipName": null,
    "beat": 323.75,
    "relBeat": 1.75,
    "duration": 0.25,
    "velocity": 100,
    "pitch": 60
  },
  {
    "clipIndex": 0,
    "trackId": "89",
    "clipName": null,
    "beat": 324,
    "relBeat": 324,
    "duration": 0.25,
    "velocity": 100,
    "pitch": 60
  },
  {
    "clipIndex": 490,
    "trackId": "22",
    "clipName": null,
    "beat": 324,
    "relBeat": 30,
    "duration": 0.25,
    "velocity": 100,
    "pitch": 60
  },
  {
    "clipIndex": 491,
    "trackId": "22",
    "clipName": null,
    "beat": 324,
    "relBeat": 28,
    "duration": 0.25,
    "velocity": 100,
    "pitch": 60
  },
  {
    "clipIndex": 492,
    "trackId": "22",
    "clipName": null,
    "beat": 324,
    "relBeat": 26,
    "duration": 0.25,
    "velocity": 100,
    "pitch": 60
  },
  {
    "clipIndex": 493,
    "trackId": "22",
    "clipName": null,
    "beat": 324,
    "relBeat": 24,
    "duration": 0.25,
    "velocity": 100,
    "pitch": 60
  },
  {
    "clipIndex": 495,
    "trackId": "22",
    "clipName": null,
    "beat": 324,
    "relBeat": 20,
    "duration": 0.25,
    "velocity": 100,
    "pitch": 60
  },
  {
    "clipIndex": 496,
    "trackId": "22",
    "clipName": null,
    "beat": 324,
    "relBeat": 12,
    "duration": 0.25,
    "velocity": 100,
    "pitch": 60
  },
  {
    "clipIndex": 497,
    "trackId": "22",
    "clipName": null,
    "beat": 324,
    "relBeat": 10,
    "duration": 0.25,
    "velocity": 100,
    "pitch": 60
  },
  {
    "clipIndex": 500,
    "trackId": "22",
    "clipName": null,
    "beat": 324,
    "relBeat": 4,
    "duration": 0.25,
    "velocity": 100,
    "pitch": 60
  },
  {
    "clipIndex": 501,
    "trackId": "22",
    "clipName": null,
    "beat": 324,
    "relBeat": 2,
    "duration": 0.25,
    "velocity": 100,
    "pitch": 60
  },
  {
    "clipIndex": 502,
    "trackId": "22",
    "clipName": null,
    "beat": 324,
    "relBeat": 0,
    "duration": 0.25,
    "velocity": 100,
    "pitch": 60
  },
  {
    "clipIndex": 490,
    "trackId": "22",
    "clipName": null,
    "beat": 324.25,
    "relBeat": 30.25,
    "duration": 0.25,
    "velocity": 100,
    "pitch": 60
  },
  {
    "clipIndex": 491,
    "trackId": "22",
    "clipName": null,
    "beat": 324.25,
    "relBeat": 28.25,
    "duration": 0.25,
    "velocity": 100,
    "pitch": 60
  },
  {
    "clipIndex": 492,
    "trackId": "22",
    "clipName": null,
    "beat": 324.25,
    "relBeat": 26.25,
    "duration": 0.25,
    "velocity": 100,
    "pitch": 60
  },
  {
    "clipIndex": 493,
    "trackId": "22",
    "clipName": null,
    "beat": 324.25,
    "relBeat": 24.25,
    "duration": 0.25,
    "velocity": 100,
    "pitch": 60
  },
  {
    "clipIndex": 495,
    "trackId": "22",
    "clipName": null,
    "beat": 324.25,
    "relBeat": 20.25,
    "duration": 0.25,
    "velocity": 100,
    "pitch": 60
  },
  {
    "clipIndex": 496,
    "trackId": "22",
    "clipName": null,
    "beat": 324.25,
    "relBeat": 12.25,
    "duration": 0.25,
    "velocity": 100,
    "pitch": 60
  },
  {
    "clipIndex": 500,
    "trackId": "22",
    "clipName": null,
    "beat": 324.25,
    "relBeat": 4.25,
    "duration": 0.25,
    "velocity": 100,
    "pitch": 60
  },
  {
    "clipIndex": 501,
    "trackId": "22",
    "clipName": null,
    "beat": 324.25,
    "relBeat": 2.25,
    "duration": 0.25,
    "velocity": 100,
    "pitch": 60
  },
  {
    "clipIndex": 502,
    "trackId": "22",
    "clipName": null,
    "beat": 324.25,
    "relBeat": 0.25,
    "duration": 0.25,
    "velocity": 100,
    "pitch": 60
  },
  {
    "clipIndex": 490,
    "trackId": "22",
    "clipName": null,
    "beat": 324.5,
    "relBeat": 30.5,
    "duration": 0.25,
    "velocity": 100,
    "pitch": 60
  },
  {
    "clipIndex": 491,
    "trackId": "22",
    "clipName": null,
    "beat": 324.5,
    "relBeat": 28.5,
    "duration": 0.25,
    "velocity": 100,
    "pitch": 60
  },
  {
    "clipIndex": 492,
    "trackId": "22",
    "clipName": null,
    "beat": 324.5,
    "relBeat": 26.5,
    "duration": 0.25,
    "velocity": 100,
    "pitch": 60
  },
  {
    "clipIndex": 493,
    "trackId": "22",
    "clipName": null,
    "beat": 324.5,
    "relBeat": 24.5,
    "duration": 0.25,
    "velocity": 100,
    "pitch": 60
  },
  {
    "clipIndex": 496,
    "trackId": "22",
    "clipName": null,
    "beat": 324.5,
    "relBeat": 12.5,
    "duration": 0.25,
    "velocity": 100,
    "pitch": 60
  },
  {
    "clipIndex": 500,
    "trackId": "22",
    "clipName": null,
    "beat": 324.5,
    "relBeat": 4.5,
    "duration": 0.25,
    "velocity": 100,
    "pitch": 60
  },
  {
    "clipIndex": 501,
    "trackId": "22",
    "clipName": null,
    "beat": 324.5,
    "relBeat": 2.5,
    "duration": 0.25,
    "velocity": 100,
    "pitch": 60
  },
  {
    "clipIndex": 502,
    "trackId": "22",
    "clipName": null,
    "beat": 324.5,
    "relBeat": 0.5,
    "duration": 0.25,
    "velocity": 100,
    "pitch": 60
  },
  {
    "clipIndex": 0,
    "trackId": "89",
    "clipName": null,
    "beat": 324.75,
    "relBeat": 324.75,
    "duration": 0.25,
    "velocity": 100,
    "pitch": 60
  },
  {
    "clipIndex": 490,
    "trackId": "22",
    "clipName": null,
    "beat": 324.75,
    "relBeat": 30.75,
    "duration": 0.25,
    "velocity": 100,
    "pitch": 60
  },
  {
    "clipIndex": 491,
    "trackId": "22",
    "clipName": null,
    "beat": 324.75,
    "relBeat": 28.75,
    "duration": 0.25,
    "velocity": 100,
    "pitch": 60
  },
  {
    "clipIndex": 492,
    "trackId": "22",
    "clipName": null,
    "beat": 324.75,
    "relBeat": 26.75,
    "duration": 0.25,
    "velocity": 100,
    "pitch": 60
  },
  {
    "clipIndex": 493,
    "trackId": "22",
    "clipName": null,
    "beat": 324.75,
    "relBeat": 24.75,
    "duration": 0.25,
    "velocity": 100,
    "pitch": 60
  },
  {
    "clipIndex": 496,
    "trackId": "22",
    "clipName": null,
    "beat": 324.75,
    "relBeat": 12.75,
    "duration": 0.25,
    "velocity": 100,
    "pitch": 60
  },
  {
    "clipIndex": 500,
    "trackId": "22",
    "clipName": null,
    "beat": 324.75,
    "relBeat": 4.75,
    "duration": 0.25,
    "velocity": 100,
    "pitch": 60
  },
  {
    "clipIndex": 501,
    "trackId": "22",
    "clipName": null,
    "beat": 324.75,
    "relBeat": 2.75,
    "duration": 0.25,
    "velocity": 100,
    "pitch": 60
  },
  {
    "clipIndex": 502,
    "trackId": "22",
    "clipName": null,
    "beat": 324.75,
    "relBeat": 0.75,
    "duration": 0.25,
    "velocity": 100,
    "pitch": 60
  },
  {
    "clipIndex": 490,
    "trackId": "22",
    "clipName": null,
    "beat": 325,
    "relBeat": 31,
    "duration": 0.25,
    "velocity": 100,
    "pitch": 60
  },
  {
    "clipIndex": 491,
    "trackId": "22",
    "clipName": null,
    "beat": 325,
    "relBeat": 29,
    "duration": 0.25,
    "velocity": 100,
    "pitch": 60
  },
  {
    "clipIndex": 492,
    "trackId": "22",
    "clipName": null,
    "beat": 325,
    "relBeat": 27,
    "duration": 0.25,
    "velocity": 100,
    "pitch": 60
  },
  {
    "clipIndex": 493,
    "trackId": "22",
    "clipName": null,
    "beat": 325,
    "relBeat": 25,
    "duration": 0.25,
    "velocity": 100,
    "pitch": 60
  },
  {
    "clipIndex": 495,
    "trackId": "22",
    "clipName": null,
    "beat": 325,
    "relBeat": 21,
    "duration": 0.25,
    "velocity": 100,
    "pitch": 60
  },
  {
    "clipIndex": 496,
    "trackId": "22",
    "clipName": null,
    "beat": 325,
    "relBeat": 13,
    "duration": 0.25,
    "velocity": 100,
    "pitch": 60
  },
  {
    "clipIndex": 498,
    "trackId": "22",
    "clipName": null,
    "beat": 325,
    "relBeat": 9,
    "duration": 0.25,
    "velocity": 100,
    "pitch": 60
  },
  {
    "clipIndex": 500,
    "trackId": "22",
    "clipName": null,
    "beat": 325,
    "relBeat": 5,
    "duration": 0.25,
    "velocity": 100,
    "pitch": 60
  },
  {
    "clipIndex": 501,
    "trackId": "22",
    "clipName": null,
    "beat": 325,
    "relBeat": 3,
    "duration": 0.25,
    "velocity": 100,
    "pitch": 60
  },
  {
    "clipIndex": 502,
    "trackId": "22",
    "clipName": null,
    "beat": 325,
    "relBeat": 1,
    "duration": 0.25,
    "velocity": 100,
    "pitch": 60
  },
  {
    "clipIndex": 490,
    "trackId": "22",
    "clipName": null,
    "beat": 325.25,
    "relBeat": 31.25,
    "duration": 0.25,
    "velocity": 100,
    "pitch": 60
  },
  {
    "clipIndex": 491,
    "trackId": "22",
    "clipName": null,
    "beat": 325.25,
    "relBeat": 29.25,
    "duration": 0.25,
    "velocity": 100,
    "pitch": 60
  },
  {
    "clipIndex": 492,
    "trackId": "22",
    "clipName": null,
    "beat": 325.25,
    "relBeat": 27.25,
    "duration": 0.25,
    "velocity": 100,
    "pitch": 60
  },
  {
    "clipIndex": 493,
    "trackId": "22",
    "clipName": null,
    "beat": 325.25,
    "relBeat": 25.25,
    "duration": 0.25,
    "velocity": 100,
    "pitch": 60
  },
  {
    "clipIndex": 495,
    "trackId": "22",
    "clipName": null,
    "beat": 325.25,
    "relBeat": 21.25,
    "duration": 0.25,
    "velocity": 100,
    "pitch": 60
  },
  {
    "clipIndex": 496,
    "trackId": "22",
    "clipName": null,
    "beat": 325.25,
    "relBeat": 13.25,
    "duration": 0.25,
    "velocity": 100,
    "pitch": 60
  },
  {
    "clipIndex": 498,
    "trackId": "22",
    "clipName": null,
    "beat": 325.25,
    "relBeat": 9.25,
    "duration": 0.25,
    "velocity": 100,
    "pitch": 60
  },
  {
    "clipIndex": 500,
    "trackId": "22",
    "clipName": null,
    "beat": 325.25,
    "relBeat": 5.25,
    "duration": 0.25,
    "velocity": 100,
    "pitch": 60
  },
  {
    "clipIndex": 501,
    "trackId": "22",
    "clipName": null,
    "beat": 325.25,
    "relBeat": 3.25,
    "duration": 0.25,
    "velocity": 100,
    "pitch": 60
  },
  {
    "clipIndex": 502,
    "trackId": "22",
    "clipName": null,
    "beat": 325.25,
    "relBeat": 1.25,
    "duration": 0.25,
    "velocity": 100,
    "pitch": 60
  },
  {
    "clipIndex": 0,
    "trackId": "89",
    "clipName": null,
    "beat": 325.5,
    "relBeat": 325.5,
    "duration": 0.25,
    "velocity": 100,
    "pitch": 60
  },
  {
    "clipIndex": 490,
    "trackId": "22",
    "clipName": null,
    "beat": 325.5,
    "relBeat": 31.5,
    "duration": 0.25,
    "velocity": 100,
    "pitch": 60
  },
  {
    "clipIndex": 491,
    "trackId": "22",
    "clipName": null,
    "beat": 325.5,
    "relBeat": 29.5,
    "duration": 0.25,
    "velocity": 100,
    "pitch": 60
  },
  {
    "clipIndex": 492,
    "trackId": "22",
    "clipName": null,
    "beat": 325.5,
    "relBeat": 27.5,
    "duration": 0.25,
    "velocity": 100,
    "pitch": 60
  },
  {
    "clipIndex": 493,
    "trackId": "22",
    "clipName": null,
    "beat": 325.5,
    "relBeat": 25.5,
    "duration": 0.25,
    "velocity": 100,
    "pitch": 60
  },
  {
    "clipIndex": 495,
    "trackId": "22",
    "clipName": null,
    "beat": 325.5,
    "relBeat": 21.5,
    "duration": 0.25,
    "velocity": 100,
    "pitch": 60
  },
  {
    "clipIndex": 496,
    "trackId": "22",
    "clipName": null,
    "beat": 325.5,
    "relBeat": 13.5,
    "duration": 0.25,
    "velocity": 100,
    "pitch": 60
  },
  {
    "clipIndex": 498,
    "trackId": "22",
    "clipName": null,
    "beat": 325.5,
    "relBeat": 9.5,
    "duration": 0.25,
    "velocity": 100,
    "pitch": 60
  },
  {
    "clipIndex": 500,
    "trackId": "22",
    "clipName": null,
    "beat": 325.5,
    "relBeat": 5.5,
    "duration": 0.25,
    "velocity": 100,
    "pitch": 60
  },
  {
    "clipIndex": 501,
    "trackId": "22",
    "clipName": null,
    "beat": 325.5,
    "relBeat": 3.5,
    "duration": 0.25,
    "velocity": 100,
    "pitch": 60
  },
  {
    "clipIndex": 502,
    "trackId": "22",
    "clipName": null,
    "beat": 325.5,
    "relBeat": 1.5,
    "duration": 0.25,
    "velocity": 100,
    "pitch": 60
  },
  {
    "clipIndex": 490,
    "trackId": "22",
    "clipName": null,
    "beat": 325.75,
    "relBeat": 31.75,
    "duration": 0.25,
    "velocity": 100,
    "pitch": 60
  },
  {
    "clipIndex": 491,
    "trackId": "22",
    "clipName": null,
    "beat": 325.75,
    "relBeat": 29.75,
    "duration": 0.25,
    "velocity": 100,
    "pitch": 60
  },
  {
    "clipIndex": 492,
    "trackId": "22",
    "clipName": null,
    "beat": 325.75,
    "relBeat": 27.75,
    "duration": 0.25,
    "velocity": 100,
    "pitch": 60
  },
  {
    "clipIndex": 493,
    "trackId": "22",
    "clipName": null,
    "beat": 325.75,
    "relBeat": 25.75,
    "duration": 0.25,
    "velocity": 100,
    "pitch": 60
  },
  {
    "clipIndex": 495,
    "trackId": "22",
    "clipName": null,
    "beat": 325.75,
    "relBeat": 21.75,
    "duration": 0.25,
    "velocity": 100,
    "pitch": 60
  },
  {
    "clipIndex": 496,
    "trackId": "22",
    "clipName": null,
    "beat": 325.75,
    "relBeat": 13.75,
    "duration": 0.25,
    "velocity": 100,
    "pitch": 60
  },
  {
    "clipIndex": 498,
    "trackId": "22",
    "clipName": null,
    "beat": 325.75,
    "relBeat": 9.75,
    "duration": 0.25,
    "velocity": 100,
    "pitch": 60
  },
  {
    "clipIndex": 500,
    "trackId": "22",
    "clipName": null,
    "beat": 325.75,
    "relBeat": 5.75,
    "duration": 0.25,
    "velocity": 100,
    "pitch": 60
  },
  {
    "clipIndex": 501,
    "trackId": "22",
    "clipName": null,
    "beat": 325.75,
    "relBeat": 3.75,
    "duration": 0.25,
    "velocity": 100,
    "pitch": 60
  },
  {
    "clipIndex": 502,
    "trackId": "22",
    "clipName": null,
    "beat": 325.75,
    "relBeat": 1.75,
    "duration": 0.25,
    "velocity": 100,
    "pitch": 60
  },
  {
    "clipIndex": 491,
    "trackId": "22",
    "clipName": null,
    "beat": 326,
    "relBeat": 30,
    "duration": 0.25,
    "velocity": 100,
    "pitch": 60
  },
  {
    "clipIndex": 492,
    "trackId": "22",
    "clipName": null,
    "beat": 326,
    "relBeat": 28,
    "duration": 0.25,
    "velocity": 100,
    "pitch": 60
  },
  {
    "clipIndex": 493,
    "trackId": "22",
    "clipName": null,
    "beat": 326,
    "relBeat": 26,
    "duration": 0.25,
    "velocity": 100,
    "pitch": 60
  },
  {
    "clipIndex": 494,
    "trackId": "22",
    "clipName": null,
    "beat": 326,
    "relBeat": 24,
    "duration": 0.25,
    "velocity": 100,
    "pitch": 60
  },
  {
    "clipIndex": 496,
    "trackId": "22",
    "clipName": null,
    "beat": 326,
    "relBeat": 14,
    "duration": 0.25,
    "velocity": 100,
    "pitch": 60
  },
  {
    "clipIndex": 497,
    "trackId": "22",
    "clipName": null,
    "beat": 326,
    "relBeat": 12,
    "duration": 0.25,
    "velocity": 100,
    "pitch": 60
  },
  {
    "clipIndex": 498,
    "trackId": "22",
    "clipName": null,
    "beat": 326,
    "relBeat": 10,
    "duration": 0.25,
    "velocity": 100,
    "pitch": 60
  },
  {
    "clipIndex": 501,
    "trackId": "22",
    "clipName": null,
    "beat": 326,
    "relBeat": 4,
    "duration": 0.25,
    "velocity": 100,
    "pitch": 60
  },
  {
    "clipIndex": 502,
    "trackId": "22",
    "clipName": null,
    "beat": 326,
    "relBeat": 2,
    "duration": 0.25,
    "velocity": 100,
    "pitch": 60
  },
  {
    "clipIndex": 503,
    "trackId": "22",
    "clipName": null,
    "beat": 326,
    "relBeat": 0,
    "duration": 0.25,
    "velocity": 100,
    "pitch": 60
  },
  {
    "clipIndex": 0,
    "trackId": "89",
    "clipName": null,
    "beat": 326.25,
    "relBeat": 326.25,
    "duration": 0.25,
    "velocity": 100,
    "pitch": 60
  },
  {
    "clipIndex": 491,
    "trackId": "22",
    "clipName": null,
    "beat": 326.25,
    "relBeat": 30.25,
    "duration": 0.25,
    "velocity": 100,
    "pitch": 60
  },
  {
    "clipIndex": 492,
    "trackId": "22",
    "clipName": null,
    "beat": 326.25,
    "relBeat": 28.25,
    "duration": 0.25,
    "velocity": 100,
    "pitch": 60
  },
  {
    "clipIndex": 493,
    "trackId": "22",
    "clipName": null,
    "beat": 326.25,
    "relBeat": 26.25,
    "duration": 0.25,
    "velocity": 100,
    "pitch": 60
  },
  {
    "clipIndex": 494,
    "trackId": "22",
    "clipName": null,
    "beat": 326.25,
    "relBeat": 24.25,
    "duration": 0.25,
    "velocity": 100,
    "pitch": 60
  },
  {
    "clipIndex": 496,
    "trackId": "22",
    "clipName": null,
    "beat": 326.25,
    "relBeat": 14.25,
    "duration": 0.25,
    "velocity": 100,
    "pitch": 60
  },
  {
    "clipIndex": 497,
    "trackId": "22",
    "clipName": null,
    "beat": 326.25,
    "relBeat": 12.25,
    "duration": 0.25,
    "velocity": 100,
    "pitch": 60
  },
  {
    "clipIndex": 501,
    "trackId": "22",
    "clipName": null,
    "beat": 326.25,
    "relBeat": 4.25,
    "duration": 0.25,
    "velocity": 100,
    "pitch": 60
  },
  {
    "clipIndex": 502,
    "trackId": "22",
    "clipName": null,
    "beat": 326.25,
    "relBeat": 2.25,
    "duration": 0.25,
    "velocity": 100,
    "pitch": 60
  },
  {
    "clipIndex": 503,
    "trackId": "22",
    "clipName": null,
    "beat": 326.25,
    "relBeat": 0.25,
    "duration": 0.25,
    "velocity": 100,
    "pitch": 60
  },
  {
    "clipIndex": 491,
    "trackId": "22",
    "clipName": null,
    "beat": 326.5,
    "relBeat": 30.5,
    "duration": 0.25,
    "velocity": 100,
    "pitch": 60
  },
  {
    "clipIndex": 492,
    "trackId": "22",
    "clipName": null,
    "beat": 326.5,
    "relBeat": 28.5,
    "duration": 0.25,
    "velocity": 100,
    "pitch": 60
  },
  {
    "clipIndex": 493,
    "trackId": "22",
    "clipName": null,
    "beat": 326.5,
    "relBeat": 26.5,
    "duration": 0.25,
    "velocity": 100,
    "pitch": 60
  },
  {
    "clipIndex": 494,
    "trackId": "22",
    "clipName": null,
    "beat": 326.5,
    "relBeat": 24.5,
    "duration": 0.25,
    "velocity": 100,
    "pitch": 60
  },
  {
    "clipIndex": 495,
    "trackId": "22",
    "clipName": null,
    "beat": 326.5,
    "relBeat": 22.5,
    "duration": 0.25,
    "velocity": 100,
    "pitch": 60
  },
  {
    "clipIndex": 496,
    "trackId": "22",
    "clipName": null,
    "beat": 326.5,
    "relBeat": 14.5,
    "duration": 0.25,
    "velocity": 100,
    "pitch": 60
  },
  {
    "clipIndex": 497,
    "trackId": "22",
    "clipName": null,
    "beat": 326.5,
    "relBeat": 12.5,
    "duration": 0.25,
    "velocity": 100,
    "pitch": 60
  },
  {
    "clipIndex": 501,
    "trackId": "22",
    "clipName": null,
    "beat": 326.5,
    "relBeat": 4.5,
    "duration": 0.25,
    "velocity": 100,
    "pitch": 60
  },
  {
    "clipIndex": 502,
    "trackId": "22",
    "clipName": null,
    "beat": 326.5,
    "relBeat": 2.5,
    "duration": 0.25,
    "velocity": 100,
    "pitch": 60
  },
  {
    "clipIndex": 503,
    "trackId": "22",
    "clipName": null,
    "beat": 326.5,
    "relBeat": 0.5,
    "duration": 0.25,
    "velocity": 100,
    "pitch": 60
  },
  {
    "clipIndex": 491,
    "trackId": "22",
    "clipName": null,
    "beat": 326.75,
    "relBeat": 30.75,
    "duration": 0.25,
    "velocity": 100,
    "pitch": 60
  },
  {
    "clipIndex": 492,
    "trackId": "22",
    "clipName": null,
    "beat": 326.75,
    "relBeat": 28.75,
    "duration": 0.25,
    "velocity": 100,
    "pitch": 60
  },
  {
    "clipIndex": 493,
    "trackId": "22",
    "clipName": null,
    "beat": 326.75,
    "relBeat": 26.75,
    "duration": 0.25,
    "velocity": 100,
    "pitch": 60
  },
  {
    "clipIndex": 494,
    "trackId": "22",
    "clipName": null,
    "beat": 326.75,
    "relBeat": 24.75,
    "duration": 0.25,
    "velocity": 100,
    "pitch": 60
  },
  {
    "clipIndex": 495,
    "trackId": "22",
    "clipName": null,
    "beat": 326.75,
    "relBeat": 22.75,
    "duration": 0.25,
    "velocity": 100,
    "pitch": 60
  },
  {
    "clipIndex": 496,
    "trackId": "22",
    "clipName": null,
    "beat": 326.75,
    "relBeat": 14.75,
    "duration": 0.25,
    "velocity": 100,
    "pitch": 60
  },
  {
    "clipIndex": 497,
    "trackId": "22",
    "clipName": null,
    "beat": 326.75,
    "relBeat": 12.75,
    "duration": 0.25,
    "velocity": 100,
    "pitch": 60
  },
  {
    "clipIndex": 501,
    "trackId": "22",
    "clipName": null,
    "beat": 326.75,
    "relBeat": 4.75,
    "duration": 0.25,
    "velocity": 100,
    "pitch": 60
  },
  {
    "clipIndex": 502,
    "trackId": "22",
    "clipName": null,
    "beat": 326.75,
    "relBeat": 2.75,
    "duration": 0.25,
    "velocity": 100,
    "pitch": 60
  },
  {
    "clipIndex": 503,
    "trackId": "22",
    "clipName": null,
    "beat": 326.75,
    "relBeat": 0.75,
    "duration": 0.25,
    "velocity": 100,
    "pitch": 60
  },
  {
    "clipIndex": 0,
    "trackId": "89",
    "clipName": null,
    "beat": 327,
    "relBeat": 327,
    "duration": 0.125,
    "velocity": 100,
    "pitch": 60
  },
  {
    "clipIndex": 491,
    "trackId": "22",
    "clipName": null,
    "beat": 327,
    "relBeat": 31,
    "duration": 0.25,
    "velocity": 100,
    "pitch": 60
  },
  {
    "clipIndex": 492,
    "trackId": "22",
    "clipName": null,
    "beat": 327,
    "relBeat": 29,
    "duration": 0.25,
    "velocity": 100,
    "pitch": 60
  },
  {
    "clipIndex": 493,
    "trackId": "22",
    "clipName": null,
    "beat": 327,
    "relBeat": 27,
    "duration": 0.25,
    "velocity": 100,
    "pitch": 60
  },
  {
    "clipIndex": 494,
    "trackId": "22",
    "clipName": null,
    "beat": 327,
    "relBeat": 25,
    "duration": 0.25,
    "velocity": 100,
    "pitch": 60
  },
  {
    "clipIndex": 495,
    "trackId": "22",
    "clipName": null,
    "beat": 327,
    "relBeat": 23,
    "duration": 0.25,
    "velocity": 100,
    "pitch": 60
  },
  {
    "clipIndex": 496,
    "trackId": "22",
    "clipName": null,
    "beat": 327,
    "relBeat": 15,
    "duration": 0.25,
    "velocity": 100,
    "pitch": 60
  },
  {
    "clipIndex": 497,
    "trackId": "22",
    "clipName": null,
    "beat": 327,
    "relBeat": 13,
    "duration": 0.25,
    "velocity": 100,
    "pitch": 60
  },
  {
    "clipIndex": 499,
    "trackId": "22",
    "clipName": null,
    "beat": 327,
    "relBeat": 9,
    "duration": 0.25,
    "velocity": 100,
    "pitch": 60
  },
  {
    "clipIndex": 501,
    "trackId": "22",
    "clipName": null,
    "beat": 327,
    "relBeat": 5,
    "duration": 0.25,
    "velocity": 100,
    "pitch": 60
  },
  {
    "clipIndex": 502,
    "trackId": "22",
    "clipName": null,
    "beat": 327,
    "relBeat": 3,
    "duration": 0.25,
    "velocity": 100,
    "pitch": 60
  },
  {
    "clipIndex": 503,
    "trackId": "22",
    "clipName": null,
    "beat": 327,
    "relBeat": 1,
    "duration": 0.25,
    "velocity": 100,
    "pitch": 60
  },
  {
    "clipIndex": 0,
    "trackId": "89",
    "clipName": null,
    "beat": 327.125,
    "relBeat": 327.125,
    "duration": 0.125,
    "velocity": 100,
    "pitch": 60
  },
  {
    "clipIndex": 0,
    "trackId": "89",
    "clipName": null,
    "beat": 327.25,
    "relBeat": 327.25,
    "duration": 0.125,
    "velocity": 100,
    "pitch": 60
  },
  {
    "clipIndex": 491,
    "trackId": "22",
    "clipName": null,
    "beat": 327.25,
    "relBeat": 31.25,
    "duration": 0.25,
    "velocity": 100,
    "pitch": 60
  },
  {
    "clipIndex": 492,
    "trackId": "22",
    "clipName": null,
    "beat": 327.25,
    "relBeat": 29.25,
    "duration": 0.25,
    "velocity": 100,
    "pitch": 60
  },
  {
    "clipIndex": 493,
    "trackId": "22",
    "clipName": null,
    "beat": 327.25,
    "relBeat": 27.25,
    "duration": 0.25,
    "velocity": 100,
    "pitch": 60
  },
  {
    "clipIndex": 494,
    "trackId": "22",
    "clipName": null,
    "beat": 327.25,
    "relBeat": 25.25,
    "duration": 0.25,
    "velocity": 100,
    "pitch": 60
  },
  {
    "clipIndex": 495,
    "trackId": "22",
    "clipName": null,
    "beat": 327.25,
    "relBeat": 23.25,
    "duration": 0.25,
    "velocity": 100,
    "pitch": 60
  },
  {
    "clipIndex": 496,
    "trackId": "22",
    "clipName": null,
    "beat": 327.25,
    "relBeat": 15.25,
    "duration": 0.25,
    "velocity": 100,
    "pitch": 60
  },
  {
    "clipIndex": 497,
    "trackId": "22",
    "clipName": null,
    "beat": 327.25,
    "relBeat": 13.25,
    "duration": 0.25,
    "velocity": 100,
    "pitch": 60
  },
  {
    "clipIndex": 499,
    "trackId": "22",
    "clipName": null,
    "beat": 327.25,
    "relBeat": 9.25,
    "duration": 0.25,
    "velocity": 100,
    "pitch": 60
  },
  {
    "clipIndex": 501,
    "trackId": "22",
    "clipName": null,
    "beat": 327.25,
    "relBeat": 5.25,
    "duration": 0.25,
    "velocity": 100,
    "pitch": 60
  },
  {
    "clipIndex": 502,
    "trackId": "22",
    "clipName": null,
    "beat": 327.25,
    "relBeat": 3.25,
    "duration": 0.25,
    "velocity": 100,
    "pitch": 60
  },
  {
    "clipIndex": 503,
    "trackId": "22",
    "clipName": null,
    "beat": 327.25,
    "relBeat": 1.25,
    "duration": 0.25,
    "velocity": 100,
    "pitch": 60
  },
  {
    "clipIndex": 0,
    "trackId": "89",
    "clipName": null,
    "beat": 327.375,
    "relBeat": 327.375,
    "duration": 0.125,
    "velocity": 100,
    "pitch": 60
  },
  {
    "clipIndex": 0,
    "trackId": "89",
    "clipName": null,
    "beat": 327.5,
    "relBeat": 327.5,
    "duration": 0.25,
    "velocity": 100,
    "pitch": 60
  },
  {
    "clipIndex": 343,
    "trackId": "55",
    "clipName": null,
    "beat": 327.5,
    "relBeat": 87.5,
    "duration": 0.25000026015651017,
    "velocity": 100,
    "pitch": 60
  },
  {
    "clipIndex": 491,
    "trackId": "22",
    "clipName": null,
    "beat": 327.5,
    "relBeat": 31.5,
    "duration": 0.25,
    "velocity": 100,
    "pitch": 60
  },
  {
    "clipIndex": 492,
    "trackId": "22",
    "clipName": null,
    "beat": 327.5,
    "relBeat": 29.5,
    "duration": 0.25,
    "velocity": 100,
    "pitch": 60
  },
  {
    "clipIndex": 493,
    "trackId": "22",
    "clipName": null,
    "beat": 327.5,
    "relBeat": 27.5,
    "duration": 0.25,
    "velocity": 100,
    "pitch": 60
  },
  {
    "clipIndex": 494,
    "trackId": "22",
    "clipName": null,
    "beat": 327.5,
    "relBeat": 25.5,
    "duration": 0.25,
    "velocity": 100,
    "pitch": 60
  },
  {
    "clipIndex": 495,
    "trackId": "22",
    "clipName": null,
    "beat": 327.5,
    "relBeat": 23.5,
    "duration": 0.25,
    "velocity": 100,
    "pitch": 60
  },
  {
    "clipIndex": 496,
    "trackId": "22",
    "clipName": null,
    "beat": 327.5,
    "relBeat": 15.5,
    "duration": 0.25,
    "velocity": 100,
    "pitch": 60
  },
  {
    "clipIndex": 497,
    "trackId": "22",
    "clipName": null,
    "beat": 327.5,
    "relBeat": 13.5,
    "duration": 0.25,
    "velocity": 100,
    "pitch": 60
  },
  {
    "clipIndex": 499,
    "trackId": "22",
    "clipName": null,
    "beat": 327.5,
    "relBeat": 9.5,
    "duration": 0.25,
    "velocity": 100,
    "pitch": 60
  },
  {
    "clipIndex": 501,
    "trackId": "22",
    "clipName": null,
    "beat": 327.5,
    "relBeat": 5.5,
    "duration": 0.25,
    "velocity": 100,
    "pitch": 60
  },
  {
    "clipIndex": 502,
    "trackId": "22",
    "clipName": null,
    "beat": 327.5,
    "relBeat": 3.5,
    "duration": 0.25,
    "velocity": 100,
    "pitch": 60
  },
  {
    "clipIndex": 503,
    "trackId": "22",
    "clipName": null,
    "beat": 327.5,
    "relBeat": 1.5,
    "duration": 0.25,
    "velocity": 100,
    "pitch": 60
  },
  {
    "clipIndex": 491,
    "trackId": "22",
    "clipName": null,
    "beat": 327.75,
    "relBeat": 31.75,
    "duration": 0.25,
    "velocity": 100,
    "pitch": 60
  },
  {
    "clipIndex": 492,
    "trackId": "22",
    "clipName": null,
    "beat": 327.75,
    "relBeat": 29.75,
    "duration": 0.25,
    "velocity": 100,
    "pitch": 60
  },
  {
    "clipIndex": 493,
    "trackId": "22",
    "clipName": null,
    "beat": 327.75,
    "relBeat": 27.75,
    "duration": 0.25,
    "velocity": 100,
    "pitch": 60
  },
  {
    "clipIndex": 494,
    "trackId": "22",
    "clipName": null,
    "beat": 327.75,
    "relBeat": 25.75,
    "duration": 0.25,
    "velocity": 100,
    "pitch": 60
  },
  {
    "clipIndex": 495,
    "trackId": "22",
    "clipName": null,
    "beat": 327.75,
    "relBeat": 23.75,
    "duration": 0.25,
    "velocity": 100,
    "pitch": 60
  },
  {
    "clipIndex": 496,
    "trackId": "22",
    "clipName": null,
    "beat": 327.75,
    "relBeat": 15.75,
    "duration": 0.25,
    "velocity": 100,
    "pitch": 60
  },
  {
    "clipIndex": 497,
    "trackId": "22",
    "clipName": null,
    "beat": 327.75,
    "relBeat": 13.75,
    "duration": 0.25,
    "velocity": 100,
    "pitch": 60
  },
  {
    "clipIndex": 499,
    "trackId": "22",
    "clipName": null,
    "beat": 327.75,
    "relBeat": 9.75,
    "duration": 0.25,
    "velocity": 100,
    "pitch": 60
  },
  {
    "clipIndex": 501,
    "trackId": "22",
    "clipName": null,
    "beat": 327.75,
    "relBeat": 5.75,
    "duration": 0.25,
    "velocity": 100,
    "pitch": 60
  },
  {
    "clipIndex": 502,
    "trackId": "22",
    "clipName": null,
    "beat": 327.75,
    "relBeat": 3.75,
    "duration": 0.25,
    "velocity": 100,
    "pitch": 60
  },
  {
    "clipIndex": 503,
    "trackId": "22",
    "clipName": null,
    "beat": 327.75,
    "relBeat": 1.75,
    "duration": 0.25,
    "velocity": 100,
    "pitch": 60
  },
  {
    "clipIndex": 492,
    "trackId": "22",
    "clipName": null,
    "beat": 328,
    "relBeat": 30,
    "duration": 0.25,
    "velocity": 100,
    "pitch": 60
  },
  {
    "clipIndex": 493,
    "trackId": "22",
    "clipName": null,
    "beat": 328,
    "relBeat": 28,
    "duration": 0.25,
    "velocity": 100,
    "pitch": 60
  },
  {
    "clipIndex": 494,
    "trackId": "22",
    "clipName": null,
    "beat": 328,
    "relBeat": 26,
    "duration": 0.25,
    "velocity": 100,
    "pitch": 60
  },
  {
    "clipIndex": 495,
    "trackId": "22",
    "clipName": null,
    "beat": 328,
    "relBeat": 24,
    "duration": 0.25,
    "velocity": 100,
    "pitch": 60
  },
  {
    "clipIndex": 496,
    "trackId": "22",
    "clipName": null,
    "beat": 328,
    "relBeat": 16,
    "duration": 0.25,
    "velocity": 100,
    "pitch": 60
  },
  {
    "clipIndex": 497,
    "trackId": "22",
    "clipName": null,
    "beat": 328,
    "relBeat": 14,
    "duration": 0.25,
    "velocity": 100,
    "pitch": 60
  },
  {
    "clipIndex": 498,
    "trackId": "22",
    "clipName": null,
    "beat": 328,
    "relBeat": 12,
    "duration": 0.25,
    "velocity": 100,
    "pitch": 60
  },
  {
    "clipIndex": 499,
    "trackId": "22",
    "clipName": null,
    "beat": 328,
    "relBeat": 10,
    "duration": 0.25,
    "velocity": 100,
    "pitch": 60
  },
  {
    "clipIndex": 502,
    "trackId": "22",
    "clipName": null,
    "beat": 328,
    "relBeat": 4,
    "duration": 0.25,
    "velocity": 100,
    "pitch": 60
  },
  {
    "clipIndex": 503,
    "trackId": "22",
    "clipName": null,
    "beat": 328,
    "relBeat": 2,
    "duration": 0.25,
    "velocity": 100,
    "pitch": 60
  },
  {
    "clipIndex": 504,
    "trackId": "22",
    "clipName": null,
    "beat": 328,
    "relBeat": 0,
    "duration": 0.25,
    "velocity": 100,
    "pitch": 60
  },
  {
    "clipIndex": 0,
    "trackId": "89",
    "clipName": null,
    "beat": 328.25,
    "relBeat": 328.25,
    "duration": 0.125,
    "velocity": 100,
    "pitch": 60
  },
  {
    "clipIndex": 492,
    "trackId": "22",
    "clipName": null,
    "beat": 328.25,
    "relBeat": 30.25,
    "duration": 0.25,
    "velocity": 100,
    "pitch": 60
  },
  {
    "clipIndex": 493,
    "trackId": "22",
    "clipName": null,
    "beat": 328.25,
    "relBeat": 28.25,
    "duration": 0.25,
    "velocity": 100,
    "pitch": 60
  },
  {
    "clipIndex": 494,
    "trackId": "22",
    "clipName": null,
    "beat": 328.25,
    "relBeat": 26.25,
    "duration": 0.25,
    "velocity": 100,
    "pitch": 60
  },
  {
    "clipIndex": 495,
    "trackId": "22",
    "clipName": null,
    "beat": 328.25,
    "relBeat": 24.25,
    "duration": 0.25,
    "velocity": 100,
    "pitch": 60
  },
  {
    "clipIndex": 496,
    "trackId": "22",
    "clipName": null,
    "beat": 328.25,
    "relBeat": 16.25,
    "duration": 0.25,
    "velocity": 100,
    "pitch": 60
  },
  {
    "clipIndex": 497,
    "trackId": "22",
    "clipName": null,
    "beat": 328.25,
    "relBeat": 14.25,
    "duration": 0.25,
    "velocity": 100,
    "pitch": 60
  },
  {
    "clipIndex": 498,
    "trackId": "22",
    "clipName": null,
    "beat": 328.25,
    "relBeat": 12.25,
    "duration": 0.25,
    "velocity": 100,
    "pitch": 60
  },
  {
    "clipIndex": 502,
    "trackId": "22",
    "clipName": null,
    "beat": 328.25,
    "relBeat": 4.25,
    "duration": 0.25,
    "velocity": 100,
    "pitch": 60
  },
  {
    "clipIndex": 503,
    "trackId": "22",
    "clipName": null,
    "beat": 328.25,
    "relBeat": 2.25,
    "duration": 0.25,
    "velocity": 100,
    "pitch": 60
  },
  {
    "clipIndex": 504,
    "trackId": "22",
    "clipName": null,
    "beat": 328.25,
    "relBeat": 0.25,
    "duration": 0.25,
    "velocity": 100,
    "pitch": 60
  },
  {
    "clipIndex": 0,
    "trackId": "89",
    "clipName": null,
    "beat": 328.375,
    "relBeat": 328.375,
    "duration": 0.125,
    "velocity": 100,
    "pitch": 60
  },
  {
    "clipIndex": 0,
    "trackId": "89",
    "clipName": null,
    "beat": 328.5,
    "relBeat": 328.5,
    "duration": 0.125,
    "velocity": 100,
    "pitch": 60
  },
  {
    "clipIndex": 492,
    "trackId": "22",
    "clipName": null,
    "beat": 328.5,
    "relBeat": 30.5,
    "duration": 0.25,
    "velocity": 100,
    "pitch": 60
  },
  {
    "clipIndex": 493,
    "trackId": "22",
    "clipName": null,
    "beat": 328.5,
    "relBeat": 28.5,
    "duration": 0.25,
    "velocity": 100,
    "pitch": 60
  },
  {
    "clipIndex": 494,
    "trackId": "22",
    "clipName": null,
    "beat": 328.5,
    "relBeat": 26.5,
    "duration": 0.25,
    "velocity": 100,
    "pitch": 60
  },
  {
    "clipIndex": 496,
    "trackId": "22",
    "clipName": null,
    "beat": 328.5,
    "relBeat": 16.5,
    "duration": 0.25,
    "velocity": 100,
    "pitch": 60
  },
  {
    "clipIndex": 497,
    "trackId": "22",
    "clipName": null,
    "beat": 328.5,
    "relBeat": 14.5,
    "duration": 0.25,
    "velocity": 100,
    "pitch": 60
  },
  {
    "clipIndex": 498,
    "trackId": "22",
    "clipName": null,
    "beat": 328.5,
    "relBeat": 12.5,
    "duration": 0.25,
    "velocity": 100,
    "pitch": 60
  },
  {
    "clipIndex": 502,
    "trackId": "22",
    "clipName": null,
    "beat": 328.5,
    "relBeat": 4.5,
    "duration": 0.25,
    "velocity": 100,
    "pitch": 60
  },
  {
    "clipIndex": 503,
    "trackId": "22",
    "clipName": null,
    "beat": 328.5,
    "relBeat": 2.5,
    "duration": 0.25,
    "velocity": 100,
    "pitch": 60
  },
  {
    "clipIndex": 504,
    "trackId": "22",
    "clipName": null,
    "beat": 328.5,
    "relBeat": 0.5,
    "duration": 0.25,
    "velocity": 100,
    "pitch": 60
  },
  {
    "clipIndex": 0,
    "trackId": "89",
    "clipName": null,
    "beat": 328.625,
    "relBeat": 328.625,
    "duration": 0.125,
    "velocity": 100,
    "pitch": 60
  },
  {
    "clipIndex": 0,
    "trackId": "89",
    "clipName": null,
    "beat": 328.75,
    "relBeat": 328.75,
    "duration": 0.25,
    "velocity": 100,
    "pitch": 60
  },
  {
    "clipIndex": 492,
    "trackId": "22",
    "clipName": null,
    "beat": 328.75,
    "relBeat": 30.75,
    "duration": 0.25,
    "velocity": 100,
    "pitch": 60
  },
  {
    "clipIndex": 493,
    "trackId": "22",
    "clipName": null,
    "beat": 328.75,
    "relBeat": 28.75,
    "duration": 0.25,
    "velocity": 100,
    "pitch": 60
  },
  {
    "clipIndex": 494,
    "trackId": "22",
    "clipName": null,
    "beat": 328.75,
    "relBeat": 26.75,
    "duration": 0.25,
    "velocity": 100,
    "pitch": 60
  },
  {
    "clipIndex": 496,
    "trackId": "22",
    "clipName": null,
    "beat": 328.75,
    "relBeat": 16.75,
    "duration": 0.25,
    "velocity": 100,
    "pitch": 60
  },
  {
    "clipIndex": 497,
    "trackId": "22",
    "clipName": null,
    "beat": 328.75,
    "relBeat": 14.75,
    "duration": 0.25,
    "velocity": 100,
    "pitch": 60
  },
  {
    "clipIndex": 498,
    "trackId": "22",
    "clipName": null,
    "beat": 328.75,
    "relBeat": 12.75,
    "duration": 0.25,
    "velocity": 100,
    "pitch": 60
  },
  {
    "clipIndex": 502,
    "trackId": "22",
    "clipName": null,
    "beat": 328.75,
    "relBeat": 4.75,
    "duration": 0.25,
    "velocity": 100,
    "pitch": 60
  },
  {
    "clipIndex": 503,
    "trackId": "22",
    "clipName": null,
    "beat": 328.75,
    "relBeat": 2.75,
    "duration": 0.25,
    "velocity": 100,
    "pitch": 60
  },
  {
    "clipIndex": 504,
    "trackId": "22",
    "clipName": null,
    "beat": 328.75,
    "relBeat": 0.75,
    "duration": 0.25,
    "velocity": 100,
    "pitch": 60
  },
  {
    "clipIndex": 492,
    "trackId": "22",
    "clipName": null,
    "beat": 329,
    "relBeat": 31,
    "duration": 0.25,
    "velocity": 100,
    "pitch": 60
  },
  {
    "clipIndex": 493,
    "trackId": "22",
    "clipName": null,
    "beat": 329,
    "relBeat": 29,
    "duration": 0.25,
    "velocity": 100,
    "pitch": 60
  },
  {
    "clipIndex": 494,
    "trackId": "22",
    "clipName": null,
    "beat": 329,
    "relBeat": 27,
    "duration": 0.25,
    "velocity": 100,
    "pitch": 60
  },
  {
    "clipIndex": 495,
    "trackId": "22",
    "clipName": null,
    "beat": 329,
    "relBeat": 25,
    "duration": 0.25,
    "velocity": 100,
    "pitch": 60
  },
  {
    "clipIndex": 496,
    "trackId": "22",
    "clipName": null,
    "beat": 329,
    "relBeat": 17,
    "duration": 0.25,
    "velocity": 100,
    "pitch": 60
  },
  {
    "clipIndex": 497,
    "trackId": "22",
    "clipName": null,
    "beat": 329,
    "relBeat": 15,
    "duration": 0.25,
    "velocity": 100,
    "pitch": 60
  },
  {
    "clipIndex": 498,
    "trackId": "22",
    "clipName": null,
    "beat": 329,
    "relBeat": 13,
    "duration": 0.25,
    "velocity": 100,
    "pitch": 60
  },
  {
    "clipIndex": 500,
    "trackId": "22",
    "clipName": null,
    "beat": 329,
    "relBeat": 9,
    "duration": 0.25,
    "velocity": 100,
    "pitch": 60
  },
  {
    "clipIndex": 502,
    "trackId": "22",
    "clipName": null,
    "beat": 329,
    "relBeat": 5,
    "duration": 0.25,
    "velocity": 100,
    "pitch": 60
  },
  {
    "clipIndex": 503,
    "trackId": "22",
    "clipName": null,
    "beat": 329,
    "relBeat": 3,
    "duration": 0.25,
    "velocity": 100,
    "pitch": 60
  },
  {
    "clipIndex": 504,
    "trackId": "22",
    "clipName": null,
    "beat": 329,
    "relBeat": 1,
    "duration": 0.25,
    "velocity": 100,
    "pitch": 60
  },
  {
    "clipIndex": 492,
    "trackId": "22",
    "clipName": null,
    "beat": 329.25,
    "relBeat": 31.25,
    "duration": 0.25,
    "velocity": 100,
    "pitch": 60
  },
  {
    "clipIndex": 493,
    "trackId": "22",
    "clipName": null,
    "beat": 329.25,
    "relBeat": 29.25,
    "duration": 0.25,
    "velocity": 100,
    "pitch": 60
  },
  {
    "clipIndex": 494,
    "trackId": "22",
    "clipName": null,
    "beat": 329.25,
    "relBeat": 27.25,
    "duration": 0.25,
    "velocity": 100,
    "pitch": 60
  },
  {
    "clipIndex": 495,
    "trackId": "22",
    "clipName": null,
    "beat": 329.25,
    "relBeat": 25.25,
    "duration": 0.25,
    "velocity": 100,
    "pitch": 60
  },
  {
    "clipIndex": 496,
    "trackId": "22",
    "clipName": null,
    "beat": 329.25,
    "relBeat": 17.25,
    "duration": 0.25,
    "velocity": 100,
    "pitch": 60
  },
  {
    "clipIndex": 497,
    "trackId": "22",
    "clipName": null,
    "beat": 329.25,
    "relBeat": 15.25,
    "duration": 0.25,
    "velocity": 100,
    "pitch": 60
  },
  {
    "clipIndex": 498,
    "trackId": "22",
    "clipName": null,
    "beat": 329.25,
    "relBeat": 13.25,
    "duration": 0.25,
    "velocity": 100,
    "pitch": 60
  },
  {
    "clipIndex": 500,
    "trackId": "22",
    "clipName": null,
    "beat": 329.25,
    "relBeat": 9.25,
    "duration": 0.25,
    "velocity": 100,
    "pitch": 60
  },
  {
    "clipIndex": 502,
    "trackId": "22",
    "clipName": null,
    "beat": 329.25,
    "relBeat": 5.25,
    "duration": 0.25,
    "velocity": 100,
    "pitch": 60
  },
  {
    "clipIndex": 503,
    "trackId": "22",
    "clipName": null,
    "beat": 329.25,
    "relBeat": 3.25,
    "duration": 0.25,
    "velocity": 100,
    "pitch": 60
  },
  {
    "clipIndex": 504,
    "trackId": "22",
    "clipName": null,
    "beat": 329.25,
    "relBeat": 1.25,
    "duration": 0.25,
    "velocity": 100,
    "pitch": 60
  },
  {
    "clipIndex": 0,
    "trackId": "89",
    "clipName": null,
    "beat": 329.5,
    "relBeat": 329.5,
    "duration": 0.25,
    "velocity": 100,
    "pitch": 60
  },
  {
    "clipIndex": 492,
    "trackId": "22",
    "clipName": null,
    "beat": 329.5,
    "relBeat": 31.5,
    "duration": 0.25,
    "velocity": 100,
    "pitch": 60
  },
  {
    "clipIndex": 493,
    "trackId": "22",
    "clipName": null,
    "beat": 329.5,
    "relBeat": 29.5,
    "duration": 0.25,
    "velocity": 100,
    "pitch": 60
  },
  {
    "clipIndex": 494,
    "trackId": "22",
    "clipName": null,
    "beat": 329.5,
    "relBeat": 27.5,
    "duration": 0.25,
    "velocity": 100,
    "pitch": 60
  },
  {
    "clipIndex": 495,
    "trackId": "22",
    "clipName": null,
    "beat": 329.5,
    "relBeat": 25.5,
    "duration": 0.25,
    "velocity": 100,
    "pitch": 60
  },
  {
    "clipIndex": 496,
    "trackId": "22",
    "clipName": null,
    "beat": 329.5,
    "relBeat": 17.5,
    "duration": 0.25,
    "velocity": 100,
    "pitch": 60
  },
  {
    "clipIndex": 497,
    "trackId": "22",
    "clipName": null,
    "beat": 329.5,
    "relBeat": 15.5,
    "duration": 0.25,
    "velocity": 100,
    "pitch": 60
  },
  {
    "clipIndex": 498,
    "trackId": "22",
    "clipName": null,
    "beat": 329.5,
    "relBeat": 13.5,
    "duration": 0.25,
    "velocity": 100,
    "pitch": 60
  },
  {
    "clipIndex": 500,
    "trackId": "22",
    "clipName": null,
    "beat": 329.5,
    "relBeat": 9.5,
    "duration": 0.25,
    "velocity": 100,
    "pitch": 60
  },
  {
    "clipIndex": 502,
    "trackId": "22",
    "clipName": null,
    "beat": 329.5,
    "relBeat": 5.5,
    "duration": 0.25,
    "velocity": 100,
    "pitch": 60
  },
  {
    "clipIndex": 503,
    "trackId": "22",
    "clipName": null,
    "beat": 329.5,
    "relBeat": 3.5,
    "duration": 0.25,
    "velocity": 100,
    "pitch": 60
  },
  {
    "clipIndex": 504,
    "trackId": "22",
    "clipName": null,
    "beat": 329.5,
    "relBeat": 1.5,
    "duration": 0.25,
    "velocity": 100,
    "pitch": 60
  },
  {
    "clipIndex": 492,
    "trackId": "22",
    "clipName": null,
    "beat": 329.75,
    "relBeat": 31.75,
    "duration": 0.25,
    "velocity": 100,
    "pitch": 60
  },
  {
    "clipIndex": 493,
    "trackId": "22",
    "clipName": null,
    "beat": 329.75,
    "relBeat": 29.75,
    "duration": 0.25,
    "velocity": 100,
    "pitch": 60
  },
  {
    "clipIndex": 494,
    "trackId": "22",
    "clipName": null,
    "beat": 329.75,
    "relBeat": 27.75,
    "duration": 0.25,
    "velocity": 100,
    "pitch": 60
  },
  {
    "clipIndex": 495,
    "trackId": "22",
    "clipName": null,
    "beat": 329.75,
    "relBeat": 25.75,
    "duration": 0.25,
    "velocity": 100,
    "pitch": 60
  },
  {
    "clipIndex": 496,
    "trackId": "22",
    "clipName": null,
    "beat": 329.75,
    "relBeat": 17.75,
    "duration": 0.25,
    "velocity": 100,
    "pitch": 60
  },
  {
    "clipIndex": 497,
    "trackId": "22",
    "clipName": null,
    "beat": 329.75,
    "relBeat": 15.75,
    "duration": 0.25,
    "velocity": 100,
    "pitch": 60
  },
  {
    "clipIndex": 498,
    "trackId": "22",
    "clipName": null,
    "beat": 329.75,
    "relBeat": 13.75,
    "duration": 0.25,
    "velocity": 100,
    "pitch": 60
  },
  {
    "clipIndex": 500,
    "trackId": "22",
    "clipName": null,
    "beat": 329.75,
    "relBeat": 9.75,
    "duration": 0.25,
    "velocity": 100,
    "pitch": 60
  },
  {
    "clipIndex": 502,
    "trackId": "22",
    "clipName": null,
    "beat": 329.75,
    "relBeat": 5.75,
    "duration": 0.25,
    "velocity": 100,
    "pitch": 60
  },
  {
    "clipIndex": 503,
    "trackId": "22",
    "clipName": null,
    "beat": 329.75,
    "relBeat": 3.75,
    "duration": 0.25,
    "velocity": 100,
    "pitch": 60
  },
  {
    "clipIndex": 504,
    "trackId": "22",
    "clipName": null,
    "beat": 329.75,
    "relBeat": 1.75,
    "duration": 0.25,
    "velocity": 100,
    "pitch": 60
  },
  {
    "clipIndex": 493,
    "trackId": "22",
    "clipName": null,
    "beat": 330,
    "relBeat": 30,
    "duration": 0.25,
    "velocity": 100,
    "pitch": 60
  },
  {
    "clipIndex": 494,
    "trackId": "22",
    "clipName": null,
    "beat": 330,
    "relBeat": 28,
    "duration": 0.25,
    "velocity": 100,
    "pitch": 60
  },
  {
    "clipIndex": 496,
    "trackId": "22",
    "clipName": null,
    "beat": 330,
    "relBeat": 18,
    "duration": 0.25,
    "velocity": 100,
    "pitch": 60
  },
  {
    "clipIndex": 497,
    "trackId": "22",
    "clipName": null,
    "beat": 330,
    "relBeat": 16,
    "duration": 0.25,
    "velocity": 100,
    "pitch": 60
  },
  {
    "clipIndex": 498,
    "trackId": "22",
    "clipName": null,
    "beat": 330,
    "relBeat": 14,
    "duration": 0.25,
    "velocity": 100,
    "pitch": 60
  },
  {
    "clipIndex": 499,
    "trackId": "22",
    "clipName": null,
    "beat": 330,
    "relBeat": 12,
    "duration": 0.25,
    "velocity": 100,
    "pitch": 60
  },
  {
    "clipIndex": 500,
    "trackId": "22",
    "clipName": null,
    "beat": 330,
    "relBeat": 10,
    "duration": 0.25,
    "velocity": 100,
    "pitch": 60
  },
  {
    "clipIndex": 503,
    "trackId": "22",
    "clipName": null,
    "beat": 330,
    "relBeat": 4,
    "duration": 0.25,
    "velocity": 100,
    "pitch": 60
  },
  {
    "clipIndex": 504,
    "trackId": "22",
    "clipName": null,
    "beat": 330,
    "relBeat": 2,
    "duration": 0.25,
    "velocity": 100,
    "pitch": 60
  },
  {
    "clipIndex": 505,
    "trackId": "22",
    "clipName": null,
    "beat": 330,
    "relBeat": 0,
    "duration": 0.25,
    "velocity": 100,
    "pitch": 60
  },
  {
    "clipIndex": 0,
    "trackId": "89",
    "clipName": null,
    "beat": 330.25,
    "relBeat": 330.25,
    "duration": 0.25,
    "velocity": 100,
    "pitch": 60
  },
  {
    "clipIndex": 493,
    "trackId": "22",
    "clipName": null,
    "beat": 330.25,
    "relBeat": 30.25,
    "duration": 0.25,
    "velocity": 100,
    "pitch": 60
  },
  {
    "clipIndex": 494,
    "trackId": "22",
    "clipName": null,
    "beat": 330.25,
    "relBeat": 28.25,
    "duration": 0.25,
    "velocity": 100,
    "pitch": 60
  },
  {
    "clipIndex": 496,
    "trackId": "22",
    "clipName": null,
    "beat": 330.25,
    "relBeat": 18.25,
    "duration": 0.25,
    "velocity": 100,
    "pitch": 60
  },
  {
    "clipIndex": 497,
    "trackId": "22",
    "clipName": null,
    "beat": 330.25,
    "relBeat": 16.25,
    "duration": 0.25,
    "velocity": 100,
    "pitch": 60
  },
  {
    "clipIndex": 498,
    "trackId": "22",
    "clipName": null,
    "beat": 330.25,
    "relBeat": 14.25,
    "duration": 0.25,
    "velocity": 100,
    "pitch": 60
  },
  {
    "clipIndex": 499,
    "trackId": "22",
    "clipName": null,
    "beat": 330.25,
    "relBeat": 12.25,
    "duration": 0.25,
    "velocity": 100,
    "pitch": 60
  },
  {
    "clipIndex": 503,
    "trackId": "22",
    "clipName": null,
    "beat": 330.25,
    "relBeat": 4.25,
    "duration": 0.25,
    "velocity": 100,
    "pitch": 60
  },
  {
    "clipIndex": 504,
    "trackId": "22",
    "clipName": null,
    "beat": 330.25,
    "relBeat": 2.25,
    "duration": 0.25,
    "velocity": 100,
    "pitch": 60
  },
  {
    "clipIndex": 505,
    "trackId": "22",
    "clipName": null,
    "beat": 330.25,
    "relBeat": 0.25,
    "duration": 0.25,
    "velocity": 100,
    "pitch": 60
  },
  {
    "clipIndex": 493,
    "trackId": "22",
    "clipName": null,
    "beat": 330.5,
    "relBeat": 30.5,
    "duration": 0.25,
    "velocity": 100,
    "pitch": 60
  },
  {
    "clipIndex": 494,
    "trackId": "22",
    "clipName": null,
    "beat": 330.5,
    "relBeat": 28.5,
    "duration": 0.25,
    "velocity": 100,
    "pitch": 60
  },
  {
    "clipIndex": 495,
    "trackId": "22",
    "clipName": null,
    "beat": 330.5,
    "relBeat": 26.5,
    "duration": 0.25,
    "velocity": 100,
    "pitch": 60
  },
  {
    "clipIndex": 496,
    "trackId": "22",
    "clipName": null,
    "beat": 330.5,
    "relBeat": 18.5,
    "duration": 0.25,
    "velocity": 100,
    "pitch": 60
  },
  {
    "clipIndex": 497,
    "trackId": "22",
    "clipName": null,
    "beat": 330.5,
    "relBeat": 16.5,
    "duration": 0.25,
    "velocity": 100,
    "pitch": 60
  },
  {
    "clipIndex": 498,
    "trackId": "22",
    "clipName": null,
    "beat": 330.5,
    "relBeat": 14.5,
    "duration": 0.25,
    "velocity": 100,
    "pitch": 60
  },
  {
    "clipIndex": 499,
    "trackId": "22",
    "clipName": null,
    "beat": 330.5,
    "relBeat": 12.5,
    "duration": 0.25,
    "velocity": 100,
    "pitch": 60
  },
  {
    "clipIndex": 503,
    "trackId": "22",
    "clipName": null,
    "beat": 330.5,
    "relBeat": 4.5,
    "duration": 0.25,
    "velocity": 100,
    "pitch": 60
  },
  {
    "clipIndex": 504,
    "trackId": "22",
    "clipName": null,
    "beat": 330.5,
    "relBeat": 2.5,
    "duration": 0.25,
    "velocity": 100,
    "pitch": 60
  },
  {
    "clipIndex": 505,
    "trackId": "22",
    "clipName": null,
    "beat": 330.5,
    "relBeat": 0.5,
    "duration": 0.25,
    "velocity": 100,
    "pitch": 60
  },
  {
    "clipIndex": 493,
    "trackId": "22",
    "clipName": null,
    "beat": 330.75,
    "relBeat": 30.75,
    "duration": 0.25,
    "velocity": 100,
    "pitch": 60
  },
  {
    "clipIndex": 494,
    "trackId": "22",
    "clipName": null,
    "beat": 330.75,
    "relBeat": 28.75,
    "duration": 0.25,
    "velocity": 100,
    "pitch": 60
  },
  {
    "clipIndex": 495,
    "trackId": "22",
    "clipName": null,
    "beat": 330.75,
    "relBeat": 26.75,
    "duration": 0.25,
    "velocity": 100,
    "pitch": 60
  },
  {
    "clipIndex": 496,
    "trackId": "22",
    "clipName": null,
    "beat": 330.75,
    "relBeat": 18.75,
    "duration": 0.25,
    "velocity": 100,
    "pitch": 60
  },
  {
    "clipIndex": 497,
    "trackId": "22",
    "clipName": null,
    "beat": 330.75,
    "relBeat": 16.75,
    "duration": 0.25,
    "velocity": 100,
    "pitch": 60
  },
  {
    "clipIndex": 498,
    "trackId": "22",
    "clipName": null,
    "beat": 330.75,
    "relBeat": 14.75,
    "duration": 0.25,
    "velocity": 100,
    "pitch": 60
  },
  {
    "clipIndex": 499,
    "trackId": "22",
    "clipName": null,
    "beat": 330.75,
    "relBeat": 12.75,
    "duration": 0.25,
    "velocity": 100,
    "pitch": 60
  },
  {
    "clipIndex": 503,
    "trackId": "22",
    "clipName": null,
    "beat": 330.75,
    "relBeat": 4.75,
    "duration": 0.25,
    "velocity": 100,
    "pitch": 60
  },
  {
    "clipIndex": 504,
    "trackId": "22",
    "clipName": null,
    "beat": 330.75,
    "relBeat": 2.75,
    "duration": 0.25,
    "velocity": 100,
    "pitch": 60
  },
  {
    "clipIndex": 505,
    "trackId": "22",
    "clipName": null,
    "beat": 330.75,
    "relBeat": 0.75,
    "duration": 0.25,
    "velocity": 100,
    "pitch": 60
  },
  {
    "clipIndex": 493,
    "trackId": "22",
    "clipName": null,
    "beat": 331,
    "relBeat": 31,
    "duration": 0.25,
    "velocity": 100,
    "pitch": 60
  },
  {
    "clipIndex": 494,
    "trackId": "22",
    "clipName": null,
    "beat": 331,
    "relBeat": 29,
    "duration": 0.25,
    "velocity": 100,
    "pitch": 60
  },
  {
    "clipIndex": 495,
    "trackId": "22",
    "clipName": null,
    "beat": 331,
    "relBeat": 27,
    "duration": 0.25,
    "velocity": 100,
    "pitch": 60
  },
  {
    "clipIndex": 496,
    "trackId": "22",
    "clipName": null,
    "beat": 331,
    "relBeat": 19,
    "duration": 0.25,
    "velocity": 100,
    "pitch": 60
  },
  {
    "clipIndex": 497,
    "trackId": "22",
    "clipName": null,
    "beat": 331,
    "relBeat": 17,
    "duration": 0.25,
    "velocity": 100,
    "pitch": 60
  },
  {
    "clipIndex": 498,
    "trackId": "22",
    "clipName": null,
    "beat": 331,
    "relBeat": 15,
    "duration": 0.25,
    "velocity": 100,
    "pitch": 60
  },
  {
    "clipIndex": 499,
    "trackId": "22",
    "clipName": null,
    "beat": 331,
    "relBeat": 13,
    "duration": 0.25,
    "velocity": 100,
    "pitch": 60
  },
  {
    "clipIndex": 501,
    "trackId": "22",
    "clipName": null,
    "beat": 331,
    "relBeat": 9,
    "duration": 0.25,
    "velocity": 100,
    "pitch": 60
  },
  {
    "clipIndex": 503,
    "trackId": "22",
    "clipName": null,
    "beat": 331,
    "relBeat": 5,
    "duration": 0.25,
    "velocity": 100,
    "pitch": 60
  },
  {
    "clipIndex": 504,
    "trackId": "22",
    "clipName": null,
    "beat": 331,
    "relBeat": 3,
    "duration": 0.25,
    "velocity": 100,
    "pitch": 60
  },
  {
    "clipIndex": 505,
    "trackId": "22",
    "clipName": null,
    "beat": 331,
    "relBeat": 1,
    "duration": 0.25,
    "velocity": 100,
    "pitch": 60
  },
  {
    "clipIndex": 493,
    "trackId": "22",
    "clipName": null,
    "beat": 331.25,
    "relBeat": 31.25,
    "duration": 0.25,
    "velocity": 100,
    "pitch": 60
  },
  {
    "clipIndex": 494,
    "trackId": "22",
    "clipName": null,
    "beat": 331.25,
    "relBeat": 29.25,
    "duration": 0.25,
    "velocity": 100,
    "pitch": 60
  },
  {
    "clipIndex": 495,
    "trackId": "22",
    "clipName": null,
    "beat": 331.25,
    "relBeat": 27.25,
    "duration": 0.25,
    "velocity": 100,
    "pitch": 60
  },
  {
    "clipIndex": 496,
    "trackId": "22",
    "clipName": null,
    "beat": 331.25,
    "relBeat": 19.25,
    "duration": 0.25,
    "velocity": 100,
    "pitch": 60
  },
  {
    "clipIndex": 497,
    "trackId": "22",
    "clipName": null,
    "beat": 331.25,
    "relBeat": 17.25,
    "duration": 0.25,
    "velocity": 100,
    "pitch": 60
  },
  {
    "clipIndex": 498,
    "trackId": "22",
    "clipName": null,
    "beat": 331.25,
    "relBeat": 15.25,
    "duration": 0.25,
    "velocity": 100,
    "pitch": 60
  },
  {
    "clipIndex": 499,
    "trackId": "22",
    "clipName": null,
    "beat": 331.25,
    "relBeat": 13.25,
    "duration": 0.25,
    "velocity": 100,
    "pitch": 60
  },
  {
    "clipIndex": 501,
    "trackId": "22",
    "clipName": null,
    "beat": 331.25,
    "relBeat": 9.25,
    "duration": 0.25,
    "velocity": 100,
    "pitch": 60
  },
  {
    "clipIndex": 503,
    "trackId": "22",
    "clipName": null,
    "beat": 331.25,
    "relBeat": 5.25,
    "duration": 0.25,
    "velocity": 100,
    "pitch": 60
  },
  {
    "clipIndex": 504,
    "trackId": "22",
    "clipName": null,
    "beat": 331.25,
    "relBeat": 3.25,
    "duration": 0.25,
    "velocity": 100,
    "pitch": 60
  },
  {
    "clipIndex": 505,
    "trackId": "22",
    "clipName": null,
    "beat": 331.25,
    "relBeat": 1.25,
    "duration": 0.25,
    "velocity": 100,
    "pitch": 60
  },
  {
    "clipIndex": 493,
    "trackId": "22",
    "clipName": null,
    "beat": 331.5,
    "relBeat": 31.5,
    "duration": 0.25,
    "velocity": 100,
    "pitch": 60
  },
  {
    "clipIndex": 494,
    "trackId": "22",
    "clipName": null,
    "beat": 331.5,
    "relBeat": 29.5,
    "duration": 0.25,
    "velocity": 100,
    "pitch": 60
  },
  {
    "clipIndex": 495,
    "trackId": "22",
    "clipName": null,
    "beat": 331.5,
    "relBeat": 27.5,
    "duration": 0.25,
    "velocity": 100,
    "pitch": 60
  },
  {
    "clipIndex": 496,
    "trackId": "22",
    "clipName": null,
    "beat": 331.5,
    "relBeat": 19.5,
    "duration": 0.25,
    "velocity": 100,
    "pitch": 60
  },
  {
    "clipIndex": 497,
    "trackId": "22",
    "clipName": null,
    "beat": 331.5,
    "relBeat": 17.5,
    "duration": 0.25,
    "velocity": 100,
    "pitch": 60
  },
  {
    "clipIndex": 498,
    "trackId": "22",
    "clipName": null,
    "beat": 331.5,
    "relBeat": 15.5,
    "duration": 0.25,
    "velocity": 100,
    "pitch": 60
  },
  {
    "clipIndex": 499,
    "trackId": "22",
    "clipName": null,
    "beat": 331.5,
    "relBeat": 13.5,
    "duration": 0.25,
    "velocity": 100,
    "pitch": 60
  },
  {
    "clipIndex": 501,
    "trackId": "22",
    "clipName": null,
    "beat": 331.5,
    "relBeat": 9.5,
    "duration": 0.25,
    "velocity": 100,
    "pitch": 60
  },
  {
    "clipIndex": 503,
    "trackId": "22",
    "clipName": null,
    "beat": 331.5,
    "relBeat": 5.5,
    "duration": 0.25,
    "velocity": 100,
    "pitch": 60
  },
  {
    "clipIndex": 504,
    "trackId": "22",
    "clipName": null,
    "beat": 331.5,
    "relBeat": 3.5,
    "duration": 0.25,
    "velocity": 100,
    "pitch": 60
  },
  {
    "clipIndex": 505,
    "trackId": "22",
    "clipName": null,
    "beat": 331.5,
    "relBeat": 1.5,
    "duration": 0.25,
    "velocity": 100,
    "pitch": 60
  },
  {
    "clipIndex": 493,
    "trackId": "22",
    "clipName": null,
    "beat": 331.75,
    "relBeat": 31.75,
    "duration": 0.25,
    "velocity": 100,
    "pitch": 60
  },
  {
    "clipIndex": 494,
    "trackId": "22",
    "clipName": null,
    "beat": 331.75,
    "relBeat": 29.75,
    "duration": 0.25,
    "velocity": 100,
    "pitch": 60
  },
  {
    "clipIndex": 495,
    "trackId": "22",
    "clipName": null,
    "beat": 331.75,
    "relBeat": 27.75,
    "duration": 0.25,
    "velocity": 100,
    "pitch": 60
  },
  {
    "clipIndex": 496,
    "trackId": "22",
    "clipName": null,
    "beat": 331.75,
    "relBeat": 19.75,
    "duration": 0.25,
    "velocity": 100,
    "pitch": 60
  },
  {
    "clipIndex": 497,
    "trackId": "22",
    "clipName": null,
    "beat": 331.75,
    "relBeat": 17.75,
    "duration": 0.25,
    "velocity": 100,
    "pitch": 60
  },
  {
    "clipIndex": 498,
    "trackId": "22",
    "clipName": null,
    "beat": 331.75,
    "relBeat": 15.75,
    "duration": 0.25,
    "velocity": 100,
    "pitch": 60
  },
  {
    "clipIndex": 499,
    "trackId": "22",
    "clipName": null,
    "beat": 331.75,
    "relBeat": 13.75,
    "duration": 0.25,
    "velocity": 100,
    "pitch": 60
  },
  {
    "clipIndex": 501,
    "trackId": "22",
    "clipName": null,
    "beat": 331.75,
    "relBeat": 9.75,
    "duration": 0.25,
    "velocity": 100,
    "pitch": 60
  },
  {
    "clipIndex": 503,
    "trackId": "22",
    "clipName": null,
    "beat": 331.75,
    "relBeat": 5.75,
    "duration": 0.25,
    "velocity": 100,
    "pitch": 60
  },
  {
    "clipIndex": 504,
    "trackId": "22",
    "clipName": null,
    "beat": 331.75,
    "relBeat": 3.75,
    "duration": 0.25,
    "velocity": 100,
    "pitch": 60
  },
  {
    "clipIndex": 505,
    "trackId": "22",
    "clipName": null,
    "beat": 331.75,
    "relBeat": 1.75,
    "duration": 0.25,
    "velocity": 100,
    "pitch": 60
  },
  {
    "clipIndex": 494,
    "trackId": "22",
    "clipName": null,
    "beat": 332,
    "relBeat": 30,
    "duration": 0.25,
    "velocity": 100,
    "pitch": 60
  },
  {
    "clipIndex": 495,
    "trackId": "22",
    "clipName": null,
    "beat": 332,
    "relBeat": 28,
    "duration": 0.25,
    "velocity": 100,
    "pitch": 60
  },
  {
    "clipIndex": 496,
    "trackId": "22",
    "clipName": null,
    "beat": 332,
    "relBeat": 20,
    "duration": 0.25,
    "velocity": 100,
    "pitch": 60
  },
  {
    "clipIndex": 497,
    "trackId": "22",
    "clipName": null,
    "beat": 332,
    "relBeat": 18,
    "duration": 0.25,
    "velocity": 100,
    "pitch": 60
  },
  {
    "clipIndex": 498,
    "trackId": "22",
    "clipName": null,
    "beat": 332,
    "relBeat": 16,
    "duration": 0.25,
    "velocity": 100,
    "pitch": 60
  },
  {
    "clipIndex": 499,
    "trackId": "22",
    "clipName": null,
    "beat": 332,
    "relBeat": 14,
    "duration": 0.25,
    "velocity": 100,
    "pitch": 60
  },
  {
    "clipIndex": 500,
    "trackId": "22",
    "clipName": null,
    "beat": 332,
    "relBeat": 12,
    "duration": 0.25,
    "velocity": 100,
    "pitch": 60
  },
  {
    "clipIndex": 501,
    "trackId": "22",
    "clipName": null,
    "beat": 332,
    "relBeat": 10,
    "duration": 0.25,
    "velocity": 100,
    "pitch": 60
  },
  {
    "clipIndex": 504,
    "trackId": "22",
    "clipName": null,
    "beat": 332,
    "relBeat": 4,
    "duration": 0.25,
    "velocity": 100,
    "pitch": 60
  },
  {
    "clipIndex": 505,
    "trackId": "22",
    "clipName": null,
    "beat": 332,
    "relBeat": 2,
    "duration": 0.25,
    "velocity": 100,
    "pitch": 60
  },
  {
    "clipIndex": 506,
    "trackId": "22",
    "clipName": null,
    "beat": 332,
    "relBeat": 0,
    "duration": 0.25,
    "velocity": 100,
    "pitch": 60
  },
  {
    "clipIndex": 494,
    "trackId": "22",
    "clipName": null,
    "beat": 332.25,
    "relBeat": 30.25,
    "duration": 0.25,
    "velocity": 100,
    "pitch": 60
  },
  {
    "clipIndex": 495,
    "trackId": "22",
    "clipName": null,
    "beat": 332.25,
    "relBeat": 28.25,
    "duration": 0.25,
    "velocity": 100,
    "pitch": 60
  },
  {
    "clipIndex": 496,
    "trackId": "22",
    "clipName": null,
    "beat": 332.25,
    "relBeat": 20.25,
    "duration": 0.25,
    "velocity": 100,
    "pitch": 60
  },
  {
    "clipIndex": 497,
    "trackId": "22",
    "clipName": null,
    "beat": 332.25,
    "relBeat": 18.25,
    "duration": 0.25,
    "velocity": 100,
    "pitch": 60
  },
  {
    "clipIndex": 498,
    "trackId": "22",
    "clipName": null,
    "beat": 332.25,
    "relBeat": 16.25,
    "duration": 0.25,
    "velocity": 100,
    "pitch": 60
  },
  {
    "clipIndex": 499,
    "trackId": "22",
    "clipName": null,
    "beat": 332.25,
    "relBeat": 14.25,
    "duration": 0.25,
    "velocity": 100,
    "pitch": 60
  },
  {
    "clipIndex": 500,
    "trackId": "22",
    "clipName": null,
    "beat": 332.25,
    "relBeat": 12.25,
    "duration": 0.25,
    "velocity": 100,
    "pitch": 60
  },
  {
    "clipIndex": 504,
    "trackId": "22",
    "clipName": null,
    "beat": 332.25,
    "relBeat": 4.25,
    "duration": 0.25,
    "velocity": 100,
    "pitch": 60
  },
  {
    "clipIndex": 505,
    "trackId": "22",
    "clipName": null,
    "beat": 332.25,
    "relBeat": 2.25,
    "duration": 0.25,
    "velocity": 100,
    "pitch": 60
  },
  {
    "clipIndex": 506,
    "trackId": "22",
    "clipName": null,
    "beat": 332.25,
    "relBeat": 0.25,
    "duration": 0.25,
    "velocity": 100,
    "pitch": 60
  },
  {
    "clipIndex": 494,
    "trackId": "22",
    "clipName": null,
    "beat": 332.5,
    "relBeat": 30.5,
    "duration": 0.25,
    "velocity": 100,
    "pitch": 60
  },
  {
    "clipIndex": 496,
    "trackId": "22",
    "clipName": null,
    "beat": 332.5,
    "relBeat": 20.5,
    "duration": 0.25,
    "velocity": 100,
    "pitch": 60
  },
  {
    "clipIndex": 497,
    "trackId": "22",
    "clipName": null,
    "beat": 332.5,
    "relBeat": 18.5,
    "duration": 0.25,
    "velocity": 100,
    "pitch": 60
  },
  {
    "clipIndex": 498,
    "trackId": "22",
    "clipName": null,
    "beat": 332.5,
    "relBeat": 16.5,
    "duration": 0.25,
    "velocity": 100,
    "pitch": 60
  },
  {
    "clipIndex": 499,
    "trackId": "22",
    "clipName": null,
    "beat": 332.5,
    "relBeat": 14.5,
    "duration": 0.25,
    "velocity": 100,
    "pitch": 60
  },
  {
    "clipIndex": 500,
    "trackId": "22",
    "clipName": null,
    "beat": 332.5,
    "relBeat": 12.5,
    "duration": 0.25,
    "velocity": 100,
    "pitch": 60
  },
  {
    "clipIndex": 504,
    "trackId": "22",
    "clipName": null,
    "beat": 332.5,
    "relBeat": 4.5,
    "duration": 0.25,
    "velocity": 100,
    "pitch": 60
  },
  {
    "clipIndex": 505,
    "trackId": "22",
    "clipName": null,
    "beat": 332.5,
    "relBeat": 2.5,
    "duration": 0.25,
    "velocity": 100,
    "pitch": 60
  },
  {
    "clipIndex": 506,
    "trackId": "22",
    "clipName": null,
    "beat": 332.5,
    "relBeat": 0.5,
    "duration": 0.25,
    "velocity": 100,
    "pitch": 60
  },
  {
    "clipIndex": 0,
    "trackId": "89",
    "clipName": null,
    "beat": 332.75,
    "relBeat": 332.75,
    "duration": 0.25,
    "velocity": 100,
    "pitch": 60
  },
  {
    "clipIndex": 494,
    "trackId": "22",
    "clipName": null,
    "beat": 332.75,
    "relBeat": 30.75,
    "duration": 0.25,
    "velocity": 100,
    "pitch": 60
  },
  {
    "clipIndex": 496,
    "trackId": "22",
    "clipName": null,
    "beat": 332.75,
    "relBeat": 20.75,
    "duration": 0.25,
    "velocity": 100,
    "pitch": 60
  },
  {
    "clipIndex": 497,
    "trackId": "22",
    "clipName": null,
    "beat": 332.75,
    "relBeat": 18.75,
    "duration": 0.25,
    "velocity": 100,
    "pitch": 60
  },
  {
    "clipIndex": 498,
    "trackId": "22",
    "clipName": null,
    "beat": 332.75,
    "relBeat": 16.75,
    "duration": 0.25,
    "velocity": 100,
    "pitch": 60
  },
  {
    "clipIndex": 499,
    "trackId": "22",
    "clipName": null,
    "beat": 332.75,
    "relBeat": 14.75,
    "duration": 0.25,
    "velocity": 100,
    "pitch": 60
  },
  {
    "clipIndex": 500,
    "trackId": "22",
    "clipName": null,
    "beat": 332.75,
    "relBeat": 12.75,
    "duration": 0.25,
    "velocity": 100,
    "pitch": 60
  },
  {
    "clipIndex": 504,
    "trackId": "22",
    "clipName": null,
    "beat": 332.75,
    "relBeat": 4.75,
    "duration": 0.25,
    "velocity": 100,
    "pitch": 60
  },
  {
    "clipIndex": 505,
    "trackId": "22",
    "clipName": null,
    "beat": 332.75,
    "relBeat": 2.75,
    "duration": 0.25,
    "velocity": 100,
    "pitch": 60
  },
  {
    "clipIndex": 506,
    "trackId": "22",
    "clipName": null,
    "beat": 332.75,
    "relBeat": 0.75,
    "duration": 0.25,
    "velocity": 100,
    "pitch": 60
  },
  {
    "clipIndex": 494,
    "trackId": "22",
    "clipName": null,
    "beat": 333,
    "relBeat": 31,
    "duration": 0.25,
    "velocity": 100,
    "pitch": 60
  },
  {
    "clipIndex": 495,
    "trackId": "22",
    "clipName": null,
    "beat": 333,
    "relBeat": 29,
    "duration": 0.25,
    "velocity": 100,
    "pitch": 60
  },
  {
    "clipIndex": 496,
    "trackId": "22",
    "clipName": null,
    "beat": 333,
    "relBeat": 21,
    "duration": 0.25,
    "velocity": 100,
    "pitch": 60
  },
  {
    "clipIndex": 497,
    "trackId": "22",
    "clipName": null,
    "beat": 333,
    "relBeat": 19,
    "duration": 0.25,
    "velocity": 100,
    "pitch": 60
  },
  {
    "clipIndex": 498,
    "trackId": "22",
    "clipName": null,
    "beat": 333,
    "relBeat": 17,
    "duration": 0.25,
    "velocity": 100,
    "pitch": 60
  },
  {
    "clipIndex": 499,
    "trackId": "22",
    "clipName": null,
    "beat": 333,
    "relBeat": 15,
    "duration": 0.25,
    "velocity": 100,
    "pitch": 60
  },
  {
    "clipIndex": 500,
    "trackId": "22",
    "clipName": null,
    "beat": 333,
    "relBeat": 13,
    "duration": 0.25,
    "velocity": 100,
    "pitch": 60
  },
  {
    "clipIndex": 502,
    "trackId": "22",
    "clipName": null,
    "beat": 333,
    "relBeat": 9,
    "duration": 0.25,
    "velocity": 100,
    "pitch": 60
  },
  {
    "clipIndex": 504,
    "trackId": "22",
    "clipName": null,
    "beat": 333,
    "relBeat": 5,
    "duration": 0.25,
    "velocity": 100,
    "pitch": 60
  },
  {
    "clipIndex": 505,
    "trackId": "22",
    "clipName": null,
    "beat": 333,
    "relBeat": 3,
    "duration": 0.25,
    "velocity": 100,
    "pitch": 60
  },
  {
    "clipIndex": 506,
    "trackId": "22",
    "clipName": null,
    "beat": 333,
    "relBeat": 1,
    "duration": 0.25,
    "velocity": 100,
    "pitch": 60
  },
  {
    "clipIndex": 494,
    "trackId": "22",
    "clipName": null,
    "beat": 333.25,
    "relBeat": 31.25,
    "duration": 0.25,
    "velocity": 100,
    "pitch": 60
  },
  {
    "clipIndex": 495,
    "trackId": "22",
    "clipName": null,
    "beat": 333.25,
    "relBeat": 29.25,
    "duration": 0.25,
    "velocity": 100,
    "pitch": 60
  },
  {
    "clipIndex": 496,
    "trackId": "22",
    "clipName": null,
    "beat": 333.25,
    "relBeat": 21.25,
    "duration": 0.25,
    "velocity": 100,
    "pitch": 60
  },
  {
    "clipIndex": 497,
    "trackId": "22",
    "clipName": null,
    "beat": 333.25,
    "relBeat": 19.25,
    "duration": 0.25,
    "velocity": 100,
    "pitch": 60
  },
  {
    "clipIndex": 498,
    "trackId": "22",
    "clipName": null,
    "beat": 333.25,
    "relBeat": 17.25,
    "duration": 0.25,
    "velocity": 100,
    "pitch": 60
  },
  {
    "clipIndex": 499,
    "trackId": "22",
    "clipName": null,
    "beat": 333.25,
    "relBeat": 15.25,
    "duration": 0.25,
    "velocity": 100,
    "pitch": 60
  },
  {
    "clipIndex": 500,
    "trackId": "22",
    "clipName": null,
    "beat": 333.25,
    "relBeat": 13.25,
    "duration": 0.25,
    "velocity": 100,
    "pitch": 60
  },
  {
    "clipIndex": 502,
    "trackId": "22",
    "clipName": null,
    "beat": 333.25,
    "relBeat": 9.25,
    "duration": 0.25,
    "velocity": 100,
    "pitch": 60
  },
  {
    "clipIndex": 504,
    "trackId": "22",
    "clipName": null,
    "beat": 333.25,
    "relBeat": 5.25,
    "duration": 0.25,
    "velocity": 100,
    "pitch": 60
  },
  {
    "clipIndex": 505,
    "trackId": "22",
    "clipName": null,
    "beat": 333.25,
    "relBeat": 3.25,
    "duration": 0.25,
    "velocity": 100,
    "pitch": 60
  },
  {
    "clipIndex": 506,
    "trackId": "22",
    "clipName": null,
    "beat": 333.25,
    "relBeat": 1.25,
    "duration": 0.25,
    "velocity": 100,
    "pitch": 60
  },
  {
    "clipIndex": 0,
    "trackId": "89",
    "clipName": null,
    "beat": 333.5,
    "relBeat": 333.5,
    "duration": 0.25,
    "velocity": 100,
    "pitch": 60
  },
  {
    "clipIndex": 494,
    "trackId": "22",
    "clipName": null,
    "beat": 333.5,
    "relBeat": 31.5,
    "duration": 0.25,
    "velocity": 100,
    "pitch": 60
  },
  {
    "clipIndex": 495,
    "trackId": "22",
    "clipName": null,
    "beat": 333.5,
    "relBeat": 29.5,
    "duration": 0.25,
    "velocity": 100,
    "pitch": 60
  },
  {
    "clipIndex": 497,
    "trackId": "22",
    "clipName": null,
    "beat": 333.5,
    "relBeat": 19.5,
    "duration": 0.25,
    "velocity": 100,
    "pitch": 60
  },
  {
    "clipIndex": 498,
    "trackId": "22",
    "clipName": null,
    "beat": 333.5,
    "relBeat": 17.5,
    "duration": 0.25,
    "velocity": 100,
    "pitch": 60
  },
  {
    "clipIndex": 499,
    "trackId": "22",
    "clipName": null,
    "beat": 333.5,
    "relBeat": 15.5,
    "duration": 0.25,
    "velocity": 100,
    "pitch": 60
  },
  {
    "clipIndex": 500,
    "trackId": "22",
    "clipName": null,
    "beat": 333.5,
    "relBeat": 13.5,
    "duration": 0.25,
    "velocity": 100,
    "pitch": 60
  },
  {
    "clipIndex": 502,
    "trackId": "22",
    "clipName": null,
    "beat": 333.5,
    "relBeat": 9.5,
    "duration": 0.25,
    "velocity": 100,
    "pitch": 60
  },
  {
    "clipIndex": 504,
    "trackId": "22",
    "clipName": null,
    "beat": 333.5,
    "relBeat": 5.5,
    "duration": 0.25,
    "velocity": 100,
    "pitch": 60
  },
  {
    "clipIndex": 505,
    "trackId": "22",
    "clipName": null,
    "beat": 333.5,
    "relBeat": 3.5,
    "duration": 0.25,
    "velocity": 100,
    "pitch": 60
  },
  {
    "clipIndex": 506,
    "trackId": "22",
    "clipName": null,
    "beat": 333.5,
    "relBeat": 1.5,
    "duration": 0.25,
    "velocity": 100,
    "pitch": 60
  },
  {
    "clipIndex": 494,
    "trackId": "22",
    "clipName": null,
    "beat": 333.75,
    "relBeat": 31.75,
    "duration": 0.25,
    "velocity": 100,
    "pitch": 60
  },
  {
    "clipIndex": 495,
    "trackId": "22",
    "clipName": null,
    "beat": 333.75,
    "relBeat": 29.75,
    "duration": 0.25,
    "velocity": 100,
    "pitch": 60
  },
  {
    "clipIndex": 497,
    "trackId": "22",
    "clipName": null,
    "beat": 333.75,
    "relBeat": 19.75,
    "duration": 0.25,
    "velocity": 100,
    "pitch": 60
  },
  {
    "clipIndex": 498,
    "trackId": "22",
    "clipName": null,
    "beat": 333.75,
    "relBeat": 17.75,
    "duration": 0.25,
    "velocity": 100,
    "pitch": 60
  },
  {
    "clipIndex": 499,
    "trackId": "22",
    "clipName": null,
    "beat": 333.75,
    "relBeat": 15.75,
    "duration": 0.25,
    "velocity": 100,
    "pitch": 60
  },
  {
    "clipIndex": 500,
    "trackId": "22",
    "clipName": null,
    "beat": 333.75,
    "relBeat": 13.75,
    "duration": 0.25,
    "velocity": 100,
    "pitch": 60
  },
  {
    "clipIndex": 502,
    "trackId": "22",
    "clipName": null,
    "beat": 333.75,
    "relBeat": 9.75,
    "duration": 0.25,
    "velocity": 100,
    "pitch": 60
  },
  {
    "clipIndex": 504,
    "trackId": "22",
    "clipName": null,
    "beat": 333.75,
    "relBeat": 5.75,
    "duration": 0.25,
    "velocity": 100,
    "pitch": 60
  },
  {
    "clipIndex": 505,
    "trackId": "22",
    "clipName": null,
    "beat": 333.75,
    "relBeat": 3.75,
    "duration": 0.25,
    "velocity": 100,
    "pitch": 60
  },
  {
    "clipIndex": 506,
    "trackId": "22",
    "clipName": null,
    "beat": 333.75,
    "relBeat": 1.75,
    "duration": 0.25,
    "velocity": 100,
    "pitch": 60
  },
  {
    "clipIndex": 497,
    "trackId": "22",
    "clipName": null,
    "beat": 334,
    "relBeat": 20,
    "duration": 0.25,
    "velocity": 100,
    "pitch": 60
  },
  {
    "clipIndex": 498,
    "trackId": "22",
    "clipName": null,
    "beat": 334,
    "relBeat": 18,
    "duration": 0.25,
    "velocity": 100,
    "pitch": 60
  },
  {
    "clipIndex": 499,
    "trackId": "22",
    "clipName": null,
    "beat": 334,
    "relBeat": 16,
    "duration": 0.25,
    "velocity": 100,
    "pitch": 60
  },
  {
    "clipIndex": 500,
    "trackId": "22",
    "clipName": null,
    "beat": 334,
    "relBeat": 14,
    "duration": 0.25,
    "velocity": 100,
    "pitch": 60
  },
  {
    "clipIndex": 501,
    "trackId": "22",
    "clipName": null,
    "beat": 334,
    "relBeat": 12,
    "duration": 0.25,
    "velocity": 100,
    "pitch": 60
  },
  {
    "clipIndex": 502,
    "trackId": "22",
    "clipName": null,
    "beat": 334,
    "relBeat": 10,
    "duration": 0.25,
    "velocity": 100,
    "pitch": 60
  },
  {
    "clipIndex": 505,
    "trackId": "22",
    "clipName": null,
    "beat": 334,
    "relBeat": 4,
    "duration": 0.25,
    "velocity": 100,
    "pitch": 60
  },
  {
    "clipIndex": 506,
    "trackId": "22",
    "clipName": null,
    "beat": 334,
    "relBeat": 2,
    "duration": 0.25,
    "velocity": 100,
    "pitch": 60
  },
  {
    "clipIndex": 507,
    "trackId": "22",
    "clipName": null,
    "beat": 334,
    "relBeat": 0,
    "duration": 0.25,
    "velocity": 100,
    "pitch": 60
  },
  {
    "clipIndex": 0,
    "trackId": "89",
    "clipName": null,
    "beat": 334.25,
    "relBeat": 334.25,
    "duration": 0.25,
    "velocity": 100,
    "pitch": 60
  },
  {
    "clipIndex": 497,
    "trackId": "22",
    "clipName": null,
    "beat": 334.25,
    "relBeat": 20.25,
    "duration": 0.25,
    "velocity": 100,
    "pitch": 60
  },
  {
    "clipIndex": 498,
    "trackId": "22",
    "clipName": null,
    "beat": 334.25,
    "relBeat": 18.25,
    "duration": 0.25,
    "velocity": 100,
    "pitch": 60
  },
  {
    "clipIndex": 499,
    "trackId": "22",
    "clipName": null,
    "beat": 334.25,
    "relBeat": 16.25,
    "duration": 0.25,
    "velocity": 100,
    "pitch": 60
  },
  {
    "clipIndex": 500,
    "trackId": "22",
    "clipName": null,
    "beat": 334.25,
    "relBeat": 14.25,
    "duration": 0.25,
    "velocity": 100,
    "pitch": 60
  },
  {
    "clipIndex": 501,
    "trackId": "22",
    "clipName": null,
    "beat": 334.25,
    "relBeat": 12.25,
    "duration": 0.25,
    "velocity": 100,
    "pitch": 60
  },
  {
    "clipIndex": 505,
    "trackId": "22",
    "clipName": null,
    "beat": 334.25,
    "relBeat": 4.25,
    "duration": 0.25,
    "velocity": 100,
    "pitch": 60
  },
  {
    "clipIndex": 506,
    "trackId": "22",
    "clipName": null,
    "beat": 334.25,
    "relBeat": 2.25,
    "duration": 0.25,
    "velocity": 100,
    "pitch": 60
  },
  {
    "clipIndex": 507,
    "trackId": "22",
    "clipName": null,
    "beat": 334.25,
    "relBeat": 0.25,
    "duration": 0.25,
    "velocity": 100,
    "pitch": 60
  },
  {
    "clipIndex": 495,
    "trackId": "22",
    "clipName": null,
    "beat": 334.5,
    "relBeat": 30.5,
    "duration": 0.25,
    "velocity": 100,
    "pitch": 60
  },
  {
    "clipIndex": 497,
    "trackId": "22",
    "clipName": null,
    "beat": 334.5,
    "relBeat": 20.5,
    "duration": 0.25,
    "velocity": 100,
    "pitch": 60
  },
  {
    "clipIndex": 498,
    "trackId": "22",
    "clipName": null,
    "beat": 334.5,
    "relBeat": 18.5,
    "duration": 0.25,
    "velocity": 100,
    "pitch": 60
  },
  {
    "clipIndex": 499,
    "trackId": "22",
    "clipName": null,
    "beat": 334.5,
    "relBeat": 16.5,
    "duration": 0.25,
    "velocity": 100,
    "pitch": 60
  },
  {
    "clipIndex": 500,
    "trackId": "22",
    "clipName": null,
    "beat": 334.5,
    "relBeat": 14.5,
    "duration": 0.25,
    "velocity": 100,
    "pitch": 60
  },
  {
    "clipIndex": 501,
    "trackId": "22",
    "clipName": null,
    "beat": 334.5,
    "relBeat": 12.5,
    "duration": 0.25,
    "velocity": 100,
    "pitch": 60
  },
  {
    "clipIndex": 505,
    "trackId": "22",
    "clipName": null,
    "beat": 334.5,
    "relBeat": 4.5,
    "duration": 0.25,
    "velocity": 100,
    "pitch": 60
  },
  {
    "clipIndex": 506,
    "trackId": "22",
    "clipName": null,
    "beat": 334.5,
    "relBeat": 2.5,
    "duration": 0.25,
    "velocity": 100,
    "pitch": 60
  },
  {
    "clipIndex": 507,
    "trackId": "22",
    "clipName": null,
    "beat": 334.5,
    "relBeat": 0.5,
    "duration": 0.25,
    "velocity": 100,
    "pitch": 60
  },
  {
    "clipIndex": 495,
    "trackId": "22",
    "clipName": null,
    "beat": 334.75,
    "relBeat": 30.75,
    "duration": 0.25,
    "velocity": 100,
    "pitch": 60
  },
  {
    "clipIndex": 497,
    "trackId": "22",
    "clipName": null,
    "beat": 334.75,
    "relBeat": 20.75,
    "duration": 0.25,
    "velocity": 100,
    "pitch": 60
  },
  {
    "clipIndex": 498,
    "trackId": "22",
    "clipName": null,
    "beat": 334.75,
    "relBeat": 18.75,
    "duration": 0.25,
    "velocity": 100,
    "pitch": 60
  },
  {
    "clipIndex": 499,
    "trackId": "22",
    "clipName": null,
    "beat": 334.75,
    "relBeat": 16.75,
    "duration": 0.25,
    "velocity": 100,
    "pitch": 60
  },
  {
    "clipIndex": 500,
    "trackId": "22",
    "clipName": null,
    "beat": 334.75,
    "relBeat": 14.75,
    "duration": 0.25,
    "velocity": 100,
    "pitch": 60
  },
  {
    "clipIndex": 501,
    "trackId": "22",
    "clipName": null,
    "beat": 334.75,
    "relBeat": 12.75,
    "duration": 0.25,
    "velocity": 100,
    "pitch": 60
  },
  {
    "clipIndex": 505,
    "trackId": "22",
    "clipName": null,
    "beat": 334.75,
    "relBeat": 4.75,
    "duration": 0.25,
    "velocity": 100,
    "pitch": 60
  },
  {
    "clipIndex": 506,
    "trackId": "22",
    "clipName": null,
    "beat": 334.75,
    "relBeat": 2.75,
    "duration": 0.25,
    "velocity": 100,
    "pitch": 60
  },
  {
    "clipIndex": 507,
    "trackId": "22",
    "clipName": null,
    "beat": 334.75,
    "relBeat": 0.75,
    "duration": 0.25,
    "velocity": 100,
    "pitch": 60
  },
  {
    "clipIndex": 0,
    "trackId": "89",
    "clipName": null,
    "beat": 335,
    "relBeat": 335,
    "duration": 0.125,
    "velocity": 100,
    "pitch": 60
  },
  {
    "clipIndex": 495,
    "trackId": "22",
    "clipName": null,
    "beat": 335,
    "relBeat": 31,
    "duration": 0.25,
    "velocity": 100,
    "pitch": 60
  },
  {
    "clipIndex": 497,
    "trackId": "22",
    "clipName": null,
    "beat": 335,
    "relBeat": 21,
    "duration": 0.25,
    "velocity": 100,
    "pitch": 60
  },
  {
    "clipIndex": 498,
    "trackId": "22",
    "clipName": null,
    "beat": 335,
    "relBeat": 19,
    "duration": 0.25,
    "velocity": 100,
    "pitch": 60
  },
  {
    "clipIndex": 499,
    "trackId": "22",
    "clipName": null,
    "beat": 335,
    "relBeat": 17,
    "duration": 0.25,
    "velocity": 100,
    "pitch": 60
  },
  {
    "clipIndex": 500,
    "trackId": "22",
    "clipName": null,
    "beat": 335,
    "relBeat": 15,
    "duration": 0.25,
    "velocity": 100,
    "pitch": 60
  },
  {
    "clipIndex": 501,
    "trackId": "22",
    "clipName": null,
    "beat": 335,
    "relBeat": 13,
    "duration": 0.25,
    "velocity": 100,
    "pitch": 60
  },
  {
    "clipIndex": 503,
    "trackId": "22",
    "clipName": null,
    "beat": 335,
    "relBeat": 9,
    "duration": 0.25,
    "velocity": 100,
    "pitch": 60
  },
  {
    "clipIndex": 505,
    "trackId": "22",
    "clipName": null,
    "beat": 335,
    "relBeat": 5,
    "duration": 0.25,
    "velocity": 100,
    "pitch": 60
  },
  {
    "clipIndex": 506,
    "trackId": "22",
    "clipName": null,
    "beat": 335,
    "relBeat": 3,
    "duration": 0.25,
    "velocity": 100,
    "pitch": 60
  },
  {
    "clipIndex": 507,
    "trackId": "22",
    "clipName": null,
    "beat": 335,
    "relBeat": 1,
    "duration": 0.25,
    "velocity": 100,
    "pitch": 60
  },
  {
    "clipIndex": 0,
    "trackId": "89",
    "clipName": null,
    "beat": 335.125,
    "relBeat": 335.125,
    "duration": 0.125,
    "velocity": 100,
    "pitch": 60
  },
  {
    "clipIndex": 0,
    "trackId": "89",
    "clipName": null,
    "beat": 335.25,
    "relBeat": 335.25,
    "duration": 0.125,
    "velocity": 100,
    "pitch": 60
  },
  {
    "clipIndex": 495,
    "trackId": "22",
    "clipName": null,
    "beat": 335.25,
    "relBeat": 31.25,
    "duration": 0.25,
    "velocity": 100,
    "pitch": 60
  },
  {
    "clipIndex": 497,
    "trackId": "22",
    "clipName": null,
    "beat": 335.25,
    "relBeat": 21.25,
    "duration": 0.25,
    "velocity": 100,
    "pitch": 60
  },
  {
    "clipIndex": 498,
    "trackId": "22",
    "clipName": null,
    "beat": 335.25,
    "relBeat": 19.25,
    "duration": 0.25,
    "velocity": 100,
    "pitch": 60
  },
  {
    "clipIndex": 499,
    "trackId": "22",
    "clipName": null,
    "beat": 335.25,
    "relBeat": 17.25,
    "duration": 0.25,
    "velocity": 100,
    "pitch": 60
  },
  {
    "clipIndex": 500,
    "trackId": "22",
    "clipName": null,
    "beat": 335.25,
    "relBeat": 15.25,
    "duration": 0.25,
    "velocity": 100,
    "pitch": 60
  },
  {
    "clipIndex": 501,
    "trackId": "22",
    "clipName": null,
    "beat": 335.25,
    "relBeat": 13.25,
    "duration": 0.25,
    "velocity": 100,
    "pitch": 60
  },
  {
    "clipIndex": 503,
    "trackId": "22",
    "clipName": null,
    "beat": 335.25,
    "relBeat": 9.25,
    "duration": 0.25,
    "velocity": 100,
    "pitch": 60
  },
  {
    "clipIndex": 505,
    "trackId": "22",
    "clipName": null,
    "beat": 335.25,
    "relBeat": 5.25,
    "duration": 0.25,
    "velocity": 100,
    "pitch": 60
  },
  {
    "clipIndex": 506,
    "trackId": "22",
    "clipName": null,
    "beat": 335.25,
    "relBeat": 3.25,
    "duration": 0.25,
    "velocity": 100,
    "pitch": 60
  },
  {
    "clipIndex": 507,
    "trackId": "22",
    "clipName": null,
    "beat": 335.25,
    "relBeat": 1.25,
    "duration": 0.25,
    "velocity": 100,
    "pitch": 60
  },
  {
    "clipIndex": 0,
    "trackId": "89",
    "clipName": null,
    "beat": 335.375,
    "relBeat": 335.375,
    "duration": 0.125,
    "velocity": 100,
    "pitch": 60
  },
  {
    "clipIndex": 0,
    "trackId": "89",
    "clipName": null,
    "beat": 335.5,
    "relBeat": 335.5,
    "duration": 0.25,
    "velocity": 100,
    "pitch": 60
  },
  {
    "clipIndex": 495,
    "trackId": "22",
    "clipName": null,
    "beat": 335.5,
    "relBeat": 31.5,
    "duration": 0.25,
    "velocity": 100,
    "pitch": 60
  },
  {
    "clipIndex": 498,
    "trackId": "22",
    "clipName": null,
    "beat": 335.5,
    "relBeat": 19.5,
    "duration": 0.25,
    "velocity": 100,
    "pitch": 60
  },
  {
    "clipIndex": 499,
    "trackId": "22",
    "clipName": null,
    "beat": 335.5,
    "relBeat": 17.5,
    "duration": 0.25,
    "velocity": 100,
    "pitch": 60
  },
  {
    "clipIndex": 500,
    "trackId": "22",
    "clipName": null,
    "beat": 335.5,
    "relBeat": 15.5,
    "duration": 0.25,
    "velocity": 100,
    "pitch": 60
  },
  {
    "clipIndex": 501,
    "trackId": "22",
    "clipName": null,
    "beat": 335.5,
    "relBeat": 13.5,
    "duration": 0.25,
    "velocity": 100,
    "pitch": 60
  },
  {
    "clipIndex": 503,
    "trackId": "22",
    "clipName": null,
    "beat": 335.5,
    "relBeat": 9.5,
    "duration": 0.25,
    "velocity": 100,
    "pitch": 60
  },
  {
    "clipIndex": 505,
    "trackId": "22",
    "clipName": null,
    "beat": 335.5,
    "relBeat": 5.5,
    "duration": 0.25,
    "velocity": 100,
    "pitch": 60
  },
  {
    "clipIndex": 506,
    "trackId": "22",
    "clipName": null,
    "beat": 335.5,
    "relBeat": 3.5,
    "duration": 0.25,
    "velocity": 100,
    "pitch": 60
  },
  {
    "clipIndex": 507,
    "trackId": "22",
    "clipName": null,
    "beat": 335.5,
    "relBeat": 1.5,
    "duration": 0.25,
    "velocity": 100,
    "pitch": 60
  },
  {
    "clipIndex": 495,
    "trackId": "22",
    "clipName": null,
    "beat": 335.75,
    "relBeat": 31.75,
    "duration": 0.25,
    "velocity": 100,
    "pitch": 60
  },
  {
    "clipIndex": 498,
    "trackId": "22",
    "clipName": null,
    "beat": 335.75,
    "relBeat": 19.75,
    "duration": 0.25,
    "velocity": 100,
    "pitch": 60
  },
  {
    "clipIndex": 499,
    "trackId": "22",
    "clipName": null,
    "beat": 335.75,
    "relBeat": 17.75,
    "duration": 0.25,
    "velocity": 100,
    "pitch": 60
  },
  {
    "clipIndex": 500,
    "trackId": "22",
    "clipName": null,
    "beat": 335.75,
    "relBeat": 15.75,
    "duration": 0.25,
    "velocity": 100,
    "pitch": 60
  },
  {
    "clipIndex": 501,
    "trackId": "22",
    "clipName": null,
    "beat": 335.75,
    "relBeat": 13.75,
    "duration": 0.25,
    "velocity": 100,
    "pitch": 60
  },
  {
    "clipIndex": 503,
    "trackId": "22",
    "clipName": null,
    "beat": 335.75,
    "relBeat": 9.75,
    "duration": 0.25,
    "velocity": 100,
    "pitch": 60
  },
  {
    "clipIndex": 505,
    "trackId": "22",
    "clipName": null,
    "beat": 335.75,
    "relBeat": 5.75,
    "duration": 0.25,
    "velocity": 100,
    "pitch": 60
  },
  {
    "clipIndex": 506,
    "trackId": "22",
    "clipName": null,
    "beat": 335.75,
    "relBeat": 3.75,
    "duration": 0.25,
    "velocity": 100,
    "pitch": 60
  },
  {
    "clipIndex": 507,
    "trackId": "22",
    "clipName": null,
    "beat": 335.75,
    "relBeat": 1.75,
    "duration": 0.25,
    "velocity": 100,
    "pitch": 60
  },
  {
    "clipIndex": 495,
    "trackId": "22",
    "clipName": null,
    "beat": 336,
    "relBeat": 32,
    "duration": 0.25,
    "velocity": 100,
    "pitch": 60
  },
  {
    "clipIndex": 496,
    "trackId": "22",
    "clipName": null,
    "beat": 336,
    "relBeat": 24,
    "duration": 0.25,
    "velocity": 100,
    "pitch": 60
  },
  {
    "clipIndex": 498,
    "trackId": "22",
    "clipName": null,
    "beat": 336,
    "relBeat": 20,
    "duration": 0.25,
    "velocity": 100,
    "pitch": 60
  },
  {
    "clipIndex": 499,
    "trackId": "22",
    "clipName": null,
    "beat": 336,
    "relBeat": 18,
    "duration": 0.25,
    "velocity": 100,
    "pitch": 60
  },
  {
    "clipIndex": 500,
    "trackId": "22",
    "clipName": null,
    "beat": 336,
    "relBeat": 16,
    "duration": 0.25,
    "velocity": 100,
    "pitch": 60
  },
  {
    "clipIndex": 501,
    "trackId": "22",
    "clipName": null,
    "beat": 336,
    "relBeat": 14,
    "duration": 0.25,
    "velocity": 100,
    "pitch": 60
  },
  {
    "clipIndex": 502,
    "trackId": "22",
    "clipName": null,
    "beat": 336,
    "relBeat": 12,
    "duration": 0.25,
    "velocity": 100,
    "pitch": 60
  },
  {
    "clipIndex": 503,
    "trackId": "22",
    "clipName": null,
    "beat": 336,
    "relBeat": 10,
    "duration": 0.25,
    "velocity": 100,
    "pitch": 60
  },
  {
    "clipIndex": 506,
    "trackId": "22",
    "clipName": null,
    "beat": 336,
    "relBeat": 4,
    "duration": 0.25,
    "velocity": 100,
    "pitch": 60
  },
  {
    "clipIndex": 507,
    "trackId": "22",
    "clipName": null,
    "beat": 336,
    "relBeat": 2,
    "duration": 0.25,
    "velocity": 100,
    "pitch": 60
  },
  {
    "clipIndex": 508,
    "trackId": "22",
    "clipName": null,
    "beat": 336,
    "relBeat": 0,
    "duration": 0.25,
    "velocity": 100,
    "pitch": 60
  },
  {
    "clipIndex": 495,
    "trackId": "22",
    "clipName": null,
    "beat": 336.25,
    "relBeat": 32.25,
    "duration": 0.25,
    "velocity": 100,
    "pitch": 60
  },
  {
    "clipIndex": 496,
    "trackId": "22",
    "clipName": null,
    "beat": 336.25,
    "relBeat": 24.25,
    "duration": 0.25,
    "velocity": 100,
    "pitch": 60
  },
  {
    "clipIndex": 498,
    "trackId": "22",
    "clipName": null,
    "beat": 336.25,
    "relBeat": 20.25,
    "duration": 0.25,
    "velocity": 100,
    "pitch": 60
  },
  {
    "clipIndex": 499,
    "trackId": "22",
    "clipName": null,
    "beat": 336.25,
    "relBeat": 18.25,
    "duration": 0.25,
    "velocity": 100,
    "pitch": 60
  },
  {
    "clipIndex": 500,
    "trackId": "22",
    "clipName": null,
    "beat": 336.25,
    "relBeat": 16.25,
    "duration": 0.25,
    "velocity": 100,
    "pitch": 60
  },
  {
    "clipIndex": 501,
    "trackId": "22",
    "clipName": null,
    "beat": 336.25,
    "relBeat": 14.25,
    "duration": 0.25,
    "velocity": 100,
    "pitch": 60
  },
  {
    "clipIndex": 502,
    "trackId": "22",
    "clipName": null,
    "beat": 336.25,
    "relBeat": 12.25,
    "duration": 0.25,
    "velocity": 100,
    "pitch": 60
  },
  {
    "clipIndex": 506,
    "trackId": "22",
    "clipName": null,
    "beat": 336.25,
    "relBeat": 4.25,
    "duration": 0.25,
    "velocity": 100,
    "pitch": 60
  },
  {
    "clipIndex": 507,
    "trackId": "22",
    "clipName": null,
    "beat": 336.25,
    "relBeat": 2.25,
    "duration": 0.25,
    "velocity": 100,
    "pitch": 60
  },
  {
    "clipIndex": 508,
    "trackId": "22",
    "clipName": null,
    "beat": 336.25,
    "relBeat": 0.25,
    "duration": 0.25,
    "velocity": 100,
    "pitch": 60
  },
  {
    "clipIndex": 496,
    "trackId": "22",
    "clipName": null,
    "beat": 336.5,
    "relBeat": 24.5,
    "duration": 0.25,
    "velocity": 100,
    "pitch": 60
  },
  {
    "clipIndex": 498,
    "trackId": "22",
    "clipName": null,
    "beat": 336.5,
    "relBeat": 20.5,
    "duration": 0.25,
    "velocity": 100,
    "pitch": 60
  },
  {
    "clipIndex": 499,
    "trackId": "22",
    "clipName": null,
    "beat": 336.5,
    "relBeat": 18.5,
    "duration": 0.25,
    "velocity": 100,
    "pitch": 60
  },
  {
    "clipIndex": 500,
    "trackId": "22",
    "clipName": null,
    "beat": 336.5,
    "relBeat": 16.5,
    "duration": 0.25,
    "velocity": 100,
    "pitch": 60
  },
  {
    "clipIndex": 501,
    "trackId": "22",
    "clipName": null,
    "beat": 336.5,
    "relBeat": 14.5,
    "duration": 0.25,
    "velocity": 100,
    "pitch": 60
  },
  {
    "clipIndex": 502,
    "trackId": "22",
    "clipName": null,
    "beat": 336.5,
    "relBeat": 12.5,
    "duration": 0.25,
    "velocity": 100,
    "pitch": 60
  },
  {
    "clipIndex": 506,
    "trackId": "22",
    "clipName": null,
    "beat": 336.5,
    "relBeat": 4.5,
    "duration": 0.25,
    "velocity": 100,
    "pitch": 60
  },
  {
    "clipIndex": 507,
    "trackId": "22",
    "clipName": null,
    "beat": 336.5,
    "relBeat": 2.5,
    "duration": 0.25,
    "velocity": 100,
    "pitch": 60
  },
  {
    "clipIndex": 508,
    "trackId": "22",
    "clipName": null,
    "beat": 336.5,
    "relBeat": 0.5,
    "duration": 0.25,
    "velocity": 100,
    "pitch": 60
  },
  {
    "clipIndex": 496,
    "trackId": "22",
    "clipName": null,
    "beat": 336.75,
    "relBeat": 24.75,
    "duration": 0.25,
    "velocity": 100,
    "pitch": 60
  },
  {
    "clipIndex": 498,
    "trackId": "22",
    "clipName": null,
    "beat": 336.75,
    "relBeat": 20.75,
    "duration": 0.25,
    "velocity": 100,
    "pitch": 60
  },
  {
    "clipIndex": 499,
    "trackId": "22",
    "clipName": null,
    "beat": 336.75,
    "relBeat": 18.75,
    "duration": 0.25,
    "velocity": 100,
    "pitch": 60
  },
  {
    "clipIndex": 500,
    "trackId": "22",
    "clipName": null,
    "beat": 336.75,
    "relBeat": 16.75,
    "duration": 0.25,
    "velocity": 100,
    "pitch": 60
  },
  {
    "clipIndex": 501,
    "trackId": "22",
    "clipName": null,
    "beat": 336.75,
    "relBeat": 14.75,
    "duration": 0.25,
    "velocity": 100,
    "pitch": 60
  },
  {
    "clipIndex": 502,
    "trackId": "22",
    "clipName": null,
    "beat": 336.75,
    "relBeat": 12.75,
    "duration": 0.25,
    "velocity": 100,
    "pitch": 60
  },
  {
    "clipIndex": 506,
    "trackId": "22",
    "clipName": null,
    "beat": 336.75,
    "relBeat": 4.75,
    "duration": 0.25,
    "velocity": 100,
    "pitch": 60
  },
  {
    "clipIndex": 507,
    "trackId": "22",
    "clipName": null,
    "beat": 336.75,
    "relBeat": 2.75,
    "duration": 0.25,
    "velocity": 100,
    "pitch": 60
  },
  {
    "clipIndex": 508,
    "trackId": "22",
    "clipName": null,
    "beat": 336.75,
    "relBeat": 0.75,
    "duration": 0.25,
    "velocity": 100,
    "pitch": 60
  },
  {
    "clipIndex": 495,
    "trackId": "22",
    "clipName": null,
    "beat": 337,
    "relBeat": 33,
    "duration": 0.25,
    "velocity": 100,
    "pitch": 60
  },
  {
    "clipIndex": 496,
    "trackId": "22",
    "clipName": null,
    "beat": 337,
    "relBeat": 25,
    "duration": 0.25,
    "velocity": 100,
    "pitch": 60
  },
  {
    "clipIndex": 498,
    "trackId": "22",
    "clipName": null,
    "beat": 337,
    "relBeat": 21,
    "duration": 0.25,
    "velocity": 100,
    "pitch": 60
  },
  {
    "clipIndex": 499,
    "trackId": "22",
    "clipName": null,
    "beat": 337,
    "relBeat": 19,
    "duration": 0.25,
    "velocity": 100,
    "pitch": 60
  },
  {
    "clipIndex": 500,
    "trackId": "22",
    "clipName": null,
    "beat": 337,
    "relBeat": 17,
    "duration": 0.25,
    "velocity": 100,
    "pitch": 60
  },
  {
    "clipIndex": 501,
    "trackId": "22",
    "clipName": null,
    "beat": 337,
    "relBeat": 15,
    "duration": 0.25,
    "velocity": 100,
    "pitch": 60
  },
  {
    "clipIndex": 502,
    "trackId": "22",
    "clipName": null,
    "beat": 337,
    "relBeat": 13,
    "duration": 0.25,
    "velocity": 100,
    "pitch": 60
  },
  {
    "clipIndex": 504,
    "trackId": "22",
    "clipName": null,
    "beat": 337,
    "relBeat": 9,
    "duration": 0.25,
    "velocity": 100,
    "pitch": 60
  },
  {
    "clipIndex": 506,
    "trackId": "22",
    "clipName": null,
    "beat": 337,
    "relBeat": 5,
    "duration": 0.25,
    "velocity": 100,
    "pitch": 60
  },
  {
    "clipIndex": 507,
    "trackId": "22",
    "clipName": null,
    "beat": 337,
    "relBeat": 3,
    "duration": 0.25,
    "velocity": 100,
    "pitch": 60
  },
  {
    "clipIndex": 508,
    "trackId": "22",
    "clipName": null,
    "beat": 337,
    "relBeat": 1,
    "duration": 0.25,
    "velocity": 100,
    "pitch": 60
  },
  {
    "clipIndex": 495,
    "trackId": "22",
    "clipName": null,
    "beat": 337.25,
    "relBeat": 33.25,
    "duration": 0.25,
    "velocity": 100,
    "pitch": 60
  },
  {
    "clipIndex": 496,
    "trackId": "22",
    "clipName": null,
    "beat": 337.25,
    "relBeat": 25.25,
    "duration": 0.25,
    "velocity": 100,
    "pitch": 60
  },
  {
    "clipIndex": 498,
    "trackId": "22",
    "clipName": null,
    "beat": 337.25,
    "relBeat": 21.25,
    "duration": 0.25,
    "velocity": 100,
    "pitch": 60
  },
  {
    "clipIndex": 499,
    "trackId": "22",
    "clipName": null,
    "beat": 337.25,
    "relBeat": 19.25,
    "duration": 0.25,
    "velocity": 100,
    "pitch": 60
  },
  {
    "clipIndex": 500,
    "trackId": "22",
    "clipName": null,
    "beat": 337.25,
    "relBeat": 17.25,
    "duration": 0.25,
    "velocity": 100,
    "pitch": 60
  },
  {
    "clipIndex": 501,
    "trackId": "22",
    "clipName": null,
    "beat": 337.25,
    "relBeat": 15.25,
    "duration": 0.25,
    "velocity": 100,
    "pitch": 60
  },
  {
    "clipIndex": 502,
    "trackId": "22",
    "clipName": null,
    "beat": 337.25,
    "relBeat": 13.25,
    "duration": 0.25,
    "velocity": 100,
    "pitch": 60
  },
  {
    "clipIndex": 504,
    "trackId": "22",
    "clipName": null,
    "beat": 337.25,
    "relBeat": 9.25,
    "duration": 0.25,
    "velocity": 100,
    "pitch": 60
  },
  {
    "clipIndex": 506,
    "trackId": "22",
    "clipName": null,
    "beat": 337.25,
    "relBeat": 5.25,
    "duration": 0.25,
    "velocity": 100,
    "pitch": 60
  },
  {
    "clipIndex": 507,
    "trackId": "22",
    "clipName": null,
    "beat": 337.25,
    "relBeat": 3.25,
    "duration": 0.25,
    "velocity": 100,
    "pitch": 60
  },
  {
    "clipIndex": 508,
    "trackId": "22",
    "clipName": null,
    "beat": 337.25,
    "relBeat": 1.25,
    "duration": 0.25,
    "velocity": 100,
    "pitch": 60
  },
  {
    "clipIndex": 0,
    "trackId": "89",
    "clipName": null,
    "beat": 337.5,
    "relBeat": 337.5,
    "duration": 0.25,
    "velocity": 100,
    "pitch": 60
  },
  {
    "clipIndex": 495,
    "trackId": "22",
    "clipName": null,
    "beat": 337.5,
    "relBeat": 33.5,
    "duration": 0.25,
    "velocity": 100,
    "pitch": 60
  },
  {
    "clipIndex": 496,
    "trackId": "22",
    "clipName": null,
    "beat": 337.5,
    "relBeat": 25.5,
    "duration": 0.25,
    "velocity": 100,
    "pitch": 60
  },
  {
    "clipIndex": 499,
    "trackId": "22",
    "clipName": null,
    "beat": 337.5,
    "relBeat": 19.5,
    "duration": 0.25,
    "velocity": 100,
    "pitch": 60
  },
  {
    "clipIndex": 500,
    "trackId": "22",
    "clipName": null,
    "beat": 337.5,
    "relBeat": 17.5,
    "duration": 0.25,
    "velocity": 100,
    "pitch": 60
  },
  {
    "clipIndex": 501,
    "trackId": "22",
    "clipName": null,
    "beat": 337.5,
    "relBeat": 15.5,
    "duration": 0.25,
    "velocity": 100,
    "pitch": 60
  },
  {
    "clipIndex": 502,
    "trackId": "22",
    "clipName": null,
    "beat": 337.5,
    "relBeat": 13.5,
    "duration": 0.25,
    "velocity": 100,
    "pitch": 60
  },
  {
    "clipIndex": 504,
    "trackId": "22",
    "clipName": null,
    "beat": 337.5,
    "relBeat": 9.5,
    "duration": 0.25,
    "velocity": 100,
    "pitch": 60
  },
  {
    "clipIndex": 506,
    "trackId": "22",
    "clipName": null,
    "beat": 337.5,
    "relBeat": 5.5,
    "duration": 0.25,
    "velocity": 100,
    "pitch": 60
  },
  {
    "clipIndex": 507,
    "trackId": "22",
    "clipName": null,
    "beat": 337.5,
    "relBeat": 3.5,
    "duration": 0.25,
    "velocity": 100,
    "pitch": 60
  },
  {
    "clipIndex": 508,
    "trackId": "22",
    "clipName": null,
    "beat": 337.5,
    "relBeat": 1.5,
    "duration": 0.25,
    "velocity": 100,
    "pitch": 60
  },
  {
    "clipIndex": 495,
    "trackId": "22",
    "clipName": null,
    "beat": 337.75,
    "relBeat": 33.75,
    "duration": 0.25,
    "velocity": 100,
    "pitch": 60
  },
  {
    "clipIndex": 496,
    "trackId": "22",
    "clipName": null,
    "beat": 337.75,
    "relBeat": 25.75,
    "duration": 0.25,
    "velocity": 100,
    "pitch": 60
  },
  {
    "clipIndex": 499,
    "trackId": "22",
    "clipName": null,
    "beat": 337.75,
    "relBeat": 19.75,
    "duration": 0.25,
    "velocity": 100,
    "pitch": 60
  },
  {
    "clipIndex": 500,
    "trackId": "22",
    "clipName": null,
    "beat": 337.75,
    "relBeat": 17.75,
    "duration": 0.25,
    "velocity": 100,
    "pitch": 60
  },
  {
    "clipIndex": 501,
    "trackId": "22",
    "clipName": null,
    "beat": 337.75,
    "relBeat": 15.75,
    "duration": 0.25,
    "velocity": 100,
    "pitch": 60
  },
  {
    "clipIndex": 502,
    "trackId": "22",
    "clipName": null,
    "beat": 337.75,
    "relBeat": 13.75,
    "duration": 0.25,
    "velocity": 100,
    "pitch": 60
  },
  {
    "clipIndex": 504,
    "trackId": "22",
    "clipName": null,
    "beat": 337.75,
    "relBeat": 9.75,
    "duration": 0.25,
    "velocity": 100,
    "pitch": 60
  },
  {
    "clipIndex": 506,
    "trackId": "22",
    "clipName": null,
    "beat": 337.75,
    "relBeat": 5.75,
    "duration": 0.25,
    "velocity": 100,
    "pitch": 60
  },
  {
    "clipIndex": 507,
    "trackId": "22",
    "clipName": null,
    "beat": 337.75,
    "relBeat": 3.75,
    "duration": 0.25,
    "velocity": 100,
    "pitch": 60
  },
  {
    "clipIndex": 508,
    "trackId": "22",
    "clipName": null,
    "beat": 337.75,
    "relBeat": 1.75,
    "duration": 0.25,
    "velocity": 100,
    "pitch": 60
  },
  {
    "clipIndex": 496,
    "trackId": "22",
    "clipName": null,
    "beat": 338,
    "relBeat": 26,
    "duration": 0.25,
    "velocity": 100,
    "pitch": 60
  },
  {
    "clipIndex": 497,
    "trackId": "22",
    "clipName": null,
    "beat": 338,
    "relBeat": 24,
    "duration": 0.25,
    "velocity": 100,
    "pitch": 60
  },
  {
    "clipIndex": 499,
    "trackId": "22",
    "clipName": null,
    "beat": 338,
    "relBeat": 20,
    "duration": 0.25,
    "velocity": 100,
    "pitch": 60
  },
  {
    "clipIndex": 500,
    "trackId": "22",
    "clipName": null,
    "beat": 338,
    "relBeat": 18,
    "duration": 0.25,
    "velocity": 100,
    "pitch": 60
  },
  {
    "clipIndex": 501,
    "trackId": "22",
    "clipName": null,
    "beat": 338,
    "relBeat": 16,
    "duration": 0.25,
    "velocity": 100,
    "pitch": 60
  },
  {
    "clipIndex": 502,
    "trackId": "22",
    "clipName": null,
    "beat": 338,
    "relBeat": 14,
    "duration": 0.25,
    "velocity": 100,
    "pitch": 60
  },
  {
    "clipIndex": 503,
    "trackId": "22",
    "clipName": null,
    "beat": 338,
    "relBeat": 12,
    "duration": 0.25,
    "velocity": 100,
    "pitch": 60
  },
  {
    "clipIndex": 504,
    "trackId": "22",
    "clipName": null,
    "beat": 338,
    "relBeat": 10,
    "duration": 0.25,
    "velocity": 100,
    "pitch": 60
  },
  {
    "clipIndex": 507,
    "trackId": "22",
    "clipName": null,
    "beat": 338,
    "relBeat": 4,
    "duration": 0.25,
    "velocity": 100,
    "pitch": 60
  },
  {
    "clipIndex": 508,
    "trackId": "22",
    "clipName": null,
    "beat": 338,
    "relBeat": 2,
    "duration": 0.25,
    "velocity": 100,
    "pitch": 60
  },
  {
    "clipIndex": 509,
    "trackId": "22",
    "clipName": null,
    "beat": 338,
    "relBeat": 0,
    "duration": 0.25,
    "velocity": 100,
    "pitch": 60
  },
  {
    "clipIndex": 496,
    "trackId": "22",
    "clipName": null,
    "beat": 338.25,
    "relBeat": 26.25,
    "duration": 0.25,
    "velocity": 100,
    "pitch": 60
  },
  {
    "clipIndex": 497,
    "trackId": "22",
    "clipName": null,
    "beat": 338.25,
    "relBeat": 24.25,
    "duration": 0.25,
    "velocity": 100,
    "pitch": 60
  },
  {
    "clipIndex": 499,
    "trackId": "22",
    "clipName": null,
    "beat": 338.25,
    "relBeat": 20.25,
    "duration": 0.25,
    "velocity": 100,
    "pitch": 60
  },
  {
    "clipIndex": 500,
    "trackId": "22",
    "clipName": null,
    "beat": 338.25,
    "relBeat": 18.25,
    "duration": 0.25,
    "velocity": 100,
    "pitch": 60
  },
  {
    "clipIndex": 501,
    "trackId": "22",
    "clipName": null,
    "beat": 338.25,
    "relBeat": 16.25,
    "duration": 0.25,
    "velocity": 100,
    "pitch": 60
  },
  {
    "clipIndex": 502,
    "trackId": "22",
    "clipName": null,
    "beat": 338.25,
    "relBeat": 14.25,
    "duration": 0.25,
    "velocity": 100,
    "pitch": 60
  },
  {
    "clipIndex": 503,
    "trackId": "22",
    "clipName": null,
    "beat": 338.25,
    "relBeat": 12.25,
    "duration": 0.25,
    "velocity": 100,
    "pitch": 60
  },
  {
    "clipIndex": 507,
    "trackId": "22",
    "clipName": null,
    "beat": 338.25,
    "relBeat": 4.25,
    "duration": 0.25,
    "velocity": 100,
    "pitch": 60
  },
  {
    "clipIndex": 508,
    "trackId": "22",
    "clipName": null,
    "beat": 338.25,
    "relBeat": 2.25,
    "duration": 0.25,
    "velocity": 100,
    "pitch": 60
  },
  {
    "clipIndex": 509,
    "trackId": "22",
    "clipName": null,
    "beat": 338.25,
    "relBeat": 0.25,
    "duration": 0.25,
    "velocity": 100,
    "pitch": 60
  },
  {
    "clipIndex": 495,
    "trackId": "22",
    "clipName": null,
    "beat": 338.5,
    "relBeat": 34.5,
    "duration": 0.25,
    "velocity": 100,
    "pitch": 60
  },
  {
    "clipIndex": 496,
    "trackId": "22",
    "clipName": null,
    "beat": 338.5,
    "relBeat": 26.5,
    "duration": 0.25,
    "velocity": 100,
    "pitch": 60
  },
  {
    "clipIndex": 497,
    "trackId": "22",
    "clipName": null,
    "beat": 338.5,
    "relBeat": 24.5,
    "duration": 0.25,
    "velocity": 100,
    "pitch": 60
  },
  {
    "clipIndex": 499,
    "trackId": "22",
    "clipName": null,
    "beat": 338.5,
    "relBeat": 20.5,
    "duration": 0.25,
    "velocity": 100,
    "pitch": 60
  },
  {
    "clipIndex": 500,
    "trackId": "22",
    "clipName": null,
    "beat": 338.5,
    "relBeat": 18.5,
    "duration": 0.25,
    "velocity": 100,
    "pitch": 60
  },
  {
    "clipIndex": 501,
    "trackId": "22",
    "clipName": null,
    "beat": 338.5,
    "relBeat": 16.5,
    "duration": 0.25,
    "velocity": 100,
    "pitch": 60
  },
  {
    "clipIndex": 502,
    "trackId": "22",
    "clipName": null,
    "beat": 338.5,
    "relBeat": 14.5,
    "duration": 0.25,
    "velocity": 100,
    "pitch": 60
  },
  {
    "clipIndex": 503,
    "trackId": "22",
    "clipName": null,
    "beat": 338.5,
    "relBeat": 12.5,
    "duration": 0.25,
    "velocity": 100,
    "pitch": 60
  },
  {
    "clipIndex": 507,
    "trackId": "22",
    "clipName": null,
    "beat": 338.5,
    "relBeat": 4.5,
    "duration": 0.25,
    "velocity": 100,
    "pitch": 60
  },
  {
    "clipIndex": 508,
    "trackId": "22",
    "clipName": null,
    "beat": 338.5,
    "relBeat": 2.5,
    "duration": 0.25,
    "velocity": 100,
    "pitch": 60
  },
  {
    "clipIndex": 509,
    "trackId": "22",
    "clipName": null,
    "beat": 338.5,
    "relBeat": 0.5,
    "duration": 0.25,
    "velocity": 100,
    "pitch": 60
  },
  {
    "clipIndex": 495,
    "trackId": "22",
    "clipName": null,
    "beat": 338.75,
    "relBeat": 34.75,
    "duration": 0.25,
    "velocity": 100,
    "pitch": 60
  },
  {
    "clipIndex": 496,
    "trackId": "22",
    "clipName": null,
    "beat": 338.75,
    "relBeat": 26.75,
    "duration": 0.25,
    "velocity": 100,
    "pitch": 60
  },
  {
    "clipIndex": 497,
    "trackId": "22",
    "clipName": null,
    "beat": 338.75,
    "relBeat": 24.75,
    "duration": 0.25,
    "velocity": 100,
    "pitch": 60
  },
  {
    "clipIndex": 499,
    "trackId": "22",
    "clipName": null,
    "beat": 338.75,
    "relBeat": 20.75,
    "duration": 0.25,
    "velocity": 100,
    "pitch": 60
  },
  {
    "clipIndex": 500,
    "trackId": "22",
    "clipName": null,
    "beat": 338.75,
    "relBeat": 18.75,
    "duration": 0.25,
    "velocity": 100,
    "pitch": 60
  },
  {
    "clipIndex": 501,
    "trackId": "22",
    "clipName": null,
    "beat": 338.75,
    "relBeat": 16.75,
    "duration": 0.25,
    "velocity": 100,
    "pitch": 60
  },
  {
    "clipIndex": 502,
    "trackId": "22",
    "clipName": null,
    "beat": 338.75,
    "relBeat": 14.75,
    "duration": 0.25,
    "velocity": 100,
    "pitch": 60
  },
  {
    "clipIndex": 503,
    "trackId": "22",
    "clipName": null,
    "beat": 338.75,
    "relBeat": 12.75,
    "duration": 0.25,
    "velocity": 100,
    "pitch": 60
  },
  {
    "clipIndex": 507,
    "trackId": "22",
    "clipName": null,
    "beat": 338.75,
    "relBeat": 4.75,
    "duration": 0.25,
    "velocity": 100,
    "pitch": 60
  },
  {
    "clipIndex": 508,
    "trackId": "22",
    "clipName": null,
    "beat": 338.75,
    "relBeat": 2.75,
    "duration": 0.25,
    "velocity": 100,
    "pitch": 60
  },
  {
    "clipIndex": 509,
    "trackId": "22",
    "clipName": null,
    "beat": 338.75,
    "relBeat": 0.75,
    "duration": 0.25,
    "velocity": 100,
    "pitch": 60
  },
  {
    "clipIndex": 0,
    "trackId": "89",
    "clipName": null,
    "beat": 339,
    "relBeat": 339,
    "duration": 0.25,
    "velocity": 100,
    "pitch": 60
  },
  {
    "clipIndex": 495,
    "trackId": "22",
    "clipName": null,
    "beat": 339,
    "relBeat": 35,
    "duration": 0.25,
    "velocity": 100,
    "pitch": 60
  },
  {
    "clipIndex": 496,
    "trackId": "22",
    "clipName": null,
    "beat": 339,
    "relBeat": 27,
    "duration": 0.25,
    "velocity": 100,
    "pitch": 60
  },
  {
    "clipIndex": 497,
    "trackId": "22",
    "clipName": null,
    "beat": 339,
    "relBeat": 25,
    "duration": 0.25,
    "velocity": 100,
    "pitch": 60
  },
  {
    "clipIndex": 499,
    "trackId": "22",
    "clipName": null,
    "beat": 339,
    "relBeat": 21,
    "duration": 0.25,
    "velocity": 100,
    "pitch": 60
  },
  {
    "clipIndex": 500,
    "trackId": "22",
    "clipName": null,
    "beat": 339,
    "relBeat": 19,
    "duration": 0.25,
    "velocity": 100,
    "pitch": 60
  },
  {
    "clipIndex": 501,
    "trackId": "22",
    "clipName": null,
    "beat": 339,
    "relBeat": 17,
    "duration": 0.25,
    "velocity": 100,
    "pitch": 60
  },
  {
    "clipIndex": 502,
    "trackId": "22",
    "clipName": null,
    "beat": 339,
    "relBeat": 15,
    "duration": 0.25,
    "velocity": 100,
    "pitch": 60
  },
  {
    "clipIndex": 503,
    "trackId": "22",
    "clipName": null,
    "beat": 339,
    "relBeat": 13,
    "duration": 0.25,
    "velocity": 100,
    "pitch": 60
  },
  {
    "clipIndex": 505,
    "trackId": "22",
    "clipName": null,
    "beat": 339,
    "relBeat": 9,
    "duration": 0.25,
    "velocity": 100,
    "pitch": 60
  },
  {
    "clipIndex": 507,
    "trackId": "22",
    "clipName": null,
    "beat": 339,
    "relBeat": 5,
    "duration": 0.25,
    "velocity": 100,
    "pitch": 60
  },
  {
    "clipIndex": 508,
    "trackId": "22",
    "clipName": null,
    "beat": 339,
    "relBeat": 3,
    "duration": 0.25,
    "velocity": 100,
    "pitch": 60
  },
  {
    "clipIndex": 509,
    "trackId": "22",
    "clipName": null,
    "beat": 339,
    "relBeat": 1,
    "duration": 0.25,
    "velocity": 100,
    "pitch": 60
  },
  {
    "clipIndex": 495,
    "trackId": "22",
    "clipName": null,
    "beat": 339.25,
    "relBeat": 35.25,
    "duration": 0.25,
    "velocity": 100,
    "pitch": 60
  },
  {
    "clipIndex": 496,
    "trackId": "22",
    "clipName": null,
    "beat": 339.25,
    "relBeat": 27.25,
    "duration": 0.25,
    "velocity": 100,
    "pitch": 60
  },
  {
    "clipIndex": 497,
    "trackId": "22",
    "clipName": null,
    "beat": 339.25,
    "relBeat": 25.25,
    "duration": 0.25,
    "velocity": 100,
    "pitch": 60
  },
  {
    "clipIndex": 499,
    "trackId": "22",
    "clipName": null,
    "beat": 339.25,
    "relBeat": 21.25,
    "duration": 0.25,
    "velocity": 100,
    "pitch": 60
  },
  {
    "clipIndex": 500,
    "trackId": "22",
    "clipName": null,
    "beat": 339.25,
    "relBeat": 19.25,
    "duration": 0.25,
    "velocity": 100,
    "pitch": 60
  },
  {
    "clipIndex": 501,
    "trackId": "22",
    "clipName": null,
    "beat": 339.25,
    "relBeat": 17.25,
    "duration": 0.25,
    "velocity": 100,
    "pitch": 60
  },
  {
    "clipIndex": 502,
    "trackId": "22",
    "clipName": null,
    "beat": 339.25,
    "relBeat": 15.25,
    "duration": 0.25,
    "velocity": 100,
    "pitch": 60
  },
  {
    "clipIndex": 503,
    "trackId": "22",
    "clipName": null,
    "beat": 339.25,
    "relBeat": 13.25,
    "duration": 0.25,
    "velocity": 100,
    "pitch": 60
  },
  {
    "clipIndex": 505,
    "trackId": "22",
    "clipName": null,
    "beat": 339.25,
    "relBeat": 9.25,
    "duration": 0.25,
    "velocity": 100,
    "pitch": 60
  },
  {
    "clipIndex": 507,
    "trackId": "22",
    "clipName": null,
    "beat": 339.25,
    "relBeat": 5.25,
    "duration": 0.25,
    "velocity": 100,
    "pitch": 60
  },
  {
    "clipIndex": 508,
    "trackId": "22",
    "clipName": null,
    "beat": 339.25,
    "relBeat": 3.25,
    "duration": 0.25,
    "velocity": 100,
    "pitch": 60
  },
  {
    "clipIndex": 509,
    "trackId": "22",
    "clipName": null,
    "beat": 339.25,
    "relBeat": 1.25,
    "duration": 0.25,
    "velocity": 100,
    "pitch": 60
  },
  {
    "clipIndex": 495,
    "trackId": "22",
    "clipName": null,
    "beat": 339.5,
    "relBeat": 35.5,
    "duration": 0.25,
    "velocity": 100,
    "pitch": 60
  },
  {
    "clipIndex": 496,
    "trackId": "22",
    "clipName": null,
    "beat": 339.5,
    "relBeat": 27.5,
    "duration": 0.25,
    "velocity": 100,
    "pitch": 60
  },
  {
    "clipIndex": 497,
    "trackId": "22",
    "clipName": null,
    "beat": 339.5,
    "relBeat": 25.5,
    "duration": 0.25,
    "velocity": 100,
    "pitch": 60
  },
  {
    "clipIndex": 500,
    "trackId": "22",
    "clipName": null,
    "beat": 339.5,
    "relBeat": 19.5,
    "duration": 0.25,
    "velocity": 100,
    "pitch": 60
  },
  {
    "clipIndex": 501,
    "trackId": "22",
    "clipName": null,
    "beat": 339.5,
    "relBeat": 17.5,
    "duration": 0.25,
    "velocity": 100,
    "pitch": 60
  },
  {
    "clipIndex": 502,
    "trackId": "22",
    "clipName": null,
    "beat": 339.5,
    "relBeat": 15.5,
    "duration": 0.25,
    "velocity": 100,
    "pitch": 60
  },
  {
    "clipIndex": 503,
    "trackId": "22",
    "clipName": null,
    "beat": 339.5,
    "relBeat": 13.5,
    "duration": 0.25,
    "velocity": 100,
    "pitch": 60
  },
  {
    "clipIndex": 505,
    "trackId": "22",
    "clipName": null,
    "beat": 339.5,
    "relBeat": 9.5,
    "duration": 0.25,
    "velocity": 100,
    "pitch": 60
  },
  {
    "clipIndex": 507,
    "trackId": "22",
    "clipName": null,
    "beat": 339.5,
    "relBeat": 5.5,
    "duration": 0.25,
    "velocity": 100,
    "pitch": 60
  },
  {
    "clipIndex": 508,
    "trackId": "22",
    "clipName": null,
    "beat": 339.5,
    "relBeat": 3.5,
    "duration": 0.25,
    "velocity": 100,
    "pitch": 60
  },
  {
    "clipIndex": 509,
    "trackId": "22",
    "clipName": null,
    "beat": 339.5,
    "relBeat": 1.5,
    "duration": 0.25,
    "velocity": 100,
    "pitch": 60
  },
  {
    "clipIndex": 0,
    "trackId": "89",
    "clipName": null,
    "beat": 339.75,
    "relBeat": 339.75,
    "duration": 0.25,
    "velocity": 100,
    "pitch": 60
  },
  {
    "clipIndex": 495,
    "trackId": "22",
    "clipName": null,
    "beat": 339.75,
    "relBeat": 35.75,
    "duration": 0.25,
    "velocity": 100,
    "pitch": 60
  },
  {
    "clipIndex": 496,
    "trackId": "22",
    "clipName": null,
    "beat": 339.75,
    "relBeat": 27.75,
    "duration": 0.25,
    "velocity": 100,
    "pitch": 60
  },
  {
    "clipIndex": 497,
    "trackId": "22",
    "clipName": null,
    "beat": 339.75,
    "relBeat": 25.75,
    "duration": 0.25,
    "velocity": 100,
    "pitch": 60
  },
  {
    "clipIndex": 500,
    "trackId": "22",
    "clipName": null,
    "beat": 339.75,
    "relBeat": 19.75,
    "duration": 0.25,
    "velocity": 100,
    "pitch": 60
  },
  {
    "clipIndex": 501,
    "trackId": "22",
    "clipName": null,
    "beat": 339.75,
    "relBeat": 17.75,
    "duration": 0.25,
    "velocity": 100,
    "pitch": 60
  },
  {
    "clipIndex": 502,
    "trackId": "22",
    "clipName": null,
    "beat": 339.75,
    "relBeat": 15.75,
    "duration": 0.25,
    "velocity": 100,
    "pitch": 60
  },
  {
    "clipIndex": 503,
    "trackId": "22",
    "clipName": null,
    "beat": 339.75,
    "relBeat": 13.75,
    "duration": 0.25,
    "velocity": 100,
    "pitch": 60
  },
  {
    "clipIndex": 505,
    "trackId": "22",
    "clipName": null,
    "beat": 339.75,
    "relBeat": 9.75,
    "duration": 0.25,
    "velocity": 100,
    "pitch": 60
  },
  {
    "clipIndex": 507,
    "trackId": "22",
    "clipName": null,
    "beat": 339.75,
    "relBeat": 5.75,
    "duration": 0.25,
    "velocity": 100,
    "pitch": 60
  },
  {
    "clipIndex": 508,
    "trackId": "22",
    "clipName": null,
    "beat": 339.75,
    "relBeat": 3.75,
    "duration": 0.25,
    "velocity": 100,
    "pitch": 60
  },
  {
    "clipIndex": 509,
    "trackId": "22",
    "clipName": null,
    "beat": 339.75,
    "relBeat": 1.75,
    "duration": 0.25,
    "velocity": 100,
    "pitch": 60
  },
  {
    "clipIndex": 495,
    "trackId": "22",
    "clipName": null,
    "beat": 340,
    "relBeat": 36,
    "duration": 0.25,
    "velocity": 100,
    "pitch": 60
  },
  {
    "clipIndex": 496,
    "trackId": "22",
    "clipName": null,
    "beat": 340,
    "relBeat": 28,
    "duration": 0.25,
    "velocity": 100,
    "pitch": 60
  },
  {
    "clipIndex": 497,
    "trackId": "22",
    "clipName": null,
    "beat": 340,
    "relBeat": 26,
    "duration": 0.25,
    "velocity": 100,
    "pitch": 60
  },
  {
    "clipIndex": 498,
    "trackId": "22",
    "clipName": null,
    "beat": 340,
    "relBeat": 24,
    "duration": 0.25,
    "velocity": 100,
    "pitch": 60
  },
  {
    "clipIndex": 500,
    "trackId": "22",
    "clipName": null,
    "beat": 340,
    "relBeat": 20,
    "duration": 0.25,
    "velocity": 100,
    "pitch": 60
  },
  {
    "clipIndex": 501,
    "trackId": "22",
    "clipName": null,
    "beat": 340,
    "relBeat": 18,
    "duration": 0.25,
    "velocity": 100,
    "pitch": 60
  },
  {
    "clipIndex": 502,
    "trackId": "22",
    "clipName": null,
    "beat": 340,
    "relBeat": 16,
    "duration": 0.25,
    "velocity": 100,
    "pitch": 60
  },
  {
    "clipIndex": 503,
    "trackId": "22",
    "clipName": null,
    "beat": 340,
    "relBeat": 14,
    "duration": 0.25,
    "velocity": 100,
    "pitch": 60
  },
  {
    "clipIndex": 504,
    "trackId": "22",
    "clipName": null,
    "beat": 340,
    "relBeat": 12,
    "duration": 0.25,
    "velocity": 100,
    "pitch": 60
  },
  {
    "clipIndex": 505,
    "trackId": "22",
    "clipName": null,
    "beat": 340,
    "relBeat": 10,
    "duration": 0.25,
    "velocity": 100,
    "pitch": 60
  },
  {
    "clipIndex": 508,
    "trackId": "22",
    "clipName": null,
    "beat": 340,
    "relBeat": 4,
    "duration": 0.25,
    "velocity": 100,
    "pitch": 60
  },
  {
    "clipIndex": 509,
    "trackId": "22",
    "clipName": null,
    "beat": 340,
    "relBeat": 2,
    "duration": 0.25,
    "velocity": 100,
    "pitch": 60
  },
  {
    "clipIndex": 510,
    "trackId": "22",
    "clipName": null,
    "beat": 340,
    "relBeat": 0,
    "duration": 0.25,
    "velocity": 100,
    "pitch": 60
  },
  {
    "clipIndex": 495,
    "trackId": "22",
    "clipName": null,
    "beat": 340.25,
    "relBeat": 36.25,
    "duration": 0.25,
    "velocity": 100,
    "pitch": 60
  },
  {
    "clipIndex": 496,
    "trackId": "22",
    "clipName": null,
    "beat": 340.25,
    "relBeat": 28.25,
    "duration": 0.25,
    "velocity": 100,
    "pitch": 60
  },
  {
    "clipIndex": 497,
    "trackId": "22",
    "clipName": null,
    "beat": 340.25,
    "relBeat": 26.25,
    "duration": 0.25,
    "velocity": 100,
    "pitch": 60
  },
  {
    "clipIndex": 498,
    "trackId": "22",
    "clipName": null,
    "beat": 340.25,
    "relBeat": 24.25,
    "duration": 0.25,
    "velocity": 100,
    "pitch": 60
  },
  {
    "clipIndex": 500,
    "trackId": "22",
    "clipName": null,
    "beat": 340.25,
    "relBeat": 20.25,
    "duration": 0.25,
    "velocity": 100,
    "pitch": 60
  },
  {
    "clipIndex": 501,
    "trackId": "22",
    "clipName": null,
    "beat": 340.25,
    "relBeat": 18.25,
    "duration": 0.25,
    "velocity": 100,
    "pitch": 60
  },
  {
    "clipIndex": 502,
    "trackId": "22",
    "clipName": null,
    "beat": 340.25,
    "relBeat": 16.25,
    "duration": 0.25,
    "velocity": 100,
    "pitch": 60
  },
  {
    "clipIndex": 503,
    "trackId": "22",
    "clipName": null,
    "beat": 340.25,
    "relBeat": 14.25,
    "duration": 0.25,
    "velocity": 100,
    "pitch": 60
  },
  {
    "clipIndex": 504,
    "trackId": "22",
    "clipName": null,
    "beat": 340.25,
    "relBeat": 12.25,
    "duration": 0.25,
    "velocity": 100,
    "pitch": 60
  },
  {
    "clipIndex": 508,
    "trackId": "22",
    "clipName": null,
    "beat": 340.25,
    "relBeat": 4.25,
    "duration": 0.25,
    "velocity": 100,
    "pitch": 60
  },
  {
    "clipIndex": 509,
    "trackId": "22",
    "clipName": null,
    "beat": 340.25,
    "relBeat": 2.25,
    "duration": 0.25,
    "velocity": 100,
    "pitch": 60
  },
  {
    "clipIndex": 510,
    "trackId": "22",
    "clipName": null,
    "beat": 340.25,
    "relBeat": 0.25,
    "duration": 0.25,
    "velocity": 100,
    "pitch": 60
  },
  {
    "clipIndex": 0,
    "trackId": "89",
    "clipName": null,
    "beat": 340.5,
    "relBeat": 340.5,
    "duration": 0.25,
    "velocity": 100,
    "pitch": 60
  },
  {
    "clipIndex": 496,
    "trackId": "22",
    "clipName": null,
    "beat": 340.5,
    "relBeat": 28.5,
    "duration": 0.25,
    "velocity": 100,
    "pitch": 60
  },
  {
    "clipIndex": 497,
    "trackId": "22",
    "clipName": null,
    "beat": 340.5,
    "relBeat": 26.5,
    "duration": 0.25,
    "velocity": 100,
    "pitch": 60
  },
  {
    "clipIndex": 498,
    "trackId": "22",
    "clipName": null,
    "beat": 340.5,
    "relBeat": 24.5,
    "duration": 0.25,
    "velocity": 100,
    "pitch": 60
  },
  {
    "clipIndex": 500,
    "trackId": "22",
    "clipName": null,
    "beat": 340.5,
    "relBeat": 20.5,
    "duration": 0.25,
    "velocity": 100,
    "pitch": 60
  },
  {
    "clipIndex": 501,
    "trackId": "22",
    "clipName": null,
    "beat": 340.5,
    "relBeat": 18.5,
    "duration": 0.25,
    "velocity": 100,
    "pitch": 60
  },
  {
    "clipIndex": 502,
    "trackId": "22",
    "clipName": null,
    "beat": 340.5,
    "relBeat": 16.5,
    "duration": 0.25,
    "velocity": 100,
    "pitch": 60
  },
  {
    "clipIndex": 503,
    "trackId": "22",
    "clipName": null,
    "beat": 340.5,
    "relBeat": 14.5,
    "duration": 0.25,
    "velocity": 100,
    "pitch": 60
  },
  {
    "clipIndex": 504,
    "trackId": "22",
    "clipName": null,
    "beat": 340.5,
    "relBeat": 12.5,
    "duration": 0.25,
    "velocity": 100,
    "pitch": 60
  },
  {
    "clipIndex": 508,
    "trackId": "22",
    "clipName": null,
    "beat": 340.5,
    "relBeat": 4.5,
    "duration": 0.25,
    "velocity": 100,
    "pitch": 60
  },
  {
    "clipIndex": 509,
    "trackId": "22",
    "clipName": null,
    "beat": 340.5,
    "relBeat": 2.5,
    "duration": 0.25,
    "velocity": 100,
    "pitch": 60
  },
  {
    "clipIndex": 510,
    "trackId": "22",
    "clipName": null,
    "beat": 340.5,
    "relBeat": 0.5,
    "duration": 0.25,
    "velocity": 100,
    "pitch": 60
  },
  {
    "clipIndex": 496,
    "trackId": "22",
    "clipName": null,
    "beat": 340.75,
    "relBeat": 28.75,
    "duration": 0.25,
    "velocity": 100,
    "pitch": 60
  },
  {
    "clipIndex": 497,
    "trackId": "22",
    "clipName": null,
    "beat": 340.75,
    "relBeat": 26.75,
    "duration": 0.25,
    "velocity": 100,
    "pitch": 60
  },
  {
    "clipIndex": 498,
    "trackId": "22",
    "clipName": null,
    "beat": 340.75,
    "relBeat": 24.75,
    "duration": 0.25,
    "velocity": 100,
    "pitch": 60
  },
  {
    "clipIndex": 500,
    "trackId": "22",
    "clipName": null,
    "beat": 340.75,
    "relBeat": 20.75,
    "duration": 0.25,
    "velocity": 100,
    "pitch": 60
  },
  {
    "clipIndex": 501,
    "trackId": "22",
    "clipName": null,
    "beat": 340.75,
    "relBeat": 18.75,
    "duration": 0.25,
    "velocity": 100,
    "pitch": 60
  },
  {
    "clipIndex": 502,
    "trackId": "22",
    "clipName": null,
    "beat": 340.75,
    "relBeat": 16.75,
    "duration": 0.25,
    "velocity": 100,
    "pitch": 60
  },
  {
    "clipIndex": 503,
    "trackId": "22",
    "clipName": null,
    "beat": 340.75,
    "relBeat": 14.75,
    "duration": 0.25,
    "velocity": 100,
    "pitch": 60
  },
  {
    "clipIndex": 504,
    "trackId": "22",
    "clipName": null,
    "beat": 340.75,
    "relBeat": 12.75,
    "duration": 0.25,
    "velocity": 100,
    "pitch": 60
  },
  {
    "clipIndex": 508,
    "trackId": "22",
    "clipName": null,
    "beat": 340.75,
    "relBeat": 4.75,
    "duration": 0.25,
    "velocity": 100,
    "pitch": 60
  },
  {
    "clipIndex": 509,
    "trackId": "22",
    "clipName": null,
    "beat": 340.75,
    "relBeat": 2.75,
    "duration": 0.25,
    "velocity": 100,
    "pitch": 60
  },
  {
    "clipIndex": 510,
    "trackId": "22",
    "clipName": null,
    "beat": 340.75,
    "relBeat": 0.75,
    "duration": 0.25,
    "velocity": 100,
    "pitch": 60
  },
  {
    "clipIndex": 495,
    "trackId": "22",
    "clipName": null,
    "beat": 341,
    "relBeat": 37,
    "duration": 0.25,
    "velocity": 100,
    "pitch": 60
  },
  {
    "clipIndex": 496,
    "trackId": "22",
    "clipName": null,
    "beat": 341,
    "relBeat": 29,
    "duration": 0.25,
    "velocity": 100,
    "pitch": 60
  },
  {
    "clipIndex": 497,
    "trackId": "22",
    "clipName": null,
    "beat": 341,
    "relBeat": 27,
    "duration": 0.25,
    "velocity": 100,
    "pitch": 60
  },
  {
    "clipIndex": 498,
    "trackId": "22",
    "clipName": null,
    "beat": 341,
    "relBeat": 25,
    "duration": 0.25,
    "velocity": 100,
    "pitch": 60
  },
  {
    "clipIndex": 500,
    "trackId": "22",
    "clipName": null,
    "beat": 341,
    "relBeat": 21,
    "duration": 0.25,
    "velocity": 100,
    "pitch": 60
  },
  {
    "clipIndex": 501,
    "trackId": "22",
    "clipName": null,
    "beat": 341,
    "relBeat": 19,
    "duration": 0.25,
    "velocity": 100,
    "pitch": 60
  },
  {
    "clipIndex": 502,
    "trackId": "22",
    "clipName": null,
    "beat": 341,
    "relBeat": 17,
    "duration": 0.25,
    "velocity": 100,
    "pitch": 60
  },
  {
    "clipIndex": 503,
    "trackId": "22",
    "clipName": null,
    "beat": 341,
    "relBeat": 15,
    "duration": 0.25,
    "velocity": 100,
    "pitch": 60
  },
  {
    "clipIndex": 504,
    "trackId": "22",
    "clipName": null,
    "beat": 341,
    "relBeat": 13,
    "duration": 0.25,
    "velocity": 100,
    "pitch": 60
  },
  {
    "clipIndex": 506,
    "trackId": "22",
    "clipName": null,
    "beat": 341,
    "relBeat": 9,
    "duration": 0.25,
    "velocity": 100,
    "pitch": 60
  },
  {
    "clipIndex": 508,
    "trackId": "22",
    "clipName": null,
    "beat": 341,
    "relBeat": 5,
    "duration": 0.25,
    "velocity": 100,
    "pitch": 60
  },
  {
    "clipIndex": 509,
    "trackId": "22",
    "clipName": null,
    "beat": 341,
    "relBeat": 3,
    "duration": 0.25,
    "velocity": 100,
    "pitch": 60
  },
  {
    "clipIndex": 510,
    "trackId": "22",
    "clipName": null,
    "beat": 341,
    "relBeat": 1,
    "duration": 0.25,
    "velocity": 100,
    "pitch": 60
  },
  {
    "clipIndex": 0,
    "trackId": "89",
    "clipName": null,
    "beat": 341.25,
    "relBeat": 341.25,
    "duration": 0.25,
    "velocity": 100,
    "pitch": 60
  },
  {
    "clipIndex": 495,
    "trackId": "22",
    "clipName": null,
    "beat": 341.25,
    "relBeat": 37.25,
    "duration": 0.25,
    "velocity": 100,
    "pitch": 60
  },
  {
    "clipIndex": 496,
    "trackId": "22",
    "clipName": null,
    "beat": 341.25,
    "relBeat": 29.25,
    "duration": 0.25,
    "velocity": 100,
    "pitch": 60
  },
  {
    "clipIndex": 497,
    "trackId": "22",
    "clipName": null,
    "beat": 341.25,
    "relBeat": 27.25,
    "duration": 0.25,
    "velocity": 100,
    "pitch": 60
  },
  {
    "clipIndex": 498,
    "trackId": "22",
    "clipName": null,
    "beat": 341.25,
    "relBeat": 25.25,
    "duration": 0.25,
    "velocity": 100,
    "pitch": 60
  },
  {
    "clipIndex": 500,
    "trackId": "22",
    "clipName": null,
    "beat": 341.25,
    "relBeat": 21.25,
    "duration": 0.25,
    "velocity": 100,
    "pitch": 60
  },
  {
    "clipIndex": 501,
    "trackId": "22",
    "clipName": null,
    "beat": 341.25,
    "relBeat": 19.25,
    "duration": 0.25,
    "velocity": 100,
    "pitch": 60
  },
  {
    "clipIndex": 502,
    "trackId": "22",
    "clipName": null,
    "beat": 341.25,
    "relBeat": 17.25,
    "duration": 0.25,
    "velocity": 100,
    "pitch": 60
  },
  {
    "clipIndex": 503,
    "trackId": "22",
    "clipName": null,
    "beat": 341.25,
    "relBeat": 15.25,
    "duration": 0.25,
    "velocity": 100,
    "pitch": 60
  },
  {
    "clipIndex": 504,
    "trackId": "22",
    "clipName": null,
    "beat": 341.25,
    "relBeat": 13.25,
    "duration": 0.25,
    "velocity": 100,
    "pitch": 60
  },
  {
    "clipIndex": 506,
    "trackId": "22",
    "clipName": null,
    "beat": 341.25,
    "relBeat": 9.25,
    "duration": 0.25,
    "velocity": 100,
    "pitch": 60
  },
  {
    "clipIndex": 508,
    "trackId": "22",
    "clipName": null,
    "beat": 341.25,
    "relBeat": 5.25,
    "duration": 0.25,
    "velocity": 100,
    "pitch": 60
  },
  {
    "clipIndex": 509,
    "trackId": "22",
    "clipName": null,
    "beat": 341.25,
    "relBeat": 3.25,
    "duration": 0.25,
    "velocity": 100,
    "pitch": 60
  },
  {
    "clipIndex": 510,
    "trackId": "22",
    "clipName": null,
    "beat": 341.25,
    "relBeat": 1.25,
    "duration": 0.25,
    "velocity": 100,
    "pitch": 60
  },
  {
    "clipIndex": 495,
    "trackId": "22",
    "clipName": null,
    "beat": 341.5,
    "relBeat": 37.5,
    "duration": 0.25,
    "velocity": 100,
    "pitch": 60
  },
  {
    "clipIndex": 496,
    "trackId": "22",
    "clipName": null,
    "beat": 341.5,
    "relBeat": 29.5,
    "duration": 0.25,
    "velocity": 100,
    "pitch": 60
  },
  {
    "clipIndex": 497,
    "trackId": "22",
    "clipName": null,
    "beat": 341.5,
    "relBeat": 27.5,
    "duration": 0.25,
    "velocity": 100,
    "pitch": 60
  },
  {
    "clipIndex": 498,
    "trackId": "22",
    "clipName": null,
    "beat": 341.5,
    "relBeat": 25.5,
    "duration": 0.25,
    "velocity": 100,
    "pitch": 60
  },
  {
    "clipIndex": 501,
    "trackId": "22",
    "clipName": null,
    "beat": 341.5,
    "relBeat": 19.5,
    "duration": 0.25,
    "velocity": 100,
    "pitch": 60
  },
  {
    "clipIndex": 502,
    "trackId": "22",
    "clipName": null,
    "beat": 341.5,
    "relBeat": 17.5,
    "duration": 0.25,
    "velocity": 100,
    "pitch": 60
  },
  {
    "clipIndex": 503,
    "trackId": "22",
    "clipName": null,
    "beat": 341.5,
    "relBeat": 15.5,
    "duration": 0.25,
    "velocity": 100,
    "pitch": 60
  },
  {
    "clipIndex": 504,
    "trackId": "22",
    "clipName": null,
    "beat": 341.5,
    "relBeat": 13.5,
    "duration": 0.25,
    "velocity": 100,
    "pitch": 60
  },
  {
    "clipIndex": 506,
    "trackId": "22",
    "clipName": null,
    "beat": 341.5,
    "relBeat": 9.5,
    "duration": 0.25,
    "velocity": 100,
    "pitch": 60
  },
  {
    "clipIndex": 508,
    "trackId": "22",
    "clipName": null,
    "beat": 341.5,
    "relBeat": 5.5,
    "duration": 0.25,
    "velocity": 100,
    "pitch": 60
  },
  {
    "clipIndex": 509,
    "trackId": "22",
    "clipName": null,
    "beat": 341.5,
    "relBeat": 3.5,
    "duration": 0.25,
    "velocity": 100,
    "pitch": 60
  },
  {
    "clipIndex": 510,
    "trackId": "22",
    "clipName": null,
    "beat": 341.5,
    "relBeat": 1.5,
    "duration": 0.25,
    "velocity": 100,
    "pitch": 60
  },
  {
    "clipIndex": 495,
    "trackId": "22",
    "clipName": null,
    "beat": 341.75,
    "relBeat": 37.75,
    "duration": 0.25,
    "velocity": 100,
    "pitch": 60
  },
  {
    "clipIndex": 496,
    "trackId": "22",
    "clipName": null,
    "beat": 341.75,
    "relBeat": 29.75,
    "duration": 0.25,
    "velocity": 100,
    "pitch": 60
  },
  {
    "clipIndex": 497,
    "trackId": "22",
    "clipName": null,
    "beat": 341.75,
    "relBeat": 27.75,
    "duration": 0.25,
    "velocity": 100,
    "pitch": 60
  },
  {
    "clipIndex": 498,
    "trackId": "22",
    "clipName": null,
    "beat": 341.75,
    "relBeat": 25.75,
    "duration": 0.25,
    "velocity": 100,
    "pitch": 60
  },
  {
    "clipIndex": 501,
    "trackId": "22",
    "clipName": null,
    "beat": 341.75,
    "relBeat": 19.75,
    "duration": 0.25,
    "velocity": 100,
    "pitch": 60
  },
  {
    "clipIndex": 502,
    "trackId": "22",
    "clipName": null,
    "beat": 341.75,
    "relBeat": 17.75,
    "duration": 0.25,
    "velocity": 100,
    "pitch": 60
  },
  {
    "clipIndex": 503,
    "trackId": "22",
    "clipName": null,
    "beat": 341.75,
    "relBeat": 15.75,
    "duration": 0.25,
    "velocity": 100,
    "pitch": 60
  },
  {
    "clipIndex": 504,
    "trackId": "22",
    "clipName": null,
    "beat": 341.75,
    "relBeat": 13.75,
    "duration": 0.25,
    "velocity": 100,
    "pitch": 60
  },
  {
    "clipIndex": 506,
    "trackId": "22",
    "clipName": null,
    "beat": 341.75,
    "relBeat": 9.75,
    "duration": 0.25,
    "velocity": 100,
    "pitch": 60
  },
  {
    "clipIndex": 508,
    "trackId": "22",
    "clipName": null,
    "beat": 341.75,
    "relBeat": 5.75,
    "duration": 0.25,
    "velocity": 100,
    "pitch": 60
  },
  {
    "clipIndex": 509,
    "trackId": "22",
    "clipName": null,
    "beat": 341.75,
    "relBeat": 3.75,
    "duration": 0.25,
    "velocity": 100,
    "pitch": 60
  },
  {
    "clipIndex": 510,
    "trackId": "22",
    "clipName": null,
    "beat": 341.75,
    "relBeat": 1.75,
    "duration": 0.25,
    "velocity": 100,
    "pitch": 60
  },
  {
    "clipIndex": 0,
    "trackId": "89",
    "clipName": null,
    "beat": 342,
    "relBeat": 342,
    "duration": 0.25,
    "velocity": 100,
    "pitch": 60
  },
  {
    "clipIndex": 496,
    "trackId": "22",
    "clipName": null,
    "beat": 342,
    "relBeat": 30,
    "duration": 0.25,
    "velocity": 100,
    "pitch": 60
  },
  {
    "clipIndex": 497,
    "trackId": "22",
    "clipName": null,
    "beat": 342,
    "relBeat": 28,
    "duration": 0.25,
    "velocity": 100,
    "pitch": 60
  },
  {
    "clipIndex": 498,
    "trackId": "22",
    "clipName": null,
    "beat": 342,
    "relBeat": 26,
    "duration": 0.25,
    "velocity": 100,
    "pitch": 60
  },
  {
    "clipIndex": 499,
    "trackId": "22",
    "clipName": null,
    "beat": 342,
    "relBeat": 24,
    "duration": 0.25,
    "velocity": 100,
    "pitch": 60
  },
  {
    "clipIndex": 501,
    "trackId": "22",
    "clipName": null,
    "beat": 342,
    "relBeat": 20,
    "duration": 0.25,
    "velocity": 100,
    "pitch": 60
  },
  {
    "clipIndex": 502,
    "trackId": "22",
    "clipName": null,
    "beat": 342,
    "relBeat": 18,
    "duration": 0.25,
    "velocity": 100,
    "pitch": 60
  },
  {
    "clipIndex": 503,
    "trackId": "22",
    "clipName": null,
    "beat": 342,
    "relBeat": 16,
    "duration": 0.25,
    "velocity": 100,
    "pitch": 60
  },
  {
    "clipIndex": 504,
    "trackId": "22",
    "clipName": null,
    "beat": 342,
    "relBeat": 14,
    "duration": 0.25,
    "velocity": 100,
    "pitch": 60
  },
  {
    "clipIndex": 505,
    "trackId": "22",
    "clipName": null,
    "beat": 342,
    "relBeat": 12,
    "duration": 0.25,
    "velocity": 100,
    "pitch": 60
  },
  {
    "clipIndex": 506,
    "trackId": "22",
    "clipName": null,
    "beat": 342,
    "relBeat": 10,
    "duration": 0.25,
    "velocity": 100,
    "pitch": 60
  },
  {
    "clipIndex": 509,
    "trackId": "22",
    "clipName": null,
    "beat": 342,
    "relBeat": 4,
    "duration": 0.25,
    "velocity": 100,
    "pitch": 60
  },
  {
    "clipIndex": 510,
    "trackId": "22",
    "clipName": null,
    "beat": 342,
    "relBeat": 2,
    "duration": 0.25,
    "velocity": 100,
    "pitch": 60
  },
  {
    "clipIndex": 511,
    "trackId": "22",
    "clipName": null,
    "beat": 342,
    "relBeat": 0,
    "duration": 0.25,
    "velocity": 100,
    "pitch": 60
  },
  {
    "clipIndex": 496,
    "trackId": "22",
    "clipName": null,
    "beat": 342.25,
    "relBeat": 30.25,
    "duration": 0.25,
    "velocity": 100,
    "pitch": 60
  },
  {
    "clipIndex": 497,
    "trackId": "22",
    "clipName": null,
    "beat": 342.25,
    "relBeat": 28.25,
    "duration": 0.25,
    "velocity": 100,
    "pitch": 60
  },
  {
    "clipIndex": 498,
    "trackId": "22",
    "clipName": null,
    "beat": 342.25,
    "relBeat": 26.25,
    "duration": 0.25,
    "velocity": 100,
    "pitch": 60
  },
  {
    "clipIndex": 499,
    "trackId": "22",
    "clipName": null,
    "beat": 342.25,
    "relBeat": 24.25,
    "duration": 0.25,
    "velocity": 100,
    "pitch": 60
  },
  {
    "clipIndex": 501,
    "trackId": "22",
    "clipName": null,
    "beat": 342.25,
    "relBeat": 20.25,
    "duration": 0.25,
    "velocity": 100,
    "pitch": 60
  },
  {
    "clipIndex": 502,
    "trackId": "22",
    "clipName": null,
    "beat": 342.25,
    "relBeat": 18.25,
    "duration": 0.25,
    "velocity": 100,
    "pitch": 60
  },
  {
    "clipIndex": 503,
    "trackId": "22",
    "clipName": null,
    "beat": 342.25,
    "relBeat": 16.25,
    "duration": 0.25,
    "velocity": 100,
    "pitch": 60
  },
  {
    "clipIndex": 504,
    "trackId": "22",
    "clipName": null,
    "beat": 342.25,
    "relBeat": 14.25,
    "duration": 0.25,
    "velocity": 100,
    "pitch": 60
  },
  {
    "clipIndex": 505,
    "trackId": "22",
    "clipName": null,
    "beat": 342.25,
    "relBeat": 12.25,
    "duration": 0.25,
    "velocity": 100,
    "pitch": 60
  },
  {
    "clipIndex": 509,
    "trackId": "22",
    "clipName": null,
    "beat": 342.25,
    "relBeat": 4.25,
    "duration": 0.25,
    "velocity": 100,
    "pitch": 60
  },
  {
    "clipIndex": 510,
    "trackId": "22",
    "clipName": null,
    "beat": 342.25,
    "relBeat": 2.25,
    "duration": 0.25,
    "velocity": 100,
    "pitch": 60
  },
  {
    "clipIndex": 511,
    "trackId": "22",
    "clipName": null,
    "beat": 342.25,
    "relBeat": 0.25,
    "duration": 0.25,
    "velocity": 100,
    "pitch": 60
  },
  {
    "clipIndex": 495,
    "trackId": "22",
    "clipName": null,
    "beat": 342.5,
    "relBeat": 38.5,
    "duration": 0.25,
    "velocity": 100,
    "pitch": 60
  },
  {
    "clipIndex": 496,
    "trackId": "22",
    "clipName": null,
    "beat": 342.5,
    "relBeat": 30.5,
    "duration": 0.25,
    "velocity": 100,
    "pitch": 60
  },
  {
    "clipIndex": 497,
    "trackId": "22",
    "clipName": null,
    "beat": 342.5,
    "relBeat": 28.5,
    "duration": 0.25,
    "velocity": 100,
    "pitch": 60
  },
  {
    "clipIndex": 498,
    "trackId": "22",
    "clipName": null,
    "beat": 342.5,
    "relBeat": 26.5,
    "duration": 0.25,
    "velocity": 100,
    "pitch": 60
  },
  {
    "clipIndex": 499,
    "trackId": "22",
    "clipName": null,
    "beat": 342.5,
    "relBeat": 24.5,
    "duration": 0.25,
    "velocity": 100,
    "pitch": 60
  },
  {
    "clipIndex": 501,
    "trackId": "22",
    "clipName": null,
    "beat": 342.5,
    "relBeat": 20.5,
    "duration": 0.25,
    "velocity": 100,
    "pitch": 60
  },
  {
    "clipIndex": 502,
    "trackId": "22",
    "clipName": null,
    "beat": 342.5,
    "relBeat": 18.5,
    "duration": 0.25,
    "velocity": 100,
    "pitch": 60
  },
  {
    "clipIndex": 503,
    "trackId": "22",
    "clipName": null,
    "beat": 342.5,
    "relBeat": 16.5,
    "duration": 0.25,
    "velocity": 100,
    "pitch": 60
  },
  {
    "clipIndex": 504,
    "trackId": "22",
    "clipName": null,
    "beat": 342.5,
    "relBeat": 14.5,
    "duration": 0.25,
    "velocity": 100,
    "pitch": 60
  },
  {
    "clipIndex": 505,
    "trackId": "22",
    "clipName": null,
    "beat": 342.5,
    "relBeat": 12.5,
    "duration": 0.25,
    "velocity": 100,
    "pitch": 60
  },
  {
    "clipIndex": 509,
    "trackId": "22",
    "clipName": null,
    "beat": 342.5,
    "relBeat": 4.5,
    "duration": 0.25,
    "velocity": 100,
    "pitch": 60
  },
  {
    "clipIndex": 510,
    "trackId": "22",
    "clipName": null,
    "beat": 342.5,
    "relBeat": 2.5,
    "duration": 0.25,
    "velocity": 100,
    "pitch": 60
  },
  {
    "clipIndex": 511,
    "trackId": "22",
    "clipName": null,
    "beat": 342.5,
    "relBeat": 0.5,
    "duration": 0.25,
    "velocity": 100,
    "pitch": 60
  },
  {
    "clipIndex": 0,
    "trackId": "89",
    "clipName": null,
    "beat": 342.75,
    "relBeat": 342.75,
    "duration": 0.25,
    "velocity": 100,
    "pitch": 60
  },
  {
    "clipIndex": 495,
    "trackId": "22",
    "clipName": null,
    "beat": 342.75,
    "relBeat": 38.75,
    "duration": 0.25,
    "velocity": 100,
    "pitch": 60
  },
  {
    "clipIndex": 496,
    "trackId": "22",
    "clipName": null,
    "beat": 342.75,
    "relBeat": 30.75,
    "duration": 0.25,
    "velocity": 100,
    "pitch": 60
  },
  {
    "clipIndex": 497,
    "trackId": "22",
    "clipName": null,
    "beat": 342.75,
    "relBeat": 28.75,
    "duration": 0.25,
    "velocity": 100,
    "pitch": 60
  },
  {
    "clipIndex": 498,
    "trackId": "22",
    "clipName": null,
    "beat": 342.75,
    "relBeat": 26.75,
    "duration": 0.25,
    "velocity": 100,
    "pitch": 60
  },
  {
    "clipIndex": 499,
    "trackId": "22",
    "clipName": null,
    "beat": 342.75,
    "relBeat": 24.75,
    "duration": 0.25,
    "velocity": 100,
    "pitch": 60
  },
  {
    "clipIndex": 501,
    "trackId": "22",
    "clipName": null,
    "beat": 342.75,
    "relBeat": 20.75,
    "duration": 0.25,
    "velocity": 100,
    "pitch": 60
  },
  {
    "clipIndex": 502,
    "trackId": "22",
    "clipName": null,
    "beat": 342.75,
    "relBeat": 18.75,
    "duration": 0.25,
    "velocity": 100,
    "pitch": 60
  },
  {
    "clipIndex": 503,
    "trackId": "22",
    "clipName": null,
    "beat": 342.75,
    "relBeat": 16.75,
    "duration": 0.25,
    "velocity": 100,
    "pitch": 60
  },
  {
    "clipIndex": 504,
    "trackId": "22",
    "clipName": null,
    "beat": 342.75,
    "relBeat": 14.75,
    "duration": 0.25,
    "velocity": 100,
    "pitch": 60
  },
  {
    "clipIndex": 505,
    "trackId": "22",
    "clipName": null,
    "beat": 342.75,
    "relBeat": 12.75,
    "duration": 0.25,
    "velocity": 100,
    "pitch": 60
  },
  {
    "clipIndex": 509,
    "trackId": "22",
    "clipName": null,
    "beat": 342.75,
    "relBeat": 4.75,
    "duration": 0.25,
    "velocity": 100,
    "pitch": 60
  },
  {
    "clipIndex": 510,
    "trackId": "22",
    "clipName": null,
    "beat": 342.75,
    "relBeat": 2.75,
    "duration": 0.25,
    "velocity": 100,
    "pitch": 60
  },
  {
    "clipIndex": 511,
    "trackId": "22",
    "clipName": null,
    "beat": 342.75,
    "relBeat": 0.75,
    "duration": 0.25,
    "velocity": 100,
    "pitch": 60
  },
  {
    "clipIndex": 495,
    "trackId": "22",
    "clipName": null,
    "beat": 343,
    "relBeat": 39,
    "duration": 0.25,
    "velocity": 100,
    "pitch": 60
  },
  {
    "clipIndex": 496,
    "trackId": "22",
    "clipName": null,
    "beat": 343,
    "relBeat": 31,
    "duration": 0.25,
    "velocity": 100,
    "pitch": 60
  },
  {
    "clipIndex": 497,
    "trackId": "22",
    "clipName": null,
    "beat": 343,
    "relBeat": 29,
    "duration": 0.25,
    "velocity": 100,
    "pitch": 60
  },
  {
    "clipIndex": 498,
    "trackId": "22",
    "clipName": null,
    "beat": 343,
    "relBeat": 27,
    "duration": 0.25,
    "velocity": 100,
    "pitch": 60
  },
  {
    "clipIndex": 499,
    "trackId": "22",
    "clipName": null,
    "beat": 343,
    "relBeat": 25,
    "duration": 0.25,
    "velocity": 100,
    "pitch": 60
  },
  {
    "clipIndex": 501,
    "trackId": "22",
    "clipName": null,
    "beat": 343,
    "relBeat": 21,
    "duration": 0.25,
    "velocity": 100,
    "pitch": 60
  },
  {
    "clipIndex": 502,
    "trackId": "22",
    "clipName": null,
    "beat": 343,
    "relBeat": 19,
    "duration": 0.25,
    "velocity": 100,
    "pitch": 60
  },
  {
    "clipIndex": 503,
    "trackId": "22",
    "clipName": null,
    "beat": 343,
    "relBeat": 17,
    "duration": 0.25,
    "velocity": 100,
    "pitch": 60
  },
  {
    "clipIndex": 504,
    "trackId": "22",
    "clipName": null,
    "beat": 343,
    "relBeat": 15,
    "duration": 0.25,
    "velocity": 100,
    "pitch": 60
  },
  {
    "clipIndex": 505,
    "trackId": "22",
    "clipName": null,
    "beat": 343,
    "relBeat": 13,
    "duration": 0.25,
    "velocity": 100,
    "pitch": 60
  },
  {
    "clipIndex": 507,
    "trackId": "22",
    "clipName": null,
    "beat": 343,
    "relBeat": 9,
    "duration": 0.25,
    "velocity": 100,
    "pitch": 60
  },
  {
    "clipIndex": 509,
    "trackId": "22",
    "clipName": null,
    "beat": 343,
    "relBeat": 5,
    "duration": 0.25,
    "velocity": 100,
    "pitch": 60
  },
  {
    "clipIndex": 510,
    "trackId": "22",
    "clipName": null,
    "beat": 343,
    "relBeat": 3,
    "duration": 0.25,
    "velocity": 100,
    "pitch": 60
  },
  {
    "clipIndex": 511,
    "trackId": "22",
    "clipName": null,
    "beat": 343,
    "relBeat": 1,
    "duration": 0.25,
    "velocity": 100,
    "pitch": 60
  },
  {
    "clipIndex": 0,
    "trackId": "89",
    "clipName": null,
    "beat": 343.25,
    "relBeat": 343.25,
    "duration": 0.25,
    "velocity": 100,
    "pitch": 60
  },
  {
    "clipIndex": 495,
    "trackId": "22",
    "clipName": null,
    "beat": 343.25,
    "relBeat": 39.25,
    "duration": 0.25,
    "velocity": 100,
    "pitch": 60
  },
  {
    "clipIndex": 496,
    "trackId": "22",
    "clipName": null,
    "beat": 343.25,
    "relBeat": 31.25,
    "duration": 0.25,
    "velocity": 100,
    "pitch": 60
  },
  {
    "clipIndex": 497,
    "trackId": "22",
    "clipName": null,
    "beat": 343.25,
    "relBeat": 29.25,
    "duration": 0.25,
    "velocity": 100,
    "pitch": 60
  },
  {
    "clipIndex": 498,
    "trackId": "22",
    "clipName": null,
    "beat": 343.25,
    "relBeat": 27.25,
    "duration": 0.25,
    "velocity": 100,
    "pitch": 60
  },
  {
    "clipIndex": 499,
    "trackId": "22",
    "clipName": null,
    "beat": 343.25,
    "relBeat": 25.25,
    "duration": 0.25,
    "velocity": 100,
    "pitch": 60
  },
  {
    "clipIndex": 501,
    "trackId": "22",
    "clipName": null,
    "beat": 343.25,
    "relBeat": 21.25,
    "duration": 0.25,
    "velocity": 100,
    "pitch": 60
  },
  {
    "clipIndex": 502,
    "trackId": "22",
    "clipName": null,
    "beat": 343.25,
    "relBeat": 19.25,
    "duration": 0.25,
    "velocity": 100,
    "pitch": 60
  },
  {
    "clipIndex": 503,
    "trackId": "22",
    "clipName": null,
    "beat": 343.25,
    "relBeat": 17.25,
    "duration": 0.25,
    "velocity": 100,
    "pitch": 60
  },
  {
    "clipIndex": 504,
    "trackId": "22",
    "clipName": null,
    "beat": 343.25,
    "relBeat": 15.25,
    "duration": 0.25,
    "velocity": 100,
    "pitch": 60
  },
  {
    "clipIndex": 505,
    "trackId": "22",
    "clipName": null,
    "beat": 343.25,
    "relBeat": 13.25,
    "duration": 0.25,
    "velocity": 100,
    "pitch": 60
  },
  {
    "clipIndex": 507,
    "trackId": "22",
    "clipName": null,
    "beat": 343.25,
    "relBeat": 9.25,
    "duration": 0.25,
    "velocity": 100,
    "pitch": 60
  },
  {
    "clipIndex": 509,
    "trackId": "22",
    "clipName": null,
    "beat": 343.25,
    "relBeat": 5.25,
    "duration": 0.25,
    "velocity": 100,
    "pitch": 60
  },
  {
    "clipIndex": 510,
    "trackId": "22",
    "clipName": null,
    "beat": 343.25,
    "relBeat": 3.25,
    "duration": 0.25,
    "velocity": 100,
    "pitch": 60
  },
  {
    "clipIndex": 511,
    "trackId": "22",
    "clipName": null,
    "beat": 343.25,
    "relBeat": 1.25,
    "duration": 0.25,
    "velocity": 100,
    "pitch": 60
  },
  {
    "clipIndex": 495,
    "trackId": "22",
    "clipName": null,
    "beat": 343.5,
    "relBeat": 39.5,
    "duration": 0.25,
    "velocity": 100,
    "pitch": 60
  },
  {
    "clipIndex": 496,
    "trackId": "22",
    "clipName": null,
    "beat": 343.5,
    "relBeat": 31.5,
    "duration": 0.25,
    "velocity": 100,
    "pitch": 60
  },
  {
    "clipIndex": 497,
    "trackId": "22",
    "clipName": null,
    "beat": 343.5,
    "relBeat": 29.5,
    "duration": 0.25,
    "velocity": 100,
    "pitch": 60
  },
  {
    "clipIndex": 498,
    "trackId": "22",
    "clipName": null,
    "beat": 343.5,
    "relBeat": 27.5,
    "duration": 0.25,
    "velocity": 100,
    "pitch": 60
  },
  {
    "clipIndex": 499,
    "trackId": "22",
    "clipName": null,
    "beat": 343.5,
    "relBeat": 25.5,
    "duration": 0.25,
    "velocity": 100,
    "pitch": 60
  },
  {
    "clipIndex": 502,
    "trackId": "22",
    "clipName": null,
    "beat": 343.5,
    "relBeat": 19.5,
    "duration": 0.25,
    "velocity": 100,
    "pitch": 60
  },
  {
    "clipIndex": 503,
    "trackId": "22",
    "clipName": null,
    "beat": 343.5,
    "relBeat": 17.5,
    "duration": 0.25,
    "velocity": 100,
    "pitch": 60
  },
  {
    "clipIndex": 504,
    "trackId": "22",
    "clipName": null,
    "beat": 343.5,
    "relBeat": 15.5,
    "duration": 0.25,
    "velocity": 100,
    "pitch": 60
  },
  {
    "clipIndex": 505,
    "trackId": "22",
    "clipName": null,
    "beat": 343.5,
    "relBeat": 13.5,
    "duration": 0.25,
    "velocity": 100,
    "pitch": 60
  },
  {
    "clipIndex": 507,
    "trackId": "22",
    "clipName": null,
    "beat": 343.5,
    "relBeat": 9.5,
    "duration": 0.25,
    "velocity": 100,
    "pitch": 60
  },
  {
    "clipIndex": 509,
    "trackId": "22",
    "clipName": null,
    "beat": 343.5,
    "relBeat": 5.5,
    "duration": 0.25,
    "velocity": 100,
    "pitch": 60
  },
  {
    "clipIndex": 510,
    "trackId": "22",
    "clipName": null,
    "beat": 343.5,
    "relBeat": 3.5,
    "duration": 0.25,
    "velocity": 100,
    "pitch": 60
  },
  {
    "clipIndex": 511,
    "trackId": "22",
    "clipName": null,
    "beat": 343.5,
    "relBeat": 1.5,
    "duration": 0.25,
    "velocity": 100,
    "pitch": 60
  },
  {
    "clipIndex": 0,
    "trackId": "89",
    "clipName": null,
    "beat": 343.75,
    "relBeat": 343.75,
    "duration": 0.25,
    "velocity": 100,
    "pitch": 60
  },
  {
    "clipIndex": 495,
    "trackId": "22",
    "clipName": null,
    "beat": 343.75,
    "relBeat": 39.75,
    "duration": 0.25,
    "velocity": 100,
    "pitch": 60
  },
  {
    "clipIndex": 496,
    "trackId": "22",
    "clipName": null,
    "beat": 343.75,
    "relBeat": 31.75,
    "duration": 0.25,
    "velocity": 100,
    "pitch": 60
  },
  {
    "clipIndex": 497,
    "trackId": "22",
    "clipName": null,
    "beat": 343.75,
    "relBeat": 29.75,
    "duration": 0.25,
    "velocity": 100,
    "pitch": 60
  },
  {
    "clipIndex": 498,
    "trackId": "22",
    "clipName": null,
    "beat": 343.75,
    "relBeat": 27.75,
    "duration": 0.25,
    "velocity": 100,
    "pitch": 60
  },
  {
    "clipIndex": 499,
    "trackId": "22",
    "clipName": null,
    "beat": 343.75,
    "relBeat": 25.75,
    "duration": 0.25,
    "velocity": 100,
    "pitch": 60
  },
  {
    "clipIndex": 502,
    "trackId": "22",
    "clipName": null,
    "beat": 343.75,
    "relBeat": 19.75,
    "duration": 0.25,
    "velocity": 100,
    "pitch": 60
  },
  {
    "clipIndex": 503,
    "trackId": "22",
    "clipName": null,
    "beat": 343.75,
    "relBeat": 17.75,
    "duration": 0.25,
    "velocity": 100,
    "pitch": 60
  },
  {
    "clipIndex": 504,
    "trackId": "22",
    "clipName": null,
    "beat": 343.75,
    "relBeat": 15.75,
    "duration": 0.25,
    "velocity": 100,
    "pitch": 60
  },
  {
    "clipIndex": 505,
    "trackId": "22",
    "clipName": null,
    "beat": 343.75,
    "relBeat": 13.75,
    "duration": 0.25,
    "velocity": 100,
    "pitch": 60
  },
  {
    "clipIndex": 507,
    "trackId": "22",
    "clipName": null,
    "beat": 343.75,
    "relBeat": 9.75,
    "duration": 0.25,
    "velocity": 100,
    "pitch": 60
  },
  {
    "clipIndex": 509,
    "trackId": "22",
    "clipName": null,
    "beat": 343.75,
    "relBeat": 5.75,
    "duration": 0.25,
    "velocity": 100,
    "pitch": 60
  },
  {
    "clipIndex": 510,
    "trackId": "22",
    "clipName": null,
    "beat": 343.75,
    "relBeat": 3.75,
    "duration": 0.25,
    "velocity": 100,
    "pitch": 60
  },
  {
    "clipIndex": 511,
    "trackId": "22",
    "clipName": null,
    "beat": 343.75,
    "relBeat": 1.75,
    "duration": 0.25,
    "velocity": 100,
    "pitch": 60
  },
  {
    "clipIndex": 495,
    "trackId": "22",
    "clipName": null,
    "beat": 344,
    "relBeat": 40,
    "duration": 0.25,
    "velocity": 100,
    "pitch": 60
  },
  {
    "clipIndex": 497,
    "trackId": "22",
    "clipName": null,
    "beat": 344,
    "relBeat": 30,
    "duration": 0.25,
    "velocity": 100,
    "pitch": 60
  },
  {
    "clipIndex": 498,
    "trackId": "22",
    "clipName": null,
    "beat": 344,
    "relBeat": 28,
    "duration": 0.25,
    "velocity": 100,
    "pitch": 60
  },
  {
    "clipIndex": 499,
    "trackId": "22",
    "clipName": null,
    "beat": 344,
    "relBeat": 26,
    "duration": 0.25,
    "velocity": 100,
    "pitch": 60
  },
  {
    "clipIndex": 500,
    "trackId": "22",
    "clipName": null,
    "beat": 344,
    "relBeat": 24,
    "duration": 0.25,
    "velocity": 100,
    "pitch": 60
  },
  {
    "clipIndex": 502,
    "trackId": "22",
    "clipName": null,
    "beat": 344,
    "relBeat": 20,
    "duration": 0.25,
    "velocity": 100,
    "pitch": 60
  },
  {
    "clipIndex": 503,
    "trackId": "22",
    "clipName": null,
    "beat": 344,
    "relBeat": 18,
    "duration": 0.25,
    "velocity": 100,
    "pitch": 60
  },
  {
    "clipIndex": 504,
    "trackId": "22",
    "clipName": null,
    "beat": 344,
    "relBeat": 16,
    "duration": 0.25,
    "velocity": 100,
    "pitch": 60
  },
  {
    "clipIndex": 505,
    "trackId": "22",
    "clipName": null,
    "beat": 344,
    "relBeat": 14,
    "duration": 0.25,
    "velocity": 100,
    "pitch": 60
  },
  {
    "clipIndex": 506,
    "trackId": "22",
    "clipName": null,
    "beat": 344,
    "relBeat": 12,
    "duration": 0.25,
    "velocity": 100,
    "pitch": 60
  },
  {
    "clipIndex": 507,
    "trackId": "22",
    "clipName": null,
    "beat": 344,
    "relBeat": 10,
    "duration": 0.25,
    "velocity": 100,
    "pitch": 60
  },
  {
    "clipIndex": 510,
    "trackId": "22",
    "clipName": null,
    "beat": 344,
    "relBeat": 4,
    "duration": 0.25,
    "velocity": 100,
    "pitch": 60
  },
  {
    "clipIndex": 511,
    "trackId": "22",
    "clipName": null,
    "beat": 344,
    "relBeat": 2,
    "duration": 0.25,
    "velocity": 100,
    "pitch": 60
  },
  {
    "clipIndex": 512,
    "trackId": "22",
    "clipName": null,
    "beat": 344,
    "relBeat": 0,
    "duration": 0.25,
    "velocity": 100,
    "pitch": 60
  },
  {
    "clipIndex": 0,
    "trackId": "89",
    "clipName": null,
    "beat": 344.25,
    "relBeat": 344.25,
    "duration": 0.25,
    "velocity": 100,
    "pitch": 60
  },
  {
    "clipIndex": 495,
    "trackId": "22",
    "clipName": null,
    "beat": 344.25,
    "relBeat": 40.25,
    "duration": 0.25,
    "velocity": 100,
    "pitch": 60
  },
  {
    "clipIndex": 497,
    "trackId": "22",
    "clipName": null,
    "beat": 344.25,
    "relBeat": 30.25,
    "duration": 0.25,
    "velocity": 100,
    "pitch": 60
  },
  {
    "clipIndex": 498,
    "trackId": "22",
    "clipName": null,
    "beat": 344.25,
    "relBeat": 28.25,
    "duration": 0.25,
    "velocity": 100,
    "pitch": 60
  },
  {
    "clipIndex": 499,
    "trackId": "22",
    "clipName": null,
    "beat": 344.25,
    "relBeat": 26.25,
    "duration": 0.25,
    "velocity": 100,
    "pitch": 60
  },
  {
    "clipIndex": 500,
    "trackId": "22",
    "clipName": null,
    "beat": 344.25,
    "relBeat": 24.25,
    "duration": 0.25,
    "velocity": 100,
    "pitch": 60
  },
  {
    "clipIndex": 502,
    "trackId": "22",
    "clipName": null,
    "beat": 344.25,
    "relBeat": 20.25,
    "duration": 0.25,
    "velocity": 100,
    "pitch": 60
  },
  {
    "clipIndex": 503,
    "trackId": "22",
    "clipName": null,
    "beat": 344.25,
    "relBeat": 18.25,
    "duration": 0.25,
    "velocity": 100,
    "pitch": 60
  },
  {
    "clipIndex": 504,
    "trackId": "22",
    "clipName": null,
    "beat": 344.25,
    "relBeat": 16.25,
    "duration": 0.25,
    "velocity": 100,
    "pitch": 60
  },
  {
    "clipIndex": 505,
    "trackId": "22",
    "clipName": null,
    "beat": 344.25,
    "relBeat": 14.25,
    "duration": 0.25,
    "velocity": 100,
    "pitch": 60
  },
  {
    "clipIndex": 506,
    "trackId": "22",
    "clipName": null,
    "beat": 344.25,
    "relBeat": 12.25,
    "duration": 0.25,
    "velocity": 100,
    "pitch": 60
  },
  {
    "clipIndex": 510,
    "trackId": "22",
    "clipName": null,
    "beat": 344.25,
    "relBeat": 4.25,
    "duration": 0.25,
    "velocity": 100,
    "pitch": 60
  },
  {
    "clipIndex": 511,
    "trackId": "22",
    "clipName": null,
    "beat": 344.25,
    "relBeat": 2.25,
    "duration": 0.25,
    "velocity": 100,
    "pitch": 60
  },
  {
    "clipIndex": 512,
    "trackId": "22",
    "clipName": null,
    "beat": 344.25,
    "relBeat": 0.25,
    "duration": 0.25,
    "velocity": 100,
    "pitch": 60
  },
  {
    "clipIndex": 497,
    "trackId": "22",
    "clipName": null,
    "beat": 344.5,
    "relBeat": 30.5,
    "duration": 0.25,
    "velocity": 100,
    "pitch": 60
  },
  {
    "clipIndex": 498,
    "trackId": "22",
    "clipName": null,
    "beat": 344.5,
    "relBeat": 28.5,
    "duration": 0.25,
    "velocity": 100,
    "pitch": 60
  },
  {
    "clipIndex": 499,
    "trackId": "22",
    "clipName": null,
    "beat": 344.5,
    "relBeat": 26.5,
    "duration": 0.25,
    "velocity": 100,
    "pitch": 60
  },
  {
    "clipIndex": 500,
    "trackId": "22",
    "clipName": null,
    "beat": 344.5,
    "relBeat": 24.5,
    "duration": 0.25,
    "velocity": 100,
    "pitch": 60
  },
  {
    "clipIndex": 502,
    "trackId": "22",
    "clipName": null,
    "beat": 344.5,
    "relBeat": 20.5,
    "duration": 0.25,
    "velocity": 100,
    "pitch": 60
  },
  {
    "clipIndex": 503,
    "trackId": "22",
    "clipName": null,
    "beat": 344.5,
    "relBeat": 18.5,
    "duration": 0.25,
    "velocity": 100,
    "pitch": 60
  },
  {
    "clipIndex": 504,
    "trackId": "22",
    "clipName": null,
    "beat": 344.5,
    "relBeat": 16.5,
    "duration": 0.25,
    "velocity": 100,
    "pitch": 60
  },
  {
    "clipIndex": 505,
    "trackId": "22",
    "clipName": null,
    "beat": 344.5,
    "relBeat": 14.5,
    "duration": 0.25,
    "velocity": 100,
    "pitch": 60
  },
  {
    "clipIndex": 506,
    "trackId": "22",
    "clipName": null,
    "beat": 344.5,
    "relBeat": 12.5,
    "duration": 0.25,
    "velocity": 100,
    "pitch": 60
  },
  {
    "clipIndex": 510,
    "trackId": "22",
    "clipName": null,
    "beat": 344.5,
    "relBeat": 4.5,
    "duration": 0.25,
    "velocity": 100,
    "pitch": 60
  },
  {
    "clipIndex": 511,
    "trackId": "22",
    "clipName": null,
    "beat": 344.5,
    "relBeat": 2.5,
    "duration": 0.25,
    "velocity": 100,
    "pitch": 60
  },
  {
    "clipIndex": 512,
    "trackId": "22",
    "clipName": null,
    "beat": 344.5,
    "relBeat": 0.5,
    "duration": 0.25,
    "velocity": 100,
    "pitch": 60
  },
  {
    "clipIndex": 0,
    "trackId": "89",
    "clipName": null,
    "beat": 344.75,
    "relBeat": 344.75,
    "duration": 0.25,
    "velocity": 100,
    "pitch": 60
  },
  {
    "clipIndex": 497,
    "trackId": "22",
    "clipName": null,
    "beat": 344.75,
    "relBeat": 30.75,
    "duration": 0.25,
    "velocity": 100,
    "pitch": 60
  },
  {
    "clipIndex": 498,
    "trackId": "22",
    "clipName": null,
    "beat": 344.75,
    "relBeat": 28.75,
    "duration": 0.25,
    "velocity": 100,
    "pitch": 60
  },
  {
    "clipIndex": 499,
    "trackId": "22",
    "clipName": null,
    "beat": 344.75,
    "relBeat": 26.75,
    "duration": 0.25,
    "velocity": 100,
    "pitch": 60
  },
  {
    "clipIndex": 500,
    "trackId": "22",
    "clipName": null,
    "beat": 344.75,
    "relBeat": 24.75,
    "duration": 0.25,
    "velocity": 100,
    "pitch": 60
  },
  {
    "clipIndex": 502,
    "trackId": "22",
    "clipName": null,
    "beat": 344.75,
    "relBeat": 20.75,
    "duration": 0.25,
    "velocity": 100,
    "pitch": 60
  },
  {
    "clipIndex": 503,
    "trackId": "22",
    "clipName": null,
    "beat": 344.75,
    "relBeat": 18.75,
    "duration": 0.25,
    "velocity": 100,
    "pitch": 60
  },
  {
    "clipIndex": 504,
    "trackId": "22",
    "clipName": null,
    "beat": 344.75,
    "relBeat": 16.75,
    "duration": 0.25,
    "velocity": 100,
    "pitch": 60
  },
  {
    "clipIndex": 505,
    "trackId": "22",
    "clipName": null,
    "beat": 344.75,
    "relBeat": 14.75,
    "duration": 0.25,
    "velocity": 100,
    "pitch": 60
  },
  {
    "clipIndex": 506,
    "trackId": "22",
    "clipName": null,
    "beat": 344.75,
    "relBeat": 12.75,
    "duration": 0.25,
    "velocity": 100,
    "pitch": 60
  },
  {
    "clipIndex": 510,
    "trackId": "22",
    "clipName": null,
    "beat": 344.75,
    "relBeat": 4.75,
    "duration": 0.25,
    "velocity": 100,
    "pitch": 60
  },
  {
    "clipIndex": 511,
    "trackId": "22",
    "clipName": null,
    "beat": 344.75,
    "relBeat": 2.75,
    "duration": 0.25,
    "velocity": 100,
    "pitch": 60
  },
  {
    "clipIndex": 512,
    "trackId": "22",
    "clipName": null,
    "beat": 344.75,
    "relBeat": 0.75,
    "duration": 0.25,
    "velocity": 100,
    "pitch": 60
  },
  {
    "clipIndex": 495,
    "trackId": "22",
    "clipName": null,
    "beat": 345,
    "relBeat": 41,
    "duration": 0.25,
    "velocity": 100,
    "pitch": 60
  },
  {
    "clipIndex": 497,
    "trackId": "22",
    "clipName": null,
    "beat": 345,
    "relBeat": 31,
    "duration": 0.25,
    "velocity": 100,
    "pitch": 60
  },
  {
    "clipIndex": 498,
    "trackId": "22",
    "clipName": null,
    "beat": 345,
    "relBeat": 29,
    "duration": 0.25,
    "velocity": 100,
    "pitch": 60
  },
  {
    "clipIndex": 499,
    "trackId": "22",
    "clipName": null,
    "beat": 345,
    "relBeat": 27,
    "duration": 0.25,
    "velocity": 100,
    "pitch": 60
  },
  {
    "clipIndex": 500,
    "trackId": "22",
    "clipName": null,
    "beat": 345,
    "relBeat": 25,
    "duration": 0.25,
    "velocity": 100,
    "pitch": 60
  },
  {
    "clipIndex": 502,
    "trackId": "22",
    "clipName": null,
    "beat": 345,
    "relBeat": 21,
    "duration": 0.25,
    "velocity": 100,
    "pitch": 60
  },
  {
    "clipIndex": 503,
    "trackId": "22",
    "clipName": null,
    "beat": 345,
    "relBeat": 19,
    "duration": 0.25,
    "velocity": 100,
    "pitch": 60
  },
  {
    "clipIndex": 504,
    "trackId": "22",
    "clipName": null,
    "beat": 345,
    "relBeat": 17,
    "duration": 0.25,
    "velocity": 100,
    "pitch": 60
  },
  {
    "clipIndex": 505,
    "trackId": "22",
    "clipName": null,
    "beat": 345,
    "relBeat": 15,
    "duration": 0.25,
    "velocity": 100,
    "pitch": 60
  },
  {
    "clipIndex": 506,
    "trackId": "22",
    "clipName": null,
    "beat": 345,
    "relBeat": 13,
    "duration": 0.25,
    "velocity": 100,
    "pitch": 60
  },
  {
    "clipIndex": 508,
    "trackId": "22",
    "clipName": null,
    "beat": 345,
    "relBeat": 9,
    "duration": 0.25,
    "velocity": 100,
    "pitch": 60
  },
  {
    "clipIndex": 510,
    "trackId": "22",
    "clipName": null,
    "beat": 345,
    "relBeat": 5,
    "duration": 0.25,
    "velocity": 100,
    "pitch": 60
  },
  {
    "clipIndex": 511,
    "trackId": "22",
    "clipName": null,
    "beat": 345,
    "relBeat": 3,
    "duration": 0.25,
    "velocity": 100,
    "pitch": 60
  },
  {
    "clipIndex": 512,
    "trackId": "22",
    "clipName": null,
    "beat": 345,
    "relBeat": 1,
    "duration": 0.25,
    "velocity": 100,
    "pitch": 60
  },
  {
    "clipIndex": 0,
    "trackId": "89",
    "clipName": null,
    "beat": 345.25,
    "relBeat": 345.25,
    "duration": 0.25,
    "velocity": 100,
    "pitch": 60
  },
  {
    "clipIndex": 343,
    "trackId": "55",
    "clipName": null,
    "beat": 345.25,
    "relBeat": 105.25,
    "duration": 0.25000026015651017,
    "velocity": 100,
    "pitch": 60
  },
  {
    "clipIndex": 495,
    "trackId": "22",
    "clipName": null,
    "beat": 345.25,
    "relBeat": 41.25,
    "duration": 0.25,
    "velocity": 100,
    "pitch": 60
  },
  {
    "clipIndex": 497,
    "trackId": "22",
    "clipName": null,
    "beat": 345.25,
    "relBeat": 31.25,
    "duration": 0.25,
    "velocity": 100,
    "pitch": 60
  },
  {
    "clipIndex": 498,
    "trackId": "22",
    "clipName": null,
    "beat": 345.25,
    "relBeat": 29.25,
    "duration": 0.25,
    "velocity": 100,
    "pitch": 60
  },
  {
    "clipIndex": 499,
    "trackId": "22",
    "clipName": null,
    "beat": 345.25,
    "relBeat": 27.25,
    "duration": 0.25,
    "velocity": 100,
    "pitch": 60
  },
  {
    "clipIndex": 500,
    "trackId": "22",
    "clipName": null,
    "beat": 345.25,
    "relBeat": 25.25,
    "duration": 0.25,
    "velocity": 100,
    "pitch": 60
  },
  {
    "clipIndex": 502,
    "trackId": "22",
    "clipName": null,
    "beat": 345.25,
    "relBeat": 21.25,
    "duration": 0.25,
    "velocity": 100,
    "pitch": 60
  },
  {
    "clipIndex": 503,
    "trackId": "22",
    "clipName": null,
    "beat": 345.25,
    "relBeat": 19.25,
    "duration": 0.25,
    "velocity": 100,
    "pitch": 60
  },
  {
    "clipIndex": 504,
    "trackId": "22",
    "clipName": null,
    "beat": 345.25,
    "relBeat": 17.25,
    "duration": 0.25,
    "velocity": 100,
    "pitch": 60
  },
  {
    "clipIndex": 505,
    "trackId": "22",
    "clipName": null,
    "beat": 345.25,
    "relBeat": 15.25,
    "duration": 0.25,
    "velocity": 100,
    "pitch": 60
  },
  {
    "clipIndex": 506,
    "trackId": "22",
    "clipName": null,
    "beat": 345.25,
    "relBeat": 13.25,
    "duration": 0.25,
    "velocity": 100,
    "pitch": 60
  },
  {
    "clipIndex": 508,
    "trackId": "22",
    "clipName": null,
    "beat": 345.25,
    "relBeat": 9.25,
    "duration": 0.25,
    "velocity": 100,
    "pitch": 60
  },
  {
    "clipIndex": 510,
    "trackId": "22",
    "clipName": null,
    "beat": 345.25,
    "relBeat": 5.25,
    "duration": 0.25,
    "velocity": 100,
    "pitch": 60
  },
  {
    "clipIndex": 511,
    "trackId": "22",
    "clipName": null,
    "beat": 345.25,
    "relBeat": 3.25,
    "duration": 0.25,
    "velocity": 100,
    "pitch": 60
  },
  {
    "clipIndex": 512,
    "trackId": "22",
    "clipName": null,
    "beat": 345.25,
    "relBeat": 1.25,
    "duration": 0.25,
    "velocity": 100,
    "pitch": 60
  },
  {
    "clipIndex": 495,
    "trackId": "22",
    "clipName": null,
    "beat": 345.5,
    "relBeat": 41.5,
    "duration": 0.25,
    "velocity": 100,
    "pitch": 60
  },
  {
    "clipIndex": 497,
    "trackId": "22",
    "clipName": null,
    "beat": 345.5,
    "relBeat": 31.5,
    "duration": 0.25,
    "velocity": 100,
    "pitch": 60
  },
  {
    "clipIndex": 498,
    "trackId": "22",
    "clipName": null,
    "beat": 345.5,
    "relBeat": 29.5,
    "duration": 0.25,
    "velocity": 100,
    "pitch": 60
  },
  {
    "clipIndex": 499,
    "trackId": "22",
    "clipName": null,
    "beat": 345.5,
    "relBeat": 27.5,
    "duration": 0.25,
    "velocity": 100,
    "pitch": 60
  },
  {
    "clipIndex": 500,
    "trackId": "22",
    "clipName": null,
    "beat": 345.5,
    "relBeat": 25.5,
    "duration": 0.25,
    "velocity": 100,
    "pitch": 60
  },
  {
    "clipIndex": 503,
    "trackId": "22",
    "clipName": null,
    "beat": 345.5,
    "relBeat": 19.5,
    "duration": 0.25,
    "velocity": 100,
    "pitch": 60
  },
  {
    "clipIndex": 504,
    "trackId": "22",
    "clipName": null,
    "beat": 345.5,
    "relBeat": 17.5,
    "duration": 0.25,
    "velocity": 100,
    "pitch": 60
  },
  {
    "clipIndex": 505,
    "trackId": "22",
    "clipName": null,
    "beat": 345.5,
    "relBeat": 15.5,
    "duration": 0.25,
    "velocity": 100,
    "pitch": 60
  },
  {
    "clipIndex": 506,
    "trackId": "22",
    "clipName": null,
    "beat": 345.5,
    "relBeat": 13.5,
    "duration": 0.25,
    "velocity": 100,
    "pitch": 60
  },
  {
    "clipIndex": 508,
    "trackId": "22",
    "clipName": null,
    "beat": 345.5,
    "relBeat": 9.5,
    "duration": 0.25,
    "velocity": 100,
    "pitch": 60
  },
  {
    "clipIndex": 510,
    "trackId": "22",
    "clipName": null,
    "beat": 345.5,
    "relBeat": 5.5,
    "duration": 0.25,
    "velocity": 100,
    "pitch": 60
  },
  {
    "clipIndex": 511,
    "trackId": "22",
    "clipName": null,
    "beat": 345.5,
    "relBeat": 3.5,
    "duration": 0.25,
    "velocity": 100,
    "pitch": 60
  },
  {
    "clipIndex": 512,
    "trackId": "22",
    "clipName": null,
    "beat": 345.5,
    "relBeat": 1.5,
    "duration": 0.25,
    "velocity": 100,
    "pitch": 60
  },
  {
    "clipIndex": 0,
    "trackId": "89",
    "clipName": null,
    "beat": 345.75,
    "relBeat": 345.75,
    "duration": 0.25,
    "velocity": 100,
    "pitch": 60
  },
  {
    "clipIndex": 495,
    "trackId": "22",
    "clipName": null,
    "beat": 345.75,
    "relBeat": 41.75,
    "duration": 0.25,
    "velocity": 100,
    "pitch": 60
  },
  {
    "clipIndex": 497,
    "trackId": "22",
    "clipName": null,
    "beat": 345.75,
    "relBeat": 31.75,
    "duration": 0.25,
    "velocity": 100,
    "pitch": 60
  },
  {
    "clipIndex": 498,
    "trackId": "22",
    "clipName": null,
    "beat": 345.75,
    "relBeat": 29.75,
    "duration": 0.25,
    "velocity": 100,
    "pitch": 60
  },
  {
    "clipIndex": 499,
    "trackId": "22",
    "clipName": null,
    "beat": 345.75,
    "relBeat": 27.75,
    "duration": 0.25,
    "velocity": 100,
    "pitch": 60
  },
  {
    "clipIndex": 500,
    "trackId": "22",
    "clipName": null,
    "beat": 345.75,
    "relBeat": 25.75,
    "duration": 0.25,
    "velocity": 100,
    "pitch": 60
  },
  {
    "clipIndex": 503,
    "trackId": "22",
    "clipName": null,
    "beat": 345.75,
    "relBeat": 19.75,
    "duration": 0.25,
    "velocity": 100,
    "pitch": 60
  },
  {
    "clipIndex": 504,
    "trackId": "22",
    "clipName": null,
    "beat": 345.75,
    "relBeat": 17.75,
    "duration": 0.25,
    "velocity": 100,
    "pitch": 60
  },
  {
    "clipIndex": 505,
    "trackId": "22",
    "clipName": null,
    "beat": 345.75,
    "relBeat": 15.75,
    "duration": 0.25,
    "velocity": 100,
    "pitch": 60
  },
  {
    "clipIndex": 506,
    "trackId": "22",
    "clipName": null,
    "beat": 345.75,
    "relBeat": 13.75,
    "duration": 0.25,
    "velocity": 100,
    "pitch": 60
  },
  {
    "clipIndex": 508,
    "trackId": "22",
    "clipName": null,
    "beat": 345.75,
    "relBeat": 9.75,
    "duration": 0.25,
    "velocity": 100,
    "pitch": 60
  },
  {
    "clipIndex": 510,
    "trackId": "22",
    "clipName": null,
    "beat": 345.75,
    "relBeat": 5.75,
    "duration": 0.25,
    "velocity": 100,
    "pitch": 60
  },
  {
    "clipIndex": 511,
    "trackId": "22",
    "clipName": null,
    "beat": 345.75,
    "relBeat": 3.75,
    "duration": 0.25,
    "velocity": 100,
    "pitch": 60
  },
  {
    "clipIndex": 512,
    "trackId": "22",
    "clipName": null,
    "beat": 345.75,
    "relBeat": 1.75,
    "duration": 0.25,
    "velocity": 100,
    "pitch": 60
  },
  {
    "clipIndex": 343,
    "trackId": "55",
    "clipName": null,
    "beat": 346,
    "relBeat": 106,
    "duration": 0.25000026015651017,
    "velocity": 100,
    "pitch": 60
  },
  {
    "clipIndex": 498,
    "trackId": "22",
    "clipName": null,
    "beat": 346,
    "relBeat": 30,
    "duration": 0.25,
    "velocity": 100,
    "pitch": 60
  },
  {
    "clipIndex": 499,
    "trackId": "22",
    "clipName": null,
    "beat": 346,
    "relBeat": 28,
    "duration": 0.25,
    "velocity": 100,
    "pitch": 60
  },
  {
    "clipIndex": 500,
    "trackId": "22",
    "clipName": null,
    "beat": 346,
    "relBeat": 26,
    "duration": 0.25,
    "velocity": 100,
    "pitch": 60
  },
  {
    "clipIndex": 501,
    "trackId": "22",
    "clipName": null,
    "beat": 346,
    "relBeat": 24,
    "duration": 0.25,
    "velocity": 100,
    "pitch": 60
  },
  {
    "clipIndex": 503,
    "trackId": "22",
    "clipName": null,
    "beat": 346,
    "relBeat": 20,
    "duration": 0.25,
    "velocity": 100,
    "pitch": 60
  },
  {
    "clipIndex": 504,
    "trackId": "22",
    "clipName": null,
    "beat": 346,
    "relBeat": 18,
    "duration": 0.25,
    "velocity": 100,
    "pitch": 60
  },
  {
    "clipIndex": 505,
    "trackId": "22",
    "clipName": null,
    "beat": 346,
    "relBeat": 16,
    "duration": 0.25,
    "velocity": 100,
    "pitch": 60
  },
  {
    "clipIndex": 506,
    "trackId": "22",
    "clipName": null,
    "beat": 346,
    "relBeat": 14,
    "duration": 0.25,
    "velocity": 100,
    "pitch": 60
  },
  {
    "clipIndex": 507,
    "trackId": "22",
    "clipName": null,
    "beat": 346,
    "relBeat": 12,
    "duration": 0.25,
    "velocity": 100,
    "pitch": 60
  },
  {
    "clipIndex": 508,
    "trackId": "22",
    "clipName": null,
    "beat": 346,
    "relBeat": 10,
    "duration": 0.25,
    "velocity": 100,
    "pitch": 60
  },
  {
    "clipIndex": 511,
    "trackId": "22",
    "clipName": null,
    "beat": 346,
    "relBeat": 4,
    "duration": 0.25,
    "velocity": 100,
    "pitch": 60
  },
  {
    "clipIndex": 512,
    "trackId": "22",
    "clipName": null,
    "beat": 346,
    "relBeat": 2,
    "duration": 0.25,
    "velocity": 100,
    "pitch": 60
  },
  {
    "clipIndex": 513,
    "trackId": "22",
    "clipName": null,
    "beat": 346,
    "relBeat": 0,
    "duration": 0.25,
    "velocity": 100,
    "pitch": 60
  },
  {
    "clipIndex": 0,
    "trackId": "89",
    "clipName": null,
    "beat": 346.25,
    "relBeat": 346.25,
    "duration": 0.25,
    "velocity": 100,
    "pitch": 60
  },
  {
    "clipIndex": 498,
    "trackId": "22",
    "clipName": null,
    "beat": 346.25,
    "relBeat": 30.25,
    "duration": 0.25,
    "velocity": 100,
    "pitch": 60
  },
  {
    "clipIndex": 499,
    "trackId": "22",
    "clipName": null,
    "beat": 346.25,
    "relBeat": 28.25,
    "duration": 0.25,
    "velocity": 100,
    "pitch": 60
  },
  {
    "clipIndex": 500,
    "trackId": "22",
    "clipName": null,
    "beat": 346.25,
    "relBeat": 26.25,
    "duration": 0.25,
    "velocity": 100,
    "pitch": 60
  },
  {
    "clipIndex": 501,
    "trackId": "22",
    "clipName": null,
    "beat": 346.25,
    "relBeat": 24.25,
    "duration": 0.25,
    "velocity": 100,
    "pitch": 60
  },
  {
    "clipIndex": 503,
    "trackId": "22",
    "clipName": null,
    "beat": 346.25,
    "relBeat": 20.25,
    "duration": 0.25,
    "velocity": 100,
    "pitch": 60
  },
  {
    "clipIndex": 504,
    "trackId": "22",
    "clipName": null,
    "beat": 346.25,
    "relBeat": 18.25,
    "duration": 0.25,
    "velocity": 100,
    "pitch": 60
  },
  {
    "clipIndex": 505,
    "trackId": "22",
    "clipName": null,
    "beat": 346.25,
    "relBeat": 16.25,
    "duration": 0.25,
    "velocity": 100,
    "pitch": 60
  },
  {
    "clipIndex": 506,
    "trackId": "22",
    "clipName": null,
    "beat": 346.25,
    "relBeat": 14.25,
    "duration": 0.25,
    "velocity": 100,
    "pitch": 60
  },
  {
    "clipIndex": 507,
    "trackId": "22",
    "clipName": null,
    "beat": 346.25,
    "relBeat": 12.25,
    "duration": 0.25,
    "velocity": 100,
    "pitch": 60
  },
  {
    "clipIndex": 511,
    "trackId": "22",
    "clipName": null,
    "beat": 346.25,
    "relBeat": 4.25,
    "duration": 0.25,
    "velocity": 100,
    "pitch": 60
  },
  {
    "clipIndex": 512,
    "trackId": "22",
    "clipName": null,
    "beat": 346.25,
    "relBeat": 2.25,
    "duration": 0.25,
    "velocity": 100,
    "pitch": 60
  },
  {
    "clipIndex": 513,
    "trackId": "22",
    "clipName": null,
    "beat": 346.25,
    "relBeat": 0.25,
    "duration": 0.25,
    "velocity": 100,
    "pitch": 60
  },
  {
    "clipIndex": 0,
    "trackId": "89",
    "clipName": null,
    "beat": 346.5,
    "relBeat": 346.5,
    "duration": 0.25,
    "velocity": 100,
    "pitch": 60
  },
  {
    "clipIndex": 495,
    "trackId": "22",
    "clipName": null,
    "beat": 346.5,
    "relBeat": 42.5,
    "duration": 0.25,
    "velocity": 100,
    "pitch": 60
  },
  {
    "clipIndex": 498,
    "trackId": "22",
    "clipName": null,
    "beat": 346.5,
    "relBeat": 30.5,
    "duration": 0.25,
    "velocity": 100,
    "pitch": 60
  },
  {
    "clipIndex": 499,
    "trackId": "22",
    "clipName": null,
    "beat": 346.5,
    "relBeat": 28.5,
    "duration": 0.25,
    "velocity": 100,
    "pitch": 60
  },
  {
    "clipIndex": 500,
    "trackId": "22",
    "clipName": null,
    "beat": 346.5,
    "relBeat": 26.5,
    "duration": 0.25,
    "velocity": 100,
    "pitch": 60
  },
  {
    "clipIndex": 501,
    "trackId": "22",
    "clipName": null,
    "beat": 346.5,
    "relBeat": 24.5,
    "duration": 0.25,
    "velocity": 100,
    "pitch": 60
  },
  {
    "clipIndex": 503,
    "trackId": "22",
    "clipName": null,
    "beat": 346.5,
    "relBeat": 20.5,
    "duration": 0.25,
    "velocity": 100,
    "pitch": 60
  },
  {
    "clipIndex": 504,
    "trackId": "22",
    "clipName": null,
    "beat": 346.5,
    "relBeat": 18.5,
    "duration": 0.25,
    "velocity": 100,
    "pitch": 60
  },
  {
    "clipIndex": 505,
    "trackId": "22",
    "clipName": null,
    "beat": 346.5,
    "relBeat": 16.5,
    "duration": 0.25,
    "velocity": 100,
    "pitch": 60
  },
  {
    "clipIndex": 506,
    "trackId": "22",
    "clipName": null,
    "beat": 346.5,
    "relBeat": 14.5,
    "duration": 0.25,
    "velocity": 100,
    "pitch": 60
  },
  {
    "clipIndex": 507,
    "trackId": "22",
    "clipName": null,
    "beat": 346.5,
    "relBeat": 12.5,
    "duration": 0.25,
    "velocity": 100,
    "pitch": 60
  },
  {
    "clipIndex": 511,
    "trackId": "22",
    "clipName": null,
    "beat": 346.5,
    "relBeat": 4.5,
    "duration": 0.25,
    "velocity": 100,
    "pitch": 60
  },
  {
    "clipIndex": 512,
    "trackId": "22",
    "clipName": null,
    "beat": 346.5,
    "relBeat": 2.5,
    "duration": 0.25,
    "velocity": 100,
    "pitch": 60
  },
  {
    "clipIndex": 513,
    "trackId": "22",
    "clipName": null,
    "beat": 346.5,
    "relBeat": 0.5,
    "duration": 0.25,
    "velocity": 100,
    "pitch": 60
  },
  {
    "clipIndex": 0,
    "trackId": "89",
    "clipName": null,
    "beat": 346.75,
    "relBeat": 346.75,
    "duration": 0.25,
    "velocity": 100,
    "pitch": 60
  },
  {
    "clipIndex": 343,
    "trackId": "55",
    "clipName": null,
    "beat": 346.75,
    "relBeat": 106.75,
    "duration": 0.25000026015651017,
    "velocity": 100,
    "pitch": 60
  },
  {
    "clipIndex": 495,
    "trackId": "22",
    "clipName": null,
    "beat": 346.75,
    "relBeat": 42.75,
    "duration": 0.25,
    "velocity": 100,
    "pitch": 60
  },
  {
    "clipIndex": 498,
    "trackId": "22",
    "clipName": null,
    "beat": 346.75,
    "relBeat": 30.75,
    "duration": 0.25,
    "velocity": 100,
    "pitch": 60
  },
  {
    "clipIndex": 499,
    "trackId": "22",
    "clipName": null,
    "beat": 346.75,
    "relBeat": 28.75,
    "duration": 0.25,
    "velocity": 100,
    "pitch": 60
  },
  {
    "clipIndex": 500,
    "trackId": "22",
    "clipName": null,
    "beat": 346.75,
    "relBeat": 26.75,
    "duration": 0.25,
    "velocity": 100,
    "pitch": 60
  },
  {
    "clipIndex": 501,
    "trackId": "22",
    "clipName": null,
    "beat": 346.75,
    "relBeat": 24.75,
    "duration": 0.25,
    "velocity": 100,
    "pitch": 60
  },
  {
    "clipIndex": 503,
    "trackId": "22",
    "clipName": null,
    "beat": 346.75,
    "relBeat": 20.75,
    "duration": 0.25,
    "velocity": 100,
    "pitch": 60
  },
  {
    "clipIndex": 504,
    "trackId": "22",
    "clipName": null,
    "beat": 346.75,
    "relBeat": 18.75,
    "duration": 0.25,
    "velocity": 100,
    "pitch": 60
  },
  {
    "clipIndex": 505,
    "trackId": "22",
    "clipName": null,
    "beat": 346.75,
    "relBeat": 16.75,
    "duration": 0.25,
    "velocity": 100,
    "pitch": 60
  },
  {
    "clipIndex": 506,
    "trackId": "22",
    "clipName": null,
    "beat": 346.75,
    "relBeat": 14.75,
    "duration": 0.25,
    "velocity": 100,
    "pitch": 60
  },
  {
    "clipIndex": 507,
    "trackId": "22",
    "clipName": null,
    "beat": 346.75,
    "relBeat": 12.75,
    "duration": 0.25,
    "velocity": 100,
    "pitch": 60
  },
  {
    "clipIndex": 511,
    "trackId": "22",
    "clipName": null,
    "beat": 346.75,
    "relBeat": 4.75,
    "duration": 0.25,
    "velocity": 100,
    "pitch": 60
  },
  {
    "clipIndex": 512,
    "trackId": "22",
    "clipName": null,
    "beat": 346.75,
    "relBeat": 2.75,
    "duration": 0.25,
    "velocity": 100,
    "pitch": 60
  },
  {
    "clipIndex": 513,
    "trackId": "22",
    "clipName": null,
    "beat": 346.75,
    "relBeat": 0.75,
    "duration": 0.25,
    "velocity": 100,
    "pitch": 60
  },
  {
    "clipIndex": 0,
    "trackId": "89",
    "clipName": null,
    "beat": 347,
    "relBeat": 347,
    "duration": 0.25,
    "velocity": 100,
    "pitch": 60
  },
  {
    "clipIndex": 495,
    "trackId": "22",
    "clipName": null,
    "beat": 347,
    "relBeat": 43,
    "duration": 0.25,
    "velocity": 100,
    "pitch": 60
  },
  {
    "clipIndex": 498,
    "trackId": "22",
    "clipName": null,
    "beat": 347,
    "relBeat": 31,
    "duration": 0.25,
    "velocity": 100,
    "pitch": 60
  },
  {
    "clipIndex": 499,
    "trackId": "22",
    "clipName": null,
    "beat": 347,
    "relBeat": 29,
    "duration": 0.25,
    "velocity": 100,
    "pitch": 60
  },
  {
    "clipIndex": 500,
    "trackId": "22",
    "clipName": null,
    "beat": 347,
    "relBeat": 27,
    "duration": 0.25,
    "velocity": 100,
    "pitch": 60
  },
  {
    "clipIndex": 501,
    "trackId": "22",
    "clipName": null,
    "beat": 347,
    "relBeat": 25,
    "duration": 0.25,
    "velocity": 100,
    "pitch": 60
  },
  {
    "clipIndex": 503,
    "trackId": "22",
    "clipName": null,
    "beat": 347,
    "relBeat": 21,
    "duration": 0.25,
    "velocity": 100,
    "pitch": 60
  },
  {
    "clipIndex": 504,
    "trackId": "22",
    "clipName": null,
    "beat": 347,
    "relBeat": 19,
    "duration": 0.25,
    "velocity": 100,
    "pitch": 60
  },
  {
    "clipIndex": 505,
    "trackId": "22",
    "clipName": null,
    "beat": 347,
    "relBeat": 17,
    "duration": 0.25,
    "velocity": 100,
    "pitch": 60
  },
  {
    "clipIndex": 506,
    "trackId": "22",
    "clipName": null,
    "beat": 347,
    "relBeat": 15,
    "duration": 0.25,
    "velocity": 100,
    "pitch": 60
  },
  {
    "clipIndex": 507,
    "trackId": "22",
    "clipName": null,
    "beat": 347,
    "relBeat": 13,
    "duration": 0.25,
    "velocity": 100,
    "pitch": 60
  },
  {
    "clipIndex": 509,
    "trackId": "22",
    "clipName": null,
    "beat": 347,
    "relBeat": 9,
    "duration": 0.25,
    "velocity": 100,
    "pitch": 60
  },
  {
    "clipIndex": 511,
    "trackId": "22",
    "clipName": null,
    "beat": 347,
    "relBeat": 5,
    "duration": 0.25,
    "velocity": 100,
    "pitch": 60
  },
  {
    "clipIndex": 512,
    "trackId": "22",
    "clipName": null,
    "beat": 347,
    "relBeat": 3,
    "duration": 0.25,
    "velocity": 100,
    "pitch": 60
  },
  {
    "clipIndex": 513,
    "trackId": "22",
    "clipName": null,
    "beat": 347,
    "relBeat": 1,
    "duration": 0.25,
    "velocity": 100,
    "pitch": 60
  },
  {
    "clipIndex": 0,
    "trackId": "89",
    "clipName": null,
    "beat": 347.25,
    "relBeat": 347.25,
    "duration": 0.25,
    "velocity": 100,
    "pitch": 60
  },
  {
    "clipIndex": 495,
    "trackId": "22",
    "clipName": null,
    "beat": 347.25,
    "relBeat": 43.25,
    "duration": 0.25,
    "velocity": 100,
    "pitch": 60
  },
  {
    "clipIndex": 498,
    "trackId": "22",
    "clipName": null,
    "beat": 347.25,
    "relBeat": 31.25,
    "duration": 0.25,
    "velocity": 100,
    "pitch": 60
  },
  {
    "clipIndex": 499,
    "trackId": "22",
    "clipName": null,
    "beat": 347.25,
    "relBeat": 29.25,
    "duration": 0.25,
    "velocity": 100,
    "pitch": 60
  },
  {
    "clipIndex": 500,
    "trackId": "22",
    "clipName": null,
    "beat": 347.25,
    "relBeat": 27.25,
    "duration": 0.25,
    "velocity": 100,
    "pitch": 60
  },
  {
    "clipIndex": 501,
    "trackId": "22",
    "clipName": null,
    "beat": 347.25,
    "relBeat": 25.25,
    "duration": 0.25,
    "velocity": 100,
    "pitch": 60
  },
  {
    "clipIndex": 503,
    "trackId": "22",
    "clipName": null,
    "beat": 347.25,
    "relBeat": 21.25,
    "duration": 0.25,
    "velocity": 100,
    "pitch": 60
  },
  {
    "clipIndex": 504,
    "trackId": "22",
    "clipName": null,
    "beat": 347.25,
    "relBeat": 19.25,
    "duration": 0.25,
    "velocity": 100,
    "pitch": 60
  },
  {
    "clipIndex": 505,
    "trackId": "22",
    "clipName": null,
    "beat": 347.25,
    "relBeat": 17.25,
    "duration": 0.25,
    "velocity": 100,
    "pitch": 60
  },
  {
    "clipIndex": 506,
    "trackId": "22",
    "clipName": null,
    "beat": 347.25,
    "relBeat": 15.25,
    "duration": 0.25,
    "velocity": 100,
    "pitch": 60
  },
  {
    "clipIndex": 507,
    "trackId": "22",
    "clipName": null,
    "beat": 347.25,
    "relBeat": 13.25,
    "duration": 0.25,
    "velocity": 100,
    "pitch": 60
  },
  {
    "clipIndex": 509,
    "trackId": "22",
    "clipName": null,
    "beat": 347.25,
    "relBeat": 9.25,
    "duration": 0.25,
    "velocity": 100,
    "pitch": 60
  },
  {
    "clipIndex": 511,
    "trackId": "22",
    "clipName": null,
    "beat": 347.25,
    "relBeat": 5.25,
    "duration": 0.25,
    "velocity": 100,
    "pitch": 60
  },
  {
    "clipIndex": 512,
    "trackId": "22",
    "clipName": null,
    "beat": 347.25,
    "relBeat": 3.25,
    "duration": 0.25,
    "velocity": 100,
    "pitch": 60
  },
  {
    "clipIndex": 513,
    "trackId": "22",
    "clipName": null,
    "beat": 347.25,
    "relBeat": 1.25,
    "duration": 0.25,
    "velocity": 100,
    "pitch": 60
  },
  {
    "clipIndex": 0,
    "trackId": "89",
    "clipName": null,
    "beat": 347.5,
    "relBeat": 347.5,
    "duration": 0.25,
    "velocity": 100,
    "pitch": 60
  },
  {
    "clipIndex": 343,
    "trackId": "55",
    "clipName": null,
    "beat": 347.5,
    "relBeat": 107.5,
    "duration": 0.25000026015651017,
    "velocity": 100,
    "pitch": 60
  },
  {
    "clipIndex": 495,
    "trackId": "22",
    "clipName": null,
    "beat": 347.5,
    "relBeat": 43.5,
    "duration": 0.25,
    "velocity": 100,
    "pitch": 60
  },
  {
    "clipIndex": 498,
    "trackId": "22",
    "clipName": null,
    "beat": 347.5,
    "relBeat": 31.5,
    "duration": 0.25,
    "velocity": 100,
    "pitch": 60
  },
  {
    "clipIndex": 499,
    "trackId": "22",
    "clipName": null,
    "beat": 347.5,
    "relBeat": 29.5,
    "duration": 0.25,
    "velocity": 100,
    "pitch": 60
  },
  {
    "clipIndex": 500,
    "trackId": "22",
    "clipName": null,
    "beat": 347.5,
    "relBeat": 27.5,
    "duration": 0.25,
    "velocity": 100,
    "pitch": 60
  },
  {
    "clipIndex": 501,
    "trackId": "22",
    "clipName": null,
    "beat": 347.5,
    "relBeat": 25.5,
    "duration": 0.25,
    "velocity": 100,
    "pitch": 60
  },
  {
    "clipIndex": 504,
    "trackId": "22",
    "clipName": null,
    "beat": 347.5,
    "relBeat": 19.5,
    "duration": 0.25,
    "velocity": 100,
    "pitch": 60
  },
  {
    "clipIndex": 505,
    "trackId": "22",
    "clipName": null,
    "beat": 347.5,
    "relBeat": 17.5,
    "duration": 0.25,
    "velocity": 100,
    "pitch": 60
  },
  {
    "clipIndex": 506,
    "trackId": "22",
    "clipName": null,
    "beat": 347.5,
    "relBeat": 15.5,
    "duration": 0.25,
    "velocity": 100,
    "pitch": 60
  },
  {
    "clipIndex": 507,
    "trackId": "22",
    "clipName": null,
    "beat": 347.5,
    "relBeat": 13.5,
    "duration": 0.25,
    "velocity": 100,
    "pitch": 60
  },
  {
    "clipIndex": 509,
    "trackId": "22",
    "clipName": null,
    "beat": 347.5,
    "relBeat": 9.5,
    "duration": 0.25,
    "velocity": 100,
    "pitch": 60
  },
  {
    "clipIndex": 511,
    "trackId": "22",
    "clipName": null,
    "beat": 347.5,
    "relBeat": 5.5,
    "duration": 0.25,
    "velocity": 100,
    "pitch": 60
  },
  {
    "clipIndex": 512,
    "trackId": "22",
    "clipName": null,
    "beat": 347.5,
    "relBeat": 3.5,
    "duration": 0.25,
    "velocity": 100,
    "pitch": 60
  },
  {
    "clipIndex": 513,
    "trackId": "22",
    "clipName": null,
    "beat": 347.5,
    "relBeat": 1.5,
    "duration": 0.25,
    "velocity": 100,
    "pitch": 60
  },
  {
    "clipIndex": 0,
    "trackId": "89",
    "clipName": null,
    "beat": 347.75,
    "relBeat": 347.75,
    "duration": 0.25,
    "velocity": 100,
    "pitch": 60
  },
  {
    "clipIndex": 495,
    "trackId": "22",
    "clipName": null,
    "beat": 347.75,
    "relBeat": 43.75,
    "duration": 0.25,
    "velocity": 100,
    "pitch": 60
  },
  {
    "clipIndex": 498,
    "trackId": "22",
    "clipName": null,
    "beat": 347.75,
    "relBeat": 31.75,
    "duration": 0.25,
    "velocity": 100,
    "pitch": 60
  },
  {
    "clipIndex": 499,
    "trackId": "22",
    "clipName": null,
    "beat": 347.75,
    "relBeat": 29.75,
    "duration": 0.25,
    "velocity": 100,
    "pitch": 60
  },
  {
    "clipIndex": 500,
    "trackId": "22",
    "clipName": null,
    "beat": 347.75,
    "relBeat": 27.75,
    "duration": 0.25,
    "velocity": 100,
    "pitch": 60
  },
  {
    "clipIndex": 501,
    "trackId": "22",
    "clipName": null,
    "beat": 347.75,
    "relBeat": 25.75,
    "duration": 0.25,
    "velocity": 100,
    "pitch": 60
  },
  {
    "clipIndex": 504,
    "trackId": "22",
    "clipName": null,
    "beat": 347.75,
    "relBeat": 19.75,
    "duration": 0.25,
    "velocity": 100,
    "pitch": 60
  },
  {
    "clipIndex": 505,
    "trackId": "22",
    "clipName": null,
    "beat": 347.75,
    "relBeat": 17.75,
    "duration": 0.25,
    "velocity": 100,
    "pitch": 60
  },
  {
    "clipIndex": 506,
    "trackId": "22",
    "clipName": null,
    "beat": 347.75,
    "relBeat": 15.75,
    "duration": 0.25,
    "velocity": 100,
    "pitch": 60
  },
  {
    "clipIndex": 507,
    "trackId": "22",
    "clipName": null,
    "beat": 347.75,
    "relBeat": 13.75,
    "duration": 0.25,
    "velocity": 100,
    "pitch": 60
  },
  {
    "clipIndex": 509,
    "trackId": "22",
    "clipName": null,
    "beat": 347.75,
    "relBeat": 9.75,
    "duration": 0.25,
    "velocity": 100,
    "pitch": 60
  },
  {
    "clipIndex": 511,
    "trackId": "22",
    "clipName": null,
    "beat": 347.75,
    "relBeat": 5.75,
    "duration": 0.25,
    "velocity": 100,
    "pitch": 60
  },
  {
    "clipIndex": 512,
    "trackId": "22",
    "clipName": null,
    "beat": 347.75,
    "relBeat": 3.75,
    "duration": 0.25,
    "velocity": 100,
    "pitch": 60
  },
  {
    "clipIndex": 513,
    "trackId": "22",
    "clipName": null,
    "beat": 347.75,
    "relBeat": 1.75,
    "duration": 0.25,
    "velocity": 100,
    "pitch": 60
  },
  {
    "clipIndex": 0,
    "trackId": "89",
    "clipName": null,
    "beat": 348,
    "relBeat": 348,
    "duration": 0.25,
    "velocity": 100,
    "pitch": 60
  },
  {
    "clipIndex": 495,
    "trackId": "22",
    "clipName": null,
    "beat": 348,
    "relBeat": 44,
    "duration": 0.25,
    "velocity": 100,
    "pitch": 60
  },
  {
    "clipIndex": 499,
    "trackId": "22",
    "clipName": null,
    "beat": 348,
    "relBeat": 30,
    "duration": 0.25,
    "velocity": 100,
    "pitch": 60
  },
  {
    "clipIndex": 500,
    "trackId": "22",
    "clipName": null,
    "beat": 348,
    "relBeat": 28,
    "duration": 0.25,
    "velocity": 100,
    "pitch": 60
  },
  {
    "clipIndex": 501,
    "trackId": "22",
    "clipName": null,
    "beat": 348,
    "relBeat": 26,
    "duration": 0.25,
    "velocity": 100,
    "pitch": 60
  },
  {
    "clipIndex": 502,
    "trackId": "22",
    "clipName": null,
    "beat": 348,
    "relBeat": 24,
    "duration": 0.25,
    "velocity": 100,
    "pitch": 60
  },
  {
    "clipIndex": 504,
    "trackId": "22",
    "clipName": null,
    "beat": 348,
    "relBeat": 20,
    "duration": 0.25,
    "velocity": 100,
    "pitch": 60
  },
  {
    "clipIndex": 505,
    "trackId": "22",
    "clipName": null,
    "beat": 348,
    "relBeat": 18,
    "duration": 0.25,
    "velocity": 100,
    "pitch": 60
  },
  {
    "clipIndex": 506,
    "trackId": "22",
    "clipName": null,
    "beat": 348,
    "relBeat": 16,
    "duration": 0.25,
    "velocity": 100,
    "pitch": 60
  },
  {
    "clipIndex": 507,
    "trackId": "22",
    "clipName": null,
    "beat": 348,
    "relBeat": 14,
    "duration": 0.25,
    "velocity": 100,
    "pitch": 60
  },
  {
    "clipIndex": 508,
    "trackId": "22",
    "clipName": null,
    "beat": 348,
    "relBeat": 12,
    "duration": 0.25,
    "velocity": 100,
    "pitch": 60
  },
  {
    "clipIndex": 509,
    "trackId": "22",
    "clipName": null,
    "beat": 348,
    "relBeat": 10,
    "duration": 0.25,
    "velocity": 100,
    "pitch": 60
  },
  {
    "clipIndex": 512,
    "trackId": "22",
    "clipName": null,
    "beat": 348,
    "relBeat": 4,
    "duration": 0.25,
    "velocity": 100,
    "pitch": 60
  },
  {
    "clipIndex": 513,
    "trackId": "22",
    "clipName": null,
    "beat": 348,
    "relBeat": 2,
    "duration": 0.25,
    "velocity": 100,
    "pitch": 60
  },
  {
    "clipIndex": 514,
    "trackId": "22",
    "clipName": null,
    "beat": 348,
    "relBeat": 0,
    "duration": 0.25,
    "velocity": 100,
    "pitch": 60
  },
  {
    "clipIndex": 0,
    "trackId": "89",
    "clipName": null,
    "beat": 348.25,
    "relBeat": 348.25,
    "duration": 0.25,
    "velocity": 100,
    "pitch": 60
  },
  {
    "clipIndex": 343,
    "trackId": "55",
    "clipName": null,
    "beat": 348.25,
    "relBeat": 108.25,
    "duration": 0.25000026015651017,
    "velocity": 100,
    "pitch": 60
  },
  {
    "clipIndex": 495,
    "trackId": "22",
    "clipName": null,
    "beat": 348.25,
    "relBeat": 44.25,
    "duration": 0.25,
    "velocity": 100,
    "pitch": 60
  },
  {
    "clipIndex": 499,
    "trackId": "22",
    "clipName": null,
    "beat": 348.25,
    "relBeat": 30.25,
    "duration": 0.25,
    "velocity": 100,
    "pitch": 60
  },
  {
    "clipIndex": 500,
    "trackId": "22",
    "clipName": null,
    "beat": 348.25,
    "relBeat": 28.25,
    "duration": 0.25,
    "velocity": 100,
    "pitch": 60
  },
  {
    "clipIndex": 501,
    "trackId": "22",
    "clipName": null,
    "beat": 348.25,
    "relBeat": 26.25,
    "duration": 0.25,
    "velocity": 100,
    "pitch": 60
  },
  {
    "clipIndex": 502,
    "trackId": "22",
    "clipName": null,
    "beat": 348.25,
    "relBeat": 24.25,
    "duration": 0.25,
    "velocity": 100,
    "pitch": 60
  },
  {
    "clipIndex": 504,
    "trackId": "22",
    "clipName": null,
    "beat": 348.25,
    "relBeat": 20.25,
    "duration": 0.25,
    "velocity": 100,
    "pitch": 60
  },
  {
    "clipIndex": 505,
    "trackId": "22",
    "clipName": null,
    "beat": 348.25,
    "relBeat": 18.25,
    "duration": 0.25,
    "velocity": 100,
    "pitch": 60
  },
  {
    "clipIndex": 506,
    "trackId": "22",
    "clipName": null,
    "beat": 348.25,
    "relBeat": 16.25,
    "duration": 0.25,
    "velocity": 100,
    "pitch": 60
  },
  {
    "clipIndex": 507,
    "trackId": "22",
    "clipName": null,
    "beat": 348.25,
    "relBeat": 14.25,
    "duration": 0.25,
    "velocity": 100,
    "pitch": 60
  },
  {
    "clipIndex": 508,
    "trackId": "22",
    "clipName": null,
    "beat": 348.25,
    "relBeat": 12.25,
    "duration": 0.25,
    "velocity": 100,
    "pitch": 60
  },
  {
    "clipIndex": 512,
    "trackId": "22",
    "clipName": null,
    "beat": 348.25,
    "relBeat": 4.25,
    "duration": 0.25,
    "velocity": 100,
    "pitch": 60
  },
  {
    "clipIndex": 513,
    "trackId": "22",
    "clipName": null,
    "beat": 348.25,
    "relBeat": 2.25,
    "duration": 0.25,
    "velocity": 100,
    "pitch": 60
  },
  {
    "clipIndex": 514,
    "trackId": "22",
    "clipName": null,
    "beat": 348.25,
    "relBeat": 0.25,
    "duration": 0.25,
    "velocity": 100,
    "pitch": 60
  },
  {
    "clipIndex": 0,
    "trackId": "89",
    "clipName": null,
    "beat": 348.5,
    "relBeat": 348.5,
    "duration": 0.25,
    "velocity": 100,
    "pitch": 60
  },
  {
    "clipIndex": 499,
    "trackId": "22",
    "clipName": null,
    "beat": 348.5,
    "relBeat": 30.5,
    "duration": 0.25,
    "velocity": 100,
    "pitch": 60
  },
  {
    "clipIndex": 500,
    "trackId": "22",
    "clipName": null,
    "beat": 348.5,
    "relBeat": 28.5,
    "duration": 0.25,
    "velocity": 100,
    "pitch": 60
  },
  {
    "clipIndex": 501,
    "trackId": "22",
    "clipName": null,
    "beat": 348.5,
    "relBeat": 26.5,
    "duration": 0.25,
    "velocity": 100,
    "pitch": 60
  },
  {
    "clipIndex": 502,
    "trackId": "22",
    "clipName": null,
    "beat": 348.5,
    "relBeat": 24.5,
    "duration": 0.25,
    "velocity": 100,
    "pitch": 60
  },
  {
    "clipIndex": 504,
    "trackId": "22",
    "clipName": null,
    "beat": 348.5,
    "relBeat": 20.5,
    "duration": 0.25,
    "velocity": 100,
    "pitch": 60
  },
  {
    "clipIndex": 505,
    "trackId": "22",
    "clipName": null,
    "beat": 348.5,
    "relBeat": 18.5,
    "duration": 0.25,
    "velocity": 100,
    "pitch": 60
  },
  {
    "clipIndex": 506,
    "trackId": "22",
    "clipName": null,
    "beat": 348.5,
    "relBeat": 16.5,
    "duration": 0.25,
    "velocity": 100,
    "pitch": 60
  },
  {
    "clipIndex": 507,
    "trackId": "22",
    "clipName": null,
    "beat": 348.5,
    "relBeat": 14.5,
    "duration": 0.25,
    "velocity": 100,
    "pitch": 60
  },
  {
    "clipIndex": 508,
    "trackId": "22",
    "clipName": null,
    "beat": 348.5,
    "relBeat": 12.5,
    "duration": 0.25,
    "velocity": 100,
    "pitch": 60
  },
  {
    "clipIndex": 512,
    "trackId": "22",
    "clipName": null,
    "beat": 348.5,
    "relBeat": 4.5,
    "duration": 0.25,
    "velocity": 100,
    "pitch": 60
  },
  {
    "clipIndex": 513,
    "trackId": "22",
    "clipName": null,
    "beat": 348.5,
    "relBeat": 2.5,
    "duration": 0.25,
    "velocity": 100,
    "pitch": 60
  },
  {
    "clipIndex": 514,
    "trackId": "22",
    "clipName": null,
    "beat": 348.5,
    "relBeat": 0.5,
    "duration": 0.25,
    "velocity": 100,
    "pitch": 60
  },
  {
    "clipIndex": 0,
    "trackId": "89",
    "clipName": null,
    "beat": 348.75,
    "relBeat": 348.75,
    "duration": 0.25,
    "velocity": 100,
    "pitch": 60
  },
  {
    "clipIndex": 499,
    "trackId": "22",
    "clipName": null,
    "beat": 348.75,
    "relBeat": 30.75,
    "duration": 0.25,
    "velocity": 100,
    "pitch": 60
  },
  {
    "clipIndex": 500,
    "trackId": "22",
    "clipName": null,
    "beat": 348.75,
    "relBeat": 28.75,
    "duration": 0.25,
    "velocity": 100,
    "pitch": 60
  },
  {
    "clipIndex": 501,
    "trackId": "22",
    "clipName": null,
    "beat": 348.75,
    "relBeat": 26.75,
    "duration": 0.25,
    "velocity": 100,
    "pitch": 60
  },
  {
    "clipIndex": 502,
    "trackId": "22",
    "clipName": null,
    "beat": 348.75,
    "relBeat": 24.75,
    "duration": 0.25,
    "velocity": 100,
    "pitch": 60
  },
  {
    "clipIndex": 504,
    "trackId": "22",
    "clipName": null,
    "beat": 348.75,
    "relBeat": 20.75,
    "duration": 0.25,
    "velocity": 100,
    "pitch": 60
  },
  {
    "clipIndex": 505,
    "trackId": "22",
    "clipName": null,
    "beat": 348.75,
    "relBeat": 18.75,
    "duration": 0.25,
    "velocity": 100,
    "pitch": 60
  },
  {
    "clipIndex": 506,
    "trackId": "22",
    "clipName": null,
    "beat": 348.75,
    "relBeat": 16.75,
    "duration": 0.25,
    "velocity": 100,
    "pitch": 60
  },
  {
    "clipIndex": 507,
    "trackId": "22",
    "clipName": null,
    "beat": 348.75,
    "relBeat": 14.75,
    "duration": 0.25,
    "velocity": 100,
    "pitch": 60
  },
  {
    "clipIndex": 508,
    "trackId": "22",
    "clipName": null,
    "beat": 348.75,
    "relBeat": 12.75,
    "duration": 0.25,
    "velocity": 100,
    "pitch": 60
  },
  {
    "clipIndex": 512,
    "trackId": "22",
    "clipName": null,
    "beat": 348.75,
    "relBeat": 4.75,
    "duration": 0.25,
    "velocity": 100,
    "pitch": 60
  },
  {
    "clipIndex": 513,
    "trackId": "22",
    "clipName": null,
    "beat": 348.75,
    "relBeat": 2.75,
    "duration": 0.25,
    "velocity": 100,
    "pitch": 60
  },
  {
    "clipIndex": 514,
    "trackId": "22",
    "clipName": null,
    "beat": 348.75,
    "relBeat": 0.75,
    "duration": 0.25,
    "velocity": 100,
    "pitch": 60
  },
  {
    "clipIndex": 0,
    "trackId": "89",
    "clipName": null,
    "beat": 349,
    "relBeat": 349,
    "duration": 0.25,
    "velocity": 100,
    "pitch": 60
  },
  {
    "clipIndex": 343,
    "trackId": "55",
    "clipName": null,
    "beat": 349,
    "relBeat": 109,
    "duration": 0.25000026015651017,
    "velocity": 100,
    "pitch": 60
  },
  {
    "clipIndex": 495,
    "trackId": "22",
    "clipName": null,
    "beat": 349,
    "relBeat": 45,
    "duration": 0.25,
    "velocity": 100,
    "pitch": 60
  },
  {
    "clipIndex": 499,
    "trackId": "22",
    "clipName": null,
    "beat": 349,
    "relBeat": 31,
    "duration": 0.25,
    "velocity": 100,
    "pitch": 60
  },
  {
    "clipIndex": 500,
    "trackId": "22",
    "clipName": null,
    "beat": 349,
    "relBeat": 29,
    "duration": 0.25,
    "velocity": 100,
    "pitch": 60
  },
  {
    "clipIndex": 501,
    "trackId": "22",
    "clipName": null,
    "beat": 349,
    "relBeat": 27,
    "duration": 0.25,
    "velocity": 100,
    "pitch": 60
  },
  {
    "clipIndex": 502,
    "trackId": "22",
    "clipName": null,
    "beat": 349,
    "relBeat": 25,
    "duration": 0.25,
    "velocity": 100,
    "pitch": 60
  },
  {
    "clipIndex": 504,
    "trackId": "22",
    "clipName": null,
    "beat": 349,
    "relBeat": 21,
    "duration": 0.25,
    "velocity": 100,
    "pitch": 60
  },
  {
    "clipIndex": 505,
    "trackId": "22",
    "clipName": null,
    "beat": 349,
    "relBeat": 19,
    "duration": 0.25,
    "velocity": 100,
    "pitch": 60
  },
  {
    "clipIndex": 506,
    "trackId": "22",
    "clipName": null,
    "beat": 349,
    "relBeat": 17,
    "duration": 0.25,
    "velocity": 100,
    "pitch": 60
  },
  {
    "clipIndex": 507,
    "trackId": "22",
    "clipName": null,
    "beat": 349,
    "relBeat": 15,
    "duration": 0.25,
    "velocity": 100,
    "pitch": 60
  },
  {
    "clipIndex": 508,
    "trackId": "22",
    "clipName": null,
    "beat": 349,
    "relBeat": 13,
    "duration": 0.25,
    "velocity": 100,
    "pitch": 60
  },
  {
    "clipIndex": 510,
    "trackId": "22",
    "clipName": null,
    "beat": 349,
    "relBeat": 9,
    "duration": 0.25,
    "velocity": 100,
    "pitch": 60
  },
  {
    "clipIndex": 512,
    "trackId": "22",
    "clipName": null,
    "beat": 349,
    "relBeat": 5,
    "duration": 0.25,
    "velocity": 100,
    "pitch": 60
  },
  {
    "clipIndex": 513,
    "trackId": "22",
    "clipName": null,
    "beat": 349,
    "relBeat": 3,
    "duration": 0.25,
    "velocity": 100,
    "pitch": 60
  },
  {
    "clipIndex": 514,
    "trackId": "22",
    "clipName": null,
    "beat": 349,
    "relBeat": 1,
    "duration": 0.25,
    "velocity": 100,
    "pitch": 60
  },
  {
    "clipIndex": 0,
    "trackId": "89",
    "clipName": null,
    "beat": 349.25,
    "relBeat": 349.25,
    "duration": 0.25,
    "velocity": 100,
    "pitch": 60
  },
  {
    "clipIndex": 495,
    "trackId": "22",
    "clipName": null,
    "beat": 349.25,
    "relBeat": 45.25,
    "duration": 0.25,
    "velocity": 100,
    "pitch": 60
  },
  {
    "clipIndex": 499,
    "trackId": "22",
    "clipName": null,
    "beat": 349.25,
    "relBeat": 31.25,
    "duration": 0.25,
    "velocity": 100,
    "pitch": 60
  },
  {
    "clipIndex": 500,
    "trackId": "22",
    "clipName": null,
    "beat": 349.25,
    "relBeat": 29.25,
    "duration": 0.25,
    "velocity": 100,
    "pitch": 60
  },
  {
    "clipIndex": 501,
    "trackId": "22",
    "clipName": null,
    "beat": 349.25,
    "relBeat": 27.25,
    "duration": 0.25,
    "velocity": 100,
    "pitch": 60
  },
  {
    "clipIndex": 502,
    "trackId": "22",
    "clipName": null,
    "beat": 349.25,
    "relBeat": 25.25,
    "duration": 0.25,
    "velocity": 100,
    "pitch": 60
  },
  {
    "clipIndex": 504,
    "trackId": "22",
    "clipName": null,
    "beat": 349.25,
    "relBeat": 21.25,
    "duration": 0.25,
    "velocity": 100,
    "pitch": 60
  },
  {
    "clipIndex": 505,
    "trackId": "22",
    "clipName": null,
    "beat": 349.25,
    "relBeat": 19.25,
    "duration": 0.25,
    "velocity": 100,
    "pitch": 60
  },
  {
    "clipIndex": 506,
    "trackId": "22",
    "clipName": null,
    "beat": 349.25,
    "relBeat": 17.25,
    "duration": 0.25,
    "velocity": 100,
    "pitch": 60
  },
  {
    "clipIndex": 507,
    "trackId": "22",
    "clipName": null,
    "beat": 349.25,
    "relBeat": 15.25,
    "duration": 0.25,
    "velocity": 100,
    "pitch": 60
  },
  {
    "clipIndex": 508,
    "trackId": "22",
    "clipName": null,
    "beat": 349.25,
    "relBeat": 13.25,
    "duration": 0.25,
    "velocity": 100,
    "pitch": 60
  },
  {
    "clipIndex": 510,
    "trackId": "22",
    "clipName": null,
    "beat": 349.25,
    "relBeat": 9.25,
    "duration": 0.25,
    "velocity": 100,
    "pitch": 60
  },
  {
    "clipIndex": 512,
    "trackId": "22",
    "clipName": null,
    "beat": 349.25,
    "relBeat": 5.25,
    "duration": 0.25,
    "velocity": 100,
    "pitch": 60
  },
  {
    "clipIndex": 513,
    "trackId": "22",
    "clipName": null,
    "beat": 349.25,
    "relBeat": 3.25,
    "duration": 0.25,
    "velocity": 100,
    "pitch": 60
  },
  {
    "clipIndex": 514,
    "trackId": "22",
    "clipName": null,
    "beat": 349.25,
    "relBeat": 1.25,
    "duration": 0.25,
    "velocity": 100,
    "pitch": 60
  },
  {
    "clipIndex": 0,
    "trackId": "89",
    "clipName": null,
    "beat": 349.5,
    "relBeat": 349.5,
    "duration": 0.25,
    "velocity": 100,
    "pitch": 60
  },
  {
    "clipIndex": 495,
    "trackId": "22",
    "clipName": null,
    "beat": 349.5,
    "relBeat": 45.5,
    "duration": 0.25,
    "velocity": 100,
    "pitch": 60
  },
  {
    "clipIndex": 499,
    "trackId": "22",
    "clipName": null,
    "beat": 349.5,
    "relBeat": 31.5,
    "duration": 0.25,
    "velocity": 100,
    "pitch": 60
  },
  {
    "clipIndex": 500,
    "trackId": "22",
    "clipName": null,
    "beat": 349.5,
    "relBeat": 29.5,
    "duration": 0.25,
    "velocity": 100,
    "pitch": 60
  },
  {
    "clipIndex": 501,
    "trackId": "22",
    "clipName": null,
    "beat": 349.5,
    "relBeat": 27.5,
    "duration": 0.25,
    "velocity": 100,
    "pitch": 60
  },
  {
    "clipIndex": 502,
    "trackId": "22",
    "clipName": null,
    "beat": 349.5,
    "relBeat": 25.5,
    "duration": 0.25,
    "velocity": 100,
    "pitch": 60
  },
  {
    "clipIndex": 505,
    "trackId": "22",
    "clipName": null,
    "beat": 349.5,
    "relBeat": 19.5,
    "duration": 0.25,
    "velocity": 100,
    "pitch": 60
  },
  {
    "clipIndex": 506,
    "trackId": "22",
    "clipName": null,
    "beat": 349.5,
    "relBeat": 17.5,
    "duration": 0.25,
    "velocity": 100,
    "pitch": 60
  },
  {
    "clipIndex": 507,
    "trackId": "22",
    "clipName": null,
    "beat": 349.5,
    "relBeat": 15.5,
    "duration": 0.25,
    "velocity": 100,
    "pitch": 60
  },
  {
    "clipIndex": 508,
    "trackId": "22",
    "clipName": null,
    "beat": 349.5,
    "relBeat": 13.5,
    "duration": 0.25,
    "velocity": 100,
    "pitch": 60
  },
  {
    "clipIndex": 510,
    "trackId": "22",
    "clipName": null,
    "beat": 349.5,
    "relBeat": 9.5,
    "duration": 0.25,
    "velocity": 100,
    "pitch": 60
  },
  {
    "clipIndex": 512,
    "trackId": "22",
    "clipName": null,
    "beat": 349.5,
    "relBeat": 5.5,
    "duration": 0.25,
    "velocity": 100,
    "pitch": 60
  },
  {
    "clipIndex": 513,
    "trackId": "22",
    "clipName": null,
    "beat": 349.5,
    "relBeat": 3.5,
    "duration": 0.25,
    "velocity": 100,
    "pitch": 60
  },
  {
    "clipIndex": 514,
    "trackId": "22",
    "clipName": null,
    "beat": 349.5,
    "relBeat": 1.5,
    "duration": 0.25,
    "velocity": 100,
    "pitch": 60
  },
  {
    "clipIndex": 0,
    "trackId": "89",
    "clipName": null,
    "beat": 349.75,
    "relBeat": 349.75,
    "duration": 0.25,
    "velocity": 100,
    "pitch": 60
  },
  {
    "clipIndex": 343,
    "trackId": "55",
    "clipName": null,
    "beat": 349.75,
    "relBeat": 109.75,
    "duration": 0.25000026015651017,
    "velocity": 100,
    "pitch": 60
  },
  {
    "clipIndex": 495,
    "trackId": "22",
    "clipName": null,
    "beat": 349.75,
    "relBeat": 45.75,
    "duration": 0.25,
    "velocity": 100,
    "pitch": 60
  },
  {
    "clipIndex": 499,
    "trackId": "22",
    "clipName": null,
    "beat": 349.75,
    "relBeat": 31.75,
    "duration": 0.25,
    "velocity": 100,
    "pitch": 60
  },
  {
    "clipIndex": 500,
    "trackId": "22",
    "clipName": null,
    "beat": 349.75,
    "relBeat": 29.75,
    "duration": 0.25,
    "velocity": 100,
    "pitch": 60
  },
  {
    "clipIndex": 501,
    "trackId": "22",
    "clipName": null,
    "beat": 349.75,
    "relBeat": 27.75,
    "duration": 0.25,
    "velocity": 100,
    "pitch": 60
  },
  {
    "clipIndex": 502,
    "trackId": "22",
    "clipName": null,
    "beat": 349.75,
    "relBeat": 25.75,
    "duration": 0.25,
    "velocity": 100,
    "pitch": 60
  },
  {
    "clipIndex": 505,
    "trackId": "22",
    "clipName": null,
    "beat": 349.75,
    "relBeat": 19.75,
    "duration": 0.25,
    "velocity": 100,
    "pitch": 60
  },
  {
    "clipIndex": 506,
    "trackId": "22",
    "clipName": null,
    "beat": 349.75,
    "relBeat": 17.75,
    "duration": 0.25,
    "velocity": 100,
    "pitch": 60
  },
  {
    "clipIndex": 507,
    "trackId": "22",
    "clipName": null,
    "beat": 349.75,
    "relBeat": 15.75,
    "duration": 0.25,
    "velocity": 100,
    "pitch": 60
  },
  {
    "clipIndex": 508,
    "trackId": "22",
    "clipName": null,
    "beat": 349.75,
    "relBeat": 13.75,
    "duration": 0.25,
    "velocity": 100,
    "pitch": 60
  },
  {
    "clipIndex": 510,
    "trackId": "22",
    "clipName": null,
    "beat": 349.75,
    "relBeat": 9.75,
    "duration": 0.25,
    "velocity": 100,
    "pitch": 60
  },
  {
    "clipIndex": 512,
    "trackId": "22",
    "clipName": null,
    "beat": 349.75,
    "relBeat": 5.75,
    "duration": 0.25,
    "velocity": 100,
    "pitch": 60
  },
  {
    "clipIndex": 513,
    "trackId": "22",
    "clipName": null,
    "beat": 349.75,
    "relBeat": 3.75,
    "duration": 0.25,
    "velocity": 100,
    "pitch": 60
  },
  {
    "clipIndex": 514,
    "trackId": "22",
    "clipName": null,
    "beat": 349.75,
    "relBeat": 1.75,
    "duration": 0.25,
    "velocity": 100,
    "pitch": 60
  },
  {
    "clipIndex": 0,
    "trackId": "89",
    "clipName": null,
    "beat": 350,
    "relBeat": 350,
    "duration": 0.25,
    "velocity": 100,
    "pitch": 60
  },
  {
    "clipIndex": 500,
    "trackId": "22",
    "clipName": null,
    "beat": 350,
    "relBeat": 30,
    "duration": 0.25,
    "velocity": 100,
    "pitch": 60
  },
  {
    "clipIndex": 501,
    "trackId": "22",
    "clipName": null,
    "beat": 350,
    "relBeat": 28,
    "duration": 0.25,
    "velocity": 100,
    "pitch": 60
  },
  {
    "clipIndex": 502,
    "trackId": "22",
    "clipName": null,
    "beat": 350,
    "relBeat": 26,
    "duration": 0.25,
    "velocity": 100,
    "pitch": 60
  },
  {
    "clipIndex": 503,
    "trackId": "22",
    "clipName": null,
    "beat": 350,
    "relBeat": 24,
    "duration": 0.25,
    "velocity": 100,
    "pitch": 60
  },
  {
    "clipIndex": 505,
    "trackId": "22",
    "clipName": null,
    "beat": 350,
    "relBeat": 20,
    "duration": 0.25,
    "velocity": 100,
    "pitch": 60
  },
  {
    "clipIndex": 506,
    "trackId": "22",
    "clipName": null,
    "beat": 350,
    "relBeat": 18,
    "duration": 0.25,
    "velocity": 100,
    "pitch": 60
  },
  {
    "clipIndex": 507,
    "trackId": "22",
    "clipName": null,
    "beat": 350,
    "relBeat": 16,
    "duration": 0.25,
    "velocity": 100,
    "pitch": 60
  },
  {
    "clipIndex": 508,
    "trackId": "22",
    "clipName": null,
    "beat": 350,
    "relBeat": 14,
    "duration": 0.25,
    "velocity": 100,
    "pitch": 60
  },
  {
    "clipIndex": 509,
    "trackId": "22",
    "clipName": null,
    "beat": 350,
    "relBeat": 12,
    "duration": 0.25,
    "velocity": 100,
    "pitch": 60
  },
  {
    "clipIndex": 510,
    "trackId": "22",
    "clipName": null,
    "beat": 350,
    "relBeat": 10,
    "duration": 0.25,
    "velocity": 100,
    "pitch": 60
  },
  {
    "clipIndex": 513,
    "trackId": "22",
    "clipName": null,
    "beat": 350,
    "relBeat": 4,
    "duration": 0.25,
    "velocity": 100,
    "pitch": 60
  },
  {
    "clipIndex": 514,
    "trackId": "22",
    "clipName": null,
    "beat": 350,
    "relBeat": 2,
    "duration": 0.25,
    "velocity": 100,
    "pitch": 60
  },
  {
    "clipIndex": 515,
    "trackId": "22",
    "clipName": null,
    "beat": 350,
    "relBeat": 0,
    "duration": 0.25,
    "velocity": 100,
    "pitch": 60
  },
  {
    "clipIndex": 0,
    "trackId": "89",
    "clipName": null,
    "beat": 350.25,
    "relBeat": 350.25,
    "duration": 0.25,
    "velocity": 100,
    "pitch": 60
  },
  {
    "clipIndex": 500,
    "trackId": "22",
    "clipName": null,
    "beat": 350.25,
    "relBeat": 30.25,
    "duration": 0.25,
    "velocity": 100,
    "pitch": 60
  },
  {
    "clipIndex": 501,
    "trackId": "22",
    "clipName": null,
    "beat": 350.25,
    "relBeat": 28.25,
    "duration": 0.25,
    "velocity": 100,
    "pitch": 60
  },
  {
    "clipIndex": 502,
    "trackId": "22",
    "clipName": null,
    "beat": 350.25,
    "relBeat": 26.25,
    "duration": 0.25,
    "velocity": 100,
    "pitch": 60
  },
  {
    "clipIndex": 503,
    "trackId": "22",
    "clipName": null,
    "beat": 350.25,
    "relBeat": 24.25,
    "duration": 0.25,
    "velocity": 100,
    "pitch": 60
  },
  {
    "clipIndex": 505,
    "trackId": "22",
    "clipName": null,
    "beat": 350.25,
    "relBeat": 20.25,
    "duration": 0.25,
    "velocity": 100,
    "pitch": 60
  },
  {
    "clipIndex": 506,
    "trackId": "22",
    "clipName": null,
    "beat": 350.25,
    "relBeat": 18.25,
    "duration": 0.25,
    "velocity": 100,
    "pitch": 60
  },
  {
    "clipIndex": 507,
    "trackId": "22",
    "clipName": null,
    "beat": 350.25,
    "relBeat": 16.25,
    "duration": 0.25,
    "velocity": 100,
    "pitch": 60
  },
  {
    "clipIndex": 508,
    "trackId": "22",
    "clipName": null,
    "beat": 350.25,
    "relBeat": 14.25,
    "duration": 0.25,
    "velocity": 100,
    "pitch": 60
  },
  {
    "clipIndex": 509,
    "trackId": "22",
    "clipName": null,
    "beat": 350.25,
    "relBeat": 12.25,
    "duration": 0.25,
    "velocity": 100,
    "pitch": 60
  },
  {
    "clipIndex": 513,
    "trackId": "22",
    "clipName": null,
    "beat": 350.25,
    "relBeat": 4.25,
    "duration": 0.25,
    "velocity": 100,
    "pitch": 60
  },
  {
    "clipIndex": 514,
    "trackId": "22",
    "clipName": null,
    "beat": 350.25,
    "relBeat": 2.25,
    "duration": 0.25,
    "velocity": 100,
    "pitch": 60
  },
  {
    "clipIndex": 515,
    "trackId": "22",
    "clipName": null,
    "beat": 350.25,
    "relBeat": 0.25,
    "duration": 0.25,
    "velocity": 100,
    "pitch": 60
  },
  {
    "clipIndex": 0,
    "trackId": "89",
    "clipName": null,
    "beat": 350.5,
    "relBeat": 350.5,
    "duration": 0.25,
    "velocity": 100,
    "pitch": 60
  },
  {
    "clipIndex": 343,
    "trackId": "55",
    "clipName": null,
    "beat": 350.5,
    "relBeat": 110.5,
    "duration": 0.25000026015651017,
    "velocity": 100,
    "pitch": 60
  },
  {
    "clipIndex": 495,
    "trackId": "22",
    "clipName": null,
    "beat": 350.5,
    "relBeat": 46.5,
    "duration": 0.25,
    "velocity": 100,
    "pitch": 60
  },
  {
    "clipIndex": 500,
    "trackId": "22",
    "clipName": null,
    "beat": 350.5,
    "relBeat": 30.5,
    "duration": 0.25,
    "velocity": 100,
    "pitch": 60
  },
  {
    "clipIndex": 501,
    "trackId": "22",
    "clipName": null,
    "beat": 350.5,
    "relBeat": 28.5,
    "duration": 0.25,
    "velocity": 100,
    "pitch": 60
  },
  {
    "clipIndex": 502,
    "trackId": "22",
    "clipName": null,
    "beat": 350.5,
    "relBeat": 26.5,
    "duration": 0.25,
    "velocity": 100,
    "pitch": 60
  },
  {
    "clipIndex": 503,
    "trackId": "22",
    "clipName": null,
    "beat": 350.5,
    "relBeat": 24.5,
    "duration": 0.25,
    "velocity": 100,
    "pitch": 60
  },
  {
    "clipIndex": 505,
    "trackId": "22",
    "clipName": null,
    "beat": 350.5,
    "relBeat": 20.5,
    "duration": 0.25,
    "velocity": 100,
    "pitch": 60
  },
  {
    "clipIndex": 506,
    "trackId": "22",
    "clipName": null,
    "beat": 350.5,
    "relBeat": 18.5,
    "duration": 0.25,
    "velocity": 100,
    "pitch": 60
  },
  {
    "clipIndex": 507,
    "trackId": "22",
    "clipName": null,
    "beat": 350.5,
    "relBeat": 16.5,
    "duration": 0.25,
    "velocity": 100,
    "pitch": 60
  },
  {
    "clipIndex": 508,
    "trackId": "22",
    "clipName": null,
    "beat": 350.5,
    "relBeat": 14.5,
    "duration": 0.25,
    "velocity": 100,
    "pitch": 60
  },
  {
    "clipIndex": 509,
    "trackId": "22",
    "clipName": null,
    "beat": 350.5,
    "relBeat": 12.5,
    "duration": 0.25,
    "velocity": 100,
    "pitch": 60
  },
  {
    "clipIndex": 513,
    "trackId": "22",
    "clipName": null,
    "beat": 350.5,
    "relBeat": 4.5,
    "duration": 0.25,
    "velocity": 100,
    "pitch": 60
  },
  {
    "clipIndex": 514,
    "trackId": "22",
    "clipName": null,
    "beat": 350.5,
    "relBeat": 2.5,
    "duration": 0.25,
    "velocity": 100,
    "pitch": 60
  },
  {
    "clipIndex": 515,
    "trackId": "22",
    "clipName": null,
    "beat": 350.5,
    "relBeat": 0.5,
    "duration": 0.25,
    "velocity": 100,
    "pitch": 60
  },
  {
    "clipIndex": 0,
    "trackId": "89",
    "clipName": null,
    "beat": 350.75,
    "relBeat": 350.75,
    "duration": 0.25,
    "velocity": 100,
    "pitch": 60
  },
  {
    "clipIndex": 495,
    "trackId": "22",
    "clipName": null,
    "beat": 350.75,
    "relBeat": 46.75,
    "duration": 0.25,
    "velocity": 100,
    "pitch": 60
  },
  {
    "clipIndex": 500,
    "trackId": "22",
    "clipName": null,
    "beat": 350.75,
    "relBeat": 30.75,
    "duration": 0.25,
    "velocity": 100,
    "pitch": 60
  },
  {
    "clipIndex": 501,
    "trackId": "22",
    "clipName": null,
    "beat": 350.75,
    "relBeat": 28.75,
    "duration": 0.25,
    "velocity": 100,
    "pitch": 60
  },
  {
    "clipIndex": 502,
    "trackId": "22",
    "clipName": null,
    "beat": 350.75,
    "relBeat": 26.75,
    "duration": 0.25,
    "velocity": 100,
    "pitch": 60
  },
  {
    "clipIndex": 503,
    "trackId": "22",
    "clipName": null,
    "beat": 350.75,
    "relBeat": 24.75,
    "duration": 0.25,
    "velocity": 100,
    "pitch": 60
  },
  {
    "clipIndex": 505,
    "trackId": "22",
    "clipName": null,
    "beat": 350.75,
    "relBeat": 20.75,
    "duration": 0.25,
    "velocity": 100,
    "pitch": 60
  },
  {
    "clipIndex": 506,
    "trackId": "22",
    "clipName": null,
    "beat": 350.75,
    "relBeat": 18.75,
    "duration": 0.25,
    "velocity": 100,
    "pitch": 60
  },
  {
    "clipIndex": 507,
    "trackId": "22",
    "clipName": null,
    "beat": 350.75,
    "relBeat": 16.75,
    "duration": 0.25,
    "velocity": 100,
    "pitch": 60
  },
  {
    "clipIndex": 508,
    "trackId": "22",
    "clipName": null,
    "beat": 350.75,
    "relBeat": 14.75,
    "duration": 0.25,
    "velocity": 100,
    "pitch": 60
  },
  {
    "clipIndex": 509,
    "trackId": "22",
    "clipName": null,
    "beat": 350.75,
    "relBeat": 12.75,
    "duration": 0.25,
    "velocity": 100,
    "pitch": 60
  },
  {
    "clipIndex": 513,
    "trackId": "22",
    "clipName": null,
    "beat": 350.75,
    "relBeat": 4.75,
    "duration": 0.25,
    "velocity": 100,
    "pitch": 60
  },
  {
    "clipIndex": 514,
    "trackId": "22",
    "clipName": null,
    "beat": 350.75,
    "relBeat": 2.75,
    "duration": 0.25,
    "velocity": 100,
    "pitch": 60
  },
  {
    "clipIndex": 515,
    "trackId": "22",
    "clipName": null,
    "beat": 350.75,
    "relBeat": 0.75,
    "duration": 0.25,
    "velocity": 100,
    "pitch": 60
  },
  {
    "clipIndex": 0,
    "trackId": "89",
    "clipName": null,
    "beat": 351,
    "relBeat": 351,
    "duration": 0.25,
    "velocity": 100,
    "pitch": 60
  },
  {
    "clipIndex": 338,
    "trackId": "55",
    "clipName": null,
    "beat": 351,
    "relBeat": 151,
    "duration": 0.25,
    "velocity": 100,
    "pitch": 60
  },
  {
    "clipIndex": 495,
    "trackId": "22",
    "clipName": null,
    "beat": 351,
    "relBeat": 47,
    "duration": 0.25,
    "velocity": 100,
    "pitch": 60
  },
  {
    "clipIndex": 500,
    "trackId": "22",
    "clipName": null,
    "beat": 351,
    "relBeat": 31,
    "duration": 0.25,
    "velocity": 100,
    "pitch": 60
  },
  {
    "clipIndex": 501,
    "trackId": "22",
    "clipName": null,
    "beat": 351,
    "relBeat": 29,
    "duration": 0.25,
    "velocity": 100,
    "pitch": 60
  },
  {
    "clipIndex": 502,
    "trackId": "22",
    "clipName": null,
    "beat": 351,
    "relBeat": 27,
    "duration": 0.25,
    "velocity": 100,
    "pitch": 60
  },
  {
    "clipIndex": 503,
    "trackId": "22",
    "clipName": null,
    "beat": 351,
    "relBeat": 25,
    "duration": 0.25,
    "velocity": 100,
    "pitch": 60
  },
  {
    "clipIndex": 505,
    "trackId": "22",
    "clipName": null,
    "beat": 351,
    "relBeat": 21,
    "duration": 0.25,
    "velocity": 100,
    "pitch": 60
  },
  {
    "clipIndex": 506,
    "trackId": "22",
    "clipName": null,
    "beat": 351,
    "relBeat": 19,
    "duration": 0.25,
    "velocity": 100,
    "pitch": 60
  },
  {
    "clipIndex": 507,
    "trackId": "22",
    "clipName": null,
    "beat": 351,
    "relBeat": 17,
    "duration": 0.25,
    "velocity": 100,
    "pitch": 60
  },
  {
    "clipIndex": 508,
    "trackId": "22",
    "clipName": null,
    "beat": 351,
    "relBeat": 15,
    "duration": 0.25,
    "velocity": 100,
    "pitch": 60
  },
  {
    "clipIndex": 509,
    "trackId": "22",
    "clipName": null,
    "beat": 351,
    "relBeat": 13,
    "duration": 0.25,
    "velocity": 100,
    "pitch": 60
  },
  {
    "clipIndex": 511,
    "trackId": "22",
    "clipName": null,
    "beat": 351,
    "relBeat": 9,
    "duration": 0.25,
    "velocity": 100,
    "pitch": 60
  },
  {
    "clipIndex": 513,
    "trackId": "22",
    "clipName": null,
    "beat": 351,
    "relBeat": 5,
    "duration": 0.25,
    "velocity": 100,
    "pitch": 60
  },
  {
    "clipIndex": 514,
    "trackId": "22",
    "clipName": null,
    "beat": 351,
    "relBeat": 3,
    "duration": 0.25,
    "velocity": 100,
    "pitch": 60
  },
  {
    "clipIndex": 515,
    "trackId": "22",
    "clipName": null,
    "beat": 351,
    "relBeat": 1,
    "duration": 0.25,
    "velocity": 100,
    "pitch": 60
  },
  {
    "clipIndex": 0,
    "trackId": "89",
    "clipName": null,
    "beat": 351.25,
    "relBeat": 351.25,
    "duration": 0.25,
    "velocity": 100,
    "pitch": 60
  },
  {
    "clipIndex": 495,
    "trackId": "22",
    "clipName": null,
    "beat": 351.25,
    "relBeat": 47.25,
    "duration": 0.25,
    "velocity": 100,
    "pitch": 60
  },
  {
    "clipIndex": 500,
    "trackId": "22",
    "clipName": null,
    "beat": 351.25,
    "relBeat": 31.25,
    "duration": 0.25,
    "velocity": 100,
    "pitch": 60
  },
  {
    "clipIndex": 501,
    "trackId": "22",
    "clipName": null,
    "beat": 351.25,
    "relBeat": 29.25,
    "duration": 0.25,
    "velocity": 100,
    "pitch": 60
  },
  {
    "clipIndex": 502,
    "trackId": "22",
    "clipName": null,
    "beat": 351.25,
    "relBeat": 27.25,
    "duration": 0.25,
    "velocity": 100,
    "pitch": 60
  },
  {
    "clipIndex": 503,
    "trackId": "22",
    "clipName": null,
    "beat": 351.25,
    "relBeat": 25.25,
    "duration": 0.25,
    "velocity": 100,
    "pitch": 60
  },
  {
    "clipIndex": 505,
    "trackId": "22",
    "clipName": null,
    "beat": 351.25,
    "relBeat": 21.25,
    "duration": 0.25,
    "velocity": 100,
    "pitch": 60
  },
  {
    "clipIndex": 506,
    "trackId": "22",
    "clipName": null,
    "beat": 351.25,
    "relBeat": 19.25,
    "duration": 0.25,
    "velocity": 100,
    "pitch": 60
  },
  {
    "clipIndex": 507,
    "trackId": "22",
    "clipName": null,
    "beat": 351.25,
    "relBeat": 17.25,
    "duration": 0.25,
    "velocity": 100,
    "pitch": 60
  },
  {
    "clipIndex": 508,
    "trackId": "22",
    "clipName": null,
    "beat": 351.25,
    "relBeat": 15.25,
    "duration": 0.25,
    "velocity": 100,
    "pitch": 60
  },
  {
    "clipIndex": 509,
    "trackId": "22",
    "clipName": null,
    "beat": 351.25,
    "relBeat": 13.25,
    "duration": 0.25,
    "velocity": 100,
    "pitch": 60
  },
  {
    "clipIndex": 511,
    "trackId": "22",
    "clipName": null,
    "beat": 351.25,
    "relBeat": 9.25,
    "duration": 0.25,
    "velocity": 100,
    "pitch": 60
  },
  {
    "clipIndex": 513,
    "trackId": "22",
    "clipName": null,
    "beat": 351.25,
    "relBeat": 5.25,
    "duration": 0.25,
    "velocity": 100,
    "pitch": 60
  },
  {
    "clipIndex": 514,
    "trackId": "22",
    "clipName": null,
    "beat": 351.25,
    "relBeat": 3.25,
    "duration": 0.25,
    "velocity": 100,
    "pitch": 60
  },
  {
    "clipIndex": 515,
    "trackId": "22",
    "clipName": null,
    "beat": 351.25,
    "relBeat": 1.25,
    "duration": 0.25,
    "velocity": 100,
    "pitch": 60
  },
  {
    "clipIndex": 0,
    "trackId": "89",
    "clipName": null,
    "beat": 351.5,
    "relBeat": 351.5,
    "duration": 0.25,
    "velocity": 100,
    "pitch": 60
  },
  {
    "clipIndex": 338,
    "trackId": "55",
    "clipName": null,
    "beat": 351.5,
    "relBeat": 151.5,
    "duration": 0.25,
    "velocity": 100,
    "pitch": 60
  },
  {
    "clipIndex": 495,
    "trackId": "22",
    "clipName": null,
    "beat": 351.5,
    "relBeat": 47.5,
    "duration": 0.25,
    "velocity": 100,
    "pitch": 60
  },
  {
    "clipIndex": 500,
    "trackId": "22",
    "clipName": null,
    "beat": 351.5,
    "relBeat": 31.5,
    "duration": 0.25,
    "velocity": 100,
    "pitch": 60
  },
  {
    "clipIndex": 501,
    "trackId": "22",
    "clipName": null,
    "beat": 351.5,
    "relBeat": 29.5,
    "duration": 0.25,
    "velocity": 100,
    "pitch": 60
  },
  {
    "clipIndex": 502,
    "trackId": "22",
    "clipName": null,
    "beat": 351.5,
    "relBeat": 27.5,
    "duration": 0.25,
    "velocity": 100,
    "pitch": 60
  },
  {
    "clipIndex": 503,
    "trackId": "22",
    "clipName": null,
    "beat": 351.5,
    "relBeat": 25.5,
    "duration": 0.25,
    "velocity": 100,
    "pitch": 60
  },
  {
    "clipIndex": 506,
    "trackId": "22",
    "clipName": null,
    "beat": 351.5,
    "relBeat": 19.5,
    "duration": 0.25,
    "velocity": 100,
    "pitch": 60
  },
  {
    "clipIndex": 507,
    "trackId": "22",
    "clipName": null,
    "beat": 351.5,
    "relBeat": 17.5,
    "duration": 0.25,
    "velocity": 100,
    "pitch": 60
  },
  {
    "clipIndex": 508,
    "trackId": "22",
    "clipName": null,
    "beat": 351.5,
    "relBeat": 15.5,
    "duration": 0.25,
    "velocity": 100,
    "pitch": 60
  },
  {
    "clipIndex": 509,
    "trackId": "22",
    "clipName": null,
    "beat": 351.5,
    "relBeat": 13.5,
    "duration": 0.25,
    "velocity": 100,
    "pitch": 60
  },
  {
    "clipIndex": 511,
    "trackId": "22",
    "clipName": null,
    "beat": 351.5,
    "relBeat": 9.5,
    "duration": 0.25,
    "velocity": 100,
    "pitch": 60
  },
  {
    "clipIndex": 513,
    "trackId": "22",
    "clipName": null,
    "beat": 351.5,
    "relBeat": 5.5,
    "duration": 0.25,
    "velocity": 100,
    "pitch": 60
  },
  {
    "clipIndex": 514,
    "trackId": "22",
    "clipName": null,
    "beat": 351.5,
    "relBeat": 3.5,
    "duration": 0.25,
    "velocity": 100,
    "pitch": 60
  },
  {
    "clipIndex": 515,
    "trackId": "22",
    "clipName": null,
    "beat": 351.5,
    "relBeat": 1.5,
    "duration": 0.25,
    "velocity": 100,
    "pitch": 60
  },
  {
    "clipIndex": 0,
    "trackId": "89",
    "clipName": null,
    "beat": 351.75,
    "relBeat": 351.75,
    "duration": 0.25,
    "velocity": 100,
    "pitch": 60
  },
  {
    "clipIndex": 495,
    "trackId": "22",
    "clipName": null,
    "beat": 351.75,
    "relBeat": 47.75,
    "duration": 0.25,
    "velocity": 100,
    "pitch": 60
  },
  {
    "clipIndex": 500,
    "trackId": "22",
    "clipName": null,
    "beat": 351.75,
    "relBeat": 31.75,
    "duration": 0.25,
    "velocity": 100,
    "pitch": 60
  },
  {
    "clipIndex": 501,
    "trackId": "22",
    "clipName": null,
    "beat": 351.75,
    "relBeat": 29.75,
    "duration": 0.25,
    "velocity": 100,
    "pitch": 60
  },
  {
    "clipIndex": 502,
    "trackId": "22",
    "clipName": null,
    "beat": 351.75,
    "relBeat": 27.75,
    "duration": 0.25,
    "velocity": 100,
    "pitch": 60
  },
  {
    "clipIndex": 503,
    "trackId": "22",
    "clipName": null,
    "beat": 351.75,
    "relBeat": 25.75,
    "duration": 0.25,
    "velocity": 100,
    "pitch": 60
  },
  {
    "clipIndex": 506,
    "trackId": "22",
    "clipName": null,
    "beat": 351.75,
    "relBeat": 19.75,
    "duration": 0.25,
    "velocity": 100,
    "pitch": 60
  },
  {
    "clipIndex": 507,
    "trackId": "22",
    "clipName": null,
    "beat": 351.75,
    "relBeat": 17.75,
    "duration": 0.25,
    "velocity": 100,
    "pitch": 60
  },
  {
    "clipIndex": 508,
    "trackId": "22",
    "clipName": null,
    "beat": 351.75,
    "relBeat": 15.75,
    "duration": 0.25,
    "velocity": 100,
    "pitch": 60
  },
  {
    "clipIndex": 509,
    "trackId": "22",
    "clipName": null,
    "beat": 351.75,
    "relBeat": 13.75,
    "duration": 0.25,
    "velocity": 100,
    "pitch": 60
  },
  {
    "clipIndex": 511,
    "trackId": "22",
    "clipName": null,
    "beat": 351.75,
    "relBeat": 9.75,
    "duration": 0.25,
    "velocity": 100,
    "pitch": 60
  },
  {
    "clipIndex": 513,
    "trackId": "22",
    "clipName": null,
    "beat": 351.75,
    "relBeat": 5.75,
    "duration": 0.25,
    "velocity": 100,
    "pitch": 60
  },
  {
    "clipIndex": 514,
    "trackId": "22",
    "clipName": null,
    "beat": 351.75,
    "relBeat": 3.75,
    "duration": 0.25,
    "velocity": 100,
    "pitch": 60
  },
  {
    "clipIndex": 515,
    "trackId": "22",
    "clipName": null,
    "beat": 351.75,
    "relBeat": 1.75,
    "duration": 0.25,
    "velocity": 100,
    "pitch": 60
  },
  {
    "clipIndex": 0,
    "trackId": "89",
    "clipName": null,
    "beat": 352,
    "relBeat": 352,
    "duration": 0.25,
    "velocity": 100,
    "pitch": 60
  },
  {
    "clipIndex": 338,
    "trackId": "55",
    "clipName": null,
    "beat": 352,
    "relBeat": 152,
    "duration": 0.25,
    "velocity": 100,
    "pitch": 60
  },
  {
    "clipIndex": 495,
    "trackId": "22",
    "clipName": null,
    "beat": 352,
    "relBeat": 48,
    "duration": 0.25,
    "velocity": 100,
    "pitch": 60
  },
  {
    "clipIndex": 501,
    "trackId": "22",
    "clipName": null,
    "beat": 352,
    "relBeat": 30,
    "duration": 0.25,
    "velocity": 100,
    "pitch": 60
  },
  {
    "clipIndex": 502,
    "trackId": "22",
    "clipName": null,
    "beat": 352,
    "relBeat": 28,
    "duration": 0.25,
    "velocity": 100,
    "pitch": 60
  },
  {
    "clipIndex": 503,
    "trackId": "22",
    "clipName": null,
    "beat": 352,
    "relBeat": 26,
    "duration": 0.25,
    "velocity": 100,
    "pitch": 60
  },
  {
    "clipIndex": 504,
    "trackId": "22",
    "clipName": null,
    "beat": 352,
    "relBeat": 24,
    "duration": 0.25,
    "velocity": 100,
    "pitch": 60
  },
  {
    "clipIndex": 506,
    "trackId": "22",
    "clipName": null,
    "beat": 352,
    "relBeat": 20,
    "duration": 0.25,
    "velocity": 100,
    "pitch": 60
  },
  {
    "clipIndex": 507,
    "trackId": "22",
    "clipName": null,
    "beat": 352,
    "relBeat": 18,
    "duration": 0.25,
    "velocity": 100,
    "pitch": 60
  },
  {
    "clipIndex": 508,
    "trackId": "22",
    "clipName": null,
    "beat": 352,
    "relBeat": 16,
    "duration": 0.25,
    "velocity": 100,
    "pitch": 60
  },
  {
    "clipIndex": 509,
    "trackId": "22",
    "clipName": null,
    "beat": 352,
    "relBeat": 14,
    "duration": 0.25,
    "velocity": 100,
    "pitch": 60
  },
  {
    "clipIndex": 510,
    "trackId": "22",
    "clipName": null,
    "beat": 352,
    "relBeat": 12,
    "duration": 0.25,
    "velocity": 100,
    "pitch": 60
  },
  {
    "clipIndex": 511,
    "trackId": "22",
    "clipName": null,
    "beat": 352,
    "relBeat": 10,
    "duration": 0.25,
    "velocity": 100,
    "pitch": 60
  },
  {
    "clipIndex": 514,
    "trackId": "22",
    "clipName": null,
    "beat": 352,
    "relBeat": 4,
    "duration": 0.25,
    "velocity": 100,
    "pitch": 60
  },
  {
    "clipIndex": 515,
    "trackId": "22",
    "clipName": null,
    "beat": 352,
    "relBeat": 2,
    "duration": 0.25,
    "velocity": 100,
    "pitch": 60
  },
  {
    "clipIndex": 516,
    "trackId": "22",
    "clipName": null,
    "beat": 352,
    "relBeat": 0,
    "duration": 0.25,
    "velocity": 100,
    "pitch": 60
  },
  {
    "clipIndex": 0,
    "trackId": "89",
    "clipName": null,
    "beat": 352.25,
    "relBeat": 352.25,
    "duration": 0.25,
    "velocity": 100,
    "pitch": 60
  },
  {
    "clipIndex": 495,
    "trackId": "22",
    "clipName": null,
    "beat": 352.25,
    "relBeat": 48.25,
    "duration": 0.25,
    "velocity": 100,
    "pitch": 60
  },
  {
    "clipIndex": 501,
    "trackId": "22",
    "clipName": null,
    "beat": 352.25,
    "relBeat": 30.25,
    "duration": 0.25,
    "velocity": 100,
    "pitch": 60
  },
  {
    "clipIndex": 502,
    "trackId": "22",
    "clipName": null,
    "beat": 352.25,
    "relBeat": 28.25,
    "duration": 0.25,
    "velocity": 100,
    "pitch": 60
  },
  {
    "clipIndex": 503,
    "trackId": "22",
    "clipName": null,
    "beat": 352.25,
    "relBeat": 26.25,
    "duration": 0.25,
    "velocity": 100,
    "pitch": 60
  },
  {
    "clipIndex": 504,
    "trackId": "22",
    "clipName": null,
    "beat": 352.25,
    "relBeat": 24.25,
    "duration": 0.25,
    "velocity": 100,
    "pitch": 60
  },
  {
    "clipIndex": 506,
    "trackId": "22",
    "clipName": null,
    "beat": 352.25,
    "relBeat": 20.25,
    "duration": 0.25,
    "velocity": 100,
    "pitch": 60
  },
  {
    "clipIndex": 507,
    "trackId": "22",
    "clipName": null,
    "beat": 352.25,
    "relBeat": 18.25,
    "duration": 0.25,
    "velocity": 100,
    "pitch": 60
  },
  {
    "clipIndex": 508,
    "trackId": "22",
    "clipName": null,
    "beat": 352.25,
    "relBeat": 16.25,
    "duration": 0.25,
    "velocity": 100,
    "pitch": 60
  },
  {
    "clipIndex": 509,
    "trackId": "22",
    "clipName": null,
    "beat": 352.25,
    "relBeat": 14.25,
    "duration": 0.25,
    "velocity": 100,
    "pitch": 60
  },
  {
    "clipIndex": 510,
    "trackId": "22",
    "clipName": null,
    "beat": 352.25,
    "relBeat": 12.25,
    "duration": 0.25,
    "velocity": 100,
    "pitch": 60
  },
  {
    "clipIndex": 514,
    "trackId": "22",
    "clipName": null,
    "beat": 352.25,
    "relBeat": 4.25,
    "duration": 0.25,
    "velocity": 100,
    "pitch": 60
  },
  {
    "clipIndex": 515,
    "trackId": "22",
    "clipName": null,
    "beat": 352.25,
    "relBeat": 2.25,
    "duration": 0.25,
    "velocity": 100,
    "pitch": 60
  },
  {
    "clipIndex": 516,
    "trackId": "22",
    "clipName": null,
    "beat": 352.25,
    "relBeat": 0.25,
    "duration": 0.25,
    "velocity": 100,
    "pitch": 60
  },
  {
    "clipIndex": 0,
    "trackId": "89",
    "clipName": null,
    "beat": 352.5,
    "relBeat": 352.5,
    "duration": 0.25,
    "velocity": 100,
    "pitch": 60
  },
  {
    "clipIndex": 338,
    "trackId": "55",
    "clipName": null,
    "beat": 352.5,
    "relBeat": 152.5,
    "duration": 0.25,
    "velocity": 100,
    "pitch": 60
  },
  {
    "clipIndex": 501,
    "trackId": "22",
    "clipName": null,
    "beat": 352.5,
    "relBeat": 30.5,
    "duration": 0.25,
    "velocity": 100,
    "pitch": 60
  },
  {
    "clipIndex": 502,
    "trackId": "22",
    "clipName": null,
    "beat": 352.5,
    "relBeat": 28.5,
    "duration": 0.25,
    "velocity": 100,
    "pitch": 60
  },
  {
    "clipIndex": 503,
    "trackId": "22",
    "clipName": null,
    "beat": 352.5,
    "relBeat": 26.5,
    "duration": 0.25,
    "velocity": 100,
    "pitch": 60
  },
  {
    "clipIndex": 504,
    "trackId": "22",
    "clipName": null,
    "beat": 352.5,
    "relBeat": 24.5,
    "duration": 0.25,
    "velocity": 100,
    "pitch": 60
  },
  {
    "clipIndex": 506,
    "trackId": "22",
    "clipName": null,
    "beat": 352.5,
    "relBeat": 20.5,
    "duration": 0.25,
    "velocity": 100,
    "pitch": 60
  },
  {
    "clipIndex": 507,
    "trackId": "22",
    "clipName": null,
    "beat": 352.5,
    "relBeat": 18.5,
    "duration": 0.25,
    "velocity": 100,
    "pitch": 60
  },
  {
    "clipIndex": 508,
    "trackId": "22",
    "clipName": null,
    "beat": 352.5,
    "relBeat": 16.5,
    "duration": 0.25,
    "velocity": 100,
    "pitch": 60
  },
  {
    "clipIndex": 509,
    "trackId": "22",
    "clipName": null,
    "beat": 352.5,
    "relBeat": 14.5,
    "duration": 0.25,
    "velocity": 100,
    "pitch": 60
  },
  {
    "clipIndex": 510,
    "trackId": "22",
    "clipName": null,
    "beat": 352.5,
    "relBeat": 12.5,
    "duration": 0.25,
    "velocity": 100,
    "pitch": 60
  },
  {
    "clipIndex": 514,
    "trackId": "22",
    "clipName": null,
    "beat": 352.5,
    "relBeat": 4.5,
    "duration": 0.25,
    "velocity": 100,
    "pitch": 60
  },
  {
    "clipIndex": 515,
    "trackId": "22",
    "clipName": null,
    "beat": 352.5,
    "relBeat": 2.5,
    "duration": 0.25,
    "velocity": 100,
    "pitch": 60
  },
  {
    "clipIndex": 516,
    "trackId": "22",
    "clipName": null,
    "beat": 352.5,
    "relBeat": 0.5,
    "duration": 0.25,
    "velocity": 100,
    "pitch": 60
  },
  {
    "clipIndex": 0,
    "trackId": "89",
    "clipName": null,
    "beat": 352.75,
    "relBeat": 352.75,
    "duration": 0.25,
    "velocity": 100,
    "pitch": 60
  },
  {
    "clipIndex": 501,
    "trackId": "22",
    "clipName": null,
    "beat": 352.75,
    "relBeat": 30.75,
    "duration": 0.25,
    "velocity": 100,
    "pitch": 60
  },
  {
    "clipIndex": 502,
    "trackId": "22",
    "clipName": null,
    "beat": 352.75,
    "relBeat": 28.75,
    "duration": 0.25,
    "velocity": 100,
    "pitch": 60
  },
  {
    "clipIndex": 503,
    "trackId": "22",
    "clipName": null,
    "beat": 352.75,
    "relBeat": 26.75,
    "duration": 0.25,
    "velocity": 100,
    "pitch": 60
  },
  {
    "clipIndex": 504,
    "trackId": "22",
    "clipName": null,
    "beat": 352.75,
    "relBeat": 24.75,
    "duration": 0.25,
    "velocity": 100,
    "pitch": 60
  },
  {
    "clipIndex": 506,
    "trackId": "22",
    "clipName": null,
    "beat": 352.75,
    "relBeat": 20.75,
    "duration": 0.25,
    "velocity": 100,
    "pitch": 60
  },
  {
    "clipIndex": 507,
    "trackId": "22",
    "clipName": null,
    "beat": 352.75,
    "relBeat": 18.75,
    "duration": 0.25,
    "velocity": 100,
    "pitch": 60
  },
  {
    "clipIndex": 508,
    "trackId": "22",
    "clipName": null,
    "beat": 352.75,
    "relBeat": 16.75,
    "duration": 0.25,
    "velocity": 100,
    "pitch": 60
  },
  {
    "clipIndex": 509,
    "trackId": "22",
    "clipName": null,
    "beat": 352.75,
    "relBeat": 14.75,
    "duration": 0.25,
    "velocity": 100,
    "pitch": 60
  },
  {
    "clipIndex": 510,
    "trackId": "22",
    "clipName": null,
    "beat": 352.75,
    "relBeat": 12.75,
    "duration": 0.25,
    "velocity": 100,
    "pitch": 60
  },
  {
    "clipIndex": 514,
    "trackId": "22",
    "clipName": null,
    "beat": 352.75,
    "relBeat": 4.75,
    "duration": 0.25,
    "velocity": 100,
    "pitch": 60
  },
  {
    "clipIndex": 515,
    "trackId": "22",
    "clipName": null,
    "beat": 352.75,
    "relBeat": 2.75,
    "duration": 0.25,
    "velocity": 100,
    "pitch": 60
  },
  {
    "clipIndex": 516,
    "trackId": "22",
    "clipName": null,
    "beat": 352.75,
    "relBeat": 0.75,
    "duration": 0.25,
    "velocity": 100,
    "pitch": 60
  },
  {
    "clipIndex": 0,
    "trackId": "89",
    "clipName": null,
    "beat": 353,
    "relBeat": 353,
    "duration": 0.25,
    "velocity": 100,
    "pitch": 60
  },
  {
    "clipIndex": 338,
    "trackId": "55",
    "clipName": null,
    "beat": 353,
    "relBeat": 153,
    "duration": 0.25,
    "velocity": 100,
    "pitch": 60
  },
  {
    "clipIndex": 495,
    "trackId": "22",
    "clipName": null,
    "beat": 353,
    "relBeat": 49,
    "duration": 0.25,
    "velocity": 100,
    "pitch": 60
  },
  {
    "clipIndex": 501,
    "trackId": "22",
    "clipName": null,
    "beat": 353,
    "relBeat": 31,
    "duration": 0.25,
    "velocity": 100,
    "pitch": 60
  },
  {
    "clipIndex": 502,
    "trackId": "22",
    "clipName": null,
    "beat": 353,
    "relBeat": 29,
    "duration": 0.25,
    "velocity": 100,
    "pitch": 60
  },
  {
    "clipIndex": 503,
    "trackId": "22",
    "clipName": null,
    "beat": 353,
    "relBeat": 27,
    "duration": 0.25,
    "velocity": 100,
    "pitch": 60
  },
  {
    "clipIndex": 504,
    "trackId": "22",
    "clipName": null,
    "beat": 353,
    "relBeat": 25,
    "duration": 0.25,
    "velocity": 100,
    "pitch": 60
  },
  {
    "clipIndex": 506,
    "trackId": "22",
    "clipName": null,
    "beat": 353,
    "relBeat": 21,
    "duration": 0.25,
    "velocity": 100,
    "pitch": 60
  },
  {
    "clipIndex": 507,
    "trackId": "22",
    "clipName": null,
    "beat": 353,
    "relBeat": 19,
    "duration": 0.25,
    "velocity": 100,
    "pitch": 60
  },
  {
    "clipIndex": 508,
    "trackId": "22",
    "clipName": null,
    "beat": 353,
    "relBeat": 17,
    "duration": 0.25,
    "velocity": 100,
    "pitch": 60
  },
  {
    "clipIndex": 509,
    "trackId": "22",
    "clipName": null,
    "beat": 353,
    "relBeat": 15,
    "duration": 0.25,
    "velocity": 100,
    "pitch": 60
  },
  {
    "clipIndex": 510,
    "trackId": "22",
    "clipName": null,
    "beat": 353,
    "relBeat": 13,
    "duration": 0.25,
    "velocity": 100,
    "pitch": 60
  },
  {
    "clipIndex": 512,
    "trackId": "22",
    "clipName": null,
    "beat": 353,
    "relBeat": 9,
    "duration": 0.25,
    "velocity": 100,
    "pitch": 60
  },
  {
    "clipIndex": 514,
    "trackId": "22",
    "clipName": null,
    "beat": 353,
    "relBeat": 5,
    "duration": 0.25,
    "velocity": 100,
    "pitch": 60
  },
  {
    "clipIndex": 515,
    "trackId": "22",
    "clipName": null,
    "beat": 353,
    "relBeat": 3,
    "duration": 0.25,
    "velocity": 100,
    "pitch": 60
  },
  {
    "clipIndex": 516,
    "trackId": "22",
    "clipName": null,
    "beat": 353,
    "relBeat": 1,
    "duration": 0.25,
    "velocity": 100,
    "pitch": 60
  },
  {
    "clipIndex": 0,
    "trackId": "89",
    "clipName": null,
    "beat": 353.25,
    "relBeat": 353.25,
    "duration": 0.25,
    "velocity": 100,
    "pitch": 60
  },
  {
    "clipIndex": 495,
    "trackId": "22",
    "clipName": null,
    "beat": 353.25,
    "relBeat": 49.25,
    "duration": 0.25,
    "velocity": 100,
    "pitch": 60
  },
  {
    "clipIndex": 501,
    "trackId": "22",
    "clipName": null,
    "beat": 353.25,
    "relBeat": 31.25,
    "duration": 0.25,
    "velocity": 100,
    "pitch": 60
  },
  {
    "clipIndex": 502,
    "trackId": "22",
    "clipName": null,
    "beat": 353.25,
    "relBeat": 29.25,
    "duration": 0.25,
    "velocity": 100,
    "pitch": 60
  },
  {
    "clipIndex": 503,
    "trackId": "22",
    "clipName": null,
    "beat": 353.25,
    "relBeat": 27.25,
    "duration": 0.25,
    "velocity": 100,
    "pitch": 60
  },
  {
    "clipIndex": 504,
    "trackId": "22",
    "clipName": null,
    "beat": 353.25,
    "relBeat": 25.25,
    "duration": 0.25,
    "velocity": 100,
    "pitch": 60
  },
  {
    "clipIndex": 506,
    "trackId": "22",
    "clipName": null,
    "beat": 353.25,
    "relBeat": 21.25,
    "duration": 0.25,
    "velocity": 100,
    "pitch": 60
  },
  {
    "clipIndex": 507,
    "trackId": "22",
    "clipName": null,
    "beat": 353.25,
    "relBeat": 19.25,
    "duration": 0.25,
    "velocity": 100,
    "pitch": 60
  },
  {
    "clipIndex": 508,
    "trackId": "22",
    "clipName": null,
    "beat": 353.25,
    "relBeat": 17.25,
    "duration": 0.25,
    "velocity": 100,
    "pitch": 60
  },
  {
    "clipIndex": 509,
    "trackId": "22",
    "clipName": null,
    "beat": 353.25,
    "relBeat": 15.25,
    "duration": 0.25,
    "velocity": 100,
    "pitch": 60
  },
  {
    "clipIndex": 510,
    "trackId": "22",
    "clipName": null,
    "beat": 353.25,
    "relBeat": 13.25,
    "duration": 0.25,
    "velocity": 100,
    "pitch": 60
  },
  {
    "clipIndex": 512,
    "trackId": "22",
    "clipName": null,
    "beat": 353.25,
    "relBeat": 9.25,
    "duration": 0.25,
    "velocity": 100,
    "pitch": 60
  },
  {
    "clipIndex": 514,
    "trackId": "22",
    "clipName": null,
    "beat": 353.25,
    "relBeat": 5.25,
    "duration": 0.25,
    "velocity": 100,
    "pitch": 60
  },
  {
    "clipIndex": 515,
    "trackId": "22",
    "clipName": null,
    "beat": 353.25,
    "relBeat": 3.25,
    "duration": 0.25,
    "velocity": 100,
    "pitch": 60
  },
  {
    "clipIndex": 516,
    "trackId": "22",
    "clipName": null,
    "beat": 353.25,
    "relBeat": 1.25,
    "duration": 0.25,
    "velocity": 100,
    "pitch": 60
  },
  {
    "clipIndex": 0,
    "trackId": "89",
    "clipName": null,
    "beat": 353.5,
    "relBeat": 353.5,
    "duration": 0.25,
    "velocity": 100,
    "pitch": 60
  },
  {
    "clipIndex": 338,
    "trackId": "55",
    "clipName": null,
    "beat": 353.5,
    "relBeat": 153.5,
    "duration": 0.25,
    "velocity": 100,
    "pitch": 60
  },
  {
    "clipIndex": 495,
    "trackId": "22",
    "clipName": null,
    "beat": 353.5,
    "relBeat": 49.5,
    "duration": 0.25,
    "velocity": 100,
    "pitch": 60
  },
  {
    "clipIndex": 501,
    "trackId": "22",
    "clipName": null,
    "beat": 353.5,
    "relBeat": 31.5,
    "duration": 0.25,
    "velocity": 100,
    "pitch": 60
  },
  {
    "clipIndex": 502,
    "trackId": "22",
    "clipName": null,
    "beat": 353.5,
    "relBeat": 29.5,
    "duration": 0.25,
    "velocity": 100,
    "pitch": 60
  },
  {
    "clipIndex": 503,
    "trackId": "22",
    "clipName": null,
    "beat": 353.5,
    "relBeat": 27.5,
    "duration": 0.25,
    "velocity": 100,
    "pitch": 60
  },
  {
    "clipIndex": 504,
    "trackId": "22",
    "clipName": null,
    "beat": 353.5,
    "relBeat": 25.5,
    "duration": 0.25,
    "velocity": 100,
    "pitch": 60
  },
  {
    "clipIndex": 507,
    "trackId": "22",
    "clipName": null,
    "beat": 353.5,
    "relBeat": 19.5,
    "duration": 0.25,
    "velocity": 100,
    "pitch": 60
  },
  {
    "clipIndex": 508,
    "trackId": "22",
    "clipName": null,
    "beat": 353.5,
    "relBeat": 17.5,
    "duration": 0.25,
    "velocity": 100,
    "pitch": 60
  },
  {
    "clipIndex": 509,
    "trackId": "22",
    "clipName": null,
    "beat": 353.5,
    "relBeat": 15.5,
    "duration": 0.25,
    "velocity": 100,
    "pitch": 60
  },
  {
    "clipIndex": 510,
    "trackId": "22",
    "clipName": null,
    "beat": 353.5,
    "relBeat": 13.5,
    "duration": 0.25,
    "velocity": 100,
    "pitch": 60
  },
  {
    "clipIndex": 512,
    "trackId": "22",
    "clipName": null,
    "beat": 353.5,
    "relBeat": 9.5,
    "duration": 0.25,
    "velocity": 100,
    "pitch": 60
  },
  {
    "clipIndex": 514,
    "trackId": "22",
    "clipName": null,
    "beat": 353.5,
    "relBeat": 5.5,
    "duration": 0.25,
    "velocity": 100,
    "pitch": 60
  },
  {
    "clipIndex": 515,
    "trackId": "22",
    "clipName": null,
    "beat": 353.5,
    "relBeat": 3.5,
    "duration": 0.25,
    "velocity": 100,
    "pitch": 60
  },
  {
    "clipIndex": 516,
    "trackId": "22",
    "clipName": null,
    "beat": 353.5,
    "relBeat": 1.5,
    "duration": 0.25,
    "velocity": 100,
    "pitch": 60
  },
  {
    "clipIndex": 0,
    "trackId": "89",
    "clipName": null,
    "beat": 353.75,
    "relBeat": 353.75,
    "duration": 0.25,
    "velocity": 100,
    "pitch": 60
  },
  {
    "clipIndex": 495,
    "trackId": "22",
    "clipName": null,
    "beat": 353.75,
    "relBeat": 49.75,
    "duration": 0.25,
    "velocity": 100,
    "pitch": 60
  },
  {
    "clipIndex": 501,
    "trackId": "22",
    "clipName": null,
    "beat": 353.75,
    "relBeat": 31.75,
    "duration": 0.25,
    "velocity": 100,
    "pitch": 60
  },
  {
    "clipIndex": 502,
    "trackId": "22",
    "clipName": null,
    "beat": 353.75,
    "relBeat": 29.75,
    "duration": 0.25,
    "velocity": 100,
    "pitch": 60
  },
  {
    "clipIndex": 503,
    "trackId": "22",
    "clipName": null,
    "beat": 353.75,
    "relBeat": 27.75,
    "duration": 0.25,
    "velocity": 100,
    "pitch": 60
  },
  {
    "clipIndex": 504,
    "trackId": "22",
    "clipName": null,
    "beat": 353.75,
    "relBeat": 25.75,
    "duration": 0.25,
    "velocity": 100,
    "pitch": 60
  },
  {
    "clipIndex": 507,
    "trackId": "22",
    "clipName": null,
    "beat": 353.75,
    "relBeat": 19.75,
    "duration": 0.25,
    "velocity": 100,
    "pitch": 60
  },
  {
    "clipIndex": 508,
    "trackId": "22",
    "clipName": null,
    "beat": 353.75,
    "relBeat": 17.75,
    "duration": 0.25,
    "velocity": 100,
    "pitch": 60
  },
  {
    "clipIndex": 509,
    "trackId": "22",
    "clipName": null,
    "beat": 353.75,
    "relBeat": 15.75,
    "duration": 0.25,
    "velocity": 100,
    "pitch": 60
  },
  {
    "clipIndex": 510,
    "trackId": "22",
    "clipName": null,
    "beat": 353.75,
    "relBeat": 13.75,
    "duration": 0.25,
    "velocity": 100,
    "pitch": 60
  },
  {
    "clipIndex": 512,
    "trackId": "22",
    "clipName": null,
    "beat": 353.75,
    "relBeat": 9.75,
    "duration": 0.25,
    "velocity": 100,
    "pitch": 60
  },
  {
    "clipIndex": 514,
    "trackId": "22",
    "clipName": null,
    "beat": 353.75,
    "relBeat": 5.75,
    "duration": 0.25,
    "velocity": 100,
    "pitch": 60
  },
  {
    "clipIndex": 515,
    "trackId": "22",
    "clipName": null,
    "beat": 353.75,
    "relBeat": 3.75,
    "duration": 0.25,
    "velocity": 100,
    "pitch": 60
  },
  {
    "clipIndex": 516,
    "trackId": "22",
    "clipName": null,
    "beat": 353.75,
    "relBeat": 1.75,
    "duration": 0.25,
    "velocity": 100,
    "pitch": 60
  },
  {
    "clipIndex": 0,
    "trackId": "89",
    "clipName": null,
    "beat": 354,
    "relBeat": 354,
    "duration": 0.25,
    "velocity": 100,
    "pitch": 60
  },
  {
    "clipIndex": 338,
    "trackId": "55",
    "clipName": null,
    "beat": 354,
    "relBeat": 154,
    "duration": 0.25000026015651017,
    "velocity": 100,
    "pitch": 60
  },
  {
    "clipIndex": 502,
    "trackId": "22",
    "clipName": null,
    "beat": 354,
    "relBeat": 30,
    "duration": 0.25,
    "velocity": 100,
    "pitch": 60
  },
  {
    "clipIndex": 503,
    "trackId": "22",
    "clipName": null,
    "beat": 354,
    "relBeat": 28,
    "duration": 0.25,
    "velocity": 100,
    "pitch": 60
  },
  {
    "clipIndex": 504,
    "trackId": "22",
    "clipName": null,
    "beat": 354,
    "relBeat": 26,
    "duration": 0.25,
    "velocity": 100,
    "pitch": 60
  },
  {
    "clipIndex": 505,
    "trackId": "22",
    "clipName": null,
    "beat": 354,
    "relBeat": 24,
    "duration": 0.25,
    "velocity": 100,
    "pitch": 60
  },
  {
    "clipIndex": 507,
    "trackId": "22",
    "clipName": null,
    "beat": 354,
    "relBeat": 20,
    "duration": 0.25,
    "velocity": 100,
    "pitch": 60
  },
  {
    "clipIndex": 508,
    "trackId": "22",
    "clipName": null,
    "beat": 354,
    "relBeat": 18,
    "duration": 0.25,
    "velocity": 100,
    "pitch": 60
  },
  {
    "clipIndex": 509,
    "trackId": "22",
    "clipName": null,
    "beat": 354,
    "relBeat": 16,
    "duration": 0.25,
    "velocity": 100,
    "pitch": 60
  },
  {
    "clipIndex": 510,
    "trackId": "22",
    "clipName": null,
    "beat": 354,
    "relBeat": 14,
    "duration": 0.25,
    "velocity": 100,
    "pitch": 60
  },
  {
    "clipIndex": 511,
    "trackId": "22",
    "clipName": null,
    "beat": 354,
    "relBeat": 12,
    "duration": 0.25,
    "velocity": 100,
    "pitch": 60
  },
  {
    "clipIndex": 512,
    "trackId": "22",
    "clipName": null,
    "beat": 354,
    "relBeat": 10,
    "duration": 0.25,
    "velocity": 100,
    "pitch": 60
  },
  {
    "clipIndex": 515,
    "trackId": "22",
    "clipName": null,
    "beat": 354,
    "relBeat": 4,
    "duration": 0.25,
    "velocity": 100,
    "pitch": 60
  },
  {
    "clipIndex": 516,
    "trackId": "22",
    "clipName": null,
    "beat": 354,
    "relBeat": 2,
    "duration": 0.25,
    "velocity": 100,
    "pitch": 60
  },
  {
    "clipIndex": 517,
    "trackId": "22",
    "clipName": null,
    "beat": 354,
    "relBeat": 0,
    "duration": 0.25,
    "velocity": 100,
    "pitch": 60
  },
  {
    "clipIndex": 0,
    "trackId": "89",
    "clipName": null,
    "beat": 354.25,
    "relBeat": 354.25,
    "duration": 0.25,
    "velocity": 100,
    "pitch": 60
  },
  {
    "clipIndex": 502,
    "trackId": "22",
    "clipName": null,
    "beat": 354.25,
    "relBeat": 30.25,
    "duration": 0.25,
    "velocity": 100,
    "pitch": 60
  },
  {
    "clipIndex": 503,
    "trackId": "22",
    "clipName": null,
    "beat": 354.25,
    "relBeat": 28.25,
    "duration": 0.25,
    "velocity": 100,
    "pitch": 60
  },
  {
    "clipIndex": 504,
    "trackId": "22",
    "clipName": null,
    "beat": 354.25,
    "relBeat": 26.25,
    "duration": 0.25,
    "velocity": 100,
    "pitch": 60
  },
  {
    "clipIndex": 505,
    "trackId": "22",
    "clipName": null,
    "beat": 354.25,
    "relBeat": 24.25,
    "duration": 0.25,
    "velocity": 100,
    "pitch": 60
  },
  {
    "clipIndex": 507,
    "trackId": "22",
    "clipName": null,
    "beat": 354.25,
    "relBeat": 20.25,
    "duration": 0.25,
    "velocity": 100,
    "pitch": 60
  },
  {
    "clipIndex": 508,
    "trackId": "22",
    "clipName": null,
    "beat": 354.25,
    "relBeat": 18.25,
    "duration": 0.25,
    "velocity": 100,
    "pitch": 60
  },
  {
    "clipIndex": 509,
    "trackId": "22",
    "clipName": null,
    "beat": 354.25,
    "relBeat": 16.25,
    "duration": 0.25,
    "velocity": 100,
    "pitch": 60
  },
  {
    "clipIndex": 510,
    "trackId": "22",
    "clipName": null,
    "beat": 354.25,
    "relBeat": 14.25,
    "duration": 0.25,
    "velocity": 100,
    "pitch": 60
  },
  {
    "clipIndex": 511,
    "trackId": "22",
    "clipName": null,
    "beat": 354.25,
    "relBeat": 12.25,
    "duration": 0.25,
    "velocity": 100,
    "pitch": 60
  },
  {
    "clipIndex": 515,
    "trackId": "22",
    "clipName": null,
    "beat": 354.25,
    "relBeat": 4.25,
    "duration": 0.25,
    "velocity": 100,
    "pitch": 60
  },
  {
    "clipIndex": 516,
    "trackId": "22",
    "clipName": null,
    "beat": 354.25,
    "relBeat": 2.25,
    "duration": 0.25,
    "velocity": 100,
    "pitch": 60
  },
  {
    "clipIndex": 517,
    "trackId": "22",
    "clipName": null,
    "beat": 354.25,
    "relBeat": 0.25,
    "duration": 0.25,
    "velocity": 100,
    "pitch": 60
  },
  {
    "clipIndex": 0,
    "trackId": "89",
    "clipName": null,
    "beat": 354.5,
    "relBeat": 354.5,
    "duration": 0.25,
    "velocity": 100,
    "pitch": 60
  },
  {
    "clipIndex": 495,
    "trackId": "22",
    "clipName": null,
    "beat": 354.5,
    "relBeat": 50.5,
    "duration": 0.25,
    "velocity": 100,
    "pitch": 60
  },
  {
    "clipIndex": 502,
    "trackId": "22",
    "clipName": null,
    "beat": 354.5,
    "relBeat": 30.5,
    "duration": 0.25,
    "velocity": 100,
    "pitch": 60
  },
  {
    "clipIndex": 503,
    "trackId": "22",
    "clipName": null,
    "beat": 354.5,
    "relBeat": 28.5,
    "duration": 0.25,
    "velocity": 100,
    "pitch": 60
  },
  {
    "clipIndex": 504,
    "trackId": "22",
    "clipName": null,
    "beat": 354.5,
    "relBeat": 26.5,
    "duration": 0.25,
    "velocity": 100,
    "pitch": 60
  },
  {
    "clipIndex": 505,
    "trackId": "22",
    "clipName": null,
    "beat": 354.5,
    "relBeat": 24.5,
    "duration": 0.25,
    "velocity": 100,
    "pitch": 60
  },
  {
    "clipIndex": 507,
    "trackId": "22",
    "clipName": null,
    "beat": 354.5,
    "relBeat": 20.5,
    "duration": 0.25,
    "velocity": 100,
    "pitch": 60
  },
  {
    "clipIndex": 508,
    "trackId": "22",
    "clipName": null,
    "beat": 354.5,
    "relBeat": 18.5,
    "duration": 0.25,
    "velocity": 100,
    "pitch": 60
  },
  {
    "clipIndex": 509,
    "trackId": "22",
    "clipName": null,
    "beat": 354.5,
    "relBeat": 16.5,
    "duration": 0.25,
    "velocity": 100,
    "pitch": 60
  },
  {
    "clipIndex": 510,
    "trackId": "22",
    "clipName": null,
    "beat": 354.5,
    "relBeat": 14.5,
    "duration": 0.25,
    "velocity": 100,
    "pitch": 60
  },
  {
    "clipIndex": 511,
    "trackId": "22",
    "clipName": null,
    "beat": 354.5,
    "relBeat": 12.5,
    "duration": 0.25,
    "velocity": 100,
    "pitch": 60
  },
  {
    "clipIndex": 515,
    "trackId": "22",
    "clipName": null,
    "beat": 354.5,
    "relBeat": 4.5,
    "duration": 0.25,
    "velocity": 100,
    "pitch": 60
  },
  {
    "clipIndex": 516,
    "trackId": "22",
    "clipName": null,
    "beat": 354.5,
    "relBeat": 2.5,
    "duration": 0.25,
    "velocity": 100,
    "pitch": 60
  },
  {
    "clipIndex": 517,
    "trackId": "22",
    "clipName": null,
    "beat": 354.5,
    "relBeat": 0.5,
    "duration": 0.25,
    "velocity": 100,
    "pitch": 60
  },
  {
    "clipIndex": 0,
    "trackId": "89",
    "clipName": null,
    "beat": 354.75,
    "relBeat": 354.75,
    "duration": 0.25,
    "velocity": 100,
    "pitch": 60
  },
  {
    "clipIndex": 495,
    "trackId": "22",
    "clipName": null,
    "beat": 354.75,
    "relBeat": 50.75,
    "duration": 0.25,
    "velocity": 100,
    "pitch": 60
  },
  {
    "clipIndex": 502,
    "trackId": "22",
    "clipName": null,
    "beat": 354.75,
    "relBeat": 30.75,
    "duration": 0.25,
    "velocity": 100,
    "pitch": 60
  },
  {
    "clipIndex": 503,
    "trackId": "22",
    "clipName": null,
    "beat": 354.75,
    "relBeat": 28.75,
    "duration": 0.25,
    "velocity": 100,
    "pitch": 60
  },
  {
    "clipIndex": 504,
    "trackId": "22",
    "clipName": null,
    "beat": 354.75,
    "relBeat": 26.75,
    "duration": 0.25,
    "velocity": 100,
    "pitch": 60
  },
  {
    "clipIndex": 505,
    "trackId": "22",
    "clipName": null,
    "beat": 354.75,
    "relBeat": 24.75,
    "duration": 0.25,
    "velocity": 100,
    "pitch": 60
  },
  {
    "clipIndex": 507,
    "trackId": "22",
    "clipName": null,
    "beat": 354.75,
    "relBeat": 20.75,
    "duration": 0.25,
    "velocity": 100,
    "pitch": 60
  },
  {
    "clipIndex": 508,
    "trackId": "22",
    "clipName": null,
    "beat": 354.75,
    "relBeat": 18.75,
    "duration": 0.25,
    "velocity": 100,
    "pitch": 60
  },
  {
    "clipIndex": 509,
    "trackId": "22",
    "clipName": null,
    "beat": 354.75,
    "relBeat": 16.75,
    "duration": 0.25,
    "velocity": 100,
    "pitch": 60
  },
  {
    "clipIndex": 510,
    "trackId": "22",
    "clipName": null,
    "beat": 354.75,
    "relBeat": 14.75,
    "duration": 0.25,
    "velocity": 100,
    "pitch": 60
  },
  {
    "clipIndex": 511,
    "trackId": "22",
    "clipName": null,
    "beat": 354.75,
    "relBeat": 12.75,
    "duration": 0.25,
    "velocity": 100,
    "pitch": 60
  },
  {
    "clipIndex": 515,
    "trackId": "22",
    "clipName": null,
    "beat": 354.75,
    "relBeat": 4.75,
    "duration": 0.25,
    "velocity": 100,
    "pitch": 60
  },
  {
    "clipIndex": 516,
    "trackId": "22",
    "clipName": null,
    "beat": 354.75,
    "relBeat": 2.75,
    "duration": 0.25,
    "velocity": 100,
    "pitch": 60
  },
  {
    "clipIndex": 517,
    "trackId": "22",
    "clipName": null,
    "beat": 354.75,
    "relBeat": 0.75,
    "duration": 0.25,
    "velocity": 100,
    "pitch": 60
  },
  {
    "clipIndex": 0,
    "trackId": "89",
    "clipName": null,
    "beat": 355,
    "relBeat": 355,
    "duration": 0.25,
    "velocity": 100,
    "pitch": 60
  },
  {
    "clipIndex": 495,
    "trackId": "22",
    "clipName": null,
    "beat": 355,
    "relBeat": 51,
    "duration": 0.25,
    "velocity": 100,
    "pitch": 60
  },
  {
    "clipIndex": 502,
    "trackId": "22",
    "clipName": null,
    "beat": 355,
    "relBeat": 31,
    "duration": 0.25,
    "velocity": 100,
    "pitch": 60
  },
  {
    "clipIndex": 503,
    "trackId": "22",
    "clipName": null,
    "beat": 355,
    "relBeat": 29,
    "duration": 0.25,
    "velocity": 100,
    "pitch": 60
  },
  {
    "clipIndex": 504,
    "trackId": "22",
    "clipName": null,
    "beat": 355,
    "relBeat": 27,
    "duration": 0.25,
    "velocity": 100,
    "pitch": 60
  },
  {
    "clipIndex": 505,
    "trackId": "22",
    "clipName": null,
    "beat": 355,
    "relBeat": 25,
    "duration": 0.25,
    "velocity": 100,
    "pitch": 60
  },
  {
    "clipIndex": 507,
    "trackId": "22",
    "clipName": null,
    "beat": 355,
    "relBeat": 21,
    "duration": 0.25,
    "velocity": 100,
    "pitch": 60
  },
  {
    "clipIndex": 508,
    "trackId": "22",
    "clipName": null,
    "beat": 355,
    "relBeat": 19,
    "duration": 0.25,
    "velocity": 100,
    "pitch": 60
  },
  {
    "clipIndex": 509,
    "trackId": "22",
    "clipName": null,
    "beat": 355,
    "relBeat": 17,
    "duration": 0.25,
    "velocity": 100,
    "pitch": 60
  },
  {
    "clipIndex": 510,
    "trackId": "22",
    "clipName": null,
    "beat": 355,
    "relBeat": 15,
    "duration": 0.25,
    "velocity": 100,
    "pitch": 60
  },
  {
    "clipIndex": 511,
    "trackId": "22",
    "clipName": null,
    "beat": 355,
    "relBeat": 13,
    "duration": 0.25,
    "velocity": 100,
    "pitch": 60
  },
  {
    "clipIndex": 513,
    "trackId": "22",
    "clipName": null,
    "beat": 355,
    "relBeat": 9,
    "duration": 0.25,
    "velocity": 100,
    "pitch": 60
  },
  {
    "clipIndex": 515,
    "trackId": "22",
    "clipName": null,
    "beat": 355,
    "relBeat": 5,
    "duration": 0.25,
    "velocity": 100,
    "pitch": 60
  },
  {
    "clipIndex": 516,
    "trackId": "22",
    "clipName": null,
    "beat": 355,
    "relBeat": 3,
    "duration": 0.25,
    "velocity": 100,
    "pitch": 60
  },
  {
    "clipIndex": 517,
    "trackId": "22",
    "clipName": null,
    "beat": 355,
    "relBeat": 1,
    "duration": 0.25,
    "velocity": 100,
    "pitch": 60
  },
  {
    "clipIndex": 0,
    "trackId": "89",
    "clipName": null,
    "beat": 355.25,
    "relBeat": 355.25,
    "duration": 0.25,
    "velocity": 100,
    "pitch": 60
  },
  {
    "clipIndex": 338,
    "trackId": "55",
    "clipName": null,
    "beat": 355.25,
    "relBeat": 155.25,
    "duration": 0.25,
    "velocity": 100,
    "pitch": 60
  },
  {
    "clipIndex": 495,
    "trackId": "22",
    "clipName": null,
    "beat": 355.25,
    "relBeat": 51.25,
    "duration": 0.25,
    "velocity": 100,
    "pitch": 60
  },
  {
    "clipIndex": 502,
    "trackId": "22",
    "clipName": null,
    "beat": 355.25,
    "relBeat": 31.25,
    "duration": 0.25,
    "velocity": 100,
    "pitch": 60
  },
  {
    "clipIndex": 503,
    "trackId": "22",
    "clipName": null,
    "beat": 355.25,
    "relBeat": 29.25,
    "duration": 0.25,
    "velocity": 100,
    "pitch": 60
  },
  {
    "clipIndex": 504,
    "trackId": "22",
    "clipName": null,
    "beat": 355.25,
    "relBeat": 27.25,
    "duration": 0.25,
    "velocity": 100,
    "pitch": 60
  },
  {
    "clipIndex": 505,
    "trackId": "22",
    "clipName": null,
    "beat": 355.25,
    "relBeat": 25.25,
    "duration": 0.25,
    "velocity": 100,
    "pitch": 60
  },
  {
    "clipIndex": 507,
    "trackId": "22",
    "clipName": null,
    "beat": 355.25,
    "relBeat": 21.25,
    "duration": 0.25,
    "velocity": 100,
    "pitch": 60
  },
  {
    "clipIndex": 508,
    "trackId": "22",
    "clipName": null,
    "beat": 355.25,
    "relBeat": 19.25,
    "duration": 0.25,
    "velocity": 100,
    "pitch": 60
  },
  {
    "clipIndex": 509,
    "trackId": "22",
    "clipName": null,
    "beat": 355.25,
    "relBeat": 17.25,
    "duration": 0.25,
    "velocity": 100,
    "pitch": 60
  },
  {
    "clipIndex": 510,
    "trackId": "22",
    "clipName": null,
    "beat": 355.25,
    "relBeat": 15.25,
    "duration": 0.25,
    "velocity": 100,
    "pitch": 60
  },
  {
    "clipIndex": 511,
    "trackId": "22",
    "clipName": null,
    "beat": 355.25,
    "relBeat": 13.25,
    "duration": 0.25,
    "velocity": 100,
    "pitch": 60
  },
  {
    "clipIndex": 513,
    "trackId": "22",
    "clipName": null,
    "beat": 355.25,
    "relBeat": 9.25,
    "duration": 0.25,
    "velocity": 100,
    "pitch": 60
  },
  {
    "clipIndex": 515,
    "trackId": "22",
    "clipName": null,
    "beat": 355.25,
    "relBeat": 5.25,
    "duration": 0.25,
    "velocity": 100,
    "pitch": 60
  },
  {
    "clipIndex": 516,
    "trackId": "22",
    "clipName": null,
    "beat": 355.25,
    "relBeat": 3.25,
    "duration": 0.25,
    "velocity": 100,
    "pitch": 60
  },
  {
    "clipIndex": 517,
    "trackId": "22",
    "clipName": null,
    "beat": 355.25,
    "relBeat": 1.25,
    "duration": 0.25,
    "velocity": 100,
    "pitch": 60
  },
  {
    "clipIndex": 0,
    "trackId": "89",
    "clipName": null,
    "beat": 355.5,
    "relBeat": 355.5,
    "duration": 0.25,
    "velocity": 100,
    "pitch": 60
  },
  {
    "clipIndex": 495,
    "trackId": "22",
    "clipName": null,
    "beat": 355.5,
    "relBeat": 51.5,
    "duration": 0.25,
    "velocity": 100,
    "pitch": 60
  },
  {
    "clipIndex": 502,
    "trackId": "22",
    "clipName": null,
    "beat": 355.5,
    "relBeat": 31.5,
    "duration": 0.25,
    "velocity": 100,
    "pitch": 60
  },
  {
    "clipIndex": 503,
    "trackId": "22",
    "clipName": null,
    "beat": 355.5,
    "relBeat": 29.5,
    "duration": 0.25,
    "velocity": 100,
    "pitch": 60
  },
  {
    "clipIndex": 504,
    "trackId": "22",
    "clipName": null,
    "beat": 355.5,
    "relBeat": 27.5,
    "duration": 0.25,
    "velocity": 100,
    "pitch": 60
  },
  {
    "clipIndex": 505,
    "trackId": "22",
    "clipName": null,
    "beat": 355.5,
    "relBeat": 25.5,
    "duration": 0.25,
    "velocity": 100,
    "pitch": 60
  },
  {
    "clipIndex": 508,
    "trackId": "22",
    "clipName": null,
    "beat": 355.5,
    "relBeat": 19.5,
    "duration": 0.25,
    "velocity": 100,
    "pitch": 60
  },
  {
    "clipIndex": 509,
    "trackId": "22",
    "clipName": null,
    "beat": 355.5,
    "relBeat": 17.5,
    "duration": 0.25,
    "velocity": 100,
    "pitch": 60
  },
  {
    "clipIndex": 510,
    "trackId": "22",
    "clipName": null,
    "beat": 355.5,
    "relBeat": 15.5,
    "duration": 0.25,
    "velocity": 100,
    "pitch": 60
  },
  {
    "clipIndex": 511,
    "trackId": "22",
    "clipName": null,
    "beat": 355.5,
    "relBeat": 13.5,
    "duration": 0.25,
    "velocity": 100,
    "pitch": 60
  },
  {
    "clipIndex": 513,
    "trackId": "22",
    "clipName": null,
    "beat": 355.5,
    "relBeat": 9.5,
    "duration": 0.25,
    "velocity": 100,
    "pitch": 60
  },
  {
    "clipIndex": 515,
    "trackId": "22",
    "clipName": null,
    "beat": 355.5,
    "relBeat": 5.5,
    "duration": 0.25,
    "velocity": 100,
    "pitch": 60
  },
  {
    "clipIndex": 516,
    "trackId": "22",
    "clipName": null,
    "beat": 355.5,
    "relBeat": 3.5,
    "duration": 0.25,
    "velocity": 100,
    "pitch": 60
  },
  {
    "clipIndex": 517,
    "trackId": "22",
    "clipName": null,
    "beat": 355.5,
    "relBeat": 1.5,
    "duration": 0.25,
    "velocity": 100,
    "pitch": 60
  },
  {
    "clipIndex": 0,
    "trackId": "89",
    "clipName": null,
    "beat": 355.75,
    "relBeat": 355.75,
    "duration": 0.25,
    "velocity": 100,
    "pitch": 60
  },
  {
    "clipIndex": 338,
    "trackId": "55",
    "clipName": null,
    "beat": 355.75,
    "relBeat": 155.75,
    "duration": 0.25,
    "velocity": 100,
    "pitch": 60
  },
  {
    "clipIndex": 495,
    "trackId": "22",
    "clipName": null,
    "beat": 355.75,
    "relBeat": 51.75,
    "duration": 0.25,
    "velocity": 100,
    "pitch": 60
  },
  {
    "clipIndex": 502,
    "trackId": "22",
    "clipName": null,
    "beat": 355.75,
    "relBeat": 31.75,
    "duration": 0.25,
    "velocity": 100,
    "pitch": 60
  },
  {
    "clipIndex": 503,
    "trackId": "22",
    "clipName": null,
    "beat": 355.75,
    "relBeat": 29.75,
    "duration": 0.25,
    "velocity": 100,
    "pitch": 60
  },
  {
    "clipIndex": 504,
    "trackId": "22",
    "clipName": null,
    "beat": 355.75,
    "relBeat": 27.75,
    "duration": 0.25,
    "velocity": 100,
    "pitch": 60
  },
  {
    "clipIndex": 505,
    "trackId": "22",
    "clipName": null,
    "beat": 355.75,
    "relBeat": 25.75,
    "duration": 0.25,
    "velocity": 100,
    "pitch": 60
  },
  {
    "clipIndex": 508,
    "trackId": "22",
    "clipName": null,
    "beat": 355.75,
    "relBeat": 19.75,
    "duration": 0.25,
    "velocity": 100,
    "pitch": 60
  },
  {
    "clipIndex": 509,
    "trackId": "22",
    "clipName": null,
    "beat": 355.75,
    "relBeat": 17.75,
    "duration": 0.25,
    "velocity": 100,
    "pitch": 60
  },
  {
    "clipIndex": 510,
    "trackId": "22",
    "clipName": null,
    "beat": 355.75,
    "relBeat": 15.75,
    "duration": 0.25,
    "velocity": 100,
    "pitch": 60
  },
  {
    "clipIndex": 511,
    "trackId": "22",
    "clipName": null,
    "beat": 355.75,
    "relBeat": 13.75,
    "duration": 0.25,
    "velocity": 100,
    "pitch": 60
  },
  {
    "clipIndex": 513,
    "trackId": "22",
    "clipName": null,
    "beat": 355.75,
    "relBeat": 9.75,
    "duration": 0.25,
    "velocity": 100,
    "pitch": 60
  },
  {
    "clipIndex": 515,
    "trackId": "22",
    "clipName": null,
    "beat": 355.75,
    "relBeat": 5.75,
    "duration": 0.25,
    "velocity": 100,
    "pitch": 60
  },
  {
    "clipIndex": 516,
    "trackId": "22",
    "clipName": null,
    "beat": 355.75,
    "relBeat": 3.75,
    "duration": 0.25,
    "velocity": 100,
    "pitch": 60
  },
  {
    "clipIndex": 517,
    "trackId": "22",
    "clipName": null,
    "beat": 355.75,
    "relBeat": 1.75,
    "duration": 0.25,
    "velocity": 100,
    "pitch": 60
  },
  {
    "clipIndex": 0,
    "trackId": "89",
    "clipName": null,
    "beat": 356,
    "relBeat": 356,
    "duration": 0.25,
    "velocity": 100,
    "pitch": 60
  },
  {
    "clipIndex": 495,
    "trackId": "22",
    "clipName": null,
    "beat": 356,
    "relBeat": 52,
    "duration": 0.25,
    "velocity": 100,
    "pitch": 60
  },
  {
    "clipIndex": 503,
    "trackId": "22",
    "clipName": null,
    "beat": 356,
    "relBeat": 30,
    "duration": 0.25,
    "velocity": 100,
    "pitch": 60
  },
  {
    "clipIndex": 504,
    "trackId": "22",
    "clipName": null,
    "beat": 356,
    "relBeat": 28,
    "duration": 0.25,
    "velocity": 100,
    "pitch": 60
  },
  {
    "clipIndex": 505,
    "trackId": "22",
    "clipName": null,
    "beat": 356,
    "relBeat": 26,
    "duration": 0.25,
    "velocity": 100,
    "pitch": 60
  },
  {
    "clipIndex": 506,
    "trackId": "22",
    "clipName": null,
    "beat": 356,
    "relBeat": 24,
    "duration": 0.25,
    "velocity": 100,
    "pitch": 60
  },
  {
    "clipIndex": 508,
    "trackId": "22",
    "clipName": null,
    "beat": 356,
    "relBeat": 20,
    "duration": 0.25,
    "velocity": 100,
    "pitch": 60
  },
  {
    "clipIndex": 509,
    "trackId": "22",
    "clipName": null,
    "beat": 356,
    "relBeat": 18,
    "duration": 0.25,
    "velocity": 100,
    "pitch": 60
  },
  {
    "clipIndex": 510,
    "trackId": "22",
    "clipName": null,
    "beat": 356,
    "relBeat": 16,
    "duration": 0.25,
    "velocity": 100,
    "pitch": 60
  },
  {
    "clipIndex": 511,
    "trackId": "22",
    "clipName": null,
    "beat": 356,
    "relBeat": 14,
    "duration": 0.25,
    "velocity": 100,
    "pitch": 60
  },
  {
    "clipIndex": 512,
    "trackId": "22",
    "clipName": null,
    "beat": 356,
    "relBeat": 12,
    "duration": 0.25,
    "velocity": 100,
    "pitch": 60
  },
  {
    "clipIndex": 513,
    "trackId": "22",
    "clipName": null,
    "beat": 356,
    "relBeat": 10,
    "duration": 0.25,
    "velocity": 100,
    "pitch": 60
  },
  {
    "clipIndex": 516,
    "trackId": "22",
    "clipName": null,
    "beat": 356,
    "relBeat": 4,
    "duration": 0.25,
    "velocity": 100,
    "pitch": 60
  },
  {
    "clipIndex": 517,
    "trackId": "22",
    "clipName": null,
    "beat": 356,
    "relBeat": 2,
    "duration": 0.25,
    "velocity": 100,
    "pitch": 60
  },
  {
    "clipIndex": 518,
    "trackId": "22",
    "clipName": null,
    "beat": 356,
    "relBeat": 0,
    "duration": 0.25,
    "velocity": 100,
    "pitch": 60
  },
  {
    "clipIndex": 0,
    "trackId": "89",
    "clipName": null,
    "beat": 356.25,
    "relBeat": 356.25,
    "duration": 0.25,
    "velocity": 100,
    "pitch": 60
  },
  {
    "clipIndex": 338,
    "trackId": "55",
    "clipName": null,
    "beat": 356.25,
    "relBeat": 156.25,
    "duration": 0.25,
    "velocity": 100,
    "pitch": 60
  },
  {
    "clipIndex": 495,
    "trackId": "22",
    "clipName": null,
    "beat": 356.25,
    "relBeat": 52.25,
    "duration": 0.25,
    "velocity": 100,
    "pitch": 60
  },
  {
    "clipIndex": 503,
    "trackId": "22",
    "clipName": null,
    "beat": 356.25,
    "relBeat": 30.25,
    "duration": 0.25,
    "velocity": 100,
    "pitch": 60
  },
  {
    "clipIndex": 504,
    "trackId": "22",
    "clipName": null,
    "beat": 356.25,
    "relBeat": 28.25,
    "duration": 0.25,
    "velocity": 100,
    "pitch": 60
  },
  {
    "clipIndex": 505,
    "trackId": "22",
    "clipName": null,
    "beat": 356.25,
    "relBeat": 26.25,
    "duration": 0.25,
    "velocity": 100,
    "pitch": 60
  },
  {
    "clipIndex": 506,
    "trackId": "22",
    "clipName": null,
    "beat": 356.25,
    "relBeat": 24.25,
    "duration": 0.25,
    "velocity": 100,
    "pitch": 60
  },
  {
    "clipIndex": 508,
    "trackId": "22",
    "clipName": null,
    "beat": 356.25,
    "relBeat": 20.25,
    "duration": 0.25,
    "velocity": 100,
    "pitch": 60
  },
  {
    "clipIndex": 509,
    "trackId": "22",
    "clipName": null,
    "beat": 356.25,
    "relBeat": 18.25,
    "duration": 0.25,
    "velocity": 100,
    "pitch": 60
  },
  {
    "clipIndex": 510,
    "trackId": "22",
    "clipName": null,
    "beat": 356.25,
    "relBeat": 16.25,
    "duration": 0.25,
    "velocity": 100,
    "pitch": 60
  },
  {
    "clipIndex": 511,
    "trackId": "22",
    "clipName": null,
    "beat": 356.25,
    "relBeat": 14.25,
    "duration": 0.25,
    "velocity": 100,
    "pitch": 60
  },
  {
    "clipIndex": 512,
    "trackId": "22",
    "clipName": null,
    "beat": 356.25,
    "relBeat": 12.25,
    "duration": 0.25,
    "velocity": 100,
    "pitch": 60
  },
  {
    "clipIndex": 516,
    "trackId": "22",
    "clipName": null,
    "beat": 356.25,
    "relBeat": 4.25,
    "duration": 0.25,
    "velocity": 100,
    "pitch": 60
  },
  {
    "clipIndex": 517,
    "trackId": "22",
    "clipName": null,
    "beat": 356.25,
    "relBeat": 2.25,
    "duration": 0.25,
    "velocity": 100,
    "pitch": 60
  },
  {
    "clipIndex": 518,
    "trackId": "22",
    "clipName": null,
    "beat": 356.25,
    "relBeat": 0.25,
    "duration": 0.25,
    "velocity": 100,
    "pitch": 60
  },
  {
    "clipIndex": 0,
    "trackId": "89",
    "clipName": null,
    "beat": 356.5,
    "relBeat": 356.5,
    "duration": 0.25,
    "velocity": 100,
    "pitch": 60
  },
  {
    "clipIndex": 503,
    "trackId": "22",
    "clipName": null,
    "beat": 356.5,
    "relBeat": 30.5,
    "duration": 0.25,
    "velocity": 100,
    "pitch": 60
  },
  {
    "clipIndex": 504,
    "trackId": "22",
    "clipName": null,
    "beat": 356.5,
    "relBeat": 28.5,
    "duration": 0.25,
    "velocity": 100,
    "pitch": 60
  },
  {
    "clipIndex": 505,
    "trackId": "22",
    "clipName": null,
    "beat": 356.5,
    "relBeat": 26.5,
    "duration": 0.25,
    "velocity": 100,
    "pitch": 60
  },
  {
    "clipIndex": 506,
    "trackId": "22",
    "clipName": null,
    "beat": 356.5,
    "relBeat": 24.5,
    "duration": 0.25,
    "velocity": 100,
    "pitch": 60
  },
  {
    "clipIndex": 508,
    "trackId": "22",
    "clipName": null,
    "beat": 356.5,
    "relBeat": 20.5,
    "duration": 0.25,
    "velocity": 100,
    "pitch": 60
  },
  {
    "clipIndex": 509,
    "trackId": "22",
    "clipName": null,
    "beat": 356.5,
    "relBeat": 18.5,
    "duration": 0.25,
    "velocity": 100,
    "pitch": 60
  },
  {
    "clipIndex": 510,
    "trackId": "22",
    "clipName": null,
    "beat": 356.5,
    "relBeat": 16.5,
    "duration": 0.25,
    "velocity": 100,
    "pitch": 60
  },
  {
    "clipIndex": 511,
    "trackId": "22",
    "clipName": null,
    "beat": 356.5,
    "relBeat": 14.5,
    "duration": 0.25,
    "velocity": 100,
    "pitch": 60
  },
  {
    "clipIndex": 512,
    "trackId": "22",
    "clipName": null,
    "beat": 356.5,
    "relBeat": 12.5,
    "duration": 0.25,
    "velocity": 100,
    "pitch": 60
  },
  {
    "clipIndex": 516,
    "trackId": "22",
    "clipName": null,
    "beat": 356.5,
    "relBeat": 4.5,
    "duration": 0.25,
    "velocity": 100,
    "pitch": 60
  },
  {
    "clipIndex": 517,
    "trackId": "22",
    "clipName": null,
    "beat": 356.5,
    "relBeat": 2.5,
    "duration": 0.25,
    "velocity": 100,
    "pitch": 60
  },
  {
    "clipIndex": 518,
    "trackId": "22",
    "clipName": null,
    "beat": 356.5,
    "relBeat": 0.5,
    "duration": 0.25,
    "velocity": 100,
    "pitch": 60
  },
  {
    "clipIndex": 0,
    "trackId": "89",
    "clipName": null,
    "beat": 356.75,
    "relBeat": 356.75,
    "duration": 0.25,
    "velocity": 100,
    "pitch": 60
  },
  {
    "clipIndex": 338,
    "trackId": "55",
    "clipName": null,
    "beat": 356.75,
    "relBeat": 156.75,
    "duration": 0.25,
    "velocity": 100,
    "pitch": 60
  },
  {
    "clipIndex": 503,
    "trackId": "22",
    "clipName": null,
    "beat": 356.75,
    "relBeat": 30.75,
    "duration": 0.25,
    "velocity": 100,
    "pitch": 60
  },
  {
    "clipIndex": 504,
    "trackId": "22",
    "clipName": null,
    "beat": 356.75,
    "relBeat": 28.75,
    "duration": 0.25,
    "velocity": 100,
    "pitch": 60
  },
  {
    "clipIndex": 505,
    "trackId": "22",
    "clipName": null,
    "beat": 356.75,
    "relBeat": 26.75,
    "duration": 0.25,
    "velocity": 100,
    "pitch": 60
  },
  {
    "clipIndex": 506,
    "trackId": "22",
    "clipName": null,
    "beat": 356.75,
    "relBeat": 24.75,
    "duration": 0.25,
    "velocity": 100,
    "pitch": 60
  },
  {
    "clipIndex": 508,
    "trackId": "22",
    "clipName": null,
    "beat": 356.75,
    "relBeat": 20.75,
    "duration": 0.25,
    "velocity": 100,
    "pitch": 60
  },
  {
    "clipIndex": 509,
    "trackId": "22",
    "clipName": null,
    "beat": 356.75,
    "relBeat": 18.75,
    "duration": 0.25,
    "velocity": 100,
    "pitch": 60
  },
  {
    "clipIndex": 510,
    "trackId": "22",
    "clipName": null,
    "beat": 356.75,
    "relBeat": 16.75,
    "duration": 0.25,
    "velocity": 100,
    "pitch": 60
  },
  {
    "clipIndex": 511,
    "trackId": "22",
    "clipName": null,
    "beat": 356.75,
    "relBeat": 14.75,
    "duration": 0.25,
    "velocity": 100,
    "pitch": 60
  },
  {
    "clipIndex": 512,
    "trackId": "22",
    "clipName": null,
    "beat": 356.75,
    "relBeat": 12.75,
    "duration": 0.25,
    "velocity": 100,
    "pitch": 60
  },
  {
    "clipIndex": 516,
    "trackId": "22",
    "clipName": null,
    "beat": 356.75,
    "relBeat": 4.75,
    "duration": 0.25,
    "velocity": 100,
    "pitch": 60
  },
  {
    "clipIndex": 517,
    "trackId": "22",
    "clipName": null,
    "beat": 356.75,
    "relBeat": 2.75,
    "duration": 0.25,
    "velocity": 100,
    "pitch": 60
  },
  {
    "clipIndex": 518,
    "trackId": "22",
    "clipName": null,
    "beat": 356.75,
    "relBeat": 0.75,
    "duration": 0.25,
    "velocity": 100,
    "pitch": 60
  },
  {
    "clipIndex": 0,
    "trackId": "89",
    "clipName": null,
    "beat": 357,
    "relBeat": 357,
    "duration": 0.25,
    "velocity": 100,
    "pitch": 60
  },
  {
    "clipIndex": 495,
    "trackId": "22",
    "clipName": null,
    "beat": 357,
    "relBeat": 53,
    "duration": 0.25,
    "velocity": 100,
    "pitch": 60
  },
  {
    "clipIndex": 503,
    "trackId": "22",
    "clipName": null,
    "beat": 357,
    "relBeat": 31,
    "duration": 0.25,
    "velocity": 100,
    "pitch": 60
  },
  {
    "clipIndex": 504,
    "trackId": "22",
    "clipName": null,
    "beat": 357,
    "relBeat": 29,
    "duration": 0.25,
    "velocity": 100,
    "pitch": 60
  },
  {
    "clipIndex": 505,
    "trackId": "22",
    "clipName": null,
    "beat": 357,
    "relBeat": 27,
    "duration": 0.25,
    "velocity": 100,
    "pitch": 60
  },
  {
    "clipIndex": 506,
    "trackId": "22",
    "clipName": null,
    "beat": 357,
    "relBeat": 25,
    "duration": 0.25,
    "velocity": 100,
    "pitch": 60
  },
  {
    "clipIndex": 508,
    "trackId": "22",
    "clipName": null,
    "beat": 357,
    "relBeat": 21,
    "duration": 0.25,
    "velocity": 100,
    "pitch": 60
  },
  {
    "clipIndex": 509,
    "trackId": "22",
    "clipName": null,
    "beat": 357,
    "relBeat": 19,
    "duration": 0.25,
    "velocity": 100,
    "pitch": 60
  },
  {
    "clipIndex": 510,
    "trackId": "22",
    "clipName": null,
    "beat": 357,
    "relBeat": 17,
    "duration": 0.25,
    "velocity": 100,
    "pitch": 60
  },
  {
    "clipIndex": 511,
    "trackId": "22",
    "clipName": null,
    "beat": 357,
    "relBeat": 15,
    "duration": 0.25,
    "velocity": 100,
    "pitch": 60
  },
  {
    "clipIndex": 512,
    "trackId": "22",
    "clipName": null,
    "beat": 357,
    "relBeat": 13,
    "duration": 0.25,
    "velocity": 100,
    "pitch": 60
  },
  {
    "clipIndex": 514,
    "trackId": "22",
    "clipName": null,
    "beat": 357,
    "relBeat": 9,
    "duration": 0.25,
    "velocity": 100,
    "pitch": 60
  },
  {
    "clipIndex": 516,
    "trackId": "22",
    "clipName": null,
    "beat": 357,
    "relBeat": 5,
    "duration": 0.25,
    "velocity": 100,
    "pitch": 60
  },
  {
    "clipIndex": 517,
    "trackId": "22",
    "clipName": null,
    "beat": 357,
    "relBeat": 3,
    "duration": 0.25,
    "velocity": 100,
    "pitch": 60
  },
  {
    "clipIndex": 518,
    "trackId": "22",
    "clipName": null,
    "beat": 357,
    "relBeat": 1,
    "duration": 0.25,
    "velocity": 100,
    "pitch": 60
  },
  {
    "clipIndex": 0,
    "trackId": "89",
    "clipName": null,
    "beat": 357.25,
    "relBeat": 357.25,
    "duration": 0.25,
    "velocity": 100,
    "pitch": 60
  },
  {
    "clipIndex": 338,
    "trackId": "55",
    "clipName": null,
    "beat": 357.25,
    "relBeat": 157.25,
    "duration": 0.25,
    "velocity": 100,
    "pitch": 60
  },
  {
    "clipIndex": 495,
    "trackId": "22",
    "clipName": null,
    "beat": 357.25,
    "relBeat": 53.25,
    "duration": 0.25,
    "velocity": 100,
    "pitch": 60
  },
  {
    "clipIndex": 503,
    "trackId": "22",
    "clipName": null,
    "beat": 357.25,
    "relBeat": 31.25,
    "duration": 0.25,
    "velocity": 100,
    "pitch": 60
  },
  {
    "clipIndex": 504,
    "trackId": "22",
    "clipName": null,
    "beat": 357.25,
    "relBeat": 29.25,
    "duration": 0.25,
    "velocity": 100,
    "pitch": 60
  },
  {
    "clipIndex": 505,
    "trackId": "22",
    "clipName": null,
    "beat": 357.25,
    "relBeat": 27.25,
    "duration": 0.25,
    "velocity": 100,
    "pitch": 60
  },
  {
    "clipIndex": 506,
    "trackId": "22",
    "clipName": null,
    "beat": 357.25,
    "relBeat": 25.25,
    "duration": 0.25,
    "velocity": 100,
    "pitch": 60
  },
  {
    "clipIndex": 508,
    "trackId": "22",
    "clipName": null,
    "beat": 357.25,
    "relBeat": 21.25,
    "duration": 0.25,
    "velocity": 100,
    "pitch": 60
  },
  {
    "clipIndex": 509,
    "trackId": "22",
    "clipName": null,
    "beat": 357.25,
    "relBeat": 19.25,
    "duration": 0.25,
    "velocity": 100,
    "pitch": 60
  },
  {
    "clipIndex": 510,
    "trackId": "22",
    "clipName": null,
    "beat": 357.25,
    "relBeat": 17.25,
    "duration": 0.25,
    "velocity": 100,
    "pitch": 60
  },
  {
    "clipIndex": 511,
    "trackId": "22",
    "clipName": null,
    "beat": 357.25,
    "relBeat": 15.25,
    "duration": 0.25,
    "velocity": 100,
    "pitch": 60
  },
  {
    "clipIndex": 512,
    "trackId": "22",
    "clipName": null,
    "beat": 357.25,
    "relBeat": 13.25,
    "duration": 0.25,
    "velocity": 100,
    "pitch": 60
  },
  {
    "clipIndex": 514,
    "trackId": "22",
    "clipName": null,
    "beat": 357.25,
    "relBeat": 9.25,
    "duration": 0.25,
    "velocity": 100,
    "pitch": 60
  },
  {
    "clipIndex": 516,
    "trackId": "22",
    "clipName": null,
    "beat": 357.25,
    "relBeat": 5.25,
    "duration": 0.25,
    "velocity": 100,
    "pitch": 60
  },
  {
    "clipIndex": 517,
    "trackId": "22",
    "clipName": null,
    "beat": 357.25,
    "relBeat": 3.25,
    "duration": 0.25,
    "velocity": 100,
    "pitch": 60
  },
  {
    "clipIndex": 518,
    "trackId": "22",
    "clipName": null,
    "beat": 357.25,
    "relBeat": 1.25,
    "duration": 0.25,
    "velocity": 100,
    "pitch": 60
  },
  {
    "clipIndex": 0,
    "trackId": "89",
    "clipName": null,
    "beat": 357.5,
    "relBeat": 357.5,
    "duration": 0.25,
    "velocity": 100,
    "pitch": 60
  },
  {
    "clipIndex": 495,
    "trackId": "22",
    "clipName": null,
    "beat": 357.5,
    "relBeat": 53.5,
    "duration": 0.25,
    "velocity": 100,
    "pitch": 60
  },
  {
    "clipIndex": 503,
    "trackId": "22",
    "clipName": null,
    "beat": 357.5,
    "relBeat": 31.5,
    "duration": 0.25,
    "velocity": 100,
    "pitch": 60
  },
  {
    "clipIndex": 504,
    "trackId": "22",
    "clipName": null,
    "beat": 357.5,
    "relBeat": 29.5,
    "duration": 0.25,
    "velocity": 100,
    "pitch": 60
  },
  {
    "clipIndex": 505,
    "trackId": "22",
    "clipName": null,
    "beat": 357.5,
    "relBeat": 27.5,
    "duration": 0.25,
    "velocity": 100,
    "pitch": 60
  },
  {
    "clipIndex": 506,
    "trackId": "22",
    "clipName": null,
    "beat": 357.5,
    "relBeat": 25.5,
    "duration": 0.25,
    "velocity": 100,
    "pitch": 60
  },
  {
    "clipIndex": 509,
    "trackId": "22",
    "clipName": null,
    "beat": 357.5,
    "relBeat": 19.5,
    "duration": 0.25,
    "velocity": 100,
    "pitch": 60
  },
  {
    "clipIndex": 510,
    "trackId": "22",
    "clipName": null,
    "beat": 357.5,
    "relBeat": 17.5,
    "duration": 0.25,
    "velocity": 100,
    "pitch": 60
  },
  {
    "clipIndex": 511,
    "trackId": "22",
    "clipName": null,
    "beat": 357.5,
    "relBeat": 15.5,
    "duration": 0.25,
    "velocity": 100,
    "pitch": 60
  },
  {
    "clipIndex": 512,
    "trackId": "22",
    "clipName": null,
    "beat": 357.5,
    "relBeat": 13.5,
    "duration": 0.25,
    "velocity": 100,
    "pitch": 60
  },
  {
    "clipIndex": 514,
    "trackId": "22",
    "clipName": null,
    "beat": 357.5,
    "relBeat": 9.5,
    "duration": 0.25,
    "velocity": 100,
    "pitch": 60
  },
  {
    "clipIndex": 516,
    "trackId": "22",
    "clipName": null,
    "beat": 357.5,
    "relBeat": 5.5,
    "duration": 0.25,
    "velocity": 100,
    "pitch": 60
  },
  {
    "clipIndex": 517,
    "trackId": "22",
    "clipName": null,
    "beat": 357.5,
    "relBeat": 3.5,
    "duration": 0.25,
    "velocity": 100,
    "pitch": 60
  },
  {
    "clipIndex": 518,
    "trackId": "22",
    "clipName": null,
    "beat": 357.5,
    "relBeat": 1.5,
    "duration": 0.25,
    "velocity": 100,
    "pitch": 60
  },
  {
    "clipIndex": 0,
    "trackId": "89",
    "clipName": null,
    "beat": 357.75,
    "relBeat": 357.75,
    "duration": 0.25,
    "velocity": 100,
    "pitch": 60
  },
  {
    "clipIndex": 495,
    "trackId": "22",
    "clipName": null,
    "beat": 357.75,
    "relBeat": 53.75,
    "duration": 0.25,
    "velocity": 100,
    "pitch": 60
  },
  {
    "clipIndex": 503,
    "trackId": "22",
    "clipName": null,
    "beat": 357.75,
    "relBeat": 31.75,
    "duration": 0.25,
    "velocity": 100,
    "pitch": 60
  },
  {
    "clipIndex": 504,
    "trackId": "22",
    "clipName": null,
    "beat": 357.75,
    "relBeat": 29.75,
    "duration": 0.25,
    "velocity": 100,
    "pitch": 60
  },
  {
    "clipIndex": 505,
    "trackId": "22",
    "clipName": null,
    "beat": 357.75,
    "relBeat": 27.75,
    "duration": 0.25,
    "velocity": 100,
    "pitch": 60
  },
  {
    "clipIndex": 506,
    "trackId": "22",
    "clipName": null,
    "beat": 357.75,
    "relBeat": 25.75,
    "duration": 0.25,
    "velocity": 100,
    "pitch": 60
  },
  {
    "clipIndex": 509,
    "trackId": "22",
    "clipName": null,
    "beat": 357.75,
    "relBeat": 19.75,
    "duration": 0.25,
    "velocity": 100,
    "pitch": 60
  },
  {
    "clipIndex": 510,
    "trackId": "22",
    "clipName": null,
    "beat": 357.75,
    "relBeat": 17.75,
    "duration": 0.25,
    "velocity": 100,
    "pitch": 60
  },
  {
    "clipIndex": 511,
    "trackId": "22",
    "clipName": null,
    "beat": 357.75,
    "relBeat": 15.75,
    "duration": 0.25,
    "velocity": 100,
    "pitch": 60
  },
  {
    "clipIndex": 512,
    "trackId": "22",
    "clipName": null,
    "beat": 357.75,
    "relBeat": 13.75,
    "duration": 0.25,
    "velocity": 100,
    "pitch": 60
  },
  {
    "clipIndex": 514,
    "trackId": "22",
    "clipName": null,
    "beat": 357.75,
    "relBeat": 9.75,
    "duration": 0.25,
    "velocity": 100,
    "pitch": 60
  },
  {
    "clipIndex": 516,
    "trackId": "22",
    "clipName": null,
    "beat": 357.75,
    "relBeat": 5.75,
    "duration": 0.25,
    "velocity": 100,
    "pitch": 60
  },
  {
    "clipIndex": 517,
    "trackId": "22",
    "clipName": null,
    "beat": 357.75,
    "relBeat": 3.75,
    "duration": 0.25,
    "velocity": 100,
    "pitch": 60
  },
  {
    "clipIndex": 518,
    "trackId": "22",
    "clipName": null,
    "beat": 357.75,
    "relBeat": 1.75,
    "duration": 0.25,
    "velocity": 100,
    "pitch": 60
  },
  {
    "clipIndex": 0,
    "trackId": "89",
    "clipName": null,
    "beat": 358,
    "relBeat": 358,
    "duration": 0.25,
    "velocity": 100,
    "pitch": 60
  },
  {
    "clipIndex": 504,
    "trackId": "22",
    "clipName": null,
    "beat": 358,
    "relBeat": 30,
    "duration": 0.25,
    "velocity": 100,
    "pitch": 60
  },
  {
    "clipIndex": 505,
    "trackId": "22",
    "clipName": null,
    "beat": 358,
    "relBeat": 28,
    "duration": 0.25,
    "velocity": 100,
    "pitch": 60
  },
  {
    "clipIndex": 506,
    "trackId": "22",
    "clipName": null,
    "beat": 358,
    "relBeat": 26,
    "duration": 0.25,
    "velocity": 100,
    "pitch": 60
  },
  {
    "clipIndex": 507,
    "trackId": "22",
    "clipName": null,
    "beat": 358,
    "relBeat": 24,
    "duration": 0.25,
    "velocity": 100,
    "pitch": 60
  },
  {
    "clipIndex": 509,
    "trackId": "22",
    "clipName": null,
    "beat": 358,
    "relBeat": 20,
    "duration": 0.25,
    "velocity": 100,
    "pitch": 60
  },
  {
    "clipIndex": 510,
    "trackId": "22",
    "clipName": null,
    "beat": 358,
    "relBeat": 18,
    "duration": 0.25,
    "velocity": 100,
    "pitch": 60
  },
  {
    "clipIndex": 511,
    "trackId": "22",
    "clipName": null,
    "beat": 358,
    "relBeat": 16,
    "duration": 0.25,
    "velocity": 100,
    "pitch": 60
  },
  {
    "clipIndex": 512,
    "trackId": "22",
    "clipName": null,
    "beat": 358,
    "relBeat": 14,
    "duration": 0.25,
    "velocity": 100,
    "pitch": 60
  },
  {
    "clipIndex": 513,
    "trackId": "22",
    "clipName": null,
    "beat": 358,
    "relBeat": 12,
    "duration": 0.25,
    "velocity": 100,
    "pitch": 60
  },
  {
    "clipIndex": 514,
    "trackId": "22",
    "clipName": null,
    "beat": 358,
    "relBeat": 10,
    "duration": 0.25,
    "velocity": 100,
    "pitch": 60
  },
  {
    "clipIndex": 517,
    "trackId": "22",
    "clipName": null,
    "beat": 358,
    "relBeat": 4,
    "duration": 0.25,
    "velocity": 100,
    "pitch": 60
  },
  {
    "clipIndex": 518,
    "trackId": "22",
    "clipName": null,
    "beat": 358,
    "relBeat": 2,
    "duration": 0.25,
    "velocity": 100,
    "pitch": 60
  },
  {
    "clipIndex": 0,
    "trackId": "89",
    "clipName": null,
    "beat": 358.25,
    "relBeat": 358.25,
    "duration": 0.25,
    "velocity": 100,
    "pitch": 60
  },
  {
    "clipIndex": 504,
    "trackId": "22",
    "clipName": null,
    "beat": 358.25,
    "relBeat": 30.25,
    "duration": 0.25,
    "velocity": 100,
    "pitch": 60
  },
  {
    "clipIndex": 505,
    "trackId": "22",
    "clipName": null,
    "beat": 358.25,
    "relBeat": 28.25,
    "duration": 0.25,
    "velocity": 100,
    "pitch": 60
  },
  {
    "clipIndex": 506,
    "trackId": "22",
    "clipName": null,
    "beat": 358.25,
    "relBeat": 26.25,
    "duration": 0.25,
    "velocity": 100,
    "pitch": 60
  },
  {
    "clipIndex": 507,
    "trackId": "22",
    "clipName": null,
    "beat": 358.25,
    "relBeat": 24.25,
    "duration": 0.25,
    "velocity": 100,
    "pitch": 60
  },
  {
    "clipIndex": 509,
    "trackId": "22",
    "clipName": null,
    "beat": 358.25,
    "relBeat": 20.25,
    "duration": 0.25,
    "velocity": 100,
    "pitch": 60
  },
  {
    "clipIndex": 510,
    "trackId": "22",
    "clipName": null,
    "beat": 358.25,
    "relBeat": 18.25,
    "duration": 0.25,
    "velocity": 100,
    "pitch": 60
  },
  {
    "clipIndex": 511,
    "trackId": "22",
    "clipName": null,
    "beat": 358.25,
    "relBeat": 16.25,
    "duration": 0.25,
    "velocity": 100,
    "pitch": 60
  },
  {
    "clipIndex": 512,
    "trackId": "22",
    "clipName": null,
    "beat": 358.25,
    "relBeat": 14.25,
    "duration": 0.25,
    "velocity": 100,
    "pitch": 60
  },
  {
    "clipIndex": 513,
    "trackId": "22",
    "clipName": null,
    "beat": 358.25,
    "relBeat": 12.25,
    "duration": 0.25,
    "velocity": 100,
    "pitch": 60
  },
  {
    "clipIndex": 517,
    "trackId": "22",
    "clipName": null,
    "beat": 358.25,
    "relBeat": 4.25,
    "duration": 0.25,
    "velocity": 100,
    "pitch": 60
  },
  {
    "clipIndex": 518,
    "trackId": "22",
    "clipName": null,
    "beat": 358.25,
    "relBeat": 2.25,
    "duration": 0.25,
    "velocity": 100,
    "pitch": 60
  },
  {
    "clipIndex": 495,
    "trackId": "22",
    "clipName": null,
    "beat": 358.5,
    "relBeat": 54.5,
    "duration": 0.25,
    "velocity": 100,
    "pitch": 60
  },
  {
    "clipIndex": 504,
    "trackId": "22",
    "clipName": null,
    "beat": 358.5,
    "relBeat": 30.5,
    "duration": 0.25,
    "velocity": 100,
    "pitch": 60
  },
  {
    "clipIndex": 505,
    "trackId": "22",
    "clipName": null,
    "beat": 358.5,
    "relBeat": 28.5,
    "duration": 0.25,
    "velocity": 100,
    "pitch": 60
  },
  {
    "clipIndex": 506,
    "trackId": "22",
    "clipName": null,
    "beat": 358.5,
    "relBeat": 26.5,
    "duration": 0.25,
    "velocity": 100,
    "pitch": 60
  },
  {
    "clipIndex": 507,
    "trackId": "22",
    "clipName": null,
    "beat": 358.5,
    "relBeat": 24.5,
    "duration": 0.25,
    "velocity": 100,
    "pitch": 60
  },
  {
    "clipIndex": 509,
    "trackId": "22",
    "clipName": null,
    "beat": 358.5,
    "relBeat": 20.5,
    "duration": 0.25,
    "velocity": 100,
    "pitch": 60
  },
  {
    "clipIndex": 510,
    "trackId": "22",
    "clipName": null,
    "beat": 358.5,
    "relBeat": 18.5,
    "duration": 0.25,
    "velocity": 100,
    "pitch": 60
  },
  {
    "clipIndex": 511,
    "trackId": "22",
    "clipName": null,
    "beat": 358.5,
    "relBeat": 16.5,
    "duration": 0.25,
    "velocity": 100,
    "pitch": 60
  },
  {
    "clipIndex": 512,
    "trackId": "22",
    "clipName": null,
    "beat": 358.5,
    "relBeat": 14.5,
    "duration": 0.25,
    "velocity": 100,
    "pitch": 60
  },
  {
    "clipIndex": 513,
    "trackId": "22",
    "clipName": null,
    "beat": 358.5,
    "relBeat": 12.5,
    "duration": 0.25,
    "velocity": 100,
    "pitch": 60
  },
  {
    "clipIndex": 517,
    "trackId": "22",
    "clipName": null,
    "beat": 358.5,
    "relBeat": 4.5,
    "duration": 0.25,
    "velocity": 100,
    "pitch": 60
  },
  {
    "clipIndex": 518,
    "trackId": "22",
    "clipName": null,
    "beat": 358.5,
    "relBeat": 2.5,
    "duration": 0.25,
    "velocity": 100,
    "pitch": 60
  },
  {
    "clipIndex": 495,
    "trackId": "22",
    "clipName": null,
    "beat": 358.75,
    "relBeat": 54.75,
    "duration": 0.25,
    "velocity": 100,
    "pitch": 60
  },
  {
    "clipIndex": 504,
    "trackId": "22",
    "clipName": null,
    "beat": 358.75,
    "relBeat": 30.75,
    "duration": 0.25,
    "velocity": 100,
    "pitch": 60
  },
  {
    "clipIndex": 505,
    "trackId": "22",
    "clipName": null,
    "beat": 358.75,
    "relBeat": 28.75,
    "duration": 0.25,
    "velocity": 100,
    "pitch": 60
  },
  {
    "clipIndex": 506,
    "trackId": "22",
    "clipName": null,
    "beat": 358.75,
    "relBeat": 26.75,
    "duration": 0.25,
    "velocity": 100,
    "pitch": 60
  },
  {
    "clipIndex": 507,
    "trackId": "22",
    "clipName": null,
    "beat": 358.75,
    "relBeat": 24.75,
    "duration": 0.25,
    "velocity": 100,
    "pitch": 60
  },
  {
    "clipIndex": 509,
    "trackId": "22",
    "clipName": null,
    "beat": 358.75,
    "relBeat": 20.75,
    "duration": 0.25,
    "velocity": 100,
    "pitch": 60
  },
  {
    "clipIndex": 510,
    "trackId": "22",
    "clipName": null,
    "beat": 358.75,
    "relBeat": 18.75,
    "duration": 0.25,
    "velocity": 100,
    "pitch": 60
  },
  {
    "clipIndex": 511,
    "trackId": "22",
    "clipName": null,
    "beat": 358.75,
    "relBeat": 16.75,
    "duration": 0.25,
    "velocity": 100,
    "pitch": 60
  },
  {
    "clipIndex": 512,
    "trackId": "22",
    "clipName": null,
    "beat": 358.75,
    "relBeat": 14.75,
    "duration": 0.25,
    "velocity": 100,
    "pitch": 60
  },
  {
    "clipIndex": 513,
    "trackId": "22",
    "clipName": null,
    "beat": 358.75,
    "relBeat": 12.75,
    "duration": 0.25,
    "velocity": 100,
    "pitch": 60
  },
  {
    "clipIndex": 517,
    "trackId": "22",
    "clipName": null,
    "beat": 358.75,
    "relBeat": 4.75,
    "duration": 0.25,
    "velocity": 100,
    "pitch": 60
  },
  {
    "clipIndex": 518,
    "trackId": "22",
    "clipName": null,
    "beat": 358.75,
    "relBeat": 2.75,
    "duration": 0.25,
    "velocity": 100,
    "pitch": 60
  },
  {
    "clipIndex": 0,
    "trackId": "89",
    "clipName": null,
    "beat": 359,
    "relBeat": 359,
    "duration": 0.125,
    "velocity": 100,
    "pitch": 60
  },
  {
    "clipIndex": 495,
    "trackId": "22",
    "clipName": null,
    "beat": 359,
    "relBeat": 55,
    "duration": 0.25,
    "velocity": 100,
    "pitch": 60
  },
  {
    "clipIndex": 504,
    "trackId": "22",
    "clipName": null,
    "beat": 359,
    "relBeat": 31,
    "duration": 0.25,
    "velocity": 100,
    "pitch": 60
  },
  {
    "clipIndex": 505,
    "trackId": "22",
    "clipName": null,
    "beat": 359,
    "relBeat": 29,
    "duration": 0.25,
    "velocity": 100,
    "pitch": 60
  },
  {
    "clipIndex": 506,
    "trackId": "22",
    "clipName": null,
    "beat": 359,
    "relBeat": 27,
    "duration": 0.25,
    "velocity": 100,
    "pitch": 60
  },
  {
    "clipIndex": 507,
    "trackId": "22",
    "clipName": null,
    "beat": 359,
    "relBeat": 25,
    "duration": 0.25,
    "velocity": 100,
    "pitch": 60
  },
  {
    "clipIndex": 509,
    "trackId": "22",
    "clipName": null,
    "beat": 359,
    "relBeat": 21,
    "duration": 0.25,
    "velocity": 100,
    "pitch": 60
  },
  {
    "clipIndex": 510,
    "trackId": "22",
    "clipName": null,
    "beat": 359,
    "relBeat": 19,
    "duration": 0.25,
    "velocity": 100,
    "pitch": 60
  },
  {
    "clipIndex": 511,
    "trackId": "22",
    "clipName": null,
    "beat": 359,
    "relBeat": 17,
    "duration": 0.25,
    "velocity": 100,
    "pitch": 60
  },
  {
    "clipIndex": 512,
    "trackId": "22",
    "clipName": null,
    "beat": 359,
    "relBeat": 15,
    "duration": 0.25,
    "velocity": 100,
    "pitch": 60
  },
  {
    "clipIndex": 513,
    "trackId": "22",
    "clipName": null,
    "beat": 359,
    "relBeat": 13,
    "duration": 0.25,
    "velocity": 100,
    "pitch": 60
  },
  {
    "clipIndex": 515,
    "trackId": "22",
    "clipName": null,
    "beat": 359,
    "relBeat": 9,
    "duration": 0.25,
    "velocity": 100,
    "pitch": 60
  },
  {
    "clipIndex": 517,
    "trackId": "22",
    "clipName": null,
    "beat": 359,
    "relBeat": 5,
    "duration": 0.25,
    "velocity": 100,
    "pitch": 60
  },
  {
    "clipIndex": 518,
    "trackId": "22",
    "clipName": null,
    "beat": 359,
    "relBeat": 3,
    "duration": 0.25,
    "velocity": 100,
    "pitch": 60
  },
  {
    "clipIndex": 0,
    "trackId": "89",
    "clipName": null,
    "beat": 359.125,
    "relBeat": 359.125,
    "duration": 0.125,
    "velocity": 100,
    "pitch": 60
  },
  {
    "clipIndex": 0,
    "trackId": "89",
    "clipName": null,
    "beat": 359.25,
    "relBeat": 359.25,
    "duration": 0.125,
    "velocity": 100,
    "pitch": 60
  },
  {
    "clipIndex": 338,
    "trackId": "55",
    "clipName": null,
    "beat": 359.25,
    "relBeat": 159.25,
    "duration": 0.25,
    "velocity": 100,
    "pitch": 60
  },
  {
    "clipIndex": 495,
    "trackId": "22",
    "clipName": null,
    "beat": 359.25,
    "relBeat": 55.25,
    "duration": 0.25,
    "velocity": 100,
    "pitch": 60
  },
  {
    "clipIndex": 504,
    "trackId": "22",
    "clipName": null,
    "beat": 359.25,
    "relBeat": 31.25,
    "duration": 0.25,
    "velocity": 100,
    "pitch": 60
  },
  {
    "clipIndex": 505,
    "trackId": "22",
    "clipName": null,
    "beat": 359.25,
    "relBeat": 29.25,
    "duration": 0.25,
    "velocity": 100,
    "pitch": 60
  },
  {
    "clipIndex": 506,
    "trackId": "22",
    "clipName": null,
    "beat": 359.25,
    "relBeat": 27.25,
    "duration": 0.25,
    "velocity": 100,
    "pitch": 60
  },
  {
    "clipIndex": 507,
    "trackId": "22",
    "clipName": null,
    "beat": 359.25,
    "relBeat": 25.25,
    "duration": 0.25,
    "velocity": 100,
    "pitch": 60
  },
  {
    "clipIndex": 509,
    "trackId": "22",
    "clipName": null,
    "beat": 359.25,
    "relBeat": 21.25,
    "duration": 0.25,
    "velocity": 100,
    "pitch": 60
  },
  {
    "clipIndex": 510,
    "trackId": "22",
    "clipName": null,
    "beat": 359.25,
    "relBeat": 19.25,
    "duration": 0.25,
    "velocity": 100,
    "pitch": 60
  },
  {
    "clipIndex": 511,
    "trackId": "22",
    "clipName": null,
    "beat": 359.25,
    "relBeat": 17.25,
    "duration": 0.25,
    "velocity": 100,
    "pitch": 60
  },
  {
    "clipIndex": 512,
    "trackId": "22",
    "clipName": null,
    "beat": 359.25,
    "relBeat": 15.25,
    "duration": 0.25,
    "velocity": 100,
    "pitch": 60
  },
  {
    "clipIndex": 513,
    "trackId": "22",
    "clipName": null,
    "beat": 359.25,
    "relBeat": 13.25,
    "duration": 0.25,
    "velocity": 100,
    "pitch": 60
  },
  {
    "clipIndex": 515,
    "trackId": "22",
    "clipName": null,
    "beat": 359.25,
    "relBeat": 9.25,
    "duration": 0.25,
    "velocity": 100,
    "pitch": 60
  },
  {
    "clipIndex": 517,
    "trackId": "22",
    "clipName": null,
    "beat": 359.25,
    "relBeat": 5.25,
    "duration": 0.25,
    "velocity": 100,
    "pitch": 60
  },
  {
    "clipIndex": 518,
    "trackId": "22",
    "clipName": null,
    "beat": 359.25,
    "relBeat": 3.25,
    "duration": 0.25,
    "velocity": 100,
    "pitch": 60
  },
  {
    "clipIndex": 0,
    "trackId": "89",
    "clipName": null,
    "beat": 359.375,
    "relBeat": 359.375,
    "duration": 0.125,
    "velocity": 100,
    "pitch": 60
  },
  {
    "clipIndex": 0,
    "trackId": "89",
    "clipName": null,
    "beat": 359.5,
    "relBeat": 359.5,
    "duration": 0.25,
    "velocity": 100,
    "pitch": 60
  },
  {
    "clipIndex": 495,
    "trackId": "22",
    "clipName": null,
    "beat": 359.5,
    "relBeat": 55.5,
    "duration": 0.25,
    "velocity": 100,
    "pitch": 60
  },
  {
    "clipIndex": 504,
    "trackId": "22",
    "clipName": null,
    "beat": 359.5,
    "relBeat": 31.5,
    "duration": 0.25,
    "velocity": 100,
    "pitch": 60
  },
  {
    "clipIndex": 505,
    "trackId": "22",
    "clipName": null,
    "beat": 359.5,
    "relBeat": 29.5,
    "duration": 0.25,
    "velocity": 100,
    "pitch": 60
  },
  {
    "clipIndex": 506,
    "trackId": "22",
    "clipName": null,
    "beat": 359.5,
    "relBeat": 27.5,
    "duration": 0.25,
    "velocity": 100,
    "pitch": 60
  },
  {
    "clipIndex": 507,
    "trackId": "22",
    "clipName": null,
    "beat": 359.5,
    "relBeat": 25.5,
    "duration": 0.25,
    "velocity": 100,
    "pitch": 60
  },
  {
    "clipIndex": 510,
    "trackId": "22",
    "clipName": null,
    "beat": 359.5,
    "relBeat": 19.5,
    "duration": 0.25,
    "velocity": 100,
    "pitch": 60
  },
  {
    "clipIndex": 511,
    "trackId": "22",
    "clipName": null,
    "beat": 359.5,
    "relBeat": 17.5,
    "duration": 0.25,
    "velocity": 100,
    "pitch": 60
  },
  {
    "clipIndex": 512,
    "trackId": "22",
    "clipName": null,
    "beat": 359.5,
    "relBeat": 15.5,
    "duration": 0.25,
    "velocity": 100,
    "pitch": 60
  },
  {
    "clipIndex": 513,
    "trackId": "22",
    "clipName": null,
    "beat": 359.5,
    "relBeat": 13.5,
    "duration": 0.25,
    "velocity": 100,
    "pitch": 60
  },
  {
    "clipIndex": 515,
    "trackId": "22",
    "clipName": null,
    "beat": 359.5,
    "relBeat": 9.5,
    "duration": 0.25,
    "velocity": 100,
    "pitch": 60
  },
  {
    "clipIndex": 517,
    "trackId": "22",
    "clipName": null,
    "beat": 359.5,
    "relBeat": 5.5,
    "duration": 0.25,
    "velocity": 100,
    "pitch": 60
  },
  {
    "clipIndex": 518,
    "trackId": "22",
    "clipName": null,
    "beat": 359.5,
    "relBeat": 3.5,
    "duration": 0.25,
    "velocity": 100,
    "pitch": 60
  },
  {
    "clipIndex": 338,
    "trackId": "55",
    "clipName": null,
    "beat": 359.75,
    "relBeat": 159.75,
    "duration": 0.25,
    "velocity": 100,
    "pitch": 60
  },
  {
    "clipIndex": 495,
    "trackId": "22",
    "clipName": null,
    "beat": 359.75,
    "relBeat": 55.75,
    "duration": 0.25,
    "velocity": 100,
    "pitch": 60
  },
  {
    "clipIndex": 504,
    "trackId": "22",
    "clipName": null,
    "beat": 359.75,
    "relBeat": 31.75,
    "duration": 0.25,
    "velocity": 100,
    "pitch": 60
  },
  {
    "clipIndex": 505,
    "trackId": "22",
    "clipName": null,
    "beat": 359.75,
    "relBeat": 29.75,
    "duration": 0.25,
    "velocity": 100,
    "pitch": 60
  },
  {
    "clipIndex": 506,
    "trackId": "22",
    "clipName": null,
    "beat": 359.75,
    "relBeat": 27.75,
    "duration": 0.25,
    "velocity": 100,
    "pitch": 60
  },
  {
    "clipIndex": 507,
    "trackId": "22",
    "clipName": null,
    "beat": 359.75,
    "relBeat": 25.75,
    "duration": 0.25,
    "velocity": 100,
    "pitch": 60
  },
  {
    "clipIndex": 510,
    "trackId": "22",
    "clipName": null,
    "beat": 359.75,
    "relBeat": 19.75,
    "duration": 0.25,
    "velocity": 100,
    "pitch": 60
  },
  {
    "clipIndex": 511,
    "trackId": "22",
    "clipName": null,
    "beat": 359.75,
    "relBeat": 17.75,
    "duration": 0.25,
    "velocity": 100,
    "pitch": 60
  },
  {
    "clipIndex": 512,
    "trackId": "22",
    "clipName": null,
    "beat": 359.75,
    "relBeat": 15.75,
    "duration": 0.25,
    "velocity": 100,
    "pitch": 60
  },
  {
    "clipIndex": 513,
    "trackId": "22",
    "clipName": null,
    "beat": 359.75,
    "relBeat": 13.75,
    "duration": 0.25,
    "velocity": 100,
    "pitch": 60
  },
  {
    "clipIndex": 515,
    "trackId": "22",
    "clipName": null,
    "beat": 359.75,
    "relBeat": 9.75,
    "duration": 0.25,
    "velocity": 100,
    "pitch": 60
  },
  {
    "clipIndex": 517,
    "trackId": "22",
    "clipName": null,
    "beat": 359.75,
    "relBeat": 5.75,
    "duration": 0.25,
    "velocity": 100,
    "pitch": 60
  },
  {
    "clipIndex": 518,
    "trackId": "22",
    "clipName": null,
    "beat": 359.75,
    "relBeat": 3.75,
    "duration": 0.25,
    "velocity": 100,
    "pitch": 60
  },
  {
    "clipIndex": 495,
    "trackId": "22",
    "clipName": null,
    "beat": 360,
    "relBeat": 56,
    "duration": 0.25,
    "velocity": 100,
    "pitch": 60
  },
  {
    "clipIndex": 505,
    "trackId": "22",
    "clipName": null,
    "beat": 360,
    "relBeat": 30,
    "duration": 0.25,
    "velocity": 100,
    "pitch": 60
  },
  {
    "clipIndex": 506,
    "trackId": "22",
    "clipName": null,
    "beat": 360,
    "relBeat": 28,
    "duration": 0.25,
    "velocity": 100,
    "pitch": 60
  },
  {
    "clipIndex": 507,
    "trackId": "22",
    "clipName": null,
    "beat": 360,
    "relBeat": 26,
    "duration": 0.25,
    "velocity": 100,
    "pitch": 60
  },
  {
    "clipIndex": 508,
    "trackId": "22",
    "clipName": null,
    "beat": 360,
    "relBeat": 24,
    "duration": 0.25,
    "velocity": 100,
    "pitch": 60
  },
  {
    "clipIndex": 510,
    "trackId": "22",
    "clipName": null,
    "beat": 360,
    "relBeat": 20,
    "duration": 0.25,
    "velocity": 100,
    "pitch": 60
  },
  {
    "clipIndex": 511,
    "trackId": "22",
    "clipName": null,
    "beat": 360,
    "relBeat": 18,
    "duration": 0.25,
    "velocity": 100,
    "pitch": 60
  },
  {
    "clipIndex": 512,
    "trackId": "22",
    "clipName": null,
    "beat": 360,
    "relBeat": 16,
    "duration": 0.25,
    "velocity": 100,
    "pitch": 60
  },
  {
    "clipIndex": 513,
    "trackId": "22",
    "clipName": null,
    "beat": 360,
    "relBeat": 14,
    "duration": 0.25,
    "velocity": 100,
    "pitch": 60
  },
  {
    "clipIndex": 514,
    "trackId": "22",
    "clipName": null,
    "beat": 360,
    "relBeat": 12,
    "duration": 0.25,
    "velocity": 100,
    "pitch": 60
  },
  {
    "clipIndex": 515,
    "trackId": "22",
    "clipName": null,
    "beat": 360,
    "relBeat": 10,
    "duration": 0.25,
    "velocity": 100,
    "pitch": 60
  },
  {
    "clipIndex": 518,
    "trackId": "22",
    "clipName": null,
    "beat": 360,
    "relBeat": 4,
    "duration": 0.25,
    "velocity": 100,
    "pitch": 60
  },
  {
    "clipIndex": 338,
    "trackId": "55",
    "clipName": null,
    "beat": 360.25,
    "relBeat": 160.25,
    "duration": 0.25,
    "velocity": 100,
    "pitch": 60
  },
  {
    "clipIndex": 495,
    "trackId": "22",
    "clipName": null,
    "beat": 360.25,
    "relBeat": 56.25,
    "duration": 0.25,
    "velocity": 100,
    "pitch": 60
  },
  {
    "clipIndex": 505,
    "trackId": "22",
    "clipName": null,
    "beat": 360.25,
    "relBeat": 30.25,
    "duration": 0.25,
    "velocity": 100,
    "pitch": 60
  },
  {
    "clipIndex": 506,
    "trackId": "22",
    "clipName": null,
    "beat": 360.25,
    "relBeat": 28.25,
    "duration": 0.25,
    "velocity": 100,
    "pitch": 60
  },
  {
    "clipIndex": 507,
    "trackId": "22",
    "clipName": null,
    "beat": 360.25,
    "relBeat": 26.25,
    "duration": 0.25,
    "velocity": 100,
    "pitch": 60
  },
  {
    "clipIndex": 508,
    "trackId": "22",
    "clipName": null,
    "beat": 360.25,
    "relBeat": 24.25,
    "duration": 0.25,
    "velocity": 100,
    "pitch": 60
  },
  {
    "clipIndex": 510,
    "trackId": "22",
    "clipName": null,
    "beat": 360.25,
    "relBeat": 20.25,
    "duration": 0.25,
    "velocity": 100,
    "pitch": 60
  },
  {
    "clipIndex": 511,
    "trackId": "22",
    "clipName": null,
    "beat": 360.25,
    "relBeat": 18.25,
    "duration": 0.25,
    "velocity": 100,
    "pitch": 60
  },
  {
    "clipIndex": 512,
    "trackId": "22",
    "clipName": null,
    "beat": 360.25,
    "relBeat": 16.25,
    "duration": 0.25,
    "velocity": 100,
    "pitch": 60
  },
  {
    "clipIndex": 513,
    "trackId": "22",
    "clipName": null,
    "beat": 360.25,
    "relBeat": 14.25,
    "duration": 0.25,
    "velocity": 100,
    "pitch": 60
  },
  {
    "clipIndex": 514,
    "trackId": "22",
    "clipName": null,
    "beat": 360.25,
    "relBeat": 12.25,
    "duration": 0.25,
    "velocity": 100,
    "pitch": 60
  },
  {
    "clipIndex": 518,
    "trackId": "22",
    "clipName": null,
    "beat": 360.25,
    "relBeat": 4.25,
    "duration": 0.25,
    "velocity": 100,
    "pitch": 60
  },
  {
    "clipIndex": 505,
    "trackId": "22",
    "clipName": null,
    "beat": 360.5,
    "relBeat": 30.5,
    "duration": 0.25,
    "velocity": 100,
    "pitch": 60
  },
  {
    "clipIndex": 506,
    "trackId": "22",
    "clipName": null,
    "beat": 360.5,
    "relBeat": 28.5,
    "duration": 0.25,
    "velocity": 100,
    "pitch": 60
  },
  {
    "clipIndex": 507,
    "trackId": "22",
    "clipName": null,
    "beat": 360.5,
    "relBeat": 26.5,
    "duration": 0.25,
    "velocity": 100,
    "pitch": 60
  },
  {
    "clipIndex": 508,
    "trackId": "22",
    "clipName": null,
    "beat": 360.5,
    "relBeat": 24.5,
    "duration": 0.25,
    "velocity": 100,
    "pitch": 60
  },
  {
    "clipIndex": 510,
    "trackId": "22",
    "clipName": null,
    "beat": 360.5,
    "relBeat": 20.5,
    "duration": 0.25,
    "velocity": 100,
    "pitch": 60
  },
  {
    "clipIndex": 511,
    "trackId": "22",
    "clipName": null,
    "beat": 360.5,
    "relBeat": 18.5,
    "duration": 0.25,
    "velocity": 100,
    "pitch": 60
  },
  {
    "clipIndex": 512,
    "trackId": "22",
    "clipName": null,
    "beat": 360.5,
    "relBeat": 16.5,
    "duration": 0.25,
    "velocity": 100,
    "pitch": 60
  },
  {
    "clipIndex": 513,
    "trackId": "22",
    "clipName": null,
    "beat": 360.5,
    "relBeat": 14.5,
    "duration": 0.25,
    "velocity": 100,
    "pitch": 60
  },
  {
    "clipIndex": 514,
    "trackId": "22",
    "clipName": null,
    "beat": 360.5,
    "relBeat": 12.5,
    "duration": 0.25,
    "velocity": 100,
    "pitch": 60
  },
  {
    "clipIndex": 518,
    "trackId": "22",
    "clipName": null,
    "beat": 360.5,
    "relBeat": 4.5,
    "duration": 0.25,
    "velocity": 100,
    "pitch": 60
  },
  {
    "clipIndex": 505,
    "trackId": "22",
    "clipName": null,
    "beat": 360.75,
    "relBeat": 30.75,
    "duration": 0.25,
    "velocity": 100,
    "pitch": 60
  },
  {
    "clipIndex": 506,
    "trackId": "22",
    "clipName": null,
    "beat": 360.75,
    "relBeat": 28.75,
    "duration": 0.25,
    "velocity": 100,
    "pitch": 60
  },
  {
    "clipIndex": 507,
    "trackId": "22",
    "clipName": null,
    "beat": 360.75,
    "relBeat": 26.75,
    "duration": 0.25,
    "velocity": 100,
    "pitch": 60
  },
  {
    "clipIndex": 508,
    "trackId": "22",
    "clipName": null,
    "beat": 360.75,
    "relBeat": 24.75,
    "duration": 0.25,
    "velocity": 100,
    "pitch": 60
  },
  {
    "clipIndex": 510,
    "trackId": "22",
    "clipName": null,
    "beat": 360.75,
    "relBeat": 20.75,
    "duration": 0.25,
    "velocity": 100,
    "pitch": 60
  },
  {
    "clipIndex": 511,
    "trackId": "22",
    "clipName": null,
    "beat": 360.75,
    "relBeat": 18.75,
    "duration": 0.25,
    "velocity": 100,
    "pitch": 60
  },
  {
    "clipIndex": 512,
    "trackId": "22",
    "clipName": null,
    "beat": 360.75,
    "relBeat": 16.75,
    "duration": 0.25,
    "velocity": 100,
    "pitch": 60
  },
  {
    "clipIndex": 513,
    "trackId": "22",
    "clipName": null,
    "beat": 360.75,
    "relBeat": 14.75,
    "duration": 0.25,
    "velocity": 100,
    "pitch": 60
  },
  {
    "clipIndex": 514,
    "trackId": "22",
    "clipName": null,
    "beat": 360.75,
    "relBeat": 12.75,
    "duration": 0.25,
    "velocity": 100,
    "pitch": 60
  },
  {
    "clipIndex": 518,
    "trackId": "22",
    "clipName": null,
    "beat": 360.75,
    "relBeat": 4.75,
    "duration": 0.25,
    "velocity": 100,
    "pitch": 60
  },
  {
    "clipIndex": 495,
    "trackId": "22",
    "clipName": null,
    "beat": 361,
    "relBeat": 57,
    "duration": 0.25,
    "velocity": 100,
    "pitch": 60
  },
  {
    "clipIndex": 505,
    "trackId": "22",
    "clipName": null,
    "beat": 361,
    "relBeat": 31,
    "duration": 0.25,
    "velocity": 100,
    "pitch": 60
  },
  {
    "clipIndex": 506,
    "trackId": "22",
    "clipName": null,
    "beat": 361,
    "relBeat": 29,
    "duration": 0.25,
    "velocity": 100,
    "pitch": 60
  },
  {
    "clipIndex": 507,
    "trackId": "22",
    "clipName": null,
    "beat": 361,
    "relBeat": 27,
    "duration": 0.25,
    "velocity": 100,
    "pitch": 60
  },
  {
    "clipIndex": 508,
    "trackId": "22",
    "clipName": null,
    "beat": 361,
    "relBeat": 25,
    "duration": 0.25,
    "velocity": 100,
    "pitch": 60
  },
  {
    "clipIndex": 510,
    "trackId": "22",
    "clipName": null,
    "beat": 361,
    "relBeat": 21,
    "duration": 0.25,
    "velocity": 100,
    "pitch": 60
  },
  {
    "clipIndex": 511,
    "trackId": "22",
    "clipName": null,
    "beat": 361,
    "relBeat": 19,
    "duration": 0.25,
    "velocity": 100,
    "pitch": 60
  },
  {
    "clipIndex": 512,
    "trackId": "22",
    "clipName": null,
    "beat": 361,
    "relBeat": 17,
    "duration": 0.25,
    "velocity": 100,
    "pitch": 60
  },
  {
    "clipIndex": 513,
    "trackId": "22",
    "clipName": null,
    "beat": 361,
    "relBeat": 15,
    "duration": 0.25,
    "velocity": 100,
    "pitch": 60
  },
  {
    "clipIndex": 514,
    "trackId": "22",
    "clipName": null,
    "beat": 361,
    "relBeat": 13,
    "duration": 0.25,
    "velocity": 100,
    "pitch": 60
  },
  {
    "clipIndex": 516,
    "trackId": "22",
    "clipName": null,
    "beat": 361,
    "relBeat": 9,
    "duration": 0.25,
    "velocity": 100,
    "pitch": 60
  },
  {
    "clipIndex": 518,
    "trackId": "22",
    "clipName": null,
    "beat": 361,
    "relBeat": 5,
    "duration": 0.25,
    "velocity": 100,
    "pitch": 60
  },
  {
    "clipIndex": 495,
    "trackId": "22",
    "clipName": null,
    "beat": 361.25,
    "relBeat": 57.25,
    "duration": 0.25,
    "velocity": 100,
    "pitch": 60
  },
  {
    "clipIndex": 505,
    "trackId": "22",
    "clipName": null,
    "beat": 361.25,
    "relBeat": 31.25,
    "duration": 0.25,
    "velocity": 100,
    "pitch": 60
  },
  {
    "clipIndex": 506,
    "trackId": "22",
    "clipName": null,
    "beat": 361.25,
    "relBeat": 29.25,
    "duration": 0.25,
    "velocity": 100,
    "pitch": 60
  },
  {
    "clipIndex": 507,
    "trackId": "22",
    "clipName": null,
    "beat": 361.25,
    "relBeat": 27.25,
    "duration": 0.25,
    "velocity": 100,
    "pitch": 60
  },
  {
    "clipIndex": 508,
    "trackId": "22",
    "clipName": null,
    "beat": 361.25,
    "relBeat": 25.25,
    "duration": 0.25,
    "velocity": 100,
    "pitch": 60
  },
  {
    "clipIndex": 510,
    "trackId": "22",
    "clipName": null,
    "beat": 361.25,
    "relBeat": 21.25,
    "duration": 0.25,
    "velocity": 100,
    "pitch": 60
  },
  {
    "clipIndex": 511,
    "trackId": "22",
    "clipName": null,
    "beat": 361.25,
    "relBeat": 19.25,
    "duration": 0.25,
    "velocity": 100,
    "pitch": 60
  },
  {
    "clipIndex": 512,
    "trackId": "22",
    "clipName": null,
    "beat": 361.25,
    "relBeat": 17.25,
    "duration": 0.25,
    "velocity": 100,
    "pitch": 60
  },
  {
    "clipIndex": 513,
    "trackId": "22",
    "clipName": null,
    "beat": 361.25,
    "relBeat": 15.25,
    "duration": 0.25,
    "velocity": 100,
    "pitch": 60
  },
  {
    "clipIndex": 514,
    "trackId": "22",
    "clipName": null,
    "beat": 361.25,
    "relBeat": 13.25,
    "duration": 0.25,
    "velocity": 100,
    "pitch": 60
  },
  {
    "clipIndex": 516,
    "trackId": "22",
    "clipName": null,
    "beat": 361.25,
    "relBeat": 9.25,
    "duration": 0.25,
    "velocity": 100,
    "pitch": 60
  },
  {
    "clipIndex": 518,
    "trackId": "22",
    "clipName": null,
    "beat": 361.25,
    "relBeat": 5.25,
    "duration": 0.25,
    "velocity": 100,
    "pitch": 60
  },
  {
    "clipIndex": 0,
    "trackId": "89",
    "clipName": null,
    "beat": 361.5,
    "relBeat": 361.5,
    "duration": 0.25,
    "velocity": 100,
    "pitch": 60
  },
  {
    "clipIndex": 495,
    "trackId": "22",
    "clipName": null,
    "beat": 361.5,
    "relBeat": 57.5,
    "duration": 0.25,
    "velocity": 100,
    "pitch": 60
  },
  {
    "clipIndex": 505,
    "trackId": "22",
    "clipName": null,
    "beat": 361.5,
    "relBeat": 31.5,
    "duration": 0.25,
    "velocity": 100,
    "pitch": 60
  },
  {
    "clipIndex": 506,
    "trackId": "22",
    "clipName": null,
    "beat": 361.5,
    "relBeat": 29.5,
    "duration": 0.25,
    "velocity": 100,
    "pitch": 60
  },
  {
    "clipIndex": 507,
    "trackId": "22",
    "clipName": null,
    "beat": 361.5,
    "relBeat": 27.5,
    "duration": 0.25,
    "velocity": 100,
    "pitch": 60
  },
  {
    "clipIndex": 508,
    "trackId": "22",
    "clipName": null,
    "beat": 361.5,
    "relBeat": 25.5,
    "duration": 0.25,
    "velocity": 100,
    "pitch": 60
  },
  {
    "clipIndex": 511,
    "trackId": "22",
    "clipName": null,
    "beat": 361.5,
    "relBeat": 19.5,
    "duration": 0.25,
    "velocity": 100,
    "pitch": 60
  },
  {
    "clipIndex": 512,
    "trackId": "22",
    "clipName": null,
    "beat": 361.5,
    "relBeat": 17.5,
    "duration": 0.25,
    "velocity": 100,
    "pitch": 60
  },
  {
    "clipIndex": 513,
    "trackId": "22",
    "clipName": null,
    "beat": 361.5,
    "relBeat": 15.5,
    "duration": 0.25,
    "velocity": 100,
    "pitch": 60
  },
  {
    "clipIndex": 514,
    "trackId": "22",
    "clipName": null,
    "beat": 361.5,
    "relBeat": 13.5,
    "duration": 0.25,
    "velocity": 100,
    "pitch": 60
  },
  {
    "clipIndex": 516,
    "trackId": "22",
    "clipName": null,
    "beat": 361.5,
    "relBeat": 9.5,
    "duration": 0.25,
    "velocity": 100,
    "pitch": 60
  },
  {
    "clipIndex": 518,
    "trackId": "22",
    "clipName": null,
    "beat": 361.5,
    "relBeat": 5.5,
    "duration": 0.25,
    "velocity": 100,
    "pitch": 60
  },
  {
    "clipIndex": 338,
    "trackId": "55",
    "clipName": null,
    "beat": 361.75,
    "relBeat": 161.75,
    "duration": 0.25,
    "velocity": 100,
    "pitch": 60
  },
  {
    "clipIndex": 495,
    "trackId": "22",
    "clipName": null,
    "beat": 361.75,
    "relBeat": 57.75,
    "duration": 0.25,
    "velocity": 100,
    "pitch": 60
  },
  {
    "clipIndex": 505,
    "trackId": "22",
    "clipName": null,
    "beat": 361.75,
    "relBeat": 31.75,
    "duration": 0.25,
    "velocity": 100,
    "pitch": 60
  },
  {
    "clipIndex": 506,
    "trackId": "22",
    "clipName": null,
    "beat": 361.75,
    "relBeat": 29.75,
    "duration": 0.25,
    "velocity": 100,
    "pitch": 60
  },
  {
    "clipIndex": 507,
    "trackId": "22",
    "clipName": null,
    "beat": 361.75,
    "relBeat": 27.75,
    "duration": 0.25,
    "velocity": 100,
    "pitch": 60
  },
  {
    "clipIndex": 508,
    "trackId": "22",
    "clipName": null,
    "beat": 361.75,
    "relBeat": 25.75,
    "duration": 0.25,
    "velocity": 100,
    "pitch": 60
  },
  {
    "clipIndex": 511,
    "trackId": "22",
    "clipName": null,
    "beat": 361.75,
    "relBeat": 19.75,
    "duration": 0.25,
    "velocity": 100,
    "pitch": 60
  },
  {
    "clipIndex": 512,
    "trackId": "22",
    "clipName": null,
    "beat": 361.75,
    "relBeat": 17.75,
    "duration": 0.25,
    "velocity": 100,
    "pitch": 60
  },
  {
    "clipIndex": 513,
    "trackId": "22",
    "clipName": null,
    "beat": 361.75,
    "relBeat": 15.75,
    "duration": 0.25,
    "velocity": 100,
    "pitch": 60
  },
  {
    "clipIndex": 514,
    "trackId": "22",
    "clipName": null,
    "beat": 361.75,
    "relBeat": 13.75,
    "duration": 0.25,
    "velocity": 100,
    "pitch": 60
  },
  {
    "clipIndex": 516,
    "trackId": "22",
    "clipName": null,
    "beat": 361.75,
    "relBeat": 9.75,
    "duration": 0.25,
    "velocity": 100,
    "pitch": 60
  },
  {
    "clipIndex": 518,
    "trackId": "22",
    "clipName": null,
    "beat": 361.75,
    "relBeat": 5.75,
    "duration": 0.25,
    "velocity": 100,
    "pitch": 60
  },
  {
    "clipIndex": 506,
    "trackId": "22",
    "clipName": null,
    "beat": 362,
    "relBeat": 30,
    "duration": 0.25,
    "velocity": 100,
    "pitch": 60
  },
  {
    "clipIndex": 507,
    "trackId": "22",
    "clipName": null,
    "beat": 362,
    "relBeat": 28,
    "duration": 0.25,
    "velocity": 100,
    "pitch": 60
  },
  {
    "clipIndex": 508,
    "trackId": "22",
    "clipName": null,
    "beat": 362,
    "relBeat": 26,
    "duration": 0.25,
    "velocity": 100,
    "pitch": 60
  },
  {
    "clipIndex": 509,
    "trackId": "22",
    "clipName": null,
    "beat": 362,
    "relBeat": 24,
    "duration": 0.25,
    "velocity": 100,
    "pitch": 60
  },
  {
    "clipIndex": 511,
    "trackId": "22",
    "clipName": null,
    "beat": 362,
    "relBeat": 20,
    "duration": 0.25,
    "velocity": 100,
    "pitch": 60
  },
  {
    "clipIndex": 512,
    "trackId": "22",
    "clipName": null,
    "beat": 362,
    "relBeat": 18,
    "duration": 0.25,
    "velocity": 100,
    "pitch": 60
  },
  {
    "clipIndex": 513,
    "trackId": "22",
    "clipName": null,
    "beat": 362,
    "relBeat": 16,
    "duration": 0.25,
    "velocity": 100,
    "pitch": 60
  },
  {
    "clipIndex": 514,
    "trackId": "22",
    "clipName": null,
    "beat": 362,
    "relBeat": 14,
    "duration": 0.25,
    "velocity": 100,
    "pitch": 60
  },
  {
    "clipIndex": 515,
    "trackId": "22",
    "clipName": null,
    "beat": 362,
    "relBeat": 12,
    "duration": 0.25,
    "velocity": 100,
    "pitch": 60
  },
  {
    "clipIndex": 516,
    "trackId": "22",
    "clipName": null,
    "beat": 362,
    "relBeat": 10,
    "duration": 0.25,
    "velocity": 100,
    "pitch": 60
  },
  {
    "clipIndex": 0,
    "trackId": "89",
    "clipName": null,
    "beat": 362.25,
    "relBeat": 362.25,
    "duration": 0.25,
    "velocity": 100,
    "pitch": 60
  },
  {
    "clipIndex": 338,
    "trackId": "55",
    "clipName": null,
    "beat": 362.25,
    "relBeat": 162.25,
    "duration": 0.25,
    "velocity": 100,
    "pitch": 60
  },
  {
    "clipIndex": 506,
    "trackId": "22",
    "clipName": null,
    "beat": 362.25,
    "relBeat": 30.25,
    "duration": 0.25,
    "velocity": 100,
    "pitch": 60
  },
  {
    "clipIndex": 507,
    "trackId": "22",
    "clipName": null,
    "beat": 362.25,
    "relBeat": 28.25,
    "duration": 0.25,
    "velocity": 100,
    "pitch": 60
  },
  {
    "clipIndex": 508,
    "trackId": "22",
    "clipName": null,
    "beat": 362.25,
    "relBeat": 26.25,
    "duration": 0.25,
    "velocity": 100,
    "pitch": 60
  },
  {
    "clipIndex": 509,
    "trackId": "22",
    "clipName": null,
    "beat": 362.25,
    "relBeat": 24.25,
    "duration": 0.25,
    "velocity": 100,
    "pitch": 60
  },
  {
    "clipIndex": 511,
    "trackId": "22",
    "clipName": null,
    "beat": 362.25,
    "relBeat": 20.25,
    "duration": 0.25,
    "velocity": 100,
    "pitch": 60
  },
  {
    "clipIndex": 512,
    "trackId": "22",
    "clipName": null,
    "beat": 362.25,
    "relBeat": 18.25,
    "duration": 0.25,
    "velocity": 100,
    "pitch": 60
  },
  {
    "clipIndex": 513,
    "trackId": "22",
    "clipName": null,
    "beat": 362.25,
    "relBeat": 16.25,
    "duration": 0.25,
    "velocity": 100,
    "pitch": 60
  },
  {
    "clipIndex": 514,
    "trackId": "22",
    "clipName": null,
    "beat": 362.25,
    "relBeat": 14.25,
    "duration": 0.25,
    "velocity": 100,
    "pitch": 60
  },
  {
    "clipIndex": 515,
    "trackId": "22",
    "clipName": null,
    "beat": 362.25,
    "relBeat": 12.25,
    "duration": 0.25,
    "velocity": 100,
    "pitch": 60
  },
  {
    "clipIndex": 495,
    "trackId": "22",
    "clipName": null,
    "beat": 362.5,
    "relBeat": 58.5,
    "duration": 0.25,
    "velocity": 100,
    "pitch": 60
  },
  {
    "clipIndex": 506,
    "trackId": "22",
    "clipName": null,
    "beat": 362.5,
    "relBeat": 30.5,
    "duration": 0.25,
    "velocity": 100,
    "pitch": 60
  },
  {
    "clipIndex": 507,
    "trackId": "22",
    "clipName": null,
    "beat": 362.5,
    "relBeat": 28.5,
    "duration": 0.25,
    "velocity": 100,
    "pitch": 60
  },
  {
    "clipIndex": 508,
    "trackId": "22",
    "clipName": null,
    "beat": 362.5,
    "relBeat": 26.5,
    "duration": 0.25,
    "velocity": 100,
    "pitch": 60
  },
  {
    "clipIndex": 509,
    "trackId": "22",
    "clipName": null,
    "beat": 362.5,
    "relBeat": 24.5,
    "duration": 0.25,
    "velocity": 100,
    "pitch": 60
  },
  {
    "clipIndex": 511,
    "trackId": "22",
    "clipName": null,
    "beat": 362.5,
    "relBeat": 20.5,
    "duration": 0.25,
    "velocity": 100,
    "pitch": 60
  },
  {
    "clipIndex": 512,
    "trackId": "22",
    "clipName": null,
    "beat": 362.5,
    "relBeat": 18.5,
    "duration": 0.25,
    "velocity": 100,
    "pitch": 60
  },
  {
    "clipIndex": 513,
    "trackId": "22",
    "clipName": null,
    "beat": 362.5,
    "relBeat": 16.5,
    "duration": 0.25,
    "velocity": 100,
    "pitch": 60
  },
  {
    "clipIndex": 514,
    "trackId": "22",
    "clipName": null,
    "beat": 362.5,
    "relBeat": 14.5,
    "duration": 0.25,
    "velocity": 100,
    "pitch": 60
  },
  {
    "clipIndex": 515,
    "trackId": "22",
    "clipName": null,
    "beat": 362.5,
    "relBeat": 12.5,
    "duration": 0.25,
    "velocity": 100,
    "pitch": 60
  },
  {
    "clipIndex": 0,
    "trackId": "89",
    "clipName": null,
    "beat": 362.75,
    "relBeat": 362.75,
    "duration": 0.25,
    "velocity": 100,
    "pitch": 60
  },
  {
    "clipIndex": 338,
    "trackId": "55",
    "clipName": null,
    "beat": 362.75,
    "relBeat": 162.75,
    "duration": 0.25,
    "velocity": 100,
    "pitch": 60
  },
  {
    "clipIndex": 495,
    "trackId": "22",
    "clipName": null,
    "beat": 362.75,
    "relBeat": 58.75,
    "duration": 0.25,
    "velocity": 100,
    "pitch": 60
  },
  {
    "clipIndex": 506,
    "trackId": "22",
    "clipName": null,
    "beat": 362.75,
    "relBeat": 30.75,
    "duration": 0.25,
    "velocity": 100,
    "pitch": 60
  },
  {
    "clipIndex": 507,
    "trackId": "22",
    "clipName": null,
    "beat": 362.75,
    "relBeat": 28.75,
    "duration": 0.25,
    "velocity": 100,
    "pitch": 60
  },
  {
    "clipIndex": 508,
    "trackId": "22",
    "clipName": null,
    "beat": 362.75,
    "relBeat": 26.75,
    "duration": 0.25,
    "velocity": 100,
    "pitch": 60
  },
  {
    "clipIndex": 509,
    "trackId": "22",
    "clipName": null,
    "beat": 362.75,
    "relBeat": 24.75,
    "duration": 0.25,
    "velocity": 100,
    "pitch": 60
  },
  {
    "clipIndex": 511,
    "trackId": "22",
    "clipName": null,
    "beat": 362.75,
    "relBeat": 20.75,
    "duration": 0.25,
    "velocity": 100,
    "pitch": 60
  },
  {
    "clipIndex": 512,
    "trackId": "22",
    "clipName": null,
    "beat": 362.75,
    "relBeat": 18.75,
    "duration": 0.25,
    "velocity": 100,
    "pitch": 60
  },
  {
    "clipIndex": 513,
    "trackId": "22",
    "clipName": null,
    "beat": 362.75,
    "relBeat": 16.75,
    "duration": 0.25,
    "velocity": 100,
    "pitch": 60
  },
  {
    "clipIndex": 514,
    "trackId": "22",
    "clipName": null,
    "beat": 362.75,
    "relBeat": 14.75,
    "duration": 0.25,
    "velocity": 100,
    "pitch": 60
  },
  {
    "clipIndex": 515,
    "trackId": "22",
    "clipName": null,
    "beat": 362.75,
    "relBeat": 12.75,
    "duration": 0.25,
    "velocity": 100,
    "pitch": 60
  },
  {
    "clipIndex": 0,
    "trackId": "89",
    "clipName": null,
    "beat": 363,
    "relBeat": 363,
    "duration": 0.25,
    "velocity": 100,
    "pitch": 60
  },
  {
    "clipIndex": 495,
    "trackId": "22",
    "clipName": null,
    "beat": 363,
    "relBeat": 59,
    "duration": 0.25,
    "velocity": 100,
    "pitch": 60
  },
  {
    "clipIndex": 506,
    "trackId": "22",
    "clipName": null,
    "beat": 363,
    "relBeat": 31,
    "duration": 0.25,
    "velocity": 100,
    "pitch": 60
  },
  {
    "clipIndex": 507,
    "trackId": "22",
    "clipName": null,
    "beat": 363,
    "relBeat": 29,
    "duration": 0.25,
    "velocity": 100,
    "pitch": 60
  },
  {
    "clipIndex": 508,
    "trackId": "22",
    "clipName": null,
    "beat": 363,
    "relBeat": 27,
    "duration": 0.25,
    "velocity": 100,
    "pitch": 60
  },
  {
    "clipIndex": 509,
    "trackId": "22",
    "clipName": null,
    "beat": 363,
    "relBeat": 25,
    "duration": 0.25,
    "velocity": 100,
    "pitch": 60
  },
  {
    "clipIndex": 511,
    "trackId": "22",
    "clipName": null,
    "beat": 363,
    "relBeat": 21,
    "duration": 0.25,
    "velocity": 100,
    "pitch": 60
  },
  {
    "clipIndex": 512,
    "trackId": "22",
    "clipName": null,
    "beat": 363,
    "relBeat": 19,
    "duration": 0.25,
    "velocity": 100,
    "pitch": 60
  },
  {
    "clipIndex": 513,
    "trackId": "22",
    "clipName": null,
    "beat": 363,
    "relBeat": 17,
    "duration": 0.25,
    "velocity": 100,
    "pitch": 60
  },
  {
    "clipIndex": 514,
    "trackId": "22",
    "clipName": null,
    "beat": 363,
    "relBeat": 15,
    "duration": 0.25,
    "velocity": 100,
    "pitch": 60
  },
  {
    "clipIndex": 515,
    "trackId": "22",
    "clipName": null,
    "beat": 363,
    "relBeat": 13,
    "duration": 0.25,
    "velocity": 100,
    "pitch": 60
  },
  {
    "clipIndex": 517,
    "trackId": "22",
    "clipName": null,
    "beat": 363,
    "relBeat": 9,
    "duration": 0.25,
    "velocity": 100,
    "pitch": 60
  },
  {
    "clipIndex": 338,
    "trackId": "55",
    "clipName": null,
    "beat": 363.25,
    "relBeat": 163.25,
    "duration": 0.25,
    "velocity": 100,
    "pitch": 60
  },
  {
    "clipIndex": 495,
    "trackId": "22",
    "clipName": null,
    "beat": 363.25,
    "relBeat": 59.25,
    "duration": 0.25,
    "velocity": 100,
    "pitch": 60
  },
  {
    "clipIndex": 506,
    "trackId": "22",
    "clipName": null,
    "beat": 363.25,
    "relBeat": 31.25,
    "duration": 0.25,
    "velocity": 100,
    "pitch": 60
  },
  {
    "clipIndex": 507,
    "trackId": "22",
    "clipName": null,
    "beat": 363.25,
    "relBeat": 29.25,
    "duration": 0.25,
    "velocity": 100,
    "pitch": 60
  },
  {
    "clipIndex": 508,
    "trackId": "22",
    "clipName": null,
    "beat": 363.25,
    "relBeat": 27.25,
    "duration": 0.25,
    "velocity": 100,
    "pitch": 60
  },
  {
    "clipIndex": 509,
    "trackId": "22",
    "clipName": null,
    "beat": 363.25,
    "relBeat": 25.25,
    "duration": 0.25,
    "velocity": 100,
    "pitch": 60
  },
  {
    "clipIndex": 511,
    "trackId": "22",
    "clipName": null,
    "beat": 363.25,
    "relBeat": 21.25,
    "duration": 0.25,
    "velocity": 100,
    "pitch": 60
  },
  {
    "clipIndex": 512,
    "trackId": "22",
    "clipName": null,
    "beat": 363.25,
    "relBeat": 19.25,
    "duration": 0.25,
    "velocity": 100,
    "pitch": 60
  },
  {
    "clipIndex": 513,
    "trackId": "22",
    "clipName": null,
    "beat": 363.25,
    "relBeat": 17.25,
    "duration": 0.25,
    "velocity": 100,
    "pitch": 60
  },
  {
    "clipIndex": 514,
    "trackId": "22",
    "clipName": null,
    "beat": 363.25,
    "relBeat": 15.25,
    "duration": 0.25,
    "velocity": 100,
    "pitch": 60
  },
  {
    "clipIndex": 515,
    "trackId": "22",
    "clipName": null,
    "beat": 363.25,
    "relBeat": 13.25,
    "duration": 0.25,
    "velocity": 100,
    "pitch": 60
  },
  {
    "clipIndex": 517,
    "trackId": "22",
    "clipName": null,
    "beat": 363.25,
    "relBeat": 9.25,
    "duration": 0.25,
    "velocity": 100,
    "pitch": 60
  },
  {
    "clipIndex": 343,
    "trackId": "55",
    "clipName": null,
    "beat": 363.5,
    "relBeat": 123.5,
    "duration": 0.25000026015651017,
    "velocity": 100,
    "pitch": 60
  },
  {
    "clipIndex": 495,
    "trackId": "22",
    "clipName": null,
    "beat": 363.5,
    "relBeat": 59.5,
    "duration": 0.25,
    "velocity": 100,
    "pitch": 60
  },
  {
    "clipIndex": 506,
    "trackId": "22",
    "clipName": null,
    "beat": 363.5,
    "relBeat": 31.5,
    "duration": 0.25,
    "velocity": 100,
    "pitch": 60
  },
  {
    "clipIndex": 507,
    "trackId": "22",
    "clipName": null,
    "beat": 363.5,
    "relBeat": 29.5,
    "duration": 0.25,
    "velocity": 100,
    "pitch": 60
  },
  {
    "clipIndex": 508,
    "trackId": "22",
    "clipName": null,
    "beat": 363.5,
    "relBeat": 27.5,
    "duration": 0.25,
    "velocity": 100,
    "pitch": 60
  },
  {
    "clipIndex": 509,
    "trackId": "22",
    "clipName": null,
    "beat": 363.5,
    "relBeat": 25.5,
    "duration": 0.25,
    "velocity": 100,
    "pitch": 60
  },
  {
    "clipIndex": 512,
    "trackId": "22",
    "clipName": null,
    "beat": 363.5,
    "relBeat": 19.5,
    "duration": 0.25,
    "velocity": 100,
    "pitch": 60
  },
  {
    "clipIndex": 513,
    "trackId": "22",
    "clipName": null,
    "beat": 363.5,
    "relBeat": 17.5,
    "duration": 0.25,
    "velocity": 100,
    "pitch": 60
  },
  {
    "clipIndex": 514,
    "trackId": "22",
    "clipName": null,
    "beat": 363.5,
    "relBeat": 15.5,
    "duration": 0.25,
    "velocity": 100,
    "pitch": 60
  },
  {
    "clipIndex": 515,
    "trackId": "22",
    "clipName": null,
    "beat": 363.5,
    "relBeat": 13.5,
    "duration": 0.25,
    "velocity": 100,
    "pitch": 60
  },
  {
    "clipIndex": 517,
    "trackId": "22",
    "clipName": null,
    "beat": 363.5,
    "relBeat": 9.5,
    "duration": 0.25,
    "velocity": 100,
    "pitch": 60
  },
  {
    "clipIndex": 338,
    "trackId": "55",
    "clipName": null,
    "beat": 363.75,
    "relBeat": 163.75,
    "duration": 0.25,
    "velocity": 100,
    "pitch": 60
  },
  {
    "clipIndex": 495,
    "trackId": "22",
    "clipName": null,
    "beat": 363.75,
    "relBeat": 59.75,
    "duration": 0.25,
    "velocity": 100,
    "pitch": 60
  },
  {
    "clipIndex": 506,
    "trackId": "22",
    "clipName": null,
    "beat": 363.75,
    "relBeat": 31.75,
    "duration": 0.25,
    "velocity": 100,
    "pitch": 60
  },
  {
    "clipIndex": 507,
    "trackId": "22",
    "clipName": null,
    "beat": 363.75,
    "relBeat": 29.75,
    "duration": 0.25,
    "velocity": 100,
    "pitch": 60
  },
  {
    "clipIndex": 508,
    "trackId": "22",
    "clipName": null,
    "beat": 363.75,
    "relBeat": 27.75,
    "duration": 0.25,
    "velocity": 100,
    "pitch": 60
  },
  {
    "clipIndex": 509,
    "trackId": "22",
    "clipName": null,
    "beat": 363.75,
    "relBeat": 25.75,
    "duration": 0.25,
    "velocity": 100,
    "pitch": 60
  },
  {
    "clipIndex": 512,
    "trackId": "22",
    "clipName": null,
    "beat": 363.75,
    "relBeat": 19.75,
    "duration": 0.25,
    "velocity": 100,
    "pitch": 60
  },
  {
    "clipIndex": 513,
    "trackId": "22",
    "clipName": null,
    "beat": 363.75,
    "relBeat": 17.75,
    "duration": 0.25,
    "velocity": 100,
    "pitch": 60
  },
  {
    "clipIndex": 514,
    "trackId": "22",
    "clipName": null,
    "beat": 363.75,
    "relBeat": 15.75,
    "duration": 0.25,
    "velocity": 100,
    "pitch": 60
  },
  {
    "clipIndex": 515,
    "trackId": "22",
    "clipName": null,
    "beat": 363.75,
    "relBeat": 13.75,
    "duration": 0.25,
    "velocity": 100,
    "pitch": 60
  },
  {
    "clipIndex": 517,
    "trackId": "22",
    "clipName": null,
    "beat": 363.75,
    "relBeat": 9.75,
    "duration": 0.25,
    "velocity": 100,
    "pitch": 60
  },
  {
    "clipIndex": 495,
    "trackId": "22",
    "clipName": null,
    "beat": 364,
    "relBeat": 60,
    "duration": 0.25,
    "velocity": 100,
    "pitch": 60
  },
  {
    "clipIndex": 507,
    "trackId": "22",
    "clipName": null,
    "beat": 364,
    "relBeat": 30,
    "duration": 0.25,
    "velocity": 100,
    "pitch": 60
  },
  {
    "clipIndex": 508,
    "trackId": "22",
    "clipName": null,
    "beat": 364,
    "relBeat": 28,
    "duration": 0.25,
    "velocity": 100,
    "pitch": 60
  },
  {
    "clipIndex": 509,
    "trackId": "22",
    "clipName": null,
    "beat": 364,
    "relBeat": 26,
    "duration": 0.25,
    "velocity": 100,
    "pitch": 60
  },
  {
    "clipIndex": 510,
    "trackId": "22",
    "clipName": null,
    "beat": 364,
    "relBeat": 24,
    "duration": 0.25,
    "velocity": 100,
    "pitch": 60
  },
  {
    "clipIndex": 512,
    "trackId": "22",
    "clipName": null,
    "beat": 364,
    "relBeat": 20,
    "duration": 0.25,
    "velocity": 100,
    "pitch": 60
  },
  {
    "clipIndex": 513,
    "trackId": "22",
    "clipName": null,
    "beat": 364,
    "relBeat": 18,
    "duration": 0.25,
    "velocity": 100,
    "pitch": 60
  },
  {
    "clipIndex": 514,
    "trackId": "22",
    "clipName": null,
    "beat": 364,
    "relBeat": 16,
    "duration": 0.25,
    "velocity": 100,
    "pitch": 60
  },
  {
    "clipIndex": 515,
    "trackId": "22",
    "clipName": null,
    "beat": 364,
    "relBeat": 14,
    "duration": 0.25,
    "velocity": 100,
    "pitch": 60
  },
  {
    "clipIndex": 516,
    "trackId": "22",
    "clipName": null,
    "beat": 364,
    "relBeat": 12,
    "duration": 0.25,
    "velocity": 100,
    "pitch": 60
  },
  {
    "clipIndex": 517,
    "trackId": "22",
    "clipName": null,
    "beat": 364,
    "relBeat": 10,
    "duration": 0.25,
    "velocity": 100,
    "pitch": 60
  },
  {
    "clipIndex": 338,
    "trackId": "55",
    "clipName": null,
    "beat": 364.25,
    "relBeat": 164.25,
    "duration": 0.25,
    "velocity": 100,
    "pitch": 60
  },
  {
    "clipIndex": 495,
    "trackId": "22",
    "clipName": null,
    "beat": 364.25,
    "relBeat": 60.25,
    "duration": 0.25,
    "velocity": 100,
    "pitch": 60
  },
  {
    "clipIndex": 507,
    "trackId": "22",
    "clipName": null,
    "beat": 364.25,
    "relBeat": 30.25,
    "duration": 0.25,
    "velocity": 100,
    "pitch": 60
  },
  {
    "clipIndex": 508,
    "trackId": "22",
    "clipName": null,
    "beat": 364.25,
    "relBeat": 28.25,
    "duration": 0.25,
    "velocity": 100,
    "pitch": 60
  },
  {
    "clipIndex": 509,
    "trackId": "22",
    "clipName": null,
    "beat": 364.25,
    "relBeat": 26.25,
    "duration": 0.25,
    "velocity": 100,
    "pitch": 60
  },
  {
    "clipIndex": 510,
    "trackId": "22",
    "clipName": null,
    "beat": 364.25,
    "relBeat": 24.25,
    "duration": 0.25,
    "velocity": 100,
    "pitch": 60
  },
  {
    "clipIndex": 512,
    "trackId": "22",
    "clipName": null,
    "beat": 364.25,
    "relBeat": 20.25,
    "duration": 0.25,
    "velocity": 100,
    "pitch": 60
  },
  {
    "clipIndex": 513,
    "trackId": "22",
    "clipName": null,
    "beat": 364.25,
    "relBeat": 18.25,
    "duration": 0.25,
    "velocity": 100,
    "pitch": 60
  },
  {
    "clipIndex": 514,
    "trackId": "22",
    "clipName": null,
    "beat": 364.25,
    "relBeat": 16.25,
    "duration": 0.25,
    "velocity": 100,
    "pitch": 60
  },
  {
    "clipIndex": 515,
    "trackId": "22",
    "clipName": null,
    "beat": 364.25,
    "relBeat": 14.25,
    "duration": 0.25,
    "velocity": 100,
    "pitch": 60
  },
  {
    "clipIndex": 516,
    "trackId": "22",
    "clipName": null,
    "beat": 364.25,
    "relBeat": 12.25,
    "duration": 0.25,
    "velocity": 100,
    "pitch": 60
  },
  {
    "clipIndex": 507,
    "trackId": "22",
    "clipName": null,
    "beat": 364.5,
    "relBeat": 30.5,
    "duration": 0.25,
    "velocity": 100,
    "pitch": 60
  },
  {
    "clipIndex": 508,
    "trackId": "22",
    "clipName": null,
    "beat": 364.5,
    "relBeat": 28.5,
    "duration": 0.25,
    "velocity": 100,
    "pitch": 60
  },
  {
    "clipIndex": 509,
    "trackId": "22",
    "clipName": null,
    "beat": 364.5,
    "relBeat": 26.5,
    "duration": 0.25,
    "velocity": 100,
    "pitch": 60
  },
  {
    "clipIndex": 510,
    "trackId": "22",
    "clipName": null,
    "beat": 364.5,
    "relBeat": 24.5,
    "duration": 0.25,
    "velocity": 100,
    "pitch": 60
  },
  {
    "clipIndex": 512,
    "trackId": "22",
    "clipName": null,
    "beat": 364.5,
    "relBeat": 20.5,
    "duration": 0.25,
    "velocity": 100,
    "pitch": 60
  },
  {
    "clipIndex": 513,
    "trackId": "22",
    "clipName": null,
    "beat": 364.5,
    "relBeat": 18.5,
    "duration": 0.25,
    "velocity": 100,
    "pitch": 60
  },
  {
    "clipIndex": 514,
    "trackId": "22",
    "clipName": null,
    "beat": 364.5,
    "relBeat": 16.5,
    "duration": 0.25,
    "velocity": 100,
    "pitch": 60
  },
  {
    "clipIndex": 515,
    "trackId": "22",
    "clipName": null,
    "beat": 364.5,
    "relBeat": 14.5,
    "duration": 0.25,
    "velocity": 100,
    "pitch": 60
  },
  {
    "clipIndex": 516,
    "trackId": "22",
    "clipName": null,
    "beat": 364.5,
    "relBeat": 12.5,
    "duration": 0.25,
    "velocity": 100,
    "pitch": 60
  },
  {
    "clipIndex": 338,
    "trackId": "55",
    "clipName": null,
    "beat": 364.75,
    "relBeat": 164.75,
    "duration": 0.25000026015651017,
    "velocity": 100,
    "pitch": 60
  },
  {
    "clipIndex": 507,
    "trackId": "22",
    "clipName": null,
    "beat": 364.75,
    "relBeat": 30.75,
    "duration": 0.25,
    "velocity": 100,
    "pitch": 60
  },
  {
    "clipIndex": 508,
    "trackId": "22",
    "clipName": null,
    "beat": 364.75,
    "relBeat": 28.75,
    "duration": 0.25,
    "velocity": 100,
    "pitch": 60
  },
  {
    "clipIndex": 509,
    "trackId": "22",
    "clipName": null,
    "beat": 364.75,
    "relBeat": 26.75,
    "duration": 0.25,
    "velocity": 100,
    "pitch": 60
  },
  {
    "clipIndex": 510,
    "trackId": "22",
    "clipName": null,
    "beat": 364.75,
    "relBeat": 24.75,
    "duration": 0.25,
    "velocity": 100,
    "pitch": 60
  },
  {
    "clipIndex": 512,
    "trackId": "22",
    "clipName": null,
    "beat": 364.75,
    "relBeat": 20.75,
    "duration": 0.25,
    "velocity": 100,
    "pitch": 60
  },
  {
    "clipIndex": 513,
    "trackId": "22",
    "clipName": null,
    "beat": 364.75,
    "relBeat": 18.75,
    "duration": 0.25,
    "velocity": 100,
    "pitch": 60
  },
  {
    "clipIndex": 514,
    "trackId": "22",
    "clipName": null,
    "beat": 364.75,
    "relBeat": 16.75,
    "duration": 0.25,
    "velocity": 100,
    "pitch": 60
  },
  {
    "clipIndex": 515,
    "trackId": "22",
    "clipName": null,
    "beat": 364.75,
    "relBeat": 14.75,
    "duration": 0.25,
    "velocity": 100,
    "pitch": 60
  },
  {
    "clipIndex": 516,
    "trackId": "22",
    "clipName": null,
    "beat": 364.75,
    "relBeat": 12.75,
    "duration": 0.25,
    "velocity": 100,
    "pitch": 60
  },
  {
    "clipIndex": 353,
    "trackId": "66",
    "clipName": null,
    "beat": 365,
    "relBeat": 365,
    "duration": 0.25000026015651017,
    "velocity": 100,
    "pitch": 72
  },
  {
    "clipIndex": 495,
    "trackId": "22",
    "clipName": null,
    "beat": 365,
    "relBeat": 61,
    "duration": 0.25,
    "velocity": 100,
    "pitch": 60
  },
  {
    "clipIndex": 507,
    "trackId": "22",
    "clipName": null,
    "beat": 365,
    "relBeat": 31,
    "duration": 0.25,
    "velocity": 100,
    "pitch": 60
  },
  {
    "clipIndex": 508,
    "trackId": "22",
    "clipName": null,
    "beat": 365,
    "relBeat": 29,
    "duration": 0.25,
    "velocity": 100,
    "pitch": 60
  },
  {
    "clipIndex": 509,
    "trackId": "22",
    "clipName": null,
    "beat": 365,
    "relBeat": 27,
    "duration": 0.25,
    "velocity": 100,
    "pitch": 60
  },
  {
    "clipIndex": 510,
    "trackId": "22",
    "clipName": null,
    "beat": 365,
    "relBeat": 25,
    "duration": 0.25,
    "velocity": 100,
    "pitch": 60
  },
  {
    "clipIndex": 512,
    "trackId": "22",
    "clipName": null,
    "beat": 365,
    "relBeat": 21,
    "duration": 0.25,
    "velocity": 100,
    "pitch": 60
  },
  {
    "clipIndex": 513,
    "trackId": "22",
    "clipName": null,
    "beat": 365,
    "relBeat": 19,
    "duration": 0.25,
    "velocity": 100,
    "pitch": 60
  },
  {
    "clipIndex": 514,
    "trackId": "22",
    "clipName": null,
    "beat": 365,
    "relBeat": 17,
    "duration": 0.25,
    "velocity": 100,
    "pitch": 60
  },
  {
    "clipIndex": 515,
    "trackId": "22",
    "clipName": null,
    "beat": 365,
    "relBeat": 15,
    "duration": 0.25,
    "velocity": 100,
    "pitch": 60
  },
  {
    "clipIndex": 516,
    "trackId": "22",
    "clipName": null,
    "beat": 365,
    "relBeat": 13,
    "duration": 0.25,
    "velocity": 100,
    "pitch": 60
  },
  {
    "clipIndex": 518,
    "trackId": "22",
    "clipName": null,
    "beat": 365,
    "relBeat": 9,
    "duration": 0.25,
    "velocity": 100,
    "pitch": 60
  },
  {
    "clipIndex": 495,
    "trackId": "22",
    "clipName": null,
    "beat": 365.25,
    "relBeat": 61.25,
    "duration": 0.25,
    "velocity": 100,
    "pitch": 60
  },
  {
    "clipIndex": 507,
    "trackId": "22",
    "clipName": null,
    "beat": 365.25,
    "relBeat": 31.25,
    "duration": 0.25,
    "velocity": 100,
    "pitch": 60
  },
  {
    "clipIndex": 508,
    "trackId": "22",
    "clipName": null,
    "beat": 365.25,
    "relBeat": 29.25,
    "duration": 0.25,
    "velocity": 100,
    "pitch": 60
  },
  {
    "clipIndex": 509,
    "trackId": "22",
    "clipName": null,
    "beat": 365.25,
    "relBeat": 27.25,
    "duration": 0.25,
    "velocity": 100,
    "pitch": 60
  },
  {
    "clipIndex": 510,
    "trackId": "22",
    "clipName": null,
    "beat": 365.25,
    "relBeat": 25.25,
    "duration": 0.25,
    "velocity": 100,
    "pitch": 60
  },
  {
    "clipIndex": 512,
    "trackId": "22",
    "clipName": null,
    "beat": 365.25,
    "relBeat": 21.25,
    "duration": 0.25,
    "velocity": 100,
    "pitch": 60
  },
  {
    "clipIndex": 513,
    "trackId": "22",
    "clipName": null,
    "beat": 365.25,
    "relBeat": 19.25,
    "duration": 0.25,
    "velocity": 100,
    "pitch": 60
  },
  {
    "clipIndex": 514,
    "trackId": "22",
    "clipName": null,
    "beat": 365.25,
    "relBeat": 17.25,
    "duration": 0.25,
    "velocity": 100,
    "pitch": 60
  },
  {
    "clipIndex": 515,
    "trackId": "22",
    "clipName": null,
    "beat": 365.25,
    "relBeat": 15.25,
    "duration": 0.25,
    "velocity": 100,
    "pitch": 60
  },
  {
    "clipIndex": 516,
    "trackId": "22",
    "clipName": null,
    "beat": 365.25,
    "relBeat": 13.25,
    "duration": 0.25,
    "velocity": 100,
    "pitch": 60
  },
  {
    "clipIndex": 518,
    "trackId": "22",
    "clipName": null,
    "beat": 365.25,
    "relBeat": 9.25,
    "duration": 0.25,
    "velocity": 100,
    "pitch": 60
  },
  {
    "clipIndex": 495,
    "trackId": "22",
    "clipName": null,
    "beat": 365.5,
    "relBeat": 61.5,
    "duration": 0.25,
    "velocity": 100,
    "pitch": 60
  },
  {
    "clipIndex": 507,
    "trackId": "22",
    "clipName": null,
    "beat": 365.5,
    "relBeat": 31.5,
    "duration": 0.25,
    "velocity": 100,
    "pitch": 60
  },
  {
    "clipIndex": 508,
    "trackId": "22",
    "clipName": null,
    "beat": 365.5,
    "relBeat": 29.5,
    "duration": 0.25,
    "velocity": 100,
    "pitch": 60
  },
  {
    "clipIndex": 509,
    "trackId": "22",
    "clipName": null,
    "beat": 365.5,
    "relBeat": 27.5,
    "duration": 0.25,
    "velocity": 100,
    "pitch": 60
  },
  {
    "clipIndex": 510,
    "trackId": "22",
    "clipName": null,
    "beat": 365.5,
    "relBeat": 25.5,
    "duration": 0.25,
    "velocity": 100,
    "pitch": 60
  },
  {
    "clipIndex": 513,
    "trackId": "22",
    "clipName": null,
    "beat": 365.5,
    "relBeat": 19.5,
    "duration": 0.25,
    "velocity": 100,
    "pitch": 60
  },
  {
    "clipIndex": 514,
    "trackId": "22",
    "clipName": null,
    "beat": 365.5,
    "relBeat": 17.5,
    "duration": 0.25,
    "velocity": 100,
    "pitch": 60
  },
  {
    "clipIndex": 515,
    "trackId": "22",
    "clipName": null,
    "beat": 365.5,
    "relBeat": 15.5,
    "duration": 0.25,
    "velocity": 100,
    "pitch": 60
  },
  {
    "clipIndex": 516,
    "trackId": "22",
    "clipName": null,
    "beat": 365.5,
    "relBeat": 13.5,
    "duration": 0.25,
    "velocity": 100,
    "pitch": 60
  },
  {
    "clipIndex": 518,
    "trackId": "22",
    "clipName": null,
    "beat": 365.5,
    "relBeat": 9.5,
    "duration": 0.25,
    "velocity": 100,
    "pitch": 60
  },
  {
    "clipIndex": 353,
    "trackId": "66",
    "clipName": null,
    "beat": 365.75,
    "relBeat": 365.75,
    "duration": 0.25000026015651017,
    "velocity": 100,
    "pitch": 72
  },
  {
    "clipIndex": 495,
    "trackId": "22",
    "clipName": null,
    "beat": 365.75,
    "relBeat": 61.75,
    "duration": 0.25,
    "velocity": 100,
    "pitch": 60
  },
  {
    "clipIndex": 507,
    "trackId": "22",
    "clipName": null,
    "beat": 365.75,
    "relBeat": 31.75,
    "duration": 0.25,
    "velocity": 100,
    "pitch": 60
  },
  {
    "clipIndex": 508,
    "trackId": "22",
    "clipName": null,
    "beat": 365.75,
    "relBeat": 29.75,
    "duration": 0.25,
    "velocity": 100,
    "pitch": 60
  },
  {
    "clipIndex": 509,
    "trackId": "22",
    "clipName": null,
    "beat": 365.75,
    "relBeat": 27.75,
    "duration": 0.25,
    "velocity": 100,
    "pitch": 60
  },
  {
    "clipIndex": 510,
    "trackId": "22",
    "clipName": null,
    "beat": 365.75,
    "relBeat": 25.75,
    "duration": 0.25,
    "velocity": 100,
    "pitch": 60
  },
  {
    "clipIndex": 513,
    "trackId": "22",
    "clipName": null,
    "beat": 365.75,
    "relBeat": 19.75,
    "duration": 0.25,
    "velocity": 100,
    "pitch": 60
  },
  {
    "clipIndex": 514,
    "trackId": "22",
    "clipName": null,
    "beat": 365.75,
    "relBeat": 17.75,
    "duration": 0.25,
    "velocity": 100,
    "pitch": 60
  },
  {
    "clipIndex": 515,
    "trackId": "22",
    "clipName": null,
    "beat": 365.75,
    "relBeat": 15.75,
    "duration": 0.25,
    "velocity": 100,
    "pitch": 60
  },
  {
    "clipIndex": 516,
    "trackId": "22",
    "clipName": null,
    "beat": 365.75,
    "relBeat": 13.75,
    "duration": 0.25,
    "velocity": 100,
    "pitch": 60
  },
  {
    "clipIndex": 518,
    "trackId": "22",
    "clipName": null,
    "beat": 365.75,
    "relBeat": 9.75,
    "duration": 0.25,
    "velocity": 100,
    "pitch": 60
  },
  {
    "clipIndex": 508,
    "trackId": "22",
    "clipName": null,
    "beat": 366,
    "relBeat": 30,
    "duration": 0.25,
    "velocity": 100,
    "pitch": 60
  },
  {
    "clipIndex": 509,
    "trackId": "22",
    "clipName": null,
    "beat": 366,
    "relBeat": 28,
    "duration": 0.25,
    "velocity": 100,
    "pitch": 60
  },
  {
    "clipIndex": 510,
    "trackId": "22",
    "clipName": null,
    "beat": 366,
    "relBeat": 26,
    "duration": 0.25,
    "velocity": 100,
    "pitch": 60
  },
  {
    "clipIndex": 511,
    "trackId": "22",
    "clipName": null,
    "beat": 366,
    "relBeat": 24,
    "duration": 0.25,
    "velocity": 100,
    "pitch": 60
  },
  {
    "clipIndex": 513,
    "trackId": "22",
    "clipName": null,
    "beat": 366,
    "relBeat": 20,
    "duration": 0.25,
    "velocity": 100,
    "pitch": 60
  },
  {
    "clipIndex": 514,
    "trackId": "22",
    "clipName": null,
    "beat": 366,
    "relBeat": 18,
    "duration": 0.25,
    "velocity": 100,
    "pitch": 60
  },
  {
    "clipIndex": 515,
    "trackId": "22",
    "clipName": null,
    "beat": 366,
    "relBeat": 16,
    "duration": 0.25,
    "velocity": 100,
    "pitch": 60
  },
  {
    "clipIndex": 516,
    "trackId": "22",
    "clipName": null,
    "beat": 366,
    "relBeat": 14,
    "duration": 0.25,
    "velocity": 100,
    "pitch": 60
  },
  {
    "clipIndex": 517,
    "trackId": "22",
    "clipName": null,
    "beat": 366,
    "relBeat": 12,
    "duration": 0.25,
    "velocity": 100,
    "pitch": 60
  },
  {
    "clipIndex": 518,
    "trackId": "22",
    "clipName": null,
    "beat": 366,
    "relBeat": 10,
    "duration": 0.25,
    "velocity": 100,
    "pitch": 60
  },
  {
    "clipIndex": 508,
    "trackId": "22",
    "clipName": null,
    "beat": 366.25,
    "relBeat": 30.25,
    "duration": 0.25,
    "velocity": 100,
    "pitch": 60
  },
  {
    "clipIndex": 509,
    "trackId": "22",
    "clipName": null,
    "beat": 366.25,
    "relBeat": 28.25,
    "duration": 0.25,
    "velocity": 100,
    "pitch": 60
  },
  {
    "clipIndex": 510,
    "trackId": "22",
    "clipName": null,
    "beat": 366.25,
    "relBeat": 26.25,
    "duration": 0.25,
    "velocity": 100,
    "pitch": 60
  },
  {
    "clipIndex": 511,
    "trackId": "22",
    "clipName": null,
    "beat": 366.25,
    "relBeat": 24.25,
    "duration": 0.25,
    "velocity": 100,
    "pitch": 60
  },
  {
    "clipIndex": 513,
    "trackId": "22",
    "clipName": null,
    "beat": 366.25,
    "relBeat": 20.25,
    "duration": 0.25,
    "velocity": 100,
    "pitch": 60
  },
  {
    "clipIndex": 514,
    "trackId": "22",
    "clipName": null,
    "beat": 366.25,
    "relBeat": 18.25,
    "duration": 0.25,
    "velocity": 100,
    "pitch": 60
  },
  {
    "clipIndex": 515,
    "trackId": "22",
    "clipName": null,
    "beat": 366.25,
    "relBeat": 16.25,
    "duration": 0.25,
    "velocity": 100,
    "pitch": 60
  },
  {
    "clipIndex": 516,
    "trackId": "22",
    "clipName": null,
    "beat": 366.25,
    "relBeat": 14.25,
    "duration": 0.25,
    "velocity": 100,
    "pitch": 60
  },
  {
    "clipIndex": 517,
    "trackId": "22",
    "clipName": null,
    "beat": 366.25,
    "relBeat": 12.25,
    "duration": 0.25,
    "velocity": 100,
    "pitch": 60
  },
  {
    "clipIndex": 353,
    "trackId": "66",
    "clipName": null,
    "beat": 366.5,
    "relBeat": 366.5,
    "duration": 0.25000026015651017,
    "velocity": 100,
    "pitch": 72
  },
  {
    "clipIndex": 495,
    "trackId": "22",
    "clipName": null,
    "beat": 366.5,
    "relBeat": 62.5,
    "duration": 0.25,
    "velocity": 100,
    "pitch": 60
  },
  {
    "clipIndex": 508,
    "trackId": "22",
    "clipName": null,
    "beat": 366.5,
    "relBeat": 30.5,
    "duration": 0.25,
    "velocity": 100,
    "pitch": 60
  },
  {
    "clipIndex": 509,
    "trackId": "22",
    "clipName": null,
    "beat": 366.5,
    "relBeat": 28.5,
    "duration": 0.25,
    "velocity": 100,
    "pitch": 60
  },
  {
    "clipIndex": 510,
    "trackId": "22",
    "clipName": null,
    "beat": 366.5,
    "relBeat": 26.5,
    "duration": 0.25,
    "velocity": 100,
    "pitch": 60
  },
  {
    "clipIndex": 511,
    "trackId": "22",
    "clipName": null,
    "beat": 366.5,
    "relBeat": 24.5,
    "duration": 0.25,
    "velocity": 100,
    "pitch": 60
  },
  {
    "clipIndex": 513,
    "trackId": "22",
    "clipName": null,
    "beat": 366.5,
    "relBeat": 20.5,
    "duration": 0.25,
    "velocity": 100,
    "pitch": 60
  },
  {
    "clipIndex": 514,
    "trackId": "22",
    "clipName": null,
    "beat": 366.5,
    "relBeat": 18.5,
    "duration": 0.25,
    "velocity": 100,
    "pitch": 60
  },
  {
    "clipIndex": 515,
    "trackId": "22",
    "clipName": null,
    "beat": 366.5,
    "relBeat": 16.5,
    "duration": 0.25,
    "velocity": 100,
    "pitch": 60
  },
  {
    "clipIndex": 516,
    "trackId": "22",
    "clipName": null,
    "beat": 366.5,
    "relBeat": 14.5,
    "duration": 0.25,
    "velocity": 100,
    "pitch": 60
  },
  {
    "clipIndex": 517,
    "trackId": "22",
    "clipName": null,
    "beat": 366.5,
    "relBeat": 12.5,
    "duration": 0.25,
    "velocity": 100,
    "pitch": 60
  },
  {
    "clipIndex": 495,
    "trackId": "22",
    "clipName": null,
    "beat": 366.75,
    "relBeat": 62.75,
    "duration": 0.25,
    "velocity": 100,
    "pitch": 60
  },
  {
    "clipIndex": 508,
    "trackId": "22",
    "clipName": null,
    "beat": 366.75,
    "relBeat": 30.75,
    "duration": 0.25,
    "velocity": 100,
    "pitch": 60
  },
  {
    "clipIndex": 509,
    "trackId": "22",
    "clipName": null,
    "beat": 366.75,
    "relBeat": 28.75,
    "duration": 0.25,
    "velocity": 100,
    "pitch": 60
  },
  {
    "clipIndex": 510,
    "trackId": "22",
    "clipName": null,
    "beat": 366.75,
    "relBeat": 26.75,
    "duration": 0.25,
    "velocity": 100,
    "pitch": 60
  },
  {
    "clipIndex": 511,
    "trackId": "22",
    "clipName": null,
    "beat": 366.75,
    "relBeat": 24.75,
    "duration": 0.25,
    "velocity": 100,
    "pitch": 60
  },
  {
    "clipIndex": 513,
    "trackId": "22",
    "clipName": null,
    "beat": 366.75,
    "relBeat": 20.75,
    "duration": 0.25,
    "velocity": 100,
    "pitch": 60
  },
  {
    "clipIndex": 514,
    "trackId": "22",
    "clipName": null,
    "beat": 366.75,
    "relBeat": 18.75,
    "duration": 0.25,
    "velocity": 100,
    "pitch": 60
  },
  {
    "clipIndex": 515,
    "trackId": "22",
    "clipName": null,
    "beat": 366.75,
    "relBeat": 16.75,
    "duration": 0.25,
    "velocity": 100,
    "pitch": 60
  },
  {
    "clipIndex": 516,
    "trackId": "22",
    "clipName": null,
    "beat": 366.75,
    "relBeat": 14.75,
    "duration": 0.25,
    "velocity": 100,
    "pitch": 60
  },
  {
    "clipIndex": 517,
    "trackId": "22",
    "clipName": null,
    "beat": 366.75,
    "relBeat": 12.75,
    "duration": 0.25,
    "velocity": 100,
    "pitch": 60
  },
  {
    "clipIndex": 495,
    "trackId": "22",
    "clipName": null,
    "beat": 367,
    "relBeat": 63,
    "duration": 0.25,
    "velocity": 100,
    "pitch": 60
  },
  {
    "clipIndex": 508,
    "trackId": "22",
    "clipName": null,
    "beat": 367,
    "relBeat": 31,
    "duration": 0.25,
    "velocity": 100,
    "pitch": 60
  },
  {
    "clipIndex": 509,
    "trackId": "22",
    "clipName": null,
    "beat": 367,
    "relBeat": 29,
    "duration": 0.25,
    "velocity": 100,
    "pitch": 60
  },
  {
    "clipIndex": 510,
    "trackId": "22",
    "clipName": null,
    "beat": 367,
    "relBeat": 27,
    "duration": 0.25,
    "velocity": 100,
    "pitch": 60
  },
  {
    "clipIndex": 511,
    "trackId": "22",
    "clipName": null,
    "beat": 367,
    "relBeat": 25,
    "duration": 0.25,
    "velocity": 100,
    "pitch": 60
  },
  {
    "clipIndex": 513,
    "trackId": "22",
    "clipName": null,
    "beat": 367,
    "relBeat": 21,
    "duration": 0.25,
    "velocity": 100,
    "pitch": 60
  },
  {
    "clipIndex": 514,
    "trackId": "22",
    "clipName": null,
    "beat": 367,
    "relBeat": 19,
    "duration": 0.25,
    "velocity": 100,
    "pitch": 60
  },
  {
    "clipIndex": 515,
    "trackId": "22",
    "clipName": null,
    "beat": 367,
    "relBeat": 17,
    "duration": 0.25,
    "velocity": 100,
    "pitch": 60
  },
  {
    "clipIndex": 516,
    "trackId": "22",
    "clipName": null,
    "beat": 367,
    "relBeat": 15,
    "duration": 0.25,
    "velocity": 100,
    "pitch": 60
  },
  {
    "clipIndex": 517,
    "trackId": "22",
    "clipName": null,
    "beat": 367,
    "relBeat": 13,
    "duration": 0.25,
    "velocity": 100,
    "pitch": 60
  },
  {
    "clipIndex": 353,
    "trackId": "66",
    "clipName": null,
    "beat": 367.25,
    "relBeat": 367.25,
    "duration": 0.25000026015651017,
    "velocity": 100,
    "pitch": 72
  },
  {
    "clipIndex": 495,
    "trackId": "22",
    "clipName": null,
    "beat": 367.25,
    "relBeat": 63.25,
    "duration": 0.25,
    "velocity": 100,
    "pitch": 60
  },
  {
    "clipIndex": 508,
    "trackId": "22",
    "clipName": null,
    "beat": 367.25,
    "relBeat": 31.25,
    "duration": 0.25,
    "velocity": 100,
    "pitch": 60
  },
  {
    "clipIndex": 509,
    "trackId": "22",
    "clipName": null,
    "beat": 367.25,
    "relBeat": 29.25,
    "duration": 0.25,
    "velocity": 100,
    "pitch": 60
  },
  {
    "clipIndex": 510,
    "trackId": "22",
    "clipName": null,
    "beat": 367.25,
    "relBeat": 27.25,
    "duration": 0.25,
    "velocity": 100,
    "pitch": 60
  },
  {
    "clipIndex": 511,
    "trackId": "22",
    "clipName": null,
    "beat": 367.25,
    "relBeat": 25.25,
    "duration": 0.25,
    "velocity": 100,
    "pitch": 60
  },
  {
    "clipIndex": 513,
    "trackId": "22",
    "clipName": null,
    "beat": 367.25,
    "relBeat": 21.25,
    "duration": 0.25,
    "velocity": 100,
    "pitch": 60
  },
  {
    "clipIndex": 514,
    "trackId": "22",
    "clipName": null,
    "beat": 367.25,
    "relBeat": 19.25,
    "duration": 0.25,
    "velocity": 100,
    "pitch": 60
  },
  {
    "clipIndex": 515,
    "trackId": "22",
    "clipName": null,
    "beat": 367.25,
    "relBeat": 17.25,
    "duration": 0.25,
    "velocity": 100,
    "pitch": 60
  },
  {
    "clipIndex": 516,
    "trackId": "22",
    "clipName": null,
    "beat": 367.25,
    "relBeat": 15.25,
    "duration": 0.25,
    "velocity": 100,
    "pitch": 60
  },
  {
    "clipIndex": 517,
    "trackId": "22",
    "clipName": null,
    "beat": 367.25,
    "relBeat": 13.25,
    "duration": 0.25,
    "velocity": 100,
    "pitch": 60
  },
  {
    "clipIndex": 495,
    "trackId": "22",
    "clipName": null,
    "beat": 367.5,
    "relBeat": 63.5,
    "duration": 0.25,
    "velocity": 100,
    "pitch": 60
  },
  {
    "clipIndex": 508,
    "trackId": "22",
    "clipName": null,
    "beat": 367.5,
    "relBeat": 31.5,
    "duration": 0.25,
    "velocity": 100,
    "pitch": 60
  },
  {
    "clipIndex": 509,
    "trackId": "22",
    "clipName": null,
    "beat": 367.5,
    "relBeat": 29.5,
    "duration": 0.25,
    "velocity": 100,
    "pitch": 60
  },
  {
    "clipIndex": 510,
    "trackId": "22",
    "clipName": null,
    "beat": 367.5,
    "relBeat": 27.5,
    "duration": 0.25,
    "velocity": 100,
    "pitch": 60
  },
  {
    "clipIndex": 511,
    "trackId": "22",
    "clipName": null,
    "beat": 367.5,
    "relBeat": 25.5,
    "duration": 0.25,
    "velocity": 100,
    "pitch": 60
  },
  {
    "clipIndex": 514,
    "trackId": "22",
    "clipName": null,
    "beat": 367.5,
    "relBeat": 19.5,
    "duration": 0.25,
    "velocity": 100,
    "pitch": 60
  },
  {
    "clipIndex": 515,
    "trackId": "22",
    "clipName": null,
    "beat": 367.5,
    "relBeat": 17.5,
    "duration": 0.25,
    "velocity": 100,
    "pitch": 60
  },
  {
    "clipIndex": 516,
    "trackId": "22",
    "clipName": null,
    "beat": 367.5,
    "relBeat": 15.5,
    "duration": 0.25,
    "velocity": 100,
    "pitch": 60
  },
  {
    "clipIndex": 517,
    "trackId": "22",
    "clipName": null,
    "beat": 367.5,
    "relBeat": 13.5,
    "duration": 0.25,
    "velocity": 100,
    "pitch": 60
  },
  {
    "clipIndex": 353,
    "trackId": "66",
    "clipName": null,
    "beat": 367.75,
    "relBeat": 367.75,
    "duration": 0.25000026015651017,
    "velocity": 100,
    "pitch": 72
  },
  {
    "clipIndex": 495,
    "trackId": "22",
    "clipName": null,
    "beat": 367.75,
    "relBeat": 63.75,
    "duration": 0.25,
    "velocity": 100,
    "pitch": 60
  },
  {
    "clipIndex": 508,
    "trackId": "22",
    "clipName": null,
    "beat": 367.75,
    "relBeat": 31.75,
    "duration": 0.25,
    "velocity": 100,
    "pitch": 60
  },
  {
    "clipIndex": 509,
    "trackId": "22",
    "clipName": null,
    "beat": 367.75,
    "relBeat": 29.75,
    "duration": 0.25,
    "velocity": 100,
    "pitch": 60
  },
  {
    "clipIndex": 510,
    "trackId": "22",
    "clipName": null,
    "beat": 367.75,
    "relBeat": 27.75,
    "duration": 0.25,
    "velocity": 100,
    "pitch": 60
  },
  {
    "clipIndex": 511,
    "trackId": "22",
    "clipName": null,
    "beat": 367.75,
    "relBeat": 25.75,
    "duration": 0.25,
    "velocity": 100,
    "pitch": 60
  },
  {
    "clipIndex": 514,
    "trackId": "22",
    "clipName": null,
    "beat": 367.75,
    "relBeat": 19.75,
    "duration": 0.25,
    "velocity": 100,
    "pitch": 60
  },
  {
    "clipIndex": 515,
    "trackId": "22",
    "clipName": null,
    "beat": 367.75,
    "relBeat": 17.75,
    "duration": 0.25,
    "velocity": 100,
    "pitch": 60
  },
  {
    "clipIndex": 516,
    "trackId": "22",
    "clipName": null,
    "beat": 367.75,
    "relBeat": 15.75,
    "duration": 0.25,
    "velocity": 100,
    "pitch": 60
  },
  {
    "clipIndex": 517,
    "trackId": "22",
    "clipName": null,
    "beat": 367.75,
    "relBeat": 13.75,
    "duration": 0.25,
    "velocity": 100,
    "pitch": 60
  },
  {
    "clipIndex": 509,
    "trackId": "22",
    "clipName": null,
    "beat": 368,
    "relBeat": 30,
    "duration": 0.25,
    "velocity": 100,
    "pitch": 60
  },
  {
    "clipIndex": 510,
    "trackId": "22",
    "clipName": null,
    "beat": 368,
    "relBeat": 28,
    "duration": 0.25,
    "velocity": 100,
    "pitch": 60
  },
  {
    "clipIndex": 511,
    "trackId": "22",
    "clipName": null,
    "beat": 368,
    "relBeat": 26,
    "duration": 0.25,
    "velocity": 100,
    "pitch": 60
  },
  {
    "clipIndex": 512,
    "trackId": "22",
    "clipName": null,
    "beat": 368,
    "relBeat": 24,
    "duration": 0.25,
    "velocity": 100,
    "pitch": 60
  },
  {
    "clipIndex": 514,
    "trackId": "22",
    "clipName": null,
    "beat": 368,
    "relBeat": 20,
    "duration": 0.25,
    "velocity": 100,
    "pitch": 60
  },
  {
    "clipIndex": 515,
    "trackId": "22",
    "clipName": null,
    "beat": 368,
    "relBeat": 18,
    "duration": 0.25,
    "velocity": 100,
    "pitch": 60
  },
  {
    "clipIndex": 516,
    "trackId": "22",
    "clipName": null,
    "beat": 368,
    "relBeat": 16,
    "duration": 0.25,
    "velocity": 100,
    "pitch": 60
  },
  {
    "clipIndex": 517,
    "trackId": "22",
    "clipName": null,
    "beat": 368,
    "relBeat": 14,
    "duration": 0.25,
    "velocity": 100,
    "pitch": 60
  },
  {
    "clipIndex": 518,
    "trackId": "22",
    "clipName": null,
    "beat": 368,
    "relBeat": 12,
    "duration": 0.25,
    "velocity": 100,
    "pitch": 60
  },
  {
    "clipIndex": 509,
    "trackId": "22",
    "clipName": null,
    "beat": 368.25,
    "relBeat": 30.25,
    "duration": 0.25,
    "velocity": 100,
    "pitch": 60
  },
  {
    "clipIndex": 510,
    "trackId": "22",
    "clipName": null,
    "beat": 368.25,
    "relBeat": 28.25,
    "duration": 0.25,
    "velocity": 100,
    "pitch": 60
  },
  {
    "clipIndex": 511,
    "trackId": "22",
    "clipName": null,
    "beat": 368.25,
    "relBeat": 26.25,
    "duration": 0.25,
    "velocity": 100,
    "pitch": 60
  },
  {
    "clipIndex": 512,
    "trackId": "22",
    "clipName": null,
    "beat": 368.25,
    "relBeat": 24.25,
    "duration": 0.25,
    "velocity": 100,
    "pitch": 60
  },
  {
    "clipIndex": 514,
    "trackId": "22",
    "clipName": null,
    "beat": 368.25,
    "relBeat": 20.25,
    "duration": 0.25,
    "velocity": 100,
    "pitch": 60
  },
  {
    "clipIndex": 515,
    "trackId": "22",
    "clipName": null,
    "beat": 368.25,
    "relBeat": 18.25,
    "duration": 0.25,
    "velocity": 100,
    "pitch": 60
  },
  {
    "clipIndex": 516,
    "trackId": "22",
    "clipName": null,
    "beat": 368.25,
    "relBeat": 16.25,
    "duration": 0.25,
    "velocity": 100,
    "pitch": 60
  },
  {
    "clipIndex": 517,
    "trackId": "22",
    "clipName": null,
    "beat": 368.25,
    "relBeat": 14.25,
    "duration": 0.25,
    "velocity": 100,
    "pitch": 60
  },
  {
    "clipIndex": 518,
    "trackId": "22",
    "clipName": null,
    "beat": 368.25,
    "relBeat": 12.25,
    "duration": 0.25,
    "velocity": 100,
    "pitch": 60
  },
  {
    "clipIndex": 353,
    "trackId": "66",
    "clipName": null,
    "beat": 368.5,
    "relBeat": 368.5,
    "duration": 0.25000026015651017,
    "velocity": 100,
    "pitch": 72
  },
  {
    "clipIndex": 509,
    "trackId": "22",
    "clipName": null,
    "beat": 368.5,
    "relBeat": 30.5,
    "duration": 0.25,
    "velocity": 100,
    "pitch": 60
  },
  {
    "clipIndex": 510,
    "trackId": "22",
    "clipName": null,
    "beat": 368.5,
    "relBeat": 28.5,
    "duration": 0.25,
    "velocity": 100,
    "pitch": 60
  },
  {
    "clipIndex": 511,
    "trackId": "22",
    "clipName": null,
    "beat": 368.5,
    "relBeat": 26.5,
    "duration": 0.25,
    "velocity": 100,
    "pitch": 60
  },
  {
    "clipIndex": 512,
    "trackId": "22",
    "clipName": null,
    "beat": 368.5,
    "relBeat": 24.5,
    "duration": 0.25,
    "velocity": 100,
    "pitch": 60
  },
  {
    "clipIndex": 514,
    "trackId": "22",
    "clipName": null,
    "beat": 368.5,
    "relBeat": 20.5,
    "duration": 0.25,
    "velocity": 100,
    "pitch": 60
  },
  {
    "clipIndex": 515,
    "trackId": "22",
    "clipName": null,
    "beat": 368.5,
    "relBeat": 18.5,
    "duration": 0.25,
    "velocity": 100,
    "pitch": 60
  },
  {
    "clipIndex": 516,
    "trackId": "22",
    "clipName": null,
    "beat": 368.5,
    "relBeat": 16.5,
    "duration": 0.25,
    "velocity": 100,
    "pitch": 60
  },
  {
    "clipIndex": 517,
    "trackId": "22",
    "clipName": null,
    "beat": 368.5,
    "relBeat": 14.5,
    "duration": 0.25,
    "velocity": 100,
    "pitch": 60
  },
  {
    "clipIndex": 518,
    "trackId": "22",
    "clipName": null,
    "beat": 368.5,
    "relBeat": 12.5,
    "duration": 0.25,
    "velocity": 100,
    "pitch": 60
  },
  {
    "clipIndex": 509,
    "trackId": "22",
    "clipName": null,
    "beat": 368.75,
    "relBeat": 30.75,
    "duration": 0.25,
    "velocity": 100,
    "pitch": 60
  },
  {
    "clipIndex": 510,
    "trackId": "22",
    "clipName": null,
    "beat": 368.75,
    "relBeat": 28.75,
    "duration": 0.25,
    "velocity": 100,
    "pitch": 60
  },
  {
    "clipIndex": 511,
    "trackId": "22",
    "clipName": null,
    "beat": 368.75,
    "relBeat": 26.75,
    "duration": 0.25,
    "velocity": 100,
    "pitch": 60
  },
  {
    "clipIndex": 512,
    "trackId": "22",
    "clipName": null,
    "beat": 368.75,
    "relBeat": 24.75,
    "duration": 0.25,
    "velocity": 100,
    "pitch": 60
  },
  {
    "clipIndex": 514,
    "trackId": "22",
    "clipName": null,
    "beat": 368.75,
    "relBeat": 20.75,
    "duration": 0.25,
    "velocity": 100,
    "pitch": 60
  },
  {
    "clipIndex": 515,
    "trackId": "22",
    "clipName": null,
    "beat": 368.75,
    "relBeat": 18.75,
    "duration": 0.25,
    "velocity": 100,
    "pitch": 60
  },
  {
    "clipIndex": 516,
    "trackId": "22",
    "clipName": null,
    "beat": 368.75,
    "relBeat": 16.75,
    "duration": 0.25,
    "velocity": 100,
    "pitch": 60
  },
  {
    "clipIndex": 517,
    "trackId": "22",
    "clipName": null,
    "beat": 368.75,
    "relBeat": 14.75,
    "duration": 0.25,
    "velocity": 100,
    "pitch": 60
  },
  {
    "clipIndex": 518,
    "trackId": "22",
    "clipName": null,
    "beat": 368.75,
    "relBeat": 12.75,
    "duration": 0.25,
    "velocity": 100,
    "pitch": 60
  },
  {
    "clipIndex": 509,
    "trackId": "22",
    "clipName": null,
    "beat": 369,
    "relBeat": 31,
    "duration": 0.25,
    "velocity": 100,
    "pitch": 60
  },
  {
    "clipIndex": 510,
    "trackId": "22",
    "clipName": null,
    "beat": 369,
    "relBeat": 29,
    "duration": 0.25,
    "velocity": 100,
    "pitch": 60
  },
  {
    "clipIndex": 511,
    "trackId": "22",
    "clipName": null,
    "beat": 369,
    "relBeat": 27,
    "duration": 0.25,
    "velocity": 100,
    "pitch": 60
  },
  {
    "clipIndex": 512,
    "trackId": "22",
    "clipName": null,
    "beat": 369,
    "relBeat": 25,
    "duration": 0.25,
    "velocity": 100,
    "pitch": 60
  },
  {
    "clipIndex": 514,
    "trackId": "22",
    "clipName": null,
    "beat": 369,
    "relBeat": 21,
    "duration": 0.25,
    "velocity": 100,
    "pitch": 60
  },
  {
    "clipIndex": 515,
    "trackId": "22",
    "clipName": null,
    "beat": 369,
    "relBeat": 19,
    "duration": 0.25,
    "velocity": 100,
    "pitch": 60
  },
  {
    "clipIndex": 516,
    "trackId": "22",
    "clipName": null,
    "beat": 369,
    "relBeat": 17,
    "duration": 0.25,
    "velocity": 100,
    "pitch": 60
  },
  {
    "clipIndex": 517,
    "trackId": "22",
    "clipName": null,
    "beat": 369,
    "relBeat": 15,
    "duration": 0.25,
    "velocity": 100,
    "pitch": 60
  },
  {
    "clipIndex": 518,
    "trackId": "22",
    "clipName": null,
    "beat": 369,
    "relBeat": 13,
    "duration": 0.25,
    "velocity": 100,
    "pitch": 60
  },
  {
    "clipIndex": 353,
    "trackId": "66",
    "clipName": null,
    "beat": 369.25,
    "relBeat": 369.25,
    "duration": 0.25000026015651017,
    "velocity": 100,
    "pitch": 72
  },
  {
    "clipIndex": 509,
    "trackId": "22",
    "clipName": null,
    "beat": 369.25,
    "relBeat": 31.25,
    "duration": 0.25,
    "velocity": 100,
    "pitch": 60
  },
  {
    "clipIndex": 510,
    "trackId": "22",
    "clipName": null,
    "beat": 369.25,
    "relBeat": 29.25,
    "duration": 0.25,
    "velocity": 100,
    "pitch": 60
  },
  {
    "clipIndex": 511,
    "trackId": "22",
    "clipName": null,
    "beat": 369.25,
    "relBeat": 27.25,
    "duration": 0.25,
    "velocity": 100,
    "pitch": 60
  },
  {
    "clipIndex": 512,
    "trackId": "22",
    "clipName": null,
    "beat": 369.25,
    "relBeat": 25.25,
    "duration": 0.25,
    "velocity": 100,
    "pitch": 60
  },
  {
    "clipIndex": 514,
    "trackId": "22",
    "clipName": null,
    "beat": 369.25,
    "relBeat": 21.25,
    "duration": 0.25,
    "velocity": 100,
    "pitch": 60
  },
  {
    "clipIndex": 515,
    "trackId": "22",
    "clipName": null,
    "beat": 369.25,
    "relBeat": 19.25,
    "duration": 0.25,
    "velocity": 100,
    "pitch": 60
  },
  {
    "clipIndex": 516,
    "trackId": "22",
    "clipName": null,
    "beat": 369.25,
    "relBeat": 17.25,
    "duration": 0.25,
    "velocity": 100,
    "pitch": 60
  },
  {
    "clipIndex": 517,
    "trackId": "22",
    "clipName": null,
    "beat": 369.25,
    "relBeat": 15.25,
    "duration": 0.25,
    "velocity": 100,
    "pitch": 60
  },
  {
    "clipIndex": 518,
    "trackId": "22",
    "clipName": null,
    "beat": 369.25,
    "relBeat": 13.25,
    "duration": 0.25,
    "velocity": 100,
    "pitch": 60
  },
  {
    "clipIndex": 509,
    "trackId": "22",
    "clipName": null,
    "beat": 369.5,
    "relBeat": 31.5,
    "duration": 0.25,
    "velocity": 100,
    "pitch": 60
  },
  {
    "clipIndex": 510,
    "trackId": "22",
    "clipName": null,
    "beat": 369.5,
    "relBeat": 29.5,
    "duration": 0.25,
    "velocity": 100,
    "pitch": 60
  },
  {
    "clipIndex": 511,
    "trackId": "22",
    "clipName": null,
    "beat": 369.5,
    "relBeat": 27.5,
    "duration": 0.25,
    "velocity": 100,
    "pitch": 60
  },
  {
    "clipIndex": 512,
    "trackId": "22",
    "clipName": null,
    "beat": 369.5,
    "relBeat": 25.5,
    "duration": 0.25,
    "velocity": 100,
    "pitch": 60
  },
  {
    "clipIndex": 515,
    "trackId": "22",
    "clipName": null,
    "beat": 369.5,
    "relBeat": 19.5,
    "duration": 0.25,
    "velocity": 100,
    "pitch": 60
  },
  {
    "clipIndex": 516,
    "trackId": "22",
    "clipName": null,
    "beat": 369.5,
    "relBeat": 17.5,
    "duration": 0.25,
    "velocity": 100,
    "pitch": 60
  },
  {
    "clipIndex": 517,
    "trackId": "22",
    "clipName": null,
    "beat": 369.5,
    "relBeat": 15.5,
    "duration": 0.25,
    "velocity": 100,
    "pitch": 60
  },
  {
    "clipIndex": 518,
    "trackId": "22",
    "clipName": null,
    "beat": 369.5,
    "relBeat": 13.5,
    "duration": 0.25,
    "velocity": 100,
    "pitch": 60
  },
  {
    "clipIndex": 509,
    "trackId": "22",
    "clipName": null,
    "beat": 369.75,
    "relBeat": 31.75,
    "duration": 0.25,
    "velocity": 100,
    "pitch": 60
  },
  {
    "clipIndex": 510,
    "trackId": "22",
    "clipName": null,
    "beat": 369.75,
    "relBeat": 29.75,
    "duration": 0.25,
    "velocity": 100,
    "pitch": 60
  },
  {
    "clipIndex": 511,
    "trackId": "22",
    "clipName": null,
    "beat": 369.75,
    "relBeat": 27.75,
    "duration": 0.25,
    "velocity": 100,
    "pitch": 60
  },
  {
    "clipIndex": 512,
    "trackId": "22",
    "clipName": null,
    "beat": 369.75,
    "relBeat": 25.75,
    "duration": 0.25,
    "velocity": 100,
    "pitch": 60
  },
  {
    "clipIndex": 515,
    "trackId": "22",
    "clipName": null,
    "beat": 369.75,
    "relBeat": 19.75,
    "duration": 0.25,
    "velocity": 100,
    "pitch": 60
  },
  {
    "clipIndex": 516,
    "trackId": "22",
    "clipName": null,
    "beat": 369.75,
    "relBeat": 17.75,
    "duration": 0.25,
    "velocity": 100,
    "pitch": 60
  },
  {
    "clipIndex": 517,
    "trackId": "22",
    "clipName": null,
    "beat": 369.75,
    "relBeat": 15.75,
    "duration": 0.25,
    "velocity": 100,
    "pitch": 60
  },
  {
    "clipIndex": 518,
    "trackId": "22",
    "clipName": null,
    "beat": 369.75,
    "relBeat": 13.75,
    "duration": 0.25,
    "velocity": 100,
    "pitch": 60
  },
  {
    "clipIndex": 353,
    "trackId": "66",
    "clipName": null,
    "beat": 370,
    "relBeat": 370,
    "duration": 0.25000026015651017,
    "velocity": 100,
    "pitch": 72
  },
  {
    "clipIndex": 510,
    "trackId": "22",
    "clipName": null,
    "beat": 370,
    "relBeat": 30,
    "duration": 0.25,
    "velocity": 100,
    "pitch": 60
  },
  {
    "clipIndex": 511,
    "trackId": "22",
    "clipName": null,
    "beat": 370,
    "relBeat": 28,
    "duration": 0.25,
    "velocity": 100,
    "pitch": 60
  },
  {
    "clipIndex": 512,
    "trackId": "22",
    "clipName": null,
    "beat": 370,
    "relBeat": 26,
    "duration": 0.25,
    "velocity": 100,
    "pitch": 60
  },
  {
    "clipIndex": 513,
    "trackId": "22",
    "clipName": null,
    "beat": 370,
    "relBeat": 24,
    "duration": 0.25,
    "velocity": 100,
    "pitch": 60
  },
  {
    "clipIndex": 515,
    "trackId": "22",
    "clipName": null,
    "beat": 370,
    "relBeat": 20,
    "duration": 0.25,
    "velocity": 100,
    "pitch": 60
  },
  {
    "clipIndex": 516,
    "trackId": "22",
    "clipName": null,
    "beat": 370,
    "relBeat": 18,
    "duration": 0.25,
    "velocity": 100,
    "pitch": 60
  },
  {
    "clipIndex": 517,
    "trackId": "22",
    "clipName": null,
    "beat": 370,
    "relBeat": 16,
    "duration": 0.25,
    "velocity": 100,
    "pitch": 60
  },
  {
    "clipIndex": 518,
    "trackId": "22",
    "clipName": null,
    "beat": 370,
    "relBeat": 14,
    "duration": 0.25,
    "velocity": 100,
    "pitch": 60
  },
  {
    "clipIndex": 510,
    "trackId": "22",
    "clipName": null,
    "beat": 370.25,
    "relBeat": 30.25,
    "duration": 0.25,
    "velocity": 100,
    "pitch": 60
  },
  {
    "clipIndex": 511,
    "trackId": "22",
    "clipName": null,
    "beat": 370.25,
    "relBeat": 28.25,
    "duration": 0.25,
    "velocity": 100,
    "pitch": 60
  },
  {
    "clipIndex": 512,
    "trackId": "22",
    "clipName": null,
    "beat": 370.25,
    "relBeat": 26.25,
    "duration": 0.25,
    "velocity": 100,
    "pitch": 60
  },
  {
    "clipIndex": 513,
    "trackId": "22",
    "clipName": null,
    "beat": 370.25,
    "relBeat": 24.25,
    "duration": 0.25,
    "velocity": 100,
    "pitch": 60
  },
  {
    "clipIndex": 515,
    "trackId": "22",
    "clipName": null,
    "beat": 370.25,
    "relBeat": 20.25,
    "duration": 0.25,
    "velocity": 100,
    "pitch": 60
  },
  {
    "clipIndex": 516,
    "trackId": "22",
    "clipName": null,
    "beat": 370.25,
    "relBeat": 18.25,
    "duration": 0.25,
    "velocity": 100,
    "pitch": 60
  },
  {
    "clipIndex": 517,
    "trackId": "22",
    "clipName": null,
    "beat": 370.25,
    "relBeat": 16.25,
    "duration": 0.25,
    "velocity": 100,
    "pitch": 60
  },
  {
    "clipIndex": 518,
    "trackId": "22",
    "clipName": null,
    "beat": 370.25,
    "relBeat": 14.25,
    "duration": 0.25,
    "velocity": 100,
    "pitch": 60
  },
  {
    "clipIndex": 510,
    "trackId": "22",
    "clipName": null,
    "beat": 370.5,
    "relBeat": 30.5,
    "duration": 0.25,
    "velocity": 100,
    "pitch": 60
  },
  {
    "clipIndex": 511,
    "trackId": "22",
    "clipName": null,
    "beat": 370.5,
    "relBeat": 28.5,
    "duration": 0.25,
    "velocity": 100,
    "pitch": 60
  },
  {
    "clipIndex": 512,
    "trackId": "22",
    "clipName": null,
    "beat": 370.5,
    "relBeat": 26.5,
    "duration": 0.25,
    "velocity": 100,
    "pitch": 60
  },
  {
    "clipIndex": 513,
    "trackId": "22",
    "clipName": null,
    "beat": 370.5,
    "relBeat": 24.5,
    "duration": 0.25,
    "velocity": 100,
    "pitch": 60
  },
  {
    "clipIndex": 515,
    "trackId": "22",
    "clipName": null,
    "beat": 370.5,
    "relBeat": 20.5,
    "duration": 0.25,
    "velocity": 100,
    "pitch": 60
  },
  {
    "clipIndex": 516,
    "trackId": "22",
    "clipName": null,
    "beat": 370.5,
    "relBeat": 18.5,
    "duration": 0.25,
    "velocity": 100,
    "pitch": 60
  },
  {
    "clipIndex": 517,
    "trackId": "22",
    "clipName": null,
    "beat": 370.5,
    "relBeat": 16.5,
    "duration": 0.25,
    "velocity": 100,
    "pitch": 60
  },
  {
    "clipIndex": 518,
    "trackId": "22",
    "clipName": null,
    "beat": 370.5,
    "relBeat": 14.5,
    "duration": 0.25,
    "velocity": 100,
    "pitch": 60
  },
  {
    "clipIndex": 353,
    "trackId": "66",
    "clipName": null,
    "beat": 370.75,
    "relBeat": 370.75,
    "duration": 0.25000026015651017,
    "velocity": 100,
    "pitch": 72
  },
  {
    "clipIndex": 510,
    "trackId": "22",
    "clipName": null,
    "beat": 370.75,
    "relBeat": 30.75,
    "duration": 0.25,
    "velocity": 100,
    "pitch": 60
  },
  {
    "clipIndex": 511,
    "trackId": "22",
    "clipName": null,
    "beat": 370.75,
    "relBeat": 28.75,
    "duration": 0.25,
    "velocity": 100,
    "pitch": 60
  },
  {
    "clipIndex": 512,
    "trackId": "22",
    "clipName": null,
    "beat": 370.75,
    "relBeat": 26.75,
    "duration": 0.25,
    "velocity": 100,
    "pitch": 60
  },
  {
    "clipIndex": 513,
    "trackId": "22",
    "clipName": null,
    "beat": 370.75,
    "relBeat": 24.75,
    "duration": 0.25,
    "velocity": 100,
    "pitch": 60
  },
  {
    "clipIndex": 515,
    "trackId": "22",
    "clipName": null,
    "beat": 370.75,
    "relBeat": 20.75,
    "duration": 0.25,
    "velocity": 100,
    "pitch": 60
  },
  {
    "clipIndex": 516,
    "trackId": "22",
    "clipName": null,
    "beat": 370.75,
    "relBeat": 18.75,
    "duration": 0.25,
    "velocity": 100,
    "pitch": 60
  },
  {
    "clipIndex": 517,
    "trackId": "22",
    "clipName": null,
    "beat": 370.75,
    "relBeat": 16.75,
    "duration": 0.25,
    "velocity": 100,
    "pitch": 60
  },
  {
    "clipIndex": 518,
    "trackId": "22",
    "clipName": null,
    "beat": 370.75,
    "relBeat": 14.75,
    "duration": 0.25,
    "velocity": 100,
    "pitch": 60
  },
  {
    "clipIndex": 510,
    "trackId": "22",
    "clipName": null,
    "beat": 371,
    "relBeat": 31,
    "duration": 0.25,
    "velocity": 100,
    "pitch": 60
  },
  {
    "clipIndex": 511,
    "trackId": "22",
    "clipName": null,
    "beat": 371,
    "relBeat": 29,
    "duration": 0.25,
    "velocity": 100,
    "pitch": 60
  },
  {
    "clipIndex": 512,
    "trackId": "22",
    "clipName": null,
    "beat": 371,
    "relBeat": 27,
    "duration": 0.25,
    "velocity": 100,
    "pitch": 60
  },
  {
    "clipIndex": 513,
    "trackId": "22",
    "clipName": null,
    "beat": 371,
    "relBeat": 25,
    "duration": 0.25,
    "velocity": 100,
    "pitch": 60
  },
  {
    "clipIndex": 515,
    "trackId": "22",
    "clipName": null,
    "beat": 371,
    "relBeat": 21,
    "duration": 0.25,
    "velocity": 100,
    "pitch": 60
  },
  {
    "clipIndex": 516,
    "trackId": "22",
    "clipName": null,
    "beat": 371,
    "relBeat": 19,
    "duration": 0.25,
    "velocity": 100,
    "pitch": 60
  },
  {
    "clipIndex": 517,
    "trackId": "22",
    "clipName": null,
    "beat": 371,
    "relBeat": 17,
    "duration": 0.25,
    "velocity": 100,
    "pitch": 60
  },
  {
    "clipIndex": 518,
    "trackId": "22",
    "clipName": null,
    "beat": 371,
    "relBeat": 15,
    "duration": 0.25,
    "velocity": 100,
    "pitch": 60
  },
  {
    "clipIndex": 510,
    "trackId": "22",
    "clipName": null,
    "beat": 371.25,
    "relBeat": 31.25,
    "duration": 0.25,
    "velocity": 100,
    "pitch": 60
  },
  {
    "clipIndex": 511,
    "trackId": "22",
    "clipName": null,
    "beat": 371.25,
    "relBeat": 29.25,
    "duration": 0.25,
    "velocity": 100,
    "pitch": 60
  },
  {
    "clipIndex": 512,
    "trackId": "22",
    "clipName": null,
    "beat": 371.25,
    "relBeat": 27.25,
    "duration": 0.25,
    "velocity": 100,
    "pitch": 60
  },
  {
    "clipIndex": 513,
    "trackId": "22",
    "clipName": null,
    "beat": 371.25,
    "relBeat": 25.25,
    "duration": 0.25,
    "velocity": 100,
    "pitch": 60
  },
  {
    "clipIndex": 515,
    "trackId": "22",
    "clipName": null,
    "beat": 371.25,
    "relBeat": 21.25,
    "duration": 0.25,
    "velocity": 100,
    "pitch": 60
  },
  {
    "clipIndex": 516,
    "trackId": "22",
    "clipName": null,
    "beat": 371.25,
    "relBeat": 19.25,
    "duration": 0.25,
    "velocity": 100,
    "pitch": 60
  },
  {
    "clipIndex": 517,
    "trackId": "22",
    "clipName": null,
    "beat": 371.25,
    "relBeat": 17.25,
    "duration": 0.25,
    "velocity": 100,
    "pitch": 60
  },
  {
    "clipIndex": 518,
    "trackId": "22",
    "clipName": null,
    "beat": 371.25,
    "relBeat": 15.25,
    "duration": 0.25,
    "velocity": 100,
    "pitch": 60
  },
  {
    "clipIndex": 510,
    "trackId": "22",
    "clipName": null,
    "beat": 371.5,
    "relBeat": 31.5,
    "duration": 0.25,
    "velocity": 100,
    "pitch": 60
  },
  {
    "clipIndex": 511,
    "trackId": "22",
    "clipName": null,
    "beat": 371.5,
    "relBeat": 29.5,
    "duration": 0.25,
    "velocity": 100,
    "pitch": 60
  },
  {
    "clipIndex": 512,
    "trackId": "22",
    "clipName": null,
    "beat": 371.5,
    "relBeat": 27.5,
    "duration": 0.25,
    "velocity": 100,
    "pitch": 60
  },
  {
    "clipIndex": 513,
    "trackId": "22",
    "clipName": null,
    "beat": 371.5,
    "relBeat": 25.5,
    "duration": 0.25,
    "velocity": 100,
    "pitch": 60
  },
  {
    "clipIndex": 516,
    "trackId": "22",
    "clipName": null,
    "beat": 371.5,
    "relBeat": 19.5,
    "duration": 0.25,
    "velocity": 100,
    "pitch": 60
  },
  {
    "clipIndex": 517,
    "trackId": "22",
    "clipName": null,
    "beat": 371.5,
    "relBeat": 17.5,
    "duration": 0.25,
    "velocity": 100,
    "pitch": 60
  },
  {
    "clipIndex": 518,
    "trackId": "22",
    "clipName": null,
    "beat": 371.5,
    "relBeat": 15.5,
    "duration": 0.25,
    "velocity": 100,
    "pitch": 60
  },
  {
    "clipIndex": 510,
    "trackId": "22",
    "clipName": null,
    "beat": 371.75,
    "relBeat": 31.75,
    "duration": 0.25,
    "velocity": 100,
    "pitch": 60
  },
  {
    "clipIndex": 511,
    "trackId": "22",
    "clipName": null,
    "beat": 371.75,
    "relBeat": 29.75,
    "duration": 0.25,
    "velocity": 100,
    "pitch": 60
  },
  {
    "clipIndex": 512,
    "trackId": "22",
    "clipName": null,
    "beat": 371.75,
    "relBeat": 27.75,
    "duration": 0.25,
    "velocity": 100,
    "pitch": 60
  },
  {
    "clipIndex": 513,
    "trackId": "22",
    "clipName": null,
    "beat": 371.75,
    "relBeat": 25.75,
    "duration": 0.25,
    "velocity": 100,
    "pitch": 60
  },
  {
    "clipIndex": 516,
    "trackId": "22",
    "clipName": null,
    "beat": 371.75,
    "relBeat": 19.75,
    "duration": 0.25,
    "velocity": 100,
    "pitch": 60
  },
  {
    "clipIndex": 517,
    "trackId": "22",
    "clipName": null,
    "beat": 371.75,
    "relBeat": 17.75,
    "duration": 0.25,
    "velocity": 100,
    "pitch": 60
  },
  {
    "clipIndex": 518,
    "trackId": "22",
    "clipName": null,
    "beat": 371.75,
    "relBeat": 15.75,
    "duration": 0.25,
    "velocity": 100,
    "pitch": 60
  },
  {
    "clipIndex": 511,
    "trackId": "22",
    "clipName": null,
    "beat": 372,
    "relBeat": 30,
    "duration": 0.25,
    "velocity": 100,
    "pitch": 60
  },
  {
    "clipIndex": 512,
    "trackId": "22",
    "clipName": null,
    "beat": 372,
    "relBeat": 28,
    "duration": 0.25,
    "velocity": 100,
    "pitch": 60
  },
  {
    "clipIndex": 513,
    "trackId": "22",
    "clipName": null,
    "beat": 372,
    "relBeat": 26,
    "duration": 0.25,
    "velocity": 100,
    "pitch": 60
  },
  {
    "clipIndex": 514,
    "trackId": "22",
    "clipName": null,
    "beat": 372,
    "relBeat": 24,
    "duration": 0.25,
    "velocity": 100,
    "pitch": 60
  },
  {
    "clipIndex": 516,
    "trackId": "22",
    "clipName": null,
    "beat": 372,
    "relBeat": 20,
    "duration": 0.25,
    "velocity": 100,
    "pitch": 60
  },
  {
    "clipIndex": 517,
    "trackId": "22",
    "clipName": null,
    "beat": 372,
    "relBeat": 18,
    "duration": 0.25,
    "velocity": 100,
    "pitch": 60
  },
  {
    "clipIndex": 518,
    "trackId": "22",
    "clipName": null,
    "beat": 372,
    "relBeat": 16,
    "duration": 0.25,
    "velocity": 100,
    "pitch": 60
  },
  {
    "clipIndex": 511,
    "trackId": "22",
    "clipName": null,
    "beat": 372.25,
    "relBeat": 30.25,
    "duration": 0.25,
    "velocity": 100,
    "pitch": 60
  },
  {
    "clipIndex": 512,
    "trackId": "22",
    "clipName": null,
    "beat": 372.25,
    "relBeat": 28.25,
    "duration": 0.25,
    "velocity": 100,
    "pitch": 60
  },
  {
    "clipIndex": 513,
    "trackId": "22",
    "clipName": null,
    "beat": 372.25,
    "relBeat": 26.25,
    "duration": 0.25,
    "velocity": 100,
    "pitch": 60
  },
  {
    "clipIndex": 514,
    "trackId": "22",
    "clipName": null,
    "beat": 372.25,
    "relBeat": 24.25,
    "duration": 0.25,
    "velocity": 100,
    "pitch": 60
  },
  {
    "clipIndex": 516,
    "trackId": "22",
    "clipName": null,
    "beat": 372.25,
    "relBeat": 20.25,
    "duration": 0.25,
    "velocity": 100,
    "pitch": 60
  },
  {
    "clipIndex": 517,
    "trackId": "22",
    "clipName": null,
    "beat": 372.25,
    "relBeat": 18.25,
    "duration": 0.25,
    "velocity": 100,
    "pitch": 60
  },
  {
    "clipIndex": 518,
    "trackId": "22",
    "clipName": null,
    "beat": 372.25,
    "relBeat": 16.25,
    "duration": 0.25,
    "velocity": 100,
    "pitch": 60
  },
  {
    "clipIndex": 511,
    "trackId": "22",
    "clipName": null,
    "beat": 372.5,
    "relBeat": 30.5,
    "duration": 0.25,
    "velocity": 100,
    "pitch": 60
  },
  {
    "clipIndex": 512,
    "trackId": "22",
    "clipName": null,
    "beat": 372.5,
    "relBeat": 28.5,
    "duration": 0.25,
    "velocity": 100,
    "pitch": 60
  },
  {
    "clipIndex": 513,
    "trackId": "22",
    "clipName": null,
    "beat": 372.5,
    "relBeat": 26.5,
    "duration": 0.25,
    "velocity": 100,
    "pitch": 60
  },
  {
    "clipIndex": 514,
    "trackId": "22",
    "clipName": null,
    "beat": 372.5,
    "relBeat": 24.5,
    "duration": 0.25,
    "velocity": 100,
    "pitch": 60
  },
  {
    "clipIndex": 516,
    "trackId": "22",
    "clipName": null,
    "beat": 372.5,
    "relBeat": 20.5,
    "duration": 0.25,
    "velocity": 100,
    "pitch": 60
  },
  {
    "clipIndex": 517,
    "trackId": "22",
    "clipName": null,
    "beat": 372.5,
    "relBeat": 18.5,
    "duration": 0.25,
    "velocity": 100,
    "pitch": 60
  },
  {
    "clipIndex": 518,
    "trackId": "22",
    "clipName": null,
    "beat": 372.5,
    "relBeat": 16.5,
    "duration": 0.25,
    "velocity": 100,
    "pitch": 60
  },
  {
    "clipIndex": 511,
    "trackId": "22",
    "clipName": null,
    "beat": 372.75,
    "relBeat": 30.75,
    "duration": 0.25,
    "velocity": 100,
    "pitch": 60
  },
  {
    "clipIndex": 512,
    "trackId": "22",
    "clipName": null,
    "beat": 372.75,
    "relBeat": 28.75,
    "duration": 0.25,
    "velocity": 100,
    "pitch": 60
  },
  {
    "clipIndex": 513,
    "trackId": "22",
    "clipName": null,
    "beat": 372.75,
    "relBeat": 26.75,
    "duration": 0.25,
    "velocity": 100,
    "pitch": 60
  },
  {
    "clipIndex": 514,
    "trackId": "22",
    "clipName": null,
    "beat": 372.75,
    "relBeat": 24.75,
    "duration": 0.25,
    "velocity": 100,
    "pitch": 60
  },
  {
    "clipIndex": 516,
    "trackId": "22",
    "clipName": null,
    "beat": 372.75,
    "relBeat": 20.75,
    "duration": 0.25,
    "velocity": 100,
    "pitch": 60
  },
  {
    "clipIndex": 517,
    "trackId": "22",
    "clipName": null,
    "beat": 372.75,
    "relBeat": 18.75,
    "duration": 0.25,
    "velocity": 100,
    "pitch": 60
  },
  {
    "clipIndex": 518,
    "trackId": "22",
    "clipName": null,
    "beat": 372.75,
    "relBeat": 16.75,
    "duration": 0.25,
    "velocity": 100,
    "pitch": 60
  },
  {
    "clipIndex": 511,
    "trackId": "22",
    "clipName": null,
    "beat": 373,
    "relBeat": 31,
    "duration": 0.25,
    "velocity": 100,
    "pitch": 60
  },
  {
    "clipIndex": 512,
    "trackId": "22",
    "clipName": null,
    "beat": 373,
    "relBeat": 29,
    "duration": 0.25,
    "velocity": 100,
    "pitch": 60
  },
  {
    "clipIndex": 513,
    "trackId": "22",
    "clipName": null,
    "beat": 373,
    "relBeat": 27,
    "duration": 0.25,
    "velocity": 100,
    "pitch": 60
  },
  {
    "clipIndex": 514,
    "trackId": "22",
    "clipName": null,
    "beat": 373,
    "relBeat": 25,
    "duration": 0.25,
    "velocity": 100,
    "pitch": 60
  },
  {
    "clipIndex": 516,
    "trackId": "22",
    "clipName": null,
    "beat": 373,
    "relBeat": 21,
    "duration": 0.25,
    "velocity": 100,
    "pitch": 60
  },
  {
    "clipIndex": 517,
    "trackId": "22",
    "clipName": null,
    "beat": 373,
    "relBeat": 19,
    "duration": 0.25,
    "velocity": 100,
    "pitch": 60
  },
  {
    "clipIndex": 518,
    "trackId": "22",
    "clipName": null,
    "beat": 373,
    "relBeat": 17,
    "duration": 0.25,
    "velocity": 100,
    "pitch": 60
  },
  {
    "clipIndex": 511,
    "trackId": "22",
    "clipName": null,
    "beat": 373.25,
    "relBeat": 31.25,
    "duration": 0.25,
    "velocity": 100,
    "pitch": 60
  },
  {
    "clipIndex": 512,
    "trackId": "22",
    "clipName": null,
    "beat": 373.25,
    "relBeat": 29.25,
    "duration": 0.25,
    "velocity": 100,
    "pitch": 60
  },
  {
    "clipIndex": 513,
    "trackId": "22",
    "clipName": null,
    "beat": 373.25,
    "relBeat": 27.25,
    "duration": 0.25,
    "velocity": 100,
    "pitch": 60
  },
  {
    "clipIndex": 514,
    "trackId": "22",
    "clipName": null,
    "beat": 373.25,
    "relBeat": 25.25,
    "duration": 0.25,
    "velocity": 100,
    "pitch": 60
  },
  {
    "clipIndex": 516,
    "trackId": "22",
    "clipName": null,
    "beat": 373.25,
    "relBeat": 21.25,
    "duration": 0.25,
    "velocity": 100,
    "pitch": 60
  },
  {
    "clipIndex": 517,
    "trackId": "22",
    "clipName": null,
    "beat": 373.25,
    "relBeat": 19.25,
    "duration": 0.25,
    "velocity": 100,
    "pitch": 60
  },
  {
    "clipIndex": 518,
    "trackId": "22",
    "clipName": null,
    "beat": 373.25,
    "relBeat": 17.25,
    "duration": 0.25,
    "velocity": 100,
    "pitch": 60
  },
  {
    "clipIndex": 511,
    "trackId": "22",
    "clipName": null,
    "beat": 373.5,
    "relBeat": 31.5,
    "duration": 0.25,
    "velocity": 100,
    "pitch": 60
  },
  {
    "clipIndex": 512,
    "trackId": "22",
    "clipName": null,
    "beat": 373.5,
    "relBeat": 29.5,
    "duration": 0.25,
    "velocity": 100,
    "pitch": 60
  },
  {
    "clipIndex": 513,
    "trackId": "22",
    "clipName": null,
    "beat": 373.5,
    "relBeat": 27.5,
    "duration": 0.25,
    "velocity": 100,
    "pitch": 60
  },
  {
    "clipIndex": 514,
    "trackId": "22",
    "clipName": null,
    "beat": 373.5,
    "relBeat": 25.5,
    "duration": 0.25,
    "velocity": 100,
    "pitch": 60
  },
  {
    "clipIndex": 517,
    "trackId": "22",
    "clipName": null,
    "beat": 373.5,
    "relBeat": 19.5,
    "duration": 0.25,
    "velocity": 100,
    "pitch": 60
  },
  {
    "clipIndex": 518,
    "trackId": "22",
    "clipName": null,
    "beat": 373.5,
    "relBeat": 17.5,
    "duration": 0.25,
    "velocity": 100,
    "pitch": 60
  },
  {
    "clipIndex": 511,
    "trackId": "22",
    "clipName": null,
    "beat": 373.75,
    "relBeat": 31.75,
    "duration": 0.25,
    "velocity": 100,
    "pitch": 60
  },
  {
    "clipIndex": 512,
    "trackId": "22",
    "clipName": null,
    "beat": 373.75,
    "relBeat": 29.75,
    "duration": 0.25,
    "velocity": 100,
    "pitch": 60
  },
  {
    "clipIndex": 513,
    "trackId": "22",
    "clipName": null,
    "beat": 373.75,
    "relBeat": 27.75,
    "duration": 0.25,
    "velocity": 100,
    "pitch": 60
  },
  {
    "clipIndex": 514,
    "trackId": "22",
    "clipName": null,
    "beat": 373.75,
    "relBeat": 25.75,
    "duration": 0.25,
    "velocity": 100,
    "pitch": 60
  },
  {
    "clipIndex": 517,
    "trackId": "22",
    "clipName": null,
    "beat": 373.75,
    "relBeat": 19.75,
    "duration": 0.25,
    "velocity": 100,
    "pitch": 60
  },
  {
    "clipIndex": 518,
    "trackId": "22",
    "clipName": null,
    "beat": 373.75,
    "relBeat": 17.75,
    "duration": 0.25,
    "velocity": 100,
    "pitch": 60
  },
  {
    "clipIndex": 512,
    "trackId": "22",
    "clipName": null,
    "beat": 374,
    "relBeat": 30,
    "duration": 0.25,
    "velocity": 100,
    "pitch": 60
  },
  {
    "clipIndex": 513,
    "trackId": "22",
    "clipName": null,
    "beat": 374,
    "relBeat": 28,
    "duration": 0.25,
    "velocity": 100,
    "pitch": 60
  },
  {
    "clipIndex": 514,
    "trackId": "22",
    "clipName": null,
    "beat": 374,
    "relBeat": 26,
    "duration": 0.25,
    "velocity": 100,
    "pitch": 60
  },
  {
    "clipIndex": 515,
    "trackId": "22",
    "clipName": null,
    "beat": 374,
    "relBeat": 24,
    "duration": 0.25,
    "velocity": 100,
    "pitch": 60
  },
  {
    "clipIndex": 517,
    "trackId": "22",
    "clipName": null,
    "beat": 374,
    "relBeat": 20,
    "duration": 0.25,
    "velocity": 100,
    "pitch": 60
  },
  {
    "clipIndex": 518,
    "trackId": "22",
    "clipName": null,
    "beat": 374,
    "relBeat": 18,
    "duration": 0.25,
    "velocity": 100,
    "pitch": 60
  },
  {
    "clipIndex": 512,
    "trackId": "22",
    "clipName": null,
    "beat": 374.25,
    "relBeat": 30.25,
    "duration": 0.25,
    "velocity": 100,
    "pitch": 60
  },
  {
    "clipIndex": 513,
    "trackId": "22",
    "clipName": null,
    "beat": 374.25,
    "relBeat": 28.25,
    "duration": 0.25,
    "velocity": 100,
    "pitch": 60
  },
  {
    "clipIndex": 514,
    "trackId": "22",
    "clipName": null,
    "beat": 374.25,
    "relBeat": 26.25,
    "duration": 0.25,
    "velocity": 100,
    "pitch": 60
  },
  {
    "clipIndex": 515,
    "trackId": "22",
    "clipName": null,
    "beat": 374.25,
    "relBeat": 24.25,
    "duration": 0.25,
    "velocity": 100,
    "pitch": 60
  },
  {
    "clipIndex": 517,
    "trackId": "22",
    "clipName": null,
    "beat": 374.25,
    "relBeat": 20.25,
    "duration": 0.25,
    "velocity": 100,
    "pitch": 60
  },
  {
    "clipIndex": 518,
    "trackId": "22",
    "clipName": null,
    "beat": 374.25,
    "relBeat": 18.25,
    "duration": 0.25,
    "velocity": 100,
    "pitch": 60
  },
  {
    "clipIndex": 512,
    "trackId": "22",
    "clipName": null,
    "beat": 374.5,
    "relBeat": 30.5,
    "duration": 0.25,
    "velocity": 100,
    "pitch": 60
  },
  {
    "clipIndex": 513,
    "trackId": "22",
    "clipName": null,
    "beat": 374.5,
    "relBeat": 28.5,
    "duration": 0.25,
    "velocity": 100,
    "pitch": 60
  },
  {
    "clipIndex": 514,
    "trackId": "22",
    "clipName": null,
    "beat": 374.5,
    "relBeat": 26.5,
    "duration": 0.25,
    "velocity": 100,
    "pitch": 60
  },
  {
    "clipIndex": 515,
    "trackId": "22",
    "clipName": null,
    "beat": 374.5,
    "relBeat": 24.5,
    "duration": 0.25,
    "velocity": 100,
    "pitch": 60
  },
  {
    "clipIndex": 517,
    "trackId": "22",
    "clipName": null,
    "beat": 374.5,
    "relBeat": 20.5,
    "duration": 0.25,
    "velocity": 100,
    "pitch": 60
  },
  {
    "clipIndex": 518,
    "trackId": "22",
    "clipName": null,
    "beat": 374.5,
    "relBeat": 18.5,
    "duration": 0.25,
    "velocity": 100,
    "pitch": 60
  },
  {
    "clipIndex": 512,
    "trackId": "22",
    "clipName": null,
    "beat": 374.75,
    "relBeat": 30.75,
    "duration": 0.25,
    "velocity": 100,
    "pitch": 60
  },
  {
    "clipIndex": 513,
    "trackId": "22",
    "clipName": null,
    "beat": 374.75,
    "relBeat": 28.75,
    "duration": 0.25,
    "velocity": 100,
    "pitch": 60
  },
  {
    "clipIndex": 514,
    "trackId": "22",
    "clipName": null,
    "beat": 374.75,
    "relBeat": 26.75,
    "duration": 0.25,
    "velocity": 100,
    "pitch": 60
  },
  {
    "clipIndex": 515,
    "trackId": "22",
    "clipName": null,
    "beat": 374.75,
    "relBeat": 24.75,
    "duration": 0.25,
    "velocity": 100,
    "pitch": 60
  },
  {
    "clipIndex": 517,
    "trackId": "22",
    "clipName": null,
    "beat": 374.75,
    "relBeat": 20.75,
    "duration": 0.25,
    "velocity": 100,
    "pitch": 60
  },
  {
    "clipIndex": 518,
    "trackId": "22",
    "clipName": null,
    "beat": 374.75,
    "relBeat": 18.75,
    "duration": 0.25,
    "velocity": 100,
    "pitch": 60
  },
  {
    "clipIndex": 512,
    "trackId": "22",
    "clipName": null,
    "beat": 375,
    "relBeat": 31,
    "duration": 0.25,
    "velocity": 100,
    "pitch": 60
  },
  {
    "clipIndex": 513,
    "trackId": "22",
    "clipName": null,
    "beat": 375,
    "relBeat": 29,
    "duration": 0.25,
    "velocity": 100,
    "pitch": 60
  },
  {
    "clipIndex": 514,
    "trackId": "22",
    "clipName": null,
    "beat": 375,
    "relBeat": 27,
    "duration": 0.25,
    "velocity": 100,
    "pitch": 60
  },
  {
    "clipIndex": 515,
    "trackId": "22",
    "clipName": null,
    "beat": 375,
    "relBeat": 25,
    "duration": 0.25,
    "velocity": 100,
    "pitch": 60
  },
  {
    "clipIndex": 517,
    "trackId": "22",
    "clipName": null,
    "beat": 375,
    "relBeat": 21,
    "duration": 0.25,
    "velocity": 100,
    "pitch": 60
  },
  {
    "clipIndex": 518,
    "trackId": "22",
    "clipName": null,
    "beat": 375,
    "relBeat": 19,
    "duration": 0.25,
    "velocity": 100,
    "pitch": 60
  },
  {
    "clipIndex": 512,
    "trackId": "22",
    "clipName": null,
    "beat": 375.25,
    "relBeat": 31.25,
    "duration": 0.25,
    "velocity": 100,
    "pitch": 60
  },
  {
    "clipIndex": 513,
    "trackId": "22",
    "clipName": null,
    "beat": 375.25,
    "relBeat": 29.25,
    "duration": 0.25,
    "velocity": 100,
    "pitch": 60
  },
  {
    "clipIndex": 514,
    "trackId": "22",
    "clipName": null,
    "beat": 375.25,
    "relBeat": 27.25,
    "duration": 0.25,
    "velocity": 100,
    "pitch": 60
  },
  {
    "clipIndex": 515,
    "trackId": "22",
    "clipName": null,
    "beat": 375.25,
    "relBeat": 25.25,
    "duration": 0.25,
    "velocity": 100,
    "pitch": 60
  },
  {
    "clipIndex": 517,
    "trackId": "22",
    "clipName": null,
    "beat": 375.25,
    "relBeat": 21.25,
    "duration": 0.25,
    "velocity": 100,
    "pitch": 60
  },
  {
    "clipIndex": 518,
    "trackId": "22",
    "clipName": null,
    "beat": 375.25,
    "relBeat": 19.25,
    "duration": 0.25,
    "velocity": 100,
    "pitch": 60
  },
  {
    "clipIndex": 512,
    "trackId": "22",
    "clipName": null,
    "beat": 375.5,
    "relBeat": 31.5,
    "duration": 0.25,
    "velocity": 100,
    "pitch": 60
  },
  {
    "clipIndex": 513,
    "trackId": "22",
    "clipName": null,
    "beat": 375.5,
    "relBeat": 29.5,
    "duration": 0.25,
    "velocity": 100,
    "pitch": 60
  },
  {
    "clipIndex": 514,
    "trackId": "22",
    "clipName": null,
    "beat": 375.5,
    "relBeat": 27.5,
    "duration": 0.25,
    "velocity": 100,
    "pitch": 60
  },
  {
    "clipIndex": 515,
    "trackId": "22",
    "clipName": null,
    "beat": 375.5,
    "relBeat": 25.5,
    "duration": 0.25,
    "velocity": 100,
    "pitch": 60
  },
  {
    "clipIndex": 518,
    "trackId": "22",
    "clipName": null,
    "beat": 375.5,
    "relBeat": 19.5,
    "duration": 0.25,
    "velocity": 100,
    "pitch": 60
  },
  {
    "clipIndex": 512,
    "trackId": "22",
    "clipName": null,
    "beat": 375.75,
    "relBeat": 31.75,
    "duration": 0.25,
    "velocity": 100,
    "pitch": 60
  },
  {
    "clipIndex": 513,
    "trackId": "22",
    "clipName": null,
    "beat": 375.75,
    "relBeat": 29.75,
    "duration": 0.25,
    "velocity": 100,
    "pitch": 60
  },
  {
    "clipIndex": 514,
    "trackId": "22",
    "clipName": null,
    "beat": 375.75,
    "relBeat": 27.75,
    "duration": 0.25,
    "velocity": 100,
    "pitch": 60
  },
  {
    "clipIndex": 515,
    "trackId": "22",
    "clipName": null,
    "beat": 375.75,
    "relBeat": 25.75,
    "duration": 0.25,
    "velocity": 100,
    "pitch": 60
  },
  {
    "clipIndex": 518,
    "trackId": "22",
    "clipName": null,
    "beat": 375.75,
    "relBeat": 19.75,
    "duration": 0.25,
    "velocity": 100,
    "pitch": 60
  },
  {
    "clipIndex": 0,
    "trackId": "89",
    "clipName": null,
    "beat": 376,
    "relBeat": 376,
    "duration": 0.25,
    "velocity": 100,
    "pitch": 60
  },
  {
    "clipIndex": 513,
    "trackId": "22",
    "clipName": null,
    "beat": 376,
    "relBeat": 30,
    "duration": 0.25,
    "velocity": 100,
    "pitch": 60
  },
  {
    "clipIndex": 514,
    "trackId": "22",
    "clipName": null,
    "beat": 376,
    "relBeat": 28,
    "duration": 0.25,
    "velocity": 100,
    "pitch": 60
  },
  {
    "clipIndex": 515,
    "trackId": "22",
    "clipName": null,
    "beat": 376,
    "relBeat": 26,
    "duration": 0.25,
    "velocity": 100,
    "pitch": 60
  },
  {
    "clipIndex": 516,
    "trackId": "22",
    "clipName": null,
    "beat": 376,
    "relBeat": 24,
    "duration": 0.25,
    "velocity": 100,
    "pitch": 60
  },
  {
    "clipIndex": 518,
    "trackId": "22",
    "clipName": null,
    "beat": 376,
    "relBeat": 20,
    "duration": 0.25,
    "velocity": 100,
    "pitch": 60
  },
  {
    "clipIndex": 519,
    "trackId": "22",
    "clipName": null,
    "beat": 376,
    "relBeat": 0,
    "duration": 0.25,
    "velocity": 100,
    "pitch": 60
  },
  {
    "clipIndex": 513,
    "trackId": "22",
    "clipName": null,
    "beat": 376.25,
    "relBeat": 30.25,
    "duration": 0.25,
    "velocity": 100,
    "pitch": 60
  },
  {
    "clipIndex": 514,
    "trackId": "22",
    "clipName": null,
    "beat": 376.25,
    "relBeat": 28.25,
    "duration": 0.25,
    "velocity": 100,
    "pitch": 60
  },
  {
    "clipIndex": 515,
    "trackId": "22",
    "clipName": null,
    "beat": 376.25,
    "relBeat": 26.25,
    "duration": 0.25,
    "velocity": 100,
    "pitch": 60
  },
  {
    "clipIndex": 516,
    "trackId": "22",
    "clipName": null,
    "beat": 376.25,
    "relBeat": 24.25,
    "duration": 0.25,
    "velocity": 100,
    "pitch": 60
  },
  {
    "clipIndex": 518,
    "trackId": "22",
    "clipName": null,
    "beat": 376.25,
    "relBeat": 20.25,
    "duration": 0.25,
    "velocity": 100,
    "pitch": 60
  },
  {
    "clipIndex": 519,
    "trackId": "22",
    "clipName": null,
    "beat": 376.25,
    "relBeat": 0.25,
    "duration": 0.25,
    "velocity": 100,
    "pitch": 60
  },
  {
    "clipIndex": 513,
    "trackId": "22",
    "clipName": null,
    "beat": 376.5,
    "relBeat": 30.5,
    "duration": 0.25,
    "velocity": 100,
    "pitch": 60
  },
  {
    "clipIndex": 514,
    "trackId": "22",
    "clipName": null,
    "beat": 376.5,
    "relBeat": 28.5,
    "duration": 0.25,
    "velocity": 100,
    "pitch": 60
  },
  {
    "clipIndex": 515,
    "trackId": "22",
    "clipName": null,
    "beat": 376.5,
    "relBeat": 26.5,
    "duration": 0.25,
    "velocity": 100,
    "pitch": 60
  },
  {
    "clipIndex": 516,
    "trackId": "22",
    "clipName": null,
    "beat": 376.5,
    "relBeat": 24.5,
    "duration": 0.25,
    "velocity": 100,
    "pitch": 60
  },
  {
    "clipIndex": 518,
    "trackId": "22",
    "clipName": null,
    "beat": 376.5,
    "relBeat": 20.5,
    "duration": 0.25,
    "velocity": 100,
    "pitch": 60
  },
  {
    "clipIndex": 519,
    "trackId": "22",
    "clipName": null,
    "beat": 376.5,
    "relBeat": 0.5,
    "duration": 0.25,
    "velocity": 100,
    "pitch": 60
  },
  {
    "clipIndex": 0,
    "trackId": "89",
    "clipName": null,
    "beat": 376.75,
    "relBeat": 376.75,
    "duration": 0.25,
    "velocity": 100,
    "pitch": 60
  },
  {
    "clipIndex": 513,
    "trackId": "22",
    "clipName": null,
    "beat": 376.75,
    "relBeat": 30.75,
    "duration": 0.25,
    "velocity": 100,
    "pitch": 60
  },
  {
    "clipIndex": 514,
    "trackId": "22",
    "clipName": null,
    "beat": 376.75,
    "relBeat": 28.75,
    "duration": 0.25,
    "velocity": 100,
    "pitch": 60
  },
  {
    "clipIndex": 515,
    "trackId": "22",
    "clipName": null,
    "beat": 376.75,
    "relBeat": 26.75,
    "duration": 0.25,
    "velocity": 100,
    "pitch": 60
  },
  {
    "clipIndex": 516,
    "trackId": "22",
    "clipName": null,
    "beat": 376.75,
    "relBeat": 24.75,
    "duration": 0.25,
    "velocity": 100,
    "pitch": 60
  },
  {
    "clipIndex": 518,
    "trackId": "22",
    "clipName": null,
    "beat": 376.75,
    "relBeat": 20.75,
    "duration": 0.25,
    "velocity": 100,
    "pitch": 60
  },
  {
    "clipIndex": 519,
    "trackId": "22",
    "clipName": null,
    "beat": 376.75,
    "relBeat": 0.75,
    "duration": 0.25,
    "velocity": 100,
    "pitch": 60
  },
  {
    "clipIndex": 513,
    "trackId": "22",
    "clipName": null,
    "beat": 377,
    "relBeat": 31,
    "duration": 0.25,
    "velocity": 100,
    "pitch": 60
  },
  {
    "clipIndex": 514,
    "trackId": "22",
    "clipName": null,
    "beat": 377,
    "relBeat": 29,
    "duration": 0.25,
    "velocity": 100,
    "pitch": 60
  },
  {
    "clipIndex": 515,
    "trackId": "22",
    "clipName": null,
    "beat": 377,
    "relBeat": 27,
    "duration": 0.25,
    "velocity": 100,
    "pitch": 60
  },
  {
    "clipIndex": 516,
    "trackId": "22",
    "clipName": null,
    "beat": 377,
    "relBeat": 25,
    "duration": 0.25,
    "velocity": 100,
    "pitch": 60
  },
  {
    "clipIndex": 518,
    "trackId": "22",
    "clipName": null,
    "beat": 377,
    "relBeat": 21,
    "duration": 0.25,
    "velocity": 100,
    "pitch": 60
  },
  {
    "clipIndex": 519,
    "trackId": "22",
    "clipName": null,
    "beat": 377,
    "relBeat": 1,
    "duration": 0.25,
    "velocity": 100,
    "pitch": 60
  },
  {
    "clipIndex": 513,
    "trackId": "22",
    "clipName": null,
    "beat": 377.25,
    "relBeat": 31.25,
    "duration": 0.25,
    "velocity": 100,
    "pitch": 60
  },
  {
    "clipIndex": 514,
    "trackId": "22",
    "clipName": null,
    "beat": 377.25,
    "relBeat": 29.25,
    "duration": 0.25,
    "velocity": 100,
    "pitch": 60
  },
  {
    "clipIndex": 515,
    "trackId": "22",
    "clipName": null,
    "beat": 377.25,
    "relBeat": 27.25,
    "duration": 0.25,
    "velocity": 100,
    "pitch": 60
  },
  {
    "clipIndex": 516,
    "trackId": "22",
    "clipName": null,
    "beat": 377.25,
    "relBeat": 25.25,
    "duration": 0.25,
    "velocity": 100,
    "pitch": 60
  },
  {
    "clipIndex": 518,
    "trackId": "22",
    "clipName": null,
    "beat": 377.25,
    "relBeat": 21.25,
    "duration": 0.25,
    "velocity": 100,
    "pitch": 60
  },
  {
    "clipIndex": 519,
    "trackId": "22",
    "clipName": null,
    "beat": 377.25,
    "relBeat": 1.25,
    "duration": 0.25,
    "velocity": 100,
    "pitch": 60
  },
  {
    "clipIndex": 0,
    "trackId": "89",
    "clipName": null,
    "beat": 377.5,
    "relBeat": 377.5,
    "duration": 0.25,
    "velocity": 100,
    "pitch": 60
  },
  {
    "clipIndex": 513,
    "trackId": "22",
    "clipName": null,
    "beat": 377.5,
    "relBeat": 31.5,
    "duration": 0.25,
    "velocity": 100,
    "pitch": 60
  },
  {
    "clipIndex": 514,
    "trackId": "22",
    "clipName": null,
    "beat": 377.5,
    "relBeat": 29.5,
    "duration": 0.25,
    "velocity": 100,
    "pitch": 60
  },
  {
    "clipIndex": 515,
    "trackId": "22",
    "clipName": null,
    "beat": 377.5,
    "relBeat": 27.5,
    "duration": 0.25,
    "velocity": 100,
    "pitch": 60
  },
  {
    "clipIndex": 516,
    "trackId": "22",
    "clipName": null,
    "beat": 377.5,
    "relBeat": 25.5,
    "duration": 0.25,
    "velocity": 100,
    "pitch": 60
  },
  {
    "clipIndex": 519,
    "trackId": "22",
    "clipName": null,
    "beat": 377.5,
    "relBeat": 1.5,
    "duration": 0.25,
    "velocity": 100,
    "pitch": 60
  },
  {
    "clipIndex": 513,
    "trackId": "22",
    "clipName": null,
    "beat": 377.75,
    "relBeat": 31.75,
    "duration": 0.25,
    "velocity": 100,
    "pitch": 60
  },
  {
    "clipIndex": 514,
    "trackId": "22",
    "clipName": null,
    "beat": 377.75,
    "relBeat": 29.75,
    "duration": 0.25,
    "velocity": 100,
    "pitch": 60
  },
  {
    "clipIndex": 515,
    "trackId": "22",
    "clipName": null,
    "beat": 377.75,
    "relBeat": 27.75,
    "duration": 0.25,
    "velocity": 100,
    "pitch": 60
  },
  {
    "clipIndex": 516,
    "trackId": "22",
    "clipName": null,
    "beat": 377.75,
    "relBeat": 25.75,
    "duration": 0.25,
    "velocity": 100,
    "pitch": 60
  },
  {
    "clipIndex": 519,
    "trackId": "22",
    "clipName": null,
    "beat": 377.75,
    "relBeat": 1.75,
    "duration": 0.25,
    "velocity": 100,
    "pitch": 60
  },
  {
    "clipIndex": 514,
    "trackId": "22",
    "clipName": null,
    "beat": 378,
    "relBeat": 30,
    "duration": 0.25,
    "velocity": 100,
    "pitch": 60
  },
  {
    "clipIndex": 515,
    "trackId": "22",
    "clipName": null,
    "beat": 378,
    "relBeat": 28,
    "duration": 0.25,
    "velocity": 100,
    "pitch": 60
  },
  {
    "clipIndex": 516,
    "trackId": "22",
    "clipName": null,
    "beat": 378,
    "relBeat": 26,
    "duration": 0.25,
    "velocity": 100,
    "pitch": 60
  },
  {
    "clipIndex": 517,
    "trackId": "22",
    "clipName": null,
    "beat": 378,
    "relBeat": 24,
    "duration": 0.25,
    "velocity": 100,
    "pitch": 60
  },
  {
    "clipIndex": 519,
    "trackId": "22",
    "clipName": null,
    "beat": 378,
    "relBeat": 2,
    "duration": 0.25,
    "velocity": 100,
    "pitch": 60
  },
  {
    "clipIndex": 0,
    "trackId": "89",
    "clipName": null,
    "beat": 378.25,
    "relBeat": 378.25,
    "duration": 0.25,
    "velocity": 100,
    "pitch": 60
  },
  {
    "clipIndex": 514,
    "trackId": "22",
    "clipName": null,
    "beat": 378.25,
    "relBeat": 30.25,
    "duration": 0.25,
    "velocity": 100,
    "pitch": 60
  },
  {
    "clipIndex": 515,
    "trackId": "22",
    "clipName": null,
    "beat": 378.25,
    "relBeat": 28.25,
    "duration": 0.25,
    "velocity": 100,
    "pitch": 60
  },
  {
    "clipIndex": 516,
    "trackId": "22",
    "clipName": null,
    "beat": 378.25,
    "relBeat": 26.25,
    "duration": 0.25,
    "velocity": 100,
    "pitch": 60
  },
  {
    "clipIndex": 517,
    "trackId": "22",
    "clipName": null,
    "beat": 378.25,
    "relBeat": 24.25,
    "duration": 0.25,
    "velocity": 100,
    "pitch": 60
  },
  {
    "clipIndex": 519,
    "trackId": "22",
    "clipName": null,
    "beat": 378.25,
    "relBeat": 2.25,
    "duration": 0.25,
    "velocity": 100,
    "pitch": 60
  },
  {
    "clipIndex": 514,
    "trackId": "22",
    "clipName": null,
    "beat": 378.5,
    "relBeat": 30.5,
    "duration": 0.25,
    "velocity": 100,
    "pitch": 60
  },
  {
    "clipIndex": 515,
    "trackId": "22",
    "clipName": null,
    "beat": 378.5,
    "relBeat": 28.5,
    "duration": 0.25,
    "velocity": 100,
    "pitch": 60
  },
  {
    "clipIndex": 516,
    "trackId": "22",
    "clipName": null,
    "beat": 378.5,
    "relBeat": 26.5,
    "duration": 0.25,
    "velocity": 100,
    "pitch": 60
  },
  {
    "clipIndex": 517,
    "trackId": "22",
    "clipName": null,
    "beat": 378.5,
    "relBeat": 24.5,
    "duration": 0.25,
    "velocity": 100,
    "pitch": 60
  },
  {
    "clipIndex": 519,
    "trackId": "22",
    "clipName": null,
    "beat": 378.5,
    "relBeat": 2.5,
    "duration": 0.25,
    "velocity": 100,
    "pitch": 60
  },
  {
    "clipIndex": 514,
    "trackId": "22",
    "clipName": null,
    "beat": 378.75,
    "relBeat": 30.75,
    "duration": 0.25,
    "velocity": 100,
    "pitch": 60
  },
  {
    "clipIndex": 515,
    "trackId": "22",
    "clipName": null,
    "beat": 378.75,
    "relBeat": 28.75,
    "duration": 0.25,
    "velocity": 100,
    "pitch": 60
  },
  {
    "clipIndex": 516,
    "trackId": "22",
    "clipName": null,
    "beat": 378.75,
    "relBeat": 26.75,
    "duration": 0.25,
    "velocity": 100,
    "pitch": 60
  },
  {
    "clipIndex": 517,
    "trackId": "22",
    "clipName": null,
    "beat": 378.75,
    "relBeat": 24.75,
    "duration": 0.25,
    "velocity": 100,
    "pitch": 60
  },
  {
    "clipIndex": 519,
    "trackId": "22",
    "clipName": null,
    "beat": 378.75,
    "relBeat": 2.75,
    "duration": 0.25,
    "velocity": 100,
    "pitch": 60
  },
  {
    "clipIndex": 0,
    "trackId": "89",
    "clipName": null,
    "beat": 379,
    "relBeat": 379,
    "duration": 0.25,
    "velocity": 100,
    "pitch": 60
  },
  {
    "clipIndex": 514,
    "trackId": "22",
    "clipName": null,
    "beat": 379,
    "relBeat": 31,
    "duration": 0.25,
    "velocity": 100,
    "pitch": 60
  },
  {
    "clipIndex": 515,
    "trackId": "22",
    "clipName": null,
    "beat": 379,
    "relBeat": 29,
    "duration": 0.25,
    "velocity": 100,
    "pitch": 60
  },
  {
    "clipIndex": 516,
    "trackId": "22",
    "clipName": null,
    "beat": 379,
    "relBeat": 27,
    "duration": 0.25,
    "velocity": 100,
    "pitch": 60
  },
  {
    "clipIndex": 517,
    "trackId": "22",
    "clipName": null,
    "beat": 379,
    "relBeat": 25,
    "duration": 0.25,
    "velocity": 100,
    "pitch": 60
  },
  {
    "clipIndex": 519,
    "trackId": "22",
    "clipName": null,
    "beat": 379,
    "relBeat": 3,
    "duration": 0.25,
    "velocity": 100,
    "pitch": 60
  },
  {
    "clipIndex": 514,
    "trackId": "22",
    "clipName": null,
    "beat": 379.25,
    "relBeat": 31.25,
    "duration": 0.25,
    "velocity": 100,
    "pitch": 60
  },
  {
    "clipIndex": 515,
    "trackId": "22",
    "clipName": null,
    "beat": 379.25,
    "relBeat": 29.25,
    "duration": 0.25,
    "velocity": 100,
    "pitch": 60
  },
  {
    "clipIndex": 516,
    "trackId": "22",
    "clipName": null,
    "beat": 379.25,
    "relBeat": 27.25,
    "duration": 0.25,
    "velocity": 100,
    "pitch": 60
  },
  {
    "clipIndex": 517,
    "trackId": "22",
    "clipName": null,
    "beat": 379.25,
    "relBeat": 25.25,
    "duration": 0.25,
    "velocity": 100,
    "pitch": 60
  },
  {
    "clipIndex": 519,
    "trackId": "22",
    "clipName": null,
    "beat": 379.25,
    "relBeat": 3.25,
    "duration": 0.25,
    "velocity": 100,
    "pitch": 60
  },
  {
    "clipIndex": 338,
    "trackId": "55",
    "clipName": null,
    "beat": 379.5,
    "relBeat": 179.5,
    "duration": 0.25000026015651017,
    "velocity": 100,
    "pitch": 60
  },
  {
    "clipIndex": 514,
    "trackId": "22",
    "clipName": null,
    "beat": 379.5,
    "relBeat": 31.5,
    "duration": 0.25,
    "velocity": 100,
    "pitch": 60
  },
  {
    "clipIndex": 515,
    "trackId": "22",
    "clipName": null,
    "beat": 379.5,
    "relBeat": 29.5,
    "duration": 0.25,
    "velocity": 100,
    "pitch": 60
  },
  {
    "clipIndex": 516,
    "trackId": "22",
    "clipName": null,
    "beat": 379.5,
    "relBeat": 27.5,
    "duration": 0.25,
    "velocity": 100,
    "pitch": 60
  },
  {
    "clipIndex": 517,
    "trackId": "22",
    "clipName": null,
    "beat": 379.5,
    "relBeat": 25.5,
    "duration": 0.25,
    "velocity": 100,
    "pitch": 60
  },
  {
    "clipIndex": 519,
    "trackId": "22",
    "clipName": null,
    "beat": 379.5,
    "relBeat": 3.5,
    "duration": 0.25,
    "velocity": 100,
    "pitch": 60
  },
  {
    "clipIndex": 0,
    "trackId": "89",
    "clipName": null,
    "beat": 379.75,
    "relBeat": 379.75,
    "duration": 0.25,
    "velocity": 100,
    "pitch": 60
  },
  {
    "clipIndex": 514,
    "trackId": "22",
    "clipName": null,
    "beat": 379.75,
    "relBeat": 31.75,
    "duration": 0.25,
    "velocity": 100,
    "pitch": 60
  },
  {
    "clipIndex": 515,
    "trackId": "22",
    "clipName": null,
    "beat": 379.75,
    "relBeat": 29.75,
    "duration": 0.25,
    "velocity": 100,
    "pitch": 60
  },
  {
    "clipIndex": 516,
    "trackId": "22",
    "clipName": null,
    "beat": 379.75,
    "relBeat": 27.75,
    "duration": 0.25,
    "velocity": 100,
    "pitch": 60
  },
  {
    "clipIndex": 517,
    "trackId": "22",
    "clipName": null,
    "beat": 379.75,
    "relBeat": 25.75,
    "duration": 0.25,
    "velocity": 100,
    "pitch": 60
  },
  {
    "clipIndex": 519,
    "trackId": "22",
    "clipName": null,
    "beat": 379.75,
    "relBeat": 3.75,
    "duration": 0.25,
    "velocity": 100,
    "pitch": 60
  },
  {
    "clipIndex": 515,
    "trackId": "22",
    "clipName": null,
    "beat": 380,
    "relBeat": 30,
    "duration": 0.25,
    "velocity": 100,
    "pitch": 60
  },
  {
    "clipIndex": 516,
    "trackId": "22",
    "clipName": null,
    "beat": 380,
    "relBeat": 28,
    "duration": 0.25,
    "velocity": 100,
    "pitch": 60
  },
  {
    "clipIndex": 517,
    "trackId": "22",
    "clipName": null,
    "beat": 380,
    "relBeat": 26,
    "duration": 0.25,
    "velocity": 100,
    "pitch": 60
  },
  {
    "clipIndex": 518,
    "trackId": "22",
    "clipName": null,
    "beat": 380,
    "relBeat": 24,
    "duration": 0.25,
    "velocity": 100,
    "pitch": 60
  },
  {
    "clipIndex": 519,
    "trackId": "22",
    "clipName": null,
    "beat": 380,
    "relBeat": 4,
    "duration": 0.25,
    "velocity": 100,
    "pitch": 60
  },
  {
    "clipIndex": 338,
    "trackId": "55",
    "clipName": null,
    "beat": 380.25,
    "relBeat": 180.25,
    "duration": 0.25000026015651017,
    "velocity": 100,
    "pitch": 60
  },
  {
    "clipIndex": 515,
    "trackId": "22",
    "clipName": null,
    "beat": 380.25,
    "relBeat": 30.25,
    "duration": 0.25,
    "velocity": 100,
    "pitch": 60
  },
  {
    "clipIndex": 516,
    "trackId": "22",
    "clipName": null,
    "beat": 380.25,
    "relBeat": 28.25,
    "duration": 0.25,
    "velocity": 100,
    "pitch": 60
  },
  {
    "clipIndex": 517,
    "trackId": "22",
    "clipName": null,
    "beat": 380.25,
    "relBeat": 26.25,
    "duration": 0.25,
    "velocity": 100,
    "pitch": 60
  },
  {
    "clipIndex": 518,
    "trackId": "22",
    "clipName": null,
    "beat": 380.25,
    "relBeat": 24.25,
    "duration": 0.25,
    "velocity": 100,
    "pitch": 60
  },
  {
    "clipIndex": 519,
    "trackId": "22",
    "clipName": null,
    "beat": 380.25,
    "relBeat": 4.25,
    "duration": 0.25,
    "velocity": 100,
    "pitch": 60
  },
  {
    "clipIndex": 0,
    "trackId": "89",
    "clipName": null,
    "beat": 380.5,
    "relBeat": 380.5,
    "duration": 0.25,
    "velocity": 100,
    "pitch": 60
  },
  {
    "clipIndex": 515,
    "trackId": "22",
    "clipName": null,
    "beat": 380.5,
    "relBeat": 30.5,
    "duration": 0.25,
    "velocity": 100,
    "pitch": 60
  },
  {
    "clipIndex": 516,
    "trackId": "22",
    "clipName": null,
    "beat": 380.5,
    "relBeat": 28.5,
    "duration": 0.25,
    "velocity": 100,
    "pitch": 60
  },
  {
    "clipIndex": 517,
    "trackId": "22",
    "clipName": null,
    "beat": 380.5,
    "relBeat": 26.5,
    "duration": 0.25,
    "velocity": 100,
    "pitch": 60
  },
  {
    "clipIndex": 518,
    "trackId": "22",
    "clipName": null,
    "beat": 380.5,
    "relBeat": 24.5,
    "duration": 0.25,
    "velocity": 100,
    "pitch": 60
  },
  {
    "clipIndex": 519,
    "trackId": "22",
    "clipName": null,
    "beat": 380.5,
    "relBeat": 4.5,
    "duration": 0.25,
    "velocity": 100,
    "pitch": 60
  },
  {
    "clipIndex": 515,
    "trackId": "22",
    "clipName": null,
    "beat": 380.75,
    "relBeat": 30.75,
    "duration": 0.25,
    "velocity": 100,
    "pitch": 60
  },
  {
    "clipIndex": 516,
    "trackId": "22",
    "clipName": null,
    "beat": 380.75,
    "relBeat": 28.75,
    "duration": 0.25,
    "velocity": 100,
    "pitch": 60
  },
  {
    "clipIndex": 517,
    "trackId": "22",
    "clipName": null,
    "beat": 380.75,
    "relBeat": 26.75,
    "duration": 0.25,
    "velocity": 100,
    "pitch": 60
  },
  {
    "clipIndex": 518,
    "trackId": "22",
    "clipName": null,
    "beat": 380.75,
    "relBeat": 24.75,
    "duration": 0.25,
    "velocity": 100,
    "pitch": 60
  },
  {
    "clipIndex": 519,
    "trackId": "22",
    "clipName": null,
    "beat": 380.75,
    "relBeat": 4.75,
    "duration": 0.25,
    "velocity": 100,
    "pitch": 60
  },
  {
    "clipIndex": 0,
    "trackId": "89",
    "clipName": null,
    "beat": 381,
    "relBeat": 381,
    "duration": 0.25,
    "velocity": 100,
    "pitch": 60
  },
  {
    "clipIndex": 338,
    "trackId": "55",
    "clipName": null,
    "beat": 381,
    "relBeat": 181,
    "duration": 0.25000026015651017,
    "velocity": 100,
    "pitch": 60
  },
  {
    "clipIndex": 515,
    "trackId": "22",
    "clipName": null,
    "beat": 381,
    "relBeat": 31,
    "duration": 0.25,
    "velocity": 100,
    "pitch": 60
  },
  {
    "clipIndex": 516,
    "trackId": "22",
    "clipName": null,
    "beat": 381,
    "relBeat": 29,
    "duration": 0.25,
    "velocity": 100,
    "pitch": 60
  },
  {
    "clipIndex": 517,
    "trackId": "22",
    "clipName": null,
    "beat": 381,
    "relBeat": 27,
    "duration": 0.25,
    "velocity": 100,
    "pitch": 60
  },
  {
    "clipIndex": 518,
    "trackId": "22",
    "clipName": null,
    "beat": 381,
    "relBeat": 25,
    "duration": 0.25,
    "velocity": 100,
    "pitch": 60
  },
  {
    "clipIndex": 519,
    "trackId": "22",
    "clipName": null,
    "beat": 381,
    "relBeat": 5,
    "duration": 0.25,
    "velocity": 100,
    "pitch": 60
  },
  {
    "clipIndex": 515,
    "trackId": "22",
    "clipName": null,
    "beat": 381.25,
    "relBeat": 31.25,
    "duration": 0.25,
    "velocity": 100,
    "pitch": 60
  },
  {
    "clipIndex": 516,
    "trackId": "22",
    "clipName": null,
    "beat": 381.25,
    "relBeat": 29.25,
    "duration": 0.25,
    "velocity": 100,
    "pitch": 60
  },
  {
    "clipIndex": 517,
    "trackId": "22",
    "clipName": null,
    "beat": 381.25,
    "relBeat": 27.25,
    "duration": 0.25,
    "velocity": 100,
    "pitch": 60
  },
  {
    "clipIndex": 518,
    "trackId": "22",
    "clipName": null,
    "beat": 381.25,
    "relBeat": 25.25,
    "duration": 0.25,
    "velocity": 100,
    "pitch": 60
  },
  {
    "clipIndex": 519,
    "trackId": "22",
    "clipName": null,
    "beat": 381.25,
    "relBeat": 5.25,
    "duration": 0.25,
    "velocity": 100,
    "pitch": 60
  },
  {
    "clipIndex": 0,
    "trackId": "89",
    "clipName": null,
    "beat": 381.5,
    "relBeat": 381.5,
    "duration": 0.25,
    "velocity": 100,
    "pitch": 60
  },
  {
    "clipIndex": 515,
    "trackId": "22",
    "clipName": null,
    "beat": 381.5,
    "relBeat": 31.5,
    "duration": 0.25,
    "velocity": 100,
    "pitch": 60
  },
  {
    "clipIndex": 516,
    "trackId": "22",
    "clipName": null,
    "beat": 381.5,
    "relBeat": 29.5,
    "duration": 0.25,
    "velocity": 100,
    "pitch": 60
  },
  {
    "clipIndex": 517,
    "trackId": "22",
    "clipName": null,
    "beat": 381.5,
    "relBeat": 27.5,
    "duration": 0.25,
    "velocity": 100,
    "pitch": 60
  },
  {
    "clipIndex": 518,
    "trackId": "22",
    "clipName": null,
    "beat": 381.5,
    "relBeat": 25.5,
    "duration": 0.25,
    "velocity": 100,
    "pitch": 60
  },
  {
    "clipIndex": 519,
    "trackId": "22",
    "clipName": null,
    "beat": 381.5,
    "relBeat": 5.5,
    "duration": 0.25,
    "velocity": 100,
    "pitch": 60
  },
  {
    "clipIndex": 338,
    "trackId": "55",
    "clipName": null,
    "beat": 381.75,
    "relBeat": 181.75,
    "duration": 0.25000026015651017,
    "velocity": 100,
    "pitch": 60
  },
  {
    "clipIndex": 515,
    "trackId": "22",
    "clipName": null,
    "beat": 381.75,
    "relBeat": 31.75,
    "duration": 0.25,
    "velocity": 100,
    "pitch": 60
  },
  {
    "clipIndex": 516,
    "trackId": "22",
    "clipName": null,
    "beat": 381.75,
    "relBeat": 29.75,
    "duration": 0.25,
    "velocity": 100,
    "pitch": 60
  },
  {
    "clipIndex": 517,
    "trackId": "22",
    "clipName": null,
    "beat": 381.75,
    "relBeat": 27.75,
    "duration": 0.25,
    "velocity": 100,
    "pitch": 60
  },
  {
    "clipIndex": 518,
    "trackId": "22",
    "clipName": null,
    "beat": 381.75,
    "relBeat": 25.75,
    "duration": 0.25,
    "velocity": 100,
    "pitch": 60
  },
  {
    "clipIndex": 519,
    "trackId": "22",
    "clipName": null,
    "beat": 381.75,
    "relBeat": 5.75,
    "duration": 0.25,
    "velocity": 100,
    "pitch": 60
  },
  {
    "clipIndex": 0,
    "trackId": "89",
    "clipName": null,
    "beat": 382,
    "relBeat": 382,
    "duration": 0.25,
    "velocity": 100,
    "pitch": 60
  },
  {
    "clipIndex": 516,
    "trackId": "22",
    "clipName": null,
    "beat": 382,
    "relBeat": 30,
    "duration": 0.25,
    "velocity": 100,
    "pitch": 60
  },
  {
    "clipIndex": 517,
    "trackId": "22",
    "clipName": null,
    "beat": 382,
    "relBeat": 28,
    "duration": 0.25,
    "velocity": 100,
    "pitch": 60
  },
  {
    "clipIndex": 518,
    "trackId": "22",
    "clipName": null,
    "beat": 382,
    "relBeat": 26,
    "duration": 0.25,
    "velocity": 100,
    "pitch": 60
  },
  {
    "clipIndex": 516,
    "trackId": "22",
    "clipName": null,
    "beat": 382.25,
    "relBeat": 30.25,
    "duration": 0.25,
    "velocity": 100,
    "pitch": 60
  },
  {
    "clipIndex": 517,
    "trackId": "22",
    "clipName": null,
    "beat": 382.25,
    "relBeat": 28.25,
    "duration": 0.25,
    "velocity": 100,
    "pitch": 60
  },
  {
    "clipIndex": 518,
    "trackId": "22",
    "clipName": null,
    "beat": 382.25,
    "relBeat": 26.25,
    "duration": 0.25,
    "velocity": 100,
    "pitch": 60
  },
  {
    "clipIndex": 0,
    "trackId": "89",
    "clipName": null,
    "beat": 382.5,
    "relBeat": 382.5,
    "duration": 0.25,
    "velocity": 100,
    "pitch": 60
  },
  {
    "clipIndex": 338,
    "trackId": "55",
    "clipName": null,
    "beat": 382.5,
    "relBeat": 182.5,
    "duration": 0.25000026015651017,
    "velocity": 100,
    "pitch": 60
  },
  {
    "clipIndex": 516,
    "trackId": "22",
    "clipName": null,
    "beat": 382.5,
    "relBeat": 30.5,
    "duration": 0.25,
    "velocity": 100,
    "pitch": 60
  },
  {
    "clipIndex": 517,
    "trackId": "22",
    "clipName": null,
    "beat": 382.5,
    "relBeat": 28.5,
    "duration": 0.25,
    "velocity": 100,
    "pitch": 60
  },
  {
    "clipIndex": 518,
    "trackId": "22",
    "clipName": null,
    "beat": 382.5,
    "relBeat": 26.5,
    "duration": 0.25,
    "velocity": 100,
    "pitch": 60
  },
  {
    "clipIndex": 516,
    "trackId": "22",
    "clipName": null,
    "beat": 382.75,
    "relBeat": 30.75,
    "duration": 0.25,
    "velocity": 100,
    "pitch": 60
  },
  {
    "clipIndex": 517,
    "trackId": "22",
    "clipName": null,
    "beat": 382.75,
    "relBeat": 28.75,
    "duration": 0.25,
    "velocity": 100,
    "pitch": 60
  },
  {
    "clipIndex": 518,
    "trackId": "22",
    "clipName": null,
    "beat": 382.75,
    "relBeat": 26.75,
    "duration": 0.25,
    "velocity": 100,
    "pitch": 60
  },
  {
    "clipIndex": 516,
    "trackId": "22",
    "clipName": null,
    "beat": 383,
    "relBeat": 31,
    "duration": 0.25,
    "velocity": 100,
    "pitch": 60
  },
  {
    "clipIndex": 517,
    "trackId": "22",
    "clipName": null,
    "beat": 383,
    "relBeat": 29,
    "duration": 0.25,
    "velocity": 100,
    "pitch": 60
  },
  {
    "clipIndex": 518,
    "trackId": "22",
    "clipName": null,
    "beat": 383,
    "relBeat": 27,
    "duration": 0.25,
    "velocity": 100,
    "pitch": 60
  },
  {
    "clipIndex": 338,
    "trackId": "55",
    "clipName": null,
    "beat": 383.25,
    "relBeat": 183.25,
    "duration": 0.25000026015651017,
    "velocity": 100,
    "pitch": 60
  },
  {
    "clipIndex": 516,
    "trackId": "22",
    "clipName": null,
    "beat": 383.25,
    "relBeat": 31.25,
    "duration": 0.25,
    "velocity": 100,
    "pitch": 60
  },
  {
    "clipIndex": 517,
    "trackId": "22",
    "clipName": null,
    "beat": 383.25,
    "relBeat": 29.25,
    "duration": 0.25,
    "velocity": 100,
    "pitch": 60
  },
  {
    "clipIndex": 518,
    "trackId": "22",
    "clipName": null,
    "beat": 383.25,
    "relBeat": 27.25,
    "duration": 0.25,
    "velocity": 100,
    "pitch": 60
  },
  {
    "clipIndex": 348,
    "trackId": "55",
    "clipName": null,
    "beat": 383.5,
    "relBeat": 87.5,
    "duration": 0.25000026015651017,
    "velocity": 100,
    "pitch": 60
  },
  {
    "clipIndex": 516,
    "trackId": "22",
    "clipName": null,
    "beat": 383.5,
    "relBeat": 31.5,
    "duration": 0.25,
    "velocity": 100,
    "pitch": 60
  },
  {
    "clipIndex": 517,
    "trackId": "22",
    "clipName": null,
    "beat": 383.5,
    "relBeat": 29.5,
    "duration": 0.25,
    "velocity": 100,
    "pitch": 60
  },
  {
    "clipIndex": 518,
    "trackId": "22",
    "clipName": null,
    "beat": 383.5,
    "relBeat": 27.5,
    "duration": 0.25,
    "velocity": 100,
    "pitch": 60
  },
  {
    "clipIndex": 516,
    "trackId": "22",
    "clipName": null,
    "beat": 383.75,
    "relBeat": 31.75,
    "duration": 0.25,
    "velocity": 100,
    "pitch": 60
  },
  {
    "clipIndex": 517,
    "trackId": "22",
    "clipName": null,
    "beat": 383.75,
    "relBeat": 29.75,
    "duration": 0.25,
    "velocity": 100,
    "pitch": 60
  },
  {
    "clipIndex": 518,
    "trackId": "22",
    "clipName": null,
    "beat": 383.75,
    "relBeat": 27.75,
    "duration": 0.25,
    "velocity": 100,
    "pitch": 60
  },
  {
    "clipIndex": 517,
    "trackId": "22",
    "clipName": null,
    "beat": 384,
    "relBeat": 30,
    "duration": 0.25,
    "velocity": 100,
    "pitch": 60
  },
  {
    "clipIndex": 518,
    "trackId": "22",
    "clipName": null,
    "beat": 384,
    "relBeat": 28,
    "duration": 0.25,
    "velocity": 100,
    "pitch": 60
  },
  {
    "clipIndex": 517,
    "trackId": "22",
    "clipName": null,
    "beat": 384.25,
    "relBeat": 30.25,
    "duration": 0.25,
    "velocity": 100,
    "pitch": 60
  },
  {
    "clipIndex": 518,
    "trackId": "22",
    "clipName": null,
    "beat": 384.25,
    "relBeat": 28.25,
    "duration": 0.25,
    "velocity": 100,
    "pitch": 60
  },
  {
    "clipIndex": 517,
    "trackId": "22",
    "clipName": null,
    "beat": 384.5,
    "relBeat": 30.5,
    "duration": 0.25,
    "velocity": 100,
    "pitch": 60
  },
  {
    "clipIndex": 518,
    "trackId": "22",
    "clipName": null,
    "beat": 384.5,
    "relBeat": 28.5,
    "duration": 0.25,
    "velocity": 100,
    "pitch": 60
  },
  {
    "clipIndex": 0,
    "trackId": "89",
    "clipName": null,
    "beat": 384.75,
    "relBeat": 384.75,
    "duration": 0.25,
    "velocity": 100,
    "pitch": 60
  },
  {
    "clipIndex": 517,
    "trackId": "22",
    "clipName": null,
    "beat": 384.75,
    "relBeat": 30.75,
    "duration": 0.25,
    "velocity": 100,
    "pitch": 60
  },
  {
    "clipIndex": 518,
    "trackId": "22",
    "clipName": null,
    "beat": 384.75,
    "relBeat": 28.75,
    "duration": 0.25,
    "velocity": 100,
    "pitch": 60
  },
  {
    "clipIndex": 520,
    "trackId": "22",
    "clipName": null,
    "beat": 384.75,
    "relBeat": 0,
    "duration": 0.25,
    "velocity": 100,
    "pitch": 60
  },
  {
    "clipIndex": 517,
    "trackId": "22",
    "clipName": null,
    "beat": 385,
    "relBeat": 31,
    "duration": 0.25,
    "velocity": 100,
    "pitch": 60
  },
  {
    "clipIndex": 518,
    "trackId": "22",
    "clipName": null,
    "beat": 385,
    "relBeat": 29,
    "duration": 0.25,
    "velocity": 100,
    "pitch": 60
  },
  {
    "clipIndex": 519,
    "trackId": "22",
    "clipName": null,
    "beat": 385,
    "relBeat": 9,
    "duration": 0.25,
    "velocity": 100,
    "pitch": 60
  },
  {
    "clipIndex": 520,
    "trackId": "22",
    "clipName": null,
    "beat": 385,
    "relBeat": 0.25,
    "duration": 0.25,
    "velocity": 100,
    "pitch": 60
  },
  {
    "clipIndex": 517,
    "trackId": "22",
    "clipName": null,
    "beat": 385.25,
    "relBeat": 31.25,
    "duration": 0.25,
    "velocity": 100,
    "pitch": 60
  },
  {
    "clipIndex": 518,
    "trackId": "22",
    "clipName": null,
    "beat": 385.25,
    "relBeat": 29.25,
    "duration": 0.25,
    "velocity": 100,
    "pitch": 60
  },
  {
    "clipIndex": 519,
    "trackId": "22",
    "clipName": null,
    "beat": 385.25,
    "relBeat": 9.25,
    "duration": 0.25,
    "velocity": 100,
    "pitch": 60
  },
  {
    "clipIndex": 520,
    "trackId": "22",
    "clipName": null,
    "beat": 385.25,
    "relBeat": 0.5,
    "duration": 0.25,
    "velocity": 100,
    "pitch": 60
  },
  {
    "clipIndex": 0,
    "trackId": "89",
    "clipName": null,
    "beat": 385.5,
    "relBeat": 385.5,
    "duration": 0.25,
    "velocity": 100,
    "pitch": 60
  },
  {
    "clipIndex": 517,
    "trackId": "22",
    "clipName": null,
    "beat": 385.5,
    "relBeat": 31.5,
    "duration": 0.25,
    "velocity": 100,
    "pitch": 60
  },
  {
    "clipIndex": 518,
    "trackId": "22",
    "clipName": null,
    "beat": 385.5,
    "relBeat": 29.5,
    "duration": 0.25,
    "velocity": 100,
    "pitch": 60
  },
  {
    "clipIndex": 519,
    "trackId": "22",
    "clipName": null,
    "beat": 385.5,
    "relBeat": 9.5,
    "duration": 0.25,
    "velocity": 100,
    "pitch": 60
  },
  {
    "clipIndex": 520,
    "trackId": "22",
    "clipName": null,
    "beat": 385.5,
    "relBeat": 0.75,
    "duration": 0.25,
    "velocity": 100,
    "pitch": 60
  },
  {
    "clipIndex": 517,
    "trackId": "22",
    "clipName": null,
    "beat": 385.75,
    "relBeat": 31.75,
    "duration": 0.25,
    "velocity": 100,
    "pitch": 60
  },
  {
    "clipIndex": 518,
    "trackId": "22",
    "clipName": null,
    "beat": 385.75,
    "relBeat": 29.75,
    "duration": 0.25,
    "velocity": 100,
    "pitch": 60
  },
  {
    "clipIndex": 519,
    "trackId": "22",
    "clipName": null,
    "beat": 385.75,
    "relBeat": 9.75,
    "duration": 0.25,
    "velocity": 100,
    "pitch": 60
  },
  {
    "clipIndex": 520,
    "trackId": "22",
    "clipName": null,
    "beat": 385.75,
    "relBeat": 1,
    "duration": 0.25,
    "velocity": 100,
    "pitch": 60
  },
  {
    "clipIndex": 518,
    "trackId": "22",
    "clipName": null,
    "beat": 386,
    "relBeat": 30,
    "duration": 0.25,
    "velocity": 100,
    "pitch": 60
  },
  {
    "clipIndex": 519,
    "trackId": "22",
    "clipName": null,
    "beat": 386,
    "relBeat": 10,
    "duration": 0.25,
    "velocity": 100,
    "pitch": 60
  },
  {
    "clipIndex": 520,
    "trackId": "22",
    "clipName": null,
    "beat": 386,
    "relBeat": 1.25,
    "duration": 0.25,
    "velocity": 100,
    "pitch": 60
  },
  {
    "clipIndex": 0,
    "trackId": "89",
    "clipName": null,
    "beat": 386.25,
    "relBeat": 386.25,
    "duration": 0.25,
    "velocity": 100,
    "pitch": 60
  },
  {
    "clipIndex": 518,
    "trackId": "22",
    "clipName": null,
    "beat": 386.25,
    "relBeat": 30.25,
    "duration": 0.25,
    "velocity": 100,
    "pitch": 60
  },
  {
    "clipIndex": 520,
    "trackId": "22",
    "clipName": null,
    "beat": 386.25,
    "relBeat": 1.5,
    "duration": 0.25,
    "velocity": 100,
    "pitch": 60
  },
  {
    "clipIndex": 518,
    "trackId": "22",
    "clipName": null,
    "beat": 386.5,
    "relBeat": 30.5,
    "duration": 0.25,
    "velocity": 100,
    "pitch": 60
  },
  {
    "clipIndex": 520,
    "trackId": "22",
    "clipName": null,
    "beat": 386.5,
    "relBeat": 1.75,
    "duration": 0.25,
    "velocity": 100,
    "pitch": 60
  },
  {
    "clipIndex": 518,
    "trackId": "22",
    "clipName": null,
    "beat": 386.75,
    "relBeat": 30.75,
    "duration": 0.25,
    "velocity": 100,
    "pitch": 60
  },
  {
    "clipIndex": 520,
    "trackId": "22",
    "clipName": null,
    "beat": 386.75,
    "relBeat": 2,
    "duration": 0.25,
    "velocity": 100,
    "pitch": 60
  },
  {
    "clipIndex": 518,
    "trackId": "22",
    "clipName": null,
    "beat": 387,
    "relBeat": 31,
    "duration": 0.25,
    "velocity": 100,
    "pitch": 60
  },
  {
    "clipIndex": 520,
    "trackId": "22",
    "clipName": null,
    "beat": 387,
    "relBeat": 2.25,
    "duration": 0.25,
    "velocity": 100,
    "pitch": 60
  },
  {
    "clipIndex": 518,
    "trackId": "22",
    "clipName": null,
    "beat": 387.25,
    "relBeat": 31.25,
    "duration": 0.25,
    "velocity": 100,
    "pitch": 60
  },
  {
    "clipIndex": 520,
    "trackId": "22",
    "clipName": null,
    "beat": 387.25,
    "relBeat": 2.5,
    "duration": 0.25,
    "velocity": 100,
    "pitch": 60
  },
  {
    "clipIndex": 518,
    "trackId": "22",
    "clipName": null,
    "beat": 387.5,
    "relBeat": 31.5,
    "duration": 0.25,
    "velocity": 100,
    "pitch": 60
  },
  {
    "clipIndex": 520,
    "trackId": "22",
    "clipName": null,
    "beat": 387.5,
    "relBeat": 2.75,
    "duration": 0.25,
    "velocity": 100,
    "pitch": 60
  },
  {
    "clipIndex": 518,
    "trackId": "22",
    "clipName": null,
    "beat": 387.75,
    "relBeat": 31.75,
    "duration": 0.25,
    "velocity": 100,
    "pitch": 60
  },
  {
    "clipIndex": 520,
    "trackId": "22",
    "clipName": null,
    "beat": 387.75,
    "relBeat": 3,
    "duration": 0.25,
    "velocity": 100,
    "pitch": 60
  },
  {
    "clipIndex": 519,
    "trackId": "22",
    "clipName": null,
    "beat": 388,
    "relBeat": 12,
    "duration": 0.25,
    "velocity": 100,
    "pitch": 60
  },
  {
    "clipIndex": 520,
    "trackId": "22",
    "clipName": null,
    "beat": 388,
    "relBeat": 3.25,
    "duration": 0.25,
    "velocity": 100,
    "pitch": 60
  },
  {
    "clipIndex": 519,
    "trackId": "22",
    "clipName": null,
    "beat": 388.25,
    "relBeat": 12.25,
    "duration": 0.25,
    "velocity": 100,
    "pitch": 60
  },
  {
    "clipIndex": 520,
    "trackId": "22",
    "clipName": null,
    "beat": 388.25,
    "relBeat": 3.5,
    "duration": 0.25,
    "velocity": 100,
    "pitch": 60
  },
  {
    "clipIndex": 519,
    "trackId": "22",
    "clipName": null,
    "beat": 388.5,
    "relBeat": 12.5,
    "duration": 0.25,
    "velocity": 100,
    "pitch": 60
  },
  {
    "clipIndex": 520,
    "trackId": "22",
    "clipName": null,
    "beat": 388.5,
    "relBeat": 3.75,
    "duration": 0.25,
    "velocity": 100,
    "pitch": 60
  },
  {
    "clipIndex": 0,
    "trackId": "89",
    "clipName": null,
    "beat": 388.75,
    "relBeat": 388.75,
    "duration": 0.25,
    "velocity": 100,
    "pitch": 60
  },
  {
    "clipIndex": 519,
    "trackId": "22",
    "clipName": null,
    "beat": 388.75,
    "relBeat": 12.75,
    "duration": 0.25,
    "velocity": 100,
    "pitch": 60
  },
  {
    "clipIndex": 520,
    "trackId": "22",
    "clipName": null,
    "beat": 388.75,
    "relBeat": 4,
    "duration": 0.25,
    "velocity": 100,
    "pitch": 60
  },
  {
    "clipIndex": 521,
    "trackId": "22",
    "clipName": null,
    "beat": 388.75,
    "relBeat": 0,
    "duration": 0.25,
    "velocity": 100,
    "pitch": 60
  },
  {
    "clipIndex": 519,
    "trackId": "22",
    "clipName": null,
    "beat": 389,
    "relBeat": 13,
    "duration": 0.25,
    "velocity": 100,
    "pitch": 60
  },
  {
    "clipIndex": 520,
    "trackId": "22",
    "clipName": null,
    "beat": 389,
    "relBeat": 4.25,
    "duration": 0.25,
    "velocity": 100,
    "pitch": 60
  },
  {
    "clipIndex": 521,
    "trackId": "22",
    "clipName": null,
    "beat": 389,
    "relBeat": 0.25,
    "duration": 0.25,
    "velocity": 100,
    "pitch": 60
  },
  {
    "clipIndex": 519,
    "trackId": "22",
    "clipName": null,
    "beat": 389.25,
    "relBeat": 13.25,
    "duration": 0.25,
    "velocity": 100,
    "pitch": 60
  },
  {
    "clipIndex": 520,
    "trackId": "22",
    "clipName": null,
    "beat": 389.25,
    "relBeat": 4.5,
    "duration": 0.25,
    "velocity": 100,
    "pitch": 60
  },
  {
    "clipIndex": 521,
    "trackId": "22",
    "clipName": null,
    "beat": 389.25,
    "relBeat": 0.5,
    "duration": 0.25,
    "velocity": 100,
    "pitch": 60
  },
  {
    "clipIndex": 0,
    "trackId": "89",
    "clipName": null,
    "beat": 389.5,
    "relBeat": 389.5,
    "duration": 0.25,
    "velocity": 100,
    "pitch": 60
  },
  {
    "clipIndex": 519,
    "trackId": "22",
    "clipName": null,
    "beat": 389.5,
    "relBeat": 13.5,
    "duration": 0.25,
    "velocity": 100,
    "pitch": 60
  },
  {
    "clipIndex": 520,
    "trackId": "22",
    "clipName": null,
    "beat": 389.5,
    "relBeat": 4.75,
    "duration": 0.25,
    "velocity": 100,
    "pitch": 60
  },
  {
    "clipIndex": 521,
    "trackId": "22",
    "clipName": null,
    "beat": 389.5,
    "relBeat": 0.75,
    "duration": 0.25,
    "velocity": 100,
    "pitch": 60
  },
  {
    "clipIndex": 519,
    "trackId": "22",
    "clipName": null,
    "beat": 389.75,
    "relBeat": 13.75,
    "duration": 0.25,
    "velocity": 100,
    "pitch": 60
  },
  {
    "clipIndex": 520,
    "trackId": "22",
    "clipName": null,
    "beat": 389.75,
    "relBeat": 5,
    "duration": 0.25,
    "velocity": 100,
    "pitch": 60
  },
  {
    "clipIndex": 521,
    "trackId": "22",
    "clipName": null,
    "beat": 389.75,
    "relBeat": 1,
    "duration": 0.25,
    "velocity": 100,
    "pitch": 60
  },
  {
    "clipIndex": 519,
    "trackId": "22",
    "clipName": null,
    "beat": 390,
    "relBeat": 14,
    "duration": 0.25,
    "velocity": 100,
    "pitch": 60
  },
  {
    "clipIndex": 520,
    "trackId": "22",
    "clipName": null,
    "beat": 390,
    "relBeat": 5.25,
    "duration": 0.25,
    "velocity": 100,
    "pitch": 60
  },
  {
    "clipIndex": 521,
    "trackId": "22",
    "clipName": null,
    "beat": 390,
    "relBeat": 1.25,
    "duration": 0.25,
    "velocity": 100,
    "pitch": 60
  },
  {
    "clipIndex": 0,
    "trackId": "89",
    "clipName": null,
    "beat": 390.25,
    "relBeat": 390.25,
    "duration": 0.25,
    "velocity": 100,
    "pitch": 60
  },
  {
    "clipIndex": 519,
    "trackId": "22",
    "clipName": null,
    "beat": 390.25,
    "relBeat": 14.25,
    "duration": 0.25,
    "velocity": 100,
    "pitch": 60
  },
  {
    "clipIndex": 520,
    "trackId": "22",
    "clipName": null,
    "beat": 390.25,
    "relBeat": 5.5,
    "duration": 0.25,
    "velocity": 100,
    "pitch": 60
  },
  {
    "clipIndex": 521,
    "trackId": "22",
    "clipName": null,
    "beat": 390.25,
    "relBeat": 1.5,
    "duration": 0.25,
    "velocity": 100,
    "pitch": 60
  },
  {
    "clipIndex": 519,
    "trackId": "22",
    "clipName": null,
    "beat": 390.5,
    "relBeat": 14.5,
    "duration": 0.25,
    "velocity": 100,
    "pitch": 60
  },
  {
    "clipIndex": 520,
    "trackId": "22",
    "clipName": null,
    "beat": 390.5,
    "relBeat": 5.75,
    "duration": 0.25,
    "velocity": 100,
    "pitch": 60
  },
  {
    "clipIndex": 521,
    "trackId": "22",
    "clipName": null,
    "beat": 390.5,
    "relBeat": 1.75,
    "duration": 0.25,
    "velocity": 100,
    "pitch": 60
  },
  {
    "clipIndex": 519,
    "trackId": "22",
    "clipName": null,
    "beat": 390.75,
    "relBeat": 14.75,
    "duration": 0.25,
    "velocity": 100,
    "pitch": 60
  },
  {
    "clipIndex": 521,
    "trackId": "22",
    "clipName": null,
    "beat": 390.75,
    "relBeat": 2,
    "duration": 0.25,
    "velocity": 100,
    "pitch": 60
  },
  {
    "clipIndex": 343,
    "trackId": "55",
    "clipName": null,
    "beat": 391,
    "relBeat": 151,
    "duration": 0.25,
    "velocity": 100,
    "pitch": 60
  },
  {
    "clipIndex": 519,
    "trackId": "22",
    "clipName": null,
    "beat": 391,
    "relBeat": 15,
    "duration": 0.25,
    "velocity": 100,
    "pitch": 60
  },
  {
    "clipIndex": 521,
    "trackId": "22",
    "clipName": null,
    "beat": 391,
    "relBeat": 2.25,
    "duration": 0.25,
    "velocity": 100,
    "pitch": 60
  },
  {
    "clipIndex": 519,
    "trackId": "22",
    "clipName": null,
    "beat": 391.25,
    "relBeat": 15.25,
    "duration": 0.25,
    "velocity": 100,
    "pitch": 60
  },
  {
    "clipIndex": 521,
    "trackId": "22",
    "clipName": null,
    "beat": 391.25,
    "relBeat": 2.5,
    "duration": 0.25,
    "velocity": 100,
    "pitch": 60
  },
  {
    "clipIndex": 343,
    "trackId": "55",
    "clipName": null,
    "beat": 391.5,
    "relBeat": 151.5,
    "duration": 0.25,
    "velocity": 100,
    "pitch": 60
  },
  {
    "clipIndex": 349,
    "trackId": "55",
    "clipName": null,
    "beat": 391.5,
    "relBeat": 87.5,
    "duration": 0.25000026015651017,
    "velocity": 100,
    "pitch": 60
  },
  {
    "clipIndex": 519,
    "trackId": "22",
    "clipName": null,
    "beat": 391.5,
    "relBeat": 15.5,
    "duration": 0.25,
    "velocity": 100,
    "pitch": 60
  },
  {
    "clipIndex": 521,
    "trackId": "22",
    "clipName": null,
    "beat": 391.5,
    "relBeat": 2.75,
    "duration": 0.25,
    "velocity": 100,
    "pitch": 60
  },
  {
    "clipIndex": 519,
    "trackId": "22",
    "clipName": null,
    "beat": 391.75,
    "relBeat": 15.75,
    "duration": 0.25,
    "velocity": 100,
    "pitch": 60
  },
  {
    "clipIndex": 521,
    "trackId": "22",
    "clipName": null,
    "beat": 391.75,
    "relBeat": 3,
    "duration": 0.25,
    "velocity": 100,
    "pitch": 60
  },
  {
    "clipIndex": 343,
    "trackId": "55",
    "clipName": null,
    "beat": 392,
    "relBeat": 152,
    "duration": 0.25,
    "velocity": 100,
    "pitch": 60
  },
  {
    "clipIndex": 519,
    "trackId": "22",
    "clipName": null,
    "beat": 392,
    "relBeat": 16,
    "duration": 0.25,
    "velocity": 100,
    "pitch": 60
  },
  {
    "clipIndex": 521,
    "trackId": "22",
    "clipName": null,
    "beat": 392,
    "relBeat": 3.25,
    "duration": 0.25,
    "velocity": 100,
    "pitch": 60
  },
  {
    "clipIndex": 519,
    "trackId": "22",
    "clipName": null,
    "beat": 392.25,
    "relBeat": 16.25,
    "duration": 0.25,
    "velocity": 100,
    "pitch": 60
  },
  {
    "clipIndex": 521,
    "trackId": "22",
    "clipName": null,
    "beat": 392.25,
    "relBeat": 3.5,
    "duration": 0.25,
    "velocity": 100,
    "pitch": 60
  },
  {
    "clipIndex": 343,
    "trackId": "55",
    "clipName": null,
    "beat": 392.5,
    "relBeat": 152.5,
    "duration": 0.25,
    "velocity": 100,
    "pitch": 60
  },
  {
    "clipIndex": 519,
    "trackId": "22",
    "clipName": null,
    "beat": 392.5,
    "relBeat": 16.5,
    "duration": 0.25,
    "velocity": 100,
    "pitch": 60
  },
  {
    "clipIndex": 521,
    "trackId": "22",
    "clipName": null,
    "beat": 392.5,
    "relBeat": 3.75,
    "duration": 0.25,
    "velocity": 100,
    "pitch": 60
  },
  {
    "clipIndex": 0,
    "trackId": "89",
    "clipName": null,
    "beat": 392.75,
    "relBeat": 392.75,
    "duration": 0.25,
    "velocity": 100,
    "pitch": 60
  },
  {
    "clipIndex": 519,
    "trackId": "22",
    "clipName": null,
    "beat": 392.75,
    "relBeat": 16.75,
    "duration": 0.25,
    "velocity": 100,
    "pitch": 60
  },
  {
    "clipIndex": 521,
    "trackId": "22",
    "clipName": null,
    "beat": 392.75,
    "relBeat": 4,
    "duration": 0.25,
    "velocity": 100,
    "pitch": 60
  },
  {
    "clipIndex": 522,
    "trackId": "22",
    "clipName": null,
    "beat": 392.75,
    "relBeat": 0,
    "duration": 0.25,
    "velocity": 100,
    "pitch": 60
  },
  {
    "clipIndex": 343,
    "trackId": "55",
    "clipName": null,
    "beat": 393,
    "relBeat": 153,
    "duration": 0.25,
    "velocity": 100,
    "pitch": 60
  },
  {
    "clipIndex": 519,
    "trackId": "22",
    "clipName": null,
    "beat": 393,
    "relBeat": 17,
    "duration": 0.25,
    "velocity": 100,
    "pitch": 60
  },
  {
    "clipIndex": 521,
    "trackId": "22",
    "clipName": null,
    "beat": 393,
    "relBeat": 4.25,
    "duration": 0.25,
    "velocity": 100,
    "pitch": 60
  },
  {
    "clipIndex": 522,
    "trackId": "22",
    "clipName": null,
    "beat": 393,
    "relBeat": 0.25,
    "duration": 0.25,
    "velocity": 100,
    "pitch": 60
  },
  {
    "clipIndex": 519,
    "trackId": "22",
    "clipName": null,
    "beat": 393.25,
    "relBeat": 17.25,
    "duration": 0.25,
    "velocity": 100,
    "pitch": 60
  },
  {
    "clipIndex": 521,
    "trackId": "22",
    "clipName": null,
    "beat": 393.25,
    "relBeat": 4.5,
    "duration": 0.25,
    "velocity": 100,
    "pitch": 60
  },
  {
    "clipIndex": 522,
    "trackId": "22",
    "clipName": null,
    "beat": 393.25,
    "relBeat": 0.5,
    "duration": 0.25,
    "velocity": 100,
    "pitch": 60
  },
  {
    "clipIndex": 0,
    "trackId": "89",
    "clipName": null,
    "beat": 393.5,
    "relBeat": 393.5,
    "duration": 0.25,
    "velocity": 100,
    "pitch": 60
  },
  {
    "clipIndex": 343,
    "trackId": "55",
    "clipName": null,
    "beat": 393.5,
    "relBeat": 153.5,
    "duration": 0.25,
    "velocity": 100,
    "pitch": 60
  },
  {
    "clipIndex": 519,
    "trackId": "22",
    "clipName": null,
    "beat": 393.5,
    "relBeat": 17.5,
    "duration": 0.25,
    "velocity": 100,
    "pitch": 60
  },
  {
    "clipIndex": 521,
    "trackId": "22",
    "clipName": null,
    "beat": 393.5,
    "relBeat": 4.75,
    "duration": 0.25,
    "velocity": 100,
    "pitch": 60
  },
  {
    "clipIndex": 522,
    "trackId": "22",
    "clipName": null,
    "beat": 393.5,
    "relBeat": 0.75,
    "duration": 0.25,
    "velocity": 100,
    "pitch": 60
  },
  {
    "clipIndex": 519,
    "trackId": "22",
    "clipName": null,
    "beat": 393.75,
    "relBeat": 17.75,
    "duration": 0.25,
    "velocity": 100,
    "pitch": 60
  },
  {
    "clipIndex": 520,
    "trackId": "22",
    "clipName": null,
    "beat": 393.75,
    "relBeat": 9,
    "duration": 0.25,
    "velocity": 100,
    "pitch": 60
  },
  {
    "clipIndex": 521,
    "trackId": "22",
    "clipName": null,
    "beat": 393.75,
    "relBeat": 5,
    "duration": 0.25,
    "velocity": 100,
    "pitch": 60
  },
  {
    "clipIndex": 522,
    "trackId": "22",
    "clipName": null,
    "beat": 393.75,
    "relBeat": 1,
    "duration": 0.25,
    "velocity": 100,
    "pitch": 60
  },
  {
    "clipIndex": 343,
    "trackId": "55",
    "clipName": null,
    "beat": 394,
    "relBeat": 154,
    "duration": 0.25000026015651017,
    "velocity": 100,
    "pitch": 60
  },
  {
    "clipIndex": 519,
    "trackId": "22",
    "clipName": null,
    "beat": 394,
    "relBeat": 18,
    "duration": 0.25,
    "velocity": 100,
    "pitch": 60
  },
  {
    "clipIndex": 520,
    "trackId": "22",
    "clipName": null,
    "beat": 394,
    "relBeat": 9.25,
    "duration": 0.25,
    "velocity": 100,
    "pitch": 60
  },
  {
    "clipIndex": 521,
    "trackId": "22",
    "clipName": null,
    "beat": 394,
    "relBeat": 5.25,
    "duration": 0.25,
    "velocity": 100,
    "pitch": 60
  },
  {
    "clipIndex": 522,
    "trackId": "22",
    "clipName": null,
    "beat": 394,
    "relBeat": 1.25,
    "duration": 0.25,
    "velocity": 100,
    "pitch": 60
  },
  {
    "clipIndex": 0,
    "trackId": "89",
    "clipName": null,
    "beat": 394.25,
    "relBeat": 394.25,
    "duration": 0.25,
    "velocity": 100,
    "pitch": 60
  },
  {
    "clipIndex": 338,
    "trackId": "55",
    "clipName": null,
    "beat": 394.25,
    "relBeat": 194.25,
    "duration": 0.25000026015651017,
    "velocity": 100,
    "pitch": 60
  },
  {
    "clipIndex": 519,
    "trackId": "22",
    "clipName": null,
    "beat": 394.25,
    "relBeat": 18.25,
    "duration": 0.25,
    "velocity": 100,
    "pitch": 60
  },
  {
    "clipIndex": 520,
    "trackId": "22",
    "clipName": null,
    "beat": 394.25,
    "relBeat": 9.5,
    "duration": 0.25,
    "velocity": 100,
    "pitch": 60
  },
  {
    "clipIndex": 521,
    "trackId": "22",
    "clipName": null,
    "beat": 394.25,
    "relBeat": 5.5,
    "duration": 0.25,
    "velocity": 100,
    "pitch": 60
  },
  {
    "clipIndex": 522,
    "trackId": "22",
    "clipName": null,
    "beat": 394.25,
    "relBeat": 1.5,
    "duration": 0.25,
    "velocity": 100,
    "pitch": 60
  },
  {
    "clipIndex": 519,
    "trackId": "22",
    "clipName": null,
    "beat": 394.5,
    "relBeat": 18.5,
    "duration": 0.25,
    "velocity": 100,
    "pitch": 60
  },
  {
    "clipIndex": 520,
    "trackId": "22",
    "clipName": null,
    "beat": 394.5,
    "relBeat": 9.75,
    "duration": 0.25,
    "velocity": 100,
    "pitch": 60
  },
  {
    "clipIndex": 521,
    "trackId": "22",
    "clipName": null,
    "beat": 394.5,
    "relBeat": 5.75,
    "duration": 0.25,
    "velocity": 100,
    "pitch": 60
  },
  {
    "clipIndex": 522,
    "trackId": "22",
    "clipName": null,
    "beat": 394.5,
    "relBeat": 1.75,
    "duration": 0.25,
    "velocity": 100,
    "pitch": 60
  },
  {
    "clipIndex": 519,
    "trackId": "22",
    "clipName": null,
    "beat": 394.75,
    "relBeat": 18.75,
    "duration": 0.25,
    "velocity": 100,
    "pitch": 60
  },
  {
    "clipIndex": 520,
    "trackId": "22",
    "clipName": null,
    "beat": 394.75,
    "relBeat": 10,
    "duration": 0.25,
    "velocity": 100,
    "pitch": 60
  },
  {
    "clipIndex": 522,
    "trackId": "22",
    "clipName": null,
    "beat": 394.75,
    "relBeat": 2,
    "duration": 0.25,
    "velocity": 100,
    "pitch": 60
  },
  {
    "clipIndex": 519,
    "trackId": "22",
    "clipName": null,
    "beat": 395,
    "relBeat": 19,
    "duration": 0.25,
    "velocity": 100,
    "pitch": 60
  },
  {
    "clipIndex": 522,
    "trackId": "22",
    "clipName": null,
    "beat": 395,
    "relBeat": 2.25,
    "duration": 0.25,
    "velocity": 100,
    "pitch": 60
  },
  {
    "clipIndex": 343,
    "trackId": "55",
    "clipName": null,
    "beat": 395.25,
    "relBeat": 155.25,
    "duration": 0.25,
    "velocity": 100,
    "pitch": 60
  },
  {
    "clipIndex": 519,
    "trackId": "22",
    "clipName": null,
    "beat": 395.25,
    "relBeat": 19.25,
    "duration": 0.25,
    "velocity": 100,
    "pitch": 60
  },
  {
    "clipIndex": 522,
    "trackId": "22",
    "clipName": null,
    "beat": 395.25,
    "relBeat": 2.5,
    "duration": 0.25,
    "velocity": 100,
    "pitch": 60
  },
  {
    "clipIndex": 519,
    "trackId": "22",
    "clipName": null,
    "beat": 395.5,
    "relBeat": 19.5,
    "duration": 0.25,
    "velocity": 100,
    "pitch": 60
  },
  {
    "clipIndex": 522,
    "trackId": "22",
    "clipName": null,
    "beat": 395.5,
    "relBeat": 2.75,
    "duration": 0.25,
    "velocity": 100,
    "pitch": 60
  },
  {
    "clipIndex": 343,
    "trackId": "55",
    "clipName": null,
    "beat": 395.75,
    "relBeat": 155.75,
    "duration": 0.25,
    "velocity": 100,
    "pitch": 60
  },
  {
    "clipIndex": 519,
    "trackId": "22",
    "clipName": null,
    "beat": 395.75,
    "relBeat": 19.75,
    "duration": 0.25,
    "velocity": 100,
    "pitch": 60
  },
  {
    "clipIndex": 522,
    "trackId": "22",
    "clipName": null,
    "beat": 395.75,
    "relBeat": 3,
    "duration": 0.25,
    "velocity": 100,
    "pitch": 60
  },
  {
    "clipIndex": 519,
    "trackId": "22",
    "clipName": null,
    "beat": 396,
    "relBeat": 20,
    "duration": 0.25,
    "velocity": 100,
    "pitch": 60
  },
  {
    "clipIndex": 522,
    "trackId": "22",
    "clipName": null,
    "beat": 396,
    "relBeat": 3.25,
    "duration": 0.25,
    "velocity": 100,
    "pitch": 60
  },
  {
    "clipIndex": 343,
    "trackId": "55",
    "clipName": null,
    "beat": 396.25,
    "relBeat": 156.25,
    "duration": 0.25,
    "velocity": 100,
    "pitch": 60
  },
  {
    "clipIndex": 519,
    "trackId": "22",
    "clipName": null,
    "beat": 396.25,
    "relBeat": 20.25,
    "duration": 0.25,
    "velocity": 100,
    "pitch": 60
  },
  {
    "clipIndex": 522,
    "trackId": "22",
    "clipName": null,
    "beat": 396.25,
    "relBeat": 3.5,
    "duration": 0.25,
    "velocity": 100,
    "pitch": 60
  },
  {
    "clipIndex": 519,
    "trackId": "22",
    "clipName": null,
    "beat": 396.5,
    "relBeat": 20.5,
    "duration": 0.25,
    "velocity": 100,
    "pitch": 60
  },
  {
    "clipIndex": 522,
    "trackId": "22",
    "clipName": null,
    "beat": 396.5,
    "relBeat": 3.75,
    "duration": 0.25,
    "velocity": 100,
    "pitch": 60
  },
  {
    "clipIndex": 343,
    "trackId": "55",
    "clipName": null,
    "beat": 396.75,
    "relBeat": 156.75,
    "duration": 0.25,
    "velocity": 100,
    "pitch": 60
  },
  {
    "clipIndex": 519,
    "trackId": "22",
    "clipName": null,
    "beat": 396.75,
    "relBeat": 20.75,
    "duration": 0.25,
    "velocity": 100,
    "pitch": 60
  },
  {
    "clipIndex": 520,
    "trackId": "22",
    "clipName": null,
    "beat": 396.75,
    "relBeat": 12,
    "duration": 0.25,
    "velocity": 100,
    "pitch": 60
  },
  {
    "clipIndex": 522,
    "trackId": "22",
    "clipName": null,
    "beat": 396.75,
    "relBeat": 4,
    "duration": 0.25,
    "velocity": 100,
    "pitch": 60
  },
  {
    "clipIndex": 519,
    "trackId": "22",
    "clipName": null,
    "beat": 397,
    "relBeat": 21,
    "duration": 0.25,
    "velocity": 100,
    "pitch": 60
  },
  {
    "clipIndex": 520,
    "trackId": "22",
    "clipName": null,
    "beat": 397,
    "relBeat": 12.25,
    "duration": 0.25,
    "velocity": 100,
    "pitch": 60
  },
  {
    "clipIndex": 522,
    "trackId": "22",
    "clipName": null,
    "beat": 397,
    "relBeat": 4.25,
    "duration": 0.25,
    "velocity": 100,
    "pitch": 60
  },
  {
    "clipIndex": 343,
    "trackId": "55",
    "clipName": null,
    "beat": 397.25,
    "relBeat": 157.25,
    "duration": 0.25,
    "velocity": 100,
    "pitch": 60
  },
  {
    "clipIndex": 519,
    "trackId": "22",
    "clipName": null,
    "beat": 397.25,
    "relBeat": 21.25,
    "duration": 0.25,
    "velocity": 100,
    "pitch": 60
  },
  {
    "clipIndex": 520,
    "trackId": "22",
    "clipName": null,
    "beat": 397.25,
    "relBeat": 12.5,
    "duration": 0.25,
    "velocity": 100,
    "pitch": 60
  },
  {
    "clipIndex": 522,
    "trackId": "22",
    "clipName": null,
    "beat": 397.25,
    "relBeat": 4.5,
    "duration": 0.25,
    "velocity": 100,
    "pitch": 60
  },
  {
    "clipIndex": 0,
    "trackId": "89",
    "clipName": null,
    "beat": 397.5,
    "relBeat": 397.5,
    "duration": 0.25,
    "velocity": 100,
    "pitch": 60
  },
  {
    "clipIndex": 520,
    "trackId": "22",
    "clipName": null,
    "beat": 397.5,
    "relBeat": 12.75,
    "duration": 0.25,
    "velocity": 100,
    "pitch": 60
  },
  {
    "clipIndex": 522,
    "trackId": "22",
    "clipName": null,
    "beat": 397.5,
    "relBeat": 4.75,
    "duration": 0.25,
    "velocity": 100,
    "pitch": 60
  },
  {
    "clipIndex": 523,
    "trackId": "22",
    "clipName": null,
    "beat": 397.5,
    "relBeat": 0,
    "duration": 0.25,
    "velocity": 100,
    "pitch": 60
  },
  {
    "clipIndex": 520,
    "trackId": "22",
    "clipName": null,
    "beat": 397.75,
    "relBeat": 13,
    "duration": 0.25,
    "velocity": 100,
    "pitch": 60
  },
  {
    "clipIndex": 521,
    "trackId": "22",
    "clipName": null,
    "beat": 397.75,
    "relBeat": 9,
    "duration": 0.25,
    "velocity": 100,
    "pitch": 60
  },
  {
    "clipIndex": 522,
    "trackId": "22",
    "clipName": null,
    "beat": 397.75,
    "relBeat": 5,
    "duration": 0.25,
    "velocity": 100,
    "pitch": 60
  },
  {
    "clipIndex": 523,
    "trackId": "22",
    "clipName": null,
    "beat": 397.75,
    "relBeat": 0.25,
    "duration": 0.25,
    "velocity": 100,
    "pitch": 60
  },
  {
    "clipIndex": 520,
    "trackId": "22",
    "clipName": null,
    "beat": 398,
    "relBeat": 13.25,
    "duration": 0.25,
    "velocity": 100,
    "pitch": 60
  },
  {
    "clipIndex": 521,
    "trackId": "22",
    "clipName": null,
    "beat": 398,
    "relBeat": 9.25,
    "duration": 0.25,
    "velocity": 100,
    "pitch": 60
  },
  {
    "clipIndex": 522,
    "trackId": "22",
    "clipName": null,
    "beat": 398,
    "relBeat": 5.25,
    "duration": 0.25,
    "velocity": 100,
    "pitch": 60
  },
  {
    "clipIndex": 523,
    "trackId": "22",
    "clipName": null,
    "beat": 398,
    "relBeat": 0.5,
    "duration": 0.25,
    "velocity": 100,
    "pitch": 60
  },
  {
    "clipIndex": 0,
    "trackId": "89",
    "clipName": null,
    "beat": 398.25,
    "relBeat": 398.25,
    "duration": 0.25,
    "velocity": 100,
    "pitch": 60
  },
  {
    "clipIndex": 338,
    "trackId": "55",
    "clipName": null,
    "beat": 398.25,
    "relBeat": 198.25,
    "duration": 0.25000026015651017,
    "velocity": 100,
    "pitch": 60
  },
  {
    "clipIndex": 520,
    "trackId": "22",
    "clipName": null,
    "beat": 398.25,
    "relBeat": 13.5,
    "duration": 0.25,
    "velocity": 100,
    "pitch": 60
  },
  {
    "clipIndex": 521,
    "trackId": "22",
    "clipName": null,
    "beat": 398.25,
    "relBeat": 9.5,
    "duration": 0.25,
    "velocity": 100,
    "pitch": 60
  },
  {
    "clipIndex": 522,
    "trackId": "22",
    "clipName": null,
    "beat": 398.25,
    "relBeat": 5.5,
    "duration": 0.25,
    "velocity": 100,
    "pitch": 60
  },
  {
    "clipIndex": 523,
    "trackId": "22",
    "clipName": null,
    "beat": 398.25,
    "relBeat": 0.75,
    "duration": 0.25,
    "velocity": 100,
    "pitch": 60
  },
  {
    "clipIndex": 520,
    "trackId": "22",
    "clipName": null,
    "beat": 398.5,
    "relBeat": 13.75,
    "duration": 0.25,
    "velocity": 100,
    "pitch": 60
  },
  {
    "clipIndex": 521,
    "trackId": "22",
    "clipName": null,
    "beat": 398.5,
    "relBeat": 9.75,
    "duration": 0.25,
    "velocity": 100,
    "pitch": 60
  },
  {
    "clipIndex": 522,
    "trackId": "22",
    "clipName": null,
    "beat": 398.5,
    "relBeat": 5.75,
    "duration": 0.25,
    "velocity": 100,
    "pitch": 60
  },
  {
    "clipIndex": 523,
    "trackId": "22",
    "clipName": null,
    "beat": 398.5,
    "relBeat": 1,
    "duration": 0.25,
    "velocity": 100,
    "pitch": 60
  },
  {
    "clipIndex": 520,
    "trackId": "22",
    "clipName": null,
    "beat": 398.75,
    "relBeat": 14,
    "duration": 0.25,
    "velocity": 100,
    "pitch": 60
  },
  {
    "clipIndex": 521,
    "trackId": "22",
    "clipName": null,
    "beat": 398.75,
    "relBeat": 10,
    "duration": 0.25,
    "velocity": 100,
    "pitch": 60
  },
  {
    "clipIndex": 523,
    "trackId": "22",
    "clipName": null,
    "beat": 398.75,
    "relBeat": 1.25,
    "duration": 0.25,
    "velocity": 100,
    "pitch": 60
  },
  {
    "clipIndex": 520,
    "trackId": "22",
    "clipName": null,
    "beat": 399,
    "relBeat": 14.25,
    "duration": 0.25,
    "velocity": 100,
    "pitch": 60
  },
  {
    "clipIndex": 523,
    "trackId": "22",
    "clipName": null,
    "beat": 399,
    "relBeat": 1.5,
    "duration": 0.25,
    "velocity": 100,
    "pitch": 60
  },
  {
    "clipIndex": 343,
    "trackId": "55",
    "clipName": null,
    "beat": 399.25,
    "relBeat": 159.25,
    "duration": 0.25,
    "velocity": 100,
    "pitch": 60
  },
  {
    "clipIndex": 520,
    "trackId": "22",
    "clipName": null,
    "beat": 399.25,
    "relBeat": 14.5,
    "duration": 0.25,
    "velocity": 100,
    "pitch": 60
  },
  {
    "clipIndex": 523,
    "trackId": "22",
    "clipName": null,
    "beat": 399.25,
    "relBeat": 1.75,
    "duration": 0.25,
    "velocity": 100,
    "pitch": 60
  },
  {
    "clipIndex": 520,
    "trackId": "22",
    "clipName": null,
    "beat": 399.5,
    "relBeat": 14.75,
    "duration": 0.25,
    "velocity": 100,
    "pitch": 60
  },
  {
    "clipIndex": 523,
    "trackId": "22",
    "clipName": null,
    "beat": 399.5,
    "relBeat": 2,
    "duration": 0.25,
    "velocity": 100,
    "pitch": 60
  },
  {
    "clipIndex": 343,
    "trackId": "55",
    "clipName": null,
    "beat": 399.75,
    "relBeat": 159.75,
    "duration": 0.25,
    "velocity": 100,
    "pitch": 60
  },
  {
    "clipIndex": 520,
    "trackId": "22",
    "clipName": null,
    "beat": 399.75,
    "relBeat": 15,
    "duration": 0.25,
    "velocity": 100,
    "pitch": 60
  },
  {
    "clipIndex": 523,
    "trackId": "22",
    "clipName": null,
    "beat": 399.75,
    "relBeat": 2.25,
    "duration": 0.25,
    "velocity": 100,
    "pitch": 60
  },
  {
    "clipIndex": 519,
    "trackId": "22",
    "clipName": null,
    "beat": 400,
    "relBeat": 24,
    "duration": 0.25,
    "velocity": 100,
    "pitch": 60
  },
  {
    "clipIndex": 520,
    "trackId": "22",
    "clipName": null,
    "beat": 400,
    "relBeat": 15.25,
    "duration": 0.25,
    "velocity": 100,
    "pitch": 60
  },
  {
    "clipIndex": 523,
    "trackId": "22",
    "clipName": null,
    "beat": 400,
    "relBeat": 2.5,
    "duration": 0.25,
    "velocity": 100,
    "pitch": 60
  },
  {
    "clipIndex": 343,
    "trackId": "55",
    "clipName": null,
    "beat": 400.25,
    "relBeat": 160.25,
    "duration": 0.25,
    "velocity": 100,
    "pitch": 60
  },
  {
    "clipIndex": 519,
    "trackId": "22",
    "clipName": null,
    "beat": 400.25,
    "relBeat": 24.25,
    "duration": 0.25,
    "velocity": 100,
    "pitch": 60
  },
  {
    "clipIndex": 520,
    "trackId": "22",
    "clipName": null,
    "beat": 400.25,
    "relBeat": 15.5,
    "duration": 0.25,
    "velocity": 100,
    "pitch": 60
  },
  {
    "clipIndex": 523,
    "trackId": "22",
    "clipName": null,
    "beat": 400.25,
    "relBeat": 2.75,
    "duration": 0.25,
    "velocity": 100,
    "pitch": 60
  },
  {
    "clipIndex": 519,
    "trackId": "22",
    "clipName": null,
    "beat": 400.5,
    "relBeat": 24.5,
    "duration": 0.25,
    "velocity": 100,
    "pitch": 60
  },
  {
    "clipIndex": 520,
    "trackId": "22",
    "clipName": null,
    "beat": 400.5,
    "relBeat": 15.75,
    "duration": 0.25,
    "velocity": 100,
    "pitch": 60
  },
  {
    "clipIndex": 523,
    "trackId": "22",
    "clipName": null,
    "beat": 400.5,
    "relBeat": 3,
    "duration": 0.25,
    "velocity": 100,
    "pitch": 60
  },
  {
    "clipIndex": 519,
    "trackId": "22",
    "clipName": null,
    "beat": 400.75,
    "relBeat": 24.75,
    "duration": 0.25,
    "velocity": 100,
    "pitch": 60
  },
  {
    "clipIndex": 520,
    "trackId": "22",
    "clipName": null,
    "beat": 400.75,
    "relBeat": 16,
    "duration": 0.25,
    "velocity": 100,
    "pitch": 60
  },
  {
    "clipIndex": 521,
    "trackId": "22",
    "clipName": null,
    "beat": 400.75,
    "relBeat": 12,
    "duration": 0.25,
    "velocity": 100,
    "pitch": 60
  },
  {
    "clipIndex": 523,
    "trackId": "22",
    "clipName": null,
    "beat": 400.75,
    "relBeat": 3.25,
    "duration": 0.25,
    "velocity": 100,
    "pitch": 60
  },
  {
    "clipIndex": 519,
    "trackId": "22",
    "clipName": null,
    "beat": 401,
    "relBeat": 25,
    "duration": 0.25,
    "velocity": 100,
    "pitch": 60
  },
  {
    "clipIndex": 520,
    "trackId": "22",
    "clipName": null,
    "beat": 401,
    "relBeat": 16.25,
    "duration": 0.25,
    "velocity": 100,
    "pitch": 60
  },
  {
    "clipIndex": 521,
    "trackId": "22",
    "clipName": null,
    "beat": 401,
    "relBeat": 12.25,
    "duration": 0.25,
    "velocity": 100,
    "pitch": 60
  },
  {
    "clipIndex": 523,
    "trackId": "22",
    "clipName": null,
    "beat": 401,
    "relBeat": 3.5,
    "duration": 0.25,
    "velocity": 100,
    "pitch": 60
  },
  {
    "clipIndex": 348,
    "trackId": "55",
    "clipName": null,
    "beat": 401.25,
    "relBeat": 105.25,
    "duration": 0.25000026015651017,
    "velocity": 100,
    "pitch": 60
  },
  {
    "clipIndex": 519,
    "trackId": "22",
    "clipName": null,
    "beat": 401.25,
    "relBeat": 25.25,
    "duration": 0.25,
    "velocity": 100,
    "pitch": 60
  },
  {
    "clipIndex": 520,
    "trackId": "22",
    "clipName": null,
    "beat": 401.25,
    "relBeat": 16.5,
    "duration": 0.25,
    "velocity": 100,
    "pitch": 60
  },
  {
    "clipIndex": 521,
    "trackId": "22",
    "clipName": null,
    "beat": 401.25,
    "relBeat": 12.5,
    "duration": 0.25,
    "velocity": 100,
    "pitch": 60
  },
  {
    "clipIndex": 523,
    "trackId": "22",
    "clipName": null,
    "beat": 401.25,
    "relBeat": 3.75,
    "duration": 0.25,
    "velocity": 100,
    "pitch": 60
  },
  {
    "clipIndex": 0,
    "trackId": "89",
    "clipName": null,
    "beat": 401.5,
    "relBeat": 401.5,
    "duration": 0.25,
    "velocity": 100,
    "pitch": 60
  },
  {
    "clipIndex": 519,
    "trackId": "22",
    "clipName": null,
    "beat": 401.5,
    "relBeat": 25.5,
    "duration": 0.25,
    "velocity": 100,
    "pitch": 60
  },
  {
    "clipIndex": 520,
    "trackId": "22",
    "clipName": null,
    "beat": 401.5,
    "relBeat": 16.75,
    "duration": 0.25,
    "velocity": 100,
    "pitch": 60
  },
  {
    "clipIndex": 521,
    "trackId": "22",
    "clipName": null,
    "beat": 401.5,
    "relBeat": 12.75,
    "duration": 0.25,
    "velocity": 100,
    "pitch": 60
  },
  {
    "clipIndex": 523,
    "trackId": "22",
    "clipName": null,
    "beat": 401.5,
    "relBeat": 4,
    "duration": 0.25,
    "velocity": 100,
    "pitch": 60
  },
  {
    "clipIndex": 524,
    "trackId": "22",
    "clipName": null,
    "beat": 401.5,
    "relBeat": 0,
    "duration": 0.25,
    "velocity": 100,
    "pitch": 60
  },
  {
    "clipIndex": 343,
    "trackId": "55",
    "clipName": null,
    "beat": 401.75,
    "relBeat": 161.75,
    "duration": 0.25,
    "velocity": 100,
    "pitch": 60
  },
  {
    "clipIndex": 519,
    "trackId": "22",
    "clipName": null,
    "beat": 401.75,
    "relBeat": 25.75,
    "duration": 0.25,
    "velocity": 100,
    "pitch": 60
  },
  {
    "clipIndex": 520,
    "trackId": "22",
    "clipName": null,
    "beat": 401.75,
    "relBeat": 17,
    "duration": 0.25,
    "velocity": 100,
    "pitch": 60
  },
  {
    "clipIndex": 521,
    "trackId": "22",
    "clipName": null,
    "beat": 401.75,
    "relBeat": 13,
    "duration": 0.25,
    "velocity": 100,
    "pitch": 60
  },
  {
    "clipIndex": 522,
    "trackId": "22",
    "clipName": null,
    "beat": 401.75,
    "relBeat": 9,
    "duration": 0.25,
    "velocity": 100,
    "pitch": 60
  },
  {
    "clipIndex": 523,
    "trackId": "22",
    "clipName": null,
    "beat": 401.75,
    "relBeat": 4.25,
    "duration": 0.25,
    "velocity": 100,
    "pitch": 60
  },
  {
    "clipIndex": 524,
    "trackId": "22",
    "clipName": null,
    "beat": 401.75,
    "relBeat": 0.25,
    "duration": 0.25,
    "velocity": 100,
    "pitch": 60
  },
  {
    "clipIndex": 348,
    "trackId": "55",
    "clipName": null,
    "beat": 402,
    "relBeat": 106,
    "duration": 0.25000026015651017,
    "velocity": 100,
    "pitch": 60
  },
  {
    "clipIndex": 519,
    "trackId": "22",
    "clipName": null,
    "beat": 402,
    "relBeat": 26,
    "duration": 0.25,
    "velocity": 100,
    "pitch": 60
  },
  {
    "clipIndex": 520,
    "trackId": "22",
    "clipName": null,
    "beat": 402,
    "relBeat": 17.25,
    "duration": 0.25,
    "velocity": 100,
    "pitch": 60
  },
  {
    "clipIndex": 521,
    "trackId": "22",
    "clipName": null,
    "beat": 402,
    "relBeat": 13.25,
    "duration": 0.25,
    "velocity": 100,
    "pitch": 60
  },
  {
    "clipIndex": 522,
    "trackId": "22",
    "clipName": null,
    "beat": 402,
    "relBeat": 9.25,
    "duration": 0.25,
    "velocity": 100,
    "pitch": 60
  },
  {
    "clipIndex": 523,
    "trackId": "22",
    "clipName": null,
    "beat": 402,
    "relBeat": 4.5,
    "duration": 0.25,
    "velocity": 100,
    "pitch": 60
  },
  {
    "clipIndex": 524,
    "trackId": "22",
    "clipName": null,
    "beat": 402,
    "relBeat": 0.5,
    "duration": 0.25,
    "velocity": 100,
    "pitch": 60
  },
  {
    "clipIndex": 0,
    "trackId": "89",
    "clipName": null,
    "beat": 402.25,
    "relBeat": 402.25,
    "duration": 0.25,
    "velocity": 100,
    "pitch": 60
  },
  {
    "clipIndex": 338,
    "trackId": "55",
    "clipName": null,
    "beat": 402.25,
    "relBeat": 202.25,
    "duration": 0.25000026015651017,
    "velocity": 100,
    "pitch": 60
  },
  {
    "clipIndex": 343,
    "trackId": "55",
    "clipName": null,
    "beat": 402.25,
    "relBeat": 162.25,
    "duration": 0.25,
    "velocity": 100,
    "pitch": 60
  },
  {
    "clipIndex": 519,
    "trackId": "22",
    "clipName": null,
    "beat": 402.25,
    "relBeat": 26.25,
    "duration": 0.25,
    "velocity": 100,
    "pitch": 60
  },
  {
    "clipIndex": 520,
    "trackId": "22",
    "clipName": null,
    "beat": 402.25,
    "relBeat": 17.5,
    "duration": 0.25,
    "velocity": 100,
    "pitch": 60
  },
  {
    "clipIndex": 521,
    "trackId": "22",
    "clipName": null,
    "beat": 402.25,
    "relBeat": 13.5,
    "duration": 0.25,
    "velocity": 100,
    "pitch": 60
  },
  {
    "clipIndex": 522,
    "trackId": "22",
    "clipName": null,
    "beat": 402.25,
    "relBeat": 9.5,
    "duration": 0.25,
    "velocity": 100,
    "pitch": 60
  },
  {
    "clipIndex": 523,
    "trackId": "22",
    "clipName": null,
    "beat": 402.25,
    "relBeat": 4.75,
    "duration": 0.25,
    "velocity": 100,
    "pitch": 60
  },
  {
    "clipIndex": 524,
    "trackId": "22",
    "clipName": null,
    "beat": 402.25,
    "relBeat": 0.75,
    "duration": 0.25,
    "velocity": 100,
    "pitch": 60
  },
  {
    "clipIndex": 519,
    "trackId": "22",
    "clipName": null,
    "beat": 402.5,
    "relBeat": 26.5,
    "duration": 0.25,
    "velocity": 100,
    "pitch": 60
  },
  {
    "clipIndex": 520,
    "trackId": "22",
    "clipName": null,
    "beat": 402.5,
    "relBeat": 17.75,
    "duration": 0.25,
    "velocity": 100,
    "pitch": 60
  },
  {
    "clipIndex": 521,
    "trackId": "22",
    "clipName": null,
    "beat": 402.5,
    "relBeat": 13.75,
    "duration": 0.25,
    "velocity": 100,
    "pitch": 60
  },
  {
    "clipIndex": 522,
    "trackId": "22",
    "clipName": null,
    "beat": 402.5,
    "relBeat": 9.75,
    "duration": 0.25,
    "velocity": 100,
    "pitch": 60
  },
  {
    "clipIndex": 523,
    "trackId": "22",
    "clipName": null,
    "beat": 402.5,
    "relBeat": 5,
    "duration": 0.25,
    "velocity": 100,
    "pitch": 60
  },
  {
    "clipIndex": 524,
    "trackId": "22",
    "clipName": null,
    "beat": 402.5,
    "relBeat": 1,
    "duration": 0.25,
    "velocity": 100,
    "pitch": 60
  },
  {
    "clipIndex": 343,
    "trackId": "55",
    "clipName": null,
    "beat": 402.75,
    "relBeat": 162.75,
    "duration": 0.25,
    "velocity": 100,
    "pitch": 60
  },
  {
    "clipIndex": 348,
    "trackId": "55",
    "clipName": null,
    "beat": 402.75,
    "relBeat": 106.75,
    "duration": 0.25000026015651017,
    "velocity": 100,
    "pitch": 60
  },
  {
    "clipIndex": 519,
    "trackId": "22",
    "clipName": null,
    "beat": 402.75,
    "relBeat": 26.75,
    "duration": 0.25,
    "velocity": 100,
    "pitch": 60
  },
  {
    "clipIndex": 520,
    "trackId": "22",
    "clipName": null,
    "beat": 402.75,
    "relBeat": 18,
    "duration": 0.25,
    "velocity": 100,
    "pitch": 60
  },
  {
    "clipIndex": 521,
    "trackId": "22",
    "clipName": null,
    "beat": 402.75,
    "relBeat": 14,
    "duration": 0.25,
    "velocity": 100,
    "pitch": 60
  },
  {
    "clipIndex": 522,
    "trackId": "22",
    "clipName": null,
    "beat": 402.75,
    "relBeat": 10,
    "duration": 0.25,
    "velocity": 100,
    "pitch": 60
  },
  {
    "clipIndex": 523,
    "trackId": "22",
    "clipName": null,
    "beat": 402.75,
    "relBeat": 5.25,
    "duration": 0.25,
    "velocity": 100,
    "pitch": 60
  },
  {
    "clipIndex": 524,
    "trackId": "22",
    "clipName": null,
    "beat": 402.75,
    "relBeat": 1.25,
    "duration": 0.25,
    "velocity": 100,
    "pitch": 60
  },
  {
    "clipIndex": 519,
    "trackId": "22",
    "clipName": null,
    "beat": 403,
    "relBeat": 27,
    "duration": 0.25,
    "velocity": 100,
    "pitch": 60
  },
  {
    "clipIndex": 520,
    "trackId": "22",
    "clipName": null,
    "beat": 403,
    "relBeat": 18.25,
    "duration": 0.25,
    "velocity": 100,
    "pitch": 60
  },
  {
    "clipIndex": 521,
    "trackId": "22",
    "clipName": null,
    "beat": 403,
    "relBeat": 14.25,
    "duration": 0.25,
    "velocity": 100,
    "pitch": 60
  },
  {
    "clipIndex": 523,
    "trackId": "22",
    "clipName": null,
    "beat": 403,
    "relBeat": 5.5,
    "duration": 0.25,
    "velocity": 100,
    "pitch": 60
  },
  {
    "clipIndex": 524,
    "trackId": "22",
    "clipName": null,
    "beat": 403,
    "relBeat": 1.5,
    "duration": 0.25,
    "velocity": 100,
    "pitch": 60
  },
  {
    "clipIndex": 343,
    "trackId": "55",
    "clipName": null,
    "beat": 403.25,
    "relBeat": 163.25,
    "duration": 0.25,
    "velocity": 100,
    "pitch": 60
  },
  {
    "clipIndex": 519,
    "trackId": "22",
    "clipName": null,
    "beat": 403.25,
    "relBeat": 27.25,
    "duration": 0.25,
    "velocity": 100,
    "pitch": 60
  },
  {
    "clipIndex": 520,
    "trackId": "22",
    "clipName": null,
    "beat": 403.25,
    "relBeat": 18.5,
    "duration": 0.25,
    "velocity": 100,
    "pitch": 60
  },
  {
    "clipIndex": 521,
    "trackId": "22",
    "clipName": null,
    "beat": 403.25,
    "relBeat": 14.5,
    "duration": 0.25,
    "velocity": 100,
    "pitch": 60
  },
  {
    "clipIndex": 523,
    "trackId": "22",
    "clipName": null,
    "beat": 403.25,
    "relBeat": 5.75,
    "duration": 0.25,
    "velocity": 100,
    "pitch": 60
  },
  {
    "clipIndex": 524,
    "trackId": "22",
    "clipName": null,
    "beat": 403.25,
    "relBeat": 1.75,
    "duration": 0.25,
    "velocity": 100,
    "pitch": 60
  },
  {
    "clipIndex": 348,
    "trackId": "55",
    "clipName": null,
    "beat": 403.5,
    "relBeat": 107.5,
    "duration": 0.25000026015651017,
    "velocity": 100,
    "pitch": 60
  },
  {
    "clipIndex": 519,
    "trackId": "22",
    "clipName": null,
    "beat": 403.5,
    "relBeat": 27.5,
    "duration": 0.25,
    "velocity": 100,
    "pitch": 60
  },
  {
    "clipIndex": 520,
    "trackId": "22",
    "clipName": null,
    "beat": 403.5,
    "relBeat": 18.75,
    "duration": 0.25,
    "velocity": 100,
    "pitch": 60
  },
  {
    "clipIndex": 521,
    "trackId": "22",
    "clipName": null,
    "beat": 403.5,
    "relBeat": 14.75,
    "duration": 0.25,
    "velocity": 100,
    "pitch": 60
  },
  {
    "clipIndex": 524,
    "trackId": "22",
    "clipName": null,
    "beat": 403.5,
    "relBeat": 2,
    "duration": 0.25,
    "velocity": 100,
    "pitch": 60
  },
  {
    "clipIndex": 343,
    "trackId": "55",
    "clipName": null,
    "beat": 403.75,
    "relBeat": 163.75,
    "duration": 0.25,
    "velocity": 100,
    "pitch": 60
  },
  {
    "clipIndex": 519,
    "trackId": "22",
    "clipName": null,
    "beat": 403.75,
    "relBeat": 27.75,
    "duration": 0.25,
    "velocity": 100,
    "pitch": 60
  },
  {
    "clipIndex": 520,
    "trackId": "22",
    "clipName": null,
    "beat": 403.75,
    "relBeat": 19,
    "duration": 0.25,
    "velocity": 100,
    "pitch": 60
  },
  {
    "clipIndex": 521,
    "trackId": "22",
    "clipName": null,
    "beat": 403.75,
    "relBeat": 15,
    "duration": 0.25,
    "velocity": 100,
    "pitch": 60
  },
  {
    "clipIndex": 524,
    "trackId": "22",
    "clipName": null,
    "beat": 403.75,
    "relBeat": 2.25,
    "duration": 0.25,
    "velocity": 100,
    "pitch": 60
  },
  {
    "clipIndex": 519,
    "trackId": "22",
    "clipName": null,
    "beat": 404,
    "relBeat": 28,
    "duration": 0.25,
    "velocity": 100,
    "pitch": 60
  },
  {
    "clipIndex": 520,
    "trackId": "22",
    "clipName": null,
    "beat": 404,
    "relBeat": 19.25,
    "duration": 0.25,
    "velocity": 100,
    "pitch": 60
  },
  {
    "clipIndex": 521,
    "trackId": "22",
    "clipName": null,
    "beat": 404,
    "relBeat": 15.25,
    "duration": 0.25,
    "velocity": 100,
    "pitch": 60
  },
  {
    "clipIndex": 524,
    "trackId": "22",
    "clipName": null,
    "beat": 404,
    "relBeat": 2.5,
    "duration": 0.25,
    "velocity": 100,
    "pitch": 60
  },
  {
    "clipIndex": 343,
    "trackId": "55",
    "clipName": null,
    "beat": 404.25,
    "relBeat": 164.25,
    "duration": 0.25,
    "velocity": 100,
    "pitch": 60
  },
  {
    "clipIndex": 348,
    "trackId": "55",
    "clipName": null,
    "beat": 404.25,
    "relBeat": 108.25,
    "duration": 0.25000026015651017,
    "velocity": 100,
    "pitch": 60
  },
  {
    "clipIndex": 519,
    "trackId": "22",
    "clipName": null,
    "beat": 404.25,
    "relBeat": 28.25,
    "duration": 0.25,
    "velocity": 100,
    "pitch": 60
  },
  {
    "clipIndex": 520,
    "trackId": "22",
    "clipName": null,
    "beat": 404.25,
    "relBeat": 19.5,
    "duration": 0.25,
    "velocity": 100,
    "pitch": 60
  },
  {
    "clipIndex": 521,
    "trackId": "22",
    "clipName": null,
    "beat": 404.25,
    "relBeat": 15.5,
    "duration": 0.25,
    "velocity": 100,
    "pitch": 60
  },
  {
    "clipIndex": 524,
    "trackId": "22",
    "clipName": null,
    "beat": 404.25,
    "relBeat": 2.75,
    "duration": 0.25,
    "velocity": 100,
    "pitch": 60
  },
  {
    "clipIndex": 519,
    "trackId": "22",
    "clipName": null,
    "beat": 404.5,
    "relBeat": 28.5,
    "duration": 0.25,
    "velocity": 100,
    "pitch": 60
  },
  {
    "clipIndex": 520,
    "trackId": "22",
    "clipName": null,
    "beat": 404.5,
    "relBeat": 19.75,
    "duration": 0.25,
    "velocity": 100,
    "pitch": 60
  },
  {
    "clipIndex": 521,
    "trackId": "22",
    "clipName": null,
    "beat": 404.5,
    "relBeat": 15.75,
    "duration": 0.25,
    "velocity": 100,
    "pitch": 60
  },
  {
    "clipIndex": 524,
    "trackId": "22",
    "clipName": null,
    "beat": 404.5,
    "relBeat": 3,
    "duration": 0.25,
    "velocity": 100,
    "pitch": 60
  },
  {
    "clipIndex": 343,
    "trackId": "55",
    "clipName": null,
    "beat": 404.75,
    "relBeat": 164.75,
    "duration": 0.25000026015651017,
    "velocity": 100,
    "pitch": 60
  },
  {
    "clipIndex": 519,
    "trackId": "22",
    "clipName": null,
    "beat": 404.75,
    "relBeat": 28.75,
    "duration": 0.25,
    "velocity": 100,
    "pitch": 60
  },
  {
    "clipIndex": 520,
    "trackId": "22",
    "clipName": null,
    "beat": 404.75,
    "relBeat": 20,
    "duration": 0.25,
    "velocity": 100,
    "pitch": 60
  },
  {
    "clipIndex": 521,
    "trackId": "22",
    "clipName": null,
    "beat": 404.75,
    "relBeat": 16,
    "duration": 0.25,
    "velocity": 100,
    "pitch": 60
  },
  {
    "clipIndex": 522,
    "trackId": "22",
    "clipName": null,
    "beat": 404.75,
    "relBeat": 12,
    "duration": 0.25,
    "velocity": 100,
    "pitch": 60
  },
  {
    "clipIndex": 524,
    "trackId": "22",
    "clipName": null,
    "beat": 404.75,
    "relBeat": 3.25,
    "duration": 0.25,
    "velocity": 100,
    "pitch": 60
  },
  {
    "clipIndex": 348,
    "trackId": "55",
    "clipName": null,
    "beat": 405,
    "relBeat": 109,
    "duration": 0.25000026015651017,
    "velocity": 100,
    "pitch": 60
  },
  {
    "clipIndex": 519,
    "trackId": "22",
    "clipName": null,
    "beat": 405,
    "relBeat": 29,
    "duration": 0.25,
    "velocity": 100,
    "pitch": 60
  },
  {
    "clipIndex": 520,
    "trackId": "22",
    "clipName": null,
    "beat": 405,
    "relBeat": 20.25,
    "duration": 0.25,
    "velocity": 100,
    "pitch": 60
  },
  {
    "clipIndex": 521,
    "trackId": "22",
    "clipName": null,
    "beat": 405,
    "relBeat": 16.25,
    "duration": 0.25,
    "velocity": 100,
    "pitch": 60
  },
  {
    "clipIndex": 522,
    "trackId": "22",
    "clipName": null,
    "beat": 405,
    "relBeat": 12.25,
    "duration": 0.25,
    "velocity": 100,
    "pitch": 60
  },
  {
    "clipIndex": 524,
    "trackId": "22",
    "clipName": null,
    "beat": 405,
    "relBeat": 3.5,
    "duration": 0.25,
    "velocity": 100,
    "pitch": 60
  },
  {
    "clipIndex": 519,
    "trackId": "22",
    "clipName": null,
    "beat": 405.25,
    "relBeat": 29.25,
    "duration": 0.25,
    "velocity": 100,
    "pitch": 60
  },
  {
    "clipIndex": 520,
    "trackId": "22",
    "clipName": null,
    "beat": 405.25,
    "relBeat": 20.5,
    "duration": 0.25,
    "velocity": 100,
    "pitch": 60
  },
  {
    "clipIndex": 521,
    "trackId": "22",
    "clipName": null,
    "beat": 405.25,
    "relBeat": 16.5,
    "duration": 0.25,
    "velocity": 100,
    "pitch": 60
  },
  {
    "clipIndex": 522,
    "trackId": "22",
    "clipName": null,
    "beat": 405.25,
    "relBeat": 12.5,
    "duration": 0.25,
    "velocity": 100,
    "pitch": 60
  },
  {
    "clipIndex": 524,
    "trackId": "22",
    "clipName": null,
    "beat": 405.25,
    "relBeat": 3.75,
    "duration": 0.25,
    "velocity": 100,
    "pitch": 60
  },
  {
    "clipIndex": 0,
    "trackId": "89",
    "clipName": null,
    "beat": 405.5,
    "relBeat": 405.5,
    "duration": 0.25,
    "velocity": 100,
    "pitch": 60
  },
  {
    "clipIndex": 519,
    "trackId": "22",
    "clipName": null,
    "beat": 405.5,
    "relBeat": 29.5,
    "duration": 0.25,
    "velocity": 100,
    "pitch": 60
  },
  {
    "clipIndex": 520,
    "trackId": "22",
    "clipName": null,
    "beat": 405.5,
    "relBeat": 20.75,
    "duration": 0.25,
    "velocity": 100,
    "pitch": 60
  },
  {
    "clipIndex": 521,
    "trackId": "22",
    "clipName": null,
    "beat": 405.5,
    "relBeat": 16.75,
    "duration": 0.25,
    "velocity": 100,
    "pitch": 60
  },
  {
    "clipIndex": 522,
    "trackId": "22",
    "clipName": null,
    "beat": 405.5,
    "relBeat": 12.75,
    "duration": 0.25,
    "velocity": 100,
    "pitch": 60
  },
  {
    "clipIndex": 524,
    "trackId": "22",
    "clipName": null,
    "beat": 405.5,
    "relBeat": 4,
    "duration": 0.25,
    "velocity": 100,
    "pitch": 60
  },
  {
    "clipIndex": 525,
    "trackId": "22",
    "clipName": null,
    "beat": 405.5,
    "relBeat": 0,
    "duration": 0.25,
    "velocity": 100,
    "pitch": 60
  },
  {
    "clipIndex": 348,
    "trackId": "55",
    "clipName": null,
    "beat": 405.75,
    "relBeat": 109.75,
    "duration": 0.25000026015651017,
    "velocity": 100,
    "pitch": 60
  },
  {
    "clipIndex": 519,
    "trackId": "22",
    "clipName": null,
    "beat": 405.75,
    "relBeat": 29.75,
    "duration": 0.25,
    "velocity": 100,
    "pitch": 60
  },
  {
    "clipIndex": 520,
    "trackId": "22",
    "clipName": null,
    "beat": 405.75,
    "relBeat": 21,
    "duration": 0.25,
    "velocity": 100,
    "pitch": 60
  },
  {
    "clipIndex": 521,
    "trackId": "22",
    "clipName": null,
    "beat": 405.75,
    "relBeat": 17,
    "duration": 0.25,
    "velocity": 100,
    "pitch": 60
  },
  {
    "clipIndex": 522,
    "trackId": "22",
    "clipName": null,
    "beat": 405.75,
    "relBeat": 13,
    "duration": 0.25,
    "velocity": 100,
    "pitch": 60
  },
  {
    "clipIndex": 524,
    "trackId": "22",
    "clipName": null,
    "beat": 405.75,
    "relBeat": 4.25,
    "duration": 0.25,
    "velocity": 100,
    "pitch": 60
  },
  {
    "clipIndex": 525,
    "trackId": "22",
    "clipName": null,
    "beat": 405.75,
    "relBeat": 0.25,
    "duration": 0.25,
    "velocity": 100,
    "pitch": 60
  },
  {
    "clipIndex": 519,
    "trackId": "22",
    "clipName": null,
    "beat": 406,
    "relBeat": 30,
    "duration": 0.25,
    "velocity": 100,
    "pitch": 60
  },
  {
    "clipIndex": 520,
    "trackId": "22",
    "clipName": null,
    "beat": 406,
    "relBeat": 21.25,
    "duration": 0.25,
    "velocity": 100,
    "pitch": 60
  },
  {
    "clipIndex": 521,
    "trackId": "22",
    "clipName": null,
    "beat": 406,
    "relBeat": 17.25,
    "duration": 0.25,
    "velocity": 100,
    "pitch": 60
  },
  {
    "clipIndex": 522,
    "trackId": "22",
    "clipName": null,
    "beat": 406,
    "relBeat": 13.25,
    "duration": 0.25,
    "velocity": 100,
    "pitch": 60
  },
  {
    "clipIndex": 524,
    "trackId": "22",
    "clipName": null,
    "beat": 406,
    "relBeat": 4.5,
    "duration": 0.25,
    "velocity": 100,
    "pitch": 60
  },
  {
    "clipIndex": 525,
    "trackId": "22",
    "clipName": null,
    "beat": 406,
    "relBeat": 0.5,
    "duration": 0.25,
    "velocity": 100,
    "pitch": 60
  },
  {
    "clipIndex": 0,
    "trackId": "89",
    "clipName": null,
    "beat": 406.25,
    "relBeat": 406.25,
    "duration": 0.25,
    "velocity": 100,
    "pitch": 60
  },
  {
    "clipIndex": 519,
    "trackId": "22",
    "clipName": null,
    "beat": 406.25,
    "relBeat": 30.25,
    "duration": 0.25,
    "velocity": 100,
    "pitch": 60
  },
  {
    "clipIndex": 521,
    "trackId": "22",
    "clipName": null,
    "beat": 406.25,
    "relBeat": 17.5,
    "duration": 0.25,
    "velocity": 100,
    "pitch": 60
  },
  {
    "clipIndex": 522,
    "trackId": "22",
    "clipName": null,
    "beat": 406.25,
    "relBeat": 13.5,
    "duration": 0.25,
    "velocity": 100,
    "pitch": 60
  },
  {
    "clipIndex": 524,
    "trackId": "22",
    "clipName": null,
    "beat": 406.25,
    "relBeat": 4.75,
    "duration": 0.25,
    "velocity": 100,
    "pitch": 60
  },
  {
    "clipIndex": 525,
    "trackId": "22",
    "clipName": null,
    "beat": 406.25,
    "relBeat": 0.75,
    "duration": 0.25,
    "velocity": 100,
    "pitch": 60
  },
  {
    "clipIndex": 348,
    "trackId": "55",
    "clipName": null,
    "beat": 406.5,
    "relBeat": 110.5,
    "duration": 0.25000026015651017,
    "velocity": 100,
    "pitch": 60
  },
  {
    "clipIndex": 519,
    "trackId": "22",
    "clipName": null,
    "beat": 406.5,
    "relBeat": 30.5,
    "duration": 0.25,
    "velocity": 100,
    "pitch": 60
  },
  {
    "clipIndex": 521,
    "trackId": "22",
    "clipName": null,
    "beat": 406.5,
    "relBeat": 17.75,
    "duration": 0.25,
    "velocity": 100,
    "pitch": 60
  },
  {
    "clipIndex": 522,
    "trackId": "22",
    "clipName": null,
    "beat": 406.5,
    "relBeat": 13.75,
    "duration": 0.25,
    "velocity": 100,
    "pitch": 60
  },
  {
    "clipIndex": 523,
    "trackId": "22",
    "clipName": null,
    "beat": 406.5,
    "relBeat": 9,
    "duration": 0.25,
    "velocity": 100,
    "pitch": 60
  },
  {
    "clipIndex": 524,
    "trackId": "22",
    "clipName": null,
    "beat": 406.5,
    "relBeat": 5,
    "duration": 0.25,
    "velocity": 100,
    "pitch": 60
  },
  {
    "clipIndex": 525,
    "trackId": "22",
    "clipName": null,
    "beat": 406.5,
    "relBeat": 1,
    "duration": 0.25,
    "velocity": 100,
    "pitch": 60
  },
  {
    "clipIndex": 519,
    "trackId": "22",
    "clipName": null,
    "beat": 406.75,
    "relBeat": 30.75,
    "duration": 0.25,
    "velocity": 100,
    "pitch": 60
  },
  {
    "clipIndex": 521,
    "trackId": "22",
    "clipName": null,
    "beat": 406.75,
    "relBeat": 18,
    "duration": 0.25,
    "velocity": 100,
    "pitch": 60
  },
  {
    "clipIndex": 522,
    "trackId": "22",
    "clipName": null,
    "beat": 406.75,
    "relBeat": 14,
    "duration": 0.25,
    "velocity": 100,
    "pitch": 60
  },
  {
    "clipIndex": 523,
    "trackId": "22",
    "clipName": null,
    "beat": 406.75,
    "relBeat": 9.25,
    "duration": 0.25,
    "velocity": 100,
    "pitch": 60
  },
  {
    "clipIndex": 524,
    "trackId": "22",
    "clipName": null,
    "beat": 406.75,
    "relBeat": 5.25,
    "duration": 0.25,
    "velocity": 100,
    "pitch": 60
  },
  {
    "clipIndex": 525,
    "trackId": "22",
    "clipName": null,
    "beat": 406.75,
    "relBeat": 1.25,
    "duration": 0.25,
    "velocity": 100,
    "pitch": 60
  },
  {
    "clipIndex": 519,
    "trackId": "22",
    "clipName": null,
    "beat": 407,
    "relBeat": 31,
    "duration": 0.25,
    "velocity": 100,
    "pitch": 60
  },
  {
    "clipIndex": 521,
    "trackId": "22",
    "clipName": null,
    "beat": 407,
    "relBeat": 18.25,
    "duration": 0.25,
    "velocity": 100,
    "pitch": 60
  },
  {
    "clipIndex": 522,
    "trackId": "22",
    "clipName": null,
    "beat": 407,
    "relBeat": 14.25,
    "duration": 0.25,
    "velocity": 100,
    "pitch": 60
  },
  {
    "clipIndex": 523,
    "trackId": "22",
    "clipName": null,
    "beat": 407,
    "relBeat": 9.5,
    "duration": 0.25,
    "velocity": 100,
    "pitch": 60
  },
  {
    "clipIndex": 524,
    "trackId": "22",
    "clipName": null,
    "beat": 407,
    "relBeat": 5.5,
    "duration": 0.25,
    "velocity": 100,
    "pitch": 60
  },
  {
    "clipIndex": 525,
    "trackId": "22",
    "clipName": null,
    "beat": 407,
    "relBeat": 1.5,
    "duration": 0.25,
    "velocity": 100,
    "pitch": 60
  },
  {
    "clipIndex": 519,
    "trackId": "22",
    "clipName": null,
    "beat": 407.25,
    "relBeat": 31.25,
    "duration": 0.25,
    "velocity": 100,
    "pitch": 60
  },
  {
    "clipIndex": 521,
    "trackId": "22",
    "clipName": null,
    "beat": 407.25,
    "relBeat": 18.5,
    "duration": 0.25,
    "velocity": 100,
    "pitch": 60
  },
  {
    "clipIndex": 522,
    "trackId": "22",
    "clipName": null,
    "beat": 407.25,
    "relBeat": 14.5,
    "duration": 0.25,
    "velocity": 100,
    "pitch": 60
  },
  {
    "clipIndex": 523,
    "trackId": "22",
    "clipName": null,
    "beat": 407.25,
    "relBeat": 9.75,
    "duration": 0.25,
    "velocity": 100,
    "pitch": 60
  },
  {
    "clipIndex": 524,
    "trackId": "22",
    "clipName": null,
    "beat": 407.25,
    "relBeat": 5.75,
    "duration": 0.25,
    "velocity": 100,
    "pitch": 60
  },
  {
    "clipIndex": 525,
    "trackId": "22",
    "clipName": null,
    "beat": 407.25,
    "relBeat": 1.75,
    "duration": 0.25,
    "velocity": 100,
    "pitch": 60
  },
  {
    "clipIndex": 519,
    "trackId": "22",
    "clipName": null,
    "beat": 407.5,
    "relBeat": 31.5,
    "duration": 0.25,
    "velocity": 100,
    "pitch": 60
  },
  {
    "clipIndex": 521,
    "trackId": "22",
    "clipName": null,
    "beat": 407.5,
    "relBeat": 18.75,
    "duration": 0.25,
    "velocity": 100,
    "pitch": 60
  },
  {
    "clipIndex": 522,
    "trackId": "22",
    "clipName": null,
    "beat": 407.5,
    "relBeat": 14.75,
    "duration": 0.25,
    "velocity": 100,
    "pitch": 60
  },
  {
    "clipIndex": 523,
    "trackId": "22",
    "clipName": null,
    "beat": 407.5,
    "relBeat": 10,
    "duration": 0.25,
    "velocity": 100,
    "pitch": 60
  },
  {
    "clipIndex": 525,
    "trackId": "22",
    "clipName": null,
    "beat": 407.5,
    "relBeat": 2,
    "duration": 0.25,
    "velocity": 100,
    "pitch": 60
  },
  {
    "clipIndex": 519,
    "trackId": "22",
    "clipName": null,
    "beat": 407.75,
    "relBeat": 31.75,
    "duration": 0.25,
    "velocity": 100,
    "pitch": 60
  },
  {
    "clipIndex": 521,
    "trackId": "22",
    "clipName": null,
    "beat": 407.75,
    "relBeat": 19,
    "duration": 0.25,
    "velocity": 100,
    "pitch": 60
  },
  {
    "clipIndex": 522,
    "trackId": "22",
    "clipName": null,
    "beat": 407.75,
    "relBeat": 15,
    "duration": 0.25,
    "velocity": 100,
    "pitch": 60
  },
  {
    "clipIndex": 525,
    "trackId": "22",
    "clipName": null,
    "beat": 407.75,
    "relBeat": 2.25,
    "duration": 0.25,
    "velocity": 100,
    "pitch": 60
  },
  {
    "clipIndex": 521,
    "trackId": "22",
    "clipName": null,
    "beat": 408,
    "relBeat": 19.25,
    "duration": 0.25,
    "velocity": 100,
    "pitch": 60
  },
  {
    "clipIndex": 522,
    "trackId": "22",
    "clipName": null,
    "beat": 408,
    "relBeat": 15.25,
    "duration": 0.25,
    "velocity": 100,
    "pitch": 60
  },
  {
    "clipIndex": 525,
    "trackId": "22",
    "clipName": null,
    "beat": 408,
    "relBeat": 2.5,
    "duration": 0.25,
    "velocity": 100,
    "pitch": 60
  },
  {
    "clipIndex": 521,
    "trackId": "22",
    "clipName": null,
    "beat": 408.25,
    "relBeat": 19.5,
    "duration": 0.25,
    "velocity": 100,
    "pitch": 60
  },
  {
    "clipIndex": 522,
    "trackId": "22",
    "clipName": null,
    "beat": 408.25,
    "relBeat": 15.5,
    "duration": 0.25,
    "velocity": 100,
    "pitch": 60
  },
  {
    "clipIndex": 525,
    "trackId": "22",
    "clipName": null,
    "beat": 408.25,
    "relBeat": 2.75,
    "duration": 0.25,
    "velocity": 100,
    "pitch": 60
  },
  {
    "clipIndex": 521,
    "trackId": "22",
    "clipName": null,
    "beat": 408.5,
    "relBeat": 19.75,
    "duration": 0.25,
    "velocity": 100,
    "pitch": 60
  },
  {
    "clipIndex": 522,
    "trackId": "22",
    "clipName": null,
    "beat": 408.5,
    "relBeat": 15.75,
    "duration": 0.25,
    "velocity": 100,
    "pitch": 60
  },
  {
    "clipIndex": 525,
    "trackId": "22",
    "clipName": null,
    "beat": 408.5,
    "relBeat": 3,
    "duration": 0.25,
    "velocity": 100,
    "pitch": 60
  },
  {
    "clipIndex": 520,
    "trackId": "22",
    "clipName": null,
    "beat": 408.75,
    "relBeat": 24,
    "duration": 0.25,
    "velocity": 100,
    "pitch": 60
  },
  {
    "clipIndex": 521,
    "trackId": "22",
    "clipName": null,
    "beat": 408.75,
    "relBeat": 20,
    "duration": 0.25,
    "velocity": 100,
    "pitch": 60
  },
  {
    "clipIndex": 522,
    "trackId": "22",
    "clipName": null,
    "beat": 408.75,
    "relBeat": 16,
    "duration": 0.25,
    "velocity": 100,
    "pitch": 60
  },
  {
    "clipIndex": 525,
    "trackId": "22",
    "clipName": null,
    "beat": 408.75,
    "relBeat": 3.25,
    "duration": 0.25,
    "velocity": 100,
    "pitch": 60
  },
  {
    "clipIndex": 520,
    "trackId": "22",
    "clipName": null,
    "beat": 409,
    "relBeat": 24.25,
    "duration": 0.25,
    "velocity": 100,
    "pitch": 60
  },
  {
    "clipIndex": 521,
    "trackId": "22",
    "clipName": null,
    "beat": 409,
    "relBeat": 20.25,
    "duration": 0.25,
    "velocity": 100,
    "pitch": 60
  },
  {
    "clipIndex": 522,
    "trackId": "22",
    "clipName": null,
    "beat": 409,
    "relBeat": 16.25,
    "duration": 0.25,
    "velocity": 100,
    "pitch": 60
  },
  {
    "clipIndex": 525,
    "trackId": "22",
    "clipName": null,
    "beat": 409,
    "relBeat": 3.5,
    "duration": 0.25,
    "velocity": 100,
    "pitch": 60
  },
  {
    "clipIndex": 349,
    "trackId": "55",
    "clipName": null,
    "beat": 409.25,
    "relBeat": 105.25,
    "duration": 0.25000026015651017,
    "velocity": 100,
    "pitch": 60
  },
  {
    "clipIndex": 520,
    "trackId": "22",
    "clipName": null,
    "beat": 409.25,
    "relBeat": 24.5,
    "duration": 0.25,
    "velocity": 100,
    "pitch": 60
  },
  {
    "clipIndex": 521,
    "trackId": "22",
    "clipName": null,
    "beat": 409.25,
    "relBeat": 20.5,
    "duration": 0.25,
    "velocity": 100,
    "pitch": 60
  },
  {
    "clipIndex": 522,
    "trackId": "22",
    "clipName": null,
    "beat": 409.25,
    "relBeat": 16.5,
    "duration": 0.25,
    "velocity": 100,
    "pitch": 60
  },
  {
    "clipIndex": 525,
    "trackId": "22",
    "clipName": null,
    "beat": 409.25,
    "relBeat": 3.75,
    "duration": 0.25,
    "velocity": 100,
    "pitch": 60
  },
  {
    "clipIndex": 0,
    "trackId": "89",
    "clipName": null,
    "beat": 409.5,
    "relBeat": 409.5,
    "duration": 0.25,
    "velocity": 100,
    "pitch": 60
  },
  {
    "clipIndex": 520,
    "trackId": "22",
    "clipName": null,
    "beat": 409.5,
    "relBeat": 24.75,
    "duration": 0.25,
    "velocity": 100,
    "pitch": 60
  },
  {
    "clipIndex": 521,
    "trackId": "22",
    "clipName": null,
    "beat": 409.5,
    "relBeat": 20.75,
    "duration": 0.25,
    "velocity": 100,
    "pitch": 60
  },
  {
    "clipIndex": 522,
    "trackId": "22",
    "clipName": null,
    "beat": 409.5,
    "relBeat": 16.75,
    "duration": 0.25,
    "velocity": 100,
    "pitch": 60
  },
  {
    "clipIndex": 523,
    "trackId": "22",
    "clipName": null,
    "beat": 409.5,
    "relBeat": 12,
    "duration": 0.25,
    "velocity": 100,
    "pitch": 60
  },
  {
    "clipIndex": 525,
    "trackId": "22",
    "clipName": null,
    "beat": 409.5,
    "relBeat": 4,
    "duration": 0.25,
    "velocity": 100,
    "pitch": 60
  },
  {
    "clipIndex": 526,
    "trackId": "22",
    "clipName": null,
    "beat": 409.5,
    "relBeat": 0,
    "duration": 0.25,
    "velocity": 100,
    "pitch": 60
  },
  {
    "clipIndex": 520,
    "trackId": "22",
    "clipName": null,
    "beat": 409.75,
    "relBeat": 25,
    "duration": 0.25,
    "velocity": 100,
    "pitch": 60
  },
  {
    "clipIndex": 521,
    "trackId": "22",
    "clipName": null,
    "beat": 409.75,
    "relBeat": 21,
    "duration": 0.25,
    "velocity": 100,
    "pitch": 60
  },
  {
    "clipIndex": 522,
    "trackId": "22",
    "clipName": null,
    "beat": 409.75,
    "relBeat": 17,
    "duration": 0.25,
    "velocity": 100,
    "pitch": 60
  },
  {
    "clipIndex": 523,
    "trackId": "22",
    "clipName": null,
    "beat": 409.75,
    "relBeat": 12.25,
    "duration": 0.25,
    "velocity": 100,
    "pitch": 60
  },
  {
    "clipIndex": 525,
    "trackId": "22",
    "clipName": null,
    "beat": 409.75,
    "relBeat": 4.25,
    "duration": 0.25,
    "velocity": 100,
    "pitch": 60
  },
  {
    "clipIndex": 526,
    "trackId": "22",
    "clipName": null,
    "beat": 409.75,
    "relBeat": 0.25,
    "duration": 0.25,
    "velocity": 100,
    "pitch": 60
  },
  {
    "clipIndex": 349,
    "trackId": "55",
    "clipName": null,
    "beat": 410,
    "relBeat": 106,
    "duration": 0.25000026015651017,
    "velocity": 100,
    "pitch": 60
  },
  {
    "clipIndex": 520,
    "trackId": "22",
    "clipName": null,
    "beat": 410,
    "relBeat": 25.25,
    "duration": 0.25,
    "velocity": 100,
    "pitch": 60
  },
  {
    "clipIndex": 521,
    "trackId": "22",
    "clipName": null,
    "beat": 410,
    "relBeat": 21.25,
    "duration": 0.25,
    "velocity": 100,
    "pitch": 60
  },
  {
    "clipIndex": 522,
    "trackId": "22",
    "clipName": null,
    "beat": 410,
    "relBeat": 17.25,
    "duration": 0.25,
    "velocity": 100,
    "pitch": 60
  },
  {
    "clipIndex": 523,
    "trackId": "22",
    "clipName": null,
    "beat": 410,
    "relBeat": 12.5,
    "duration": 0.25,
    "velocity": 100,
    "pitch": 60
  },
  {
    "clipIndex": 525,
    "trackId": "22",
    "clipName": null,
    "beat": 410,
    "relBeat": 4.5,
    "duration": 0.25,
    "velocity": 100,
    "pitch": 60
  },
  {
    "clipIndex": 526,
    "trackId": "22",
    "clipName": null,
    "beat": 410,
    "relBeat": 0.5,
    "duration": 0.25,
    "velocity": 100,
    "pitch": 60
  },
  {
    "clipIndex": 0,
    "trackId": "89",
    "clipName": null,
    "beat": 410.25,
    "relBeat": 410.25,
    "duration": 0.25,
    "velocity": 100,
    "pitch": 60
  },
  {
    "clipIndex": 338,
    "trackId": "55",
    "clipName": null,
    "beat": 410.25,
    "relBeat": 210.25,
    "duration": 0.25000026015651017,
    "velocity": 100,
    "pitch": 60
  },
  {
    "clipIndex": 520,
    "trackId": "22",
    "clipName": null,
    "beat": 410.25,
    "relBeat": 25.5,
    "duration": 0.25,
    "velocity": 100,
    "pitch": 60
  },
  {
    "clipIndex": 522,
    "trackId": "22",
    "clipName": null,
    "beat": 410.25,
    "relBeat": 17.5,
    "duration": 0.25,
    "velocity": 100,
    "pitch": 60
  },
  {
    "clipIndex": 523,
    "trackId": "22",
    "clipName": null,
    "beat": 410.25,
    "relBeat": 12.75,
    "duration": 0.25,
    "velocity": 100,
    "pitch": 60
  },
  {
    "clipIndex": 525,
    "trackId": "22",
    "clipName": null,
    "beat": 410.25,
    "relBeat": 4.75,
    "duration": 0.25,
    "velocity": 100,
    "pitch": 60
  },
  {
    "clipIndex": 526,
    "trackId": "22",
    "clipName": null,
    "beat": 410.25,
    "relBeat": 0.75,
    "duration": 0.25,
    "velocity": 100,
    "pitch": 60
  },
  {
    "clipIndex": 520,
    "trackId": "22",
    "clipName": null,
    "beat": 410.5,
    "relBeat": 25.75,
    "duration": 0.25,
    "velocity": 100,
    "pitch": 60
  },
  {
    "clipIndex": 522,
    "trackId": "22",
    "clipName": null,
    "beat": 410.5,
    "relBeat": 17.75,
    "duration": 0.25,
    "velocity": 100,
    "pitch": 60
  },
  {
    "clipIndex": 523,
    "trackId": "22",
    "clipName": null,
    "beat": 410.5,
    "relBeat": 13,
    "duration": 0.25,
    "velocity": 100,
    "pitch": 60
  },
  {
    "clipIndex": 524,
    "trackId": "22",
    "clipName": null,
    "beat": 410.5,
    "relBeat": 9,
    "duration": 0.25,
    "velocity": 100,
    "pitch": 60
  },
  {
    "clipIndex": 525,
    "trackId": "22",
    "clipName": null,
    "beat": 410.5,
    "relBeat": 5,
    "duration": 0.25,
    "velocity": 100,
    "pitch": 60
  },
  {
    "clipIndex": 526,
    "trackId": "22",
    "clipName": null,
    "beat": 410.5,
    "relBeat": 1,
    "duration": 0.25,
    "velocity": 100,
    "pitch": 60
  },
  {
    "clipIndex": 349,
    "trackId": "55",
    "clipName": null,
    "beat": 410.75,
    "relBeat": 106.75,
    "duration": 0.25000026015651017,
    "velocity": 100,
    "pitch": 60
  },
  {
    "clipIndex": 520,
    "trackId": "22",
    "clipName": null,
    "beat": 410.75,
    "relBeat": 26,
    "duration": 0.25,
    "velocity": 100,
    "pitch": 60
  },
  {
    "clipIndex": 522,
    "trackId": "22",
    "clipName": null,
    "beat": 410.75,
    "relBeat": 18,
    "duration": 0.25,
    "velocity": 100,
    "pitch": 60
  },
  {
    "clipIndex": 523,
    "trackId": "22",
    "clipName": null,
    "beat": 410.75,
    "relBeat": 13.25,
    "duration": 0.25,
    "velocity": 100,
    "pitch": 60
  },
  {
    "clipIndex": 524,
    "trackId": "22",
    "clipName": null,
    "beat": 410.75,
    "relBeat": 9.25,
    "duration": 0.25,
    "velocity": 100,
    "pitch": 60
  },
  {
    "clipIndex": 525,
    "trackId": "22",
    "clipName": null,
    "beat": 410.75,
    "relBeat": 5.25,
    "duration": 0.25,
    "velocity": 100,
    "pitch": 60
  },
  {
    "clipIndex": 526,
    "trackId": "22",
    "clipName": null,
    "beat": 410.75,
    "relBeat": 1.25,
    "duration": 0.25,
    "velocity": 100,
    "pitch": 60
  },
  {
    "clipIndex": 520,
    "trackId": "22",
    "clipName": null,
    "beat": 411,
    "relBeat": 26.25,
    "duration": 0.25,
    "velocity": 100,
    "pitch": 60
  },
  {
    "clipIndex": 522,
    "trackId": "22",
    "clipName": null,
    "beat": 411,
    "relBeat": 18.25,
    "duration": 0.25,
    "velocity": 100,
    "pitch": 60
  },
  {
    "clipIndex": 523,
    "trackId": "22",
    "clipName": null,
    "beat": 411,
    "relBeat": 13.5,
    "duration": 0.25,
    "velocity": 100,
    "pitch": 60
  },
  {
    "clipIndex": 524,
    "trackId": "22",
    "clipName": null,
    "beat": 411,
    "relBeat": 9.5,
    "duration": 0.25,
    "velocity": 100,
    "pitch": 60
  },
  {
    "clipIndex": 525,
    "trackId": "22",
    "clipName": null,
    "beat": 411,
    "relBeat": 5.5,
    "duration": 0.25,
    "velocity": 100,
    "pitch": 60
  },
  {
    "clipIndex": 526,
    "trackId": "22",
    "clipName": null,
    "beat": 411,
    "relBeat": 1.5,
    "duration": 0.25,
    "velocity": 100,
    "pitch": 60
  },
  {
    "clipIndex": 520,
    "trackId": "22",
    "clipName": null,
    "beat": 411.25,
    "relBeat": 26.5,
    "duration": 0.25,
    "velocity": 100,
    "pitch": 60
  },
  {
    "clipIndex": 522,
    "trackId": "22",
    "clipName": null,
    "beat": 411.25,
    "relBeat": 18.5,
    "duration": 0.25,
    "velocity": 100,
    "pitch": 60
  },
  {
    "clipIndex": 523,
    "trackId": "22",
    "clipName": null,
    "beat": 411.25,
    "relBeat": 13.75,
    "duration": 0.25,
    "velocity": 100,
    "pitch": 60
  },
  {
    "clipIndex": 524,
    "trackId": "22",
    "clipName": null,
    "beat": 411.25,
    "relBeat": 9.75,
    "duration": 0.25,
    "velocity": 100,
    "pitch": 60
  },
  {
    "clipIndex": 525,
    "trackId": "22",
    "clipName": null,
    "beat": 411.25,
    "relBeat": 5.75,
    "duration": 0.25,
    "velocity": 100,
    "pitch": 60
  },
  {
    "clipIndex": 526,
    "trackId": "22",
    "clipName": null,
    "beat": 411.25,
    "relBeat": 1.75,
    "duration": 0.25,
    "velocity": 100,
    "pitch": 60
  },
  {
    "clipIndex": 349,
    "trackId": "55",
    "clipName": null,
    "beat": 411.5,
    "relBeat": 107.5,
    "duration": 0.25000026015651017,
    "velocity": 100,
    "pitch": 60
  },
  {
    "clipIndex": 520,
    "trackId": "22",
    "clipName": null,
    "beat": 411.5,
    "relBeat": 26.75,
    "duration": 0.25,
    "velocity": 100,
    "pitch": 60
  },
  {
    "clipIndex": 522,
    "trackId": "22",
    "clipName": null,
    "beat": 411.5,
    "relBeat": 18.75,
    "duration": 0.25,
    "velocity": 100,
    "pitch": 60
  },
  {
    "clipIndex": 523,
    "trackId": "22",
    "clipName": null,
    "beat": 411.5,
    "relBeat": 14,
    "duration": 0.25,
    "velocity": 100,
    "pitch": 60
  },
  {
    "clipIndex": 524,
    "trackId": "22",
    "clipName": null,
    "beat": 411.5,
    "relBeat": 10,
    "duration": 0.25,
    "velocity": 100,
    "pitch": 60
  },
  {
    "clipIndex": 526,
    "trackId": "22",
    "clipName": null,
    "beat": 411.5,
    "relBeat": 2,
    "duration": 0.25,
    "velocity": 100,
    "pitch": 60
  },
  {
    "clipIndex": 520,
    "trackId": "22",
    "clipName": null,
    "beat": 411.75,
    "relBeat": 27,
    "duration": 0.25,
    "velocity": 100,
    "pitch": 60
  },
  {
    "clipIndex": 522,
    "trackId": "22",
    "clipName": null,
    "beat": 411.75,
    "relBeat": 19,
    "duration": 0.25,
    "velocity": 100,
    "pitch": 60
  },
  {
    "clipIndex": 523,
    "trackId": "22",
    "clipName": null,
    "beat": 411.75,
    "relBeat": 14.25,
    "duration": 0.25,
    "velocity": 100,
    "pitch": 60
  },
  {
    "clipIndex": 526,
    "trackId": "22",
    "clipName": null,
    "beat": 411.75,
    "relBeat": 2.25,
    "duration": 0.25,
    "velocity": 100,
    "pitch": 60
  },
  {
    "clipIndex": 520,
    "trackId": "22",
    "clipName": null,
    "beat": 412,
    "relBeat": 27.25,
    "duration": 0.25,
    "velocity": 100,
    "pitch": 60
  },
  {
    "clipIndex": 522,
    "trackId": "22",
    "clipName": null,
    "beat": 412,
    "relBeat": 19.25,
    "duration": 0.25,
    "velocity": 100,
    "pitch": 60
  },
  {
    "clipIndex": 523,
    "trackId": "22",
    "clipName": null,
    "beat": 412,
    "relBeat": 14.5,
    "duration": 0.25,
    "velocity": 100,
    "pitch": 60
  },
  {
    "clipIndex": 526,
    "trackId": "22",
    "clipName": null,
    "beat": 412,
    "relBeat": 2.5,
    "duration": 0.25,
    "velocity": 100,
    "pitch": 60
  },
  {
    "clipIndex": 349,
    "trackId": "55",
    "clipName": null,
    "beat": 412.25,
    "relBeat": 108.25,
    "duration": 0.25000026015651017,
    "velocity": 100,
    "pitch": 60
  },
  {
    "clipIndex": 520,
    "trackId": "22",
    "clipName": null,
    "beat": 412.25,
    "relBeat": 27.5,
    "duration": 0.25,
    "velocity": 100,
    "pitch": 60
  },
  {
    "clipIndex": 522,
    "trackId": "22",
    "clipName": null,
    "beat": 412.25,
    "relBeat": 19.5,
    "duration": 0.25,
    "velocity": 100,
    "pitch": 60
  },
  {
    "clipIndex": 523,
    "trackId": "22",
    "clipName": null,
    "beat": 412.25,
    "relBeat": 14.75,
    "duration": 0.25,
    "velocity": 100,
    "pitch": 60
  },
  {
    "clipIndex": 526,
    "trackId": "22",
    "clipName": null,
    "beat": 412.25,
    "relBeat": 2.75,
    "duration": 0.25,
    "velocity": 100,
    "pitch": 60
  },
  {
    "clipIndex": 520,
    "trackId": "22",
    "clipName": null,
    "beat": 412.5,
    "relBeat": 27.75,
    "duration": 0.25,
    "velocity": 100,
    "pitch": 60
  },
  {
    "clipIndex": 522,
    "trackId": "22",
    "clipName": null,
    "beat": 412.5,
    "relBeat": 19.75,
    "duration": 0.25,
    "velocity": 100,
    "pitch": 60
  },
  {
    "clipIndex": 523,
    "trackId": "22",
    "clipName": null,
    "beat": 412.5,
    "relBeat": 15,
    "duration": 0.25,
    "velocity": 100,
    "pitch": 60
  },
  {
    "clipIndex": 526,
    "trackId": "22",
    "clipName": null,
    "beat": 412.5,
    "relBeat": 3,
    "duration": 0.25,
    "velocity": 100,
    "pitch": 60
  },
  {
    "clipIndex": 520,
    "trackId": "22",
    "clipName": null,
    "beat": 412.75,
    "relBeat": 28,
    "duration": 0.25,
    "velocity": 100,
    "pitch": 60
  },
  {
    "clipIndex": 521,
    "trackId": "22",
    "clipName": null,
    "beat": 412.75,
    "relBeat": 24,
    "duration": 0.25,
    "velocity": 100,
    "pitch": 60
  },
  {
    "clipIndex": 522,
    "trackId": "22",
    "clipName": null,
    "beat": 412.75,
    "relBeat": 20,
    "duration": 0.25,
    "velocity": 100,
    "pitch": 60
  },
  {
    "clipIndex": 523,
    "trackId": "22",
    "clipName": null,
    "beat": 412.75,
    "relBeat": 15.25,
    "duration": 0.25,
    "velocity": 100,
    "pitch": 60
  },
  {
    "clipIndex": 526,
    "trackId": "22",
    "clipName": null,
    "beat": 412.75,
    "relBeat": 3.25,
    "duration": 0.25,
    "velocity": 100,
    "pitch": 60
  },
  {
    "clipIndex": 349,
    "trackId": "55",
    "clipName": null,
    "beat": 413,
    "relBeat": 109,
    "duration": 0.25000026015651017,
    "velocity": 100,
    "pitch": 60
  },
  {
    "clipIndex": 520,
    "trackId": "22",
    "clipName": null,
    "beat": 413,
    "relBeat": 28.25,
    "duration": 0.25,
    "velocity": 100,
    "pitch": 60
  },
  {
    "clipIndex": 521,
    "trackId": "22",
    "clipName": null,
    "beat": 413,
    "relBeat": 24.25,
    "duration": 0.25,
    "velocity": 100,
    "pitch": 60
  },
  {
    "clipIndex": 522,
    "trackId": "22",
    "clipName": null,
    "beat": 413,
    "relBeat": 20.25,
    "duration": 0.25,
    "velocity": 100,
    "pitch": 60
  },
  {
    "clipIndex": 523,
    "trackId": "22",
    "clipName": null,
    "beat": 413,
    "relBeat": 15.5,
    "duration": 0.25,
    "velocity": 100,
    "pitch": 60
  },
  {
    "clipIndex": 526,
    "trackId": "22",
    "clipName": null,
    "beat": 413,
    "relBeat": 3.5,
    "duration": 0.25,
    "velocity": 100,
    "pitch": 60
  },
  {
    "clipIndex": 520,
    "trackId": "22",
    "clipName": null,
    "beat": 413.25,
    "relBeat": 28.5,
    "duration": 0.25,
    "velocity": 100,
    "pitch": 60
  },
  {
    "clipIndex": 521,
    "trackId": "22",
    "clipName": null,
    "beat": 413.25,
    "relBeat": 24.5,
    "duration": 0.25,
    "velocity": 100,
    "pitch": 60
  },
  {
    "clipIndex": 522,
    "trackId": "22",
    "clipName": null,
    "beat": 413.25,
    "relBeat": 20.5,
    "duration": 0.25,
    "velocity": 100,
    "pitch": 60
  },
  {
    "clipIndex": 523,
    "trackId": "22",
    "clipName": null,
    "beat": 413.25,
    "relBeat": 15.75,
    "duration": 0.25,
    "velocity": 100,
    "pitch": 60
  },
  {
    "clipIndex": 526,
    "trackId": "22",
    "clipName": null,
    "beat": 413.25,
    "relBeat": 3.75,
    "duration": 0.25,
    "velocity": 100,
    "pitch": 60
  },
  {
    "clipIndex": 0,
    "trackId": "89",
    "clipName": null,
    "beat": 413.5,
    "relBeat": 413.5,
    "duration": 0.25,
    "velocity": 100,
    "pitch": 60
  },
  {
    "clipIndex": 520,
    "trackId": "22",
    "clipName": null,
    "beat": 413.5,
    "relBeat": 28.75,
    "duration": 0.25,
    "velocity": 100,
    "pitch": 60
  },
  {
    "clipIndex": 521,
    "trackId": "22",
    "clipName": null,
    "beat": 413.5,
    "relBeat": 24.75,
    "duration": 0.25,
    "velocity": 100,
    "pitch": 60
  },
  {
    "clipIndex": 522,
    "trackId": "22",
    "clipName": null,
    "beat": 413.5,
    "relBeat": 20.75,
    "duration": 0.25,
    "velocity": 100,
    "pitch": 60
  },
  {
    "clipIndex": 523,
    "trackId": "22",
    "clipName": null,
    "beat": 413.5,
    "relBeat": 16,
    "duration": 0.25,
    "velocity": 100,
    "pitch": 60
  },
  {
    "clipIndex": 524,
    "trackId": "22",
    "clipName": null,
    "beat": 413.5,
    "relBeat": 12,
    "duration": 0.25,
    "velocity": 100,
    "pitch": 60
  },
  {
    "clipIndex": 526,
    "trackId": "22",
    "clipName": null,
    "beat": 413.5,
    "relBeat": 4,
    "duration": 0.25,
    "velocity": 100,
    "pitch": 60
  },
  {
    "clipIndex": 527,
    "trackId": "22",
    "clipName": null,
    "beat": 413.5,
    "relBeat": 0,
    "duration": 0.25,
    "velocity": 100,
    "pitch": 60
  },
  {
    "clipIndex": 349,
    "trackId": "55",
    "clipName": null,
    "beat": 413.75,
    "relBeat": 109.75,
    "duration": 0.25000026015651017,
    "velocity": 100,
    "pitch": 60
  },
  {
    "clipIndex": 520,
    "trackId": "22",
    "clipName": null,
    "beat": 413.75,
    "relBeat": 29,
    "duration": 0.25,
    "velocity": 100,
    "pitch": 60
  },
  {
    "clipIndex": 521,
    "trackId": "22",
    "clipName": null,
    "beat": 413.75,
    "relBeat": 25,
    "duration": 0.25,
    "velocity": 100,
    "pitch": 60
  },
  {
    "clipIndex": 522,
    "trackId": "22",
    "clipName": null,
    "beat": 413.75,
    "relBeat": 21,
    "duration": 0.25,
    "velocity": 100,
    "pitch": 60
  },
  {
    "clipIndex": 523,
    "trackId": "22",
    "clipName": null,
    "beat": 413.75,
    "relBeat": 16.25,
    "duration": 0.25,
    "velocity": 100,
    "pitch": 60
  },
  {
    "clipIndex": 524,
    "trackId": "22",
    "clipName": null,
    "beat": 413.75,
    "relBeat": 12.25,
    "duration": 0.25,
    "velocity": 100,
    "pitch": 60
  },
  {
    "clipIndex": 526,
    "trackId": "22",
    "clipName": null,
    "beat": 413.75,
    "relBeat": 4.25,
    "duration": 0.25,
    "velocity": 100,
    "pitch": 60
  },
  {
    "clipIndex": 527,
    "trackId": "22",
    "clipName": null,
    "beat": 413.75,
    "relBeat": 0.25,
    "duration": 0.25,
    "velocity": 100,
    "pitch": 60
  },
  {
    "clipIndex": 520,
    "trackId": "22",
    "clipName": null,
    "beat": 414,
    "relBeat": 29.25,
    "duration": 0.25,
    "velocity": 100,
    "pitch": 60
  },
  {
    "clipIndex": 521,
    "trackId": "22",
    "clipName": null,
    "beat": 414,
    "relBeat": 25.25,
    "duration": 0.25,
    "velocity": 100,
    "pitch": 60
  },
  {
    "clipIndex": 522,
    "trackId": "22",
    "clipName": null,
    "beat": 414,
    "relBeat": 21.25,
    "duration": 0.25,
    "velocity": 100,
    "pitch": 60
  },
  {
    "clipIndex": 523,
    "trackId": "22",
    "clipName": null,
    "beat": 414,
    "relBeat": 16.5,
    "duration": 0.25,
    "velocity": 100,
    "pitch": 60
  },
  {
    "clipIndex": 524,
    "trackId": "22",
    "clipName": null,
    "beat": 414,
    "relBeat": 12.5,
    "duration": 0.25,
    "velocity": 100,
    "pitch": 60
  },
  {
    "clipIndex": 526,
    "trackId": "22",
    "clipName": null,
    "beat": 414,
    "relBeat": 4.5,
    "duration": 0.25,
    "velocity": 100,
    "pitch": 60
  },
  {
    "clipIndex": 527,
    "trackId": "22",
    "clipName": null,
    "beat": 414,
    "relBeat": 0.5,
    "duration": 0.25,
    "velocity": 100,
    "pitch": 60
  },
  {
    "clipIndex": 0,
    "trackId": "89",
    "clipName": null,
    "beat": 414.25,
    "relBeat": 414.25,
    "duration": 0.25,
    "velocity": 100,
    "pitch": 60
  },
  {
    "clipIndex": 338,
    "trackId": "55",
    "clipName": null,
    "beat": 414.25,
    "relBeat": 214.25,
    "duration": 0.25000026015651017,
    "velocity": 100,
    "pitch": 60
  },
  {
    "clipIndex": 520,
    "trackId": "22",
    "clipName": null,
    "beat": 414.25,
    "relBeat": 29.5,
    "duration": 0.25,
    "velocity": 100,
    "pitch": 60
  },
  {
    "clipIndex": 521,
    "trackId": "22",
    "clipName": null,
    "beat": 414.25,
    "relBeat": 25.5,
    "duration": 0.25,
    "velocity": 100,
    "pitch": 60
  },
  {
    "clipIndex": 523,
    "trackId": "22",
    "clipName": null,
    "beat": 414.25,
    "relBeat": 16.75,
    "duration": 0.25,
    "velocity": 100,
    "pitch": 60
  },
  {
    "clipIndex": 524,
    "trackId": "22",
    "clipName": null,
    "beat": 414.25,
    "relBeat": 12.75,
    "duration": 0.25,
    "velocity": 100,
    "pitch": 60
  },
  {
    "clipIndex": 526,
    "trackId": "22",
    "clipName": null,
    "beat": 414.25,
    "relBeat": 4.75,
    "duration": 0.25,
    "velocity": 100,
    "pitch": 60
  },
  {
    "clipIndex": 527,
    "trackId": "22",
    "clipName": null,
    "beat": 414.25,
    "relBeat": 0.75,
    "duration": 0.25,
    "velocity": 100,
    "pitch": 60
  },
  {
    "clipIndex": 349,
    "trackId": "55",
    "clipName": null,
    "beat": 414.5,
    "relBeat": 110.5,
    "duration": 0.25000026015651017,
    "velocity": 100,
    "pitch": 60
  },
  {
    "clipIndex": 520,
    "trackId": "22",
    "clipName": null,
    "beat": 414.5,
    "relBeat": 29.75,
    "duration": 0.25,
    "velocity": 100,
    "pitch": 60
  },
  {
    "clipIndex": 521,
    "trackId": "22",
    "clipName": null,
    "beat": 414.5,
    "relBeat": 25.75,
    "duration": 0.25,
    "velocity": 100,
    "pitch": 60
  },
  {
    "clipIndex": 523,
    "trackId": "22",
    "clipName": null,
    "beat": 414.5,
    "relBeat": 17,
    "duration": 0.25,
    "velocity": 100,
    "pitch": 60
  },
  {
    "clipIndex": 524,
    "trackId": "22",
    "clipName": null,
    "beat": 414.5,
    "relBeat": 13,
    "duration": 0.25,
    "velocity": 100,
    "pitch": 60
  },
  {
    "clipIndex": 525,
    "trackId": "22",
    "clipName": null,
    "beat": 414.5,
    "relBeat": 9,
    "duration": 0.25,
    "velocity": 100,
    "pitch": 60
  },
  {
    "clipIndex": 526,
    "trackId": "22",
    "clipName": null,
    "beat": 414.5,
    "relBeat": 5,
    "duration": 0.25,
    "velocity": 100,
    "pitch": 60
  },
  {
    "clipIndex": 527,
    "trackId": "22",
    "clipName": null,
    "beat": 414.5,
    "relBeat": 1,
    "duration": 0.25,
    "velocity": 100,
    "pitch": 60
  },
  {
    "clipIndex": 520,
    "trackId": "22",
    "clipName": null,
    "beat": 414.75,
    "relBeat": 30,
    "duration": 0.25,
    "velocity": 100,
    "pitch": 60
  },
  {
    "clipIndex": 521,
    "trackId": "22",
    "clipName": null,
    "beat": 414.75,
    "relBeat": 26,
    "duration": 0.25,
    "velocity": 100,
    "pitch": 60
  },
  {
    "clipIndex": 523,
    "trackId": "22",
    "clipName": null,
    "beat": 414.75,
    "relBeat": 17.25,
    "duration": 0.25,
    "velocity": 100,
    "pitch": 60
  },
  {
    "clipIndex": 524,
    "trackId": "22",
    "clipName": null,
    "beat": 414.75,
    "relBeat": 13.25,
    "duration": 0.25,
    "velocity": 100,
    "pitch": 60
  },
  {
    "clipIndex": 525,
    "trackId": "22",
    "clipName": null,
    "beat": 414.75,
    "relBeat": 9.25,
    "duration": 0.25,
    "velocity": 100,
    "pitch": 60
  },
  {
    "clipIndex": 526,
    "trackId": "22",
    "clipName": null,
    "beat": 414.75,
    "relBeat": 5.25,
    "duration": 0.25,
    "velocity": 100,
    "pitch": 60
  },
  {
    "clipIndex": 527,
    "trackId": "22",
    "clipName": null,
    "beat": 414.75,
    "relBeat": 1.25,
    "duration": 0.25,
    "velocity": 100,
    "pitch": 60
  },
  {
    "clipIndex": 520,
    "trackId": "22",
    "clipName": null,
    "beat": 415,
    "relBeat": 30.25,
    "duration": 0.25,
    "velocity": 100,
    "pitch": 60
  },
  {
    "clipIndex": 521,
    "trackId": "22",
    "clipName": null,
    "beat": 415,
    "relBeat": 26.25,
    "duration": 0.25,
    "velocity": 100,
    "pitch": 60
  },
  {
    "clipIndex": 523,
    "trackId": "22",
    "clipName": null,
    "beat": 415,
    "relBeat": 17.5,
    "duration": 0.25,
    "velocity": 100,
    "pitch": 60
  },
  {
    "clipIndex": 524,
    "trackId": "22",
    "clipName": null,
    "beat": 415,
    "relBeat": 13.5,
    "duration": 0.25,
    "velocity": 100,
    "pitch": 60
  },
  {
    "clipIndex": 525,
    "trackId": "22",
    "clipName": null,
    "beat": 415,
    "relBeat": 9.5,
    "duration": 0.25,
    "velocity": 100,
    "pitch": 60
  },
  {
    "clipIndex": 526,
    "trackId": "22",
    "clipName": null,
    "beat": 415,
    "relBeat": 5.5,
    "duration": 0.25,
    "velocity": 100,
    "pitch": 60
  },
  {
    "clipIndex": 527,
    "trackId": "22",
    "clipName": null,
    "beat": 415,
    "relBeat": 1.5,
    "duration": 0.25,
    "velocity": 100,
    "pitch": 60
  },
  {
    "clipIndex": 520,
    "trackId": "22",
    "clipName": null,
    "beat": 415.25,
    "relBeat": 30.5,
    "duration": 0.25,
    "velocity": 100,
    "pitch": 60
  },
  {
    "clipIndex": 521,
    "trackId": "22",
    "clipName": null,
    "beat": 415.25,
    "relBeat": 26.5,
    "duration": 0.25,
    "velocity": 100,
    "pitch": 60
  },
  {
    "clipIndex": 523,
    "trackId": "22",
    "clipName": null,
    "beat": 415.25,
    "relBeat": 17.75,
    "duration": 0.25,
    "velocity": 100,
    "pitch": 60
  },
  {
    "clipIndex": 524,
    "trackId": "22",
    "clipName": null,
    "beat": 415.25,
    "relBeat": 13.75,
    "duration": 0.25,
    "velocity": 100,
    "pitch": 60
  },
  {
    "clipIndex": 525,
    "trackId": "22",
    "clipName": null,
    "beat": 415.25,
    "relBeat": 9.75,
    "duration": 0.25,
    "velocity": 100,
    "pitch": 60
  },
  {
    "clipIndex": 526,
    "trackId": "22",
    "clipName": null,
    "beat": 415.25,
    "relBeat": 5.75,
    "duration": 0.25,
    "velocity": 100,
    "pitch": 60
  },
  {
    "clipIndex": 527,
    "trackId": "22",
    "clipName": null,
    "beat": 415.25,
    "relBeat": 1.75,
    "duration": 0.25,
    "velocity": 100,
    "pitch": 60
  },
  {
    "clipIndex": 520,
    "trackId": "22",
    "clipName": null,
    "beat": 415.5,
    "relBeat": 30.75,
    "duration": 0.25,
    "velocity": 100,
    "pitch": 60
  },
  {
    "clipIndex": 521,
    "trackId": "22",
    "clipName": null,
    "beat": 415.5,
    "relBeat": 26.75,
    "duration": 0.25,
    "velocity": 100,
    "pitch": 60
  },
  {
    "clipIndex": 523,
    "trackId": "22",
    "clipName": null,
    "beat": 415.5,
    "relBeat": 18,
    "duration": 0.25,
    "velocity": 100,
    "pitch": 60
  },
  {
    "clipIndex": 524,
    "trackId": "22",
    "clipName": null,
    "beat": 415.5,
    "relBeat": 14,
    "duration": 0.25,
    "velocity": 100,
    "pitch": 60
  },
  {
    "clipIndex": 525,
    "trackId": "22",
    "clipName": null,
    "beat": 415.5,
    "relBeat": 10,
    "duration": 0.25,
    "velocity": 100,
    "pitch": 60
  },
  {
    "clipIndex": 527,
    "trackId": "22",
    "clipName": null,
    "beat": 415.5,
    "relBeat": 2,
    "duration": 0.25,
    "velocity": 100,
    "pitch": 60
  },
  {
    "clipIndex": 520,
    "trackId": "22",
    "clipName": null,
    "beat": 415.75,
    "relBeat": 31,
    "duration": 0.25,
    "velocity": 100,
    "pitch": 60
  },
  {
    "clipIndex": 521,
    "trackId": "22",
    "clipName": null,
    "beat": 415.75,
    "relBeat": 27,
    "duration": 0.25,
    "velocity": 100,
    "pitch": 60
  },
  {
    "clipIndex": 523,
    "trackId": "22",
    "clipName": null,
    "beat": 415.75,
    "relBeat": 18.25,
    "duration": 0.25,
    "velocity": 100,
    "pitch": 60
  },
  {
    "clipIndex": 524,
    "trackId": "22",
    "clipName": null,
    "beat": 415.75,
    "relBeat": 14.25,
    "duration": 0.25,
    "velocity": 100,
    "pitch": 60
  },
  {
    "clipIndex": 527,
    "trackId": "22",
    "clipName": null,
    "beat": 415.75,
    "relBeat": 2.25,
    "duration": 0.25,
    "velocity": 100,
    "pitch": 60
  },
  {
    "clipIndex": 520,
    "trackId": "22",
    "clipName": null,
    "beat": 416,
    "relBeat": 31.25,
    "duration": 0.25,
    "velocity": 100,
    "pitch": 60
  },
  {
    "clipIndex": 521,
    "trackId": "22",
    "clipName": null,
    "beat": 416,
    "relBeat": 27.25,
    "duration": 0.25,
    "velocity": 100,
    "pitch": 60
  },
  {
    "clipIndex": 523,
    "trackId": "22",
    "clipName": null,
    "beat": 416,
    "relBeat": 18.5,
    "duration": 0.25,
    "velocity": 100,
    "pitch": 60
  },
  {
    "clipIndex": 524,
    "trackId": "22",
    "clipName": null,
    "beat": 416,
    "relBeat": 14.5,
    "duration": 0.25,
    "velocity": 100,
    "pitch": 60
  },
  {
    "clipIndex": 527,
    "trackId": "22",
    "clipName": null,
    "beat": 416,
    "relBeat": 2.5,
    "duration": 0.25,
    "velocity": 100,
    "pitch": 60
  },
  {
    "clipIndex": 520,
    "trackId": "22",
    "clipName": null,
    "beat": 416.25,
    "relBeat": 31.5,
    "duration": 0.25,
    "velocity": 100,
    "pitch": 60
  },
  {
    "clipIndex": 521,
    "trackId": "22",
    "clipName": null,
    "beat": 416.25,
    "relBeat": 27.5,
    "duration": 0.25,
    "velocity": 100,
    "pitch": 60
  },
  {
    "clipIndex": 523,
    "trackId": "22",
    "clipName": null,
    "beat": 416.25,
    "relBeat": 18.75,
    "duration": 0.25,
    "velocity": 100,
    "pitch": 60
  },
  {
    "clipIndex": 524,
    "trackId": "22",
    "clipName": null,
    "beat": 416.25,
    "relBeat": 14.75,
    "duration": 0.25,
    "velocity": 100,
    "pitch": 60
  },
  {
    "clipIndex": 527,
    "trackId": "22",
    "clipName": null,
    "beat": 416.25,
    "relBeat": 2.75,
    "duration": 0.25,
    "velocity": 100,
    "pitch": 60
  },
  {
    "clipIndex": 520,
    "trackId": "22",
    "clipName": null,
    "beat": 416.5,
    "relBeat": 31.75,
    "duration": 0.25,
    "velocity": 100,
    "pitch": 60
  },
  {
    "clipIndex": 521,
    "trackId": "22",
    "clipName": null,
    "beat": 416.5,
    "relBeat": 27.75,
    "duration": 0.25,
    "velocity": 100,
    "pitch": 60
  },
  {
    "clipIndex": 523,
    "trackId": "22",
    "clipName": null,
    "beat": 416.5,
    "relBeat": 19,
    "duration": 0.25,
    "velocity": 100,
    "pitch": 60
  },
  {
    "clipIndex": 524,
    "trackId": "22",
    "clipName": null,
    "beat": 416.5,
    "relBeat": 15,
    "duration": 0.25,
    "velocity": 100,
    "pitch": 60
  },
  {
    "clipIndex": 527,
    "trackId": "22",
    "clipName": null,
    "beat": 416.5,
    "relBeat": 3,
    "duration": 0.25,
    "velocity": 100,
    "pitch": 60
  },
  {
    "clipIndex": 521,
    "trackId": "22",
    "clipName": null,
    "beat": 416.75,
    "relBeat": 28,
    "duration": 0.25,
    "velocity": 100,
    "pitch": 60
  },
  {
    "clipIndex": 522,
    "trackId": "22",
    "clipName": null,
    "beat": 416.75,
    "relBeat": 24,
    "duration": 0.25,
    "velocity": 100,
    "pitch": 60
  },
  {
    "clipIndex": 523,
    "trackId": "22",
    "clipName": null,
    "beat": 416.75,
    "relBeat": 19.25,
    "duration": 0.25,
    "velocity": 100,
    "pitch": 60
  },
  {
    "clipIndex": 524,
    "trackId": "22",
    "clipName": null,
    "beat": 416.75,
    "relBeat": 15.25,
    "duration": 0.25,
    "velocity": 100,
    "pitch": 60
  },
  {
    "clipIndex": 527,
    "trackId": "22",
    "clipName": null,
    "beat": 416.75,
    "relBeat": 3.25,
    "duration": 0.25,
    "velocity": 100,
    "pitch": 60
  },
  {
    "clipIndex": 521,
    "trackId": "22",
    "clipName": null,
    "beat": 417,
    "relBeat": 28.25,
    "duration": 0.25,
    "velocity": 100,
    "pitch": 60
  },
  {
    "clipIndex": 522,
    "trackId": "22",
    "clipName": null,
    "beat": 417,
    "relBeat": 24.25,
    "duration": 0.25,
    "velocity": 100,
    "pitch": 60
  },
  {
    "clipIndex": 523,
    "trackId": "22",
    "clipName": null,
    "beat": 417,
    "relBeat": 19.5,
    "duration": 0.25,
    "velocity": 100,
    "pitch": 60
  },
  {
    "clipIndex": 524,
    "trackId": "22",
    "clipName": null,
    "beat": 417,
    "relBeat": 15.5,
    "duration": 0.25,
    "velocity": 100,
    "pitch": 60
  },
  {
    "clipIndex": 527,
    "trackId": "22",
    "clipName": null,
    "beat": 417,
    "relBeat": 3.5,
    "duration": 0.25,
    "velocity": 100,
    "pitch": 60
  },
  {
    "clipIndex": 521,
    "trackId": "22",
    "clipName": null,
    "beat": 417.25,
    "relBeat": 28.5,
    "duration": 0.25,
    "velocity": 100,
    "pitch": 60
  },
  {
    "clipIndex": 522,
    "trackId": "22",
    "clipName": null,
    "beat": 417.25,
    "relBeat": 24.5,
    "duration": 0.25,
    "velocity": 100,
    "pitch": 60
  },
  {
    "clipIndex": 523,
    "trackId": "22",
    "clipName": null,
    "beat": 417.25,
    "relBeat": 19.75,
    "duration": 0.25,
    "velocity": 100,
    "pitch": 60
  },
  {
    "clipIndex": 524,
    "trackId": "22",
    "clipName": null,
    "beat": 417.25,
    "relBeat": 15.75,
    "duration": 0.25,
    "velocity": 100,
    "pitch": 60
  },
  {
    "clipIndex": 527,
    "trackId": "22",
    "clipName": null,
    "beat": 417.25,
    "relBeat": 3.75,
    "duration": 0.25,
    "velocity": 100,
    "pitch": 60
  },
  {
    "clipIndex": 0,
    "trackId": "89",
    "clipName": null,
    "beat": 417.5,
    "relBeat": 417.5,
    "duration": 0.25,
    "velocity": 100,
    "pitch": 60
  },
  {
    "clipIndex": 521,
    "trackId": "22",
    "clipName": null,
    "beat": 417.5,
    "relBeat": 28.75,
    "duration": 0.25,
    "velocity": 100,
    "pitch": 60
  },
  {
    "clipIndex": 522,
    "trackId": "22",
    "clipName": null,
    "beat": 417.5,
    "relBeat": 24.75,
    "duration": 0.25,
    "velocity": 100,
    "pitch": 60
  },
  {
    "clipIndex": 523,
    "trackId": "22",
    "clipName": null,
    "beat": 417.5,
    "relBeat": 20,
    "duration": 0.25,
    "velocity": 100,
    "pitch": 60
  },
  {
    "clipIndex": 524,
    "trackId": "22",
    "clipName": null,
    "beat": 417.5,
    "relBeat": 16,
    "duration": 0.25,
    "velocity": 100,
    "pitch": 60
  },
  {
    "clipIndex": 525,
    "trackId": "22",
    "clipName": null,
    "beat": 417.5,
    "relBeat": 12,
    "duration": 0.25,
    "velocity": 100,
    "pitch": 60
  },
  {
    "clipIndex": 527,
    "trackId": "22",
    "clipName": null,
    "beat": 417.5,
    "relBeat": 4,
    "duration": 0.25,
    "velocity": 100,
    "pitch": 60
  },
  {
    "clipIndex": 528,
    "trackId": "22",
    "clipName": null,
    "beat": 417.5,
    "relBeat": 0,
    "duration": 0.25,
    "velocity": 100,
    "pitch": 60
  },
  {
    "clipIndex": 521,
    "trackId": "22",
    "clipName": null,
    "beat": 417.75,
    "relBeat": 29,
    "duration": 0.25,
    "velocity": 100,
    "pitch": 60
  },
  {
    "clipIndex": 522,
    "trackId": "22",
    "clipName": null,
    "beat": 417.75,
    "relBeat": 25,
    "duration": 0.25,
    "velocity": 100,
    "pitch": 60
  },
  {
    "clipIndex": 523,
    "trackId": "22",
    "clipName": null,
    "beat": 417.75,
    "relBeat": 20.25,
    "duration": 0.25,
    "velocity": 100,
    "pitch": 60
  },
  {
    "clipIndex": 524,
    "trackId": "22",
    "clipName": null,
    "beat": 417.75,
    "relBeat": 16.25,
    "duration": 0.25,
    "velocity": 100,
    "pitch": 60
  },
  {
    "clipIndex": 525,
    "trackId": "22",
    "clipName": null,
    "beat": 417.75,
    "relBeat": 12.25,
    "duration": 0.25,
    "velocity": 100,
    "pitch": 60
  },
  {
    "clipIndex": 527,
    "trackId": "22",
    "clipName": null,
    "beat": 417.75,
    "relBeat": 4.25,
    "duration": 0.25,
    "velocity": 100,
    "pitch": 60
  },
  {
    "clipIndex": 528,
    "trackId": "22",
    "clipName": null,
    "beat": 417.75,
    "relBeat": 0.25,
    "duration": 0.25,
    "velocity": 100,
    "pitch": 60
  },
  {
    "clipIndex": 521,
    "trackId": "22",
    "clipName": null,
    "beat": 418,
    "relBeat": 29.25,
    "duration": 0.25,
    "velocity": 100,
    "pitch": 60
  },
  {
    "clipIndex": 522,
    "trackId": "22",
    "clipName": null,
    "beat": 418,
    "relBeat": 25.25,
    "duration": 0.25,
    "velocity": 100,
    "pitch": 60
  },
  {
    "clipIndex": 523,
    "trackId": "22",
    "clipName": null,
    "beat": 418,
    "relBeat": 20.5,
    "duration": 0.25,
    "velocity": 100,
    "pitch": 60
  },
  {
    "clipIndex": 524,
    "trackId": "22",
    "clipName": null,
    "beat": 418,
    "relBeat": 16.5,
    "duration": 0.25,
    "velocity": 100,
    "pitch": 60
  },
  {
    "clipIndex": 525,
    "trackId": "22",
    "clipName": null,
    "beat": 418,
    "relBeat": 12.5,
    "duration": 0.25,
    "velocity": 100,
    "pitch": 60
  },
  {
    "clipIndex": 527,
    "trackId": "22",
    "clipName": null,
    "beat": 418,
    "relBeat": 4.5,
    "duration": 0.25,
    "velocity": 100,
    "pitch": 60
  },
  {
    "clipIndex": 528,
    "trackId": "22",
    "clipName": null,
    "beat": 418,
    "relBeat": 0.5,
    "duration": 0.25,
    "velocity": 100,
    "pitch": 60
  },
  {
    "clipIndex": 0,
    "trackId": "89",
    "clipName": null,
    "beat": 418.25,
    "relBeat": 418.25,
    "duration": 0.25,
    "velocity": 100,
    "pitch": 60
  },
  {
    "clipIndex": 338,
    "trackId": "55",
    "clipName": null,
    "beat": 418.25,
    "relBeat": 218.25,
    "duration": 0.25000026015651017,
    "velocity": 100,
    "pitch": 60
  },
  {
    "clipIndex": 521,
    "trackId": "22",
    "clipName": null,
    "beat": 418.25,
    "relBeat": 29.5,
    "duration": 0.25,
    "velocity": 100,
    "pitch": 60
  },
  {
    "clipIndex": 522,
    "trackId": "22",
    "clipName": null,
    "beat": 418.25,
    "relBeat": 25.5,
    "duration": 0.25,
    "velocity": 100,
    "pitch": 60
  },
  {
    "clipIndex": 523,
    "trackId": "22",
    "clipName": null,
    "beat": 418.25,
    "relBeat": 20.75,
    "duration": 0.25,
    "velocity": 100,
    "pitch": 60
  },
  {
    "clipIndex": 524,
    "trackId": "22",
    "clipName": null,
    "beat": 418.25,
    "relBeat": 16.75,
    "duration": 0.25,
    "velocity": 100,
    "pitch": 60
  },
  {
    "clipIndex": 525,
    "trackId": "22",
    "clipName": null,
    "beat": 418.25,
    "relBeat": 12.75,
    "duration": 0.25,
    "velocity": 100,
    "pitch": 60
  },
  {
    "clipIndex": 527,
    "trackId": "22",
    "clipName": null,
    "beat": 418.25,
    "relBeat": 4.75,
    "duration": 0.25,
    "velocity": 100,
    "pitch": 60
  },
  {
    "clipIndex": 528,
    "trackId": "22",
    "clipName": null,
    "beat": 418.25,
    "relBeat": 0.75,
    "duration": 0.25,
    "velocity": 100,
    "pitch": 60
  },
  {
    "clipIndex": 521,
    "trackId": "22",
    "clipName": null,
    "beat": 418.5,
    "relBeat": 29.75,
    "duration": 0.25,
    "velocity": 100,
    "pitch": 60
  },
  {
    "clipIndex": 522,
    "trackId": "22",
    "clipName": null,
    "beat": 418.5,
    "relBeat": 25.75,
    "duration": 0.25,
    "velocity": 100,
    "pitch": 60
  },
  {
    "clipIndex": 523,
    "trackId": "22",
    "clipName": null,
    "beat": 418.5,
    "relBeat": 21,
    "duration": 0.25,
    "velocity": 100,
    "pitch": 60
  },
  {
    "clipIndex": 524,
    "trackId": "22",
    "clipName": null,
    "beat": 418.5,
    "relBeat": 17,
    "duration": 0.25,
    "velocity": 100,
    "pitch": 60
  },
  {
    "clipIndex": 525,
    "trackId": "22",
    "clipName": null,
    "beat": 418.5,
    "relBeat": 13,
    "duration": 0.25,
    "velocity": 100,
    "pitch": 60
  },
  {
    "clipIndex": 526,
    "trackId": "22",
    "clipName": null,
    "beat": 418.5,
    "relBeat": 9,
    "duration": 0.25,
    "velocity": 100,
    "pitch": 60
  },
  {
    "clipIndex": 527,
    "trackId": "22",
    "clipName": null,
    "beat": 418.5,
    "relBeat": 5,
    "duration": 0.25,
    "velocity": 100,
    "pitch": 60
  },
  {
    "clipIndex": 528,
    "trackId": "22",
    "clipName": null,
    "beat": 418.5,
    "relBeat": 1,
    "duration": 0.25,
    "velocity": 100,
    "pitch": 60
  },
  {
    "clipIndex": 521,
    "trackId": "22",
    "clipName": null,
    "beat": 418.75,
    "relBeat": 30,
    "duration": 0.25,
    "velocity": 100,
    "pitch": 60
  },
  {
    "clipIndex": 522,
    "trackId": "22",
    "clipName": null,
    "beat": 418.75,
    "relBeat": 26,
    "duration": 0.25,
    "velocity": 100,
    "pitch": 60
  },
  {
    "clipIndex": 523,
    "trackId": "22",
    "clipName": null,
    "beat": 418.75,
    "relBeat": 21.25,
    "duration": 0.25,
    "velocity": 100,
    "pitch": 60
  },
  {
    "clipIndex": 524,
    "trackId": "22",
    "clipName": null,
    "beat": 418.75,
    "relBeat": 17.25,
    "duration": 0.25,
    "velocity": 100,
    "pitch": 60
  },
  {
    "clipIndex": 525,
    "trackId": "22",
    "clipName": null,
    "beat": 418.75,
    "relBeat": 13.25,
    "duration": 0.25,
    "velocity": 100,
    "pitch": 60
  },
  {
    "clipIndex": 526,
    "trackId": "22",
    "clipName": null,
    "beat": 418.75,
    "relBeat": 9.25,
    "duration": 0.25,
    "velocity": 100,
    "pitch": 60
  },
  {
    "clipIndex": 527,
    "trackId": "22",
    "clipName": null,
    "beat": 418.75,
    "relBeat": 5.25,
    "duration": 0.25,
    "velocity": 100,
    "pitch": 60
  },
  {
    "clipIndex": 528,
    "trackId": "22",
    "clipName": null,
    "beat": 418.75,
    "relBeat": 1.25,
    "duration": 0.25,
    "velocity": 100,
    "pitch": 60
  },
  {
    "clipIndex": 521,
    "trackId": "22",
    "clipName": null,
    "beat": 419,
    "relBeat": 30.25,
    "duration": 0.25,
    "velocity": 100,
    "pitch": 60
  },
  {
    "clipIndex": 522,
    "trackId": "22",
    "clipName": null,
    "beat": 419,
    "relBeat": 26.25,
    "duration": 0.25,
    "velocity": 100,
    "pitch": 60
  },
  {
    "clipIndex": 524,
    "trackId": "22",
    "clipName": null,
    "beat": 419,
    "relBeat": 17.5,
    "duration": 0.25,
    "velocity": 100,
    "pitch": 60
  },
  {
    "clipIndex": 525,
    "trackId": "22",
    "clipName": null,
    "beat": 419,
    "relBeat": 13.5,
    "duration": 0.25,
    "velocity": 100,
    "pitch": 60
  },
  {
    "clipIndex": 526,
    "trackId": "22",
    "clipName": null,
    "beat": 419,
    "relBeat": 9.5,
    "duration": 0.25,
    "velocity": 100,
    "pitch": 60
  },
  {
    "clipIndex": 527,
    "trackId": "22",
    "clipName": null,
    "beat": 419,
    "relBeat": 5.5,
    "duration": 0.25,
    "velocity": 100,
    "pitch": 60
  },
  {
    "clipIndex": 528,
    "trackId": "22",
    "clipName": null,
    "beat": 419,
    "relBeat": 1.5,
    "duration": 0.25,
    "velocity": 100,
    "pitch": 60
  },
  {
    "clipIndex": 521,
    "trackId": "22",
    "clipName": null,
    "beat": 419.25,
    "relBeat": 30.5,
    "duration": 0.25,
    "velocity": 100,
    "pitch": 60
  },
  {
    "clipIndex": 522,
    "trackId": "22",
    "clipName": null,
    "beat": 419.25,
    "relBeat": 26.5,
    "duration": 0.25,
    "velocity": 100,
    "pitch": 60
  },
  {
    "clipIndex": 524,
    "trackId": "22",
    "clipName": null,
    "beat": 419.25,
    "relBeat": 17.75,
    "duration": 0.25,
    "velocity": 100,
    "pitch": 60
  },
  {
    "clipIndex": 525,
    "trackId": "22",
    "clipName": null,
    "beat": 419.25,
    "relBeat": 13.75,
    "duration": 0.25,
    "velocity": 100,
    "pitch": 60
  },
  {
    "clipIndex": 526,
    "trackId": "22",
    "clipName": null,
    "beat": 419.25,
    "relBeat": 9.75,
    "duration": 0.25,
    "velocity": 100,
    "pitch": 60
  },
  {
    "clipIndex": 527,
    "trackId": "22",
    "clipName": null,
    "beat": 419.25,
    "relBeat": 5.75,
    "duration": 0.25,
    "velocity": 100,
    "pitch": 60
  },
  {
    "clipIndex": 528,
    "trackId": "22",
    "clipName": null,
    "beat": 419.25,
    "relBeat": 1.75,
    "duration": 0.25,
    "velocity": 100,
    "pitch": 60
  },
  {
    "clipIndex": 343,
    "trackId": "55",
    "clipName": null,
    "beat": 419.5,
    "relBeat": 179.5,
    "duration": 0.25000026015651017,
    "velocity": 100,
    "pitch": 60
  },
  {
    "clipIndex": 348,
    "trackId": "55",
    "clipName": null,
    "beat": 419.5,
    "relBeat": 123.5,
    "duration": 0.25000026015651017,
    "velocity": 100,
    "pitch": 60
  },
  {
    "clipIndex": 521,
    "trackId": "22",
    "clipName": null,
    "beat": 419.5,
    "relBeat": 30.75,
    "duration": 0.25,
    "velocity": 100,
    "pitch": 60
  },
  {
    "clipIndex": 522,
    "trackId": "22",
    "clipName": null,
    "beat": 419.5,
    "relBeat": 26.75,
    "duration": 0.25,
    "velocity": 100,
    "pitch": 60
  },
  {
    "clipIndex": 524,
    "trackId": "22",
    "clipName": null,
    "beat": 419.5,
    "relBeat": 18,
    "duration": 0.25,
    "velocity": 100,
    "pitch": 60
  },
  {
    "clipIndex": 525,
    "trackId": "22",
    "clipName": null,
    "beat": 419.5,
    "relBeat": 14,
    "duration": 0.25,
    "velocity": 100,
    "pitch": 60
  },
  {
    "clipIndex": 526,
    "trackId": "22",
    "clipName": null,
    "beat": 419.5,
    "relBeat": 10,
    "duration": 0.25,
    "velocity": 100,
    "pitch": 60
  },
  {
    "clipIndex": 528,
    "trackId": "22",
    "clipName": null,
    "beat": 419.5,
    "relBeat": 2,
    "duration": 0.25,
    "velocity": 100,
    "pitch": 60
  },
  {
    "clipIndex": 521,
    "trackId": "22",
    "clipName": null,
    "beat": 419.75,
    "relBeat": 31,
    "duration": 0.25,
    "velocity": 100,
    "pitch": 60
  },
  {
    "clipIndex": 522,
    "trackId": "22",
    "clipName": null,
    "beat": 419.75,
    "relBeat": 27,
    "duration": 0.25,
    "velocity": 100,
    "pitch": 60
  },
  {
    "clipIndex": 524,
    "trackId": "22",
    "clipName": null,
    "beat": 419.75,
    "relBeat": 18.25,
    "duration": 0.25,
    "velocity": 100,
    "pitch": 60
  },
  {
    "clipIndex": 525,
    "trackId": "22",
    "clipName": null,
    "beat": 419.75,
    "relBeat": 14.25,
    "duration": 0.25,
    "velocity": 100,
    "pitch": 60
  },
  {
    "clipIndex": 528,
    "trackId": "22",
    "clipName": null,
    "beat": 419.75,
    "relBeat": 2.25,
    "duration": 0.25,
    "velocity": 100,
    "pitch": 60
  },
  {
    "clipIndex": 521,
    "trackId": "22",
    "clipName": null,
    "beat": 420,
    "relBeat": 31.25,
    "duration": 0.25,
    "velocity": 100,
    "pitch": 60
  },
  {
    "clipIndex": 522,
    "trackId": "22",
    "clipName": null,
    "beat": 420,
    "relBeat": 27.25,
    "duration": 0.25,
    "velocity": 100,
    "pitch": 60
  },
  {
    "clipIndex": 524,
    "trackId": "22",
    "clipName": null,
    "beat": 420,
    "relBeat": 18.5,
    "duration": 0.25,
    "velocity": 100,
    "pitch": 60
  },
  {
    "clipIndex": 525,
    "trackId": "22",
    "clipName": null,
    "beat": 420,
    "relBeat": 14.5,
    "duration": 0.25,
    "velocity": 100,
    "pitch": 60
  },
  {
    "clipIndex": 528,
    "trackId": "22",
    "clipName": null,
    "beat": 420,
    "relBeat": 2.5,
    "duration": 0.25,
    "velocity": 100,
    "pitch": 60
  },
  {
    "clipIndex": 343,
    "trackId": "55",
    "clipName": null,
    "beat": 420.25,
    "relBeat": 180.25,
    "duration": 0.25000026015651017,
    "velocity": 100,
    "pitch": 60
  },
  {
    "clipIndex": 521,
    "trackId": "22",
    "clipName": null,
    "beat": 420.25,
    "relBeat": 31.5,
    "duration": 0.25,
    "velocity": 100,
    "pitch": 60
  },
  {
    "clipIndex": 522,
    "trackId": "22",
    "clipName": null,
    "beat": 420.25,
    "relBeat": 27.5,
    "duration": 0.25,
    "velocity": 100,
    "pitch": 60
  },
  {
    "clipIndex": 524,
    "trackId": "22",
    "clipName": null,
    "beat": 420.25,
    "relBeat": 18.75,
    "duration": 0.25,
    "velocity": 100,
    "pitch": 60
  },
  {
    "clipIndex": 525,
    "trackId": "22",
    "clipName": null,
    "beat": 420.25,
    "relBeat": 14.75,
    "duration": 0.25,
    "velocity": 100,
    "pitch": 60
  },
  {
    "clipIndex": 528,
    "trackId": "22",
    "clipName": null,
    "beat": 420.25,
    "relBeat": 2.75,
    "duration": 0.25,
    "velocity": 100,
    "pitch": 60
  },
  {
    "clipIndex": 521,
    "trackId": "22",
    "clipName": null,
    "beat": 420.5,
    "relBeat": 31.75,
    "duration": 0.25,
    "velocity": 100,
    "pitch": 60
  },
  {
    "clipIndex": 522,
    "trackId": "22",
    "clipName": null,
    "beat": 420.5,
    "relBeat": 27.75,
    "duration": 0.25,
    "velocity": 100,
    "pitch": 60
  },
  {
    "clipIndex": 524,
    "trackId": "22",
    "clipName": null,
    "beat": 420.5,
    "relBeat": 19,
    "duration": 0.25,
    "velocity": 100,
    "pitch": 60
  },
  {
    "clipIndex": 525,
    "trackId": "22",
    "clipName": null,
    "beat": 420.5,
    "relBeat": 15,
    "duration": 0.25,
    "velocity": 100,
    "pitch": 60
  },
  {
    "clipIndex": 528,
    "trackId": "22",
    "clipName": null,
    "beat": 420.5,
    "relBeat": 3,
    "duration": 0.25,
    "velocity": 100,
    "pitch": 60
  },
  {
    "clipIndex": 522,
    "trackId": "22",
    "clipName": null,
    "beat": 420.75,
    "relBeat": 28,
    "duration": 0.25,
    "velocity": 100,
    "pitch": 60
  },
  {
    "clipIndex": 524,
    "trackId": "22",
    "clipName": null,
    "beat": 420.75,
    "relBeat": 19.25,
    "duration": 0.25,
    "velocity": 100,
    "pitch": 60
  },
  {
    "clipIndex": 525,
    "trackId": "22",
    "clipName": null,
    "beat": 420.75,
    "relBeat": 15.25,
    "duration": 0.25,
    "velocity": 100,
    "pitch": 60
  },
  {
    "clipIndex": 528,
    "trackId": "22",
    "clipName": null,
    "beat": 420.75,
    "relBeat": 3.25,
    "duration": 0.25,
    "velocity": 100,
    "pitch": 60
  },
  {
    "clipIndex": 343,
    "trackId": "55",
    "clipName": null,
    "beat": 421,
    "relBeat": 181,
    "duration": 0.25000026015651017,
    "velocity": 100,
    "pitch": 60
  },
  {
    "clipIndex": 522,
    "trackId": "22",
    "clipName": null,
    "beat": 421,
    "relBeat": 28.25,
    "duration": 0.25,
    "velocity": 100,
    "pitch": 60
  },
  {
    "clipIndex": 524,
    "trackId": "22",
    "clipName": null,
    "beat": 421,
    "relBeat": 19.5,
    "duration": 0.25,
    "velocity": 100,
    "pitch": 60
  },
  {
    "clipIndex": 525,
    "trackId": "22",
    "clipName": null,
    "beat": 421,
    "relBeat": 15.5,
    "duration": 0.25,
    "velocity": 100,
    "pitch": 60
  },
  {
    "clipIndex": 528,
    "trackId": "22",
    "clipName": null,
    "beat": 421,
    "relBeat": 3.5,
    "duration": 0.25,
    "velocity": 100,
    "pitch": 60
  },
  {
    "clipIndex": 522,
    "trackId": "22",
    "clipName": null,
    "beat": 421.25,
    "relBeat": 28.5,
    "duration": 0.25,
    "velocity": 100,
    "pitch": 60
  },
  {
    "clipIndex": 524,
    "trackId": "22",
    "clipName": null,
    "beat": 421.25,
    "relBeat": 19.75,
    "duration": 0.25,
    "velocity": 100,
    "pitch": 60
  },
  {
    "clipIndex": 525,
    "trackId": "22",
    "clipName": null,
    "beat": 421.25,
    "relBeat": 15.75,
    "duration": 0.25,
    "velocity": 100,
    "pitch": 60
  },
  {
    "clipIndex": 528,
    "trackId": "22",
    "clipName": null,
    "beat": 421.25,
    "relBeat": 3.75,
    "duration": 0.25,
    "velocity": 100,
    "pitch": 60
  },
  {
    "clipIndex": 522,
    "trackId": "22",
    "clipName": null,
    "beat": 421.5,
    "relBeat": 28.75,
    "duration": 0.25,
    "velocity": 100,
    "pitch": 60
  },
  {
    "clipIndex": 523,
    "trackId": "22",
    "clipName": null,
    "beat": 421.5,
    "relBeat": 24,
    "duration": 0.25,
    "velocity": 100,
    "pitch": 60
  },
  {
    "clipIndex": 524,
    "trackId": "22",
    "clipName": null,
    "beat": 421.5,
    "relBeat": 20,
    "duration": 0.25,
    "velocity": 100,
    "pitch": 60
  },
  {
    "clipIndex": 525,
    "trackId": "22",
    "clipName": null,
    "beat": 421.5,
    "relBeat": 16,
    "duration": 0.25,
    "velocity": 100,
    "pitch": 60
  },
  {
    "clipIndex": 526,
    "trackId": "22",
    "clipName": null,
    "beat": 421.5,
    "relBeat": 12,
    "duration": 0.25,
    "velocity": 100,
    "pitch": 60
  },
  {
    "clipIndex": 528,
    "trackId": "22",
    "clipName": null,
    "beat": 421.5,
    "relBeat": 4,
    "duration": 0.25,
    "velocity": 100,
    "pitch": 60
  },
  {
    "clipIndex": 343,
    "trackId": "55",
    "clipName": null,
    "beat": 421.75,
    "relBeat": 181.75,
    "duration": 0.25000026015651017,
    "velocity": 100,
    "pitch": 60
  },
  {
    "clipIndex": 522,
    "trackId": "22",
    "clipName": null,
    "beat": 421.75,
    "relBeat": 29,
    "duration": 0.25,
    "velocity": 100,
    "pitch": 60
  },
  {
    "clipIndex": 523,
    "trackId": "22",
    "clipName": null,
    "beat": 421.75,
    "relBeat": 24.25,
    "duration": 0.25,
    "velocity": 100,
    "pitch": 60
  },
  {
    "clipIndex": 524,
    "trackId": "22",
    "clipName": null,
    "beat": 421.75,
    "relBeat": 20.25,
    "duration": 0.25,
    "velocity": 100,
    "pitch": 60
  },
  {
    "clipIndex": 525,
    "trackId": "22",
    "clipName": null,
    "beat": 421.75,
    "relBeat": 16.25,
    "duration": 0.25,
    "velocity": 100,
    "pitch": 60
  },
  {
    "clipIndex": 526,
    "trackId": "22",
    "clipName": null,
    "beat": 421.75,
    "relBeat": 12.25,
    "duration": 0.25,
    "velocity": 100,
    "pitch": 60
  },
  {
    "clipIndex": 528,
    "trackId": "22",
    "clipName": null,
    "beat": 421.75,
    "relBeat": 4.25,
    "duration": 0.25,
    "velocity": 100,
    "pitch": 60
  },
  {
    "clipIndex": 522,
    "trackId": "22",
    "clipName": null,
    "beat": 422,
    "relBeat": 29.25,
    "duration": 0.25,
    "velocity": 100,
    "pitch": 60
  },
  {
    "clipIndex": 523,
    "trackId": "22",
    "clipName": null,
    "beat": 422,
    "relBeat": 24.5,
    "duration": 0.25,
    "velocity": 100,
    "pitch": 60
  },
  {
    "clipIndex": 524,
    "trackId": "22",
    "clipName": null,
    "beat": 422,
    "relBeat": 20.5,
    "duration": 0.25,
    "velocity": 100,
    "pitch": 60
  },
  {
    "clipIndex": 525,
    "trackId": "22",
    "clipName": null,
    "beat": 422,
    "relBeat": 16.5,
    "duration": 0.25,
    "velocity": 100,
    "pitch": 60
  },
  {
    "clipIndex": 526,
    "trackId": "22",
    "clipName": null,
    "beat": 422,
    "relBeat": 12.5,
    "duration": 0.25,
    "velocity": 100,
    "pitch": 60
  },
  {
    "clipIndex": 528,
    "trackId": "22",
    "clipName": null,
    "beat": 422,
    "relBeat": 4.5,
    "duration": 0.25,
    "velocity": 100,
    "pitch": 60
  },
  {
    "clipIndex": 338,
    "trackId": "55",
    "clipName": null,
    "beat": 422.25,
    "relBeat": 222.25,
    "duration": 0.25000026015651017,
    "velocity": 100,
    "pitch": 60
  },
  {
    "clipIndex": 522,
    "trackId": "22",
    "clipName": null,
    "beat": 422.25,
    "relBeat": 29.5,
    "duration": 0.25,
    "velocity": 100,
    "pitch": 60
  },
  {
    "clipIndex": 523,
    "trackId": "22",
    "clipName": null,
    "beat": 422.25,
    "relBeat": 24.75,
    "duration": 0.25,
    "velocity": 100,
    "pitch": 60
  },
  {
    "clipIndex": 524,
    "trackId": "22",
    "clipName": null,
    "beat": 422.25,
    "relBeat": 20.75,
    "duration": 0.25,
    "velocity": 100,
    "pitch": 60
  },
  {
    "clipIndex": 525,
    "trackId": "22",
    "clipName": null,
    "beat": 422.25,
    "relBeat": 16.75,
    "duration": 0.25,
    "velocity": 100,
    "pitch": 60
  },
  {
    "clipIndex": 526,
    "trackId": "22",
    "clipName": null,
    "beat": 422.25,
    "relBeat": 12.75,
    "duration": 0.25,
    "velocity": 100,
    "pitch": 60
  },
  {
    "clipIndex": 528,
    "trackId": "22",
    "clipName": null,
    "beat": 422.25,
    "relBeat": 4.75,
    "duration": 0.25,
    "velocity": 100,
    "pitch": 60
  },
  {
    "clipIndex": 343,
    "trackId": "55",
    "clipName": null,
    "beat": 422.5,
    "relBeat": 182.5,
    "duration": 0.25000026015651017,
    "velocity": 100,
    "pitch": 60
  },
  {
    "clipIndex": 522,
    "trackId": "22",
    "clipName": null,
    "beat": 422.5,
    "relBeat": 29.75,
    "duration": 0.25,
    "velocity": 100,
    "pitch": 60
  },
  {
    "clipIndex": 523,
    "trackId": "22",
    "clipName": null,
    "beat": 422.5,
    "relBeat": 25,
    "duration": 0.25,
    "velocity": 100,
    "pitch": 60
  },
  {
    "clipIndex": 524,
    "trackId": "22",
    "clipName": null,
    "beat": 422.5,
    "relBeat": 21,
    "duration": 0.25,
    "velocity": 100,
    "pitch": 60
  },
  {
    "clipIndex": 525,
    "trackId": "22",
    "clipName": null,
    "beat": 422.5,
    "relBeat": 17,
    "duration": 0.25,
    "velocity": 100,
    "pitch": 60
  },
  {
    "clipIndex": 526,
    "trackId": "22",
    "clipName": null,
    "beat": 422.5,
    "relBeat": 13,
    "duration": 0.25,
    "velocity": 100,
    "pitch": 60
  },
  {
    "clipIndex": 527,
    "trackId": "22",
    "clipName": null,
    "beat": 422.5,
    "relBeat": 9,
    "duration": 0.25,
    "velocity": 100,
    "pitch": 60
  },
  {
    "clipIndex": 528,
    "trackId": "22",
    "clipName": null,
    "beat": 422.5,
    "relBeat": 5,
    "duration": 0.25,
    "velocity": 100,
    "pitch": 60
  },
  {
    "clipIndex": 522,
    "trackId": "22",
    "clipName": null,
    "beat": 422.75,
    "relBeat": 30,
    "duration": 0.25,
    "velocity": 100,
    "pitch": 60
  },
  {
    "clipIndex": 523,
    "trackId": "22",
    "clipName": null,
    "beat": 422.75,
    "relBeat": 25.25,
    "duration": 0.25,
    "velocity": 100,
    "pitch": 60
  },
  {
    "clipIndex": 524,
    "trackId": "22",
    "clipName": null,
    "beat": 422.75,
    "relBeat": 21.25,
    "duration": 0.25,
    "velocity": 100,
    "pitch": 60
  },
  {
    "clipIndex": 525,
    "trackId": "22",
    "clipName": null,
    "beat": 422.75,
    "relBeat": 17.25,
    "duration": 0.25,
    "velocity": 100,
    "pitch": 60
  },
  {
    "clipIndex": 526,
    "trackId": "22",
    "clipName": null,
    "beat": 422.75,
    "relBeat": 13.25,
    "duration": 0.25,
    "velocity": 100,
    "pitch": 60
  },
  {
    "clipIndex": 527,
    "trackId": "22",
    "clipName": null,
    "beat": 422.75,
    "relBeat": 9.25,
    "duration": 0.25,
    "velocity": 100,
    "pitch": 60
  },
  {
    "clipIndex": 528,
    "trackId": "22",
    "clipName": null,
    "beat": 422.75,
    "relBeat": 5.25,
    "duration": 0.25,
    "velocity": 100,
    "pitch": 60
  },
  {
    "clipIndex": 0,
    "trackId": "89",
    "clipName": null,
    "beat": 423,
    "relBeat": 423,
    "duration": 0.25,
    "velocity": 100,
    "pitch": 60
  },
  {
    "clipIndex": 522,
    "trackId": "22",
    "clipName": null,
    "beat": 423,
    "relBeat": 30.25,
    "duration": 0.25,
    "velocity": 100,
    "pitch": 60
  },
  {
    "clipIndex": 523,
    "trackId": "22",
    "clipName": null,
    "beat": 423,
    "relBeat": 25.5,
    "duration": 0.25,
    "velocity": 100,
    "pitch": 60
  },
  {
    "clipIndex": 525,
    "trackId": "22",
    "clipName": null,
    "beat": 423,
    "relBeat": 17.5,
    "duration": 0.25,
    "velocity": 100,
    "pitch": 60
  },
  {
    "clipIndex": 526,
    "trackId": "22",
    "clipName": null,
    "beat": 423,
    "relBeat": 13.5,
    "duration": 0.25,
    "velocity": 100,
    "pitch": 60
  },
  {
    "clipIndex": 527,
    "trackId": "22",
    "clipName": null,
    "beat": 423,
    "relBeat": 9.5,
    "duration": 0.25,
    "velocity": 100,
    "pitch": 60
  },
  {
    "clipIndex": 528,
    "trackId": "22",
    "clipName": null,
    "beat": 423,
    "relBeat": 5.5,
    "duration": 0.25,
    "velocity": 100,
    "pitch": 60
  },
  {
    "clipIndex": 0,
    "trackId": "89",
    "clipName": null,
    "beat": 423.25,
    "relBeat": 423.25,
    "duration": 0.25,
    "velocity": 100,
    "pitch": 60
  },
  {
    "clipIndex": 343,
    "trackId": "55",
    "clipName": null,
    "beat": 423.25,
    "relBeat": 183.25,
    "duration": 0.25000026015651017,
    "velocity": 100,
    "pitch": 60
  },
  {
    "clipIndex": 522,
    "trackId": "22",
    "clipName": null,
    "beat": 423.25,
    "relBeat": 30.5,
    "duration": 0.25,
    "velocity": 100,
    "pitch": 60
  },
  {
    "clipIndex": 523,
    "trackId": "22",
    "clipName": null,
    "beat": 423.25,
    "relBeat": 25.75,
    "duration": 0.25,
    "velocity": 100,
    "pitch": 60
  },
  {
    "clipIndex": 525,
    "trackId": "22",
    "clipName": null,
    "beat": 423.25,
    "relBeat": 17.75,
    "duration": 0.25,
    "velocity": 100,
    "pitch": 60
  },
  {
    "clipIndex": 526,
    "trackId": "22",
    "clipName": null,
    "beat": 423.25,
    "relBeat": 13.75,
    "duration": 0.25,
    "velocity": 100,
    "pitch": 60
  },
  {
    "clipIndex": 527,
    "trackId": "22",
    "clipName": null,
    "beat": 423.25,
    "relBeat": 9.75,
    "duration": 0.25,
    "velocity": 100,
    "pitch": 60
  },
  {
    "clipIndex": 528,
    "trackId": "22",
    "clipName": null,
    "beat": 423.25,
    "relBeat": 5.75,
    "duration": 0.25,
    "velocity": 100,
    "pitch": 60
  },
  {
    "clipIndex": 522,
    "trackId": "22",
    "clipName": null,
    "beat": 423.5,
    "relBeat": 30.75,
    "duration": 0.25,
    "velocity": 100,
    "pitch": 60
  },
  {
    "clipIndex": 523,
    "trackId": "22",
    "clipName": null,
    "beat": 423.5,
    "relBeat": 26,
    "duration": 0.25,
    "velocity": 100,
    "pitch": 60
  },
  {
    "clipIndex": 525,
    "trackId": "22",
    "clipName": null,
    "beat": 423.5,
    "relBeat": 18,
    "duration": 0.25,
    "velocity": 100,
    "pitch": 60
  },
  {
    "clipIndex": 526,
    "trackId": "22",
    "clipName": null,
    "beat": 423.5,
    "relBeat": 14,
    "duration": 0.25,
    "velocity": 100,
    "pitch": 60
  },
  {
    "clipIndex": 527,
    "trackId": "22",
    "clipName": null,
    "beat": 423.5,
    "relBeat": 10,
    "duration": 0.25,
    "velocity": 100,
    "pitch": 60
  },
  {
    "clipIndex": 522,
    "trackId": "22",
    "clipName": null,
    "beat": 423.75,
    "relBeat": 31,
    "duration": 0.25,
    "velocity": 100,
    "pitch": 60
  },
  {
    "clipIndex": 523,
    "trackId": "22",
    "clipName": null,
    "beat": 423.75,
    "relBeat": 26.25,
    "duration": 0.25,
    "velocity": 100,
    "pitch": 60
  },
  {
    "clipIndex": 525,
    "trackId": "22",
    "clipName": null,
    "beat": 423.75,
    "relBeat": 18.25,
    "duration": 0.25,
    "velocity": 100,
    "pitch": 60
  },
  {
    "clipIndex": 526,
    "trackId": "22",
    "clipName": null,
    "beat": 423.75,
    "relBeat": 14.25,
    "duration": 0.25,
    "velocity": 100,
    "pitch": 60
  },
  {
    "clipIndex": 522,
    "trackId": "22",
    "clipName": null,
    "beat": 424,
    "relBeat": 31.25,
    "duration": 0.25,
    "velocity": 100,
    "pitch": 60
  },
  {
    "clipIndex": 523,
    "trackId": "22",
    "clipName": null,
    "beat": 424,
    "relBeat": 26.5,
    "duration": 0.25,
    "velocity": 100,
    "pitch": 60
  },
  {
    "clipIndex": 525,
    "trackId": "22",
    "clipName": null,
    "beat": 424,
    "relBeat": 18.5,
    "duration": 0.25,
    "velocity": 100,
    "pitch": 60
  },
  {
    "clipIndex": 526,
    "trackId": "22",
    "clipName": null,
    "beat": 424,
    "relBeat": 14.5,
    "duration": 0.25,
    "velocity": 100,
    "pitch": 60
  },
  {
    "clipIndex": 522,
    "trackId": "22",
    "clipName": null,
    "beat": 424.25,
    "relBeat": 31.5,
    "duration": 0.25,
    "velocity": 100,
    "pitch": 60
  },
  {
    "clipIndex": 523,
    "trackId": "22",
    "clipName": null,
    "beat": 424.25,
    "relBeat": 26.75,
    "duration": 0.25,
    "velocity": 100,
    "pitch": 60
  },
  {
    "clipIndex": 525,
    "trackId": "22",
    "clipName": null,
    "beat": 424.25,
    "relBeat": 18.75,
    "duration": 0.25,
    "velocity": 100,
    "pitch": 60
  },
  {
    "clipIndex": 526,
    "trackId": "22",
    "clipName": null,
    "beat": 424.25,
    "relBeat": 14.75,
    "duration": 0.25,
    "velocity": 100,
    "pitch": 60
  },
  {
    "clipIndex": 522,
    "trackId": "22",
    "clipName": null,
    "beat": 424.5,
    "relBeat": 31.75,
    "duration": 0.25,
    "velocity": 100,
    "pitch": 60
  },
  {
    "clipIndex": 523,
    "trackId": "22",
    "clipName": null,
    "beat": 424.5,
    "relBeat": 27,
    "duration": 0.25,
    "velocity": 100,
    "pitch": 60
  },
  {
    "clipIndex": 525,
    "trackId": "22",
    "clipName": null,
    "beat": 424.5,
    "relBeat": 19,
    "duration": 0.25,
    "velocity": 100,
    "pitch": 60
  },
  {
    "clipIndex": 526,
    "trackId": "22",
    "clipName": null,
    "beat": 424.5,
    "relBeat": 15,
    "duration": 0.25,
    "velocity": 100,
    "pitch": 60
  },
  {
    "clipIndex": 523,
    "trackId": "22",
    "clipName": null,
    "beat": 424.75,
    "relBeat": 27.25,
    "duration": 0.25,
    "velocity": 100,
    "pitch": 60
  },
  {
    "clipIndex": 525,
    "trackId": "22",
    "clipName": null,
    "beat": 424.75,
    "relBeat": 19.25,
    "duration": 0.25,
    "velocity": 100,
    "pitch": 60
  },
  {
    "clipIndex": 526,
    "trackId": "22",
    "clipName": null,
    "beat": 424.75,
    "relBeat": 15.25,
    "duration": 0.25,
    "velocity": 100,
    "pitch": 60
  },
  {
    "clipIndex": 523,
    "trackId": "22",
    "clipName": null,
    "beat": 425,
    "relBeat": 27.5,
    "duration": 0.25,
    "velocity": 100,
    "pitch": 60
  },
  {
    "clipIndex": 525,
    "trackId": "22",
    "clipName": null,
    "beat": 425,
    "relBeat": 19.5,
    "duration": 0.25,
    "velocity": 100,
    "pitch": 60
  },
  {
    "clipIndex": 526,
    "trackId": "22",
    "clipName": null,
    "beat": 425,
    "relBeat": 15.5,
    "duration": 0.25,
    "velocity": 100,
    "pitch": 60
  },
  {
    "clipIndex": 523,
    "trackId": "22",
    "clipName": null,
    "beat": 425.25,
    "relBeat": 27.75,
    "duration": 0.25,
    "velocity": 100,
    "pitch": 60
  },
  {
    "clipIndex": 525,
    "trackId": "22",
    "clipName": null,
    "beat": 425.25,
    "relBeat": 19.75,
    "duration": 0.25,
    "velocity": 100,
    "pitch": 60
  },
  {
    "clipIndex": 526,
    "trackId": "22",
    "clipName": null,
    "beat": 425.25,
    "relBeat": 15.75,
    "duration": 0.25,
    "velocity": 100,
    "pitch": 60
  },
  {
    "clipIndex": 523,
    "trackId": "22",
    "clipName": null,
    "beat": 425.5,
    "relBeat": 28,
    "duration": 0.25,
    "velocity": 100,
    "pitch": 60
  },
  {
    "clipIndex": 524,
    "trackId": "22",
    "clipName": null,
    "beat": 425.5,
    "relBeat": 24,
    "duration": 0.25,
    "velocity": 100,
    "pitch": 60
  },
  {
    "clipIndex": 525,
    "trackId": "22",
    "clipName": null,
    "beat": 425.5,
    "relBeat": 20,
    "duration": 0.25,
    "velocity": 100,
    "pitch": 60
  },
  {
    "clipIndex": 526,
    "trackId": "22",
    "clipName": null,
    "beat": 425.5,
    "relBeat": 16,
    "duration": 0.25,
    "velocity": 100,
    "pitch": 60
  },
  {
    "clipIndex": 527,
    "trackId": "22",
    "clipName": null,
    "beat": 425.5,
    "relBeat": 12,
    "duration": 0.25,
    "velocity": 100,
    "pitch": 60
  },
  {
    "clipIndex": 523,
    "trackId": "22",
    "clipName": null,
    "beat": 425.75,
    "relBeat": 28.25,
    "duration": 0.25,
    "velocity": 100,
    "pitch": 60
  },
  {
    "clipIndex": 524,
    "trackId": "22",
    "clipName": null,
    "beat": 425.75,
    "relBeat": 24.25,
    "duration": 0.25,
    "velocity": 100,
    "pitch": 60
  },
  {
    "clipIndex": 525,
    "trackId": "22",
    "clipName": null,
    "beat": 425.75,
    "relBeat": 20.25,
    "duration": 0.25,
    "velocity": 100,
    "pitch": 60
  },
  {
    "clipIndex": 526,
    "trackId": "22",
    "clipName": null,
    "beat": 425.75,
    "relBeat": 16.25,
    "duration": 0.25,
    "velocity": 100,
    "pitch": 60
  },
  {
    "clipIndex": 527,
    "trackId": "22",
    "clipName": null,
    "beat": 425.75,
    "relBeat": 12.25,
    "duration": 0.25,
    "velocity": 100,
    "pitch": 60
  },
  {
    "clipIndex": 523,
    "trackId": "22",
    "clipName": null,
    "beat": 426,
    "relBeat": 28.5,
    "duration": 0.25,
    "velocity": 100,
    "pitch": 60
  },
  {
    "clipIndex": 524,
    "trackId": "22",
    "clipName": null,
    "beat": 426,
    "relBeat": 24.5,
    "duration": 0.25,
    "velocity": 100,
    "pitch": 60
  },
  {
    "clipIndex": 525,
    "trackId": "22",
    "clipName": null,
    "beat": 426,
    "relBeat": 20.5,
    "duration": 0.25,
    "velocity": 100,
    "pitch": 60
  },
  {
    "clipIndex": 526,
    "trackId": "22",
    "clipName": null,
    "beat": 426,
    "relBeat": 16.5,
    "duration": 0.25,
    "velocity": 100,
    "pitch": 60
  },
  {
    "clipIndex": 527,
    "trackId": "22",
    "clipName": null,
    "beat": 426,
    "relBeat": 12.5,
    "duration": 0.25,
    "velocity": 100,
    "pitch": 60
  },
  {
    "clipIndex": 338,
    "trackId": "55",
    "clipName": null,
    "beat": 426.25,
    "relBeat": 226.25,
    "duration": 0.25000026015651017,
    "velocity": 100,
    "pitch": 60
  },
  {
    "clipIndex": 523,
    "trackId": "22",
    "clipName": null,
    "beat": 426.25,
    "relBeat": 28.75,
    "duration": 0.25,
    "velocity": 100,
    "pitch": 60
  },
  {
    "clipIndex": 524,
    "trackId": "22",
    "clipName": null,
    "beat": 426.25,
    "relBeat": 24.75,
    "duration": 0.25,
    "velocity": 100,
    "pitch": 60
  },
  {
    "clipIndex": 525,
    "trackId": "22",
    "clipName": null,
    "beat": 426.25,
    "relBeat": 20.75,
    "duration": 0.25,
    "velocity": 100,
    "pitch": 60
  },
  {
    "clipIndex": 526,
    "trackId": "22",
    "clipName": null,
    "beat": 426.25,
    "relBeat": 16.75,
    "duration": 0.25,
    "velocity": 100,
    "pitch": 60
  },
  {
    "clipIndex": 527,
    "trackId": "22",
    "clipName": null,
    "beat": 426.25,
    "relBeat": 12.75,
    "duration": 0.25,
    "velocity": 100,
    "pitch": 60
  },
  {
    "clipIndex": 523,
    "trackId": "22",
    "clipName": null,
    "beat": 426.5,
    "relBeat": 29,
    "duration": 0.25,
    "velocity": 100,
    "pitch": 60
  },
  {
    "clipIndex": 524,
    "trackId": "22",
    "clipName": null,
    "beat": 426.5,
    "relBeat": 25,
    "duration": 0.25,
    "velocity": 100,
    "pitch": 60
  },
  {
    "clipIndex": 525,
    "trackId": "22",
    "clipName": null,
    "beat": 426.5,
    "relBeat": 21,
    "duration": 0.25,
    "velocity": 100,
    "pitch": 60
  },
  {
    "clipIndex": 526,
    "trackId": "22",
    "clipName": null,
    "beat": 426.5,
    "relBeat": 17,
    "duration": 0.25,
    "velocity": 100,
    "pitch": 60
  },
  {
    "clipIndex": 527,
    "trackId": "22",
    "clipName": null,
    "beat": 426.5,
    "relBeat": 13,
    "duration": 0.25,
    "velocity": 100,
    "pitch": 60
  },
  {
    "clipIndex": 528,
    "trackId": "22",
    "clipName": null,
    "beat": 426.5,
    "relBeat": 9,
    "duration": 0.25,
    "velocity": 100,
    "pitch": 60
  },
  {
    "clipIndex": 523,
    "trackId": "22",
    "clipName": null,
    "beat": 426.75,
    "relBeat": 29.25,
    "duration": 0.25,
    "velocity": 100,
    "pitch": 60
  },
  {
    "clipIndex": 524,
    "trackId": "22",
    "clipName": null,
    "beat": 426.75,
    "relBeat": 25.25,
    "duration": 0.25,
    "velocity": 100,
    "pitch": 60
  },
  {
    "clipIndex": 525,
    "trackId": "22",
    "clipName": null,
    "beat": 426.75,
    "relBeat": 21.25,
    "duration": 0.25,
    "velocity": 100,
    "pitch": 60
  },
  {
    "clipIndex": 526,
    "trackId": "22",
    "clipName": null,
    "beat": 426.75,
    "relBeat": 17.25,
    "duration": 0.25,
    "velocity": 100,
    "pitch": 60
  },
  {
    "clipIndex": 527,
    "trackId": "22",
    "clipName": null,
    "beat": 426.75,
    "relBeat": 13.25,
    "duration": 0.25,
    "velocity": 100,
    "pitch": 60
  },
  {
    "clipIndex": 528,
    "trackId": "22",
    "clipName": null,
    "beat": 426.75,
    "relBeat": 9.25,
    "duration": 0.25,
    "velocity": 100,
    "pitch": 60
  },
  {
    "clipIndex": 0,
    "trackId": "89",
    "clipName": null,
    "beat": 427,
    "relBeat": 427,
    "duration": 0.25,
    "velocity": 100,
    "pitch": 60
  },
  {
    "clipIndex": 523,
    "trackId": "22",
    "clipName": null,
    "beat": 427,
    "relBeat": 29.5,
    "duration": 0.25,
    "velocity": 100,
    "pitch": 60
  },
  {
    "clipIndex": 524,
    "trackId": "22",
    "clipName": null,
    "beat": 427,
    "relBeat": 25.5,
    "duration": 0.25,
    "velocity": 100,
    "pitch": 60
  },
  {
    "clipIndex": 526,
    "trackId": "22",
    "clipName": null,
    "beat": 427,
    "relBeat": 17.5,
    "duration": 0.25,
    "velocity": 100,
    "pitch": 60
  },
  {
    "clipIndex": 527,
    "trackId": "22",
    "clipName": null,
    "beat": 427,
    "relBeat": 13.5,
    "duration": 0.25,
    "velocity": 100,
    "pitch": 60
  },
  {
    "clipIndex": 528,
    "trackId": "22",
    "clipName": null,
    "beat": 427,
    "relBeat": 9.5,
    "duration": 0.25,
    "velocity": 100,
    "pitch": 60
  },
  {
    "clipIndex": 0,
    "trackId": "89",
    "clipName": null,
    "beat": 427.25,
    "relBeat": 427.25,
    "duration": 0.25,
    "velocity": 100,
    "pitch": 60
  },
  {
    "clipIndex": 523,
    "trackId": "22",
    "clipName": null,
    "beat": 427.25,
    "relBeat": 29.75,
    "duration": 0.25,
    "velocity": 100,
    "pitch": 60
  },
  {
    "clipIndex": 524,
    "trackId": "22",
    "clipName": null,
    "beat": 427.25,
    "relBeat": 25.75,
    "duration": 0.25,
    "velocity": 100,
    "pitch": 60
  },
  {
    "clipIndex": 526,
    "trackId": "22",
    "clipName": null,
    "beat": 427.25,
    "relBeat": 17.75,
    "duration": 0.25,
    "velocity": 100,
    "pitch": 60
  },
  {
    "clipIndex": 527,
    "trackId": "22",
    "clipName": null,
    "beat": 427.25,
    "relBeat": 13.75,
    "duration": 0.25,
    "velocity": 100,
    "pitch": 60
  },
  {
    "clipIndex": 528,
    "trackId": "22",
    "clipName": null,
    "beat": 427.25,
    "relBeat": 9.75,
    "duration": 0.25,
    "velocity": 100,
    "pitch": 60
  },
  {
    "clipIndex": 349,
    "trackId": "55",
    "clipName": null,
    "beat": 427.5,
    "relBeat": 123.5,
    "duration": 0.25000026015651017,
    "velocity": 100,
    "pitch": 60
  },
  {
    "clipIndex": 523,
    "trackId": "22",
    "clipName": null,
    "beat": 427.5,
    "relBeat": 30,
    "duration": 0.25,
    "velocity": 100,
    "pitch": 60
  },
  {
    "clipIndex": 524,
    "trackId": "22",
    "clipName": null,
    "beat": 427.5,
    "relBeat": 26,
    "duration": 0.25,
    "velocity": 100,
    "pitch": 60
  },
  {
    "clipIndex": 526,
    "trackId": "22",
    "clipName": null,
    "beat": 427.5,
    "relBeat": 18,
    "duration": 0.25,
    "velocity": 100,
    "pitch": 60
  },
  {
    "clipIndex": 527,
    "trackId": "22",
    "clipName": null,
    "beat": 427.5,
    "relBeat": 14,
    "duration": 0.25,
    "velocity": 100,
    "pitch": 60
  },
  {
    "clipIndex": 528,
    "trackId": "22",
    "clipName": null,
    "beat": 427.5,
    "relBeat": 10,
    "duration": 0.25,
    "velocity": 100,
    "pitch": 60
  },
  {
    "clipIndex": 523,
    "trackId": "22",
    "clipName": null,
    "beat": 427.75,
    "relBeat": 30.25,
    "duration": 0.25,
    "velocity": 100,
    "pitch": 60
  },
  {
    "clipIndex": 524,
    "trackId": "22",
    "clipName": null,
    "beat": 427.75,
    "relBeat": 26.25,
    "duration": 0.25,
    "velocity": 100,
    "pitch": 60
  },
  {
    "clipIndex": 526,
    "trackId": "22",
    "clipName": null,
    "beat": 427.75,
    "relBeat": 18.25,
    "duration": 0.25,
    "velocity": 100,
    "pitch": 60
  },
  {
    "clipIndex": 527,
    "trackId": "22",
    "clipName": null,
    "beat": 427.75,
    "relBeat": 14.25,
    "duration": 0.25,
    "velocity": 100,
    "pitch": 60
  },
  {
    "clipIndex": 523,
    "trackId": "22",
    "clipName": null,
    "beat": 428,
    "relBeat": 30.5,
    "duration": 0.25,
    "velocity": 100,
    "pitch": 60
  },
  {
    "clipIndex": 524,
    "trackId": "22",
    "clipName": null,
    "beat": 428,
    "relBeat": 26.5,
    "duration": 0.25,
    "velocity": 100,
    "pitch": 60
  },
  {
    "clipIndex": 526,
    "trackId": "22",
    "clipName": null,
    "beat": 428,
    "relBeat": 18.5,
    "duration": 0.25,
    "velocity": 100,
    "pitch": 60
  },
  {
    "clipIndex": 527,
    "trackId": "22",
    "clipName": null,
    "beat": 428,
    "relBeat": 14.5,
    "duration": 0.25,
    "velocity": 100,
    "pitch": 60
  },
  {
    "clipIndex": 523,
    "trackId": "22",
    "clipName": null,
    "beat": 428.25,
    "relBeat": 30.75,
    "duration": 0.25,
    "velocity": 100,
    "pitch": 60
  },
  {
    "clipIndex": 524,
    "trackId": "22",
    "clipName": null,
    "beat": 428.25,
    "relBeat": 26.75,
    "duration": 0.25,
    "velocity": 100,
    "pitch": 60
  },
  {
    "clipIndex": 526,
    "trackId": "22",
    "clipName": null,
    "beat": 428.25,
    "relBeat": 18.75,
    "duration": 0.25,
    "velocity": 100,
    "pitch": 60
  },
  {
    "clipIndex": 527,
    "trackId": "22",
    "clipName": null,
    "beat": 428.25,
    "relBeat": 14.75,
    "duration": 0.25,
    "velocity": 100,
    "pitch": 60
  },
  {
    "clipIndex": 523,
    "trackId": "22",
    "clipName": null,
    "beat": 428.5,
    "relBeat": 31,
    "duration": 0.25,
    "velocity": 100,
    "pitch": 60
  },
  {
    "clipIndex": 524,
    "trackId": "22",
    "clipName": null,
    "beat": 428.5,
    "relBeat": 27,
    "duration": 0.25,
    "velocity": 100,
    "pitch": 60
  },
  {
    "clipIndex": 526,
    "trackId": "22",
    "clipName": null,
    "beat": 428.5,
    "relBeat": 19,
    "duration": 0.25,
    "velocity": 100,
    "pitch": 60
  },
  {
    "clipIndex": 527,
    "trackId": "22",
    "clipName": null,
    "beat": 428.5,
    "relBeat": 15,
    "duration": 0.25,
    "velocity": 100,
    "pitch": 60
  },
  {
    "clipIndex": 523,
    "trackId": "22",
    "clipName": null,
    "beat": 428.75,
    "relBeat": 31.25,
    "duration": 0.25,
    "velocity": 100,
    "pitch": 60
  },
  {
    "clipIndex": 524,
    "trackId": "22",
    "clipName": null,
    "beat": 428.75,
    "relBeat": 27.25,
    "duration": 0.25,
    "velocity": 100,
    "pitch": 60
  },
  {
    "clipIndex": 526,
    "trackId": "22",
    "clipName": null,
    "beat": 428.75,
    "relBeat": 19.25,
    "duration": 0.25,
    "velocity": 100,
    "pitch": 60
  },
  {
    "clipIndex": 527,
    "trackId": "22",
    "clipName": null,
    "beat": 428.75,
    "relBeat": 15.25,
    "duration": 0.25,
    "velocity": 100,
    "pitch": 60
  },
  {
    "clipIndex": 523,
    "trackId": "22",
    "clipName": null,
    "beat": 429,
    "relBeat": 31.5,
    "duration": 0.25,
    "velocity": 100,
    "pitch": 60
  },
  {
    "clipIndex": 524,
    "trackId": "22",
    "clipName": null,
    "beat": 429,
    "relBeat": 27.5,
    "duration": 0.25,
    "velocity": 100,
    "pitch": 60
  },
  {
    "clipIndex": 526,
    "trackId": "22",
    "clipName": null,
    "beat": 429,
    "relBeat": 19.5,
    "duration": 0.25,
    "velocity": 100,
    "pitch": 60
  },
  {
    "clipIndex": 527,
    "trackId": "22",
    "clipName": null,
    "beat": 429,
    "relBeat": 15.5,
    "duration": 0.25,
    "velocity": 100,
    "pitch": 60
  },
  {
    "clipIndex": 523,
    "trackId": "22",
    "clipName": null,
    "beat": 429.25,
    "relBeat": 31.75,
    "duration": 0.25,
    "velocity": 100,
    "pitch": 60
  },
  {
    "clipIndex": 524,
    "trackId": "22",
    "clipName": null,
    "beat": 429.25,
    "relBeat": 27.75,
    "duration": 0.25,
    "velocity": 100,
    "pitch": 60
  },
  {
    "clipIndex": 526,
    "trackId": "22",
    "clipName": null,
    "beat": 429.25,
    "relBeat": 19.75,
    "duration": 0.25,
    "velocity": 100,
    "pitch": 60
  },
  {
    "clipIndex": 527,
    "trackId": "22",
    "clipName": null,
    "beat": 429.25,
    "relBeat": 15.75,
    "duration": 0.25,
    "velocity": 100,
    "pitch": 60
  },
  {
    "clipIndex": 524,
    "trackId": "22",
    "clipName": null,
    "beat": 429.5,
    "relBeat": 28,
    "duration": 0.25,
    "velocity": 100,
    "pitch": 60
  },
  {
    "clipIndex": 525,
    "trackId": "22",
    "clipName": null,
    "beat": 429.5,
    "relBeat": 24,
    "duration": 0.25,
    "velocity": 100,
    "pitch": 60
  },
  {
    "clipIndex": 526,
    "trackId": "22",
    "clipName": null,
    "beat": 429.5,
    "relBeat": 20,
    "duration": 0.25,
    "velocity": 100,
    "pitch": 60
  },
  {
    "clipIndex": 527,
    "trackId": "22",
    "clipName": null,
    "beat": 429.5,
    "relBeat": 16,
    "duration": 0.25,
    "velocity": 100,
    "pitch": 60
  },
  {
    "clipIndex": 528,
    "trackId": "22",
    "clipName": null,
    "beat": 429.5,
    "relBeat": 12,
    "duration": 0.25,
    "velocity": 100,
    "pitch": 60
  },
  {
    "clipIndex": 524,
    "trackId": "22",
    "clipName": null,
    "beat": 429.75,
    "relBeat": 28.25,
    "duration": 0.25,
    "velocity": 100,
    "pitch": 60
  },
  {
    "clipIndex": 525,
    "trackId": "22",
    "clipName": null,
    "beat": 429.75,
    "relBeat": 24.25,
    "duration": 0.25,
    "velocity": 100,
    "pitch": 60
  },
  {
    "clipIndex": 526,
    "trackId": "22",
    "clipName": null,
    "beat": 429.75,
    "relBeat": 20.25,
    "duration": 0.25,
    "velocity": 100,
    "pitch": 60
  },
  {
    "clipIndex": 527,
    "trackId": "22",
    "clipName": null,
    "beat": 429.75,
    "relBeat": 16.25,
    "duration": 0.25,
    "velocity": 100,
    "pitch": 60
  },
  {
    "clipIndex": 528,
    "trackId": "22",
    "clipName": null,
    "beat": 429.75,
    "relBeat": 12.25,
    "duration": 0.25,
    "velocity": 100,
    "pitch": 60
  },
  {
    "clipIndex": 524,
    "trackId": "22",
    "clipName": null,
    "beat": 430,
    "relBeat": 28.5,
    "duration": 0.25,
    "velocity": 100,
    "pitch": 60
  },
  {
    "clipIndex": 525,
    "trackId": "22",
    "clipName": null,
    "beat": 430,
    "relBeat": 24.5,
    "duration": 0.25,
    "velocity": 100,
    "pitch": 60
  },
  {
    "clipIndex": 526,
    "trackId": "22",
    "clipName": null,
    "beat": 430,
    "relBeat": 20.5,
    "duration": 0.25,
    "velocity": 100,
    "pitch": 60
  },
  {
    "clipIndex": 527,
    "trackId": "22",
    "clipName": null,
    "beat": 430,
    "relBeat": 16.5,
    "duration": 0.25,
    "velocity": 100,
    "pitch": 60
  },
  {
    "clipIndex": 528,
    "trackId": "22",
    "clipName": null,
    "beat": 430,
    "relBeat": 12.5,
    "duration": 0.25,
    "velocity": 100,
    "pitch": 60
  },
  {
    "clipIndex": 524,
    "trackId": "22",
    "clipName": null,
    "beat": 430.25,
    "relBeat": 28.75,
    "duration": 0.25,
    "velocity": 100,
    "pitch": 60
  },
  {
    "clipIndex": 525,
    "trackId": "22",
    "clipName": null,
    "beat": 430.25,
    "relBeat": 24.75,
    "duration": 0.25,
    "velocity": 100,
    "pitch": 60
  },
  {
    "clipIndex": 526,
    "trackId": "22",
    "clipName": null,
    "beat": 430.25,
    "relBeat": 20.75,
    "duration": 0.25,
    "velocity": 100,
    "pitch": 60
  },
  {
    "clipIndex": 527,
    "trackId": "22",
    "clipName": null,
    "beat": 430.25,
    "relBeat": 16.75,
    "duration": 0.25,
    "velocity": 100,
    "pitch": 60
  },
  {
    "clipIndex": 528,
    "trackId": "22",
    "clipName": null,
    "beat": 430.25,
    "relBeat": 12.75,
    "duration": 0.25,
    "velocity": 100,
    "pitch": 60
  },
  {
    "clipIndex": 524,
    "trackId": "22",
    "clipName": null,
    "beat": 430.5,
    "relBeat": 29,
    "duration": 0.25,
    "velocity": 100,
    "pitch": 60
  },
  {
    "clipIndex": 525,
    "trackId": "22",
    "clipName": null,
    "beat": 430.5,
    "relBeat": 25,
    "duration": 0.25,
    "velocity": 100,
    "pitch": 60
  },
  {
    "clipIndex": 526,
    "trackId": "22",
    "clipName": null,
    "beat": 430.5,
    "relBeat": 21,
    "duration": 0.25,
    "velocity": 100,
    "pitch": 60
  },
  {
    "clipIndex": 527,
    "trackId": "22",
    "clipName": null,
    "beat": 430.5,
    "relBeat": 17,
    "duration": 0.25,
    "velocity": 100,
    "pitch": 60
  },
  {
    "clipIndex": 528,
    "trackId": "22",
    "clipName": null,
    "beat": 430.5,
    "relBeat": 13,
    "duration": 0.25,
    "velocity": 100,
    "pitch": 60
  },
  {
    "clipIndex": 524,
    "trackId": "22",
    "clipName": null,
    "beat": 430.75,
    "relBeat": 29.25,
    "duration": 0.25,
    "velocity": 100,
    "pitch": 60
  },
  {
    "clipIndex": 525,
    "trackId": "22",
    "clipName": null,
    "beat": 430.75,
    "relBeat": 25.25,
    "duration": 0.25,
    "velocity": 100,
    "pitch": 60
  },
  {
    "clipIndex": 526,
    "trackId": "22",
    "clipName": null,
    "beat": 430.75,
    "relBeat": 21.25,
    "duration": 0.25,
    "velocity": 100,
    "pitch": 60
  },
  {
    "clipIndex": 527,
    "trackId": "22",
    "clipName": null,
    "beat": 430.75,
    "relBeat": 17.25,
    "duration": 0.25,
    "velocity": 100,
    "pitch": 60
  },
  {
    "clipIndex": 528,
    "trackId": "22",
    "clipName": null,
    "beat": 430.75,
    "relBeat": 13.25,
    "duration": 0.25,
    "velocity": 100,
    "pitch": 60
  },
  {
    "clipIndex": 524,
    "trackId": "22",
    "clipName": null,
    "beat": 431,
    "relBeat": 29.5,
    "duration": 0.25,
    "velocity": 100,
    "pitch": 60
  },
  {
    "clipIndex": 525,
    "trackId": "22",
    "clipName": null,
    "beat": 431,
    "relBeat": 25.5,
    "duration": 0.25,
    "velocity": 100,
    "pitch": 60
  },
  {
    "clipIndex": 527,
    "trackId": "22",
    "clipName": null,
    "beat": 431,
    "relBeat": 17.5,
    "duration": 0.25,
    "velocity": 100,
    "pitch": 60
  },
  {
    "clipIndex": 528,
    "trackId": "22",
    "clipName": null,
    "beat": 431,
    "relBeat": 13.5,
    "duration": 0.25,
    "velocity": 100,
    "pitch": 60
  },
  {
    "clipIndex": 524,
    "trackId": "22",
    "clipName": null,
    "beat": 431.25,
    "relBeat": 29.75,
    "duration": 0.25,
    "velocity": 100,
    "pitch": 60
  },
  {
    "clipIndex": 525,
    "trackId": "22",
    "clipName": null,
    "beat": 431.25,
    "relBeat": 25.75,
    "duration": 0.25,
    "velocity": 100,
    "pitch": 60
  },
  {
    "clipIndex": 527,
    "trackId": "22",
    "clipName": null,
    "beat": 431.25,
    "relBeat": 17.75,
    "duration": 0.25,
    "velocity": 100,
    "pitch": 60
  },
  {
    "clipIndex": 528,
    "trackId": "22",
    "clipName": null,
    "beat": 431.25,
    "relBeat": 13.75,
    "duration": 0.25,
    "velocity": 100,
    "pitch": 60
  },
  {
    "clipIndex": 524,
    "trackId": "22",
    "clipName": null,
    "beat": 431.5,
    "relBeat": 30,
    "duration": 0.25,
    "velocity": 100,
    "pitch": 60
  },
  {
    "clipIndex": 525,
    "trackId": "22",
    "clipName": null,
    "beat": 431.5,
    "relBeat": 26,
    "duration": 0.25,
    "velocity": 100,
    "pitch": 60
  },
  {
    "clipIndex": 527,
    "trackId": "22",
    "clipName": null,
    "beat": 431.5,
    "relBeat": 18,
    "duration": 0.25,
    "velocity": 100,
    "pitch": 60
  },
  {
    "clipIndex": 528,
    "trackId": "22",
    "clipName": null,
    "beat": 431.5,
    "relBeat": 14,
    "duration": 0.25,
    "velocity": 100,
    "pitch": 60
  },
  {
    "clipIndex": 524,
    "trackId": "22",
    "clipName": null,
    "beat": 431.75,
    "relBeat": 30.25,
    "duration": 0.25,
    "velocity": 100,
    "pitch": 60
  },
  {
    "clipIndex": 525,
    "trackId": "22",
    "clipName": null,
    "beat": 431.75,
    "relBeat": 26.25,
    "duration": 0.25,
    "velocity": 100,
    "pitch": 60
  },
  {
    "clipIndex": 527,
    "trackId": "22",
    "clipName": null,
    "beat": 431.75,
    "relBeat": 18.25,
    "duration": 0.25,
    "velocity": 100,
    "pitch": 60
  },
  {
    "clipIndex": 528,
    "trackId": "22",
    "clipName": null,
    "beat": 431.75,
    "relBeat": 14.25,
    "duration": 0.25,
    "velocity": 100,
    "pitch": 60
  },
  {
    "clipIndex": 524,
    "trackId": "22",
    "clipName": null,
    "beat": 432,
    "relBeat": 30.5,
    "duration": 0.25,
    "velocity": 100,
    "pitch": 60
  },
  {
    "clipIndex": 525,
    "trackId": "22",
    "clipName": null,
    "beat": 432,
    "relBeat": 26.5,
    "duration": 0.25,
    "velocity": 100,
    "pitch": 60
  },
  {
    "clipIndex": 527,
    "trackId": "22",
    "clipName": null,
    "beat": 432,
    "relBeat": 18.5,
    "duration": 0.25,
    "velocity": 100,
    "pitch": 60
  },
  {
    "clipIndex": 528,
    "trackId": "22",
    "clipName": null,
    "beat": 432,
    "relBeat": 14.5,
    "duration": 0.25,
    "velocity": 100,
    "pitch": 60
  },
  {
    "clipIndex": 524,
    "trackId": "22",
    "clipName": null,
    "beat": 432.25,
    "relBeat": 30.75,
    "duration": 0.25,
    "velocity": 100,
    "pitch": 60
  },
  {
    "clipIndex": 525,
    "trackId": "22",
    "clipName": null,
    "beat": 432.25,
    "relBeat": 26.75,
    "duration": 0.25,
    "velocity": 100,
    "pitch": 60
  },
  {
    "clipIndex": 527,
    "trackId": "22",
    "clipName": null,
    "beat": 432.25,
    "relBeat": 18.75,
    "duration": 0.25,
    "velocity": 100,
    "pitch": 60
  },
  {
    "clipIndex": 528,
    "trackId": "22",
    "clipName": null,
    "beat": 432.25,
    "relBeat": 14.75,
    "duration": 0.25,
    "velocity": 100,
    "pitch": 60
  },
  {
    "clipIndex": 524,
    "trackId": "22",
    "clipName": null,
    "beat": 432.5,
    "relBeat": 31,
    "duration": 0.25,
    "velocity": 100,
    "pitch": 60
  },
  {
    "clipIndex": 525,
    "trackId": "22",
    "clipName": null,
    "beat": 432.5,
    "relBeat": 27,
    "duration": 0.25,
    "velocity": 100,
    "pitch": 60
  },
  {
    "clipIndex": 527,
    "trackId": "22",
    "clipName": null,
    "beat": 432.5,
    "relBeat": 19,
    "duration": 0.25,
    "velocity": 100,
    "pitch": 60
  },
  {
    "clipIndex": 528,
    "trackId": "22",
    "clipName": null,
    "beat": 432.5,
    "relBeat": 15,
    "duration": 0.25,
    "velocity": 100,
    "pitch": 60
  },
  {
    "clipIndex": 524,
    "trackId": "22",
    "clipName": null,
    "beat": 432.75,
    "relBeat": 31.25,
    "duration": 0.25,
    "velocity": 100,
    "pitch": 60
  },
  {
    "clipIndex": 525,
    "trackId": "22",
    "clipName": null,
    "beat": 432.75,
    "relBeat": 27.25,
    "duration": 0.25,
    "velocity": 100,
    "pitch": 60
  },
  {
    "clipIndex": 527,
    "trackId": "22",
    "clipName": null,
    "beat": 432.75,
    "relBeat": 19.25,
    "duration": 0.25,
    "velocity": 100,
    "pitch": 60
  },
  {
    "clipIndex": 528,
    "trackId": "22",
    "clipName": null,
    "beat": 432.75,
    "relBeat": 15.25,
    "duration": 0.25,
    "velocity": 100,
    "pitch": 60
  },
  {
    "clipIndex": 524,
    "trackId": "22",
    "clipName": null,
    "beat": 433,
    "relBeat": 31.5,
    "duration": 0.25,
    "velocity": 100,
    "pitch": 60
  },
  {
    "clipIndex": 525,
    "trackId": "22",
    "clipName": null,
    "beat": 433,
    "relBeat": 27.5,
    "duration": 0.25,
    "velocity": 100,
    "pitch": 60
  },
  {
    "clipIndex": 527,
    "trackId": "22",
    "clipName": null,
    "beat": 433,
    "relBeat": 19.5,
    "duration": 0.25,
    "velocity": 100,
    "pitch": 60
  },
  {
    "clipIndex": 528,
    "trackId": "22",
    "clipName": null,
    "beat": 433,
    "relBeat": 15.5,
    "duration": 0.25,
    "velocity": 100,
    "pitch": 60
  },
  {
    "clipIndex": 524,
    "trackId": "22",
    "clipName": null,
    "beat": 433.25,
    "relBeat": 31.75,
    "duration": 0.25,
    "velocity": 100,
    "pitch": 60
  },
  {
    "clipIndex": 525,
    "trackId": "22",
    "clipName": null,
    "beat": 433.25,
    "relBeat": 27.75,
    "duration": 0.25,
    "velocity": 100,
    "pitch": 60
  },
  {
    "clipIndex": 527,
    "trackId": "22",
    "clipName": null,
    "beat": 433.25,
    "relBeat": 19.75,
    "duration": 0.25,
    "velocity": 100,
    "pitch": 60
  },
  {
    "clipIndex": 528,
    "trackId": "22",
    "clipName": null,
    "beat": 433.25,
    "relBeat": 15.75,
    "duration": 0.25,
    "velocity": 100,
    "pitch": 60
  },
  {
    "clipIndex": 525,
    "trackId": "22",
    "clipName": null,
    "beat": 433.5,
    "relBeat": 28,
    "duration": 0.25,
    "velocity": 100,
    "pitch": 60
  },
  {
    "clipIndex": 526,
    "trackId": "22",
    "clipName": null,
    "beat": 433.5,
    "relBeat": 24,
    "duration": 0.25,
    "velocity": 100,
    "pitch": 60
  },
  {
    "clipIndex": 527,
    "trackId": "22",
    "clipName": null,
    "beat": 433.5,
    "relBeat": 20,
    "duration": 0.25,
    "velocity": 100,
    "pitch": 60
  },
  {
    "clipIndex": 528,
    "trackId": "22",
    "clipName": null,
    "beat": 433.5,
    "relBeat": 16,
    "duration": 0.25,
    "velocity": 100,
    "pitch": 60
  },
  {
    "clipIndex": 525,
    "trackId": "22",
    "clipName": null,
    "beat": 433.75,
    "relBeat": 28.25,
    "duration": 0.25,
    "velocity": 100,
    "pitch": 60
  },
  {
    "clipIndex": 526,
    "trackId": "22",
    "clipName": null,
    "beat": 433.75,
    "relBeat": 24.25,
    "duration": 0.25,
    "velocity": 100,
    "pitch": 60
  },
  {
    "clipIndex": 527,
    "trackId": "22",
    "clipName": null,
    "beat": 433.75,
    "relBeat": 20.25,
    "duration": 0.25,
    "velocity": 100,
    "pitch": 60
  },
  {
    "clipIndex": 528,
    "trackId": "22",
    "clipName": null,
    "beat": 433.75,
    "relBeat": 16.25,
    "duration": 0.25,
    "velocity": 100,
    "pitch": 60
  },
  {
    "clipIndex": 525,
    "trackId": "22",
    "clipName": null,
    "beat": 434,
    "relBeat": 28.5,
    "duration": 0.25,
    "velocity": 100,
    "pitch": 60
  },
  {
    "clipIndex": 526,
    "trackId": "22",
    "clipName": null,
    "beat": 434,
    "relBeat": 24.5,
    "duration": 0.25,
    "velocity": 100,
    "pitch": 60
  },
  {
    "clipIndex": 527,
    "trackId": "22",
    "clipName": null,
    "beat": 434,
    "relBeat": 20.5,
    "duration": 0.25,
    "velocity": 100,
    "pitch": 60
  },
  {
    "clipIndex": 528,
    "trackId": "22",
    "clipName": null,
    "beat": 434,
    "relBeat": 16.5,
    "duration": 0.25,
    "velocity": 100,
    "pitch": 60
  },
  {
    "clipIndex": 343,
    "trackId": "55",
    "clipName": null,
    "beat": 434.25,
    "relBeat": 194.25,
    "duration": 0.25000026015651017,
    "velocity": 100,
    "pitch": 60
  },
  {
    "clipIndex": 525,
    "trackId": "22",
    "clipName": null,
    "beat": 434.25,
    "relBeat": 28.75,
    "duration": 0.25,
    "velocity": 100,
    "pitch": 60
  },
  {
    "clipIndex": 526,
    "trackId": "22",
    "clipName": null,
    "beat": 434.25,
    "relBeat": 24.75,
    "duration": 0.25,
    "velocity": 100,
    "pitch": 60
  },
  {
    "clipIndex": 527,
    "trackId": "22",
    "clipName": null,
    "beat": 434.25,
    "relBeat": 20.75,
    "duration": 0.25,
    "velocity": 100,
    "pitch": 60
  },
  {
    "clipIndex": 528,
    "trackId": "22",
    "clipName": null,
    "beat": 434.25,
    "relBeat": 16.75,
    "duration": 0.25,
    "velocity": 100,
    "pitch": 60
  },
  {
    "clipIndex": 525,
    "trackId": "22",
    "clipName": null,
    "beat": 434.5,
    "relBeat": 29,
    "duration": 0.25,
    "velocity": 100,
    "pitch": 60
  },
  {
    "clipIndex": 526,
    "trackId": "22",
    "clipName": null,
    "beat": 434.5,
    "relBeat": 25,
    "duration": 0.25,
    "velocity": 100,
    "pitch": 60
  },
  {
    "clipIndex": 527,
    "trackId": "22",
    "clipName": null,
    "beat": 434.5,
    "relBeat": 21,
    "duration": 0.25,
    "velocity": 100,
    "pitch": 60
  },
  {
    "clipIndex": 528,
    "trackId": "22",
    "clipName": null,
    "beat": 434.5,
    "relBeat": 17,
    "duration": 0.25,
    "velocity": 100,
    "pitch": 60
  },
  {
    "clipIndex": 525,
    "trackId": "22",
    "clipName": null,
    "beat": 434.75,
    "relBeat": 29.25,
    "duration": 0.25,
    "velocity": 100,
    "pitch": 60
  },
  {
    "clipIndex": 526,
    "trackId": "22",
    "clipName": null,
    "beat": 434.75,
    "relBeat": 25.25,
    "duration": 0.25,
    "velocity": 100,
    "pitch": 60
  },
  {
    "clipIndex": 527,
    "trackId": "22",
    "clipName": null,
    "beat": 434.75,
    "relBeat": 21.25,
    "duration": 0.25,
    "velocity": 100,
    "pitch": 60
  },
  {
    "clipIndex": 528,
    "trackId": "22",
    "clipName": null,
    "beat": 434.75,
    "relBeat": 17.25,
    "duration": 0.25,
    "velocity": 100,
    "pitch": 60
  },
  {
    "clipIndex": 525,
    "trackId": "22",
    "clipName": null,
    "beat": 435,
    "relBeat": 29.5,
    "duration": 0.25,
    "velocity": 100,
    "pitch": 60
  },
  {
    "clipIndex": 526,
    "trackId": "22",
    "clipName": null,
    "beat": 435,
    "relBeat": 25.5,
    "duration": 0.25,
    "velocity": 100,
    "pitch": 60
  },
  {
    "clipIndex": 528,
    "trackId": "22",
    "clipName": null,
    "beat": 435,
    "relBeat": 17.5,
    "duration": 0.25,
    "velocity": 100,
    "pitch": 60
  },
  {
    "clipIndex": 525,
    "trackId": "22",
    "clipName": null,
    "beat": 435.25,
    "relBeat": 29.75,
    "duration": 0.25,
    "velocity": 100,
    "pitch": 60
  },
  {
    "clipIndex": 526,
    "trackId": "22",
    "clipName": null,
    "beat": 435.25,
    "relBeat": 25.75,
    "duration": 0.25,
    "velocity": 100,
    "pitch": 60
  },
  {
    "clipIndex": 528,
    "trackId": "22",
    "clipName": null,
    "beat": 435.25,
    "relBeat": 17.75,
    "duration": 0.25,
    "velocity": 100,
    "pitch": 60
  },
  {
    "clipIndex": 525,
    "trackId": "22",
    "clipName": null,
    "beat": 435.5,
    "relBeat": 30,
    "duration": 0.25,
    "velocity": 100,
    "pitch": 60
  },
  {
    "clipIndex": 526,
    "trackId": "22",
    "clipName": null,
    "beat": 435.5,
    "relBeat": 26,
    "duration": 0.25,
    "velocity": 100,
    "pitch": 60
  },
  {
    "clipIndex": 528,
    "trackId": "22",
    "clipName": null,
    "beat": 435.5,
    "relBeat": 18,
    "duration": 0.25,
    "velocity": 100,
    "pitch": 60
  },
  {
    "clipIndex": 525,
    "trackId": "22",
    "clipName": null,
    "beat": 435.75,
    "relBeat": 30.25,
    "duration": 0.25,
    "velocity": 100,
    "pitch": 60
  },
  {
    "clipIndex": 526,
    "trackId": "22",
    "clipName": null,
    "beat": 435.75,
    "relBeat": 26.25,
    "duration": 0.25,
    "velocity": 100,
    "pitch": 60
  },
  {
    "clipIndex": 528,
    "trackId": "22",
    "clipName": null,
    "beat": 435.75,
    "relBeat": 18.25,
    "duration": 0.25,
    "velocity": 100,
    "pitch": 60
  },
  {
    "clipIndex": 525,
    "trackId": "22",
    "clipName": null,
    "beat": 436,
    "relBeat": 30.5,
    "duration": 0.25,
    "velocity": 100,
    "pitch": 60
  },
  {
    "clipIndex": 526,
    "trackId": "22",
    "clipName": null,
    "beat": 436,
    "relBeat": 26.5,
    "duration": 0.25,
    "velocity": 100,
    "pitch": 60
  },
  {
    "clipIndex": 528,
    "trackId": "22",
    "clipName": null,
    "beat": 436,
    "relBeat": 18.5,
    "duration": 0.25,
    "velocity": 100,
    "pitch": 60
  },
  {
    "clipIndex": 525,
    "trackId": "22",
    "clipName": null,
    "beat": 436.25,
    "relBeat": 30.75,
    "duration": 0.25,
    "velocity": 100,
    "pitch": 60
  },
  {
    "clipIndex": 526,
    "trackId": "22",
    "clipName": null,
    "beat": 436.25,
    "relBeat": 26.75,
    "duration": 0.25,
    "velocity": 100,
    "pitch": 60
  },
  {
    "clipIndex": 528,
    "trackId": "22",
    "clipName": null,
    "beat": 436.25,
    "relBeat": 18.75,
    "duration": 0.25,
    "velocity": 100,
    "pitch": 60
  },
  {
    "clipIndex": 525,
    "trackId": "22",
    "clipName": null,
    "beat": 436.5,
    "relBeat": 31,
    "duration": 0.25,
    "velocity": 100,
    "pitch": 60
  },
  {
    "clipIndex": 526,
    "trackId": "22",
    "clipName": null,
    "beat": 436.5,
    "relBeat": 27,
    "duration": 0.25,
    "velocity": 100,
    "pitch": 60
  },
  {
    "clipIndex": 528,
    "trackId": "22",
    "clipName": null,
    "beat": 436.5,
    "relBeat": 19,
    "duration": 0.25,
    "velocity": 100,
    "pitch": 60
  },
  {
    "clipIndex": 525,
    "trackId": "22",
    "clipName": null,
    "beat": 436.75,
    "relBeat": 31.25,
    "duration": 0.25,
    "velocity": 100,
    "pitch": 60
  },
  {
    "clipIndex": 526,
    "trackId": "22",
    "clipName": null,
    "beat": 436.75,
    "relBeat": 27.25,
    "duration": 0.25,
    "velocity": 100,
    "pitch": 60
  },
  {
    "clipIndex": 528,
    "trackId": "22",
    "clipName": null,
    "beat": 436.75,
    "relBeat": 19.25,
    "duration": 0.25,
    "velocity": 100,
    "pitch": 60
  },
  {
    "clipIndex": 525,
    "trackId": "22",
    "clipName": null,
    "beat": 437,
    "relBeat": 31.5,
    "duration": 0.25,
    "velocity": 100,
    "pitch": 60
  },
  {
    "clipIndex": 526,
    "trackId": "22",
    "clipName": null,
    "beat": 437,
    "relBeat": 27.5,
    "duration": 0.25,
    "velocity": 100,
    "pitch": 60
  },
  {
    "clipIndex": 528,
    "trackId": "22",
    "clipName": null,
    "beat": 437,
    "relBeat": 19.5,
    "duration": 0.25,
    "velocity": 100,
    "pitch": 60
  },
  {
    "clipIndex": 525,
    "trackId": "22",
    "clipName": null,
    "beat": 437.25,
    "relBeat": 31.75,
    "duration": 0.25,
    "velocity": 100,
    "pitch": 60
  },
  {
    "clipIndex": 526,
    "trackId": "22",
    "clipName": null,
    "beat": 437.25,
    "relBeat": 27.75,
    "duration": 0.25,
    "velocity": 100,
    "pitch": 60
  },
  {
    "clipIndex": 528,
    "trackId": "22",
    "clipName": null,
    "beat": 437.25,
    "relBeat": 19.75,
    "duration": 0.25,
    "velocity": 100,
    "pitch": 60
  },
  {
    "clipIndex": 526,
    "trackId": "22",
    "clipName": null,
    "beat": 437.5,
    "relBeat": 28,
    "duration": 0.25,
    "velocity": 100,
    "pitch": 60
  },
  {
    "clipIndex": 527,
    "trackId": "22",
    "clipName": null,
    "beat": 437.5,
    "relBeat": 24,
    "duration": 0.25,
    "velocity": 100,
    "pitch": 60
  },
  {
    "clipIndex": 528,
    "trackId": "22",
    "clipName": null,
    "beat": 437.5,
    "relBeat": 20,
    "duration": 0.25,
    "velocity": 100,
    "pitch": 60
  },
  {
    "clipIndex": 526,
    "trackId": "22",
    "clipName": null,
    "beat": 437.75,
    "relBeat": 28.25,
    "duration": 0.25,
    "velocity": 100,
    "pitch": 60
  },
  {
    "clipIndex": 527,
    "trackId": "22",
    "clipName": null,
    "beat": 437.75,
    "relBeat": 24.25,
    "duration": 0.25,
    "velocity": 100,
    "pitch": 60
  },
  {
    "clipIndex": 528,
    "trackId": "22",
    "clipName": null,
    "beat": 437.75,
    "relBeat": 20.25,
    "duration": 0.25,
    "velocity": 100,
    "pitch": 60
  },
  {
    "clipIndex": 526,
    "trackId": "22",
    "clipName": null,
    "beat": 438,
    "relBeat": 28.5,
    "duration": 0.25,
    "velocity": 100,
    "pitch": 60
  },
  {
    "clipIndex": 527,
    "trackId": "22",
    "clipName": null,
    "beat": 438,
    "relBeat": 24.5,
    "duration": 0.25,
    "velocity": 100,
    "pitch": 60
  },
  {
    "clipIndex": 528,
    "trackId": "22",
    "clipName": null,
    "beat": 438,
    "relBeat": 20.5,
    "duration": 0.25,
    "velocity": 100,
    "pitch": 60
  },
  {
    "clipIndex": 343,
    "trackId": "55",
    "clipName": null,
    "beat": 438.25,
    "relBeat": 198.25,
    "duration": 0.25000026015651017,
    "velocity": 100,
    "pitch": 60
  },
  {
    "clipIndex": 526,
    "trackId": "22",
    "clipName": null,
    "beat": 438.25,
    "relBeat": 28.75,
    "duration": 0.25,
    "velocity": 100,
    "pitch": 60
  },
  {
    "clipIndex": 527,
    "trackId": "22",
    "clipName": null,
    "beat": 438.25,
    "relBeat": 24.75,
    "duration": 0.25,
    "velocity": 100,
    "pitch": 60
  },
  {
    "clipIndex": 528,
    "trackId": "22",
    "clipName": null,
    "beat": 438.25,
    "relBeat": 20.75,
    "duration": 0.25,
    "velocity": 100,
    "pitch": 60
  },
  {
    "clipIndex": 526,
    "trackId": "22",
    "clipName": null,
    "beat": 438.5,
    "relBeat": 29,
    "duration": 0.25,
    "velocity": 100,
    "pitch": 60
  },
  {
    "clipIndex": 527,
    "trackId": "22",
    "clipName": null,
    "beat": 438.5,
    "relBeat": 25,
    "duration": 0.25,
    "velocity": 100,
    "pitch": 60
  },
  {
    "clipIndex": 528,
    "trackId": "22",
    "clipName": null,
    "beat": 438.5,
    "relBeat": 21,
    "duration": 0.25,
    "velocity": 100,
    "pitch": 60
  },
  {
    "clipIndex": 526,
    "trackId": "22",
    "clipName": null,
    "beat": 438.75,
    "relBeat": 29.25,
    "duration": 0.25,
    "velocity": 100,
    "pitch": 60
  },
  {
    "clipIndex": 527,
    "trackId": "22",
    "clipName": null,
    "beat": 438.75,
    "relBeat": 25.25,
    "duration": 0.25,
    "velocity": 100,
    "pitch": 60
  },
  {
    "clipIndex": 528,
    "trackId": "22",
    "clipName": null,
    "beat": 438.75,
    "relBeat": 21.25,
    "duration": 0.25,
    "velocity": 100,
    "pitch": 60
  },
  {
    "clipIndex": 526,
    "trackId": "22",
    "clipName": null,
    "beat": 439,
    "relBeat": 29.5,
    "duration": 0.25,
    "velocity": 100,
    "pitch": 60
  },
  {
    "clipIndex": 527,
    "trackId": "22",
    "clipName": null,
    "beat": 439,
    "relBeat": 25.5,
    "duration": 0.25,
    "velocity": 100,
    "pitch": 60
  },
  {
    "clipIndex": 526,
    "trackId": "22",
    "clipName": null,
    "beat": 439.25,
    "relBeat": 29.75,
    "duration": 0.25,
    "velocity": 100,
    "pitch": 60
  },
  {
    "clipIndex": 527,
    "trackId": "22",
    "clipName": null,
    "beat": 439.25,
    "relBeat": 25.75,
    "duration": 0.25,
    "velocity": 100,
    "pitch": 60
  },
  {
    "clipIndex": 526,
    "trackId": "22",
    "clipName": null,
    "beat": 439.5,
    "relBeat": 30,
    "duration": 0.25,
    "velocity": 100,
    "pitch": 60
  },
  {
    "clipIndex": 527,
    "trackId": "22",
    "clipName": null,
    "beat": 439.5,
    "relBeat": 26,
    "duration": 0.25,
    "velocity": 100,
    "pitch": 60
  },
  {
    "clipIndex": 526,
    "trackId": "22",
    "clipName": null,
    "beat": 439.75,
    "relBeat": 30.25,
    "duration": 0.25,
    "velocity": 100,
    "pitch": 60
  },
  {
    "clipIndex": 527,
    "trackId": "22",
    "clipName": null,
    "beat": 439.75,
    "relBeat": 26.25,
    "duration": 0.25,
    "velocity": 100,
    "pitch": 60
  },
  {
    "clipIndex": 526,
    "trackId": "22",
    "clipName": null,
    "beat": 440,
    "relBeat": 30.5,
    "duration": 0.25,
    "velocity": 100,
    "pitch": 60
  },
  {
    "clipIndex": 527,
    "trackId": "22",
    "clipName": null,
    "beat": 440,
    "relBeat": 26.5,
    "duration": 0.25,
    "velocity": 100,
    "pitch": 60
  },
  {
    "clipIndex": 526,
    "trackId": "22",
    "clipName": null,
    "beat": 440.25,
    "relBeat": 30.75,
    "duration": 0.25,
    "velocity": 100,
    "pitch": 60
  },
  {
    "clipIndex": 527,
    "trackId": "22",
    "clipName": null,
    "beat": 440.25,
    "relBeat": 26.75,
    "duration": 0.25,
    "velocity": 100,
    "pitch": 60
  },
  {
    "clipIndex": 526,
    "trackId": "22",
    "clipName": null,
    "beat": 440.5,
    "relBeat": 31,
    "duration": 0.25,
    "velocity": 100,
    "pitch": 60
  },
  {
    "clipIndex": 527,
    "trackId": "22",
    "clipName": null,
    "beat": 440.5,
    "relBeat": 27,
    "duration": 0.25,
    "velocity": 100,
    "pitch": 60
  },
  {
    "clipIndex": 526,
    "trackId": "22",
    "clipName": null,
    "beat": 440.75,
    "relBeat": 31.25,
    "duration": 0.25,
    "velocity": 100,
    "pitch": 60
  },
  {
    "clipIndex": 527,
    "trackId": "22",
    "clipName": null,
    "beat": 440.75,
    "relBeat": 27.25,
    "duration": 0.25,
    "velocity": 100,
    "pitch": 60
  },
  {
    "clipIndex": 526,
    "trackId": "22",
    "clipName": null,
    "beat": 441,
    "relBeat": 31.5,
    "duration": 0.25,
    "velocity": 100,
    "pitch": 60
  },
  {
    "clipIndex": 527,
    "trackId": "22",
    "clipName": null,
    "beat": 441,
    "relBeat": 27.5,
    "duration": 0.25,
    "velocity": 100,
    "pitch": 60
  },
  {
    "clipIndex": 526,
    "trackId": "22",
    "clipName": null,
    "beat": 441.25,
    "relBeat": 31.75,
    "duration": 0.25,
    "velocity": 100,
    "pitch": 60
  },
  {
    "clipIndex": 527,
    "trackId": "22",
    "clipName": null,
    "beat": 441.25,
    "relBeat": 27.75,
    "duration": 0.25,
    "velocity": 100,
    "pitch": 60
  },
  {
    "clipIndex": 527,
    "trackId": "22",
    "clipName": null,
    "beat": 441.5,
    "relBeat": 28,
    "duration": 0.25,
    "velocity": 100,
    "pitch": 60
  },
  {
    "clipIndex": 528,
    "trackId": "22",
    "clipName": null,
    "beat": 441.5,
    "relBeat": 24,
    "duration": 0.25,
    "velocity": 100,
    "pitch": 60
  },
  {
    "clipIndex": 527,
    "trackId": "22",
    "clipName": null,
    "beat": 441.75,
    "relBeat": 28.25,
    "duration": 0.25,
    "velocity": 100,
    "pitch": 60
  },
  {
    "clipIndex": 528,
    "trackId": "22",
    "clipName": null,
    "beat": 441.75,
    "relBeat": 24.25,
    "duration": 0.25,
    "velocity": 100,
    "pitch": 60
  },
  {
    "clipIndex": 527,
    "trackId": "22",
    "clipName": null,
    "beat": 442,
    "relBeat": 28.5,
    "duration": 0.25,
    "velocity": 100,
    "pitch": 60
  },
  {
    "clipIndex": 528,
    "trackId": "22",
    "clipName": null,
    "beat": 442,
    "relBeat": 24.5,
    "duration": 0.25,
    "velocity": 100,
    "pitch": 60
  },
  {
    "clipIndex": 343,
    "trackId": "55",
    "clipName": null,
    "beat": 442.25,
    "relBeat": 202.25,
    "duration": 0.25000026015651017,
    "velocity": 100,
    "pitch": 60
  },
  {
    "clipIndex": 527,
    "trackId": "22",
    "clipName": null,
    "beat": 442.25,
    "relBeat": 28.75,
    "duration": 0.25,
    "velocity": 100,
    "pitch": 60
  },
  {
    "clipIndex": 528,
    "trackId": "22",
    "clipName": null,
    "beat": 442.25,
    "relBeat": 24.75,
    "duration": 0.25,
    "velocity": 100,
    "pitch": 60
  },
  {
    "clipIndex": 527,
    "trackId": "22",
    "clipName": null,
    "beat": 442.5,
    "relBeat": 29,
    "duration": 0.25,
    "velocity": 100,
    "pitch": 60
  },
  {
    "clipIndex": 528,
    "trackId": "22",
    "clipName": null,
    "beat": 442.5,
    "relBeat": 25,
    "duration": 0.25,
    "velocity": 100,
    "pitch": 60
  },
  {
    "clipIndex": 527,
    "trackId": "22",
    "clipName": null,
    "beat": 442.75,
    "relBeat": 29.25,
    "duration": 0.25,
    "velocity": 100,
    "pitch": 60
  },
  {
    "clipIndex": 528,
    "trackId": "22",
    "clipName": null,
    "beat": 442.75,
    "relBeat": 25.25,
    "duration": 0.25,
    "velocity": 100,
    "pitch": 60
  },
  {
    "clipIndex": 527,
    "trackId": "22",
    "clipName": null,
    "beat": 443,
    "relBeat": 29.5,
    "duration": 0.25,
    "velocity": 100,
    "pitch": 60
  },
  {
    "clipIndex": 528,
    "trackId": "22",
    "clipName": null,
    "beat": 443,
    "relBeat": 25.5,
    "duration": 0.25,
    "velocity": 100,
    "pitch": 60
  },
  {
    "clipIndex": 527,
    "trackId": "22",
    "clipName": null,
    "beat": 443.25,
    "relBeat": 29.75,
    "duration": 0.25,
    "velocity": 100,
    "pitch": 60
  },
  {
    "clipIndex": 528,
    "trackId": "22",
    "clipName": null,
    "beat": 443.25,
    "relBeat": 25.75,
    "duration": 0.25,
    "velocity": 100,
    "pitch": 60
  },
  {
    "clipIndex": 527,
    "trackId": "22",
    "clipName": null,
    "beat": 443.5,
    "relBeat": 30,
    "duration": 0.25,
    "velocity": 100,
    "pitch": 60
  },
  {
    "clipIndex": 528,
    "trackId": "22",
    "clipName": null,
    "beat": 443.5,
    "relBeat": 26,
    "duration": 0.25,
    "velocity": 100,
    "pitch": 60
  },
  {
    "clipIndex": 527,
    "trackId": "22",
    "clipName": null,
    "beat": 443.75,
    "relBeat": 30.25,
    "duration": 0.25,
    "velocity": 100,
    "pitch": 60
  },
  {
    "clipIndex": 528,
    "trackId": "22",
    "clipName": null,
    "beat": 443.75,
    "relBeat": 26.25,
    "duration": 0.25,
    "velocity": 100,
    "pitch": 60
  },
  {
    "clipIndex": 527,
    "trackId": "22",
    "clipName": null,
    "beat": 444,
    "relBeat": 30.5,
    "duration": 0.25,
    "velocity": 100,
    "pitch": 60
  },
  {
    "clipIndex": 528,
    "trackId": "22",
    "clipName": null,
    "beat": 444,
    "relBeat": 26.5,
    "duration": 0.25,
    "velocity": 100,
    "pitch": 60
  },
  {
    "clipIndex": 527,
    "trackId": "22",
    "clipName": null,
    "beat": 444.25,
    "relBeat": 30.75,
    "duration": 0.25,
    "velocity": 100,
    "pitch": 60
  },
  {
    "clipIndex": 528,
    "trackId": "22",
    "clipName": null,
    "beat": 444.25,
    "relBeat": 26.75,
    "duration": 0.25,
    "velocity": 100,
    "pitch": 60
  },
  {
    "clipIndex": 527,
    "trackId": "22",
    "clipName": null,
    "beat": 444.5,
    "relBeat": 31,
    "duration": 0.25,
    "velocity": 100,
    "pitch": 60
  },
  {
    "clipIndex": 528,
    "trackId": "22",
    "clipName": null,
    "beat": 444.5,
    "relBeat": 27,
    "duration": 0.25,
    "velocity": 100,
    "pitch": 60
  },
  {
    "clipIndex": 527,
    "trackId": "22",
    "clipName": null,
    "beat": 444.75,
    "relBeat": 31.25,
    "duration": 0.25,
    "velocity": 100,
    "pitch": 60
  },
  {
    "clipIndex": 528,
    "trackId": "22",
    "clipName": null,
    "beat": 444.75,
    "relBeat": 27.25,
    "duration": 0.25,
    "velocity": 100,
    "pitch": 60
  },
  {
    "clipIndex": 527,
    "trackId": "22",
    "clipName": null,
    "beat": 445,
    "relBeat": 31.5,
    "duration": 0.25,
    "velocity": 100,
    "pitch": 60
  },
  {
    "clipIndex": 528,
    "trackId": "22",
    "clipName": null,
    "beat": 445,
    "relBeat": 27.5,
    "duration": 0.25,
    "velocity": 100,
    "pitch": 60
  },
  {
    "clipIndex": 527,
    "trackId": "22",
    "clipName": null,
    "beat": 445.25,
    "relBeat": 31.75,
    "duration": 0.25,
    "velocity": 100,
    "pitch": 60
  },
  {
    "clipIndex": 528,
    "trackId": "22",
    "clipName": null,
    "beat": 445.25,
    "relBeat": 27.75,
    "duration": 0.25,
    "velocity": 100,
    "pitch": 60
  },
  {
    "clipIndex": 528,
    "trackId": "22",
    "clipName": null,
    "beat": 445.5,
    "relBeat": 28,
    "duration": 0.25,
    "velocity": 100,
    "pitch": 60
  },
  {
    "clipIndex": 528,
    "trackId": "22",
    "clipName": null,
    "beat": 445.75,
    "relBeat": 28.25,
    "duration": 0.25,
    "velocity": 100,
    "pitch": 60
  },
  {
    "clipIndex": 528,
    "trackId": "22",
    "clipName": null,
    "beat": 446,
    "relBeat": 28.5,
    "duration": 0.25,
    "velocity": 100,
    "pitch": 60
  },
  {
    "clipIndex": 528,
    "trackId": "22",
    "clipName": null,
    "beat": 446.25,
    "relBeat": 28.75,
    "duration": 0.25,
    "velocity": 100,
    "pitch": 60
  },
  {
    "clipIndex": 528,
    "trackId": "22",
    "clipName": null,
    "beat": 446.5,
    "relBeat": 29,
    "duration": 0.25,
    "velocity": 100,
    "pitch": 60
  },
  {
    "clipIndex": 528,
    "trackId": "22",
    "clipName": null,
    "beat": 446.75,
    "relBeat": 29.25,
    "duration": 0.25,
    "velocity": 100,
    "pitch": 60
  },
  {
    "clipIndex": 348,
    "trackId": "55",
    "clipName": null,
    "beat": 447,
    "relBeat": 151,
    "duration": 0.25,
    "velocity": 100,
    "pitch": 60
  },
  {
    "clipIndex": 528,
    "trackId": "22",
    "clipName": null,
    "beat": 447,
    "relBeat": 29.5,
    "duration": 0.25,
    "velocity": 100,
    "pitch": 60
  },
  {
    "clipIndex": 528,
    "trackId": "22",
    "clipName": null,
    "beat": 447.25,
    "relBeat": 29.75,
    "duration": 0.25,
    "velocity": 100,
    "pitch": 60
  },
  {
    "clipIndex": 348,
    "trackId": "55",
    "clipName": null,
    "beat": 447.5,
    "relBeat": 151.5,
    "duration": 0.25,
    "velocity": 100,
    "pitch": 60
  },
  {
    "clipIndex": 528,
    "trackId": "22",
    "clipName": null,
    "beat": 447.5,
    "relBeat": 30,
    "duration": 0.25,
    "velocity": 100,
    "pitch": 60
  },
  {
    "clipIndex": 528,
    "trackId": "22",
    "clipName": null,
    "beat": 447.75,
    "relBeat": 30.25,
    "duration": 0.25,
    "velocity": 100,
    "pitch": 60
  },
  {
    "clipIndex": 348,
    "trackId": "55",
    "clipName": null,
    "beat": 448,
    "relBeat": 152,
    "duration": 0.25,
    "velocity": 100,
    "pitch": 60
  },
  {
    "clipIndex": 528,
    "trackId": "22",
    "clipName": null,
    "beat": 448,
    "relBeat": 30.5,
    "duration": 0.25,
    "velocity": 100,
    "pitch": 60
  },
  {
    "clipIndex": 528,
    "trackId": "22",
    "clipName": null,
    "beat": 448.25,
    "relBeat": 30.75,
    "duration": 0.25,
    "velocity": 100,
    "pitch": 60
  },
  {
    "clipIndex": 348,
    "trackId": "55",
    "clipName": null,
    "beat": 448.5,
    "relBeat": 152.5,
    "duration": 0.25,
    "velocity": 100,
    "pitch": 60
  },
  {
    "clipIndex": 528,
    "trackId": "22",
    "clipName": null,
    "beat": 448.5,
    "relBeat": 31,
    "duration": 0.25,
    "velocity": 100,
    "pitch": 60
  },
  {
    "clipIndex": 528,
    "trackId": "22",
    "clipName": null,
    "beat": 448.75,
    "relBeat": 31.25,
    "duration": 0.25,
    "velocity": 100,
    "pitch": 60
  },
  {
    "clipIndex": 348,
    "trackId": "55",
    "clipName": null,
    "beat": 449,
    "relBeat": 153,
    "duration": 0.25,
    "velocity": 100,
    "pitch": 60
  },
  {
    "clipIndex": 528,
    "trackId": "22",
    "clipName": null,
    "beat": 449,
    "relBeat": 31.5,
    "duration": 0.25,
    "velocity": 100,
    "pitch": 60
  },
  {
    "clipIndex": 528,
    "trackId": "22",
    "clipName": null,
    "beat": 449.25,
    "relBeat": 31.75,
    "duration": 0.25,
    "velocity": 100,
    "pitch": 60
  },
  {
    "clipIndex": 348,
    "trackId": "55",
    "clipName": null,
    "beat": 449.5,
    "relBeat": 153.5,
    "duration": 0.25,
    "velocity": 100,
    "pitch": 60
  },
  {
    "clipIndex": 348,
    "trackId": "55",
    "clipName": null,
    "beat": 450,
    "relBeat": 154,
    "duration": 0.25000026015651017,
    "velocity": 100,
    "pitch": 60
  },
  {
    "clipIndex": 343,
    "trackId": "55",
    "clipName": null,
    "beat": 450.25,
    "relBeat": 210.25,
    "duration": 0.25000026015651017,
    "velocity": 100,
    "pitch": 60
  },
  {
    "clipIndex": 348,
    "trackId": "55",
    "clipName": null,
    "beat": 451.25,
    "relBeat": 155.25,
    "duration": 0.25,
    "velocity": 100,
    "pitch": 60
  },
  {
    "clipIndex": 348,
    "trackId": "55",
    "clipName": null,
    "beat": 451.75,
    "relBeat": 155.75,
    "duration": 0.25,
    "velocity": 100,
    "pitch": 60
  },
  {
    "clipIndex": 348,
    "trackId": "55",
    "clipName": null,
    "beat": 452.25,
    "relBeat": 156.25,
    "duration": 0.25,
    "velocity": 100,
    "pitch": 60
  },
  {
    "clipIndex": 348,
    "trackId": "55",
    "clipName": null,
    "beat": 452.75,
    "relBeat": 156.75,
    "duration": 0.25,
    "velocity": 100,
    "pitch": 60
  },
  {
    "clipIndex": 348,
    "trackId": "55",
    "clipName": null,
    "beat": 453.25,
    "relBeat": 157.25,
    "duration": 0.25,
    "velocity": 100,
    "pitch": 60
  },
  {
    "clipIndex": 343,
    "trackId": "55",
    "clipName": null,
    "beat": 454.25,
    "relBeat": 214.25,
    "duration": 0.25000026015651017,
    "velocity": 100,
    "pitch": 60
  },
  {
    "clipIndex": 349,
    "trackId": "55",
    "clipName": null,
    "beat": 455,
    "relBeat": 151,
    "duration": 0.25,
    "velocity": 100,
    "pitch": 60
  },
  {
    "clipIndex": 348,
    "trackId": "55",
    "clipName": null,
    "beat": 455.25,
    "relBeat": 159.25,
    "duration": 0.25,
    "velocity": 100,
    "pitch": 60
  },
  {
    "clipIndex": 349,
    "trackId": "55",
    "clipName": null,
    "beat": 455.5,
    "relBeat": 151.5,
    "duration": 0.25,
    "velocity": 100,
    "pitch": 60
  },
  {
    "clipIndex": 348,
    "trackId": "55",
    "clipName": null,
    "beat": 455.75,
    "relBeat": 159.75,
    "duration": 0.25,
    "velocity": 100,
    "pitch": 60
  },
  {
    "clipIndex": 349,
    "trackId": "55",
    "clipName": null,
    "beat": 456,
    "relBeat": 152,
    "duration": 0.25,
    "velocity": 100,
    "pitch": 60
  },
  {
    "clipIndex": 348,
    "trackId": "55",
    "clipName": null,
    "beat": 456.25,
    "relBeat": 160.25,
    "duration": 0.25,
    "velocity": 100,
    "pitch": 60
  },
  {
    "clipIndex": 349,
    "trackId": "55",
    "clipName": null,
    "beat": 456.5,
    "relBeat": 152.5,
    "duration": 0.25,
    "velocity": 100,
    "pitch": 60
  },
  {
    "clipIndex": 349,
    "trackId": "55",
    "clipName": null,
    "beat": 457,
    "relBeat": 153,
    "duration": 0.25,
    "velocity": 100,
    "pitch": 60
  },
  {
    "clipIndex": 349,
    "trackId": "55",
    "clipName": null,
    "beat": 457.5,
    "relBeat": 153.5,
    "duration": 0.25,
    "velocity": 100,
    "pitch": 60
  },
  {
    "clipIndex": 348,
    "trackId": "55",
    "clipName": null,
    "beat": 457.75,
    "relBeat": 161.75,
    "duration": 0.25,
    "velocity": 100,
    "pitch": 60
  },
  {
    "clipIndex": 349,
    "trackId": "55",
    "clipName": null,
    "beat": 458,
    "relBeat": 154,
    "duration": 0.25000026015651017,
    "velocity": 100,
    "pitch": 60
  },
  {
    "clipIndex": 343,
    "trackId": "55",
    "clipName": null,
    "beat": 458.25,
    "relBeat": 218.25,
    "duration": 0.25000026015651017,
    "velocity": 100,
    "pitch": 60
  },
  {
    "clipIndex": 348,
    "trackId": "55",
    "clipName": null,
    "beat": 458.25,
    "relBeat": 162.25,
    "duration": 0.25,
    "velocity": 100,
    "pitch": 60
  },
  {
    "clipIndex": 348,
    "trackId": "55",
    "clipName": null,
    "beat": 458.75,
    "relBeat": 162.75,
    "duration": 0.25,
    "velocity": 100,
    "pitch": 60
  },
  {
    "clipIndex": 348,
    "trackId": "55",
    "clipName": null,
    "beat": 459.25,
    "relBeat": 163.25,
    "duration": 0.25,
    "velocity": 100,
    "pitch": 60
  },
  {
    "clipIndex": 349,
    "trackId": "55",
    "clipName": null,
    "beat": 459.25,
    "relBeat": 155.25,
    "duration": 0.25,
    "velocity": 100,
    "pitch": 60
  },
  {
    "clipIndex": 348,
    "trackId": "55",
    "clipName": null,
    "beat": 459.75,
    "relBeat": 163.75,
    "duration": 0.25,
    "velocity": 100,
    "pitch": 60
  },
  {
    "clipIndex": 349,
    "trackId": "55",
    "clipName": null,
    "beat": 459.75,
    "relBeat": 155.75,
    "duration": 0.25,
    "velocity": 100,
    "pitch": 60
  },
  {
    "clipIndex": 348,
    "trackId": "55",
    "clipName": null,
    "beat": 460.25,
    "relBeat": 164.25,
    "duration": 0.25,
    "velocity": 100,
    "pitch": 60
  },
  {
    "clipIndex": 349,
    "trackId": "55",
    "clipName": null,
    "beat": 460.25,
    "relBeat": 156.25,
    "duration": 0.25,
    "velocity": 100,
    "pitch": 60
  },
  {
    "clipIndex": 348,
    "trackId": "55",
    "clipName": null,
    "beat": 460.75,
    "relBeat": 164.75,
    "duration": 0.25000026015651017,
    "velocity": 100,
    "pitch": 60
  },
  {
    "clipIndex": 349,
    "trackId": "55",
    "clipName": null,
    "beat": 460.75,
    "relBeat": 156.75,
    "duration": 0.25,
    "velocity": 100,
    "pitch": 60
  },
  {
    "clipIndex": 349,
    "trackId": "55",
    "clipName": null,
    "beat": 461.25,
    "relBeat": 157.25,
    "duration": 0.25,
    "velocity": 100,
    "pitch": 60
  },
  {
    "clipIndex": 343,
    "trackId": "55",
    "clipName": null,
    "beat": 462.25,
    "relBeat": 222.25,
    "duration": 0.25000026015651017,
    "velocity": 100,
    "pitch": 60
  },
  {
    "clipIndex": 349,
    "trackId": "55",
    "clipName": null,
    "beat": 463.25,
    "relBeat": 159.25,
    "duration": 0.25,
    "velocity": 100,
    "pitch": 60
  },
  {
    "clipIndex": 349,
    "trackId": "55",
    "clipName": null,
    "beat": 463.75,
    "relBeat": 159.75,
    "duration": 0.25,
    "velocity": 100,
    "pitch": 60
  },
  {
    "clipIndex": 349,
    "trackId": "55",
    "clipName": null,
    "beat": 464.25,
    "relBeat": 160.25,
    "duration": 0.25,
    "velocity": 100,
    "pitch": 60
  },
  {
    "clipIndex": 349,
    "trackId": "55",
    "clipName": null,
    "beat": 465.75,
    "relBeat": 161.75,
    "duration": 0.25,
    "velocity": 100,
    "pitch": 60
  },
  {
    "clipIndex": 343,
    "trackId": "55",
    "clipName": null,
    "beat": 466.25,
    "relBeat": 226.25,
    "duration": 0.25000026015651017,
    "velocity": 100,
    "pitch": 60
  },
  {
    "clipIndex": 349,
    "trackId": "55",
    "clipName": null,
    "beat": 466.25,
    "relBeat": 162.25,
    "duration": 0.25,
    "velocity": 100,
    "pitch": 60
  },
  {
    "clipIndex": 349,
    "trackId": "55",
    "clipName": null,
    "beat": 466.75,
    "relBeat": 162.75,
    "duration": 0.25,
    "velocity": 100,
    "pitch": 60
  },
  {
    "clipIndex": 349,
    "trackId": "55",
    "clipName": null,
    "beat": 467.25,
    "relBeat": 163.25,
    "duration": 0.25,
    "velocity": 100,
    "pitch": 60
  },
  {
    "clipIndex": 349,
    "trackId": "55",
    "clipName": null,
    "beat": 467.75,
    "relBeat": 163.75,
    "duration": 0.25,
    "velocity": 100,
    "pitch": 60
  },
  {
    "clipIndex": 349,
    "trackId": "55",
    "clipName": null,
    "beat": 468.25,
    "relBeat": 164.25,
    "duration": 0.25,
    "velocity": 100,
    "pitch": 60
  },
  {
    "clipIndex": 349,
    "trackId": "55",
    "clipName": null,
    "beat": 468.75,
    "relBeat": 164.75,
    "duration": 0.25000026015651017,
    "velocity": 100,
    "pitch": 60
  },
  {
    "clipIndex": 348,
    "trackId": "55",
    "clipName": null,
    "beat": 475.5,
    "relBeat": 179.5,
    "duration": 0.25000026015651017,
    "velocity": 100,
    "pitch": 60
  },
  {
    "clipIndex": 348,
    "trackId": "55",
    "clipName": null,
    "beat": 476.25,
    "relBeat": 180.25,
    "duration": 0.25000026015651017,
    "velocity": 100,
    "pitch": 60
  },
  {
    "clipIndex": 348,
    "trackId": "55",
    "clipName": null,
    "beat": 477,
    "relBeat": 181,
    "duration": 0.25000026015651017,
    "velocity": 100,
    "pitch": 60
  },
  {
    "clipIndex": 348,
    "trackId": "55",
    "clipName": null,
    "beat": 477.75,
    "relBeat": 181.75,
    "duration": 0.25000026015651017,
    "velocity": 100,
    "pitch": 60
  },
  {
    "clipIndex": 348,
    "trackId": "55",
    "clipName": null,
    "beat": 478.5,
    "relBeat": 182.5,
    "duration": 0.25000026015651017,
    "velocity": 100,
    "pitch": 60
  },
  {
    "clipIndex": 348,
    "trackId": "55",
    "clipName": null,
    "beat": 479.25,
    "relBeat": 183.25,
    "duration": 0.25000026015651017,
    "velocity": 100,
    "pitch": 60
  },
  {
    "clipIndex": 349,
    "trackId": "55",
    "clipName": null,
    "beat": 483.5,
    "relBeat": 179.5,
    "duration": 0.25000026015651017,
    "velocity": 100,
    "pitch": 60
  },
  {
    "clipIndex": 349,
    "trackId": "55",
    "clipName": null,
    "beat": 484.25,
    "relBeat": 180.25,
    "duration": 0.25000026015651017,
    "velocity": 100,
    "pitch": 60
  },
  {
    "clipIndex": 349,
    "trackId": "55",
    "clipName": null,
    "beat": 485,
    "relBeat": 181,
    "duration": 0.25000026015651017,
    "velocity": 100,
    "pitch": 60
  },
  {
    "clipIndex": 349,
    "trackId": "55",
    "clipName": null,
    "beat": 485.75,
    "relBeat": 181.75,
    "duration": 0.25000026015651017,
    "velocity": 100,
    "pitch": 60
  },
  {
    "clipIndex": 349,
    "trackId": "55",
    "clipName": null,
    "beat": 486.5,
    "relBeat": 182.5,
    "duration": 0.25000026015651017,
    "velocity": 100,
    "pitch": 60
  },
  {
    "clipIndex": 349,
    "trackId": "55",
    "clipName": null,
    "beat": 487.25,
    "relBeat": 183.25,
    "duration": 0.25000026015651017,
    "velocity": 100,
    "pitch": 60
  },
  {
    "clipIndex": 348,
    "trackId": "55",
    "clipName": null,
    "beat": 490.25,
    "relBeat": 194.25,
    "duration": 0.25000026015651017,
    "velocity": 100,
    "pitch": 60
  },
  {
    "clipIndex": 348,
    "trackId": "55",
    "clipName": null,
    "beat": 494.25,
    "relBeat": 198.25,
    "duration": 0.25000026015651017,
    "velocity": 100,
    "pitch": 60
  },
  {
    "clipIndex": 348,
    "trackId": "55",
    "clipName": null,
    "beat": 498.25,
    "relBeat": 202.25,
    "duration": 0.25000026015651017,
    "velocity": 100,
    "pitch": 60
  },
  {
    "clipIndex": 349,
    "trackId": "55",
    "clipName": null,
    "beat": 498.25,
    "relBeat": 194.25,
    "duration": 0.25000026015651017,
    "velocity": 100,
    "pitch": 60
  },
  {
    "clipIndex": 349,
    "trackId": "55",
    "clipName": null,
    "beat": 502.25,
    "relBeat": 198.25,
    "duration": 0.25000026015651017,
    "velocity": 100,
    "pitch": 60
  },
  {
    "clipIndex": 348,
    "trackId": "55",
    "clipName": null,
    "beat": 506.25,
    "relBeat": 210.25,
    "duration": 0.25000026015651017,
    "velocity": 100,
    "pitch": 60
  },
  {
    "clipIndex": 349,
    "trackId": "55",
    "clipName": null,
    "beat": 506.25,
    "relBeat": 202.25,
    "duration": 0.25000026015651017,
    "velocity": 100,
    "pitch": 60
  },
  {
    "clipIndex": 348,
    "trackId": "55",
    "clipName": null,
    "beat": 510.25,
    "relBeat": 214.25,
    "duration": 0.25000026015651017,
    "velocity": 100,
    "pitch": 60
  },
  {
    "clipIndex": 348,
    "trackId": "55",
    "clipName": null,
    "beat": 514.25,
    "relBeat": 218.25,
    "duration": 0.25000026015651017,
    "velocity": 100,
    "pitch": 60
  },
  {
    "clipIndex": 349,
    "trackId": "55",
    "clipName": null,
    "beat": 514.25,
    "relBeat": 210.25,
    "duration": 0.25000026015651017,
    "velocity": 100,
    "pitch": 60
  },
  {
    "clipIndex": 348,
    "trackId": "55",
    "clipName": null,
    "beat": 518.25,
    "relBeat": 222.25,
    "duration": 0.25000026015651017,
    "velocity": 100,
    "pitch": 60
  },
  {
    "clipIndex": 349,
    "trackId": "55",
    "clipName": null,
    "beat": 518.25,
    "relBeat": 214.25,
    "duration": 0.25000026015651017,
    "velocity": 100,
    "pitch": 60
  },
  {
    "clipIndex": 348,
    "trackId": "55",
    "clipName": null,
    "beat": 522.25,
    "relBeat": 226.25,
    "duration": 0.25000026015651017,
    "velocity": 100,
    "pitch": 60
  },
  {
    "clipIndex": 349,
    "trackId": "55",
    "clipName": null,
    "beat": 522.25,
    "relBeat": 218.25,
    "duration": 0.25000026015651017,
    "velocity": 100,
    "pitch": 60
  },
  {
    "clipIndex": 349,
    "trackId": "55",
    "clipName": null,
    "beat": 526.25,
    "relBeat": 222.25,
    "duration": 0.25000026015651017,
    "velocity": 100,
    "pitch": 60
  },
  {
    "clipIndex": 349,
    "trackId": "55",
    "clipName": null,
    "beat": 530.25,
    "relBeat": 226.25,
    "duration": 0.25000026015651017,
    "velocity": 100,
    "pitch": 60
  }
]