<?xml version="1.0" encoding="UTF-8"?>
<svg width="578.24" height="428.85" version="1.1" viewBox="0 0 433.68 321.63" xmlns="http://www.w3.org/2000/svg" xmlns:cc="http://creativecommons.org/ns#" xmlns:dc="http://purl.org/dc/elements/1.1/" xmlns:rdf="http://www.w3.org/1999/02/22-rdf-syntax-ns#">
 <title>Aadhaar hindi logo</title>
 <g transform="translate(-204.1 -114.99)" fill-rule="evenodd">
  <g fill="#fbb400">
   <path d="m578.86 240.66-3e-3 2e-3h4e-3c-2.0049 3.0297-2.7327 6.6789-3.344 10.482-0.7492 4.6323-1.5389 9.0781-3.1768 13.436-1.9673 5.224-5.272 11.044-11.024 15.601-5.9784-16.186-14.68-31.05-25.543-44.048 6.8538-2.7396 13.581-2.698 19.113-1.7855 4.5934 0.7607 8.8389 2.2996 13.226 3.967 3.5971 1.3727 7.1218 2.5671 10.748 2.3454z"/>
   <path d="m512.11 173.92-1e-3 4e-3 4e-3 -2e-3c-0.2217 3.626 0.9727 7.1501 2.3448 10.749 1.6674 4.3862 3.2063 8.6317 3.967 13.225 0.913 5.536 0.9542 12.272-1.7924 19.131-13.017-10.847-27.901-19.529-44.101-25.485 4.5656-5.8 10.413-9.1256 15.661-11.102 4.3584-1.6378 8.8043-2.4281 13.438-3.1779 3.8014-0.6096 7.4512-1.3374 10.481-3.3429z"/>
   <path d="m568.34 306.38c7.2549 1.0722 13.026 4.4563 17.34 7.9949 3.5977 2.9555 6.5046 6.4108 9.4706 10.049 2.4282 2.9862 4.8835 5.7832 8.1344 7.4043h-32.752c-9e-3 -8.6769-0.7648-17.177-2.1925-25.448z"/>
   <path d="m329.77 173.92 2e-3 3e-3v-4e-3c3.0297 2.0049 6.6795 2.7327 10.482 3.3441 4.6323 0.7491 9.0781 1.5388 13.436 3.1761 5.2471 1.976 11.095 5.3027 15.661 11.102-16.202 5.9546-31.084 14.638-44.101 25.485-2.7472-6.8596-2.7061-13.595-1.7925-19.131 0.7608-4.5935 2.2997-8.839 3.9671-13.226 1.3727-3.597 2.5671-7.1217 2.3453-10.748z"/>
   <path d="m263.03 240.66 4e-3 1e-3 -2e-3 -3e-3c3.6261 0.2217 7.1508-0.9733 10.749-2.3448 4.3862-1.6674 8.6317-3.2063 13.225-3.9676 5.532-0.9119 12.26-0.953 19.113 1.7861-10.864 12.998-19.563 27.863-25.543 44.048-5.7526-4.557-9.0573-10.376-11.025-15.601-1.6379-4.3585-2.4281-8.8043-3.1773-13.438-0.6102-3.8015-1.338-7.4512-3.3435-10.481z"/>
   <path d="m238.6 331.83c3.2502-1.6211 5.7045-4.4175 8.1344-7.4038 2.9648-3.637 5.8718-7.0928 9.4688-10.048 4.3139-3.5386 10.083-6.9238 17.338-7.9954-1.4277 8.271-2.1809 16.771-2.1902 25.448z"/>
   <path d="m420.94 149.49 6e-4 3e-3 2e-3 -3e-3c1.6211 3.2514 4.418 5.7062 7.4049 8.1367 3.637 2.9648 7.0928 5.8718 10.048 9.4689 3.5606 4.341 6.966 10.156 8.0157 17.475-8.2791-1.4208-16.786-2.1688-25.47-2.1688-8.6844 0-17.192 0.748-25.471 2.1694 1.049-7.3193 4.4545-13.135 8.0157-17.475 2.9556-3.5976 6.4108-6.5046 10.049-9.4706 2.9868-2.4287 5.7838-4.8841 7.4049-8.1355z"/>
  </g>
  <g fill="#d50c29">
   <path d="m390.52 331.86 11.255-0.0331c1.4788-9.5064-1.4124-16.825-11.029-15.079-8.1037 1.4717-16.808 9.5227-22.068 15.079l14.841-0.0648c1.6533-1.0879 4.8888-2.3271 6.2179-1.4038 0.4974 0.3459 0.7575 0.8361 0.7838 1.5017z"/>
   <path d="m441.14 331.83h14.042c0.6676-16.581-2.0037-33.705-9.712-48.52-7.0118-13.479-18.602-22.641-33.607-24.856-21.904-3.2318-44.006 6.0414-62.691 19.307-20.346 14.444-37.139 34.061-51.814 54.069l18.548-0.0272c16.699-23.668 55.108-59.601 83.362-59.836 9.004-0.0747 18.158 2.0391 24.927 8.0776 4.905 4.3758 10.85 12.874 10.559 19.771-0.1725 4.0892-3.8026 5.3433-7.2822 4.0765-2.7037-0.9848-4.6137-3.4558-6.5051-6.0536-6.1474-8.4401-15.737-12.571-26.255-11.132-12.546 1.716-28.095 11.457-38.125 20.316-8.6496 7.6406-16.59 16.002-24.08 24.807h19.942c7.3094-8.8239 15.028-16.349 24.95-22.529 3.1397-1.9558 7.0054-4.0244 11.07-5.4214 10.252-3.5242 20.455-2.632 24.984 10.134 1.7809 5.019 2.042 9.4203 1.5238 17.488l-2e-3 0.3288h13.561l0.0341-0.4139c0.0105-4.4181-0.0857-7.3945 0.3121-11.773 0.3433-3.7736 1.5157-7.6839 5.0207-8.1483 7.4478-1.5608 7.0905 15.01 7.237 20.335z"/>
   <path d="m469.94 331.83h14.157c0.6855-15.385-0.6334-33.61-5.6101-49.525-0.9825-3.1403-2.1057-6.1879-3.3806-9.0972-3.0129-6.878-7.0679-13.103-11.903-18.856-5.3733-6.3911-11.776-12.138-18.994-16.665-2.1294-1.3351-4.3381-2.5683-6.6187-3.6828v-3e-3c-2.2625-1.1058-4.6021-2.0952-7.0106-2.9504l-0.01-3e-3c-27.571-9.7891-55.456-2.8271-78.847 9.8956-4.5611 2.4802-8.9496 5.1787-13.128 8.0128-4.1772 2.8322-8.1553 5.8075-11.896 8.8418l-6e-4 -5e-4 -6e-4 5e-4 -6e-3 6e-3c-4.4406 3.6017-9.9969 8.5293-15.495 14.354-1.0827 1.1469-2.1515 2.3147-3.1924 3.4952-2.7825 3.1541-7.0697 7.5768-5.7972 12.149 1.0074 3.626 5.686 2.5578 7.3164 1.3078 2.5017-1.3414 5.2488-3.4691 7.5994-5.459 3.1843-2.695 6.1908-5.5956 9.3432-8.3283 12.749-11.051 26.038-19.575 39.127-25.343 2.8531-1.257 5.7091-2.3882 8.5559-3.3875 2.8363-0.9964 5.6582-1.8597 8.4551-2.5863l0.0133-3e-3c24.356-6.3246 50.822-2.2273 67.769 17.635 16.324 19.132 19.305 44.743 19.554 70.193zm-175.67-21.628c1.5215-1.4202 3.072-3.2728 4.6873-5.3235 2.2591-2.867 2.486-5.6426 1.5939-7.6464-0.3329-0.7485-0.8239-1.3918-1.4202-1.8903-0.5917-0.4944-1.2905-0.8476-2.0449-1.0201-1.8423-0.4209-4.044 0.2385-5.9147 2.5144-2.1149 2.5718-5.0352 6.9725-5.6321 10.865-0.1117 0.7295-0.1413 1.4376-0.066 2.1034 0.073 0.6472 0.2455 1.2621 0.5367 1.8243l2e-3 5e-3 2e-3 -1e-3c0.4759 0.9148 1.2789 1.3959 2.3506 1.4364 0.2234 8e-3 0.4654-2e-3 0.7219-0.0301 0.2513-0.0278 0.5228-0.077 0.8117-0.1453l6e-4 3e-3 0.0139-3e-3c1.4428-0.3462 2.885-1.316 4.3578-2.691z"/>
   <path d="m505.36 331.83 0.1019-2e-3h0.0504c1.4809 0.0799 4.0521-0.6015 5.5348-3.1026 0.2964-0.5002 0.55-1.0723 0.7422-1.7207 0.1963-0.6606 0.3324-1.4098 0.3897-2.2516h6e-4l0.0104-0.1725h6e-4c1.1249-39.322-10.919-71.873-31.366-93.989-3.9705-4.2947-8.2652-8.2009-12.846-11.689-4.5773-3.4853-9.4342-6.5486-14.533-9.1609l-5e-4 1e-3 -0.0811-0.0411-2e-3 -2e-3c-17.186-8.7823-36.678-12.155-55.809-10.535-3.7326 0.3156-7.4426 0.8204-11.107 1.5088-3.6747 0.6901-7.3192 1.5678-10.908 2.6273l-0.0509 0.0151c-19.676 5.8203-37.985 17.373-52.905 32.532-2.9064 2.9527-5.6825 6.0392-8.3098 9.2414-1.3056 1.591-2.5769 3.2121-3.8096 4.8592 10.464-9.0283 21.689-16.947 33.431-23.238 2.6447-1.4167 5.3045-2.7477 7.9723-3.9815 2.6713-1.2367 5.3762-2.39 8.1083-3.4523l9e-3 -4e-3 8e-3 -3e-3c10.373-4.0325 20.599-6.6036 30.828-7.7529 10.228-1.1486 20.464-0.8759 30.857 0.777 7.3968 1.1764 14.618 3.1136 21.122 5.8226 1.2616 0.5257 2.5034 1.0844 3.7192 1.6738 1.1997 0.5818 2.3807 1.2002 3.5381 1.8532h3e-3l0.0173 0.01-5e-4 1e-3c22.899 12.539 38.808 38.269 45.815 67.319 1.3663 5.6657 2.3951 11.452 3.0702 17.283 0.6745 5.8272 0.9987 11.72 0.9576 17.6v3e-3l-3e-3 0.3375c0.1164 3.1473 1.1956 5.7786 3.0424 6.9632 0.3445 0.2206 0.7174 0.392 1.1134 0.5043h3e-3c0.4041 0.1152 0.8343 0.1725 1.2876 0.1661z"/>
  </g>
  <path d="m464.42 200.78c55.056 18.185 94.845 69.96 95.077 131.05h-27.242c1.8035-53.362-21.486-101.53-67.834-131.05z" fill="#fbb400"/>
  <path d="m293.27 352.35h13.777v6.6249h-13.777zm235.11 6.6249-0.0122 11.077c0 5.7155-3.6349 8.822-9.3895 8.822-2.6348 0-2.5007 2.2592-1.3799 3.3798l13.996 15.118-5.809 4.7528c-8.3798-7.9356-16.012-16.386-21.977-25.9-2.8046-4.8575 1.749-7.7227 5.4587-5.5809 6.0922 3.5175 11.425 2.9489 11.425-3.3817l-0.0119-8.2865h-38.853v41.929h-9.5068v-41.929h-18.247v41.929h-9.5069v-8.8143c-18.834 11.118-37.973-5.9097-24.376-18.961-26.906-22.959 13.801-36.434 13.818-12.431h-5.8127c0-10.191-11.206-8.4966-8.7928 0.511 1.0542 3.9345 5.1063 9.4386 9.7466 8.3963l9.792 0.034 1.9222 5.0547c-27.008-0.8665-16.347 24.832 3.7029 8.8725v-24.592h-5.1313v-6.6249h103.39v6.6249zm-191.82 16.17h13.503v-16.17h-2.8814v-6.6249h57.389v6.6249h-14.5v41.929h-9.5068v-41.929h-20.993v41.929h-9.5069v-19.134h-7.3026c0 14.899-21.739 30.876-42.169-4.5111l7.95-3.473c5.383 9.3234 12.427 17.292 18.526 16.49 4.7007-0.618 6.6098-2.753 6.4386-8.9867-0.2084-7.5784-7.7613-4.9776-12.948-4.9776l-0.0116-5.8315c21.572 2.0251 13.83-23.404-4.1355-9.5643l-3.5447-6.9305c23.133-13.356 35.772 9.0814 23.694 21.16z" fill="#d50c29"/>
 </g>
 <metadata>
  <rdf:RDF>
   <cc:Work rdf:about="">
    <dc:title>Aadhaar hindi logo</dc:title>
   </cc:Work>
  </rdf:RDF>
 </metadata>
</svg>
