<?xml version="1.0" encoding="UTF-8" standalone="no"?>
<!-- Created with Inkscape (http://www.inkscape.org/) -->

<svg
   width="153.95982mm"
   height="44.687721mm"
   viewBox="0 0 153.95982 44.687721"
   version="1.1"
   id="svg1"
   inkscape:version="1.4.2 (ebf0e940d0, 2025-05-08)"
   sodipodi:docname="Logo of DigiCert (2026).svg"
   xmlns:inkscape="http://www.inkscape.org/namespaces/inkscape"
   xmlns:sodipodi="http://sodipodi.sourceforge.net/DTD/sodipodi-0.dtd"
   xmlns="http://www.w3.org/2000/svg"
   xmlns:svg="http://www.w3.org/2000/svg">
  <sodipodi:namedview
     id="namedview1"
     pagecolor="#ffffff"
     bordercolor="#000000"
     borderopacity="0.25"
     inkscape:showpageshadow="2"
     inkscape:pageopacity="0.0"
     inkscape:pagecheckerboard="0"
     inkscape:deskcolor="#d1d1d1"
     inkscape:document-units="mm"
     inkscape:zoom="0.71268238"
     inkscape:cx="268.70315"
     inkscape:cy="256.77638"
     inkscape:window-width="1870"
     inkscape:window-height="1011"
     inkscape:window-x="0"
     inkscape:window-y="0"
     inkscape:window-maximized="1"
     inkscape:current-layer="layer1" />
  <defs
     id="defs1" />
  <g
     inkscape:label="Layer 1"
     inkscape:groupmode="layer"
     id="layer1"
     transform="translate(-33.76083,-80.39875)">
    <path
       d="m 33.76083,102.5311 c 0,-3.93757 1.069913,-7.042697 3.142834,-9.394681 2.139827,-2.351984 4.81461,-3.527956 8.144664,-3.527956 1.069914,0 2.086322,0.118857 3.035921,0.409593 0.949696,0.237812 1.658278,0.581373 2.193235,1.004221 0.535053,0.422799 1.016408,0.76636 1.43105,1.176001 0.414642,0.409593 0.708873,0.700328 0.896288,1.004192 l 0.173819,0.409593 h 0.120412 c -0.05826,-0.475722 -0.120412,-1.057076 -0.120412,-1.638439 V 80.39875 h 4.814513 v 34.52647 h -4.573787 v -2.3519 l 0.05826,-1.63842 h -0.120411 c -0.05826,0.11866 -0.173819,0.29054 -0.294231,0.47553 -0.120411,0.18498 -0.414642,0.58147 -0.829285,1.10992 -0.414642,0.52845 -0.949696,1.00433 -1.551364,1.41387 -0.588462,0.4095 -1.364144,0.76636 -2.380552,1.10992 -1.016408,0.35658 -2.086225,0.47553 -3.209643,0.47553 -3.383657,0 -6.058343,-1.17595 -8.02435,-3.58078 -1.885701,-2.41793 -2.902109,-5.52314 -2.902109,-9.40787 z m 4.934924,0 c 0,2.69551 0.655465,4.80966 1.966007,6.46144 1.310639,1.58549 3.022423,2.40483 5.108744,2.40483 2.019415,0 3.744697,-0.76636 5.175747,-2.23321 1.364047,-1.46653 2.086225,-3.69973 2.086225,-6.69914 0,-2.40483 -0.588463,-4.466099 -1.845499,-6.170619 -1.24383,-1.757375 -2.969014,-2.64267 -5.229253,-2.64267 -2.019415,0 -3.744599,0.76636 -5.175649,2.351984 -1.430954,1.664881 -2.086322,3.778994 -2.086322,6.527385 z"
       fill="#0174c3"
       id="path1"
       style="stroke-width:2.56926" />
    <path
       d="M 61.698794,85.221633 V 80.39875 h 4.868018 v 4.809648 h -4.868018 z m 0.05826,29.703587 V 90.150188 h 4.814513 v 24.775032 z"
       fill="#0174c3"
       id="path2"
       style="stroke-width:2.56926" />
    <path
       d="m 73.882289,119.39137 c 2.086418,1.10992 4.400065,1.63841 6.887628,1.63841 2.380455,0 4.279653,-0.58147 5.764112,-1.70444 1.430856,-1.10992 2.193137,-2.88066 2.193137,-5.28549 v -1.8234 l 0.05826,-1.58549 h -0.120411 c -1.551268,2.57645 -4.038831,3.87136 -7.422294,3.87136 -3.383753,0 -6.125346,-1.17595 -8.144858,-3.58078 -2.019415,-2.40483 -3.035823,-5.40418 -3.035823,-9.10398 0,-3.633652 0.949696,-6.63308 2.915606,-8.919002 1.965716,-2.285903 4.640596,-3.461876 8.02435,-3.461876 1.123224,0 2.139632,0.118858 3.089231,0.356767 0.949697,0.237813 1.725282,0.528548 2.260238,0.938141 0.535054,0.356767 1.016408,0.76636 1.431051,1.109921 0.414642,0.343561 0.655465,0.647502 0.775876,0.938141 l 0.240823,0.356767 h 0.120411 c -0.04855,-0.23791 -0.04855,-0.475722 -0.04855,-0.76636 v -2.285894 h 4.573788 v 23.718065 c 0,1.94236 -0.361234,3.69973 -1.069817,5.16626 -0.708873,1.53283 -1.658472,2.69568 -2.915606,3.52812 -1.24383,0.88512 -2.554372,1.53256 -3.985422,1.94236 -1.430856,0.40959 -3.03592,0.6475 -4.640596,0.6475 -3.03592,0 -5.884718,-0.70033 -8.559307,-2.06132 z m 8.251675,-8.86627 c 1.966007,0 3.57078,-0.6474 4.747704,-1.99503 1.24383,-1.34783 1.845498,-3.52808 1.845498,-6.51431 0,-5.523165 -2.380358,-8.337616 -7.074653,-8.337616 -2.13973,0 -3.798202,0.700328 -5.055336,2.166997 -1.190325,1.466688 -1.77869,3.461895 -1.77869,5.985659 0,2.57658 0.655465,4.69062 1.966007,6.27637 1.310542,1.58549 3.089329,2.41793 5.34947,2.41793 z"
       fill="#0174c3"
       id="path3"
       style="stroke-width:2.56926" />
    <path
       d="M 97.406884,85.221633 V 80.39875 h 4.868016 v 4.809648 h -4.868016 z m 0.05826,29.703587 V 90.150188 h 4.814516 v 24.775032 z"
       fill="#0174c3"
       id="path4"
       style="stroke-width:2.56926" />
    <path
       d="m 105.77887,102.5311 c 0,-3.699738 1.24374,-6.75202 3.79811,-9.222901 2.50096,-2.470909 5.7107,-3.699736 9.62932,-3.699736 1.84559,0 3.57078,0.290638 5.10874,0.885315 1.55136,0.581373 2.67488,1.228817 3.33005,1.823426 l 0.9497,0.885315 -2.26024,3.342998 c -0.17382,-0.17178 -0.48164,-0.475722 -0.89629,-0.76636 -0.36123,-0.356767 -1.19013,-0.76636 -2.38045,-1.294908 -1.19033,-0.528547 -2.43406,-0.76636 -3.67789,-0.76636 -2.50086,0 -4.57379,0.819186 -6.24556,2.47091 -1.65828,1.638439 -2.50097,3.752581 -2.50097,6.276311 0,2.52377 0.82929,4.63783 2.50097,6.34254 1.65837,1.70445 3.7981,2.52353 6.35267,2.52353 1.36405,0 2.72829,-0.29054 3.98552,-0.81909 1.31054,-0.52855 2.19304,-1.10992 2.7951,-1.63842 l 0.89628,-0.81938 1.8992,3.46183 c -0.12041,0.11895 -0.24082,0.23791 -0.41464,0.40979 -0.17382,0.17158 -0.58846,0.47552 -1.19032,0.93804 -0.65547,0.47582 -1.31055,0.88541 -2.01942,1.17595 -0.70887,0.35687 -1.65818,0.6475 -2.7951,0.93834 -1.12332,0.29054 -2.31364,0.40949 -3.57078,0.40949 -3.91861,0 -7.12816,-1.22887 -9.62912,-3.6337 -2.40735,-2.3519 -3.66449,-5.45711 -3.66449,-9.22288 z"
       fill="#0174c3"
       id="path5"
       style="stroke-width:2.56926" />
    <path
       d="m 129.78502,102.5311 c 0,-3.871518 1.19013,-6.989852 3.57078,-9.394681 2.38036,-2.404829 5.34947,-3.580831 8.97385,-3.580831 3.38346,0 6.05834,1.109921 7.95735,3.290115 1.89919,2.166997 2.84879,4.928593 2.84879,8.337647 l -0.12041,2.06126 h -18.22844 c 0.12042,2.57669 1.01641,4.63801 2.67459,6.05162 1.60507,1.41386 3.62448,2.11424 5.93813,2.11424 1.31054,0 2.55437,-0.23791 3.79811,-0.70033 1.24383,-0.47553 2.13992,-0.93804 2.72828,-1.41386 l 0.89629,-0.70014 1.96601,3.46182 c -0.24082,0.23791 -0.65547,0.58147 -1.19003,1.00433 -0.53506,0.4226 -1.60507,0.93804 -3.33035,1.58549 -1.65818,0.6474 -3.38346,1.00432 -5.17546,1.00432 -3.91871,0 -7.07504,-1.22887 -9.56231,-3.69973 -2.48756,-2.60318 -3.7447,-5.7215 -3.7447,-9.42123 z m 5.12204,-2.867297 h 13.37382 c -0.0583,-2.061287 -0.65546,-3.633675 -1.77868,-4.690751 -1.12333,-1.057037 -2.55438,-1.585595 -4.21285,-1.585595 -1.89891,0 -3.50368,0.528548 -4.81451,1.638478 -1.44416,1.109921 -2.27354,2.642661 -2.56778,4.637868 z"
       fill="#0174c3"
       id="path6"
       style="stroke-width:2.56926" />
    <path
       d="M 156.58597,114.92522 V 90.150188 h 4.64089 v 4.281139 l -0.12042,1.876281 h 0.12042 c 0.58846,-1.876281 1.60477,-3.461876 2.96901,-4.637877 1.43086,-1.228828 3.03592,-1.823427 4.93483,-1.823427 l 1.24373,0.118858 v 4.690761 c -0.41464,-0.118955 -0.89629,-0.118955 -1.36395,-0.118955 -1.55136,0 -2.96911,0.528548 -4.27965,1.585595 -1.31084,1.057066 -2.19334,2.470909 -2.7951,4.228287 -0.41464,1.29491 -0.58846,2.76159 -0.58846,4.46609 v 10.09512 z"
       fill="#0174c3"
       id="path7"
       style="stroke-width:2.56926" />
    <path
       d="M 176.55328,105.88733 V 94.325598 h -3.26324 v -3.818643 h 3.38346 v -7.161632 h 4.64089 v 7.161632 h 6.05834 v 3.818643 h -6.05834 V 105.3059 c 0,0.93804 0.12041,1.75738 0.41464,2.47086 0.24082,0.70043 0.58846,1.22888 0.94969,1.63842 0.36124,0.40979 0.82929,0.70033 1.31055,0.93834 0.53505,0.23762 0.94969,0.35657 1.36434,0.40949 0.41464,0.0534 0.82928,0.11896 1.24373,0.11896 l 1.12332,-0.11896 v 4.22824 c -0.48165,0.0534 -1.01641,0.11895 -1.65828,0.11895 -0.77587,0 -1.55156,-0.0524 -2.26014,-0.11895 -0.70887,-0.11896 -1.55156,-0.35657 -2.50096,-0.70033 -0.9497,-0.40959 -1.72519,-0.88512 -2.38065,-1.53256 -0.65547,-0.64751 -1.24374,-1.53283 -1.72528,-2.69568 -0.40105,-1.24198 -0.64187,-2.65584 -0.64187,-4.1753 z"
       fill="#0174c3"
       id="path8"
       style="stroke-width:2.56926" />
  </g>
</svg>
