<?xml version="1.0"?>
<svg width="208" height="27" xmlns="http://www.w3.org/2000/svg" xmlns:svg="http://www.w3.org/2000/svg">
 <g class="layer">
  <title>Layer 1</title>
  <path d="m0,25.1l0,-24.6l8.9,0c8.5,0 12.4,6.2 12.4,12c0,6.3 -3.8,12.6 -12.4,12.6l-8.9,0zm2.8,-2.9l6.1,0c6.6,0 9.5,-4.9 9.5,-9.8c0,-4.5 -3,-9.3 -9.5,-9.3l-6.1,0l0,19.1z" fill="#4c4c4c" id="svg_14"/>
  <path d="m32.5,25.4c-4.6,0 -7.5,-3.1 -7.5,-8l0,-9.6l2.7,0l0,9.5c0,3.5 2,5.6 5.4,5.6c3.2,0 5.5,-2.5 5.5,-5.8l0,-9.3l2.7,0l0,17.3l-2.4,0l-0.2,-3l-0.4,0.5c-1.5,1.8 -3.4,2.7 -5.8,2.8z" fill="#4c4c4c" id="svg_15"/>
  <path d="m54.2,25.4c-4.5,0 -9,-2.8 -9,-8.9c0,-5.4 3.6,-8.9 9,-8.9c2.4,0 4.4,0.8 6.2,2.5l-1.7,1.7c-1.2,-1.1 -2.8,-1.7 -4.4,-1.7c-3.8,0 -6.4,2.6 -6.4,6.4c0,4.4 3.2,6.4 6.4,6.4c1.8,0 3.4,-0.6 4.6,-1.8l1.7,1.7c-1.8,1.7 -4,2.6 -6.4,2.6z" fill="#4c4c4c" id="svg_16"/>
  <polygon fill="#4c4c4c" id="svg_17" points="66.5999984741211,25.100006103515625 64,25.100006103515625 64,0.5 66.5999984741211,0.5 66.5999984741211,15.399993896484375 74,7.8000030517578125 77.5,7.8000030517578125 69.30000305175781,15.899993896484375 78.5,25 78.5,25.100006103515625 75.0999984741211,25.100006103515625 66.5999984741211,16.600006103515625 "/>
  <path d="m81.7,25.1l0,-24.6l8.9,0c8.5,0 12.4,6.2 12.4,12c0,6.3 -3.8,12.6 -12.4,12.6l-8.9,0zm2.9,-2.9l6.1,0c6.6,0 9.5,-4.9 9.5,-9.8c0,-4.5 -3,-9.3 -9.5,-9.3l-6.1,0l0,19.1z" fill="#4c4c4c" id="svg_18"/>
  <path d="m114.2,25.4c-4.6,0 -7.5,-3.1 -7.5,-8l0,-9.6l2.7,0l0,9.5c0,3.5 2,5.6 5.4,5.6c3.2,0 5.5,-2.5 5.5,-5.8l0,-9.3l2.7,0l0,17.3l-2.4,0l-0.1,-3l-0.4,0.5c-1.5,1.8 -3.5,2.7 -5.9,2.8z" fill="#4c4c4c" id="svg_19"/>
  <path d="m135.9,25.4c-4.5,0 -9,-2.8 -9,-8.9c0,-5.4 3.6,-8.9 9,-8.9c2.4,0 4.4,0.8 6.2,2.5l-1.7,1.7c-1.2,-1.1 -2.8,-1.7 -4.4,-1.7c-3.8,0 -6.4,2.6 -6.4,6.4c0,4.4 3.2,6.4 6.4,6.4c1.8,0 3.4,-0.6 4.6,-1.8l1.7,1.7l-0.1,0.1l0,0c-1.7,1.7 -3.8,2.5 -6.3,2.5z" fill="#4c4c4c" id="svg_20"/>
  <polygon fill="#4c4c4c" id="svg_21" points="148.39999389648438,25.100006103515625 145.8000030517578,25.100006103515625 145.8000030517578,0.5 148.39999389648438,0.5 148.39999389648438,15.399993896484375 155.8000030517578,7.8000030517578125 159.1999969482422,7.8000030517578125 151.10000610351562,15.899993896484375 160.1999969482422,25 160.1999969482422,25.100006103515625 156.8000030517578,25.100006103515625 148.39999389648438,16.600006103515625 "/>
  <path d="m174.1,25.5c-9.5,0 -12.8,-6.8 -12.8,-12.5c0,-3.8 1.3,-7.1 3.6,-9.5c2.3,-2.3 5.5,-3.5 9.2,-3.5c3.4,0 6.5,1.3 8.9,3.6l-1.6,1.9c-1.9,-1.8 -4.7,-2.9 -7.3,-2.9c-6.9,0 -10,5.4 -10,10.4c0,4.9 3.1,9.9 10.1,9.9c2.5,0 4.9,-0.9 6.8,-2.5l0.1,-0.1l0,-6.1l-7.7,0l0,-2.5l10.3,0l0,9.6c-2.7,2.9 -5.8,4.2 -9.6,4.2z" fill="#4c4c4c" id="svg_22"/>
  <path d="m195.9,25.4c-5.2,0 -8.9,-3.7 -8.9,-8.9c0,-5.2 3.8,-9.1 8.9,-9.1c5.3,0 9,3.7 9,9.1c-0.1,5.1 -3.8,8.9 -9,8.9zm0,-15.6c-3.7,0 -6.3,2.7 -6.3,6.6c0,3.7 2.6,6.4 6.3,6.4c3.7,0 6.3,-2.6 6.4,-6.4c-0.1,-3.8 -2.7,-6.6 -6.4,-6.6z" fill="#4c4c4c" id="svg_23"/>
  <path d="m206.4,25.7l0,0c0.2,-0.1 0.3,-0.2 0.3,-0.4c0,-0.2 -0.1,-0.3 -0.2,-0.4c-0.1,-0.1 -0.3,-0.1 -0.6,-0.1c-0.3,0 -0.5,0 -0.6,0.1l0,1.6l0.4,0l0,-0.7l0.2,0c0.2,0 0.3,0.1 0.3,0.3c0.1,0.2 0.1,0.3 0.1,0.4l0.4,0c0,-0.1 -0.1,-0.2 -0.1,-0.4c0,-0.2 -0.1,-0.3 -0.2,-0.4zm-0.5,-0.1l-0.2,0l0,-0.5c0,0 0.1,0 0.2,0c0.2,0 0.3,0.1 0.3,0.2c0.1,0.2 0,0.3 -0.3,0.3z" fill="#4c4c4c" id="svg_24"/>
  <path d="m206,24c-0.9,0 -1.7,0.7 -1.7,1.6c0,0.9 0.7,1.7 1.7,1.7c0.9,0 1.7,-0.7 1.7,-1.7c0,-0.9 -0.7,-1.6 -1.7,-1.6zm0,3c-0.7,0 -1.3,-0.6 -1.3,-1.3c0,-0.7 0.5,-1.3 1.3,-1.3c0.7,0 1.3,0.6 1.3,1.3c0,0.7 -0.6,1.3 -1.3,1.3z" fill="#4c4c4c" id="svg_25"/>
 </g>
</svg>