<svg width="604" height="112" xmlns="http://www.w3.org/2000/svg"><g fill="none"><path fill="#EC1E1E" d="M0 .5v110.4h145.2V79.3H47.3v-7.9h97.9V39.9H47.3V32h97.9V.5zm305.1 0v110.4h47.3V71.4h97.9V39.9h-97.9V32h97.9V.5z"/><path fill="#000" d="M153.1.5h10.6v4.8h-6v8.3h4.3v5.1h-4.3v8.7h6V32h-10.6zm13.1 0h4.6v27.3h6.1V32h-10.8V.5zm13.2 0H190v4.8h-6v8.3h4.3v5.1H184v8.7h6V32h-10.6zm25.4 20.7v4.3c0 1.3-.3 2.4-.8 3.4-.4.9-1 1.7-1.8 2.3-.9.7-2 1.1-3.6 1.1-1.5 0-2.7-.4-3.6-1.1-.9-.6-1.4-1.5-1.8-2.3-.5-1-.7-2.1-.8-3.4V6.9c0-1.2.3-2.4.8-3.4.4-.9.9-1.7 1.8-2.4.9-.6 2.1-1.1 3.6-1.1s2.7.4 3.6 1.1c.9.6 1.5 1.5 1.8 2.4.5 1 .7 2.1.8 3.4v4.3h-4.3V6.9c0-.9-.2-1.5-.7-2-.2-.2-.6-.3-1.1-.3-.8 0-1.2.6-1.4 1.2-.1.3-.2.7-.2 1.2v18.6c0 .9.3 1.5.7 2 .2.2.5.3.9.3 1 0 1.4-.5 1.6-1.2.1-.3.2-.7.2-1.2v-4.3h4.3zm1.4-16V.5h13.4v4.8h-4.4V32h-4.6V5.2zM229.9 32l-2.4-13.3h-1.2V32h-4.6V.5h4.6c5.5 0 7.9 3.1 7.9 9.1 0 3.1-.8 6-2.6 7.2l3 15.3h-4.7V32zm-3.6-17.6c.6 0 1.5-.1 2.2-.7.7-.6 1.2-1.8 1.2-4s-.6-3.4-1.2-4c-.7-.6-1.5-.6-2.2-.6v9.3zm23.1 11.1c0 1.3-.3 2.4-.8 3.4-.4.9-1 1.7-1.8 2.3-.9.7-2 1.1-3.6 1.1-1.5 0-2.7-.4-3.6-1.1-.9-.6-1.4-1.5-1.8-2.3-.5-1-.7-2.1-.8-3.4V6.9c0-1.2.3-2.4.8-3.4.4-.9.9-1.7 1.8-2.4.9-.6 2.1-1.1 3.6-1.1s2.7.4 3.6 1.1c.9.6 1.5 1.5 1.8 2.4.5 1 .7 2.1.8 3.4v18.6zm-4.6-18.6c0-.9-.2-1.5-.6-2-.2-.2-.6-.3-.9-.3-.8 0-1.2.6-1.4 1.2-.1.3-.2.7-.2 1.2v18.6c0 .9.2 1.5.6 2 .2.2.5.3.9.3.8 0 1.2-.5 1.4-1.2.1-.3.2-.7.2-1.2V6.9zm12.9 8.7l-.4-1.5h-.3V32h-4.3V.5h4.1l4.5 16.4.4 1.5h.3V.5h4.3V32h-4.1zM269.9.5h4.6V32h-4.6zm20.4 20.7v4.3c0 1.3-.3 2.4-.8 3.4-.4.9-1 1.7-1.8 2.3-.9.7-2 1.1-3.6 1.1-1.5 0-2.7-.4-3.6-1.1-.9-.6-1.4-1.5-1.8-2.3-.5-1-.7-2.1-.8-3.4V6.9c0-1.2.3-2.4.8-3.4.4-.9.9-1.7 1.8-2.4.9-.6 2.1-1.1 3.6-1.1s2.7.4 3.6 1.1c.9.6 1.5 1.5 1.8 2.4.5 1 .7 2.1.8 3.4v4.3H286V6.9c0-.9-.2-1.5-.7-2-.2-.2-.6-.3-1.1-.3-.8 0-1.2.6-1.4 1.2-.1.3-.2.7-.2 1.2v18.6c0 .9.3 1.5.7 2 .2.2.5.3.9.3 1 0 1.4-.5 1.6-1.2.1-.3.2-.7.2-1.2v-4.3h4.3zM163.7 44.7h-6V53h4.3v4.8h-4.3v13.7h-4.6V39.9h10.6zm10.8 26.8l-2.4-13.3h-1.2v13.3h-4.6V39.9h4.6c5.5 0 7.9 3.1 7.9 9.1 0 3.1-.8 6-2.6 7.2l3 15.3h-4.7zm-3.6-17.7c.6 0 1.5-.1 2.2-.7.7-.6 1.2-1.8 1.2-4s-.6-3.4-1.2-4c-.7-.6-1.5-.6-2.2-.6v9.3zM194 65c0 1.3-.3 2.4-.8 3.4-.4.9-1 1.7-1.8 2.3-.9.7-2 1.1-3.6 1.1-1.5 0-2.7-.4-3.6-1.1-.9-.6-1.4-1.5-1.8-2.3-.5-1-.7-2.1-.8-3.4V46.4c0-1.2.3-2.4.8-3.4.4-.9.9-1.7 1.8-2.4.9-.6 2.1-1.1 3.6-1.1s2.7.4 3.6 1.1c.9.6 1.5 1.5 1.8 2.4.5 1 .7 2.1.8 3.4V65zm-4.6-18.6c0-.9-.2-1.5-.6-2-.2-.2-.6-.3-.9-.3-.8 0-1.2.6-1.4 1.2-.1.3-.2.7-.2 1.2V65c0 .9.2 1.5.6 2 .2.2.5.3.9.3.8 0 1.2-.5 1.4-1.2.1-.3.2-.7.2-1.2V46.4zm12.9 8.6l-.4-1.5h-.3v17.9h-4.3V39.9h4.1l4.5 16.4.4 1.5h.3V39.9h4.3v31.6h-4.1zm10.6-10.3v-4.8h13.4v4.8h-4.4v26.8h-4.6V44.7zm15.4-4.8h4.6v31.6h-4.6zm8.3 0h10.6v4.8h-6V53h4.3v5h-4.3v8.7h6v4.8h-10.6zm21.7 31.6l-2.4-13.3h-1.2v13.3H250V39.9h4.6c5.5 0 7.9 3.1 7.9 9.1 0 3.1-.8 6-2.6 7.2l3 15.3h-4.6zm-3.6-17.7c.6 0 1.5-.1 2.2-.7.7-.6 1.2-1.8 1.2-4s-.6-3.4-1.2-4c-.7-.6-1.5-.6-2.2-.6v9.3zm-91 30.3h-6v8.3h4.3v4.8h-4.3v13.7h-4.6V79.3h10.6zm14.6 20.3c0 1.3-.3 2.4-.8 3.4-.4.9-1 1.7-1.8 2.3-.9.7-2 1.1-3.6 1.1-1.5 0-2.7-.4-3.6-1.1-.9-.6-1.4-1.5-1.8-2.3-.5-1-.7-2.1-.8-3.4V85.8c0-1.2.3-2.4.8-3.4.4-.9.9-1.7 1.8-2.4.9-.6 2.1-1.1 3.6-1.1s2.7.4 3.6 1.1c.9.6 1.5 1.5 1.8 2.4.5 1 .7 2.1.8 3.4v18.6zm-4.6-18.6c0-.9-.2-1.5-.6-2-.2-.2-.6-.3-.9-.3-.8 0-1.2.6-1.4 1.2-.1.3-.2.7-.2 1.2v18.6c0 .9.2 1.5.6 2 .2.2.5.3.9.3.8 0 1.2-.5 1.4-1.2.1-.3.2-.7.2-1.2V85.8zm20.3-6.5v25.1c0 1.3-.3 2.4-.8 3.4-.4.9-1 1.7-1.8 2.3-.9.7-2 1.1-3.6 1.1-1.5 0-2.7-.4-3.6-1.1-.9-.6-1.4-1.5-1.8-2.3-.5-1-.7-2.1-.8-3.4V79.3h4.6v25.1c0 .9.2 1.5.6 2 .2.2.5.3.9.3.8 0 1.2-.5 1.4-1.2.1-.3.2-.7.2-1.2v-25h4.7zm8.5 15.1l-.4-1.5h-.3v17.9h-4.3V79.3h4.1l4.5 16.4.4 1.5h.3V79.3h4.3v31.6H207zm12.3 16.5V79.3h3.7c4.3 0 6.6.9 7.9 3.3 1.2 2.4 1.4 6.4 1.4 12.5 0 6.2-.2 10.1-1.4 12.5-1.2 2.4-3.6 3.3-7.9 3.3h-3.7zm4.6-4.7c1.6 0 2.5-.2 3-1.7.2-.7.4-1.8.4-3.4V88.9c0-1.5-.2-2.6-.4-3.4-.5-1.5-1.4-1.7-3-1.7v22.4zm9.9 4.7l4.8-31.6h5.7l4.8 31.6H240l-.9-6.4h-4.5l-.9 6.4h-4.4zm7.9-21.3l-.1-.8h-.3l-.1.8-1.3 10h3.2l-1.4-10zm6.7-5.5v-4.8h13.4v4.8h-4.4v26.8h-4.6V84.1zm16.1-4.8h4.6v31.6H260zm20.3 25.1c0 1.3-.3 2.4-.8 3.4-.4.9-1 1.7-1.8 2.3-.9.7-2 1.1-3.6 1.1-1.5 0-2.7-.4-3.6-1.1-.9-.6-1.4-1.5-1.8-2.3-.5-1-.7-2.1-.8-3.4V85.8c0-1.2.3-2.4.8-3.4.4-.9.9-1.7 1.8-2.4.9-.6 2.1-1.1 3.6-1.1s2.7.4 3.6 1.1c.9.6 1.5 1.5 1.8 2.4.5 1 .7 2.1.8 3.4v18.6zm-4.6-18.6c0-.9-.2-1.5-.6-2-.2-.2-.6-.3-.9-.3-.8 0-1.2.6-1.4 1.2-.1.3-.2.7-.2 1.2v18.6c0 .9.2 1.5.6 2 .2.2.5.3.9.3.8 0 1.2-.5 1.4-1.2.1-.3.2-.7.2-1.2V85.8zm12.9 8.6l-.4-1.5h-.3v17.9h-4.3V79.3h4.1l4.5 16.4.4 1.5h.3V79.3h4.3v31.6h-4.1z"/><path fill="#EC1E1E" d="M458.2.5v110.4h47.3V71.4h97.9V39.9h-97.9V32h97.9V.5z"/></g></svg>