<?xml version="1.0" encoding="UTF-8" standalone="no"?>
<!-- Created with Inkscape (http://www.inkscape.org/) -->
<svg xmlns:dc="http://purl.org/dc/elements/1.1/" xmlns:cc="http://creativecommons.org/ns#" xmlns:rdf="http://www.w3.org/1999/02/22-rdf-syntax-ns#" xmlns:svg="http://www.w3.org/2000/svg" xmlns="http://www.w3.org/2000/svg" xmlns:sodipodi="http://sodipodi.sourceforge.net/DTD/sodipodi-0.dtd" xmlns:inkscape="http://www.inkscape.org/namespaces/inkscape" width="259.69" height="207.3" id="svg2" version="1.1" inkscape:version="0.47 r22583" sodipodi:docname="New document 1">
  <defs id="defs4">
    <inkscape:perspective sodipodi:type="inkscape:persp3d" inkscape:vp_x="0 : 526.18109 : 1" inkscape:vp_y="0 : 1000 : 0" inkscape:vp_z="744.09448 : 526.18109 : 1" inkscape:persp3d-origin="372.04724 : 350.78739 : 1" id="perspective10"/>
    <clipPath id="clipPath3020" clipPathUnits="userSpaceOnUse">
      <path id="path3022" d="m 204.75,581.59796 211.302,0 0,169.39801 -211.302,0 0,-169.39801"/>
    </clipPath>
    <clipPath id="clipPath3004" clipPathUnits="userSpaceOnUse">
      <path id="path3006" d="m 204.75,750.99597 211.51797,0 0,-169.64099 -211.51797,0 0,169.64099"/>
    </clipPath>
    <clipPath id="clipPath2996" clipPathUnits="userSpaceOnUse">
      <path id="path2998" d="m 204.75,750.99597 0,-169.39801 215.496,0 0,169.39801 -215.496,0"/>
    </clipPath>
    <clipPath id="clipPath2840" clipPathUnits="userSpaceOnUse">
      <path id="path2842" d="M 0,0 612,0 612,792 0,792 0,0"/>
    </clipPath>
    <clipPath id="clipPath2832" clipPathUnits="userSpaceOnUse">
      <path id="path2834" d="M 0,0 612,0 612,792 0,792 0,0 z"/>
    </clipPath>
    <inkscape:perspective id="perspective2824" inkscape:persp3d-origin="0.5 : 0.33333333 : 1" inkscape:vp_z="1 : 0.5 : 1" inkscape:vp_y="0 : 1000 : 0" inkscape:vp_x="0 : 0.5 : 1" sodipodi:type="inkscape:persp3d"/>
  </defs>
  <sodipodi:namedview id="base" pagecolor="#ffffff" bordercolor="#666666" borderopacity="1.0" inkscape:pageopacity="0.0" inkscape:pageshadow="2" inkscape:zoom="3.294375" inkscape:cx="134.28571" inkscape:cy="100" inkscape:document-units="px" inkscape:current-layer="layer1" showgrid="false" inkscape:window-width="1680" inkscape:window-height="1000" inkscape:window-x="-8" inkscape:window-y="-8" inkscape:window-maximized="1"/>
  <metadata id="metadata7">
    <rdf:RDF>
      <cc:Work rdf:about="">
        <dc:format>image/svg+xml</dc:format>
        <dc:type rdf:resource="http://purl.org/dc/dcmitype/StillImage"/>
        <dc:title/>
      </cc:Work>
    </rdf:RDF>
  </metadata>
  <g inkscape:label="Layer 1" inkscape:groupmode="layer" id="layer1" transform="translate(-228.798, -344.373)">
    <g id="g2992" transform="matrix(1.25, 0, 0, -1.25, -30.0536, 1281.29)">
      <g id="g2994" clip-path="url(#clipPath2996)">
        <g id="g3000">
          <g id="g3002" clip-path="url(#clipPath3004)">
            <path d="m 242.37,609.75 -14.70601,0 0,-4.43701 4.113,0 0,-16.20001 -4.113,0 0,-4.44599 14.70601,0 0,4.44599 -4.12201,0 0,16.20001 4.12201,0 0,4.43701" style="fill: rgb(39, 74, 91); fill-opacity: 1; fill-rule: nonzero; stroke: none;" id="path3008"/>
            <path d="m 266.517,610.245 c -1.90802,0 -3.672,-0.30604 -5.28302,-0.909 -1.61099,-0.60303 -2.961,-1.46704 -4.04999,-2.58301 -1.134,-1.15204 -1.998,-2.53802 -2.59199,-4.15802 -0.59401,-1.61999 -0.89101,-3.41998 -0.89101,-5.409 0,-2.13299 0.315,-4.01397 0.936,-5.643 0.62101,-1.62897 1.50299,-2.98798 2.637,-4.07697 1.134,-1.08905 2.48401,-1.91699 4.05899,-2.466 1.58401,-0.54901 3.30301,-0.81903 5.16601,-0.81903 1.25101,0 2.241,0.054 2.961,0.17999 0.72,0.12604 1.48499,0.30603 2.30399,0.54004 0.63,0.17999 1.233,0.396 1.80002,0.63898 0.57598,0.25201 1.17898,0.513 1.79998,0.79199 l 0,5.99402 -0.66598,0 c -0.306,-0.27002 -0.693,-0.58502 -1.16101,-0.95398 -0.47699,-0.36902 -0.98999,-0.711 -1.539,-1.03503 -0.64798,-0.40497 -1.35901,-0.71998 -2.124,-0.95398 -0.77398,-0.23401 -1.548,-0.35102 -2.33099,-0.35102 -0.819,0 -1.65601,0.12598 -2.49301,0.396 -0.84601,0.26098 -1.60199,0.70202 -2.29499,1.31402 -0.66601,0.612 -1.22399,1.44001 -1.67401,2.49299 -0.44101,1.05297 -0.66601,2.367 -0.66601,3.93298 0,1.50299 0.207,2.781 0.621,3.83398 0.405,1.05304 0.94501,1.89905 1.60202,2.53803 0.702,0.66601 1.45798,1.13403 2.27698,1.422 0.819,0.28802 1.68301,0.432 2.59201,0.432 0.819,0 1.58401,-0.12597 2.30401,-0.36902 0.72001,-0.24298 1.38599,-0.54901 2.00699,-0.90899 0.603,-0.35102 1.14301,-0.71997 1.62,-1.08899 0.47699,-0.36902 0.87301,-0.68402 1.18799,-0.95398 l 0.738,0 0,6.08398 c -0.45898,0.22498 -0.98999,0.46802 -1.60199,0.72901 -0.612,0.27002 -1.29599,0.50396 -2.043,0.71997 -0.72,0.18902 -1.50299,0.34204 -2.34899,0.45904 -0.85502,0.11701 -1.80002,0.18 -2.853,0.18" style="fill: rgb(39, 74, 91); fill-opacity: 1; fill-rule: nonzero; stroke: none;" id="path3010"/>
            <path d="m 301.56299,609.75 -7.44299,0 -9.26102,-25.08301 6.52502,0 1.746,5.05799 9.279,0 1.737,-5.05799 6.67801,0 -9.26102,25.08301 m -6.87601,-15.41699 3.078,8.97296 3.07801,-8.97296 -6.15601,0" style="fill: rgb(39, 74, 91); fill-opacity: 1; fill-rule: nonzero; stroke: none;" id="path3012"/>
            <path d="m 344.78998,609.75 -5.94,0 0,-14.36401 -9.15299,14.36401 -7.73999,0 0,-25.08301 5.94,0 0,17.21698 10.64698,-17.21698 6.246,0 0,25.08301" style="fill: rgb(39, 74, 91); fill-opacity: 1; fill-rule: nonzero; stroke: none;" id="path3014"/>
            <g id="g3016">
              <g id="g3018" clip-path="url(#clipPath3020)">
                <path d="m 381.53699,609.75 -5.94001,0 0,-14.36401 -9.15298,14.36401 -7.74002,0 0,-25.08301 5.94,0 0,17.21698 10.64701,-17.21698 6.246,0 0,25.08301" style="fill: rgb(39, 74, 91); fill-opacity: 1; fill-rule: nonzero; stroke: none;" id="path3024"/>
                <path d="m 312.02057,748.41986 c -3.84509,-1.2e-4 -7.7645,-0.39001 -11.70859,-1.17688 -6.552,-1.45801 -12.33899,-4.599 -18.13498,-7.79401 -19.10702,-9.35998 -31.28401,-29.00701 -29.60101,-50.27398 l 9.306,2.70001 c -1.134,14.99396 2.92502,28.31396 12.285,39.18597 5.68799,-30.195 17.97299,-57.63598 36.26099,-82.64697 1.66989,-0.10748 3.28616,-0.2149 4.88904,-0.2149 1.61941,0 3.22516,0.10968 4.85797,0.43988 -6.444,6.48901 -11.58301,13.47302 -16.78501,20.45703 7.956,3.62695 16.02002,7.362 23.22001,12.44696 -0.97199,2.42999 -1.67399,5.08502 -2.91599,7.25403 -7.578,-5.74201 -15.42599,-10.719 -23.814,-14.45404 -3.897,5.841 -7.25402,11.85302 -10.50302,17.919 l 0,0.594 c 8.92801,3.62701 17.53202,8.11804 25.542,14.013 -1.404,2.60101 -2.91599,5.31 -4.491,7.63202 -7.52399,-5.84101 -15.26398,-11.25898 -23.38199,-15.58802 l -0.81,0 c -4.923,10.44904 -8.82,21.38404 -11.69101,32.74201 2.655,2.979 5.68802,5.85003 8.76602,8.172 l 8.991,2.54699 c 22.61698,-25.38 37.34097,-54.17999 45.405,-85.34698 2.11499,2.10602 4.00498,4.38299 4.491,7.19098 -1.56601,4.39203 -2.70001,8.88299 -4.707,13.05005 -1.026,3.08697 -3.03302,5.94897 -3.681,8.98199 5.90399,4.32898 11.58297,9.03595 17.15399,14.23798 -0.108,3.89697 -1.07999,7.46099 -2.91599,10.71002 l -0.432,0 c -5.47202,-6.16504 -11.69101,-12.177 -17.91901,-17.37 -3.35699,5.46295 -6.444,11.04297 -10.116,16.39795 6.27301,4.76105 12.33899,10.50305 17.91001,16.56 -1.99802,2.60101 -4.599,5.36401 -7.57801,6.39001 -4.76101,-5.30999 -10.11599,-10.88098 -15.58801,-15.372 -6.59698,8.388 -13.74298,16.72204 -21.64499,24.354 3.2175,0.729 6.88275,1.0935 10.54236,1.0935 3.65964,0 7.31363,-0.3645 10.50864,-1.0935 18.621,-3.357 36.74701,-21.64496 39.72601,-40.32001 3.95099,-20.88898 -3.51901,-40.10394 -20.61902,-52.82098 -6.05957,-2.19776 -12.51968,-3.31177 -18.95654,-3.31177 -13.85986,0 -27.60376,5.16834 -36.95145,15.81281 6.48902,1.07995 12.663,3.03295 18.89099,5.03094 -0.927,1.56604 -2.061,3.03302 -2.763,4.70703 -17.20025,-6.90906 -35.94604,-10.88452 -55.71298,-10.88452 -2.37744,0 -4.77305,0.0576 -7.179,0.1745 6.73129,-0.86554 13.60411,-1.24133 20.51978,-1.24133 4.37432,0 8.76597,0.15039 13.14921,0.42236 4.599,-5.73303 10.44,-10.33203 16.39801,-13.63501 6.79471,-3.78168 15.23734,-5.66687 23.7385,-5.66687 10.11212,0 20.30603,2.66913 27.8945,7.98889 8.54999,3.62695 16.776,10.01697 22.56299,18.13495 10.93499,13.96802 12.609,37.01703 4.49099,52.82105 l -3.50998,6.01196 c -10.23617,15.14068 -26.08004,23.03857 -43.38943,23.0379" style="fill: rgb(39, 74, 91); fill-opacity: 1; fill-rule: nonzero; stroke: none;" id="path3026"/>
              </g>
            </g>
            <path d="m 280.98898,695.98798 c -15.048,-7.029 -31.28399,-11.30402 -48.70799,-12.66303 1.18837,-0.0182 2.37817,-0.0272 3.56723,-0.0272 5.84401,0 11.6615,0.21741 17.10577,0.62128 1.13401,-6.86701 3.46502,-13.31104 7.2,-19.09803 3.897,0.75599 7.79401,1.404 11.46601,2.53803 -3.29401,4.38299 -5.625,9.26099 -7.353,14.39996 -0.27002,1.24201 -1.19702,2.70899 -0.43201,3.89704 6.70499,1.24194 13.25699,2.763 19.47601,5.08496 l -2.32202,5.24701" style="fill: rgb(39, 74, 91); fill-opacity: 1; fill-rule: nonzero; stroke: none;" id="path3028"/>
            <path d="m 310.56845,625.62823 c -35.45987,-7.9e-4 -70.95639,-3.47943 -103.24446,-10.33422 32.38,3.52246 66.21147,5.18164 100.08092,5.18158 35.87878,-7e-5 71.79986,-1.86213 106.07309,-5.34363 -32.14753,7.03198 -67.51026,10.49707 -102.90955,10.49627" style="fill: rgb(39, 74, 91); fill-opacity: 1; fill-rule: nonzero; stroke: none;" id="path3030"/>
          </g>
        </g>
      </g>
    </g>
  </g>
</svg>