<?xml version="1.0" encoding="UTF-8"?>
<svg width="261.69" height="42.657" version="1.1" xmlns="http://www.w3.org/2000/svg" xmlns:cc="http://creativecommons.org/ns#" xmlns:dc="http://purl.org/dc/elements/1.1/" xmlns:rdf="http://www.w3.org/1999/02/22-rdf-syntax-ns#">
 <metadata>
  <rdf:RDF>
   <cc:Work rdf:about="">
    <dc:format>image/svg+xml</dc:format>
    <dc:type rdf:resource="http://purl.org/dc/dcmitype/StillImage"/>
    <dc:title/>
   </cc:Work>
  </rdf:RDF>
 </metadata>
 <g transform="translate(-76.621 -36.87)">
  <title>Layer 1</title>
  <g transform="matrix(.98906 0 0 .97806 2.6449 1.3386)">
   <g fill="#2c3c69">
    <path d="m76.621 68.879v-31.407h7.63v24.797h12.154v6.609h-19.784v9.99e-4z"/>
    <path d="m121.55 58.099v0.888c0 0.296-0.015 0.576-0.044 0.843h-16.013c0.059 0.621 0.244 1.183 0.555 1.686s0.71 0.938 1.197 1.309c0.488 0.37 1.035 0.658 1.642 0.86401 0.605 0.208 1.234 0.311 1.885 0.311 1.153 0 2.13-0.214 2.928-0.643 0.799-0.429 1.449-0.983 1.952-1.664l5.057 3.194c-1.035 1.508-2.402 2.669-4.103 3.482-1.701 0.812-3.676 1.22-5.922 1.22-1.657 0-3.224-0.26-4.702-0.77599-1.479-0.518-2.772-1.271-3.882-2.263-1.108-0.99-1.981-2.21-2.617-3.659-0.63599-1.449-0.953-3.105-0.953-4.969 0-1.803 0.31-3.438 0.931-4.901 0.621-1.463 1.464-2.706 2.529-3.726 1.064-1.021 2.32-1.812 3.771-2.374 1.448-0.561 3.016-0.843 4.701-0.843 1.626 0 3.12 0.274 4.48 0.821s2.528 1.338 3.505 2.373c0.976 1.035 1.736 2.292 2.284 3.771 0.546 1.478 0.819 3.165 0.819 5.056zm-6.698-2.795c0-1.153-0.362-2.144-1.087-2.972-0.725-0.827-1.812-1.242-3.26-1.242-0.71 0-1.36 0.111-1.952 0.333-0.59199 0.222-1.108 0.525-1.553 0.909-0.443 0.385-0.798 0.836-1.064 1.354-0.266 0.518-0.414 1.058-0.443 1.618h9.359z"/>
    <path d="m133.17 52.2v8.461c0 1.039 0.2 1.817 0.60001 2.338 0.39799 0.52 1.115 0.778 2.151 0.778 0.35399 0 0.73098-0.028 1.131-0.089 0.39901-0.05901 0.73101-0.147 0.998-0.26601l0.089 5.323c-0.50299 0.17699-1.139 0.332-1.907 0.466-0.76999 0.133-1.538 0.199-2.307 0.199-1.479 0-2.722-0.186-3.727-0.55601-1.006-0.36999-1.812-0.904-2.417-1.602-0.60701-0.696-1.043-1.526-1.309-2.49-0.267-0.963-0.399-2.038-0.399-3.224v-9.338h-3.549v-5.412h3.504v-5.811h7.142v5.811h5.19v5.412h-5.19z"/>
    <path d="m161.91 53.308c-0.59201-0.561-1.286-1.034-2.085-1.419-0.79801-0.384-1.641-0.577-2.528-0.577-0.681 0-1.309 0.134-1.885 0.399-0.57699 0.267-0.865 0.726-0.865 1.375 0 0.621 0.317 1.064 0.953 1.331s1.664 0.562 3.083 0.887c0.82801 0.178 1.664 0.43 2.507 0.755 0.843 0.325 1.604 0.754 2.284 1.286 0.68001 0.532 1.227 1.183 1.642 1.952 0.41299 0.769 0.62098 1.686 0.62098 2.75 0 1.391-0.28099 2.565-0.84298 3.526-0.56201 0.961-1.294 1.737-2.196 2.329-0.902 0.592-1.915 1.02-3.038 1.286-1.124 0.267-2.248 0.39899-3.371 0.39899-1.805 0-3.571-0.28799-5.302-0.865-1.729-0.576-3.171-1.427-4.324-2.551l4.081-4.303c0.649 0.71001 1.448 1.302 2.395 1.774 0.946 0.474 1.952 0.71 3.017 0.71 0.592 0 1.176-0.141 1.752-0.422 0.577-0.28 0.86501-0.776 0.86501-1.485 0-0.681-0.35401-1.183-1.064-1.509-0.71-0.325-1.818-0.66499-3.327-1.021-0.769-0.177-1.538-0.413-2.307-0.709-0.77001-0.296-1.457-0.694-2.062-1.198-0.60598-0.50201-1.102-1.123-1.486-1.863-0.384-0.738-0.576-1.626-0.576-2.661 0-1.331 0.28-2.462 0.843-3.394 0.562-0.932 1.286-1.692 2.174-2.284 0.88701-0.592 1.87-1.027 2.949-1.309 1.079-0.282 2.151-0.422 3.217-0.422 1.655 0 3.274 0.26 4.856 0.776 1.582 0.518 2.921 1.294 4.015 2.329l-3.995 4.128z"/>
    <path d="m179.57 68.879v-31.407h21.114v6.388h-13.795v5.944h13.041v6.077h-13.041v6.521h14.594v6.477z"/>
    <path d="m220.68 68.879v-12.066c0-0.621-0.053-1.212-0.155-1.774-0.104-0.562-0.274-1.057-0.511-1.486-0.237-0.428-0.569-0.769-0.998-1.021-0.429-0.25-0.96899-0.377-1.619-0.377s-1.22 0.127-1.708 0.377c-0.487 0.252-0.89501 0.6-1.22 1.043-0.32499 0.443-0.569 0.954-0.731 1.53-0.16299 0.577-0.244 1.176-0.244 1.797v11.977h-7.319v-22.091h7.053v3.061h0.089c0.26699-0.473 0.613-0.938 1.043-1.396 0.428-0.459 0.932-0.851 1.508-1.176 0.57699-0.325 1.205-0.592 1.886-0.799 0.68001-0.206 1.404-0.311 2.173-0.311 1.479 0 2.735 0.267 3.771 0.799 1.036 0.532 1.87 1.22 2.507 2.062 0.636 0.843 1.094 1.812 1.375 2.905 0.28 1.095 0.421 2.189 0.421 3.283v13.662h-7.321v9.99e-4z"/>
    <path d="m246.71 53.929c-0.41501-0.532-0.977-0.96-1.686-1.286-0.70999-0.325-1.436-0.488-2.174-0.488-0.77 0-1.464 0.155-2.085 0.466-0.62101 0.311-1.153 0.726-1.597 1.242-0.44299 0.518-0.79199 1.117-1.043 1.797-0.251 0.681-0.377 1.404-0.377 2.174 0 0.769 0.11799 1.493 0.35499 2.173 0.23601 0.681 0.58301 1.28 1.042 1.797 0.45799 0.518 1.005 0.925 1.642 1.22 0.636 0.296 1.353 0.443 2.151 0.443 0.73801 0 1.471-0.14 2.195-0.421 0.72401-0.28101 1.309-0.688 1.752-1.22l4.037 4.924c-0.91703 0.887-2.101 1.582-3.549 2.085-1.449 0.502-2.987 0.754-4.613 0.754-1.745 0-3.374-0.267-4.887-0.799-1.512-0.532-2.826-1.309-3.941-2.329-1.116-1.02-1.993-2.254-2.633-3.703s-0.959-3.09-0.959-4.924c0-1.804 0.31898-3.431 0.959-4.88 0.64-1.448 1.517-2.684 2.633-3.704 1.115-1.021 2.43-1.804 3.941-2.351 1.513-0.547 3.127-0.821 4.843-0.821 0.798 0 1.589 0.074 2.373 0.223 0.783 0.147 1.537 0.348 2.262 0.599 0.72501 0.251 1.39 0.562 1.996 0.932 0.60599 0.37 1.132 0.776 1.575 1.22l-4.212 4.877z"/>
    <path d="m268.03 52.776c-0.32599-0.089-0.64401-0.147-0.95401-0.177-0.30999-0.03-0.61398-0.045-0.90899-0.045-0.97599 0-1.797 0.178-2.462 0.531-0.66498 0.354-1.197 0.781-1.597 1.283-0.39902 0.501-0.68802 1.047-0.86503 1.637-0.177 0.59-0.26599 1.105-0.26599 1.548v11.325h-7.275v-22.064h7.009v3.194h0.089c0.56201-1.132 1.359-2.055 2.396-2.77 1.034-0.715 2.232-1.072 3.593-1.072 0.29498 0 0.58398 0.016 0.86499 0.045 0.27999 0.029 0.51001 0.074 0.68801 0.133z"/>
    <path d="m285.12 72.206c-0.44299 1.153-0.939 2.181-1.486 3.083-0.547 0.901-1.197 1.67-1.951 2.307-0.754 0.636-1.642 1.115-2.662 1.441-1.02 0.325-2.226 0.488-3.615 0.488-0.681 0-1.383-0.045-2.106-0.134-0.72598-0.089-1.354-0.207-1.886-0.354l0.79898-6.121c0.354 0.117 0.746 0.214 1.176 0.288 0.42798 0.073 0.81998 0.11 1.175 0.11 1.124 0 1.937-0.259 2.44-0.776 0.50199-0.518 0.931-1.249 1.286-2.195l0.70999-1.818-9.227-21.736h8.073l4.924 14.195h0.133l4.392-14.195h7.718z"/>
    <path d="m321.5 57.745c0 1.538-0.237 3.017-0.70999 4.436-0.474 1.42-1.161 2.669-2.062 3.748-0.90201 1.08-2.004 1.945-3.305 2.596-1.302 0.649-2.78 0.976-4.437 0.976-1.36 0-2.646-0.273-3.859-0.82-1.213-0.547-2.158-1.294-2.839-2.24h-0.088v13.086h-7.275v-32.739h6.92v2.706h0.133c0.681-0.887 1.619-1.663 2.817-2.329 1.197-0.665 2.609-0.998 4.236-0.998 1.597 0 3.045 0.311 4.347 0.932 1.301 0.621 2.402 1.464 3.305 2.528 0.90298 1.064 1.597 2.3 2.085 3.704 0.488 1.405 0.73199 2.877 0.73199 4.414zm-7.053 0c0-0.71-0.11001-1.404-0.332-2.085-0.22201-0.68-0.548-1.279-0.97699-1.797-0.42901-0.517-0.96902-0.938-1.619-1.264-0.64999-0.326-1.404-0.488-2.262-0.488-0.828 0-1.568 0.163-2.218 0.488-0.651 0.325-1.206 0.754-1.664 1.286-0.45901 0.532-0.81302 1.139-1.064 1.818-0.25199 0.681-0.37699 1.375-0.37699 2.085s0.125 1.405 0.37699 2.085c0.251 0.681 0.60501 1.286 1.064 1.818 0.45798 0.532 1.013 0.962 1.664 1.287 0.64899 0.325 1.39 0.487 2.218 0.487 0.85699 0 1.611-0.162 2.262-0.487s1.19-0.755 1.619-1.287c0.42902-0.532 0.75498-1.146 0.97699-1.841 0.22101-0.693 0.332-1.395 0.332-2.105z"/>
    <path d="m333.12 52.2v8.461c0 1.039 0.20001 1.817 0.60001 2.338 0.39798 0.52 1.115 0.778 2.151 0.778 0.354 0 0.73099-0.028 1.131-0.089 0.39902-0.05901 0.73102-0.147 0.99802-0.26601l0.089 5.323c-0.50299 0.17699-1.139 0.332-1.907 0.466-0.77002 0.133-1.538 0.199-2.307 0.199-1.479 0-2.722-0.186-3.727-0.55601-1.006-0.37-1.812-0.904-2.417-1.602-0.60699-0.696-1.043-1.526-1.309-2.49-0.26701-0.96299-0.39903-2.038-0.39903-3.224v-9.338h-3.549v-5.412h3.504v-5.811h7.142v5.811h5.19v5.412h-5.19z"/>
   </g>
   <path d="m145.01 36.87c-2.183 0-3.892 1.573-3.892 3.582 0 2.116 1.439 3.537 3.582 3.537 0.183 0 0.35599-0.017 0.51899-0.05-0.343 1.566-1.852 2.69-3.278 2.915l-0.29001 0.046v3.377l0.376-0.036c1.73-0.165 3.439-0.951 4.691-2.157 1.632-1.573 2.495-3.844 2.495-6.568 0-2.692-1.768-4.646-4.203-4.646z" fill="#2c3c69"/>
  </g>
 </g>
</svg>
