<?xml version="1.0" encoding="UTF-8" standalone="no"?>
<!-- Generator: Adobe Illustrator 16.0.3, SVG Export Plug-In . SVG Version: 6.00 Build 0)  -->

<svg
   version="1.1"
   id="Capa_1"
   x="0px"
   y="0px"
   width="1000"
   height="239.22327"
   viewBox="-179.044 -17.834 1000 239.22326"
   enable-background="new -179.044 -17.834 819.485 196.481"
   xml:space="preserve"
   sodipodi:docname="Mozilla2024.svg"
   inkscape:version="1.3.2 (091e20e, 2023-11-25, custom)"
   xmlns:inkscape="http://www.inkscape.org/namespaces/inkscape"
   xmlns:sodipodi="http://sodipodi.sourceforge.net/DTD/sodipodi-0.dtd"
   xmlns="http://www.w3.org/2000/svg"
   xmlns:svg="http://www.w3.org/2000/svg"><defs
   id="defs1" /><sodipodi:namedview
   id="namedview1"
   pagecolor="#505050"
   bordercolor="#eeeeee"
   borderopacity="1"
   inkscape:showpageshadow="0"
   inkscape:pageopacity="0"
   inkscape:pagecheckerboard="0"
   inkscape:deskcolor="#d1d1d1"
   inkscape:zoom="1.2361422"
   inkscape:cx="592.56935"
   inkscape:cy="81.301324"
   inkscape:window-width="1920"
   inkscape:window-height="991"
   inkscape:window-x="-9"
   inkscape:window-y="-9"
   inkscape:window-maximized="1"
   inkscape:current-layer="Capa_1" />

<path
   d="m -123.53363,71.8366 19.01179,93.53395 h 6.811716 L -78.698331,71.8366 h 55.51037 V 219.15258 H -53.48483 V 97.6601 h -6.811712 L -86.730051,219.15258 H -115.40024 L -141.83375,97.6601 h -6.81171 V 219.15258 H -179.044 V 71.8366 Z M 50.4192,103.04847 c 34.97356,0 55.30703,20.94348 55.30703,59.1704 0,38.22692 -20.2318,59.17039 -55.30703,59.17039 -35.075237,0 -55.307039,-20.94347 -55.307039,-59.17039 0.101667,-38.32859 20.333469,-59.1704 55.307039,-59.1704 z m 0,94.75397 c 15.75843,0 23.28182,-8.54006 23.28182,-27.34852 v -16.67344 c 0,-18.80846 -7.42172,-27.34852 -23.28182,-27.34852 -15.860109,0 -23.281825,8.54006 -23.281825,27.34852 v 16.67344 c 0.101667,18.80846 7.523383,27.34852 23.281825,27.34852 z m 67.71045,-0.61001 57.84872,-70.0488 h -57.03538 v -21.96014 h 93.12728 v 21.96014 l -57.84871,70.0488 h 58.66205 v 21.96015 H 118.12965 Z M 228.74372,105.18349 H 271.444 V 219.15258 H 241.14713 V 127.14363 H 228.74372 Z M 241.14713,71.8366 H 271.444 v 21.96014 h -30.29687 z m 50.32534,0 h 42.70028 V 219.15258 H 303.87589 V 93.79674 h -12.40342 z m 62.83042,0 h 42.70028 V 219.15258 H 366.70631 V 93.79674 h -12.40342 z m 107.76738,31.21187 c 16.87678,0 27.95852,8.33672 31.21188,22.87516 h 6.81171 v -20.74014 h 36.09191 v 21.96014 h -12.40342 v 70.0488 h 12.40342 v 21.96015 h -17.28345 c -12.20008,0 -18.80846,-6.60838 -18.80846,-18.80846 v -1.93168 h -6.81171 c -3.25336,14.53843 -14.3351,22.87515 -31.21188,22.87515 -26.63684,0 -45.4453,-22.67181 -45.4453,-59.17039 0,-36.49858 18.80846,-59.06873 45.4453,-59.06873 z m 8.94673,94.75397 c 15.35177,0 22.36682,-8.54006 22.36682,-27.34852 v -16.67344 c 0,-18.80846 -7.01505,-27.34852 -22.36682,-27.34852 -15.35177,0 -22.36682,8.54006 -22.36682,27.34852 v 16.67344 c 0,18.80846 7.01505,27.34852 22.36682,27.34852 z m 177.91785,21.35014 H 618.63798 V -17.834 h 30.29687 z M 673.64002,103.04847 H 793.60748 V 96.23676 L 715.4253,67.87157 V 43.87808 L 793.60748,15.51289 V 8.59951 H 700.98853 V -17.834 H 820.956 v 48.29199 l -63.64376,21.96015 v 6.81171 L 820.956,81.18999 v 48.29199 H 673.64002 Z m 0,-94.44896 h 27.34851 v 27.34852 h -27.34851 z"
   id="path1-9"
   style="stroke-width:1.01667" /></svg>
