<?xml version="1.0" encoding="UTF-8" standalone="no"?>
<!-- Created with Inkscape (http://www.inkscape.org/) -->

<svg
   xmlns:dc="http://purl.org/dc/elements/1.1/"
   xmlns:cc="http://creativecommons.org/ns#"
   xmlns:rdf="http://www.w3.org/1999/02/22-rdf-syntax-ns#"
   xmlns:svg="http://www.w3.org/2000/svg"
   xmlns="http://www.w3.org/2000/svg"
   xmlns:sodipodi="http://sodipodi.sourceforge.net/DTD/sodipodi-0.dtd"
   xmlns:inkscape="http://www.inkscape.org/namespaces/inkscape"
   version="1.1"
   id="svg31869"
   xml:space="preserve"
   width="1000"
   height="427.15536"
   viewBox="0 0 1000 427.15536"
   sodipodi:docname="Norton logo 2007.svg"
   inkscape:version="0.92.2 (5c3e80d, 2017-08-06)"><metadata
     id="metadata31875"><rdf:RDF><cc:Work
         rdf:about=""><dc:format>image/svg+xml</dc:format><dc:type
           rdf:resource="http://purl.org/dc/dcmitype/StillImage" /><dc:title></dc:title></cc:Work></rdf:RDF></metadata><defs
     id="defs31873"><clipPath
       clipPathUnits="userSpaceOnUse"
       id="clipPath31887"><path
         d="M 18,688.5 H 594 V 774 H 18 Z"
         id="path31885"
         inkscape:connector-curvature="0" /></clipPath><clipPath
       clipPathUnits="userSpaceOnUse"
       id="clipPath31899"><path
         d="M 0,0 H 612 V 792 H 0 Z"
         id="path31897"
         inkscape:connector-curvature="0" /></clipPath><clipPath
       clipPathUnits="userSpaceOnUse"
       id="clipPath31917"><path
         d="M 478.548,722.768 H 594 v 36.013 H 478.548 Z"
         id="path31915"
         inkscape:connector-curvature="0" /></clipPath><clipPath
       clipPathUnits="userSpaceOnUse"
       id="clipPath32005"><path
         d="M 0,0 H 612 V 792 H 0 Z"
         id="path32003"
         inkscape:connector-curvature="0" /></clipPath><clipPath
       clipPathUnits="userSpaceOnUse"
       id="clipPath33137"><path
         d="M 0,0 H 612 V 792 H 0 Z"
         id="path33135"
         inkscape:connector-curvature="0" /></clipPath></defs><sodipodi:namedview
     pagecolor="#ffffff"
     bordercolor="#666666"
     borderopacity="1"
     objecttolerance="10"
     gridtolerance="10"
     guidetolerance="10"
     inkscape:pageopacity="0"
     inkscape:pageshadow="2"
     inkscape:window-width="1366"
     inkscape:window-height="705"
     id="namedview31871"
     showgrid="false"
     fit-margin-top="0"
     fit-margin-left="0"
     fit-margin-right="0"
     fit-margin-bottom="0"
     inkscape:zoom="0.50757576"
     inkscape:cx="558.89921"
     inkscape:cy="257.54586"
     inkscape:window-x="-8"
     inkscape:window-y="-8"
     inkscape:window-maximized="1"
     inkscape:current-layer="g31877" /><g
     id="g31877"
     inkscape:groupmode="layer"
     inkscape:label="0900766b810812f7"
     transform="matrix(1.3333333,0,0,-1.3333333,150.89921,701.57212)"><g
       id="g31911"
       transform="matrix(11.95625,0,0,11.95625,-6219.8291,-8512.7447)"
       style="stroke-width:0.08363827"><g
         id="g31913"
         clip-path="url(#clipPath31917)"
         style="stroke-width:0.08363827"><g
           id="g31919"
           transform="translate(510.75,736.0482)"
           style="stroke-width:0.08363827"><path
             d="m 0,0 v 0.565 h 0.761 v 0.64 c 0,1.011 0.434,1.684 1.455,1.684 0.305,0 0.543,-0.033 0.706,-0.065 L 2.857,2.194 C 2.716,2.216 2.498,2.248 2.271,2.248 1.727,2.248 1.543,1.901 1.543,1.205 V 0.565 H 2.716 V 0 H 1.543 V -4.866 H 0.761 V 0 Z"
             style="fill:#7a7a7a;fill-opacity:1;fill-rule:nonzero;stroke:none;stroke-width:0.08363827"
             id="path31921"
             inkscape:connector-curvature="0" /></g><g
           id="g31923"
           transform="translate(514.3781,736.613)"
           style="stroke-width:0.08363827"><path
             d="m 0,0 h 0.413 l 0.26,-1.163 c 0.391,0.772 1.032,1.217 1.825,1.217 h 0.119 v -0.749 c 0,0 -0.076,0.011 -0.119,0.011 -0.88,0 -1.716,-0.5 -1.716,-1.76 V -5.431 H 0 Z"
             style="fill:#7a7a7a;fill-opacity:1;fill-rule:nonzero;stroke:none;stroke-width:0.08363827"
             id="path31925"
             inkscape:connector-curvature="0" /></g><g
           id="g31927"
           transform="translate(521.199,734.0062)"
           style="stroke-width:0.08363827"><path
             d="m 0,0 c 0,1.347 -0.467,2.096 -1.433,2.096 -0.967,0 -1.412,-0.847 -1.412,-2.227 0,-1.347 0.434,-2.172 1.422,-2.172 C -0.315,-2.303 0,-1.358 0,0 m -3.682,-0.142 c 0,1.717 0.902,2.847 2.259,2.847 1.358,0 2.26,-1.076 2.26,-2.738 0,-1.792 -0.859,-2.878 -2.26,-2.878 -1.379,0 -2.259,1.054 -2.259,2.769"
             style="fill:#7a7a7a;fill-opacity:1;fill-rule:nonzero;stroke:none;stroke-width:0.08363827"
             id="path31929"
             inkscape:connector-curvature="0" /></g><g
           id="g31931"
           transform="translate(528.7699,736.7109)"
           style="stroke-width:0.08363827"><path
             d="M 0,0 C 1.075,0 1.347,-0.902 1.347,-1.782 V -5.529 H 0.565 v 3.737 c 0,0.575 -0.087,1.119 -0.804,1.119 -0.489,0 -0.999,-0.305 -1.509,-0.826 v -4.03 h -0.783 v 3.737 c 0,0.575 -0.087,1.119 -0.804,1.119 -0.499,0 -1.02,-0.348 -1.509,-0.837 v -4.019 h -0.782 v 5.431 h 0.445 l 0.228,-0.89 C -4.453,-0.456 -3.834,0 -3.096,0 -2.39,0 -2.085,-0.391 -1.868,-0.956 -1.358,-0.403 -0.706,0 0,0"
             style="fill:#7a7a7a;fill-opacity:1;fill-rule:nonzero;stroke:none;stroke-width:0.08363827"
             id="path31933"
             inkscape:connector-curvature="0" /></g><g
           id="g31935"
           transform="translate(533.2341,731.7146)"
           style="stroke-width:0.08363827"><path
             d="M 0,0 0.326,0.51 C 0.684,0.26 1.163,0 1.846,0 c 0.696,0 1.13,0.304 1.13,0.858 0,0.597 -0.445,0.803 -1.228,1.107 -0.836,0.327 -1.509,0.685 -1.509,1.641 0,0.793 0.565,1.39 1.716,1.39 0.771,0 1.173,-0.174 1.575,-0.391 L 3.269,4.04 C 2.998,4.192 2.607,4.388 1.977,4.388 1.227,4.388 0.956,4.084 0.956,3.606 0.956,3.117 1.27,2.9 2.075,2.606 2.987,2.27 3.725,1.9 3.725,0.912 3.725,0 3.052,-0.62 1.836,-0.62 0.977,-0.62 0.336,-0.283 0,0"
             style="fill:#7a7a7a;fill-opacity:1;fill-rule:nonzero;stroke:none;stroke-width:0.08363827"
             id="path31937"
             inkscape:connector-curvature="0" /></g><g
           id="g31939"
           transform="translate(537.4271,736.613)"
           style="stroke-width:0.08363827"><path
             d="M 0,0 H 0.803 L 2.248,-4.682 3.628,0 H 4.41 L 2.53,-5.931 C 2.227,-6.898 1.716,-7.408 0.749,-7.408 c -0.195,0 -0.423,0.043 -0.586,0.098 l 0.098,0.586 c 0.119,-0.021 0.26,-0.054 0.434,-0.054 0.652,0 1.032,0.391 1.216,1.021 z"
             style="fill:#7a7a7a;fill-opacity:1;fill-rule:nonzero;stroke:none;stroke-width:0.08363827"
             id="path31941"
             inkscape:connector-curvature="0" /></g><g
           id="g31943"
           transform="translate(548.3104,736.7109)"
           style="stroke-width:0.08363827"><path
             d="M 0,0 C 1.076,0 1.348,-0.902 1.348,-1.782 V -5.529 H 0.565 v 3.737 c 0,0.575 -0.086,1.119 -0.804,1.119 -0.489,0 -0.999,-0.305 -1.509,-0.826 v -4.03 H -2.53 v 3.737 c 0,0.575 -0.087,1.119 -0.805,1.119 -0.499,0 -1.02,-0.348 -1.509,-0.837 v -4.019 h -0.782 v 5.431 h 0.445 l 0.229,-0.89 C -4.453,-0.456 -3.834,0 -3.095,0 -2.389,0 -2.085,-0.391 -1.869,-0.956 -1.358,-0.403 -0.705,0 0,0"
             style="fill:#7a7a7a;fill-opacity:1;fill-rule:nonzero;stroke:none;stroke-width:0.08363827"
             id="path31945"
             inkscape:connector-curvature="0" /></g><g
           id="g31947"
           transform="translate(553.9811,734.0601)"
           style="stroke-width:0.08363827"><path
             d="m 0,0 c -1.184,-0.228 -1.966,-0.478 -2.259,-0.847 -0.142,-0.174 -0.185,-0.337 -0.185,-0.586 0,-0.555 0.272,-0.891 0.922,-0.891 0.62,0 1.152,0.325 1.522,0.608 z m 0,0.793 c 0,0.793 -0.24,1.195 -1.097,1.195 -0.555,0 -1.053,-0.228 -1.542,-0.489 l -0.294,0.532 c 0.511,0.348 1.097,0.62 1.901,0.62 1.315,0 1.814,-0.728 1.814,-1.912 V -2.878 H 0.337 c 0,0 -0.229,0.663 -0.239,0.663 -0.381,-0.381 -0.989,-0.75 -1.695,-0.75 -0.944,0 -1.64,0.597 -1.64,1.488 0,0.597 0.239,1.021 0.76,1.325 0.499,0.293 1.402,0.511 2.477,0.673 z"
             style="fill:#7a7a7a;fill-opacity:1;fill-rule:nonzero;stroke:none;stroke-width:0.08363827"
             id="path31949"
             inkscape:connector-curvature="0" /></g><g
           id="g31951"
           transform="translate(556.2188,736.613)"
           style="stroke-width:0.08363827"><path
             d="m 0,0 h 0.444 l 0.229,-0.923 c 0.499,0.564 1.14,1.021 1.965,1.021 1.152,0 1.456,-0.902 1.456,-1.782 V -5.431 H 3.313 v 3.736 c 0,0.576 -0.131,1.12 -0.913,1.12 -0.554,0 -1.13,-0.348 -1.618,-0.87 V -5.431 H 0 Z"
             style="fill:#7a7a7a;fill-opacity:1;fill-rule:nonzero;stroke:none;stroke-width:0.08363827"
             id="path31953"
             inkscape:connector-curvature="0" /></g><g
           id="g31955"
           transform="translate(561.1494,736.0482)"
           style="stroke-width:0.08363827"><path
             d="M 0,0 V 0.565 H 0.837 L 1.065,2.118 H 1.597 V 0.565 H 2.813 V 0 H 1.597 v -3.53 c 0,-0.522 0.087,-0.815 0.608,-0.815 0.228,0 0.38,0.044 0.631,0.109 L 2.954,-4.779 C 2.749,-4.877 2.456,-4.954 2.173,-4.954 c -0.957,0 -1.357,0.479 -1.357,1.369 V 0 Z"
             style="fill:#7a7a7a;fill-opacity:1;fill-rule:nonzero;stroke:none;stroke-width:0.08363827"
             id="path31957"
             inkscape:connector-curvature="0" /></g><g
           id="g31959"
           transform="translate(568.0353,734.2452)"
           style="stroke-width:0.08363827"><path
             d="M 0,0 C -0.043,1.237 -0.456,1.868 -1.27,1.868 -2.009,1.868 -2.52,1.281 -2.584,0 Z m -1.14,-2.52 c 0.63,0 1.022,0.228 1.488,0.543 l 0.336,-0.456 c -0.52,-0.446 -0.998,-0.718 -1.889,-0.718 -1.358,0 -2.216,1.087 -2.216,2.803 0,1.684 0.848,2.814 2.14,2.814 1.324,0 2.086,-0.978 2.086,-2.857 v -0.174 h -3.4 c 0.054,-1.271 0.477,-1.955 1.455,-1.955"
             style="fill:#7a7a7a;fill-opacity:1;fill-rule:nonzero;stroke:none;stroke-width:0.08363827"
             id="path31961"
             inkscape:connector-curvature="0" /></g><g
           id="g31963"
           transform="translate(569.5137,733.8538)"
           style="stroke-width:0.08363827"><path
             d="M 0,0 C 0,1.336 0.543,2.857 2.205,2.857 2.9,2.857 3.422,2.661 3.866,2.292 L 3.542,1.77 C 3.204,2.031 2.738,2.227 2.205,2.227 c -1.239,0 -1.379,-1.315 -1.379,-2.238 0,-0.868 0.174,-2.118 1.423,-2.118 0.575,0 0.976,0.218 1.347,0.543 L 3.965,-2.031 C 3.596,-2.422 3.029,-2.759 2.205,-2.759 0.587,-2.759 0,-1.304 0,0"
             style="fill:#7a7a7a;fill-opacity:1;fill-rule:nonzero;stroke:none;stroke-width:0.08363827"
             id="path31965"
             inkscape:connector-curvature="0" /></g><g
           id="g31967"
           transform="translate(533.468,751.0125)"
           style="stroke-width:0.08363827"><path
             d="m 0,0 -1.729,-2.244 c 0.699,-0.545 1.158,-1.386 1.158,-2.342 0,-1.642 -1.332,-2.976 -2.976,-2.976 -1.644,0 -2.977,1.334 -2.977,2.976 0,1.645 1.333,2.978 2.977,2.978 0.188,0 0.371,-0.022 0.549,-0.056 l 1.418,1.099 -0.846,1.672 c -0.364,0.072 -0.738,0.111 -1.121,0.111 -3.205,0 -5.802,-2.598 -5.802,-5.804 0,-3.204 2.597,-5.802 5.802,-5.802 3.205,0 5.802,2.598 5.802,5.802 C 2.255,-2.719 1.37,-1.062 0,0"
             style="fill:#fbcb08;fill-opacity:1;fill-rule:nonzero;stroke:none;stroke-width:0.08363827"
             id="path31969"
             inkscape:connector-curvature="0" /></g><g
           id="g31971"
           transform="translate(556.6652,743.4506)"
           style="stroke-width:0.08363827"><path
             d="m 0,0 c -1.644,0 -2.978,1.334 -2.978,2.976 0,1.645 1.334,2.977 2.978,2.977 1.645,0 2.976,-1.332 2.976,-2.977 C 2.976,1.334 1.645,0 0,0 m 0,8.78 c -3.204,0 -5.804,-2.599 -5.804,-5.804 0,-3.204 2.6,-5.802 5.804,-5.802 3.206,0 5.803,2.598 5.803,5.802 C 5.803,6.181 3.206,8.78 0,8.78"
             style="fill:#000000;fill-opacity:1;fill-rule:nonzero;stroke:none;stroke-width:0.08363827"
             id="path31973"
             inkscape:connector-curvature="0" /></g><g
           id="g31975"
           transform="translate(550.4894,743.2889)"
           style="stroke-width:0.08363827"><path
             d="m 0,0 c -0.367,-0.108 -0.927,-0.214 -1.143,-0.214 -0.991,0 -1.208,0.343 -1.208,1.293 v 5.36 H 0.022 V 8.68 h -2.373 v 3.166 H -5.019 L -5.579,8.68 H -7.438 V 8.678 H -7.591 C -9.111,8.671 -10.259,7.743 -10.995,6.289 L -11.92,8.68 h -1.917 V -2.454 h 3.272 v 4.845 c 0,2.439 1.444,4.001 3.152,4.048 h 1.789 V 0.905 c 0,-2.605 1.337,-3.574 3.511,-3.574 1.122,0 1.982,0.237 2.5,0.407 z"
             style="fill:#000000;fill-opacity:1;fill-rule:nonzero;stroke:none;stroke-width:0.08363827"
             id="path31977"
             inkscape:connector-curvature="0" /></g><g
           id="g31979"
           transform="translate(566.4316,748.4463)"
           style="stroke-width:0.08363827"><path
             d="M 0,0 V -7.611 H -3.181 V 3.522 H -1.25 L -0.606,1.823 C 0.362,2.939 1.679,3.782 3.223,3.782 5.872,3.782 6.96,1.67 6.96,-0.289 V -7.611 H 3.686 v 7.23 C 3.686,0.571 2.892,1.09 2.03,1.09 1.114,1.09 0.523,0.564 0.005,0.002"
             style="fill:#000000;fill-opacity:1;fill-rule:nonzero;stroke:none;stroke-width:0.08363827"
             id="path31981"
             inkscape:connector-curvature="0" /></g><g
           id="g31983"
           transform="translate(511.4889,755.9999)"
           style="stroke-width:0.08363827"><path
             d="M 0,0 H 3.645 L 8.651,-9.537 V 0 h 3.02 V -15.168 H 8.37 L 3.021,-4.684 V -15.168 H 0 Z"
             style="fill:#000000;fill-opacity:1;fill-rule:nonzero;stroke:none;stroke-width:0.08363827"
             id="path31985"
             inkscape:connector-curvature="0" /></g></g></g></g></svg>