<svg xmlns="http://www.w3.org/2000/svg" viewBox="0 0 100 100">
  <!-- blueberry state 2 — berry bounce: squashed happy, closed smiling eyes, leaf perked. Footless floater. -->
  <g transform="translate(50 74) scale(1.05 .95) translate(-50 -74)">
    <path d="M62 25 q12 -9 18 -2 q-7 9 -18 6 z" fill="#6fbf73" transform="rotate(12 62 26)"/>
    <path d="M58 28 q2 -7 6 -10" stroke="#4e8f54" stroke-width="2.2" fill="none" stroke-linecap="round"/>
    <ellipse cx="50" cy="58" rx="30" ry="29" fill="#5b6bd6"/>
    <ellipse cx="40" cy="50" rx="14" ry="10" fill="#92a0ef" opacity="0.7"/>
    <path d="M50 30 l4 5 6 -2 -1 6 6 3 -6 3 1 6 -6 -2 -4 5 -4 -5 -6 2 1 -6 -6 -3 6 -3 -1 -6 6 2 z" fill="#3a4490"/>
    <circle cx="50" cy="36" r="3" fill="#2c346f"/>
    <g stroke="#2b2b2b" stroke-width="2.2" fill="none" stroke-linecap="round">
      <path d="M39 53.5 Q42 50.8 45 53.5"/>
      <path d="M55 53.5 Q58 50.8 61 53.5"/>
    </g>
    <path d="M44 61 q6 5 12 0" stroke="#2b2b2b" stroke-width="2.2" fill="none" stroke-linecap="round"/>
    <circle cx="35" cy="62" r="4.4" fill="#b08ae0" opacity="0.6"/>
    <circle cx="65" cy="62" r="4.4" fill="#b08ae0" opacity="0.6"/>
  </g>
</svg>
