<svg xmlns="http://www.w3.org/2000/svg" viewBox="0 0 100 100">
  <!-- blueberry SING — mouth wide open while the menu band plays, joyful arc eyes, leaf perked. Static render. -->
  <g>
    <path d="M62 26 q12 -9 18 -2 q-7 9 -18 6 z" fill="#6fbf73" transform="rotate(8 62 26)"/>
    <path d="M58 30 q2 -7 6 -10" stroke="#4e8f54" stroke-width="2.2" fill="none" stroke-linecap="round"/>
    <ellipse cx="50" cy="58" rx="30" ry="29" fill="#5b6bd6"/>
    <ellipse cx="40" cy="50" rx="14" ry="10" fill="#92a0ef" opacity="0.7"/>
    <path d="M50 32 l4 5 6 -2 -1 6 6 3 -6 3 1 6 -6 -2 -4 5 -4 -5 -6 2 1 -6 -6 -3 6 -3 -1 -6 6 2 z" fill="#3a4490"/>
    <circle cx="50" cy="38" r="3" fill="#2c346f"/>
    <!-- joyful closed-arc eyes -->
    <g stroke="#2b2b2b" stroke-width="2.2" fill="none" stroke-linecap="round">
      <path d="M39 53 Q42 50.2 45 53"/>
      <path d="M55 53 Q58 50.2 61 53"/>
    </g>
    <!-- wide-open singing mouth with tongue -->
    <ellipse cx="50" cy="64.5" rx="6.2" ry="5.4" fill="#2c346f"/>
    <path d="M45.5 67 q4.5 4 9 0 q-1 3 -4.5 3 q-3.5 0 -4.5 -3 z" fill="#b08ae0"/>
    <circle cx="35" cy="62" r="4.4" fill="#b08ae0" opacity="0.6"/>
    <circle cx="65" cy="62" r="4.4" fill="#b08ae0" opacity="0.6"/>
  </g>
</svg>
