<svg xmlns="http://www.w3.org/2000/svg" viewBox="0 0 100 100">
  <!-- chicken state 3 — peck lean: body pitched forward, eyes down-left, wing back -->
  <g transform="rotate(-8 50 58)">
    <g fill="#ff5a52"><circle cx="43" cy="26" r="5"/><circle cx="51" cy="21" r="6"/><circle cx="59" cy="26" r="5"/></g>
    <ellipse cx="50" cy="58" rx="30" ry="29" fill="#ffe14d"/>
    <ellipse cx="40" cy="50" rx="14" ry="10" fill="#fff3a8" opacity="0.7"/>
    <path d="M27 54 q-9 7 -1 17 q9 2 13 -5 z" fill="#ffd11a" transform="rotate(-6 30 60)"/>
    <path d="M50 60 l-6 4 l6 4 z" fill="#ff9f1c"/>
    <g fill="#2b2b2b">
      <circle cx="41" cy="52" r="3.4"/>
      <circle cx="57" cy="52" r="3.4"/>
    </g>
    <circle cx="40" cy="53.2" r="1.1" fill="#fff"/>
    <circle cx="56" cy="53.2" r="1.1" fill="#fff"/>
    <circle cx="35" cy="62" r="4" fill="#ff8aa0" opacity="0.5"/>
    <circle cx="65" cy="62" r="4" fill="#ff8aa0" opacity="0.5"/>
    <g stroke="#ff9f1c" stroke-width="2.2" stroke-linecap="round" fill="none">
      <path d="M44 86 v5 M44 91 l-3 3 M44 91 l3 3"/>
      <path d="M56 86 v5 M56 91 l-3 3 M56 91 l3 3"/>
    </g>
  </g>
</svg>
