<svg xmlns="http://www.w3.org/2000/svg" viewBox="0 0 100 100">
  <!-- chicken state 2 — flap cheer: wing up, blink, beak open mid-cluck -->
  <g transform="translate(50 74) scale(1.05 .95) translate(-50 -74)">
    <g fill="#ff5a52"><circle cx="43" cy="24.5" r="5"/><circle cx="51" cy="19.5" r="6"/><circle cx="59" cy="24.5" r="5"/></g>
    <ellipse cx="50" cy="58" rx="30" ry="29" fill="#ffe14d"/>
    <ellipse cx="40" cy="50" rx="14" ry="10" fill="#fff3a8" opacity="0.7"/>
    <path d="M27 54 q-9 7 -1 17 q9 2 13 -5 z" fill="#ffd11a" transform="rotate(16 30 60)"/>
    <path d="M50 58.5 l-7 2.5 l7 1.5 z" fill="#ff9f1c"/>
    <path d="M50 64 l-7 1.2 l7 2.8 z" fill="#ff9f1c"/>
    <g stroke="#2b2b2b" stroke-width="2.2" fill="none" stroke-linecap="round">
      <path d="M39 51.5 Q42 48.8 45 51.5"/>
      <path d="M55 51.5 Q58 48.8 61 51.5"/>
    </g>
    <circle cx="35" cy="62" r="4.4" fill="#ff8aa0" opacity="0.55"/>
    <circle cx="65" cy="62" r="4.4" fill="#ff8aa0" opacity="0.55"/>
    <g stroke="#ff9f1c" stroke-width="2.2" stroke-linecap="round" fill="none">
      <path d="M44 86 v5 M44 91 l-3 3 M44 91 l3 3"/>
      <path d="M56 86 v5 M56 91 l-3 3 M56 91 l3 3"/>
    </g>
  </g>
</svg>
