<svg xmlns="http://www.w3.org/2000/svg" viewBox="0 0 100 100"><path d="M83 37C91 60 77 85 53 88C28 91 10 71 13 47C15 25 33 11 54 13C55 24 63 28 70 25C70 33 76 38 83 37Z" fill="#d99b55" stroke="#784728" stroke-width="3"/><path d="M20 43C24 26 37 19 49 20" fill="none" stroke="#f8ce8e" stroke-width="5" stroke-linecap="round"/><g fill="#66402b"><path d="M28 31l8-3 4 7-9 4Z"/><path d="M59 34l7-3 5 6-7 4Z"/><path d="M22 59l7-4 5 8-8 4Z"/><path d="M64 70l8-4 4 8-8 4Z"/><path d="M41 76l6-5 6 7-7 4Z"/></g><ellipse cx="40" cy="47" rx="3" ry="4" fill="#382317"/><ellipse cx="60" cy="47" rx="3" ry="4" fill="#382317"/><g fill="#ed9a83" opacity=".65"><ellipse cx="31" cy="57" rx="5" ry="3"/><ellipse cx="69" cy="57" rx="5" ry="3"/></g><ellipse cx="50" cy="61" rx="6" ry="8" fill="#382317"/></svg>
