<svg xmlns="http://www.w3.org/2000/svg" viewBox="0 0 100 100">
  <!-- neo state 2 — happy blink: same gem, closed curved eyes, open grin -->
  <g>
    <polygon points="33,16 67,16 88,46 50,90 12,46" fill="#a6e22e"/>
    <polygon points="33,16 67,16 61,30 39,30" fill="#d7f78a"/>
    <polygon points="33,16 39,30 12,46" fill="#7fc41e"/>
    <polygon points="67,16 88,46 61,30" fill="#c8f06a"/>
    <polygon points="12,46 36,46 50,90" fill="#7fc41e"/>
    <polygon points="64,46 88,46 50,90" fill="#c8f06a"/>
    <ellipse cx="41" cy="38" rx="10" ry="5.5" fill="#eaffc0" opacity="0.75"/>
    <circle cx="33" cy="55" r="5.4" fill="#ff8aa0" opacity="0.5"/>
    <circle cx="67" cy="55" r="5.4" fill="#ff8aa0" opacity="0.5"/>
    <g stroke="#1c3a08" stroke-width="2.6" fill="none" stroke-linecap="round">
      <path d="M36 50 Q41 45.5 46 50"/>
      <path d="M54 50 Q59 45.5 64 50"/>
    </g>
    <path d="M43 58.5 Q50 68 57 58.5 Z" fill="#1c3a08"/>
    <ellipse cx="50" cy="63" rx="3.2" ry="1.9" fill="#ff8aa0"/>
    <path d="M72 21 L73.8 25.2 L78 27 L73.8 28.8 L72 33 L70.2 28.8 L66 27 L70.2 25.2 Z" fill="#f4ffd9"/>
    <circle cx="29" cy="24" r="1.8" fill="#f4ffd9"/>
  </g>
</svg>
