<svg xmlns="http://www.w3.org/2000/svg" viewBox="0 0 100 100">
  <!-- neo state 3 — curious lean: tilted body, eyes glance right, little "o" mouth -->
  <g transform="rotate(-5 50 74)">
    <path d="M50 22 C71 22 82 41 82 59 C82 79 67 88 50 88 C33 88 18 79 18 59 C18 41 29 22 50 22 Z" fill="#a6e22e"/>
    <ellipse cx="42" cy="43" rx="15" ry="10" fill="#d7f78a" opacity="0.7"/>
    <circle cx="33" cy="64" r="6" fill="#ff8aa0" opacity="0.45"/>
    <circle cx="67" cy="64" r="6" fill="#ff8aa0" opacity="0.45"/>
    <g fill="#1c3a08">
      <circle cx="43" cy="55" r="4.6"/>
      <circle cx="63" cy="55" r="4.6"/>
      <circle cx="44.8" cy="53.4" r="1.5" fill="#eaffc0"/>
      <circle cx="64.8" cy="53.4" r="1.5" fill="#eaffc0"/>
    </g>
    <ellipse cx="51.5" cy="69" rx="3" ry="3.6" fill="#1c3a08"/>
    <path d="M50 22 C50 14 56 9 62 9 C61 17 56 22 50 22 Z" fill="#7fc41e" transform="rotate(-14 50 22)"/>
  </g>
</svg>
