<svg xmlns="http://www.w3.org/2000/svg" viewBox="0 0 100 100">
  <!-- panda state 3 — wave: right arm raised hello, eyes open. Same bear geometry as base. -->
  <g>
    <!-- ears -->
    <circle cx="34" cy="17" r="8.5" fill="#2b2b2b"/>
    <circle cx="66" cy="17" r="8.5" fill="#2b2b2b"/>
    <!-- body (white belly) -->
    <ellipse cx="50" cy="71" rx="20" ry="19" fill="#ffffff"/>
    <!-- left arm down, right arm raised in a wave -->
    <ellipse cx="33" cy="67" rx="7" ry="10.5" fill="#2b2b2b" transform="rotate(24 33 67)"/>
    <ellipse cx="71" cy="58" rx="7" ry="10.5" fill="#2b2b2b" transform="rotate(-118 71 58)"/>
    <!-- legs -->
    <ellipse cx="40" cy="87" rx="7.5" ry="7" fill="#2b2b2b"/>
    <ellipse cx="60" cy="87" rx="7.5" ry="7" fill="#2b2b2b"/>
    <!-- head -->
    <ellipse cx="50" cy="34" rx="23" ry="21" fill="#ffffff"/>
    <ellipse cx="41" cy="32.5" rx="6.5" ry="8.8" fill="#2b2b2b" transform="rotate(-18 41 32.5)"/>
    <ellipse cx="59" cy="32.5" rx="6.5" ry="8.8" fill="#2b2b2b" transform="rotate(18 59 32.5)"/>
    <circle cx="42.3" cy="34" r="2.7" fill="#ffffff"/>
    <circle cx="59.3" cy="34" r="2.7" fill="#ffffff"/>
    <ellipse cx="50" cy="42" rx="3.2" ry="2.4" fill="#2b2b2b"/>
    <path d="M50 44.5 Q46.5 48.5 43.5 46.2 M50 44.5 Q53.5 48.5 56.5 46.2" stroke="#2b2b2b" stroke-width="1.7" fill="none" stroke-linecap="round"/>
    <circle cx="34.5" cy="42" r="3.6" fill="#ffb3c1" opacity="0.55"/>
    <circle cx="65.5" cy="42" r="3.6" fill="#ffb3c1" opacity="0.55"/>
  </g>
</svg>
