<?xml version="1.0" standalone="no"?>
<!DOCTYPE svg PUBLIC "-//W3C//DTD SVG 1.1//EN" "http://www.w3.org/Graphics/SVG/1.1/DTD/svg11.dtd">
<svg xmlns="http://www.w3.org/2000/svg"><metadata>This SVG WebFont was generated by YouWorkForThem.
Copyright (c) 2001 by YouWorkForThem. All rights reserved.</metadata><defs><font horiz-adv-x="1228" id="ywftsvg"><font-face ascent="1638" bbox="-205 -410 1946 2150" cap-height="1638" descent="-410" font-family="" font-stretch="normal" font-weight="400" panose-1="2 0 5 3 0 0 0 0 0 0" underline-position="0" underline-thickness="0" unicode-range="U+0001-20AC" units-per-em="2048" x-height="1229"/><missing-glyph d="M102 0v1092h820v-1092h-820zM205 102h614v887h-614v-887z" horiz-adv-x="1024"/><glyph d="M102 0v1092h820v-1092h-820zM205 102h614v887h-614v-887z" glyph-name=".notdef" horiz-adv-x="1024"/><glyph glyph-name="glyph1" horiz-adv-x="0"/><glyph glyph-name="glyph2" horiz-adv-x="681"/><glyph d="M922 102v-102h-717v819h-103v103h103v716h717v-102h102v-1434h-102v1434h-615v-614h205v-103h-205v-717h615z" glyph-name="uni0001"/><glyph d="M1126 1229h-102v-1127h-102v820h-615v102h615v205h-205v102h205v205h-205v102h205v-102h102v-205h102v-102zM922 102v-102h-615v102h-102v820h102v-820h615z" glyph-name="uni0002"/><glyph d="M819 0h-614v819h-103v103h103v716h102v-716h205v-103h-205v-717h512v-102z" glyph-name="uni0003" horiz-adv-x="921"/><glyph d="M512 819h-205v-819h-102v819h-205v103h205v716h102v-716h205v-103z" glyph-name="uni0004" horiz-adv-x="512"/><glyph d="M922 102h-103v615h-205v102h-102v103h-205v102h-102v512h102v-512h205v-102h102v-103h205v-102h103v-615zM922 1536h-615v102h615v-102zM205 102h614v-102h-614v102zM410 1843h204v-102h-204v102h-103v103h-102v102h102v-102h103v-103zM819 1946h-102v102h102v-102z M614 1946h103v-103h-103v103z" glyph-name="uni0005" horiz-adv-x="1126"/><glyph d="M922 102h-103v410h-205v102h-102v103h-205v102h-102v307h102v-307h205v-102h102v-103h205v-102h103v-410zM922 1126h-615v103h615v-103zM205 102h614v-102h-614v102zM410 1434h204v-103h-204v103h-103v102h-102v102h102v-102h103v-102zM819 1536h-102v102h102v-102z M614 1536h103v-102h-103v102z" glyph-name="uni0006" horiz-adv-x="1126"/><glyph d="M512 717h-102v205h-103v204h-102v512h102v-512h103v-204h102v-205zM614 0h-102v717h102v-717zM922 1126h-103v512h103v-512zM614 922h103v-205h-103v205zM717 1126h102v-204h-102v204zM717 2048h102v-102h-102v102zM922 2048h-103v102h103v-102zM614 1946h103v-103h-103 v103zM512 1843h102v-102h-102v102z" glyph-name="uni0007" horiz-adv-x="1126"/><glyph d="M1024 -307h-102v307h-615v102h-102v1127h102v-1127h615v1127h102v-1536zM307 -307h615v-103h-615v103zM819 1638h103v-102h-103v102zM614 1434h103v-103h-103v103zM717 1536h102v-102h-102v102zM1024 1638h-102v103h102v-103z" glyph-name="uni0008"/><glyph glyph-name="space" horiz-adv-x="512" unicode=" "/><glyph d="M307 307h-102v1331h102v-1331zM307 0h-102v102h102v-102z" glyph-name="exclam" horiz-adv-x="512" unicode="!"/><glyph d="M614 1229h-102v409h102v-409zM307 1229h-102v409h102v-409z" glyph-name="quotedbl" horiz-adv-x="819" unicode="&quot;"/><glyph d="M1024 614h-205v-204h-102v204h-205v-204h-102v204h-205v103h205v205h-205v102h205v205h102v-205h205v205h102v-205h205v-102h-205v-205h205v-103zM717 717v205h-205v-205h205z" glyph-name="numbersign" unicode="#"/><glyph d="M512 922v512h-205v102h205v102h102v-102h308v-102h-308v-512h205v-103h103v-614h-103v614h-205v-614h205v-103h-205v-102h-102v102h-307v103h307v614h-205v103h-102v512h102v-512h205z" glyph-name="dollar" horiz-adv-x="1126" unicode="$"/><glyph d="M614 1126h-102v410h-205v102h205v-102h102v-410zM1229 102v-102h-205v102h-102v410h102v-410h205zM512 1126v-102h-205v102h-102v410h102v-410h205zM1331 102h-102v410h-205v102h205v-102h102v-410zM819 1434h103v-410h-103v410zM717 1024h102v-410h-102v410zM614 614 h103v-409h-103v409zM512 205h102v-205h-102v205zM1024 1434h-102v204h102v-204z" glyph-name="percent" horiz-adv-x="1536" unicode="%"/><glyph d="M819 102v717h-512v103h-102v614h102v-614h512v204h103v-204h102v-103h-102v-717h102v-102h-717v102h-102v717h102v-717h512zM922 1536h-615v102h615v-102z" glyph-name="ampersand" unicode="&amp;"/><glyph d="M307 1229h-102v409h102v-409z" glyph-name="quotesingle" horiz-adv-x="512" unicode="'"/><glyph d="M512 0h-205v102h-102v1434h102v-1434h205v-102zM512 1536h-205v102h205v-102z" glyph-name="parenleft" horiz-adv-x="716" unicode="("/><glyph d="M512 102h-102v1434h-205v102h205v-102h102v-1434zM205 102h205v-102h-205v102z" glyph-name="parenright" horiz-adv-x="716" unicode=")"/><glyph d="M717 1536h-103v102h103v-102zM307 1536h-102v102h102v-102zM717 1331h-205v-205h-102v205h-205v103h205v204h102v-204h205v-103zM717 1126h-103v103h103v-103zM307 1126h-102v103h102v-103z" glyph-name="asterisk" horiz-adv-x="921" unicode="*"/><glyph d="M717 819h-205v-205h-102v205h-205v103h205v204h102v-204h205v-103z" glyph-name="plus" horiz-adv-x="921" unicode="+"/><glyph d="M307 -102h-102v204h102v-204z" glyph-name="comma" horiz-adv-x="512" unicode=","/><glyph d="M614 819h-409v103h409v-103z" glyph-name="hyphen" horiz-adv-x="819" unicode="-"/><glyph d="M307 0h-102v102h102v-102z" glyph-name="period" horiz-adv-x="512" unicode="."/><glyph d="M512 1434h102v-410h-102v410zM307 614h103v-409h-103v409zM410 1024h102v-410h-102v410zM717 1434h-103v204h103v-204zM205 205h102v-205h-102v205z" glyph-name="slash" horiz-adv-x="921" unicode="/"/><glyph d="M1024 102h-102v1434h-615v102h615v-102h102v-1434zM922 102v-102h-615v102h-102v1434h102v-1434h615z" glyph-name="zero" unicode="0"/><glyph d="M717 0h-512v102h205v1434h-205v102h307v-1536h205v-102z" glyph-name="one" horiz-adv-x="819" unicode="1"/><glyph d="M1024 0h-819v819h102v-717h717v-102zM1024 922h-102v614h-717v102h717v-102h102v-614zM922 819h-615v103h615v-103z" glyph-name="two" unicode="2"/><glyph d="M922 102h-103v717h-614v103h614v-103h103v-717zM922 922h-103v614h-614v102h614v-102h103v-614zM205 102h614v-102h-614v102z" glyph-name="three" horiz-adv-x="1126" unicode="3"/><glyph d="M922 0h-103v717h-614v921h102v-819h512v819h103v-1638z" glyph-name="four" horiz-adv-x="1126" unicode="4"/><glyph d="M1024 102h-102v717h-717v819h819v-102h-717v-614h615v-103h102v-717zM307 102h615v-102h-615v102h-102v308h102v-308z" glyph-name="five" unicode="5"/><glyph d="M922 102v-102h-615v102h-102v1434h102v-512h615v-102h102v-820h-102v820h-615v-820h615zM922 1536h-615v102h615v-102z" glyph-name="six" unicode="6"/><glyph d="M819 1229h-102v307h-615v102h717v-409zM410 614h102v-614h-102v614zM512 922h102v-308h-102v308zM614 1229h103v-307h-103v307z" glyph-name="seven" horiz-adv-x="1024" unicode="7"/><glyph d="M922 922v-103h102v-717h-102v717h-615v103h-102v614h102v-614h615zM922 102v-102h-615v102h-102v717h102v-717h615zM922 922v614h-615v102h615v-102h102v-614h-102z" glyph-name="eight" unicode="8"/><glyph d="M922 717v819h-615v102h615v-102h102v-1434h-102v512h-615v103h-102v819h102v-819h615zM307 102h615v-102h-615v102z" glyph-name="nine" unicode="9"/><glyph d="M307 819h-102v103h102v-103zM307 0h-102v102h102v-102z" glyph-name="colon" horiz-adv-x="512" unicode=":"/><glyph d="M307 819h-102v103h102v-103zM307 -102h-102v204h102v-204z" glyph-name="semicolon" horiz-adv-x="512" unicode=";"/><glyph d="M614 512h-102v102h-102v103h-103v102h-102v103h102v-103h103v-102h102v-103h102v-102zM410 1126h102v-102h-102v102zM307 1024h103v-102h-103v102zM614 1126h-102v103h102v-103z" glyph-name="less" horiz-adv-x="819" unicode="&lt;"/><glyph d="M614 922h-409v102h409v-102zM614 614h-409v103h409v-103z" glyph-name="equal" horiz-adv-x="819" unicode="="/><glyph d="M512 922h-102v102h-103v102h-102v103h102v-103h103v-102h102v-102zM205 614h102v-102h-102v102zM307 717h103v-103h-103v103zM410 819h102v-102h-102v102zM614 819h-102v103h102v-103z" glyph-name="greater" horiz-adv-x="819" unicode=">"/><glyph d="M819 922h-102v614h-615v102h615v-102h102v-614zM307 717h103v-410h-103v410zM512 922h205v-103h-205v103zM410 819h102v-102h-102v102zM410 0h-103v102h103v-102z" glyph-name="question" horiz-adv-x="1024" unicode="?"/><glyph d="M1024 512v614h-410v103h410v-103h102v-614h205v-102h-717v102h-102v614h102v-614h410zM205 1536h102v-1434h819v-102h-819v102h-102v1434zM1434 512h-103v1024h-1024v102h1024v-102h103v-1024z" glyph-name="at" horiz-adv-x="1638" unicode="@"/><glyph d="M922 717v819h-615v102h615v-102h102v-1536h-102v614h-615v-614h-102v1536h102v-819h615z" glyph-name="A" unicode="A"/><glyph d="M922 922v-103h102v-717h-102v717h-615v-717h615v-102h-717v1638h717v-102h102v-614h-102v614h-615v-614h615z" glyph-name="B" unicode="B"/><glyph d="M922 0h-615v102h-102v1434h102v-1434h615v-102zM922 1536h-615v102h615v-102z" glyph-name="C" horiz-adv-x="1024" unicode="C"/><glyph d="M922 102v-102h-717v1638h717v-102h102v-1434h-102v1434h-615v-1434h615z" glyph-name="D" unicode="D"/><glyph d="M922 0h-717v1638h717v-102h-615v-614h615v-103h-615v-717h615v-102z" glyph-name="E" horiz-adv-x="1126" unicode="E"/><glyph d="M819 819h-512v-819h-102v1638h614v-102h-512v-614h512v-103z" glyph-name="F" horiz-adv-x="1024" unicode="F"/><glyph d="M1024 0h-717v102h-102v1434h102v-1434h615v717h-308v103h410v-922zM1024 1536h-717v102h717v-102z" glyph-name="G" unicode="G"/><glyph d="M1024 0h-102v819h-615v-819h-102v1638h102v-716h615v716h102v-1638z" glyph-name="H" unicode="H"/><glyph d="M307 0h-102v1638h102v-1638z" glyph-name="I" horiz-adv-x="512" unicode="I"/><glyph d="M717 102h-103v1536h103v-1536zM614 0h-512v102h512v-102z" glyph-name="J" horiz-adv-x="921" unicode="J"/><glyph d="M819 0h-102v512h-103v307h-307v-819h-102v1638h102v-716h307v-103h103v-307h102v-512zM819 1229h-102v409h102v-409zM717 922h-103v307h103v-307z" glyph-name="K" horiz-adv-x="1024" unicode="K"/><glyph d="M819 0h-614v1638h102v-1536h512v-102z" glyph-name="L" horiz-adv-x="921" unicode="L"/><glyph d="M717 205h102v-205h-102v205h-103v614h-102v717h-205v-1536h-102v1638h307v-102h102v-717h103v-614zM1331 0h-102v1536h-205v102h307v-1638zM922 1536h102v-717h-102v717zM819 819h103v-614h-103v614z" glyph-name="M" horiz-adv-x="1536" unicode="M"/><glyph d="M1126 0h-307v102h-102v512h-103v410h-102v512h-205v-1536h-102v1638h307v-102h102v-512h103v-410h102v-512h205v1536h102v-1638z" glyph-name="N" horiz-adv-x="1331" unicode="N"/><glyph d="M1024 102h-102v1434h-615v102h615v-102h102v-1434zM922 102v-102h-615v102h-102v1434h102v-1434h615z" glyph-name="O" unicode="O"/><glyph d="M922 717v-103h-615v-614h-102v1638h717v-102h102v-819h-102v819h-615v-819h615z" glyph-name="P" unicode="P"/><glyph d="M922 102v1434h-615v102h615v-102h102v-1741h-102v205h-615v102h-102v1434h102v-1434h615z" glyph-name="Q" unicode="Q"/><glyph d="M1024 0h-102v205h-103v205h-102v204h-410v-614h-102v1638h717v-102h102v-819h-102v819h-615v-819h615v-103h-103v-204h103v-205h102v-205z" glyph-name="R" unicode="R"/><glyph d="M922 102h-103v717h-512v103h-102v614h102v-614h512v-103h103v-717zM205 102h614v-102h-614v102zM922 1536h-615v102h615v-102z" glyph-name="S" horiz-adv-x="1126" unicode="S"/><glyph d="M819 1536h-307v-1536h-102v1536h-308v102h717v-102z" glyph-name="T" horiz-adv-x="921" unicode="T"/><glyph d="M307 102h615v-102h-615v102h-102v1536h102v-1536zM1024 102h-102v1536h102v-1536z" glyph-name="U" unicode="U"/><glyph d="M512 102h-205v103h-102v1433h102v-1433h205v-103zM922 205h-103v1433h103v-1433zM614 205h205v-103h-205v103zM614 0h-102v102h102v-102z" glyph-name="V" horiz-adv-x="1126" unicode="V"/><glyph d="M922 102h512v-102h-512v102h-103v1536h103v-1536zM307 102h512v-102h-512v102h-102v1536h102v-1536zM1536 102h-102v1536h102v-1536z" glyph-name="W" horiz-adv-x="1740" unicode="W"/><glyph d="M922 0h-103v717h-205v102h-102v103h-205v102h-102v614h102v-614h205v-102h102v-103h205v-102h103v-717zM205 717h102v-717h-102v717zM922 1024h-103v614h103v-614zM307 819h205v-102h-205v102zM819 922h-205v102h205v-102z" glyph-name="X" horiz-adv-x="1126" unicode="X"/><glyph d="M512 717h-205v102h-102v819h102v-819h205v-102zM922 819h-103v819h103v-819zM614 0h-102v717h102v-717zM614 819h205v-102h-205v102z" glyph-name="Y" horiz-adv-x="1126" unicode="Y"/><glyph d="M922 0h-717v819h102v-717h615v-102zM922 922h-103v614h-614v102h717v-716zM819 819h-512v103h512v-103z" glyph-name="Z" horiz-adv-x="1126" unicode="Z"/><glyph d="M512 0h-307v1638h307v-102h-205v-1434h205v-102z" glyph-name="bracketleft" horiz-adv-x="716" unicode="["/><glyph d="M717 0h-103v205h-102v409h-102v410h-103v410h-102v204h102v-204h103v-410h102v-410h102v-409h103v-205z" glyph-name="backslash" horiz-adv-x="921" unicode="\"/><glyph d="M512 0h-307v102h205v1434h-205v102h307v-1638z" glyph-name="bracketright" horiz-adv-x="716" unicode="]"/><glyph d="M410 1536h102v-102h102v-103h-102v103h-102v102h-103v102h103v-102zM102 1434h103v-103h-103v103zM205 1536h102v-102h-102v102z" glyph-name="asciicircum" horiz-adv-x="716" unicode="^"/><glyph d="M819 -205h-819v103h819v-103z" glyph-name="underscore" horiz-adv-x="819" unicode="_"/><glyph d="M614 1331h-102v103h-102v102h-103v102h-102v103h102v-103h103v-102h102v-102h102v-103z" glyph-name="grave" horiz-adv-x="819" unicode="`"/><glyph d="M922 102v512h-615v103h615v409h-615v103h615v-103h102v-1126h-717v102h-102v512h102v-512h615z" glyph-name="a" unicode="a"/><glyph d="M922 102v-102h-717v1638h102v-409h615v-103h102v-1024h-102v1024h-615v-1024h615z" glyph-name="b" unicode="b"/><glyph d="M922 0h-615v102h-102v1024h102v-1024h615v-102zM922 1126h-615v103h615v-103z" glyph-name="c" horiz-adv-x="1126" unicode="c"/><glyph d="M922 102v1024h-615v103h615v409h102v-1638h-717v102h-102v1024h102v-1024h615z" glyph-name="d" unicode="d"/><glyph d="M922 717v409h-615v103h615v-103h102v-512h-717v-512h615v-102h-615v102h-102v1024h102v-409h615z" glyph-name="e" unicode="e"/><glyph d="M819 1126h-409v-1126h-103v1126h-205v103h205v307h103v-307h409v-103zM819 1536h-409v102h409v-102z" glyph-name="f" horiz-adv-x="921" unicode="f"/><glyph d="M922 102v1024h-615v103h717v-1536h-102v307h-615v102h-102v1024h102v-1024h615zM307 -307h615v-103h-615v103z" glyph-name="g" unicode="g"/><glyph d="M1024 0h-102v1126h-615v-1126h-102v1638h102v-409h615v-103h102v-1126z" glyph-name="h" unicode="h"/><glyph d="M307 1536h-102v102h102v-102zM307 0h-102v1229h102v-1229z" glyph-name="i" horiz-adv-x="512" unicode="i"/><glyph d="M307 -307h-102v1536h102v-1536zM-205 -307h410v-103h-410v103zM307 1536h-102v102h102v-102z" glyph-name="j" horiz-adv-x="512" unicode="j"/><glyph d="M819 0h-102v410h-103v204h-307v-614h-102v1638h102v-921h307v-103h103v-204h102v-410zM819 922h-102v307h102v-307zM717 717h-103v205h103v-205z" glyph-name="k" horiz-adv-x="1024" unicode="k"/><glyph d="M307 0h-102v1638h102v-1638z" glyph-name="l" horiz-adv-x="512" unicode="l"/><glyph d="M819 1126h103v-1126h-103v1126h-512v-1126h-102v1229h614v-103zM1536 0h-102v1126h-512v103h512v-103h102v-1126z" glyph-name="m" horiz-adv-x="1740" unicode="m"/><glyph d="M1024 0h-102v1126h-615v-1126h-102v1229h717v-103h102v-1126z" glyph-name="n" unicode="n"/><glyph d="M1024 102h-102v1024h-615v103h615v-103h102v-1024zM922 102v-102h-615v102h-102v1024h102v-1024h615z" glyph-name="o" unicode="o"/><glyph d="M922 102v-102h-615v-410h-102v1639h717v-103h102v-1024h-102v1024h-615v-1024h615z" glyph-name="p" unicode="p"/><glyph d="M922 102v1024h-615v103h717v-1639h-102v410h-615v102h-102v1024h102v-1024h615z" glyph-name="q" unicode="q"/><glyph d="M307 1126h205v-102h-205v-1024h-102v1229h102v-103zM819 1126h-307v103h307v-103z" glyph-name="r" horiz-adv-x="921" unicode="r"/><glyph d="M922 102h-103v512h-512v103h-102v409h102v-409h512v-103h103v-512zM205 102h614v-102h-614v102zM922 1126h-615v103h615v-103z" glyph-name="s" horiz-adv-x="1126" unicode="s"/><glyph d="M819 0h-409v102h-103v1024h-205v103h205v409h103v-409h409v-103h-409v-1024h409v-102z" glyph-name="t" horiz-adv-x="921" unicode="t"/><glyph d="M1024 0h-717v102h-102v1127h102v-1127h615v1127h102v-1229z" glyph-name="u" unicode="u"/><glyph d="M512 102h-205v103h-102v1024h102v-1024h205v-103zM922 205h-103v1024h103v-1024zM614 205h205v-103h-205v103zM614 0h-102v102h102v-102z" glyph-name="v" horiz-adv-x="1126" unicode="v"/><glyph d="M922 102h512v-102h-512v102h-103v1127h103v-1127zM307 102h512v-102h-512v102h-102v1127h102v-1127zM1536 102h-102v1127h102v-1127z" glyph-name="w" horiz-adv-x="1740" unicode="w"/><glyph d="M922 0h-103v512h-205v102h-102v103h-205v102h-102v410h102v-410h205v-102h102v-103h205v-102h103v-512zM205 512h102v-512h-102v512zM922 819h-103v410h103v-410zM307 614h205v-102h-205v102zM819 717h-205v102h205v-102z" glyph-name="x" horiz-adv-x="1126" unicode="x"/><glyph d="M1024 -307h-102v307h-615v102h-102v1127h102v-1127h615v1127h102v-1536zM307 -307h615v-103h-615v103z" glyph-name="y" unicode="y"/><glyph d="M922 0h-717v614h102v-512h615v-102zM922 717h-103v409h-614v103h717v-512zM819 614h-512v103h512v-103z" glyph-name="z" horiz-adv-x="1126" unicode="z"/><glyph d="M512 0h-205v102h-102v717h-103v103h103v614h102v-1434h205v-102zM512 1536h-205v102h205v-102z" glyph-name="braceleft" horiz-adv-x="716" unicode="{"/><glyph d="M307 0h-102v1638h102v-1638z" glyph-name="bar" horiz-adv-x="512" unicode="|"/><glyph d="M614 819h-102v-717h-102v1434h-205v102h205v-102h102v-614h102v-103zM205 102h205v-102h-205v102z" glyph-name="braceright" horiz-adv-x="819" unicode="}"/><glyph d="M512 1536h102v-102h103v-103h205v-102h-205v102h-103v103h-102v102h-205v102h205v-102zM307 1331h-102v205h102v-205zM1024 1331h-102v205h102v-205z" glyph-name="asciitilde" unicode="~"/><glyph d="M922 717v819h-615v102h615v-102h102v-1536h-102v614h-615v-614h-102v1536h102v-819h615zM819 1741h-102v102h102v-102zM512 1741h-102v102h102v-102z" glyph-name="uni0080"/><glyph d="M922 717v819h-615v102h615v-102h102v-1536h-102v614h-615v-614h-102v1536h102v-819h615zM819 1843h-102v205h-205v102h205v-102h102v-205zM717 1843v-102h-205v102h-102v205h102v-205h205z" glyph-name="uni0081"/><glyph d="M922 0h-205v-102h102v-205h-102v205h-205v102h-205v102h-102v1434h102v-1434h615v-102zM922 1536h-615v102h615v-102zM512 -307h205v-103h-205v103z" glyph-name="uni0082" horiz-adv-x="1126"/><glyph d="M922 0h-717v1638h717v-102h-615v-614h615v-103h-615v-717h615v-102zM717 2048h102v-102h-102v102zM512 1843h102v-102h-102v102zM614 1946h103v-103h-103v103zM922 2048h-103v102h103v-102z" glyph-name="uni0083" horiz-adv-x="1126"/><glyph d="M1126 0h-307v102h-102v512h-103v410h-102v512h-205v-1536h-102v1638h307v-102h102v-512h103v-410h102v-512h205v1536h102v-1638zM512 2048h102v-102h103v-103h205v-102h-205v102h-103v103h-102v102h-205v102h205v-102zM307 1843h-102v205h102v-205zM1024 1843h-102v205 h102v-205z" glyph-name="uni0084" horiz-adv-x="1331"/><glyph d="M1024 102h-102v1434h-615v102h615v-102h102v-1434zM922 102v-102h-615v102h-102v1434h102v-1434h615zM819 1741h-102v102h102v-102zM512 1741h-102v102h102v-102z" glyph-name="uni0085" unicode=""/><glyph d="M307 102h615v-102h-615v102h-102v1536h102v-1536zM1024 102h-102v1536h102v-1536zM819 1741h-102v102h102v-102zM512 1741h-102v102h102v-102z" glyph-name="uni0086"/><glyph d="M922 102v512h-615v103h615v409h-615v103h615v-103h102v-1126h-717v102h-102v512h102v-512h615zM819 1638h103v-102h-103v102zM614 1434h103v-103h-103v103zM717 1536h102v-102h-102v102zM1024 1638h-102v103h102v-103z" glyph-name="uni0087"/><glyph d="M922 102v512h-615v103h615v409h-615v103h615v-103h102v-1126h-717v102h-102v512h102v-512h615zM614 1331h-102v103h-102v102h-103v102h-102v103h102v-103h103v-102h102v-102h102v-103z" glyph-name="uni0088"/><glyph d="M922 102v512h-615v103h615v409h-615v103h615v-103h102v-1126h-717v102h-102v512h102v-512h615zM717 1536h102v-102h103v-103h-103v103h-102v102h-205v102h205v-102zM307 1434h103v-103h-103v103zM410 1536h102v-102h-102v102z" glyph-name="uni0089"/><glyph d="M922 102v512h-615v103h615v409h-615v103h615v-103h102v-1126h-717v102h-102v512h102v-512h615zM819 1331h-102v103h102v-103zM512 1331h-102v103h102v-103z" glyph-name="uni008A"/><glyph d="M922 102v512h-615v103h615v409h-615v103h615v-103h102v-1126h-717v102h-102v512h102v-512h615zM512 1638h102v-102h103v-102h205v-103h-205v103h-103v102h-102v102h-205v103h205v-103zM307 1434h-102v204h102v-204zM1024 1434h-102v204h102v-204z" glyph-name="uni008B"/><glyph d="M922 102v512h-615v103h615v409h-615v103h615v-103h102v-1126h-717v102h-102v512h102v-512h615zM819 1434h-102v204h-205v103h205v-103h102v-204zM717 1434v-103h-205v103h-102v204h102v-204h205z" glyph-name="uni008C"/><glyph d="M922 0h-205v-102h102v-205h-102v205h-205v102h-205v102h-102v1024h102v-1024h615v-102zM922 1126h-615v103h615v-103zM512 -307h205v-103h-205v103z" glyph-name="uni008D" horiz-adv-x="1126"/><glyph d="M922 717v409h-615v103h615v-103h102v-512h-717v-512h615v-102h-615v102h-102v1024h102v-409h615zM819 1638h103v-102h-103v102zM614 1434h103v-103h-103v103zM717 1536h102v-102h-102v102zM1024 1638h-102v103h102v-103z" glyph-name="uni008E"/><glyph d="M922 717v409h-615v103h615v-103h102v-512h-717v-512h615v-102h-615v102h-102v1024h102v-409h615zM614 1331h-102v103h-102v102h-103v102h-102v103h102v-103h103v-102h102v-102h102v-103z" glyph-name="uni008F"/><glyph d="M922 717v409h-615v103h615v-103h102v-512h-717v-512h615v-102h-615v102h-102v1024h102v-409h615zM717 1536h102v-102h103v-103h-103v103h-102v102h-205v102h205v-102zM307 1434h103v-103h-103v103zM410 1536h102v-102h-102v102z" glyph-name="uni0090"/><glyph d="M922 717v409h-615v103h615v-103h102v-512h-717v-512h615v-102h-615v102h-102v1024h102v-409h615zM819 1331h-102v103h102v-103zM512 1331h-102v103h102v-103z" glyph-name="uni0091"/><glyph d="M307 0h-102v1229h102v-1229zM410 1638h102v-102h-102v102zM205 1434h102v-103h-102v103zM307 1536h103v-102h-103v102zM614 1638h-102v103h102v-103z" glyph-name="uni0092" horiz-adv-x="512"/><glyph d="M307 1331h-102v103h-103v102h-102v102h-102v103h102v-103h102v-102h103v-102h102v-103zM307 0h-102v1229h102v-1229z" glyph-name="uni0093" horiz-adv-x="512"/><glyph d="M307 0h-102v1229h102v-1229zM358 1536h103v-102h102v-103h-102v103h-103v102h-204v102h204v-102zM-51 1434h102v-103h-102v103zM51 1536h103v-102h-103v102z" glyph-name="uni0094" horiz-adv-x="512"/><glyph d="M410 1331h-103v103h103v-103zM205 1331h-103v103h103v-103zM307 0h-102v1229h102v-1229z" glyph-name="uni0095" horiz-adv-x="512"/><glyph d="M1024 0h-102v1126h-615v-1126h-102v1229h717v-103h102v-1126zM512 1638h102v-102h103v-102h205v-103h-205v103h-103v102h-102v102h-205v103h205v-103zM307 1434h-102v204h102v-204zM1024 1434h-102v204h102v-204z" glyph-name="uni0096"/><glyph d="M1024 102h-102v1024h-615v103h615v-103h102v-1024zM922 102v-102h-615v102h-102v1024h102v-1024h615zM819 1638h103v-102h-103v102zM614 1434h103v-103h-103v103zM717 1536h102v-102h-102v102zM1024 1638h-102v103h102v-103z" glyph-name="uni0097"/><glyph d="M1024 102h-102v1024h-615v103h615v-103h102v-1024zM922 102v-102h-615v102h-102v1024h102v-1024h615zM614 1331h-102v103h-102v102h-103v102h-102v103h102v-103h103v-102h102v-102h102v-103z" glyph-name="uni0098"/><glyph d="M1024 102h-102v1024h-615v103h615v-103h102v-1024zM922 102v-102h-615v102h-102v1024h102v-1024h615zM717 1536h102v-102h103v-103h-103v103h-102v102h-205v102h205v-102zM307 1434h103v-103h-103v103zM410 1536h102v-102h-102v102z" glyph-name="uni0099"/><glyph d="M1024 102h-102v1024h-615v103h615v-103h102v-1024zM922 102v-102h-615v102h-102v1024h102v-1024h615zM819 1331h-102v103h102v-103zM512 1331h-102v103h102v-103z" glyph-name="uni009A"/><glyph d="M1024 102h-102v1024h-615v103h615v-103h102v-1024zM922 102v-102h-615v102h-102v1024h102v-1024h615zM512 1638h102v-102h103v-102h205v-103h-205v103h-103v102h-102v102h-205v103h205v-103zM307 1434h-102v204h102v-204zM1024 1434h-102v204h102v-204z" glyph-name="uni009B"/><glyph d="M1024 0h-717v102h-102v1127h102v-1127h615v1127h102v-1229zM819 1638h103v-102h-103v102zM614 1434h103v-103h-103v103zM717 1536h102v-102h-102v102zM1024 1638h-102v103h102v-103z" glyph-name="uni009C"/><glyph d="M614 1331h-102v103h-102v102h-103v102h-102v103h102v-103h103v-102h102v-102h102v-103zM1024 0h-717v102h-102v1127h102v-1127h615v1127h102v-1229z" glyph-name="uni009D"/><glyph d="M1024 0h-717v102h-102v1127h102v-1127h615v1127h102v-1229zM717 1536h102v-102h103v-103h-103v103h-102v102h-205v102h205v-102zM307 1434h103v-103h-103v103zM410 1536h102v-102h-102v102z" glyph-name="uni009E"/><glyph d="M819 1331h-102v103h102v-103zM512 1331h-102v103h102v-103zM1024 0h-717v102h-102v1127h102v-1127h615v1127h102v-1229z" glyph-name="uni009F"/><glyph d="M922 1126h-308v-1126h-102v1126h-307v103h307v409h102v-409h308v-103z" glyph-name="uni00A0" horiz-adv-x="1126" unicode=" "/><glyph d="M614 1331h-102v205h-205v102h205v-102h102v-205zM512 1331v-102h-205v102h-102v205h102v-205h205z" glyph-name="exclamdown" horiz-adv-x="819" unicode="¡"/><glyph d="M512 205v1024h-205v102h205v103h102v-103h205v-102h-205v-1024h205v-103h-205v-102h-102v102h-205v103h-102v1024h102v-1024h205z" glyph-name="cent" horiz-adv-x="1024" unicode="¢"/><glyph d="M922 0h-717v819h-103v103h103v614h102v-614h410v-103h-410v-717h615v-102zM717 1536h-410v102h410v-102z" glyph-name="sterling" horiz-adv-x="1126" unicode="£"/><glyph d="M410 717h-205v205h205v-205z" glyph-name="yen" horiz-adv-x="614" unicode="¥"/><glyph d="M205 1536h102v-1536h-102v1536zM1024 922h-102v614h-615v102h615v-102h102v-614zM1024 102h-102v717h-512v103h512v-103h102v-717zM410 102h512v-102h-512v102z" glyph-name="section" unicode="§"/><glyph d="M1126 512h-102v1024h-819v102h819v-102h102v-1024zM1024 512v-102h-819v102h-103v1024h103v-1024h819zM922 614h-512v103h-103v614h103v-614h512v-103zM922 1331h-512v103h512v-103z" glyph-name="copyright" unicode="©"/><glyph d="M1024 1331h102v-307h-102v307h-102v103h-103v-410h-102v614h102v-102h103v-102h102v-103zM614 1536h-204v-512h-103v512h-205v102h512v-102zM1434 1024h-103v410h-102v102h102v102h103v-614zM1126 1434h103v-103h-103v103z" glyph-name="ordfeminine" horiz-adv-x="1638" unicode="ª"/><glyph d="M614 1638h-102v103h102v-103zM205 1434h102v-103h-102v103zM307 1536h103v-102h-103v102zM410 1638h102v-102h-102v102z" glyph-name="guillemotleft" horiz-adv-x="819" unicode="«"/><glyph d="M717 1741h-103v102h103v-102zM410 1741h-103v102h103v-102z" glyph-name="logicalnot" horiz-adv-x="921" unicode="¬"/><glyph d="M717 614h-307v-409h-103v409h-102v103h205v205h-205v102h307v410h102v-410h103v-102h-205v-205h205v-103zM205 205h102v-205h-102v205zM717 1434h-103v204h103v-204z" glyph-name="uni00AD" horiz-adv-x="819" unicode="­"/><glyph d="M819 922v614h-102v-205h-103v307h820v-102h-512v-614h512v-103h-512v-717h512v-102h-615v819h-307v-102h-102v307h102v-102h307zM205 410h102v-410h-102v410zM307 717h103v-307h-103v307zM512 1331h102v-307h-102v307z" glyph-name="registered" horiz-adv-x="1638" unicode="®"/><glyph d="M1024 102h-102v1434h-103v-307h-102v307h-410v102h615v-102h102v-1434zM922 0h-615v102h-102v1434h102v-1434h103v308h102v-308h410v-102zM614 1229h103v-410h-103v410zM512 819h102v-409h-102v409z" glyph-name="macron" unicode="¯"/><glyph d="M1024 717v-103h-307v103h-103v307h-307v102h307v-102h103v-307h307zM614 717v-103h-307v103h-102v307h102v-307h307zM1126 717h-102v307h-307v102h307v-102h102v-307z" glyph-name="degree" horiz-adv-x="1331" unicode="°"/><glyph d="M717 819h-205v-205h-102v205h-205v103h205v204h102v-204h205v-103zM717 0h-512v102h512v-102z" glyph-name="plusminus" horiz-adv-x="921" unicode="±"/><glyph d="M614 512h-102v102h-102v103h-103v102h-102v103h102v-103h103v-102h102v-103h102v-102zM614 0h-409v102h409v-102zM410 1126h102v-102h-102v102zM307 1024h103v-102h-103v102zM614 1126h-102v103h102v-103z" glyph-name="uni00B2" horiz-adv-x="819" unicode="²"/><glyph d="M614 0h-409v102h409v-102zM512 922h-102v102h-103v102h-102v103h102v-103h103v-102h102v-102zM205 614h102v-102h-102v102zM307 717h103v-103h-103v103zM410 819h102v-102h-102v102zM614 819h-102v103h102v-103z" glyph-name="uni00B3" horiz-adv-x="819" unicode="³"/><glyph d="M307 102h615v-102h-615v-410h-102v1639h102v-1127zM1229 0h-205v102h-102v1127h102v-1127h205v-102z" glyph-name="uni00B5" unicode="µ"/><glyph d="M1024 102h-102v820h-615v102h615v512h-205v102h205v-102h102v-1434zM922 102v-102h-615v102h-102v820h102v-820h615z" glyph-name="paragraph" unicode="¶"/><glyph d="M922 717h-103v205h-512v102h-102v512h102v-512h512v-102h103v-205zM922 0h-615v102h-102v512h102v-512h615v-102zM922 1536h-615v102h615v-102zM819 614h-512v103h512v-103z" glyph-name="periodcentered" horiz-adv-x="1126" unicode="·"/><glyph d="M1126 0h-512v1536h-307v-1536h-102v1638h512v-1536h307v1536h102v-1638z" glyph-name="uni00B9" horiz-adv-x="1331" unicode="¹"/><glyph d="M307 1536h103v-1638h-103v1638zM102 -102h205v-103h-205v103zM614 1536h-204v102h204v-102z" glyph-name="ordmasculine" horiz-adv-x="716" unicode="º"/><glyph d="M922 717v409h-615v103h615v307h-615v102h615v-102h102v-922h-717v103h-102v409h102v-409h615z" glyph-name="guillemotright" unicode="»"/><glyph d="M1024 102h-102v1024h-103v-204h-102v204h-410v103h615v-103h102v-1024zM922 0h-615v102h-102v1024h102v-1024h103v205h102v-205h410v-102zM614 922h103v-308h-103v308zM512 614h102v-307h-102v307z" glyph-name="questiondown" unicode="¿"/><glyph d="M819 0h-614v102h-103v615h103v-615h614v-102zM614 922h-102v409h102v-409zM410 717h-205v102h205v-102zM512 819h-102v103h102v-103zM614 1536h-102v102h102v-102z" glyph-name="Agrave" horiz-adv-x="1024" unicode="À"/><glyph d="M307 1536h-102v102h102v-102zM307 0h-102v1331h102v-1331z" glyph-name="Aacute" horiz-adv-x="512" unicode="Á"/><glyph d="M717 0h-512v102h205v1434h-205v102h512v-102h-205v-1434h205v-102z" glyph-name="Acircumflex" horiz-adv-x="921" unicode="Â"/><glyph d="M512 0h-307v102h102v1434h-102v102h307v-102h-102v-1434h102v-102z" glyph-name="Atilde" horiz-adv-x="716" unicode="Ã"/><glyph d="M614 819h-204v-921h-103v921h-205v103h205v614h103v-614h204v-103zM102 -102h205v-103h-205v103zM614 1536h-204v102h204v-102z" glyph-name="Adieresis" horiz-adv-x="716" unicode="Ä"/><glyph d="M512 1229h102v-103h103v-102h205v-102h-205v102h-103v102h-102v103h-205v102h205v-102zM512 717h102v-103h103v-102h205v-102h-205v102h-103v102h-102v103h-205v102h205v-102zM1024 1024h-102v205h102v-205zM307 1024h-102v205h102v-205zM1024 512h-102v205h102v-205z M307 512h-102v205h102v-205z" glyph-name="Aring" unicode="Å"/><glyph d="M922 0h-717v102h205v1024h-205v103h205v307h102v-307h410v-103h-410v-1024h410v-102zM922 1536h-410v102h410v-102z" glyph-name="AE" horiz-adv-x="1126" unicode="Æ"/><glyph d="M1024 512h-102v102h-103v103h-102v102h-103v103h103v-103h102v-102h103v-103h102v-102zM614 512h-102v102h-102v103h-103v102h-102v103h102v-103h103v-102h102v-103h102v-102zM717 1024h102v-102h-102v102zM307 1024h103v-102h-103v102zM410 1126h102v-102h-102v102z M819 1126h103v-102h-103v102zM1024 1126h-102v103h102v-103zM614 1126h-102v103h102v-103z" glyph-name="Ccedilla" unicode="Ç"/><glyph d="M922 922h-103v102h-102v102h-103v103h103v-103h102v-102h103v-102zM512 922h-102v102h-103v102h-102v103h102v-103h103v-102h102v-102zM307 717h103v-103h-103v103zM410 819h102v-102h-102v102zM614 819h-102v103h102v-103zM819 819h103v-102h-103v102zM614 614h103v-102 h-103v102zM717 717h102v-103h-102v103zM205 614h102v-102h-102v102zM1024 819h-102v103h102v-103z" glyph-name="Egrave" unicode="È"/><glyph d="M922 0h-103v102h103v-102zM614 0h-102v102h102v-102zM307 0h-102v102h102v-102z" glyph-name="Eacute" horiz-adv-x="1126" unicode="É"/><glyph glyph-name="Ecircumflex" horiz-adv-x="512" unicode="Ê"/><glyph d="M922 717v819h-615v102h615v-102h102v-1536h-102v614h-615v-614h-102v1536h102v-819h615zM614 1741h-102v102h-102v103h-103v102h-102v102h102v-102h103v-102h102v-103h102v-102z" glyph-name="Edieresis" unicode="Ë"/><glyph d="M922 717v819h-615v102h615v-102h102v-1536h-102v614h-615v-614h-102v1536h102v-819h615zM512 2048h102v-102h103v-103h205v-102h-205v102h-103v103h-102v102h-205v102h205v-102zM307 1843h-102v205h102v-205zM1024 1843h-102v205h102v-205z" glyph-name="Igrave" unicode="Ì"/><glyph d="M1024 102h-102v1434h-615v102h615v-102h102v-1434zM922 102v-102h-615v102h-102v1434h102v-1434h615zM512 2048h102v-102h103v-103h205v-102h-205v102h-103v103h-102v102h-205v102h205v-102zM307 1843h-102v205h102v-205zM1024 1843h-102v205h102v-205z" glyph-name="Iacute" unicode="Í"/><glyph d="M819 102v1434h-512v102h1127v-102h-512v-614h512v-103h-512v-717h512v-102h-1127v102h-102v1434h102v-1434h512z" glyph-name="Icircumflex" horiz-adv-x="1638" unicode="Î"/><glyph d="M1434 717v409h-512v103h512v-103h102v-512h-614v-512h512v-102h-512v102h-103v1024h-512v103h512v-103h103v-409h512zM819 102v-102h-512v102h-102v1024h102v-1024h512z" glyph-name="Idieresis" horiz-adv-x="1740" unicode="Ï"/><glyph d="M922 819h-717v103h717v-103z" glyph-name="Eth" horiz-adv-x="1126" unicode="Ð"/><glyph d="M1331 819h-1126v103h1126v-103z" glyph-name="Ntilde" horiz-adv-x="1536" unicode="Ñ"/><glyph d="M922 1229h-103v102h-102v103h-103v204h103v-204h102v-103h103v-102zM512 1229h-102v102h-103v103h-102v204h102v-204h103v-103h102v-102z" glyph-name="Ograve" horiz-adv-x="1126" unicode="Ò"/><glyph d="M922 1434h-103v204h103v-204zM512 1434h-102v204h102v-204zM307 1434h103v-103h-103v103zM717 1434h102v-103h-102v103zM614 1331h103v-102h-103v102zM205 1331h102v-102h-102v102z" glyph-name="Oacute" horiz-adv-x="1126" unicode="Ó"/><glyph d="M512 1229h-102v102h-103v103h-102v204h102v-204h103v-103h102v-102z" glyph-name="Ocircumflex" horiz-adv-x="716" unicode="Ô"/><glyph d="M512 1434h-102v204h102v-204zM205 1331h102v-102h-102v102zM307 1434h103v-103h-103v103z" glyph-name="Otilde" horiz-adv-x="716" unicode="Õ"/><glyph d="M512 1126h-102v103h102v-103zM717 819h-512v103h512v-103zM512 512h-102v102h102v-102z" glyph-name="Odieresis" horiz-adv-x="921" unicode="Ö"/><glyph d="M922 0h-103v512h-512v-512h-102v819h102v-205h512v205h-102v307h-103v308h103v-308h102v-307h103v-819zM512 1126h-102v308h102v-308zM410 819h-103v307h103v-307zM614 1434h-102v204h102v-204z" glyph-name="multiply" horiz-adv-x="1126" unicode="×"/><glyph d="M1024 -307h-102v307h-615v102h-102v1127h102v-1127h615v1127h102v-1536zM307 -307h615v-103h-615v103zM819 1331h-102v103h102v-103zM512 1331h-102v103h102v-103z" glyph-name="Oslash" unicode="Ø"/><glyph d="M512 717h-102v205h-103v204h-102v512h102v-512h103v-204h102v-205zM614 0h-102v717h102v-717zM922 1126h-103v512h103v-512zM614 922h103v-205h-103v205zM717 1126h102v-204h-102v204zM819 1741h-102v102h102v-102zM410 1741h-103v102h103v-102z" glyph-name="Ugrave" horiz-adv-x="1126" unicode="Ù"/><glyph d="M512 1434h102v-410h-102v410zM307 614h103v-409h-103v409zM410 1024h102v-410h-102v410zM717 1434h-103v204h103v-204zM205 205h102v-205h-102v205z" glyph-name="Uacute" horiz-adv-x="921" unicode="Ú"/><glyph d="M1024 0h-614v102h-103v512h-102v103h102v205h-102v102h102v512h103v-512h614v-102h-614v-205h614v-103h-614v-512h614v-102zM1024 1536h-614v102h614v-102z" glyph-name="Ucircumflex" unicode="Û"/><glyph d="M614 512h-102v102h-102v103h-103v102h-102v103h102v-103h103v-102h102v-103h102v-102zM410 1126h102v-102h-102v102zM307 1024h103v-102h-103v102zM614 1126h-102v103h102v-103z" glyph-name="Udieresis" horiz-adv-x="819" unicode="Ü"/><glyph d="M512 922h-102v102h-103v102h-102v103h102v-103h103v-102h102v-102zM205 614h102v-102h-102v102zM307 717h103v-103h-103v103zM410 819h102v-102h-102v102zM614 819h-102v103h102v-103z" glyph-name="Yacute" horiz-adv-x="819" unicode="Ý"/><glyph d="M307 1536h103v-307h409v-103h-409v-1126h-103v1126h-205v103h205v307zM1024 0h-102v1229h102v-1229zM1024 1536h-614v102h614v-102z" glyph-name="Thorn" unicode="Þ"/><glyph d="M819 1126h-409v-1126h-103v1126h-205v103h205v307h103v-307h409v-103zM1024 0h-102v1638h102v-1638zM819 1536h-409v102h409v-102z" glyph-name="germandbls" unicode="ß"/><glyph d="M922 819h-308v-819h-102v819h-307v103h307v204h-307v103h307v409h102v-409h308v-103h-308v-204h308v-103z" glyph-name="agrave" horiz-adv-x="1126" unicode="à"/><glyph d="M307 819h-102v103h102v-103z" glyph-name="aacute" horiz-adv-x="512" unicode="á"/><glyph d="M512 -102h-102v204h102v-204zM205 -205h102v-102h-102v102zM307 -102h103v-103h-103v103z" glyph-name="acircumflex" horiz-adv-x="716" unicode="â"/><glyph d="M922 -102h-103v204h103v-204zM512 -102h-102v204h102v-204zM307 -102h103v-103h-103v103zM717 -102h102v-103h-102v103zM614 -205h103v-102h-103v102zM205 -205h102v-102h-102v102z" glyph-name="atilde" horiz-adv-x="1126" unicode="ã"/><glyph d="M1946 102h-103v410h-205v102h205v-102h103v-410zM1229 102v-102h-205v102h-102v410h102v-410h205zM1843 102v-102h-205v102h-102v410h102v-410h205zM512 1126v-102h-205v102h-102v410h102v-410h205zM1331 102h-102v410h-205v102h205v-102h102v-410zM614 1126h-102v410 h-205v102h205v-102h102v-410zM819 1434h103v-410h-103v410zM614 614h103v-409h-103v409zM717 1024h102v-410h-102v410zM1024 1434h-102v204h102v-204zM512 205h102v-205h-102v205z" glyph-name="adieresis" horiz-adv-x="2150" unicode="ä"/><glyph d="M922 717v819h-615v102h615v-102h102v-1536h-102v614h-615v-614h-102v1536h102v-819h615zM717 1946h102v-103h103v-102h-103v102h-102v103h-205v102h205v-102zM307 1843h103v-102h-103v102zM410 1946h102v-103h-102v103z" glyph-name="aring" unicode="å"/><glyph d="M922 0h-717v1638h717v-102h-615v-614h615v-103h-615v-717h615v-102zM717 1946h102v-103h103v-102h-103v102h-102v103h-205v102h205v-102zM307 1843h103v-102h-103v102zM410 1946h102v-103h-102v103z" glyph-name="ae" horiz-adv-x="1126" unicode="æ"/><glyph d="M922 717v819h-615v102h615v-102h102v-1536h-102v614h-615v-614h-102v1536h102v-819h615zM819 2048h103v-102h-103v102zM614 1843h103v-102h-103v102zM717 1946h102v-103h-102v103zM1024 2048h-102v102h102v-102z" glyph-name="ccedilla" unicode="ç"/><glyph d="M819 1741h-102v102h102v-102zM512 1741h-102v102h102v-102zM922 0h-717v1638h717v-102h-615v-614h615v-103h-615v-717h615v-102z" glyph-name="egrave" horiz-adv-x="1126" unicode="è"/><glyph d="M614 1741h-102v102h-102v103h-103v102h-102v102h102v-102h103v-102h102v-103h102v-102zM922 0h-717v1638h717v-102h-615v-614h615v-103h-615v-717h615v-102z" glyph-name="eacute" horiz-adv-x="1126" unicode="é"/><glyph d="M307 0h-102v1638h102v-1638zM410 2048h102v-102h-102v102zM205 1843h102v-102h-102v102zM307 1946h103v-103h-103v103zM614 2048h-102v102h102v-102z" glyph-name="ecircumflex" horiz-adv-x="512" unicode="ê"/><glyph d="M307 0h-102v1638h102v-1638zM358 1946h103v-103h102v-102h-102v102h-103v103h-204v102h204v-102zM-51 1843h102v-102h-102v102zM51 1946h103v-103h-103v103z" glyph-name="edieresis" horiz-adv-x="512" unicode="ë"/><glyph d="M410 1741h-103v102h103v-102zM205 1741h-103v102h103v-102zM307 0h-102v1638h102v-1638z" glyph-name="igrave" horiz-adv-x="512" unicode="ì"/><glyph d="M307 1741h-102v102h-103v103h-102v102h-102v102h102v-102h102v-102h103v-103h102v-102zM307 0h-102v1638h102v-1638z" glyph-name="iacute" horiz-adv-x="512" unicode="í"/><glyph d="M1024 102h-102v1434h-615v102h615v-102h102v-1434zM922 102v-102h-615v102h-102v1434h102v-1434h615zM819 2048h103v-102h-103v102zM614 1843h103v-102h-103v102zM717 1946h102v-103h-102v103zM1024 2048h-102v102h102v-102z" glyph-name="icircumflex" unicode="î"/><glyph d="M1024 102h-102v1434h-615v102h615v-102h102v-1434zM922 102v-102h-615v102h-102v1434h102v-1434h615zM717 1946h102v-103h103v-102h-103v102h-102v103h-205v102h205v-102zM307 1843h103v-102h-103v102zM410 1946h102v-103h-102v103z" glyph-name="idieresis" unicode="ï"/><glyph d="M1024 102h-102v1434h-615v102h615v-102h102v-1434zM922 102v-102h-615v102h-102v1434h102v-1434h615zM614 1741h-102v102h-102v103h-103v102h-102v102h102v-102h103v-102h102v-103h102v-102z" glyph-name="ntilde" unicode="ñ"/><glyph d="M307 102h615v-102h-615v102h-102v1536h102v-1536zM1024 102h-102v1536h102v-1536zM819 2048h103v-102h-103v102zM614 1843h103v-102h-103v102zM717 1946h102v-103h-102v103zM1024 2048h-102v102h102v-102z" glyph-name="ograve" unicode="ò"/><glyph d="M307 102h615v-102h-615v102h-102v1536h102v-1536zM1024 102h-102v1536h102v-1536zM717 1946h102v-103h103v-102h-103v102h-102v103h-205v102h205v-102zM307 1843h103v-102h-103v102zM410 1946h102v-103h-102v103z" glyph-name="oacute" unicode="ó"/><glyph d="M307 102h615v-102h-615v102h-102v1536h102v-1536zM1024 102h-102v1536h102v-1536zM614 1741h-102v102h-102v103h-103v102h-102v102h102v-102h103v-102h102v-103h102v-102z" glyph-name="ocircumflex" unicode="ô"/><glyph d="M307 0h-102v1229h102v-1229z" glyph-name="otilde" horiz-adv-x="512" unicode="õ"/><glyph d="M512 1536h102v-102h103v-103h-103v103h-102v102h-205v102h205v-102zM102 1434h103v-103h-103v103zM205 1536h102v-102h-102v102z" glyph-name="odieresis" horiz-adv-x="819" unicode="ö"/><glyph d="M512 1638h102v-102h103v-102h205v-103h-205v103h-103v102h-102v102h-205v103h205v-103zM307 1434h-102v204h102v-204zM1024 1434h-102v204h102v-204z" glyph-name="divide" unicode="÷"/><glyph d="M614 1536h-409v102h409v-102z" glyph-name="oslash" horiz-adv-x="819" unicode="ø"/><glyph d="M410 1434h204v-103h-204v103h-103v102h-102v102h102v-102h103v-102zM819 1536h-102v102h102v-102zM614 1536h103v-102h-103v102z" glyph-name="ugrave" horiz-adv-x="1024" unicode="ù"/><glyph d="M307 1536h-102v102h102v-102z" glyph-name="uacute" horiz-adv-x="512" unicode="ú"/><glyph d="M819 1434h-102v204h-205v103h205v-103h102v-204zM717 1434v-103h-205v103h-102v204h102v-204h205z" glyph-name="ucircumflex" unicode="û"/><glyph d="M819 -307h-102v205h-205v102h205v-102h102v-205zM512 -307h205v-103h-205v103z" glyph-name="udieresis" unicode="ü"/><glyph d="M1024 1638h-102v103h102v-103zM205 1434h102v-103h-102v103zM307 1536h103v-102h-103v102zM410 1638h102v-102h-102v102zM614 1638h-102v103h102v-103zM614 1434h103v-103h-103v103zM717 1536h102v-102h-102v102zM819 1638h103v-102h-103v102z" glyph-name="yacute" unicode="ý"/><glyph d="M819 -410h-205v103h-102v205h102v-205h205v-103zM819 -102h-205v102h205v-102z" glyph-name="thorn" unicode="þ"/><glyph d="M410 1434h204v-103h-204v103h-103v102h-102v102h102v-102h103v-102zM819 1536h-102v102h102v-102zM614 1536h103v-102h-103v102z" glyph-name="ydieresis" horiz-adv-x="1024" unicode="ÿ"/><glyph d="M1024 717h-102v819h-615v102h615v-102h102v-819zM922 717v-103h-615v103h-102v819h102v-819h615z" glyph-name="OE" unicode="Œ"/><glyph d="M922 410v-103h-615v103h-102v716h102v-716h615zM922 410v716h-615v103h615v-103h102v-716h-102zM1024 -307h-102v307h-615v102h-102v205h102v-205h615v-102h102v-307zM307 -307h615v-103h-615v103z" glyph-name="oe" unicode="œ"/><glyph d="M512 1126v410h-205v102h615v-1638h-103v1024h-205v-1024h-102v1024h-205v102h-102v410h102v-410h205zM819 1126v410h-205v-410h205z" glyph-name="Scaron" horiz-adv-x="1126" unicode="Š"/><glyph d="M922 614h-103v103h-102v102h-103v103h-204v-308h-103v820h512v-103h103v-307h-103v307h-409v-307h409v-102h-102v-103h102v-102h103v-103zM1126 512h-102v1024h-819v102h819v-102h102v-1024zM1024 512v-102h-819v102h-103v1024h103v-1024h819z" glyph-name="scaron" unicode="š"/><glyph d="M1434 717v409h-512v103h512v-103h102v-512h-614v-512h512v-102h-512v102h-103v512h-512v103h512v409h-512v103h512v-103h103v-409h512zM819 102v-102h-512v102h-102v512h102v-512h512z" glyph-name="Ydieresis" horiz-adv-x="1740" unicode="Ÿ"/><glyph d="M922 307h-308v-307h-102v307h-307v103h307v204h-307v103h205v307h-103v205h-102v409h102v-409h103v-205h102v-307h102v307h103v-307h205v-103h-308v-204h308v-103zM922 1229h-103v409h103v-409zM819 1024h-102v205h102v-205z" glyph-name="Zcaron" horiz-adv-x="1126" unicode="Ž"/><glyph d="M1434 0h-103v1536h-307v-1536h-410v1536h-307v-1536h-102v1638h512v-1536h205v1536h512v-1638z" glyph-name="zcaron" horiz-adv-x="1638" unicode="ž"/><glyph d="M819 614v-102h103v-410h-103v410h-205v102h-102v103h-205v102h-102v205h102v-205h205v-102h102v-103h205zM819 614v205h-205v103h-102v102h-205v102h-102v410h102v-410h205v-102h102v-102h205v-103h103v-205h-103zM922 1536h-615v102h615v-102zM205 102h614v-102h-614 v102z" glyph-name="Euro" horiz-adv-x="1126" unicode="€"/></font>
</defs>
</svg>
