<?xml version="1.0" standalone="no"?>
<!DOCTYPE svg PUBLIC "-//W3C//DTD SVG 1.1//EN" "http://www.w3.org/Graphics/SVG/1.1/DTD/svg11.dtd">
<svg xmlns="http://www.w3.org/2000/svg"><metadata>This SVG WebFont was generated by YouWorkForThem.
Copyright (c) 2001 by YouWorkForThem. All rights reserved.</metadata><defs><font horiz-adv-x="1269" id="ywftsvg"><font-face ascent="1638" bbox="-184 -424 1982 2167" cap-height="1638" descent="-410" font-family="" font-stretch="normal" font-weight="400" panose-1="2 0 3 3 0 0 0 0 0 0" underline-position="0" underline-thickness="0" unicode-range="U+0001-20AC" units-per-em="2048" x-height="1217"/><missing-glyph d="M102 0v1092h820v-1092h-820zM205 102h614v887h-614v-887z" horiz-adv-x="1024"/><glyph d="M102 0v1092h820v-1092h-820zM205 102h614v887h-614v-887z" glyph-name=".notdef" horiz-adv-x="1024"/><glyph glyph-name="glyph1" horiz-adv-x="0"/><glyph glyph-name="glyph2" horiz-adv-x="681"/><glyph d="M1030 106h-51v1428h-53v51h-635v-686h211v-53h-211v-793h635v-53h-688v846h-105v53h105v739h688v-53h53v-51h51v-1428zM979 106v-53h-53v53h53z" glyph-name="uni0001"/><glyph d="M1137 1270h-107v-1164h-51v846h-635v52h635v266h-213v51h213v213h-53v51h-160v53h160v-53h53v-51h51v-213h107v-51zM238 899h53v-793h53v-53h582v-53h-582v53h-53v53h-53v793zM979 106v-53h-53v53h53zM291 952h53v-53h-53v53z" glyph-name="uni0002"/><glyph d="M819 0h-581v846h-105v53h105v739h53v-739h211v-53h-211v-793h528v-53z" glyph-name="uni0003" horiz-adv-x="952"/><glyph d="M502 846h-211v-846h-53v846h-211v53h211v739h53v-739h211v-53z" glyph-name="uni0004" horiz-adv-x="528"/><glyph d="M926 106h-54v582h-53v51h-157v54h-54v53h-53v53h-53v53h-158v52h-53v53h-53v477h53v-477h53v-53h158v-52h53v-53h53v-53h54v-53h157v-54h53v-51h54v-582zM926 1585h-582v53h582v-53zM238 53h581v-53h-581v53zM449 1849h159v-51h-159v51h-52v54h-53v53h-53v53h-53v53h53 v-53h53v-53h53v-53h52v-54zM819 106h53v-53h-53v53zM819 2009h-53v53h53v-53zM608 1903h54v-54h-54v54zM662 1956h53v-53h-53v53zM344 1534h-53v51h53v-51zM715 2009h51v-53h-51v53z" glyph-name="uni0005" horiz-adv-x="1163"/><glyph d="M926 106h-54v369h-53v53h-157v54h-54v53h-53v53h-53v51h-158v54h-53v53h-53v264h53v-264h53v-53h158v-54h53v-51h53v-53h54v-53h157v-54h53v-53h54v-369zM926 1163h-582v54h582v-54zM238 53h581v-53h-581v53zM397 1481h52v-54h159v-53h-159v53h-52v54h-53v53h-53v51h-53 v53h53v-53h53v-51h53v-53zM344 1110h-53v53h53v-53zM819 106h53v-53h-53v53zM608 1481h54v-54h-54v54zM819 1585h-53v53h53v-53zM662 1534h53v-53h-53v53zM715 1585h51v-51h-51v51z" glyph-name="uni0006" horiz-adv-x="1163"/><glyph d="M555 688h53v-688h-53v688h-53v51h-158v54h-53v53h-53v792h53v-792h53v-53h158v-54h53v-51zM926 846h-54v792h54v-792zM662 793h157v-54h-157v54zM713 2009h53v-53h-53v53zM819 846h53v-53h-53v53zM819 2116h53v-54h-53v54zM608 1903h54v-54h-54v54zM766 2062h53v-53h-53 v53zM608 739h54v-51h-54v51zM662 1956h51v-53h-51v53zM555 1849h53v-51h-53v51zM926 2116h-54v51h54v-51z" glyph-name="uni0007" horiz-adv-x="1163"/><glyph d="M1030 -317h-51v317h-635v53h-53v53h-53v1111h53v-1111h53v-53h635v1164h51v-1534zM344 -371h582v-53h-582v53zM766 1534h53v-53h-53v53zM926 -317h53v-54h-53v54zM926 1692h53v-54h-53v54zM713 1481h53v-54h-53v54zM872 1638h54v-53h-54v53zM1030 1692h-51v53h51v-53z M819 1585h53v-51h-53v51zM662 1427h51v-53h-51v53z" glyph-name="uni0008"/><glyph glyph-name="space" horiz-adv-x="528" unicode=" "/><glyph d="M291 317h-53v1321h53v-1321zM291 0h-53v53h53v-53z" glyph-name="exclam" horiz-adv-x="528" unicode="!"/><glyph d="M608 1270h-53v368h53v-368zM291 1270h-53v368h53v-368z" glyph-name="quotedbl" horiz-adv-x="845" unicode="&quot;"/><glyph d="M1030 635h-211v-213h-53v213h-264v-213h-53v213h-211v51h211v266h-211v52h211v213h53v-213h264v213h53v-213h211v-52h-211v-266h211v-51zM766 686v266h-264v-266h264z" glyph-name="numbersign" unicode="#"/><glyph d="M555 899v582h-211v53h211v104h53v-104h318v-53h-318v-582h211v-53h53v-53h54v-582h-54v582h-53v53h-211v-688h211v-52h-211v-106h-53v106h-317v52h317v688h-211v53h-53v53h-53v475h53v-475h53v-53h211zM872 211v-53h-53v53h53zM291 1481h53v-54h-53v54z" glyph-name="dollar" horiz-adv-x="1163" unicode="$"/><glyph d="M238 1534h53v-371h53v-53h158v-53h-158v53h-53v53h-53v371zM608 1163h-53v371h-53v51h-158v53h158v-53h53v-51h53v-371zM1348 106h-54v369h-51v53h-160v54h160v-54h51v-53h54v-369zM979 475h51v-369h53v-53h160v-53h-160v53h-53v53h-51v369zM872 1427h54v-370h-54v370z M766 1004h53v-369h-53v369zM662 582h51v-371h-51v371zM555 158h53v-158h-53v158zM1030 1481h-51v157h51v-157zM713 635h53v-53h-53v53zM819 1057h53v-53h-53v53zM1030 528h53v-53h-53v53zM608 211h54v-53h-54v53zM926 1481h53v-54h-53v54zM555 1163v-53h-53v53h53zM1294 106 v-53h-51v53h51zM291 1585h53v-51h-53v51z" glyph-name="percent" horiz-adv-x="1585" unicode="%"/><glyph d="M872 53v793h-528v53h-53v53h-53v582h53v-582h53v-53h528v211h54v-211h104v-53h-104v-793h104v-53h-686v53h-53v53h-53v687h53v-687h53v-53h528zM926 1585h-582v53h582v-53zM291 846h53v-53h-53v53zM344 1534h-53v51h53v-51z" glyph-name="ampersand" unicode="&amp;"/><glyph d="M291 1270h-53v368h53v-368z" glyph-name="quotesingle" horiz-adv-x="528" unicode="'"/><glyph d="M502 0h-158v53h-53v53h-53v1428h53v-1428h53v-53h158v-53zM502 1585h-158v53h158v-53zM291 1585h53v-51h-53v51z" glyph-name="parenleft" horiz-adv-x="739" unicode="("/><glyph d="M502 106h-53v1428h53v-1428zM449 1534h-52v51h-159v53h159v-53h52v-51zM238 53h159v-53h-159v53zM397 106h52v-53h-52v53z" glyph-name="parenright" horiz-adv-x="739" unicode=")"/><glyph d="M713 1585h-51v53h51v-53zM291 1585h-53v53h53v-53zM713 1374h-211v-211h-53v211h-211v53h211v211h53v-211h211v-53zM713 1163h-51v54h51v-54zM291 1163h-53v54h53v-54z" glyph-name="asterisk" horiz-adv-x="952" unicode="*"/><glyph d="M713 846h-211v-211h-53v211h-211v53h211v211h53v-211h211v-53z" glyph-name="plus" horiz-adv-x="952" unicode="+"/><glyph d="M291 -106h-53v159h53v-159z" glyph-name="comma" horiz-adv-x="528" unicode=","/><glyph d="M608 846h-370v53h370v-53z" glyph-name="hyphen" horiz-adv-x="845" unicode="-"/><glyph d="M291 0h-53v53h53v-53z" glyph-name="period" horiz-adv-x="528" unicode="."/><glyph d="M555 1427h53v-370h-53v370zM344 582h53v-371h-53v371zM449 1004h53v-369h-53v369zM238 158h53v-158h-53v158zM713 1481h-51v157h51v-157zM608 1481h54v-54h-54v54zM291 211h53v-53h-53v53zM502 1057h53v-53h-53v53zM397 635h52v-53h-52v53z" glyph-name="slash" horiz-adv-x="952" unicode="/"/><glyph d="M238 1534h53v-1428h53v-53h582v-53h-582v53h-53v53h-53v1428zM1030 106h-51v1428h-53v51h-582v53h582v-53h53v-51h51v-1428zM979 106v-53h-53v53h53zM291 1585h53v-51h-53v51z" glyph-name="zero" unicode="0"/><glyph d="M713 0h-475v53h211v1532h-211v53h264v-1585h211v-53z" glyph-name="one" horiz-adv-x="845" unicode="1"/><glyph d="M1030 0h-792v793h53v-740h739v-53zM1030 952h-51v582h-53v51h-688v53h688v-53h53v-51h51v-582zM926 846h-582v53h582v-53zM979 899h-53v53h53v-53zM344 793h-53v53h53v-53z" glyph-name="two" unicode="2"/><glyph d="M926 106h-54v687h-53v53h-581v53h581v-53h53v-53h54v-687zM926 952h-54v582h-53v51h-581v53h581v-53h53v-51h54v-582zM238 53h581v-53h-581v53zM872 899h-53v53h53v-53zM819 106h53v-53h-53v53z" glyph-name="three" horiz-adv-x="1163" unicode="3"/><glyph d="M926 0h-54v739h-634v899h53v-845h581v845h54v-1638z" glyph-name="four" horiz-adv-x="1163" unicode="4"/><glyph d="M1030 106h-51v687h-53v53h-688v792h792v-53h-739v-686h635v-53h53v-53h51v-687zM344 53h582v-53h-582v53h-53v53h-53v265h53v-265h53v-53zM926 106h53v-53h-53v53z" glyph-name="five" unicode="5"/><glyph d="M1030 106h-51v793h-53v53h-635v-846h53v-53h582v-53h-582v53h-53v53h-53v1428h53v-530h635v-52h53v-53h51v-793zM926 1585h-582v53h582v-53zM979 106v-53h-53v53h53zM291 1585h53v-51h-53v51z" glyph-name="six" unicode="6"/><glyph d="M819 1270h-53v315h-633v53h686v-368zM449 582h53v-582h-53v582zM555 899h53v-264h-53v264zM662 1217h51v-265h-51v265zM608 952h54v-53h-54v53zM713 1270h53v-53h-53v53zM502 635h53v-53h-53v53z" glyph-name="seven" horiz-adv-x="1056" unicode="7"/><glyph d="M1030 106h-51v687h-53v53h-582v53h-53v53h-53v582h53v-582h53v-53h582v-53h53v-53h51v-687zM238 793h53v-687h53v-53h582v-53h-582v53h-53v53h-53v687zM979 952v582h-53v51h-582v53h582v-53h53v-51h51v-582h-51zM291 846h53v-53h-53v53zM979 952v-53h-53v53h53zM979 106 v-53h-53v53h53zM291 1585h53v-51h-53v51z" glyph-name="eight" unicode="8"/><glyph d="M979 688v846h-53v51h-582v53h582v-53h53v-51h51v-1428h-51v529h-635v53h-53v51h-53v795h53v-795h53v-51h635zM344 53h582v-53h-582v53zM926 106h53v-53h-53v53zM291 1585h53v-51h-53v51z" glyph-name="nine" unicode="9"/><glyph d="M291 846h-53v53h53v-53zM291 0h-53v53h53v-53z" glyph-name="colon" horiz-adv-x="528" unicode=":"/><glyph d="M291 846h-53v53h53v-53zM291 -106h-53v159h53v-159z" glyph-name="semicolon" horiz-adv-x="528" unicode=";"/><glyph d="M608 528h-53v54h-53v53h-53v53h-52v51h-53v107h-106v53h106v105h53v-265h52v-51h53v-53h53v-53h53v-54zM608 1163h-53v54h53v-54zM555 1110h-53v53h53v-53zM502 1057h-53v53h53v-53zM449 1004h-52v53h52v-53z" glyph-name="less" horiz-adv-x="845" unicode="&lt;"/><glyph d="M608 952h-370v52h370v-52zM608 635h-370v53h370v-53z" glyph-name="equal" horiz-adv-x="845" unicode="="/><glyph d="M608 846h-106v-107h-53v265h-52v53h-53v53h-53v53h-53v54h53v-54h53v-53h53v-53h52v-53h53v-105h106v-53zM238 582h53v-54h-53v54zM291 635h53v-53h-53v53zM344 688h53v-53h-53v53zM397 739h52v-51h-52v51z" glyph-name="greater" horiz-adv-x="845" unicode=">"/><glyph d="M819 952h-53v582h-53v51h-580v53h580v-53h53v-51h53v-582zM344 688h53v-371h-53v371zM555 899h158v-53h-158v53zM713 952h53v-53h-53v53zM449 793h53v-54h-53v54zM502 846h53v-53h-53v53zM397 0h-53v53h53v-53zM397 739h52v-51h-52v51z" glyph-name="question" horiz-adv-x="1056" unicode="?"/><glyph d="M1083 475v635h-53v53h-368v54h368v-54h53v-53h54v-635h211v-53h-686v53h-54v53h-53v582h53v-582h54v-53h421zM238 1534h53v-1428h53v-53h793v-53h-793v53h-53v53h-53v1428zM1454 528h-53v1006h-53v51h-1004v53h1004v-53h53v-51h53v-1006zM608 1163h54v-53h-54v53z M1348 528h53v-53h-53v53zM291 1585h53v-51h-53v51z" glyph-name="at" horiz-adv-x="1691" unicode="@"/><glyph d="M979 688v846h-53v51h-582v53h582v-53h53v-51h51v-1534h-51v635h-688v-635h-53v1534h53v-846h688zM291 1585h53v-51h-53v51z" glyph-name="A" unicode="A"/><glyph d="M1030 106h-51v687h-53v53h-635v-793h635v-53h-688v1638h688v-53h53v-51h51v-582h-51v582h-53v51h-635v-686h635v-53h53v-53h51v-687zM979 106v-53h-53v53h53zM979 952v-53h-53v53h53z" glyph-name="B" unicode="B"/><glyph d="M926 0h-582v53h-53v53h-53v1428h53v-1428h53v-53h582v-53zM926 1585h-582v53h582v-53zM291 1585h53v-51h-53v51z" glyph-name="C" horiz-adv-x="1056" unicode="C"/><glyph d="M1030 106h-51v1428h-53v51h-635v-1532h635v-53h-688v1638h688v-53h53v-51h51v-1428zM979 106v-53h-53v53h53z" glyph-name="D" unicode="D"/><glyph d="M926 0h-688v1638h688v-53h-635v-686h635v-53h-635v-793h635v-53z" glyph-name="E" horiz-adv-x="1163" unicode="E"/><glyph d="M819 846h-528v-846h-53v1638h581v-53h-528v-686h528v-53z" glyph-name="F" horiz-adv-x="1056" unicode="F"/><glyph d="M1030 0h-686v53h-53v53h-53v1428h53v-1428h53v-53h635v793h-317v53h368v-899zM1030 1585h-686v53h686v-53zM291 1585h53v-51h-53v51z" glyph-name="G" unicode="G"/><glyph d="M1030 0h-51v846h-688v-846h-53v1638h53v-739h688v739h51v-1638z" glyph-name="H" unicode="H"/><glyph d="M291 0h-53v1638h53v-1638z" glyph-name="I" horiz-adv-x="528" unicode="I"/><glyph d="M713 106h-51v1532h51v-1532zM133 53h475v-53h-475v53zM662 53h-54v53h54v-53z" glyph-name="J" horiz-adv-x="952" unicode="J"/><glyph d="M819 0h-53v475h-53v53h-51v265h-54v53h-317v-846h-53v1638h53v-739h317v-53h54v-53h51v-265h53v-53h53v-475zM819 1268h-53v370h53v-370zM713 952h-51v265h51v-265zM662 899h-54v53h54v-53zM766 1217h-53v51h53v-51z" glyph-name="K" horiz-adv-x="1056" unicode="K"/><glyph d="M819 0h-581v1638h53v-1585h528v-53z" glyph-name="L" horiz-adv-x="952" unicode="L"/><glyph d="M766 158h53v-158h-53v158h-53v53h-51v582h-54v53h-53v688h-53v51h-211v-1585h-53v1638h264v-53h53v-51h53v-688h54v-53h51v-582h53v-53zM1348 0h-54v1585h-211v53h265v-1638zM979 1534h51v-688h-51v688zM872 793h54v-582h-54v582zM926 846h53v-53h-53v53zM819 211h53v-53 h-53v53zM1030 1585h53v-51h-53v51z" glyph-name="M" horiz-adv-x="1585" unicode="M"/><glyph d="M1137 0h-265v53h-53v53h-53v476h-53v53h-51v369h-54v53h-53v477h-53v51h-211v-1585h-53v1638h264v-53h53v-51h53v-477h54v-53h51v-369h53v-53h53v-476h53v-53h211v1585h54v-1638z" glyph-name="N" horiz-adv-x="1374" unicode="N"/><glyph d="M238 1534h53v-1428h53v-53h582v-53h-582v53h-53v53h-53v1428zM1030 106h-51v1428h-53v51h-582v53h582v-53h53v-51h51v-1428zM979 106v-53h-53v53h53zM291 1585h53v-51h-53v51z" glyph-name="O" unicode="O"/><glyph d="M1030 739h-51v795h-53v51h-635v-897h635v-53h-635v-635h-53v1638h688v-53h53v-51h51v-795zM979 739v-51h-53v51h53z" glyph-name="P" unicode="P"/><glyph d="M979 53v1481h-53v51h-582v53h582v-53h53v-51h51v-1745h-51v211h-635v53h-53v53h-53v1428h53v-1428h53v-53h635zM291 1585h53v-51h-53v51z" glyph-name="Q" unicode="Q"/><glyph d="M1030 0h-51v158h-53v53h-54v160h-53v51h-53v160h-53v53h-422v-635h-53v1638h688v-53h53v-51h51v-795h-51v795h-53v51h-635v-897h635v-53h-160v-53h53v-160h53v-51h54v-160h53v-53h51v-158zM979 739v-51h-53v51h53z" glyph-name="R" unicode="R"/><glyph d="M926 106h-54v687h-53v53h-475v53h-53v53h-53v582h53v-582h53v-53h475v-53h53v-53h54v-687zM238 53h581v-53h-581v53zM926 1585h-582v53h582v-53zM819 106h53v-53h-53v53zM291 1585h53v-51h-53v51z" glyph-name="S" horiz-adv-x="1163" unicode="S"/><glyph d="M819 1585h-317v-1585h-53v1585h-316v53h686v-53z" glyph-name="T" horiz-adv-x="952" unicode="T"/><glyph d="M344 53h582v-53h-582v53h-53v53h-53v1532h53v-1532h53v-53zM1030 106h-51v1532h51v-1532zM926 106h53v-53h-53v53z" glyph-name="U" unicode="U"/><glyph d="M555 53h53v-53h-53v53h-53v53h-158v52h-53v53h-53v1427h53v-1427h53v-53h158v-52h53v-53zM926 211h-54v1427h54v-1427zM662 158h157v-52h-157v52zM608 106h54v-53h-54v53zM819 211h53v-53h-53v53z" glyph-name="V" horiz-adv-x="1163" unicode="V"/><glyph d="M979 53h475v-53h-475v53h-53v53h-54v1532h54v-1532h53v-53zM344 53h475v-53h-475v53h-53v53h-53v1532h53v-1532h53v-53zM1559 106h-52v1532h52v-1532zM819 106h53v-53h-53v53zM1454 106h53v-53h-53v53z" glyph-name="W" horiz-adv-x="1798" unicode="W"/><glyph d="M926 0h-54v688h-53v51h-157v54h-54v53h-53v53h-53v53h-158v52h-53v53h-53v581h53v-581h53v-53h158v-52h53v-53h53v-53h54v-53h157v-54h53v-51h54v-688zM238 688h53v-688h-53v688zM926 1057h-54v581h54v-581zM344 793h158v-54h-158v54zM819 952h-157v52h157v-52zM662 899 h-54v53h54v-53zM872 1004h-53v53h53v-53zM502 846h53v-53h-53v53zM291 739h53v-51h-53v51z" glyph-name="X" horiz-adv-x="1163" unicode="X"/><glyph d="M555 688h53v-688h-53v688h-53v51h-158v54h-53v53h-53v792h53v-792h53v-53h158v-54h53v-51zM926 846h-54v792h54v-792zM662 793h157v-54h-157v54zM819 846h53v-53h-53v53zM608 739h54v-51h-54v51z" glyph-name="Y" horiz-adv-x="1163" unicode="Y"/><glyph d="M926 0h-688v793h53v-740h635v-53zM926 952h-54v633h-634v53h688v-686zM819 846h-475v53h475v-53zM872 899h-53v53h53v-53zM344 793h-53v53h53v-53z" glyph-name="Z" horiz-adv-x="1163" unicode="Z"/><glyph d="M502 0h-264v1638h264v-53h-211v-1532h211v-53z" glyph-name="bracketleft" horiz-adv-x="739" unicode="["/><glyph d="M713 0h-51v158h-54v53h-53v371h-53v53h-53v369h-52v53h-53v370h-53v54h-53v157h53v-157h53v-54h53v-370h52v-53h53v-369h53v-53h53v-371h54v-53h51v-158z" glyph-name="backslash" horiz-adv-x="952" unicode="\"/><glyph d="M502 0h-264v53h211v1532h-211v53h264v-1638z" glyph-name="bracketright" horiz-adv-x="739" unicode="]"/><glyph d="M397 1585h52v-51h53v-53h53v-54h53v-53h-53v53h-53v54h-53v53h-52v51h-53v53h53v-53zM184 1481h54v-54h-54v54zM238 1534h53v-53h-53v53zM291 1585h53v-51h-53v51zM133 1427h51v-53h-51v53z" glyph-name="asciicircum" horiz-adv-x="739" unicode="^"/><glyph d="M819 -211h-792v53h792v-53z" glyph-name="underscore" horiz-adv-x="845" unicode="_"/><glyph d="M608 1374h-53v53h-53v54h-53v53h-52v51h-53v53h-53v54h-53v53h53v-53h53v-54h53v-53h52v-51h53v-53h53v-54h53v-53z" glyph-name="grave" horiz-adv-x="845" unicode="`"/><glyph d="M979 53v582h-635v53h635v422h-53v53h-582v54h582v-54h53v-53h51v-1110h-686v53h-53v53h-53v476h53v-476h53v-53h635zM291 635h53v-53h-53v53z" glyph-name="a" unicode="a"/><glyph d="M1030 106h-51v1004h-53v53h-635v-1110h635v-53h-688v1638h53v-421h635v-54h53v-53h51v-1004zM979 106v-53h-53v53h53z" glyph-name="b" unicode="b"/><glyph d="M926 0h-582v53h-53v53h-53v1004h53v-1004h53v-53h582v-53zM926 1163h-582v54h582v-54zM344 1110h-53v53h53v-53z" glyph-name="c" horiz-adv-x="1163" unicode="c"/><glyph d="M979 53v1110h-635v54h635v421h51v-1638h-686v53h-53v53h-53v1004h53v-1004h53v-53h635zM291 1163h53v-53h-53v53z" glyph-name="d" unicode="d"/><glyph d="M979 688v422h-53v53h-582v54h582v-54h53v-53h51v-475h-739v-529h53v-53h582v-53h-582v53h-53v53h-53v1004h53v-422h688zM291 1163h53v-53h-53v53z" glyph-name="e" unicode="e"/><glyph d="M819 1163h-422v-1163h-53v1163h-211v54h211v317h53v-317h422v-54zM819 1585h-370v53h370v-53zM449 1534h-52v51h52v-51z" glyph-name="f" horiz-adv-x="952" unicode="f"/><glyph d="M979 53v1110h-635v54h686v-1534h-51v317h-635v53h-53v53h-53v1004h53v-1004h53v-53h635zM344 -371h582v-53h-582v53zM926 -317h53v-54h-53v54zM291 1163h53v-53h-53v53z" glyph-name="g" unicode="g"/><glyph d="M1030 0h-51v1110h-53v53h-635v-1163h-53v1638h53v-421h635v-54h53v-53h51v-1110z" glyph-name="h" unicode="h"/><glyph d="M291 1585h-53v53h53v-53zM291 0h-53v1217h53v-1217z" glyph-name="i" horiz-adv-x="528" unicode="i"/><glyph d="M291 -317h-53v1534h53v-1534zM-184 -371h368v-53h-368v53zM184 -317h54v-54h-54v54zM291 1585h-53v53h53v-53z" glyph-name="j" horiz-adv-x="528" unicode="j"/><glyph d="M819 0h-53v371h-53v53h-51v158h-54v53h-317v-635h-53v1638h53v-950h317v-53h54v-53h51v-158h53v-53h53v-371zM819 952h-53v265h53v-265zM713 739h-51v160h51v-160zM766 899h-53v53h53v-53zM662 688h-54v51h54v-51z" glyph-name="k" horiz-adv-x="1056" unicode="k"/><glyph d="M291 0h-53v1638h53v-1638z" glyph-name="l" horiz-adv-x="528" unicode="l"/><glyph d="M872 1110h54v-1110h-54v1110h-53v53h-528v-1163h-53v1217h581v-54h53v-53zM1559 0h-52v1110h-53v53h-475v54h475v-54h53v-53h52v-1110zM926 1163h53v-53h-53v53z" glyph-name="m" horiz-adv-x="1798" unicode="m"/><glyph d="M1030 0h-51v1110h-53v53h-635v-1163h-53v1217h688v-54h53v-53h51v-1110z" glyph-name="n" unicode="n"/><glyph d="M238 1110h53v-1004h53v-53h582v-53h-582v53h-53v53h-53v1004zM1030 106h-51v1004h-53v53h-582v54h582v-54h53v-53h51v-1004zM979 106v-53h-53v53h53zM291 1163h53v-53h-53v53z" glyph-name="o" unicode="o"/><glyph d="M1030 106h-51v1004h-53v53h-635v-1110h635v-53h-635v-424h-53v1641h688v-54h53v-53h51v-1004zM979 106v-53h-53v53h53z" glyph-name="p" unicode="p"/><glyph d="M979 53v1110h-635v54h686v-1641h-51v424h-635v53h-53v53h-53v1004h53v-1004h53v-53h635zM291 1163h53v-53h-53v53z" glyph-name="q" unicode="q"/><glyph d="M291 1110h211v-53h-211v-1057h-53v1217h53v-107zM819 1163h-264v54h264v-54zM502 1163h53v-53h-53v53z" glyph-name="r" horiz-adv-x="952" unicode="r"/><glyph d="M926 106h-54v476h-53v53h-475v53h-53v51h-53v371h53v-371h53v-51h475v-53h53v-53h54v-476zM238 53h581v-53h-581v53zM926 1163h-582v54h582v-54zM819 106h53v-53h-53v53zM344 1110h-53v53h53v-53z" glyph-name="s" horiz-adv-x="1163" unicode="s"/><glyph d="M819 0h-370v53h-52v53h-53v1057h-211v54h211v421h53v-421h422v-54h-422v-1057h52v-53h370v-53z" glyph-name="t" horiz-adv-x="952" unicode="t"/><glyph d="M1030 0h-686v53h-53v53h-53v1111h53v-1111h53v-53h635v1164h51v-1217z" glyph-name="u" unicode="u"/><glyph d="M555 53h53v-53h-53v53h-53v53h-158v52h-53v53h-53v1006h53v-1006h53v-53h158v-52h53v-53zM926 211h-54v1006h54v-1006zM662 158h157v-52h-157v52zM608 106h54v-53h-54v53zM819 211h53v-53h-53v53z" glyph-name="v" horiz-adv-x="1163" unicode="v"/><glyph d="M979 53h475v-53h-475v53h-53v53h-54v1111h54v-1111h53v-53zM344 53h475v-53h-475v53h-53v53h-53v1111h53v-1111h53v-53zM1559 106h-52v1111h52v-1111zM819 106h53v-53h-53v53zM1454 106h53v-53h-53v53z" glyph-name="w" horiz-adv-x="1798" unicode="w"/><glyph d="M926 0h-54v475h-53v53h-157v54h-54v53h-53v53h-53v51h-158v54h-53v53h-53v371h53v-371h53v-53h158v-54h53v-51h53v-53h54v-53h157v-54h53v-53h54v-475zM238 475h53v-475h-53v475zM926 846h-54v371h54v-371zM344 582h158v-54h-158v54zM819 739h-157v54h157v-54zM872 793 h-53v53h53v-53zM291 528h53v-53h-53v53zM502 635h53v-53h-53v53zM662 688h-54v51h54v-51z" glyph-name="x" horiz-adv-x="1163" unicode="x"/><glyph d="M1030 -317h-51v317h-635v53h-53v53h-53v1111h53v-1111h53v-53h635v1164h51v-1534zM344 -371h582v-53h-582v53zM926 -317h53v-54h-53v54z" glyph-name="y" unicode="y"/><glyph d="M926 0h-688v582h53v-529h635v-53zM926 739h-54v424h-634v54h688v-478zM819 635h-475v53h475v-53zM344 582h-53v53h53v-53zM872 688h-53v51h53v-51z" glyph-name="z" horiz-adv-x="1163" unicode="z"/><glyph d="M502 0h-158v53h-53v53h-53v740h-105v53h105v635h53v-1428h53v-53h158v-53zM502 1585h-158v53h158v-53zM291 1585h53v-51h-53v51z" glyph-name="braceleft" horiz-adv-x="739" unicode="{"/><glyph d="M291 0h-53v1638h53v-1638z" glyph-name="bar" horiz-adv-x="528" unicode="|"/><glyph d="M608 846h-106v-740h-53v1428h-52v51h-159v53h159v-53h52v-51h53v-635h106v-53zM238 53h159v-53h-159v53zM397 106h52v-53h-52v53z" glyph-name="braceright" horiz-adv-x="845" unicode="}"/><glyph d="M502 1585h53v-51h53v-53h54v-54h53v-53h51v-53h160v-51h-160v51h-51v53h-53v53h-54v54h-53v53h-53v51h-158v53h158v-53zM291 1374h-53v160h53v-160zM1030 1374h-51v160h51v-160zM979 1321h-53v53h53v-53zM344 1534h-53v51h53v-51z" glyph-name="asciitilde" unicode="~"/><glyph d="M979 688v846h-53v51h-582v53h582v-53h53v-51h51v-1534h-51v635h-688v-635h-53v1534h53v-846h688zM291 1585h53v-51h-53v51zM819 1798h-53v51h53v-51zM502 1798h-53v51h53v-51z" glyph-name="uni0080"/><glyph d="M979 688v846h-53v51h-582v53h582v-53h53v-51h51v-1534h-51v635h-688v-635h-53v1534h53v-846h688zM819 1903h-53v159h-53v54h-158v51h158v-51h53v-54h53v-159zM449 2062h53v-159h53v-54h158v-51h-158v51h-53v54h-53v159zM766 1903v-54h-53v54h53zM502 2116h53v-54h-53v54z M291 1585h53v-51h-53v51z" glyph-name="uni0081"/><glyph d="M926 0h-213v-106h53v-52h53v-159h-53v159h-53v52h-158v106h-211v53h-53v53h-53v1428h53v-1428h53v-53h582v-53zM926 1585h-582v53h582v-53zM555 -371h158v-53h-158v53zM713 -317h53v-54h-53v54zM291 1585h53v-51h-53v51z" glyph-name="uni0082" horiz-adv-x="1163"/><glyph d="M926 0h-688v1638h688v-53h-635v-686h635v-53h-635v-793h635v-53zM819 2116h53v-54h-53v54zM713 2009h53v-53h-53v53zM608 1903h54v-54h-54v54zM766 2062h53v-53h-53v53zM926 2116h-54v51h54v-51zM662 1956h51v-53h-51v53zM555 1849h53v-51h-53v51z" glyph-name="uni0083" horiz-adv-x="1163"/><glyph d="M1137 0h-265v53h-53v53h-53v476h-53v53h-51v369h-54v53h-53v477h-53v51h-211v-1585h-53v1638h264v-53h53v-51h53v-477h54v-53h51v-369h53v-53h53v-476h53v-53h211v1585h54v-1638zM502 2116h53v-54h53v-53h54v-53h51v-53h53v-54h160v-51h-160v51h-53v54h-51v53h-54v53h-53 v53h-53v54h-158v51h158v-51zM238 2062h53v-159h-53v159zM1030 1903h-51v159h51v-159zM344 2062h-53v54h53v-54zM979 1849h-53v54h53v-54z" glyph-name="uni0084" horiz-adv-x="1374"/><glyph d="M238 1534h53v-1428h53v-53h582v-53h-582v53h-53v53h-53v1428zM1030 106h-51v1428h-53v51h-582v53h582v-53h53v-51h51v-1428zM979 106v-53h-53v53h53zM291 1585h53v-51h-53v51zM502 1798h-53v51h53v-51zM819 1798h-53v51h53v-51z" glyph-name="uni0085" unicode=""/><glyph d="M344 53h582v-53h-582v53h-53v53h-53v1532h53v-1532h53v-53zM1030 106h-51v1532h51v-1532zM926 106h53v-53h-53v53zM819 1798h-53v51h53v-51zM502 1798h-53v51h53v-51z" glyph-name="uni0086"/><glyph d="M979 53v582h-635v53h635v422h-53v53h-582v54h582v-54h53v-53h51v-1110h-686v53h-53v53h-53v476h53v-476h53v-53h635zM291 635h53v-53h-53v53zM926 1692h53v-54h-53v54zM766 1534h53v-53h-53v53zM713 1481h53v-54h-53v54zM872 1638h54v-53h-54v53zM819 1585h53v-51h-53v51 zM1030 1692h-51v53h51v-53zM662 1427h51v-53h-51v53z" glyph-name="uni0087"/><glyph d="M979 53v582h-635v53h635v422h-53v53h-582v54h582v-54h53v-53h51v-1110h-686v53h-53v53h-53v476h53v-476h53v-53h635zM608 1374h-53v53h-53v54h-53v53h-52v51h-53v53h-53v54h-53v53h53v-53h53v-54h53v-53h52v-51h53v-53h53v-54h53v-53zM291 635h53v-53h-53v53z" glyph-name="uni0088"/><glyph d="M979 53v582h-635v53h635v422h-53v53h-582v54h582v-54h53v-53h51v-1110h-686v53h-53v53h-53v476h53v-476h53v-53h635zM926 1374h-54v53h-53v54h-53v53h-51v51h51v-51h53v-53h53v-54h54v-53zM713 1585h-158v53h158v-53zM344 1427h53v-53h-53v53zM449 1534h53v-53h-53v53z M291 635h53v-53h-53v53zM502 1585h53v-51h-53v51zM397 1481h52v-54h-52v54z" glyph-name="uni0089"/><glyph d="M979 53v582h-635v53h635v422h-53v53h-582v54h582v-54h53v-53h51v-1110h-686v53h-53v53h-53v476h53v-476h53v-53h635zM291 635h53v-53h-53v53zM819 1374h-53v53h53v-53zM502 1374h-53v53h53v-53z" glyph-name="uni008A"/><glyph d="M979 53v582h-635v53h635v422h-53v53h-582v54h582v-54h53v-53h51v-1110h-686v53h-53v53h-53v476h53v-476h53v-53h635zM502 1692h53v-54h53v-53h54v-51h53v-53h51v-54h160v-53h-160v53h-51v54h-53v53h-54v51h-53v53h-53v54h-158v53h158v-53zM238 1638h53v-157h-53v157z M1030 1481h-51v157h51v-157zM344 1638h-53v54h53v-54zM979 1427h-53v54h53v-54zM291 635h53v-53h-53v53z" glyph-name="uni008B"/><glyph d="M979 53v582h-635v53h635v422h-53v53h-582v54h582v-54h53v-53h51v-1110h-686v53h-53v53h-53v476h53v-476h53v-53h635zM819 1481h-53v157h-53v54h-158v53h158v-53h53v-54h53v-157zM449 1638h53v-157h53v-54h158v-53h-158v53h-53v54h-53v157zM766 1481v-54h-53v54h53z M502 1692h53v-54h-53v54zM291 635h53v-53h-53v53z" glyph-name="uni008C"/><glyph d="M926 0h-213v-106h53v-52h53v-159h-53v159h-53v52h-158v106h-211v53h-53v53h-53v1004h53v-1004h53v-53h582v-53zM926 1163h-582v54h582v-54zM713 -424h-158v53h158v-53zM344 1110h-53v53h53v-53z" glyph-name="uni008D" horiz-adv-x="1163"/><glyph d="M979 688v422h-53v53h-582v54h582v-54h53v-53h51v-475h-739v-529h53v-53h582v-53h-582v53h-53v53h-53v1004h53v-422h688zM291 1163h53v-53h-53v53zM926 1692h53v-54h-53v54zM766 1534h53v-53h-53v53zM713 1481h53v-54h-53v54zM872 1638h54v-53h-54v53zM819 1585h53v-51 h-53v51zM1030 1692h-51v53h51v-53zM662 1427h51v-53h-51v53z" glyph-name="uni008E"/><glyph d="M979 688v422h-53v53h-582v54h582v-54h53v-53h51v-475h-739v-529h53v-53h582v-53h-582v53h-53v53h-53v1004h53v-422h688zM608 1374h-53v53h-53v54h-53v53h-52v51h-53v53h-53v54h-53v53h53v-53h53v-54h53v-53h52v-51h53v-53h53v-54h53v-53zM291 1163h53v-53h-53v53z" glyph-name="uni008F"/><glyph d="M979 688v422h-53v53h-582v54h582v-54h53v-53h51v-475h-739v-529h53v-53h582v-53h-582v53h-53v53h-53v1004h53v-422h688zM926 1374h-54v53h-53v54h-53v53h-51v51h51v-51h53v-53h53v-54h54v-53zM713 1585h-158v53h158v-53zM344 1427h53v-53h-53v53zM449 1534h53v-53h-53v53 zM291 1163h53v-53h-53v53zM502 1585h53v-51h-53v51zM397 1481h52v-54h-52v54z" glyph-name="uni0090"/><glyph d="M979 688v422h-53v53h-582v54h582v-54h53v-53h51v-475h-739v-529h53v-53h582v-53h-582v53h-53v53h-53v1004h53v-422h688zM291 1163h53v-53h-53v53zM819 1374h-53v53h53v-53zM502 1374h-53v53h53v-53z" glyph-name="uni0091"/><glyph d="M291 0h-53v1217h53v-1217zM608 1692h-53v53h53v-53zM238 1427h53v-53h-53v53zM291 1481h53v-54h-53v54zM344 1534h53v-53h-53v53zM502 1692h53v-54h-53v54zM449 1638h53v-53h-53v53zM397 1585h52v-51h-52v51z" glyph-name="uni0092" horiz-adv-x="528"/><glyph d="M291 1374h-53v53h-54v54h-51v53h-53v51h-53v53h-54v54h-53v53h53v-53h54v-54h53v-53h53v-51h51v-53h54v-54h53v-53zM291 0h-53v1217h53v-1217z" glyph-name="uni0093" horiz-adv-x="528"/><glyph d="M291 0h-53v1217h53v-1217zM344 1585h53v-51h52v-53h53v-54h53v-53h-53v53h-53v54h-52v53h-53v51h-160v53h160v-53zM-27 1427h54v-53h-54v53zM27 1481h53v-54h-53v54zM80 1534h53v-53h-53v53zM133 1585h51v-51h-51v51z" glyph-name="uni0094" horiz-adv-x="528"/><glyph d="M397 1374h-53v53h53v-53zM184 1374h-51v53h51v-53zM291 0h-53v1217h53v-1217z" glyph-name="uni0095" horiz-adv-x="528"/><glyph d="M1030 0h-51v1110h-53v53h-635v-1163h-53v1217h688v-54h53v-53h51v-1110zM502 1692h53v-54h53v-53h54v-51h53v-53h51v-54h160v-53h-160v53h-51v54h-53v53h-54v51h-53v53h-53v54h-158v53h158v-53zM238 1638h53v-157h-53v157zM1030 1481h-51v157h51v-157zM344 1638h-53v54 h53v-54zM979 1427h-53v54h53v-54z" glyph-name="uni0096"/><glyph d="M238 1110h53v-1004h53v-53h582v-53h-582v53h-53v53h-53v1004zM1030 106h-51v1004h-53v53h-582v54h582v-54h53v-53h51v-1004zM979 106v-53h-53v53h53zM766 1534h53v-53h-53v53zM291 1163h53v-53h-53v53zM926 1692h53v-54h-53v54zM713 1481h53v-54h-53v54zM872 1638h54v-53 h-54v53zM1030 1692h-51v53h51v-53zM819 1585h53v-51h-53v51zM662 1427h51v-53h-51v53z" glyph-name="uni0097"/><glyph d="M238 1110h53v-1004h53v-53h582v-53h-582v53h-53v53h-53v1004zM1030 106h-51v1004h-53v53h-582v54h582v-54h53v-53h51v-1004zM608 1374h-53v53h-53v54h-53v53h-52v51h-53v53h-53v54h-53v53h53v-53h53v-54h53v-53h52v-51h53v-53h53v-54h53v-53zM291 1163h53v-53h-53v53z M979 106v-53h-53v53h53z" glyph-name="uni0098"/><glyph d="M238 1110h53v-1004h53v-53h582v-53h-582v53h-53v53h-53v1004zM1030 106h-51v1004h-53v53h-582v54h582v-54h53v-53h51v-1004zM926 1374h-54v53h-53v54h-53v53h-51v51h51v-51h53v-53h53v-54h54v-53zM713 1585h-158v53h158v-53zM344 1427h53v-53h-53v53zM291 1163h53v-53 h-53v53zM979 106v-53h-53v53h53zM449 1534h53v-53h-53v53zM397 1481h52v-54h-52v54zM502 1585h53v-51h-53v51z" glyph-name="uni0099"/><glyph d="M238 1110h53v-1004h53v-53h582v-53h-582v53h-53v53h-53v1004zM1030 106h-51v1004h-53v53h-582v54h582v-54h53v-53h51v-1004zM502 1374h-53v53h53v-53zM291 1163h53v-53h-53v53zM819 1374h-53v53h53v-53zM979 106v-53h-53v53h53z" glyph-name="uni009A"/><glyph d="M238 1110h53v-1004h53v-53h582v-53h-582v53h-53v53h-53v1004zM1030 106h-51v1004h-53v53h-582v54h582v-54h53v-53h51v-1004zM502 1692h53v-54h53v-53h54v-51h53v-53h51v-54h160v-53h-160v53h-51v54h-53v53h-54v51h-53v53h-53v54h-158v53h158v-53zM238 1638h53v-157h-53 v157zM1030 1481h-51v157h51v-157zM979 1427h-53v54h53v-54zM979 106v-53h-53v53h53zM344 1638h-53v54h53v-54zM291 1163h53v-53h-53v53z" glyph-name="uni009B"/><glyph d="M1030 0h-686v53h-53v53h-53v1111h53v-1111h53v-53h635v1164h51v-1217zM926 1692h53v-54h-53v54zM766 1534h53v-53h-53v53zM713 1481h53v-54h-53v54zM872 1638h54v-53h-54v53zM819 1585h53v-51h-53v51zM1030 1692h-51v53h51v-53zM662 1427h51v-53h-51v53z" glyph-name="uni009C"/><glyph d="M608 1374h-53v53h-53v54h-53v53h-52v51h-53v53h-53v54h-53v53h53v-53h53v-54h53v-53h52v-51h53v-53h53v-54h53v-53zM1030 0h-686v53h-53v53h-53v1111h53v-1111h53v-53h635v1164h51v-1217z" glyph-name="uni009D"/><glyph d="M1030 0h-686v53h-53v53h-53v1111h53v-1111h53v-53h635v1164h51v-1217zM926 1374h-54v53h-53v54h-53v53h-51v51h51v-51h53v-53h53v-54h54v-53zM713 1585h-158v53h158v-53zM449 1534h53v-53h-53v53zM344 1427h53v-53h-53v53zM502 1585h53v-51h-53v51zM397 1481h52v-54h-52 v54z" glyph-name="uni009E"/><glyph d="M819 1374h-53v53h53v-53zM502 1374h-53v53h53v-53zM1030 0h-686v53h-53v53h-53v1111h53v-1111h53v-53h635v1164h51v-1217z" glyph-name="uni009F"/><glyph d="M926 1163h-318v-1163h-53v1163h-317v54h317v421h53v-421h318v-54z" glyph-name="uni00A0" horiz-adv-x="1163" unicode=" "/><glyph d="M608 1374h-53v160h-53v51h-158v53h158v-53h53v-51h53v-160zM238 1534h53v-160h53v-53h158v-51h-158v51h-53v53h-53v160zM555 1374v-53h-53v53h53zM291 1585h53v-51h-53v51z" glyph-name="exclamdown" horiz-adv-x="845" unicode="¡"/><glyph d="M555 158v1112h-211v51h211v106h53v-106h211v-51h-211v-1112h211v-52h-211v-106h-53v106h-211v52h-53v53h-53v1006h53v-1006h53v-53h211zM291 1270h53v-53h-53v53z" glyph-name="cent" horiz-adv-x="1056" unicode="¢"/><glyph d="M926 0h-688v846h-105v53h105v635h53v-635h422v-53h-422v-793h635v-53zM713 1585h-369v53h369v-53zM344 1534h-53v51h53v-51z" glyph-name="sterling" horiz-adv-x="1163" unicode="£"/><glyph d="M397 739h-159v160h159v-160z" glyph-name="yen" horiz-adv-x="634" unicode="¥"/><glyph d="M238 1534h53v-1534h-53v1534zM1030 952h-51v582h-53v51h-582v53h582v-53h53v-51h51v-582zM1030 106h-51v687h-53v53h-477v53h477v-53h53v-53h51v-687zM449 53h477v-53h-477v53zM979 899h-53v53h53v-53zM926 106h53v-53h-53v53zM291 1585h53v-51h-53v51z" glyph-name="section" unicode="§"/><glyph d="M1137 528h-54v1006h-53v51h-792v53h792v-53h53v-51h54v-1006zM133 1534h51v-1006h54v-53h792v-51h-792v51h-54v53h-51v1006zM926 635h-477v53h-52v51h-53v582h53v-582h52v-51h477v-53zM926 1374h-477v53h477v-53zM1083 528v-53h-53v53h53zM397 1374h52v-53h-52v53z M184 1585h54v-51h-54v51z" glyph-name="copyright" unicode="©"/><glyph d="M1083 1321h54v-264h-54v264h-53v53h-51v53h-53v54h-107v-424h-53v581h53v-104h107v-53h53v-54h51v-53h53v-53zM608 1585h-211v-528h-53v528h-211v53h475v-53zM1454 1057h-53v424h-107v53h107v104h53v-581zM1137 1374h53v-53h-53v53zM1190 1427h53v-53h-53v53zM1243 1481 h51v-54h-51v54z" glyph-name="ordfeminine" horiz-adv-x="1691" unicode="ª"/><glyph d="M608 1692h-53v53h53v-53zM238 1427h53v-53h-53v53zM291 1481h53v-54h-53v54zM344 1534h53v-53h-53v53zM502 1692h53v-54h-53v54zM449 1638h53v-53h-53v53zM397 1585h52v-51h-52v51z" glyph-name="guillemotleft" horiz-adv-x="845" unicode="«"/><glyph d="M713 1798h-51v51h51v-51zM397 1798h-53v51h53v-51z" glyph-name="logicalnot" horiz-adv-x="952" unicode="¬"/><glyph d="M713 635h-316v-424h-53v424h-106v53h211v264h-211v52h317v423h53v-423h105v-52h-211v-264h211v-53zM238 158h53v-158h-53v158zM713 1481h-51v157h51v-157zM291 211h53v-53h-53v53zM662 1427h-54v54h54v-54z" glyph-name="uni00AD" horiz-adv-x="845" unicode="­"/><glyph d="M872 899v686h-159v-211h-51v264h792v-53h-528v-686h528v-53h-528v-793h528v-53h-582v846h-370v-107h-53v265h53v-105h370zM238 371h53v-371h-53v371zM555 1321h53v-264h-53v264zM344 688h53v-264h-53v264zM502 1057h53v-53h-53v53zM608 1374h54v-53h-54v53zM291 424h53 v-53h-53v53zM397 739h52v-51h-52v51z" glyph-name="registered" horiz-adv-x="1691" unicode="®"/><glyph d="M238 1534h53v-1428h53v-53h105v318h53v-318h424v-53h-582v53h-53v53h-53v1428zM1030 106h-51v1428h-53v51h-107v-315h-53v315h-422v53h582v-53h53v-51h51v-1428zM608 422h-53v371h53v-371zM713 846h-51v371h51v-371zM662 793h-54v53h54v-53zM979 106v-53h-53v53h53z M766 1270v-53h-53v53h53zM291 1585h53v-51h-53v51zM555 371h-53v51h53v-51z" glyph-name="macron" unicode="¯"/><glyph d="M662 739v265h-54v53h-264v53h264v-53h54v-53h51v-265h53v-51h264v-53h-264v53h-53v51h-51zM1137 739h-54v265h-53v53h-264v53h264v-53h53v-53h54v-265zM238 1004h53v-265h53v-51h264v-53h-264v53h-53v51h-53v265zM713 1057h53v-53h-53v53zM291 1057h53v-53h-53v53z M1083 739v-51h-53v51h53zM662 739v-51h-54v51h54z" glyph-name="degree" horiz-adv-x="1374" unicode="°"/><glyph d="M713 846h-211v-211h-53v211h-211v53h211v211h53v-211h211v-53zM713 0h-475v53h475v-53z" glyph-name="plusminus" horiz-adv-x="952" unicode="±"/><glyph d="M608 0h-370v53h370v-53zM608 528h-53v54h-53v53h-53v53h-52v51h-53v54h-53v53h-53v53h53v-53h53v-53h53v-54h52v-51h53v-53h53v-53h53v-54zM344 899h-53v53h53v-53zM449 1110h53v-53h-53v53zM502 1163h53v-53h-53v53zM608 1163h-53v54h53v-54zM397 1057h52v-53h-52v53z M344 1004h53v-52h-53v52z" glyph-name="uni00B2" horiz-adv-x="845" unicode="²"/><glyph d="M608 0h-370v53h370v-53zM502 952h-53v52h-52v53h-53v53h-53v53h-53v54h53v-54h53v-53h53v-53h52v-53h53v-52zM608 846h-53v53h-53v53h53v-53h53v-53zM291 635h53v-53h-53v53zM344 688h53v-53h-53v53zM238 582h53v-54h-53v54zM449 793h53v-54h-53v54zM502 846h53v-53h-53 v53zM397 739h52v-51h-52v51z" glyph-name="uni00B3" horiz-adv-x="845" unicode="³"/><glyph d="M291 53h635v-53h-635v-424h-53v1641h53v-1164zM1243 0h-160v53h-53v53h-51v1111h51v-1111h53v-53h160v-53zM926 106h53v-53h-53v53z" glyph-name="uni00B5" unicode="µ"/><glyph d="M1030 106h-51v846h-635v52h635v530h-53v51h-160v53h160v-53h53v-51h51v-1428zM238 899h53v-793h53v-53h582v-53h-582v53h-53v53h-53v793zM979 106v-53h-53v53h53zM291 952h53v-53h-53v53z" glyph-name="paragraph" unicode="¶"/><glyph d="M926 739h-54v160h-53v53h-475v52h-53v53h-53v477h53v-477h53v-53h475v-52h53v-53h54v-160zM926 0h-582v53h-53v53h-53v476h53v-476h53v-53h582v-53zM926 1585h-582v53h582v-53zM819 635h-475v53h475v-53zM344 582h-53v53h53v-53zM344 1534h-53v51h53v-51zM872 688h-53v51 h53v-51z" glyph-name="periodcentered" horiz-adv-x="1163" unicode="·"/><glyph d="M1137 0h-475v1585h-371v-1585h-53v1638h475v-1585h370v1585h54v-1638z" glyph-name="uni00B9" horiz-adv-x="1374" unicode="¹"/><glyph d="M344 1534h53v-1640h-53v1640zM608 1585h-159v53h159v-53zM133 -158h158v-53h-158v53zM291 -106h53v-52h-53v52zM397 1585h52v-51h-52v51z" glyph-name="ordmasculine" horiz-adv-x="739" unicode="º"/><glyph d="M979 688v475h-635v54h635v317h-53v51h-582v53h582v-53h53v-51h51v-899h-686v53h-53v51h-53v371h53v-371h53v-51h635zM291 1163h53v-53h-53v53z" glyph-name="guillemotright" unicode="»"/><glyph d="M238 1110h53v-1004h53v-53h105v211h53v-211h424v-53h-582v53h-53v53h-53v1004zM1030 106h-51v1004h-53v53h-107v-211h-53v211h-422v54h582v-54h53v-53h51v-1004zM608 317h-53v265h53v-265zM713 635h-51v264h51v-264zM766 952v-53h-53v53h53zM555 264h-53v53h53v-53z M291 1163h53v-53h-53v53zM979 106v-53h-53v53h53zM662 582h-54v53h54v-53z" glyph-name="questiondown" unicode="¿"/><glyph d="M819 0h-581v53h-54v53h-51v582h51v-582h54v-53h581v-53zM608 952h-53v369h53v-369zM397 739h-159v54h159v-54zM555 899h-53v53h53v-53zM608 1585h-53v53h53v-53zM502 846h-53v53h53v-53zM238 688h-54v51h54v-51zM449 793h-52v53h52v-53z" glyph-name="Agrave" horiz-adv-x="1056" unicode="À"/><glyph d="M291 1585h-53v53h53v-53zM291 0h-53v1321h53v-1321z" glyph-name="Aacute" horiz-adv-x="528" unicode="Á"/><glyph d="M713 0h-475v53h211v1532h-211v53h475v-53h-211v-1532h211v-53z" glyph-name="Acircumflex" horiz-adv-x="952" unicode="Â"/><glyph d="M502 0h-264v53h106v1532h-106v53h264v-53h-105v-1532h105v-53z" glyph-name="Atilde" horiz-adv-x="739" unicode="Ã"/><glyph d="M608 846h-211v-952h-53v952h-211v53h211v635h53v-635h211v-53zM608 1585h-159v53h159v-53zM133 -158h158v-53h-158v53zM291 -106h53v-52h-53v52zM449 1534h-52v51h52v-51z" glyph-name="Adieresis" horiz-adv-x="739" unicode="Ä"/><glyph d="M502 739h53v-51h53v-53h54v-53h53v-54h51v-53h160v-51h-160v51h-51v53h-53v54h-54v53h-53v53h-53v51h-158v54h158v-54zM502 1270h53v-53h53v-54h54v-53h53v-53h51v-53h160v-52h-160v52h-51v53h-53v53h-54v53h-53v54h-53v53h-158v51h158v-51zM238 688h53v-160h-53v160z M238 1217h53v-160h-53v160zM1030 528h-51v160h51v-160zM1030 1057h-51v160h51v-160zM344 1217h-53v53h53v-53zM979 1004h-53v53h53v-53zM979 475h-53v53h53v-53zM344 688h-53v51h53v-51z" glyph-name="Aring" unicode="Å"/><glyph d="M926 0h-688v53h211v1110h-211v54h211v317h53v-317h424v-54h-424v-1110h424v-53zM926 1585h-371v53h371v-53zM555 1534h-53v51h53v-51z" glyph-name="AE" horiz-adv-x="1163" unicode="Æ"/><glyph d="M608 528h-53v54h-53v53h-53v53h-52v51h-53v54h-53v53h-53v53h53v-53h53v-53h53v-54h52v-51h53v-53h53v-53h53v-54zM1030 528h-51v54h-53v53h-54v53h-53v51h-53v54h-53v53h-51v53h51v-53h53v-53h53v-54h53v-51h54v-53h53v-53h51v-54zM872 1110h54v-53h-54v53zM819 1057h53 v-53h-53v53zM608 1163h-53v54h53v-54zM502 1163h53v-53h-53v53zM449 1110h53v-53h-53v53zM344 899h-53v53h53v-53zM766 899h-53v53h53v-53zM926 1163h53v-53h-53v53zM766 1004h53v-52h-53v52zM397 1057h52v-53h-52v53zM1030 1163h-51v54h51v-54zM344 1004h53v-52h-53v52z " glyph-name="Ccedilla" unicode="Ç"/><glyph d="M926 952h-54v52h-53v53h-53v53h-53v53h-51v54h51v-54h53v-53h53v-53h53v-53h54v-52zM502 952h-53v52h-52v53h-53v53h-53v53h-53v54h53v-54h53v-53h53v-53h52v-53h53v-52zM608 846h-53v53h-53v53h53v-53h53v-53zM1030 846h-51v53h-53v53h53v-53h51v-53zM344 688h53v-53 h-53v53zM449 793h53v-54h-53v54zM291 635h53v-53h-53v53zM238 582h53v-54h-53v54zM872 793h54v-54h-54v54zM502 846h53v-53h-53v53zM713 635h53v-53h-53v53zM766 688h53v-53h-53v53zM926 846h53v-53h-53v53zM819 739h53v-51h-53v51zM662 582h51v-54h-51v54zM397 739h52v-51 h-52v51z" glyph-name="Egrave" unicode="È"/><glyph d="M926 0h-54v53h54v-53zM608 0h-53v53h53v-53zM291 0h-53v53h53v-53z" glyph-name="Eacute" horiz-adv-x="1163" unicode="É"/><glyph glyph-name="Ecircumflex" horiz-adv-x="528" unicode="Ê"/><glyph d="M979 688v846h-53v51h-582v53h582v-53h53v-51h51v-1534h-51v635h-688v-635h-53v1534h53v-846h688zM608 1798h-53v51h-53v54h-53v53h-52v53h-53v53h53v-53h52v-53h53v-53h53v-54h53v-51zM291 1585h53v-51h-53v51zM291 2116h-53v51h53v-51z" glyph-name="Edieresis" unicode="Ë"/><glyph d="M979 688v846h-53v51h-582v53h582v-53h53v-51h51v-1534h-51v635h-688v-635h-53v1534h53v-846h688zM502 2116h53v-54h53v-53h54v-53h51v-53h53v-54h160v-51h-160v51h-53v54h-51v53h-54v53h-53v53h-53v54h-158v51h158v-51zM238 2062h53v-159h-53v159zM1030 1903h-51v159h51 v-159zM344 2062h-53v54h53v-54zM979 1849h-53v54h53v-54zM291 1585h53v-51h-53v51z" glyph-name="Igrave" unicode="Ì"/><glyph d="M238 1534h53v-1428h53v-53h582v-53h-582v53h-53v53h-53v1428zM1030 106h-51v1428h-53v51h-582v53h582v-53h53v-51h51v-1428zM502 2116h53v-54h53v-53h54v-53h51v-53h53v-54h160v-51h-160v51h-53v54h-51v53h-54v53h-53v53h-53v54h-158v51h158v-51zM238 2062h53v-159h-53 v159zM1030 1903h-51v159h51v-159zM979 1849h-53v54h53v-54zM979 106v-53h-53v53h53zM344 2062h-53v54h53v-54zM291 1585h53v-51h-53v51z" glyph-name="Iacute" unicode="Í"/><glyph d="M872 53v1532h-528v53h1110v-53h-528v-686h528v-53h-528v-793h528v-53h-1110v53h-53v53h-53v1428h53v-1428h53v-53h528zM291 1585h53v-51h-53v51z" glyph-name="Icircumflex" horiz-adv-x="1691" unicode="Î"/><glyph d="M1507 688v422h-53v53h-475v54h475v-54h53v-53h52v-475h-633v-529h53v-53h475v-53h-475v53h-53v53h-54v1004h-53v53h-475v54h475v-54h53v-53h54v-422h581zM238 1110h53v-1004h53v-53h475v-53h-475v53h-53v53h-53v1004zM926 1163h53v-53h-53v53zM291 1163h53v-53h-53v53z M872 106v-53h-53v53h53z" glyph-name="Idieresis" horiz-adv-x="1798" unicode="Ï"/><glyph d="M926 846h-688v53h688v-53z" glyph-name="Eth" horiz-adv-x="1163" unicode="Ð"/><glyph d="M1348 846h-1110v53h1110v-53z" glyph-name="Ntilde" horiz-adv-x="1585" unicode="Ñ"/><glyph d="M926 1270h-54v51h-53v53h-53v53h-53v54h-51v157h51v-157h53v-54h53v-53h53v-53h54v-51zM502 1270h-53v51h-52v53h-53v53h-53v54h-53v157h53v-157h53v-54h53v-53h52v-53h53v-51z" glyph-name="Ograve" horiz-adv-x="1163" unicode="Ò"/><glyph d="M926 1481h-54v157h54v-157zM502 1481h-53v157h53v-157zM291 1374h53v-53h-53v53zM344 1427h53v-53h-53v53zM819 1481h53v-54h-53v54zM713 1374h53v-53h-53v53zM766 1427h53v-53h-53v53zM397 1481h52v-54h-52v54zM238 1321h53v-51h-53v51zM662 1321h51v-51h-51v51z" glyph-name="Oacute" horiz-adv-x="1163" unicode="Ó"/><glyph d="M502 1270h-53v51h-52v53h-53v53h-53v54h-53v157h53v-157h53v-54h53v-53h52v-53h53v-51z" glyph-name="Ocircumflex" horiz-adv-x="739" unicode="Ô"/><glyph d="M502 1481h-53v157h53v-157zM291 1374h53v-53h-53v53zM344 1427h53v-53h-53v53zM397 1481h52v-54h-52v54zM238 1321h53v-51h-53v51z" glyph-name="Otilde" horiz-adv-x="739" unicode="Õ"/><glyph d="M502 1163h-53v54h53v-54zM713 846h-475v53h475v-53zM502 528h-53v54h53v-54z" glyph-name="Odieresis" horiz-adv-x="952" unicode="Ö"/><glyph d="M872 582v211h-53v53h-53v264h-53v53h-51v264h-54v54h-53v157h53v-157h54v-54h51v-264h53v-53h53v-264h53v-53h54v-793h-54v528h-581v-528h-53v793h53v-211h581zM344 1110h53v-264h-53v264zM449 1427h53v-264h-53v264zM291 846h53v-53h-53v53zM502 1481h53v-54h-53v54z M397 1163h52v-53h-52v53z" glyph-name="multiply" horiz-adv-x="1163" unicode="×"/><glyph d="M1030 -317h-51v317h-635v53h-53v53h-53v1111h53v-1111h53v-53h635v1164h51v-1534zM344 -371h582v-53h-582v53zM926 -317h53v-54h-53v54zM819 1374h-53v53h53v-53zM502 1374h-53v53h53v-53z" glyph-name="Oslash" unicode="Ø"/><glyph d="M555 688h53v-688h-53v688h-53v51h-158v54h-53v53h-53v792h53v-792h53v-53h158v-54h53v-51zM926 846h-54v792h54v-792zM662 793h157v-54h-157v54zM819 846h53v-53h-53v53zM608 739h54v-51h-54v51zM766 1798h-53v51h53v-51zM449 1798h-52v51h52v-51z" glyph-name="Ugrave" horiz-adv-x="1163" unicode="Ù"/><glyph d="M555 1427h53v-370h-53v370zM344 582h53v-371h-53v371zM449 1004h53v-369h-53v369zM238 158h53v-158h-53v158zM713 1481h-51v157h51v-157zM608 1481h54v-54h-54v54zM291 211h53v-53h-53v53zM502 1057h53v-53h-53v53zM397 635h52v-53h-52v53z" glyph-name="Uacute" horiz-adv-x="952" unicode="Ú"/><glyph d="M1030 0h-581v53h-52v53h-53v529h-106v53h106v264h-106v52h106v530h53v-530h633v-52h-633v-264h633v-53h-633v-529h52v-53h581v-53zM1030 1585h-581v53h581v-53zM449 1534h-52v51h52v-51z" glyph-name="Ucircumflex" unicode="Û"/><glyph d="M608 528h-53v54h-53v53h-53v53h-52v51h-53v54h-53v53h-53v53h53v-53h53v-53h53v-54h52v-51h53v-53h53v-53h53v-54zM344 899h-53v53h53v-53zM449 1110h53v-53h-53v53zM502 1163h53v-53h-53v53zM608 1163h-53v54h53v-54zM397 1057h52v-53h-52v53zM344 1004h53v-52h-53v52z " glyph-name="Udieresis" horiz-adv-x="845" unicode="Ü"/><glyph d="M502 952h-53v52h-52v53h-53v53h-53v53h-53v54h53v-54h53v-53h53v-53h52v-53h53v-52zM608 846h-53v53h-53v53h53v-53h53v-53zM291 635h53v-53h-53v53zM344 688h53v-53h-53v53zM238 582h53v-54h-53v54zM449 793h53v-54h-53v54zM502 846h53v-53h-53v53zM397 739h52v-51h-52 v51z" glyph-name="Yacute" horiz-adv-x="845" unicode="Ý"/><glyph d="M344 1534h53v-317h422v-54h-422v-1163h-53v1163h-211v54h211v317zM1030 0h-51v1217h51v-1217zM1030 1585h-581v53h581v-53zM397 1585h52v-51h-52v51z" glyph-name="Thorn" unicode="Þ"/><glyph d="M819 1163h-422v-1163h-53v1163h-211v54h211v317h53v-317h422v-54zM1030 0h-51v1638h51v-1638zM819 1585h-370v53h370v-53zM449 1534h-52v51h52v-51z" glyph-name="germandbls" unicode="ß"/><glyph d="M926 846h-318v-846h-53v846h-317v53h317v264h-317v54h317v421h53v-421h318v-54h-318v-264h318v-53z" glyph-name="agrave" horiz-adv-x="1163" unicode="à"/><glyph d="M291 846h-53v53h53v-53z" glyph-name="aacute" horiz-adv-x="528" unicode="á"/><glyph d="M502 -106h-53v159h53v-159zM291 -317h-53v53h53v-53zM344 -264h-53v53h53v-53zM344 -158h53v-53h-53v53zM397 -106h52v-52h-52v52z" glyph-name="acircumflex" horiz-adv-x="739" unicode="â"/><glyph d="M926 -106h-54v159h54v-159zM502 -106h-53v159h53v-159zM344 -264h-53v53h53v-53zM766 -264h-53v53h53v-53zM344 -158h53v-53h-53v53zM291 -317h-53v53h53v-53zM766 -158h53v-53h-53v53zM819 -106h53v-52h-53v52zM713 -317h-51v53h51v-53zM397 -106h52v-52h-52v52z" glyph-name="atilde" horiz-adv-x="1163" unicode="ã"/><glyph d="M238 1534h53v-371h53v-53h158v-53h-158v53h-53v53h-53v371zM608 1163h-53v371h-53v51h-158v53h158v-53h53v-51h53v-371zM1348 106h-54v369h-51v53h-160v54h160v-54h51v-53h54v-369zM1982 106h-53v369h-53v53h-158v54h158v-54h53v-53h53v-369zM1612 475h53v-369h53v-53 h158v-53h-158v53h-53v53h-53v369zM979 475h51v-369h53v-53h160v-53h-160v53h-53v53h-51v369zM872 1427h54v-370h-54v370zM766 1004h53v-369h-53v369zM662 582h51v-371h-51v371zM555 158h53v-158h-53v158zM1030 1481h-51v157h51v-157zM1665 528h53v-53h-53v53zM926 1481h53 v-54h-53v54zM608 211h54v-53h-54v53zM1929 106v-53h-53v53h53zM1030 528h53v-53h-53v53zM819 1057h53v-53h-53v53zM555 1163v-53h-53v53h53zM713 635h53v-53h-53v53zM291 1585h53v-51h-53v51zM1294 106v-53h-51v53h51z" glyph-name="adieresis" horiz-adv-x="2220" unicode="ä"/><glyph d="M979 688v846h-53v51h-582v53h582v-53h53v-51h51v-1534h-51v635h-688v-635h-53v1534h53v-846h688zM926 1798h-54v51h-53v54h-53v53h-51v53h51v-53h53v-53h53v-54h54v-51zM713 2009h-158v53h158v-53zM449 1956h53v-53h-53v53zM502 2009h53v-53h-53v53zM291 1585h53v-51h-53 v51zM397 1903h52v-54h-52v54zM344 1849h53v-51h-53v51z" glyph-name="aring" unicode="å"/><glyph d="M926 0h-688v1638h688v-53h-635v-686h635v-53h-635v-793h635v-53zM926 1798h-54v51h-53v54h-53v53h-51v53h51v-53h53v-53h53v-54h54v-51zM713 2009h-158v53h158v-53zM449 1956h53v-53h-53v53zM502 2009h53v-53h-53v53zM344 1849h53v-51h-53v51zM397 1903h52v-54h-52v54z " glyph-name="ae" horiz-adv-x="1163" unicode="æ"/><glyph d="M979 688v846h-53v51h-582v53h582v-53h53v-51h51v-1534h-51v635h-688v-635h-53v1534h53v-846h688zM926 2116h53v-54h-53v54zM819 2009h53v-53h-53v53zM766 1956h53v-53h-53v53zM713 1903h53v-54h-53v54zM872 2062h54v-53h-54v53zM291 1585h53v-51h-53v51zM1030 2116h-51 v51h51v-51zM662 1849h51v-51h-51v51z" glyph-name="ccedilla" unicode="ç"/><glyph d="M819 1798h-53v51h53v-51zM502 1798h-53v51h53v-51zM926 0h-688v1638h688v-53h-635v-686h635v-53h-635v-793h635v-53z" glyph-name="egrave" horiz-adv-x="1163" unicode="è"/><glyph d="M608 1798h-53v51h-53v54h-53v53h-52v53h-53v53h-53v54h-53v51h53v-51h53v-54h53v-53h52v-53h53v-53h53v-54h53v-51zM926 0h-688v1638h688v-53h-635v-686h635v-53h-635v-793h635v-53z" glyph-name="eacute" horiz-adv-x="1163" unicode="é"/><glyph d="M291 0h-53v1638h53v-1638zM502 2116h53v-54h-53v54zM344 1956h53v-53h-53v53zM291 1903h53v-54h-53v54zM449 2062h53v-53h-53v53zM397 2009h52v-53h-52v53zM608 2116h-53v51h53v-51zM238 1849h53v-51h-53v51z" glyph-name="ecircumflex" horiz-adv-x="528" unicode="ê"/><glyph d="M291 0h-53v1638h53v-1638zM344 2009h53v-53h52v-53h53v-54h53v-51h-53v51h-53v54h-52v53h-53v53h-160v53h160v-53zM27 1903h53v-54h-53v54zM80 1956h53v-53h-53v53zM133 2009h51v-53h-51v53zM-27 1849h54v-51h-54v51z" glyph-name="edieresis" horiz-adv-x="528" unicode="ë"/><glyph d="M397 1798h-53v51h53v-51zM184 1798h-51v51h51v-51zM291 0h-53v1638h53v-1638z" glyph-name="igrave" horiz-adv-x="528" unicode="ì"/><glyph d="M291 1798h-53v51h-54v54h-51v53h-53v53h-53v53h-54v54h-53v51h53v-51h54v-54h53v-53h53v-53h51v-53h54v-54h53v-51zM291 0h-53v1638h53v-1638z" glyph-name="iacute" horiz-adv-x="528" unicode="í"/><glyph d="M238 1534h53v-1428h53v-53h582v-53h-582v53h-53v53h-53v1428zM1030 106h-51v1428h-53v51h-582v53h582v-53h53v-51h51v-1428zM766 1956h53v-53h-53v53zM979 106v-53h-53v53h53zM819 2009h53v-53h-53v53zM926 2116h53v-54h-53v54zM713 1903h53v-54h-53v54zM872 2062h54v-53 h-54v53zM291 1585h53v-51h-53v51zM1030 2116h-51v51h51v-51zM662 1849h51v-51h-51v51z" glyph-name="icircumflex" unicode="î"/><glyph d="M238 1534h53v-1428h53v-53h582v-53h-582v53h-53v53h-53v1428zM1030 106h-51v1428h-53v51h-582v53h582v-53h53v-51h51v-1428zM926 1798h-54v51h-53v54h-53v53h-51v53h51v-53h53v-53h53v-54h54v-51zM713 2009h-158v53h158v-53zM449 1956h53v-53h-53v53zM979 106v-53h-53v53 h53zM502 2009h53v-53h-53v53zM291 1585h53v-51h-53v51zM397 1903h52v-54h-52v54zM344 1849h53v-51h-53v51z" glyph-name="idieresis" unicode="ï"/><glyph d="M238 1534h53v-1428h53v-53h582v-53h-582v53h-53v53h-53v1428zM1030 106h-51v1428h-53v51h-582v53h582v-53h53v-51h51v-1428zM608 1798h-53v51h-53v54h-53v53h-52v53h-53v53h-53v54h-53v51h53v-51h53v-54h53v-53h52v-53h53v-53h53v-54h53v-51zM979 106v-53h-53v53h53z M291 1585h53v-51h-53v51z" glyph-name="ntilde" unicode="ñ"/><glyph d="M344 53h582v-53h-582v53h-53v53h-53v1532h53v-1532h53v-53zM1030 106h-51v1532h51v-1532zM926 106h53v-53h-53v53zM766 1956h53v-53h-53v53zM819 2009h53v-53h-53v53zM713 1903h53v-54h-53v54zM926 2116h53v-54h-53v54zM872 2062h54v-53h-54v53zM1030 2116h-51v51h51v-51 zM662 1849h51v-51h-51v51z" glyph-name="ograve" unicode="ò"/><glyph d="M344 53h582v-53h-582v53h-53v53h-53v1532h53v-1532h53v-53zM1030 106h-51v1532h51v-1532zM926 1798h-54v51h-53v54h-53v53h-51v53h51v-53h53v-53h53v-54h54v-51zM713 2009h-158v53h158v-53zM502 2009h53v-53h-53v53zM449 1956h53v-53h-53v53zM926 106h53v-53h-53v53z M344 1849h53v-51h-53v51zM397 1903h52v-54h-52v54z" glyph-name="oacute" unicode="ó"/><glyph d="M344 53h582v-53h-582v53h-53v53h-53v1532h53v-1532h53v-53zM1030 106h-51v1532h51v-1532zM608 1798h-53v51h-53v54h-53v53h-52v53h-53v53h-53v54h-53v51h53v-51h53v-54h53v-53h52v-53h53v-53h53v-54h53v-51zM926 106h53v-53h-53v53z" glyph-name="ocircumflex" unicode="ô"/><glyph d="M291 0h-53v1217h53v-1217z" glyph-name="otilde" horiz-adv-x="528" unicode="õ"/><glyph d="M502 1585h53v-51h53v-53h54v-54h53v-53h-53v53h-54v54h-53v53h-53v51h-158v53h158v-53zM184 1481h54v-54h-54v54zM238 1534h53v-53h-53v53zM291 1585h53v-51h-53v51zM133 1427h51v-53h-51v53z" glyph-name="odieresis" horiz-adv-x="845" unicode="ö"/><glyph d="M502 1692h53v-54h53v-53h54v-51h53v-53h51v-54h160v-53h-160v53h-51v54h-53v53h-54v51h-53v53h-53v54h-158v53h158v-53zM238 1638h53v-157h-53v157zM1030 1481h-51v157h51v-157zM344 1638h-53v54h53v-54zM979 1427h-53v54h53v-54z" glyph-name="divide" unicode="÷"/><glyph d="M608 1585h-370v53h370v-53z" glyph-name="oslash" horiz-adv-x="845" unicode="ø"/><glyph d="M397 1481h52v-54h159v-53h-159v53h-52v54h-53v53h-53v51h-53v53h53v-53h53v-51h53v-53zM608 1481h54v-54h-54v54zM819 1585h-53v53h53v-53zM662 1534h53v-53h-53v53zM715 1585h51v-51h-51v51z" glyph-name="ugrave" horiz-adv-x="1056" unicode="ù"/><glyph d="M291 1585h-53v53h53v-53z" glyph-name="uacute" horiz-adv-x="528" unicode="ú"/><glyph d="M819 1481h-53v157h-53v54h-158v53h158v-53h53v-54h53v-157zM449 1638h53v-157h53v-54h158v-53h-158v53h-53v54h-53v157zM766 1481v-54h-53v54h53zM502 1692h53v-54h-53v54z" glyph-name="ucircumflex" unicode="û"/><glyph d="M819 -317h-53v159h-53v52h-158v53h158v-53h53v-52h53v-159zM555 -371h158v-53h-158v53zM713 -317h53v-54h-53v54z" glyph-name="udieresis" unicode="ü"/><glyph d="M926 1692h53v-54h-53v54zM766 1534h53v-53h-53v53zM291 1481h53v-54h-53v54zM344 1534h53v-53h-53v53zM608 1692h-53v53h53v-53zM502 1692h53v-54h-53v54zM449 1638h53v-53h-53v53zM872 1638h54v-53h-54v53zM238 1427h53v-53h-53v53zM713 1481h53v-54h-53v54zM1030 1692 h-51v53h51v-53zM819 1585h53v-51h-53v51zM662 1427h51v-53h-51v53zM397 1585h52v-51h-52v51z" glyph-name="yacute" unicode="ý"/><glyph d="M819 -424h-157v53h-54v54h-53v159h53v-159h54v-54h157v-53zM819 -106h-157v53h157v-53zM662 -158h-54v52h54v-52z" glyph-name="thorn" unicode="þ"/><glyph d="M397 1481h52v-54h159v-53h-159v53h-52v54h-53v53h-53v51h-53v53h53v-53h53v-51h53v-53zM608 1481h54v-54h-54v54zM819 1585h-53v53h53v-53zM662 1534h53v-53h-53v53zM715 1585h51v-51h-51v51z" glyph-name="ydieresis" horiz-adv-x="1056" unicode="ÿ"/><glyph d="M238 1534h53v-795h53v-51h582v-53h-582v53h-53v51h-53v795zM1030 739h-51v795h-53v51h-582v53h582v-53h53v-51h51v-795zM979 739v-51h-53v51h53zM291 1585h53v-51h-53v51z" glyph-name="OE" unicode="Œ"/><glyph d="M926 317h-582v54h-53v51h-53v688h53v-688h53v-51h582v-54zM979 422v688h-53v53h-582v54h582v-54h53v-53h51v-688h-51zM1030 -317h-51v264h-53v53h-582v53h-53v53h-53v158h53v-158h53v-53h582v-53h53v-53h51v-264zM344 -371h582v-51h-582v51zM344 264h-53v53h53v-53z M291 1163h53v-53h-53v53zM926 -317h53v-54h-53v54zM979 422v-51h-53v51h53z" glyph-name="oe" unicode="œ"/><glyph d="M555 1110v475h-211v53h582v-1638h-54v1057h-264v-1057h-53v1057h-211v53h-53v53h-53v371h53v-371h53v-53h211zM872 1110v475h-264v-475h264zM291 1585h53v-51h-53v51z" glyph-name="Scaron" horiz-adv-x="1163" unicode="Š"/><glyph d="M926 635h-54v53h-53v51h-53v54h-53v53h-51v53h-54v53h-211v-317h-53v792h475v-53h53v-53h54v-264h-54v264h-53v53h-422v-370h422v-52h-157v-53h51v-53h53v-53h53v-54h53v-51h54v-53zM1137 528h-54v1006h-53v51h-792v53h792v-53h53v-51h54v-1006zM133 1534h51v-1006h54 v-53h792v-51h-792v51h-54v53h-51v1006zM872 1057v-53h-53v53h53zM1083 528v-53h-53v53h53zM184 1585h54v-51h-54v51z" glyph-name="scaron" unicode="š"/><glyph d="M1507 688v422h-53v53h-475v54h475v-54h53v-53h52v-475h-633v-529h53v-53h475v-53h-475v53h-53v53h-54v529h-528v53h528v422h-53v53h-475v54h475v-54h53v-53h54v-422h581zM238 582h53v-476h53v-53h475v-53h-475v53h-53v53h-53v476zM926 1163h53v-53h-53v53zM291 635h53 v-53h-53v53zM872 106v-53h-53v53h53z" glyph-name="Ydieresis" horiz-adv-x="1798" unicode="Ÿ"/><glyph d="M926 317h-318v-317h-53v317h-317v54h317v264h-317v53h211v316h-52v53h-53v160h-53v51h-53v370h53v-370h53v-51h53v-160h52v-53h53v-316h160v316h51v-316h213v-53h-318v-264h318v-54zM926 1268h-54v370h54v-370zM819 1057h-53v160h53v-160zM766 1004h-53v53h53v-53z M872 1217h-53v51h53v-51z" glyph-name="Zcaron" horiz-adv-x="1163" unicode="Ž"/><glyph d="M1454 0h-53v1585h-371v-1585h-368v1585h-371v-1585h-53v1638h475v-1585h266v1585h475v-1638z" glyph-name="zcaron" horiz-adv-x="1691" unicode="ž"/><glyph d="M872 635v158h-53v53h-157v53h-54v53h-53v52h-53v53h-158v53h-53v53h-53v371h53v-371h53v-53h158v-53h53v-53h53v-52h54v-53h157v-53h53v-53h54v-158h-54zM926 106h-54v369h-53v53h-157v54h-54v53h-53v53h-53v51h-158v54h-53v53h-53v158h53v-158h53v-53h158v-54h53v-51h53 v-53h54v-53h157v-54h53v-53h54v-369zM926 1585h-582v53h582v-53zM238 53h581v-53h-581v53zM872 635v-53h-53v53h53zM819 106h53v-53h-53v53zM291 1057h53v-53h-53v53zM344 1534h-53v51h53v-51z" glyph-name="Euro" horiz-adv-x="1163" unicode="€"/></font>
</defs>
</svg>
