<svg width="288" height="36" xmlns="http://www.w3.org/2000/svg"><g fill="none" fill-rule="evenodd"><path d="M78.2 18.3c5 0 7.5 3.7 7.5 8.6 0 5.2-2.4 8.8-7.5 8.8s-7.5-3.6-7.5-8.8c0-4.9 2.5-8.6 7.5-8.6m0 14.1c1.3 0 1.9-1.2 1.9-5.4 0-3.8-.4-5.3-1.9-5.3s-1.9 1.4-1.9 5.3c0 4.2.6 5.4 1.9 5.4m10.9-9.8h-2.2v-3.8h2.2v-1.9c0-4.1 2-5.6 5.6-5.6 1.1 0 1.9.1 2.7.2v4.1c-.3-.1-.7-.1-1-.1-1.4 0-1.9.6-1.9 1.6v1.7h2.9v3.8h-2.9v12.8h-5.4V22.6zm-62.5.8c0-1-.5-1.6-1.4-1.6-1.3 0-1.7 1.2-1.8 2.2l-4.7-1c.6-3.3 3.6-4.6 6.6-4.6 3.2 0 6.6 1.4 6.6 5.1v9.3c0 1.9.3 2.5.5 2.7H27c-.1-.5-.1-1.2-.2-1.5-.9 1-2.5 1.8-4.1 1.8-2.7 0-4.7-1.8-4.6-4.9.1-4.3 5-5.6 8.5-6v-1.5zm0 4c-1.9.2-3.3.9-3.3 3 0 1.2.6 1.8 1.6 1.8.6 0 1.3-.4 1.7-1v-3.8zm13.9-3.9v11.9h-5.4V18.8h5.2v1.7h.1c1.1-1.1 2.6-2.1 4.7-2.1 2.3 0 3.7 1.6 3.7 3.9v13.1h-5.4V24c0-.9-.3-1.5-1.2-1.5-.6 0-1.2.4-1.7 1zm11.6-11.7h5.4v12h.1l3.9-5h5.3l-4.4 5.1 4.5 11.5h-5.6l-2.6-7.3h-.1l-1.1 1.3v6h-5.4V11.8zM12.4 23.1c2.6.8 4.4 2.9 4.4 5.9 0 4-3.2 6.3-7.7 6.3H0V11.8h9.3c4.2 0 6.9 2.5 6.9 5.8 0 3.1-2.1 4.7-3.8 5.4v.1zM5.8 31H8c1.3 0 3-.6 3-3 0-1.8-1.1-2.9-3-2.9H5.8V31zm0-9.8h2c2.2 0 3-1.2 3-2.6 0-2.2-1.5-2.6-2.9-2.6H5.8v5.2zM206 23.4c0-1-.5-1.6-1.4-1.6-1.3 0-1.7 1.2-1.8 2.2l-4.7-1c.6-3.3 3.6-4.6 6.6-4.6 3.2 0 6.5 1.4 6.5 5.1v9.3c0 1.9.3 2.5.5 2.7h-5.5c-.1-.5-.1-1.2-.2-1.5-.9 1-2.5 1.8-4.1 1.8-2.7 0-4.7-1.8-4.6-4.9.1-4.3 5-5.6 8.5-6v-1.5h.2zm0 4c-1.9.2-3.3.9-3.3 3 0 1.2.6 1.8 1.6 1.8.6 0 1.3-.4 1.7-1v-3.8zm-55.1.8c-.1 1.5.3 3.9 2.5 3.9 1.3 0 2.4-.9 2.6-2.3l3.6 1.3c-.2.8-1.9 4.5-6.6 4.5-5.1 0-7.4-4.1-7.4-8.7 0-4.7 2.4-8.7 7.4-8.7 5.2 0 6.9 4.4 6.9 8.8v1.1h-9v.1zm4-3.1c.1-1.5-.2-3.3-2-3.3-1.5 0-2.1 1.8-2 3.3h4zm19.4-6.3h5.4v16.6h-5.4V18.8zm0-7h5.4v4.8h-5.4v-4.8zm17.2 13.1c0-.7 0-1.5-.3-2.1-.3-.7-.7-1.1-1.5-1.1-1.8 0-2 2.2-2 5.5 0 3.7.6 5 2 5 1.9 0 2-1.9 2-3.2l4.2.6c-.4 4-2.7 6.1-6.6 6.1-4.8 0-7.3-4.2-7.3-8.3 0-4.5 2.5-9.1 7.6-9.1 5.7 0 6.6 4.9 6.6 6.6h-4.7zm-84.8-13.1h7.8l5 23.5h-5.8l-.9-4.8h-5.5l-1 4.8h-5.2l5.6-23.5zm1.5 14.7h3.8l-1.7-9.6h-.1l-2 9.6zm53.9-7.7h5.2l.1 2.3h.1c1.1-1.7 3.1-2.6 5.2-2.6v5.4c-.6-.2-1.3-.5-2.2-.5-1.4 0-2.3.5-2.9 1.3v10.7h-5.4V18.8h-.1zm-27.2 4.7v11.8h-5.3V24c0-.9-.3-1.5-1.3-1.5-.6 0-1.4.4-1.8 1v11.8h-5.3V18.8h5.2v1.7h.1c1.1-1.1 2.8-2.1 4.8-2.1 1.6 0 2.7.9 3.2 2.2h.1c.9-1 2.5-2.2 4.8-2.2 2.2 0 3.7 1.5 3.7 3.8v13.2h-5.3V24c0-.9-.3-1.5-1.2-1.5-.6 0-1.4.6-1.7 1z" fill="#0052C2" fill-rule="nonzero"/><path d="M244.6 8.8c2.1.8 4.2 1.7 6.2 2.7-6.5 2.6-12.9 5.8-18.9 9.4-2-1.1-4.1-2.1-6.2-3 6.1-3.5 12.4-6.6 18.9-9.1m-7.7-2.7c-6.8 2.1-13.3 5-19.5 8.4 2 .7 3.9 1.5 5.9 2.3 6-3.5 12.3-6.5 18.9-8.9-1.8-.7-3.6-1.3-5.3-1.8" fill="#0052C2"/><path d="M258.8 8.5c-5.3-2.6-10.9-4.8-16.6-6.5-2 .6-4 1.2-6 1.9 5.9 1.7 11.6 3.9 17.1 6.6l5.5-2m8.7-2.5c-5.5-2.4-11.1-4.4-16.9-6-1.8.4-3.7.8-5.5 1.3 5.7 1.7 11.3 3.8 16.7 6.3 1.9-.6 3.8-1.1 5.7-1.6m14 4.7c-13.7 4.6-26.5 11.2-38.1 19.4 2.9 1.8 5.7 3.7 8.5 5.7 10.9-8.7 23.1-15.9 36.1-21.4-2.1-1.4-4.3-2.6-6.5-3.7m-9.4-4.5C257.8 9.9 244.5 16 232.4 24c2.7 1.3 5.4 2.8 8 4.3 11.8-8.2 24.9-14.5 38.9-18.8-2.4-1.2-4.8-2.3-7.2-3.3" fill="#E31932"/></g></svg>