<svg xmlns:xlink="http://www.w3.org/1999/xlink" data-name="Capa 1" xmlns="http://www.w3.org/2000/svg" viewBox="0 0 1049.1 116.4" width="1049.1"  height="116.4" >  
 <path class="cls-1" d="M295.8,73.6l15.7-52.5,15.9,52.5h-31.7ZM336.5,11.9c-3.2-9.5-5-11.7-14-11.7h-22l-35.2,115.1h17.9l7.6-24.8h41.8l7.6,24.8h31.2l-34.9-103.4Z" fill="#001391"></path> 
 <path class="cls-1" d="M133,100h-8.2V15.2h14.8c7.1,0,13.3,5.9,13.3,13s-.5,4.8-2.9,8.3l-9.6,14.4c10,2.4,16.7,10,16.7,24.3s-10.4,24.8-24.1,24.8M162.1,45.3l5.7-8.3C179.6,19.4,171.4.2,147.9.2h-50.2v115.1h48.4c42.6,0,55.3-49.6,15.9-70" fill="#001391"></path> 
 <path class="cls-1" d="M35.6,100h-8.1V15.2h14.7c7.1,0,13.3,5.9,13.3,13s-.5,4.8-2.9,8.3l-9.6,14.4c10.1,2.4,16.8,10,16.8,24.3s-10.4,24.8-24.1,24.8M64.7,45.3l5.6-8.3C82.2,19.4,74,.2,50.5.2H.4v115.1h48.4c42.5,0,55.4-49.6,15.9-70" fill="#001391"></path> 
 <path class="cls-1" d="M260.6.2l-26,87.4-21.8-72.4c-4.1-13-6.2-15-14-15h-20.3l37.7,115.1h27.7L278.8.2h-18.2Z" fill="#001391"></path> 
 <path class="cls-1" d="M704,28.3c-1.4-.1-2.5-.1-3.6,0-3.8.5-5.5,2.8-7,6.1,0,.2-23.9,60.4-24.9,63h0s0,0,0,0c-1-2.6-24.8-62.8-24.9-63-1.5-3.3-3.2-5.6-7-6.1-1-.1-2.2-.1-3.6,0-.7,0-1.5.2-2.4.4-.5,0-1.1.2-1.6.3l6.5,16.6,27.6,69.7h5.3s0,0,0,0h0s5.3,0,5.3,0l27.6-69.7,6.5-16.6c-.6-.1-1.1-.3-1.6-.3-.8-.2-1.6-.3-2.3-.4" fill="#001391"></path> 
 <path class="cls-1" d="M440,58h-18.3V11.2h18.3c20.3,0,28.9,6.9,28.9,23.1s-8.7,23.7-28.9,23.7M440.1.2h-30.9v115.1h12.4v-46.5h18.3c28,0,41.5-11.4,41.5-34.9S467.6.2,440.1.2" fill="#001391"></path> 
 <path class="cls-1" d="M584.1,105.8c-17.7,0-28.3-12.7-28.3-33.9s10.6-34,28.3-34,28.5,12.7,28.5,34-10.6,33.9-28.5,33.9M584.1,27.7c-24.5,0-40.4,17.4-40.4,44.2s15.9,44.1,40.4,44.1,40.6-17.3,40.6-44.1-15.9-44.2-40.6-44.2" fill="#001391"></path> 
 <path class="cls-1" d="M928.3,28.7h-4.5v86.7h12V39.3c0-7.5-.7-10.6-7.4-10.6" fill="#001391"></path> 
 <path class="cls-1" d="M929.9,5.2c-4,0-7.4,3.4-7.4,7.4s3.3,7.4,7.4,7.4,7.4-3.2,7.4-7.4-3.4-7.4-7.4-7.4" fill="#001391"></path> 
 <path class="cls-1" d="M1041.6.3h-4.9v115.1h11.9V9.9c0-6.8-.6-9.6-7.1-9.6" fill="#001391"></path> 
 <path class="cls-1" d="M1006.5,93.8c-3,3.5-6.2,6.5-10,8.6-4,2.2-8.7,3.5-15.1,3.5s-5-.3-7.2-.9c-1.6-.5-3-1.2-4.3-2-1.9-1.2-3.3-2.8-4.4-5-1.1-2.2-1.7-5-1.7-8.5s.6-5.3,1.7-7.2c.9-1.5,1.9-2.7,3.3-3.9,2-1.6,4.7-2.8,7.9-3.7,3.1-.8,6.7-1.2,10.8-1.2,7.1,0,13.4.9,19.2,2.2v18ZM1011.8,35c-2.6-2.6-6.1-4.5-10.1-5.7-3.9-1.1-8.4-1.6-13.3-1.6-16.5,0-25.8,4.9-31.9,8.3,4.5,9.4,9.2,7.1,15.3,4.5,4.7-2,10.1-2.9,15.8-2.9s5.5.6,8.3,1.2c1.6.4,3.1,1.1,4.4,1.8,2,1.2,3.4,2.8,4.5,4.8,1.1,2,1.6,4.7,1.6,8.1v12.3c-6.2-1.4-12.6-2-19.7-2s-9.6.5-13.9,1.5c-3.1.8-6,1.8-8.7,3.2-3.8,2.1-7,5-9.2,8.6-2.2,3.7-3.4,8-3.4,13s.7,7.9,2.1,11.2c2.2,4.8,5.8,8.7,10.4,11.1,4.6,2.5,10.1,3.8,16.2,3.8h0c7.1,0,12.7-1.3,17.5-3.5,3.3-1.6,6.1-3.6,8.7-5.9,0,1.1.1,2,.3,2.9.1.9.4,1.8.8,2.5.3.6.7,1.2,1.1,1.6.8.6,1.7,1,2.5,1.2.9.2,2,.3,3,.3h4.2v-62.3c0-4.5-.7-8.3-2.2-11.7-1.1-2.5-2.5-4.6-4.4-6.3" fill="#001391"></path> 
 <path class="cls-1" d="M893,102.5c-3.5,1.7-8.2,3.1-14.4,3.1s-8.7-.8-12.3-2.2c-2.6-1.1-4.9-2.6-7-4.5-3.1-2.8-5.4-6.4-7.1-11-1.6-4.5-2.5-10-2.5-16.2s.7-10.3,2.2-14.4c2-6.2,5.5-11,10-14.2,4.5-3.3,10.1-5,16.7-5,5.6,0,9.9.9,13.1,2.3,6.1,2.6,10.4,5.7,14.9-3.7-12.2-9.9-24.4-8.8-27.9-9-6,0-11.6,1-16.6,2.9-7.5,3-13.8,8.2-18,15.2-4.3,7-6.6,15.8-6.6,25.9s.9,12.8,2.7,18.2c2.8,8.2,7.5,14.7,14,19.2,6.5,4.4,14.6,6.9,24,6.9h0c7.4,0,13.5-1.5,18.3-3.5.6-.3,1.2-.5,1.8-.8,3.9-1.8,7.6-4.7,9.7-6.7-5.1-9.1-9.2-5.6-15.1-2.6" fill="#001391"></path> 
 <path class="cls-1" d="M728.3,5.2c-4,0-7.4,3.4-7.4,7.4s3.3,7.4,7.4,7.4,7.4-3.2,7.4-7.4-3.4-7.4-7.4-7.4" fill="#001391"></path> 
 <path class="cls-1" d="M726.7,28.7h-4.5v86.7h12V39.3c0-7.5-.7-10.6-7.4-10.6" fill="#001391"></path> 
 <path class="cls-1" d="M800.1,27.7c-11.7,0-23.2,4.1-34.3,12.1v-.9c0-7-.6-10.3-6.3-10.3h-5.7v86.7h12V51.4c11.6-8.7,21.9-13,31.3-13s14.5,4.2,14.5,14.3v62.6h12v-63.6c0-15.8-8.1-24.1-23.4-24.1" fill="#001391"></path> 
 <path class="cls-1" d="M516,33c-3.1,1.9-6,4.3-8.4,6.7,0-2.1,0-3.7-.2-5,0-1-.2-1.9-.5-2.7-.2-.5-.5-1.1-.9-1.7-.3-.3-.6-.6-1-.9-.6-.4-1.2-.6-1.8-.7-.5,0-1.1,0-1.7-.1h-5.7v86.7h12v-62.3c4.2-5,8.1-8,10.8-9.7,0,0,.2,0,.3-.2,4.8-3.1,8.7-3.9,11.8-4.2,5.6-.5,9.3-1.3,9.8-9.9-2.2-.6-4.8-1.1-7.5-1.1-6.3,0-11.9,1.9-16.7,4.9" fill="#001391"></path>
</svg>