<?xml version="1.0" encoding="UTF-8" standalone="no"?>
<svg
   version="1.1"
   width="111.6827"
   height="30.271099"
   viewBox="0 0 111.68269 30.271099"
   id="svg17"
   sodipodi:docname="PDF1_SVG1.svg"
   inkscape:version="1.4.2 (f4327f4, 2025-05-13)"
   xmlns:inkscape="http://www.inkscape.org/namespaces/inkscape"
   xmlns:sodipodi="http://sodipodi.sourceforge.net/DTD/sodipodi-0.dtd"
   xmlns="http://www.w3.org/2000/svg"
   xmlns:svg="http://www.w3.org/2000/svg">
  <sodipodi:namedview
     id="namedview17"
     pagecolor="#ffffff"
     bordercolor="#000000"
     borderopacity="0.25"
     inkscape:showpageshadow="2"
     inkscape:pageopacity="0.0"
     inkscape:pagecheckerboard="0"
     inkscape:deskcolor="#d1d1d1"
     inkscape:zoom="5.6568543"
     inkscape:cx="44.547727"
     inkscape:cy="41.100582"
     inkscape:window-width="1920"
     inkscape:window-height="1009"
     inkscape:window-x="-8"
     inkscape:window-y="-8"
     inkscape:window-maximized="1"
     inkscape:current-layer="svg17" />
  <defs
     id="defs2">
    <clipPath
       id="clip_1">
      <path
         transform="matrix(0.1,0,0,-0.1,0,858.898)"
         d="M 85.0391,85.0391 H 6037.799 V 8503.939 H 85.0391 Z"
         id="path2" />
    </clipPath>
  </defs>
  <g
     clip-path="url(#clip_1)"
     id="g16"
     transform="translate(-39.0563,-789.4414)">
    <path
       d="m 112.382,814.1093 h -5.446 v 5.377 h -2.731 v -12.5809 h 2.731 v 5.1508 h 5.446 v -5.1508 h 2.733 v 12.5809 h -2.733"
       fill="#231916"
       id="path4"
       style="stroke-width:0.1" />
    <path
       transform="matrix(0.1,0,0,-0.1,0,858.898)"
       d="m 1216.55,391.855 c -27.15,0 -49.42,10.797 -49.93,40.911 h 27.31 c 0.36,-13.422 8.18,-21.422 23.15,-21.422 11.14,0 23.64,5.57 23.64,18.082 0,9.758 -8.51,12.887 -22.59,16.887 l -9.07,2.621 c -19.82,5.73 -39.48,13.402 -39.48,36.019 0,28 26.08,37.391 49.93,37.391 24.53,0 45.59,-8.5 45.77,-36.352 h -27.33 c -1.05,11.492 -7.65,18.094 -20.53,18.094 -10.09,0 -20.18,-5.383 -20.18,-16.531 0,-9.219 8.36,-12 26.09,-17.582 l 10.44,-3.309 c 21.57,-6.769 35.15,-14.262 35.15,-35.129 0,-28.699 -27.66,-39.68 -52.37,-39.68"
       fill="#231916"
       id="path5" />
    <path
       transform="matrix(0.1,0,0,-0.1,0,858.898)"
       d="m 1330.77,412.91 c 12.7,0 25.23,2.957 25.23,18.258 0,14.98 -10.8,18.473 -23.66,18.473 h -21.57 V 412.91 Z m -2.61,54.641 c 12,0 24.18,2.437 24.18,17.058 0,13.051 -11.48,16.508 -22.45,16.508 h -19.12 v -33.566 z m -43.86,52.367 h 43.66 c 13.78,0 19.33,-0.328 24.74,-1.559 15.3,-3.48 26.79,-13.39 26.79,-30.281 0,-16.18 -10.27,-24.527 -25.06,-28.379 17.06,-3.109 29.57,-11.82 29.57,-30.441 0,-28.528 -28.18,-35.149 -50.28,-35.149 h -49.42"
       fill="#231916"
       id="path6" />
    <path
       transform="matrix(0.1,0,0,-0.1,0,858.898)"
       d="m 1455.2,391.855 c -40.55,0 -58.82,25.93 -58.82,64.208 0,37.929 20.2,66.281 60.22,66.281 25.04,0 49.42,-11.129 50.1,-39.66 h -28.17 c -1.4,12.539 -9.75,19.129 -21.93,19.129 -24.55,0 -32.02,-26.438 -32.02,-46.61 0,-20.019 7.47,-43.328 31.15,-43.328 12.33,0 21.4,6.598 23.31,19.309 h 28.35 c -3.11,-28.532 -26.08,-39.329 -52.19,-39.329"
       fill="#231916"
       id="path7" />
    <path
       transform="matrix(0.1,0,0,-0.1,0,858.898)"
       d="m 842.008,393.531 150.476,150.5 -150.476,150.481"
       fill="#e72910"
       id="path8" />
    <path
       transform="matrix(0.1,0,0,-0.1,0,858.898)"
       d="m 691.523,544.016 150.481,150.48 H 541.043"
       fill="#e72910"
       id="path9" />
    <path
       transform="matrix(0.1,0,0,-0.1,0,858.898)"
       d="m 390.563,544.023 150.48,-150.5 v 300.981"
       fill="#e72910"
       id="path10" />
    <path
       transform="matrix(0.1,0,0,-0.1,0,858.898)"
       d="m 541.035,393.531 h 300.981 l -150.481,150.5"
       fill="#e72910"
       id="path11" />
    <path
       transform="matrix(0.1,0,0,-0.1,0,858.898)"
       d="m 1200.61,584.129 v 92.23 h 64.27 v 14.551 h -79.54 v -0.48 h -0.16 V 569.617 h 0.16 v -0.039 h 80.45 v 14.551"
       fill="#231916"
       id="path12" />
    <path
       transform="matrix(0.1,0,0,-0.1,0,858.898)"
       d="m 1407.84,611.465 h -55.57 v 18.68 h 42.84 v 14.55 h -42.84 v 18.68 h 50.97 v 14.551 h -50.97 v 16.64 h -15.8 v -16.64 h -50.92 v -14.551 h 50.92 v -18.68 h -42.61 v -14.55 h 42.61 v -18.68 h -55.34 v -14.551 h 55.34 v -30.48 h 15.8 v 30.48 h 55.57"
       fill="#231916"
       id="path13" />
    <path
       transform="matrix(0.1,0,0,-0.1,0,858.898)"
       d="m 1141.06,683.645 10.6,10.707 c 0,0 14.72,-9.34 24.09,-18.707 l -10.78,-12.192 c 0,0 -12.03,13.25 -23.91,20.192"
       fill="#231916"
       id="path14" />
    <path
       transform="matrix(0.1,0,0,-0.1,0,858.898)"
       d="m 1137.33,650.156 10.12,11.629 c 0,0 19.13,-13.738 25.29,-21.558 l -10.87,-11.329 c 0,0 -16.07,16.34 -24.54,21.258"
       fill="#231916"
       id="path15" />
    <path
       transform="matrix(0.1,0,0,-0.1,0,858.898)"
       d="m 1162.23,621.738 14.93,-8.043 c 0,0 -10.39,-27.879 -24.03,-47.238 l -14.72,9.281 c 0,0 15.95,19.891 23.82,46"
       fill="#231916"
       id="path16" />
  </g>
</svg>
