<?xml version="1.0" encoding="UTF-8" standalone="no"?>
<!-- Created with Inkscape (http://www.inkscape.org/) -->

<svg
   width="264.58334mm"
   height="89.425652mm"
   viewBox="0 0 264.58334 89.425652"
   version="1.1"
   id="svg1"
   inkscape:version="1.4.2 (f4327f4, 2025-05-13)"
   sodipodi:docname="ING Group (wordmark).svg"
   xmlns:inkscape="http://www.inkscape.org/namespaces/inkscape"
   xmlns:sodipodi="http://sodipodi.sourceforge.net/DTD/sodipodi-0.dtd"
   xmlns="http://www.w3.org/2000/svg"
   xmlns:svg="http://www.w3.org/2000/svg"
   xmlns:ns2="http://ns.adobe.com/AdobeIllustrator/10.0/">
  <sodipodi:namedview
     id="namedview1"
     pagecolor="#ffffff"
     bordercolor="#000000"
     borderopacity="0.25"
     inkscape:showpageshadow="2"
     inkscape:pageopacity="0.0"
     inkscape:pagecheckerboard="0"
     inkscape:deskcolor="#d1d1d1"
     inkscape:document-units="mm"
     inkscape:zoom="0.71891835"
     inkscape:cx="493.79738"
     inkscape:cy="96.673009"
     inkscape:window-width="1920"
     inkscape:window-height="1009"
     inkscape:window-x="-8"
     inkscape:window-y="-8"
     inkscape:window-maximized="1"
     inkscape:current-layer="layer1" />
  <defs
     id="defs1" />
  <g
     inkscape:label="Layer 1"
     inkscape:groupmode="layer"
     id="layer1"
     transform="translate(-28.575,-122.76665)">
    <path
       ns2:knockout="Off"
       d="m 31.425434,127.92633 c 3.44917,0 5.852704,0.72972 7.345243,2.22069 1.670155,1.66838 2.417857,4.4242 2.417857,8.93425 v 56.33281 c 0,7.7953 -1.635777,11.27228 -11.290015,11.27228 H 28.575 v 3.45696 h 43.386774 v -3.43978 l -1.309195,-0.0174 c -9.562566,-0.1145 -11.175425,-3.57143 -11.175425,-11.27229 v -56.33566 c 0,-4.49575 0.744838,-7.24014 2.414992,-8.90566 1.506864,-1.51385 3.953369,-2.2493 7.474156,-2.2493 h 2.592607 v -3.5056 H 28.575 v 3.5056 h 2.850434 z"
       id="path13"
       inkscape:connector-curvature="0"
       style="clip-rule:evenodd;overflow:visible;fill:#091c5a;fill-rule:evenodd;stroke-width:0.643608" />
    <path
       ns2:knockout="Off"
       d="m 170.18863,181.40599 c 0,0 -0.75343,-3.51703 -0.86231,-5.48588 v -25.72966 c -0.16898,-15.00396 1.8793,-22.47303 -11.25276,-22.41579 v -3.3711 h 30.20888 v 3.3711 c -13.52451,-0.0543 -11.82285,7.41469 -11.90021,22.41579 v 60.07879 l -4.3,-0.0458 -65.23342,-68.19459 c 0,0 0.73337,3.51131 0.84224,5.48304 v 42.13299 c -0.36956,15.37025 1.53551,17.22751 11.44757,17.04721 v 3.51133 H 87.646326 v -3.51133 c 9.926396,0.0122 11.877297,-1.3078 11.865834,-18.30064 v 1.01591 -41.52345 l -0.08021,-6.59051 c 0.369554,-8.53078 -2.784545,-13.47868 -12.413005,-13.39854 v -3.37397 h 28.994225 z"
       id="path15"
       inkscape:connector-curvature="0"
       style="clip-rule:evenodd;overflow:visible;fill:#091c5a;fill-rule:evenodd;stroke-width:0.643608" />
    <path
       ns2:knockout="Off"
       d="m 279.54221,122.76665 h -3.32886 l -0.15476,1.13897 c -0.22631,1.69986 -0.89668,4.54726 -2.8361,4.54726 -0.55291,0 -1.93085,-0.26042 -3.48355,-0.97013 -6.74365,-2.91894 -15.48117,-4.7161 -22.83787,-4.7161 -14.31519,0 -27.30114,5.12248 -36.57725,14.42875 -8.5198,8.55081 -13.18074,20.1894 -13.11486,32.76662 0.0602,12.04781 4.80134,21.9579 14.50715,30.31124 9.77742,8.35621 20.73225,11.91904 36.65172,11.91904 13.26097,0 20.85259,-1.90304 32.50355,-8.15015 l 2.03971,-1.10463 v -22.47875 c 0,-9.581 1.17455,-11.07196 8.97817,-11.38674 l 1.26907,-0.0486 v -3.33962 h -38.1242 v 3.33962 l 1.26908,0.0486 c 8.69168,0.33768 10.33319,1.89446 10.33319,9.81567 v 20.83039 c -6.44858,4.24965 -11.13533,5.86366 -17.04532,5.86366 -8.74611,0 -16.52966,-3.37681 -22.50554,-9.34063 -6.9986,-6.99689 -10.41341,-17.18745 -10.41341,-28.70298 0,-12.40552 3.30594,-22.98812 10.11833,-29.78755 5.423,-5.41722 12.625,-8.42489 20.84112,-8.42489 7.33952,0 15.86504,3.14503 21.71202,7.77813 4.75549,3.88907 7.22206,7.65222 9.08414,13.87072 l 0.28363,0.9415 h 3.25435 z"
       id="path17"
       inkscape:connector-curvature="0"
       style="clip-rule:evenodd;overflow:visible;fill:#091c5a;fill-rule:evenodd;stroke-width:0.643608" />
  </g>
</svg>
