<?xml version="1.0" encoding="UTF-8" standalone="no"?>
<!-- Created with Inkscape (http://www.inkscape.org/) -->

<svg
   width="132.29166mm"
   height="14.23657mm"
   viewBox="0 0 132.29165 14.23657"
   version="1.1"
   id="svg1"
   inkscape:version="1.4 (86a8ad7, 2024-10-11)"
   sodipodi:docname="Lloyds Bank 2013 wordmark.svg"
   xmlns:inkscape="http://www.inkscape.org/namespaces/inkscape"
   xmlns:sodipodi="http://sodipodi.sourceforge.net/DTD/sodipodi-0.dtd"
   xmlns="http://www.w3.org/2000/svg"
   xmlns:svg="http://www.w3.org/2000/svg">
  <sodipodi:namedview
     id="namedview1"
     pagecolor="#ffffff"
     bordercolor="#000000"
     borderopacity="0.25"
     inkscape:showpageshadow="2"
     inkscape:pageopacity="0.0"
     inkscape:pagecheckerboard="0"
     inkscape:deskcolor="#d1d1d1"
     inkscape:document-units="mm"
     inkscape:zoom="1.9729351"
     inkscape:cx="220.99055"
     inkscape:cy="99.597805"
     inkscape:window-width="1920"
     inkscape:window-height="1001"
     inkscape:window-x="-9"
     inkscape:window-y="-9"
     inkscape:window-maximized="1"
     inkscape:current-layer="layer1" />
  <defs
     id="defs1" />
  <g
     inkscape:label="Layer 1"
     inkscape:groupmode="layer"
     id="layer1"
     transform="translate(-183.0017,-143.01026)">
    <path
       d="m 183.0017,156.90236 h 7.60731 l 0.74318,-2.12651 v -0.0166 h -5.88636 v -11.40484 h -2.46413 z m 10.72102,0 h 7.60731 l 0.74375,-2.12651 v -0.0166 h -5.88664 v -11.40484 h -2.46442 z m 9.06114,-6.8122 c 0,4.22905 2.9867,7.15667 7.02995,7.15667 4.09947,0 7.08561,-2.92762 7.08561,-7.15667 0,-4.34377 -2.98614,-7.0799 -7.08561,-7.0799 -4.04325,0 -7.02995,2.73613 -7.02995,7.0799 z m 2.54119,0 c 0,-2.79349 1.79944,-4.95596 4.5076,-4.95596 2.7267,0 4.52586,2.16247 4.52586,4.95596 0,2.88938 -1.83626,4.99449 -4.52586,4.99449 -2.67105,0 -4.5076,-2.10511 -4.5076,-4.99449 z m 26.19394,6.8122 h 4.5584 c 3.35972,0 7.10101,-2.02805 7.10101,-6.77396 0,-5.09009 -3.74129,-6.77395 -7.10101,-6.77395 h -4.5584 z m 2.28833,-2.10482 v -9.37651 h 1.90704 c 2.36082,0 5.01275,0.82281 5.01275,4.70737 0,3.65483 -2.65193,4.66914 -5.01275,4.66914 z m 19.80899,-10.78781 c -1.05541,-0.67012 -2.4022,-0.80825 -3.60745,-0.80825 -2.61882,0 -5.29957,1.03315 -5.29957,3.78867 0,2.52607 1.90332,3.32919 3.66281,3.84633 1.82085,0.53512 3.57234,0.94895 3.39083,2.35369 -0.16468,1.27459 -1.1553,1.63448 -2.977,1.63362 -1.06597,-5.4e-4 -2.44216,-0.28939 -3.97162,-1.26774 l -1.01859,2.11395 c 1.69299,1.04513 3.36886,1.52232 5.25163,1.52232 2.84344,0 5.27875,-1.36135 5.27875,-4.27014 0,-2.65992 -2.44787,-3.22273 -4.23533,-3.96106 -1.55257,-0.64129 -2.34655,-0.5531 -2.76237,-1.5931 -0.67954,-1.69926 2.44644,-2.4296 5.42458,-1.20124 z m 8.81827,12.89263 h 4.98706 c 2.62054,0 5.24107,-0.99491 5.24107,-3.94165 0,-1.818 -1.25176,-2.96616 -2.99212,-3.1959 v -0.0383 c 1.42756,-0.42096 2.40534,-1.43527 2.40534,-2.96587 0,-2.46841 -2.15134,-3.40624 -4.2436,-3.40624 h -5.39775 z m 2.46413,-11.55782 h 1.97496 c 1.85795,0 2.73812,0.47833 2.73812,1.68386 0,1.16728 -0.88017,1.83711 -2.52292,1.83711 h -2.19016 z m 0,5.58755 h 2.30774 c 1.99465,0 2.99213,0.49773 2.99213,1.9136 0,1.77975 -1.81885,2.02862 -3.09002,2.02862 h -2.20985 z m 8.33937,5.97027 h 2.75781 l 1.25147,-3.09973 c 2.00122,0.42068 4.00244,0.43181 6.00423,0 l 1.29086,3.09973 h 2.81604 l -5.96484,-13.54791 h -2.13194 z m 4.85036,-5.16659 2.17046,-5.51106 2.13193,5.51106 c -1.46866,0.33563 -2.9008,0.32051 -4.30239,0 z m 10.58289,5.16659 h 2.36852 v -10.11141 h 0.0374 l 6.09156,10.11141 h 3.00754 v -13.54791 h -2.36796 v 9.86825 h -0.038 l -5.96027,-9.86825 h -3.13882 z m 14.55535,0 h 2.40849 v -6.46458 l 6.19687,6.46458 h 3.46132 l -6.9038,-7.04423 6.47371,-6.50368 h -3.3249 l -5.84469,6.04704 h -0.0585 v -6.04704 h -2.40849 z m -78.54671,-4.36519 v 4.45023 h -2.61939 v -4.45023 c -0.63844,-0.9167 -1.296,-1.76491 -2.06287,-3.03465 -1.27402,-2.1091 -2.36253,-3.80066 -3.19818,-6.14807 h 2.95559 c 0.67611,1.8257 1.40902,3.45248 2.19815,4.75847 0.4592,0.7603 0.92783,1.39788 1.40387,1.88392 l 0.0129,0.0137 0.0137,-0.0137 c 0.47604,-0.48604 0.94467,-1.12362 1.40388,-1.88392 0.78855,-1.30599 1.52174,-2.93277 2.19814,-4.75847 h 2.95531 c -0.83565,2.34741 -1.92388,4.03897 -3.19818,6.14807 -0.76687,1.26974 -1.42386,2.11795 -2.06287,3.03465"
       fill="#006846"
       fill-rule="evenodd"
       id="svg_14"
       style="stroke-width:0.0285399" />
  </g>
</svg>
