<?xml version="1.0" encoding="UTF-8" standalone="no"?>
<!-- Created with Inkscape (http://www.inkscape.org/) -->

<svg
   width="132.29167mm"
   height="27.862991mm"
   viewBox="0 0 132.29167 27.862992"
   version="1.1"
   id="svg1"
   inkscape:version="1.4 (86a8ad7, 2024-10-11)"
   sodipodi:docname="NatWest wordmark.svg"
   xmlns:inkscape="http://www.inkscape.org/namespaces/inkscape"
   xmlns:sodipodi="http://sodipodi.sourceforge.net/DTD/sodipodi-0.dtd"
   xmlns="http://www.w3.org/2000/svg"
   xmlns:svg="http://www.w3.org/2000/svg">
  <sodipodi:namedview
     id="namedview1"
     pagecolor="#ffffff"
     bordercolor="#000000"
     borderopacity="0.25"
     inkscape:showpageshadow="2"
     inkscape:pageopacity="0.0"
     inkscape:pagecheckerboard="0"
     inkscape:deskcolor="#d1d1d1"
     inkscape:document-units="mm"
     inkscape:zoom="1.9729351"
     inkscape:cx="205.27792"
     inkscape:cy="77.296006"
     inkscape:window-width="1920"
     inkscape:window-height="1001"
     inkscape:window-x="-9"
     inkscape:window-y="-9"
     inkscape:window-maximized="1"
     inkscape:current-layer="layer1" />
  <defs
     id="defs1" />
  <g
     inkscape:label="Layer 1"
     inkscape:groupmode="layer"
     id="layer1"
     transform="translate(-43.787376,-36.895635)">
    <g
       stroke-width="0.32"
       id="g5"
       transform="matrix(0.35034869,0,0,0.35034869,43.787376,-81.26892)">
      <path
         d="m 313.76,416.604 c -3.471,-0.42 -8.799,-1.725 -11.52,-2.822 l -2.24,-0.903 10e-4,-12.566 c 0.096,0 1.143,0.487 2.327,1.082 2.868,1.442 7.582,2.954 11.074,3.552 6.49,1.11 11.353,0.158 13.45,-2.636 0.871,-1.162 1.034,-3.547 0.34,-5.007 -0.788,-1.662 -2.6,-2.787 -8.896,-5.523 -10.36,-4.501 -12.476,-5.644 -14.871,-8.032 -3.307,-3.297 -4.526,-6.287 -4.534,-11.116 -0.017,-11.236 9.998,-18.15 24.333,-16.798 5.157,0.487 10.33,1.62 12.486,2.734 l 0.93,0.48 -0.4,12.041 -3.08,-1.32 c -4.219,-1.809 -7.086,-2.473 -11.455,-2.652 -3.133,-0.13 -4.239,-0.052 -5.656,0.394 -3.988,1.254 -5.225,4.586 -2.674,7.201 1.571,1.61 2.791,2.272 10.014,5.427 7.638,3.336 10.206,4.764 12.753,7.093 3.303,3.019 4.658,6.355 4.658,11.475 0,5.24 -1.734,9.256 -5.425,12.572 -2.18,1.958 -6.845,4.252 -9.933,4.885 -3.086,0.633 -8.422,0.833 -11.682,0.439 z M 80.762,416 c -3.789,-0.993 -6.695,-2.663 -9.415,-5.41 -2.77,-2.798 -4.218,-5.427 -4.994,-9.067 -0.65,-3.053 -0.42,-8 0.492,-10.592 2.184,-6.203 7.56,-10.795 14.915,-12.738 2.208,-0.584 3.763,-0.699 11.32,-0.838 l 8.76,-0.162 c -0.728,-7.27 -4.57,-9.305 -9.36,-9.823 -6.61,-0.015 -12.953,0.738 -18.894,3.144 l 0.174,-11.957 c 7.573,-2.306 16.321,-3.783 23.788,-2.597 7.508,1.313 12.672,4.867 15.247,10.493 1.686,3.683 1.765,4.922 1.765,27.808 v 21.092 h -12.77 l -0.19,-4.176 c -2.856,2.214 -6.286,4.18 -9.468,4.963 -2.9,0.683 -8.493,0.615 -11.37,-0.14 z"
         fill="#44195e"
         id="path1" />
      <path
         d="m 91.935,404.637 c 4.34,-1.368 6.746,-3.437 9.825,-6.317 v -9.576 l -7.92,0.116 c -7.264,0.106 -8.067,0.174 -9.693,0.822 -1.877,0.748 -3.73,2.421 -4.604,4.159 -1.057,2.1 -0.586,5.878 0.998,7.999 2.102,2.814 6.85,3.98 11.394,2.797 z"
         fill="#ffffff"
         id="path2" />
      <path
         d="m 136.64,416.175 c -3.091,-0.86 -6.032,-2.945 -7.553,-5.355 -0.409,-0.647 -1.073,-2.088 -1.475,-3.202 -1.48,-14.637 -0.888,-20.264 -1.052,-39.465 l -8.16,-0.18 v -11.16 l 8.16,-0.18 0.32,-14.96 12.63,-4.373 0.17,19.333 14.24,0.172 v 11.176 l -14.24,0.172 v 16.32 c 0,15.83 0.02,16.358 0.657,17.6 1.025,1.998 2.83,2.75 6.583,2.744 2.362,0.047 4.59,-0.455 6.856,-0.984 0.219,4.029 0.144,7.11 0.144,11.456 -5.534,0.801 -11.858,2.227 -17.28,0.886 z m 126.436,-0.015 c -10.237,-2.324 -16.885,-8.178 -19.849,-17.478 -2.2,-6.905 -2.196,-17.672 0.008,-24.609 2.948,-9.273 10.547,-16.159 19.805,-17.946 5.21,-1.006 12.052,-0.208 16.208,1.89 9.69,4.89 14.986,16.852 13.663,30.856 l -0.204,2.16 H 255.04 v 0.893 c 0,1.292 0.849,4.355 1.633,5.893 1.012,1.984 3.573,4.516 5.541,5.48 2.995,1.466 5.592,1.905 10.106,1.709 4.852,-0.212 8.806,-1.2 12.88,-3.218 l 2.8,-1.387 v 12.106 l -2.48,1.136 c -4.558,2.087 -7.773,2.722 -14.48,2.858 -4.386,0.089 -6.45,0 -7.964,-0.344 z"
         fill="#44195e"
         id="path3" />
      <path
         d="m 279.567,379.666 c 0.103,-0.268 -0.051,-1.436 -0.342,-2.595 -1.621,-6.453 -5.631,-9.824 -11.709,-9.842 -2.38,-0.007 -2.985,0.116 -4.8,0.97 a 12.773,12.773 0 0 0 -5.72,5.276 c -1.08,1.891 -2.137,5.424 -1.848,6.178 z"
         fill="#fffffb"
         id="path4" />
      <path
         d="m 360.64,416.219 c -4.497,-1.29 -7.58,-4.187 -9.025,-8.479 -0.708,-2.106 -0.725,-2.505 -0.889,-20.867 l -0.166,-18.72 -8.16,-0.18 v -11.16 l 8.16,-0.18 0.32,-14.945 12.555,-4.411 0.245,19.356 13.92,0.172 v 11.175 l -13.92,0.173 v 16.48 c 0,15.942 0.021,16.516 0.645,17.6 1.035,1.795 2.998,2.585 6.44,2.59 2.587,0.004 4.872,-0.305 6.3,-0.853 l -0.185,11.534 c -0.396,0.09 -1.368,0.318 -2.16,0.506 -2.304,0.548 -12.377,0.697 -14.08,0.209 z M 0,337.58 l 12.578,0.173 33.582,54.233 0.24,-54.393 h 12.48 v 77.774 L 46.354,415.193 12.777,361.769 12.48,415.353 H 0 Z m 171.678,77.373 c -5.304,-25.808 -11.07,-51.524 -16.238,-77.36 l 13.52,0.118 10.513,51.879 13.301,-51.997 h 12.641 l 13.317,52.438 c 3.556,-17.3 6.557,-34.832 9.748,-52.24 l 12.8,0.206 c -5.277,27.22 -9.683,48.428 -15.36,77.272 -4.446,0.09 -8.892,0.084 -13.338,0.084 l -6.828,-26.897 -7.055,-26.48 c -5.03,18.796 -8.679,33.158 -13.899,53.375 l -13.122,-0.399 z"
         fill="#44195e"
         id="path5" />
    </g>
  </g>
</svg>
