<?xml version="1.0" encoding="utf-8"?>
<!-- Generator: Adobe Illustrator 22.0.1, SVG Export Plug-In . SVG Version: 6.00 Build 0)  -->
<svg version="1.1" id="Capa_1" xmlns="http://www.w3.org/2000/svg" xmlns:xlink="http://www.w3.org/1999/xlink" x="0px" y="0px"
	 viewBox="0 0 108.83334 17.56667" style="enable-background:new 0 0 108.83334 17.56667;" xml:space="preserve">
<style type="text/css">
	.st0{fill:#EA1D25;}
</style>
<title>Grupo Santander</title>
<path class="st0" d="M15.41667,10.48333c0,1.9-2.8,3.4-6.3,3.4s-6.3-1.5-6.3-3.4c0-1.4,1.5-2.5,3.6-3.1c0,0.5,0.1,1,0.4,1.5l2,3.4
	c0.2,0.3,0.3,0.5,0.3,0.8l0.1-0.1c0.4-0.9,0.4-1.9-0.1-2.8l-1.6-2.7l0,0c-0.5-0.8-0.5-1.9,0-2.7l0.1-0.2c0.1,0.3,0.2,0.6,0.3,0.9
	l0.9,1.6l1.4,2.5c0.2,0.2,0.3,0.5,0.4,0.8l0.1-0.1c0.5-0.8,0.5-1.9,0-2.7l-1.6-2.8c-0.5-0.9-0.5-1.9,0-2.8l0.1-0.1
	c0.1,0.3,0.2,0.6,0.3,0.8l2,3.4c0.2,0.4,0.3,0.8,0.4,1.2C13.91667,7.88333,15.41667,9.08333,15.41667,10.48333 M54.91666,13.68333
	c2,0,3-0.9,3-2.3c0-1.1-0.6-1.8-2.1-2.5l-0.6-0.3c-0.8-0.4-1.3-0.7-1.3-1.3s0.5-1,1.5-1c0.5,0,1.3,0.1,1.9,0.3
	c0.09999-0.3,0.2-0.7,0.3-1.2c-0.7-0.2-1.4-0.3-2.2-0.3c-1.9,0-2.9,0.9-2.9,2.2s0.8,1.9,1.9,2.4l0.6,0.2c1.1,0.5,1.6,0.8,1.6,1.5
	s-0.6,1.1-1.7,1.1c-0.7,0-1.5-0.2-2.2-0.5c-0.1,0.4-0.2,0.7-0.2,1.2C53.11666,13.48333,53.91666,13.68333,54.91666,13.68333
	 M62.11666,7.18333c-2.2,0-3.3,1.2-3.3,3.3c0,2,1,3.1,2.6,3.1c0.8,0,1.3-0.3,1.7-0.9l0.1,0.7h1.2v-5.8
	C63.61666,7.28333,62.91666,7.18333,62.11666,7.18333 M61.71666,12.58333c-1.2,0-1.6-0.9-1.6-2.1c0-1.3,0.6-2.2,2-2.2
	c0.4,0,0.7,0,0.9,0.1v3.7C62.71666,12.38333,62.21666,12.58333,61.71666,12.58333 M68.11667,7.18333c-0.6,0-1.5,0.1-2.4,0.3v5.9h1.3
	v-5c0.4-0.1,0.7-0.1,1-0.1c1.3,0,1.6,0.4,1.6,1.4v3.7h1.3v-4C71.01667,8.08333,70.31667,7.18333,68.11667,7.18333
	 M73.61667,11.38333v-2.9h1.9c0.1-0.3,0.1-0.7,0.1-1.1h-2v-2.2c-0.4,0-0.9,0.1-1.3,0.2v6.2c0,1.4,0.8,2,2.1,2c0.4,0,0.7,0,1.1-0.2
	c0.1-0.3,0.1-0.7,0.2-1.1c-0.3,0.1-0.6,0.2-1,0.2C73.91667,12.48333,73.61667,12.18333,73.61667,11.38333 M79.31667,7.18333
	c-2.2,0-3.3,1.2-3.3,3.3c0,2,1,3.1,2.6,3.1c0.8,0,1.3-0.3,1.7-0.9l0.1,0.7h1.2v-5.8
	C80.91667,7.28333,80.21667,7.18333,79.31667,7.18333 M79.01667,12.58333c-1.2,0-1.6-0.9-1.6-2.1c0-1.3,0.6-2.2,2-2.2
	c0.4,0,0.7,0,0.9,0.1v3.7C79.91667,12.38333,79.51667,12.58333,79.01667,12.58333 M85.31667,7.18333c-0.6,0-1.5,0.1-2.4,0.3v5.9h1.3
	v-5c0.4-0.1,0.7-0.1,1-0.1c1.3,0,1.6,0.4,1.6,1.4v3.7h1.3v-4C88.21667,8.08333,87.51667,7.18333,85.31667,7.18333 M93.51667,5.38333
	v2c-0.3-0.1-0.6-0.1-1-0.1c-2.2,0-3.3,1.2-3.3,3.3c0,2,1,3.1,2.6,3.1c0.9,0,1.4-0.3,1.7-0.9l0.1,0.8h1.2v-8.4
	C94.41667,5.18333,93.91667,5.18333,93.51667,5.38333 M92.21667,12.58333c-1.2,0-1.6-0.9-1.6-2.1c0-1.3,0.6-2.2,1.9-2.2
	c0.3,0,0.7,0,1,0.1v3.6C93.21667,12.38333,92.71667,12.58333,92.21667,12.58333 M101.41667,9.88333c0-1.5-0.8-2.7-2.7-2.7
	c-2.1,0-2.9,1.4-2.9,3.2c0,2,1.1,3.2,3.2,3.2c0.7,0,1.3-0.1,1.9-0.4c0.1-0.4,0.2-0.8,0.2-1.2c-0.7,0.3-1.4,0.4-2.1,0.4
	c-1.2,0-1.8-0.5-1.9-1.6h4.2C101.41667,10.58333,101.41667,10.28333,101.41667,9.88333 M98.71667,8.28333c0.9,0,1.4,0.6,1.4,1.6
	h-2.9C97.31667,8.88333,97.81667,8.28333,98.71667,8.28333 M104.81667,7.18333c-0.7,0-1.7,0.1-2.2,0.3v5.9h1.3v-5
	c0.3,0,0.6-0.1,1-0.1s0.7,0,1,0c0.1-0.2,0.1-0.7,0.1-1.1C105.61667,7.18333,105.21667,7.18333,104.81667,7.18333 M23.51667,8.98333
	v3.3c-0.4,0.1-0.7,0.1-1.1,0.1c-1.8,0-2.9-1-2.9-3.2c0-1.9,1.1-3,3-3c0.8,0,1.5,0.1,2.1,0.3c0.1-0.4,0.2-0.8,0.2-1.2
	c-0.6-0.2-1.4-0.3-2.3-0.3c-2.8,0-4.4,1.5-4.4,4.3c0,2.5,1.5,4.3,4.2,4.3c0.9,0,1.8-0.2,2.5-0.4v-4.2H23.51667z M28.51667,7.18333
	c-0.7,0-1.7,0.1-2.2,0.3v5.9h1.3v-5c0.3,0,0.6-0.1,1-0.1s0.7,0,1,0c0.1-0.2,0.1-0.7,0.1-1.1
	C29.41667,7.18333,28.91667,7.18333,28.51667,7.18333 M34.41666,7.38333v4.7c-0.4,0.3-0.8,0.5-1.3,0.5c-1,0-1.3-0.4-1.3-1.5v-3.7
	h-1.3v4c0,1.5,0.8,2.3,2.2,2.3c0.8,0,1.4-0.4,1.8-0.9l0.1,0.8h1.2v-6.2H34.41666z M39.41666,7.18333c-0.8,0-1.7,0.1-2.3,0.3v8.2h1.3
	v-2.3c0.3,0.1,0.6,0.1,1,0.1c2.1,0,3.2-1.2,3.2-3.3C42.71666,8.38333,41.71666,7.18333,39.41666,7.18333 M39.41666,12.48333
	c-0.3,0-0.6,0-1-0.1v-4c0.3,0,0.6-0.1,0.9-0.1c1.5,0,2,0.8,2,2.1C41.41666,11.78333,40.71666,12.48333,39.41666,12.48333
	 M46.51667,13.58333c1.9,0,3.1-1.2,3.1-3.3c0-1.8-1-3.1-3-3.1c-1.9,0-3.1,1.2-3.1,3.3
	C43.41666,12.28333,44.51667,13.58333,46.51667,13.58333 M46.51667,12.48333c-1.1,0-1.8-0.7-1.8-2.1c0-1.3,0.6-2.1,1.8-2.1
	c1.1,0,1.7,0.7,1.7,2.1C48.31667,11.68333,47.71666,12.48333,46.51667,12.48333"/>
</svg>
