<?xml version="1.0" encoding="UTF-8"?>
<svg width="300" height="300" version="1.1" viewBox="0 0 79.375 79.375" xmlns="http://www.w3.org/2000/svg">
 <g transform="translate(25.4942 -110.859)">
  <g transform="matrix(.990763 0 0 -.990763 -69.4197 851.617)">
   <path d="m44.335 667.549h80.115v80.115h-80.115z" fill="#dd1e25"/>
   <path d="m113.38 698.373c0 3.219-1.328 5.093-3.783 5.093-2.456 0-3.783-1.874-3.783-5.093 0-3.238 1.309-5.093 3.783-5.093 2.473 0 3.783 1.855 3.783 5.093m2.983 0c0-3.965-2.819-6.748-6.766-6.748-3.929 0-6.766 2.783-6.766 6.748 0 3.947 2.855 6.748 6.766 6.748 3.928 0 6.766-2.801 6.766-6.748m-20.445-.5819c0-.3631.055-.6001.2-.8911h2.165v-3.219c-.709-.292-1.419-.419-2.146-.419-2.62 0-3.984 1.873-3.984 5.111s1.364 5.111 3.838 5.111c1.655 0 2.619-.819 3.183-2.237l.2-.509h1.31v3.255c-1.637.782-3.11 1.128-4.82 1.128-4.002 0-6.693-2.674-6.693-6.766 0-4.111 2.619-6.73 6.693-6.73 1.618 0 3.292.455 5.092 1.346v5.675h-4.838c-.145-.291-.2-.51-.2-.8549m-11.059 3.31c0 1.328-.819 2.0369-2.456 2.0369h-2.146v-4.092h2.146c1.619 0 2.456.746 2.456 2.0551m-14.242-3.7101-1.783 4.82-1.782-4.82zm17.77-3.965c.11-.1999.164-.4369.164-.746 0-.309-.054-.546-.164-.746-.4-.054-.909-.09-1.418-.09-1.764 0-2.619.727-2.82 2.419l-.072.636c-.218 1.837-.819 2.546-2.819 2.546h-1.001v-3.874h1.728v-1.5819h-11.441v1.5819h1.492l-.837 2.274h-4.729l-.837-2.274h1.528v-1.5819h-4.82v1.5819h1.273l4.456 11.15h2.419l4.548-11.15h2.51v9.567h-1.546v1.583h7.312c2.601 0 4.292-1.2919 4.292-3.365 0-2.055-1.691-3.147-3.328-3.22v-.054c1.655-.127 2.328-1.055 2.492-2.492l.072-.673c.109-1.055.328-1.528 1.164-1.528.146 0 .273.019.382.037m-27.72 9.712c1.218 0 1.637-.527 2.037-2.055l.127-.491h1.31v4.129h-10.967v-1.583h1.546v-9.567h-1.546v-1.5819h6.074v1.5819h-1.819v3.711h3.747c.146.309.2.545.2.909 0 .346-.054.564-.2.873h-3.747v4.074zm55.26 11.697c0 2.001-1.219 3.383-3.511 3.91l-2.31.528c-1.346.309-1.909.837-1.909 1.727 0 1.074.855 1.747 2.528 1.747s2.655-.601 3.037-2.019l.164-.618h1.309v3.146c-1.473.7461-3.037 1.127-4.62 1.127-3.11 0-5.11-1.491-5.11-3.891 0-1.856 1.163-3.22 3.401-3.711l2.31-.509c1.473-.328 2.019-.91 2.019-1.874 0-1.182-.892-1.837-2.674-1.837-2.019 0-3.056.801-3.51 2.328l-.237.783h-1.309v-3.566c1.655-.818 3.237-1.1819 5.365-1.1819 3.056 0 5.057 1.5279 5.057 3.9109m-11.642.8h-1.309l-.146-.637c-.364-1.618-.873-2.127-2.073-2.127h-2.528v9.5661h1.728v1.5829h-5.985v-1.5829h1.547v-9.5661h-1.547v-1.583h10.313zm-11.459 0h-1.31l-.145-.637c-.364-1.618-.873-2.127-2.073-2.127h-2.529v9.5661h1.728v1.5829h-5.984v-1.5829h1.546v-9.5661h-1.546v-1.583h10.313zm-37.015-4.347-3.202 11.1491h-1.455v1.5829h5.93v-1.5829h-1.71l2.128-7.6751 2.546 9.258h2.62l2.6-9.276 2.092 7.6931h-1.782v1.5829h15.425v-4.129h-1.31l-.127.491c-.401 1.528-.819 2.0551-2.037 2.0551h-3.019v-3.8371h3.656c.145-.309.199-.528.199-.873 0-.364-.054-.5999-.199-.91h-3.656v-3.946h3.146c1.182 0 1.71.509 2.074 2.127l.145.637h1.31v-4.347h-10.931v1.583h1.546v9.5661h-2.512l-3.183-11.1491h-2.528l-2.583 9.239-2.655-9.239z" fill="#fefefe"/>
  </g>
 </g>
</svg>
