<svg xmlns="http://www.w3.org/2000/svg" viewBox="-1 -1 127 12" fill="none" stroke="currentColor" stroke-width="1" stroke-linecap="square" stroke-linejoin="miter"><line x1="5" y1="7" x2="1" y2="7"/><line x1="1" y1="7" x2="0" y2="6"/><line x1="0" y1="6" x2="0" y2="2"/><line x1="0" y1="2" x2="1" y2="1"/><line x1="1" y1="1" x2="4" y2="1"/><line x1="4" y1="1" x2="5" y2="2"/><line x1="5" y1="2" x2="5" y2="5"/><line x1="5" y1="5" x2="2" y2="5"/><line x1="2" y1="5" x2="2" y2="3"/><line x1="2" y1="3" x2="3" y2="3"/><line x1="3" y1="3" x2="3" y2="5"/><line x1="9" y1="1" x2="9" y2="5"/><rect x="9" y="7" width="1" height="1" stroke="none" fill="currentColor"/><line x1="14" y1="8" x2="15" y2="7"/><line x1="15" y1="7" x2="15" y2="6"/><line x1="15" y1="6" x2="16" y2="5"/><line x1="16" y1="5" x2="16" y2="4"/><line x1="16" y1="4" x2="17" y2="3"/><line x1="17" y1="3" x2="17" y2="2"/><line x1="17" y1="2" x2="18" y2="1"/><line x1="18" y1="1" x2="18" y2="0"/><line x1="21" y1="5" x2="22" y2="4"/><line x1="22" y1="4" x2="23" y2="4"/><line x1="23" y1="4" x2="24" y2="5"/><line x1="24" y1="5" x2="25" y2="5"/><line x1="25" y1="5" x2="26" y2="4"/><line x1="29" y1="7" x2="29" y2="2"/><line x1="31" y1="7" x2="31" y2="2"/><line x1="28" y1="3" x2="32" y2="3"/><line x1="28" y1="6" x2="32" y2="6"/><line x1="37" y1="1" x2="37" y2="5"/><rect x="37" y="7" width="1" height="1" stroke="none" fill="currentColor"/><line x1="42" y1="5" x2="43" y2="4"/><line x1="43" y1="4" x2="44" y2="4"/><line x1="44" y1="4" x2="45" y2="5"/><line x1="45" y1="5" x2="46" y2="5"/><line x1="46" y1="5" x2="47" y2="4"/><line x1="51" y1="7" x2="51" y2="3"/><line x1="51" y1="3" x2="50" y2="3"/><rect x="51" y="1" width="1" height="1" stroke="none" fill="currentColor"/><line x1="58" y1="7" x2="57" y2="8"/><line x1="72" y1="7" x2="71" y2="8"/><line x1="80" y1="7" x2="78" y2="7"/><line x1="78" y1="7" x2="77" y2="6"/><line x1="77" y1="6" x2="77" y2="4"/><line x1="77" y1="4" x2="78" y2="3"/><line x1="78" y1="3" x2="80" y2="3"/><line x1="80" y1="3" x2="81" y2="4"/><line x1="81" y1="4" x2="81" y2="6"/><line x1="81" y1="6" x2="80" y2="7"/><line x1="77" y1="4" x2="81" y2="6"/><line x1="84" y1="4" x2="88" y2="4"/><line x1="91" y1="4" x2="95" y2="4"/><line x1="93" y1="2" x2="93" y2="6"/><line x1="98" y1="8" x2="103" y2="8"/><line x1="105" y1="5" x2="106" y2="4"/><line x1="106" y1="4" x2="107" y2="4"/><line x1="107" y1="4" x2="108" y2="5"/><line x1="108" y1="5" x2="109" y2="5"/><line x1="109" y1="5" x2="110" y2="4"/><line x1="114" y1="1" x2="114" y2="5"/><rect x="114" y="7" width="1" height="1" stroke="none" fill="currentColor"/><line x1="119" y1="7" x2="119" y2="3"/><line x1="119" y1="4" x2="120" y2="4"/><line x1="120" y1="4" x2="121" y2="3"/><line x1="121" y1="3" x2="122" y2="3"/><line x1="122" y1="3" x2="123" y2="4"/></svg>