<svg xmlns="http://www.w3.org/2000/svg" viewBox="-1 -1 155 12" fill="none" stroke="currentColor" stroke-width="1" stroke-linecap="square" stroke-linejoin="miter"><line x1="0" y1="4" x2="4" y2="4"/><line x1="2" y1="2" x2="2" y2="6"/><line x1="12" y1="7" x2="8" y2="7"/><line x1="8" y1="7" x2="7" y2="6"/><line x1="7" y1="6" x2="7" y2="2"/><line x1="7" y1="2" x2="8" y2="1"/><line x1="8" y1="1" x2="11" y2="1"/><line x1="11" y1="1" x2="12" y2="2"/><line x1="12" y1="2" x2="12" y2="5"/><line x1="12" y1="5" x2="9" y2="5"/><line x1="9" y1="5" x2="9" y2="3"/><line x1="9" y1="3" x2="10" y2="3"/><line x1="10" y1="3" x2="10" y2="5"/><line x1="16" y1="7" x2="16" y2="3"/><line x1="16" y1="3" x2="15" y2="3"/><rect x="16" y="1" width="1" height="1" stroke="none" fill="currentColor"/><line x1="21" y1="7" x2="21" y2="3"/><line x1="21" y1="3" x2="24" y2="3"/><line x1="24" y1="3" x2="25" y2="4"/><line x1="25" y1="4" x2="25" y2="7"/><line x1="28" y1="5" x2="29" y2="4"/><line x1="29" y1="4" x2="30" y2="4"/><line x1="30" y1="4" x2="31" y2="5"/><line x1="31" y1="5" x2="32" y2="5"/><line x1="32" y1="5" x2="33" y2="4"/><line x1="37" y1="7" x2="37" y2="3"/><line x1="37" y1="3" x2="36" y2="3"/><rect x="37" y="1" width="1" height="1" stroke="none" fill="currentColor"/><line x1="42" y1="7" x2="42" y2="3"/><line x1="42" y1="3" x2="45" y2="3"/><line x1="45" y1="3" x2="46" y2="4"/><line x1="46" y1="4" x2="46" y2="7"/><line x1="49" y1="2" x2="50" y2="3"/><line x1="50" y1="3" x2="51" y2="3"/><line x1="51" y1="3" x2="52" y2="4"/><line x1="52" y1="4" x2="53" y2="4"/><line x1="49" y1="6" x2="50" y2="5"/><line x1="50" y1="5" x2="51" y2="5"/><line x1="51" y1="5" x2="52" y2="4"/><line x1="64" y1="7" x2="64" y2="1"/><line x1="64" y1="1" x2="65" y2="0"/><line x1="65" y1="0" x2="67" y2="0"/><line x1="63" y1="3" x2="66" y2="3"/><line x1="70" y1="7" x2="70" y2="3"/><line x1="70" y1="4" x2="71" y2="4"/><line x1="71" y1="4" x2="72" y2="3"/><line x1="72" y1="3" x2="73" y2="3"/><line x1="73" y1="3" x2="74" y2="4"/><line x1="79" y1="1" x2="79" y2="5"/><rect x="79" y="7" width="1" height="1" stroke="none" fill="currentColor"/><line x1="86" y1="1" x2="86" y2="5"/><rect x="86" y="7" width="1" height="1" stroke="none" fill="currentColor"/><line x1="92" y1="7" x2="92" y2="2"/><line x1="94" y1="7" x2="94" y2="2"/><line x1="91" y1="3" x2="95" y2="3"/><line x1="91" y1="6" x2="95" y2="6"/><line x1="103" y1="7" x2="99" y2="7"/><line x1="99" y1="7" x2="98" y2="6"/><line x1="98" y1="6" x2="98" y2="2"/><line x1="98" y1="2" x2="99" y2="1"/><line x1="99" y1="1" x2="102" y2="1"/><line x1="102" y1="1" x2="103" y2="2"/><line x1="103" y1="2" x2="103" y2="5"/><line x1="103" y1="5" x2="100" y2="5"/><line x1="100" y1="5" x2="100" y2="3"/><line x1="100" y1="3" x2="101" y2="3"/><line x1="101" y1="3" x2="101" y2="5"/><line x1="105" y1="7" x2="105" y2="3"/><line x1="105" y1="3" x2="108" y2="3"/><line x1="108" y1="3" x2="109" y2="4"/><line x1="109" y1="4" x2="109" y2="7"/><line x1="112" y1="6" x2="115" y2="6"/><line x1="115" y1="6" x2="116" y2="5"/><line x1="116" y1="5" x2="115" y2="4"/><line x1="115" y1="4" x2="113" y2="4"/><line x1="113" y1="4" x2="112" y2="3"/><line x1="112" y1="3" x2="113" y2="2"/><line x1="113" y1="2" x2="116" y2="2"/><line x1="114" y1="1" x2="114" y2="7"/><line x1="126" y1="3" x2="126" y2="5"/><line x1="126" y1="5" x2="127" y2="6"/><line x1="127" y1="6" x2="127" y2="7"/><line x1="130" y1="3" x2="130" y2="5"/><line x1="130" y1="5" x2="129" y2="6"/><line x1="129" y1="6" x2="129" y2="7"/><line x1="128" y1="4" x2="128" y2="5"/><line x1="128" y1="5" x2="127" y2="6"/><line x1="128" y1="5" x2="129" y2="6"/><line x1="138" y1="7" x2="134" y2="7"/><line x1="134" y1="7" x2="133" y2="6"/><line x1="133" y1="6" x2="133" y2="2"/><line x1="133" y1="2" x2="134" y2="1"/><line x1="134" y1="1" x2="137" y2="1"/><line x1="137" y1="1" x2="138" y2="2"/><line x1="138" y1="2" x2="138" y2="5"/><line x1="138" y1="5" x2="135" y2="5"/><line x1="135" y1="5" x2="135" y2="3"/><line x1="135" y1="3" x2="136" y2="3"/><line x1="136" y1="3" x2="136" y2="5"/><line x1="140" y1="7" x2="140" y2="3"/><line x1="140" y1="3" x2="143" y2="3"/><line x1="143" y1="3" x2="144" y2="4"/><line x1="144" y1="4" x2="144" y2="7"/><line x1="147" y1="6" x2="150" y2="6"/><line x1="150" y1="6" x2="151" y2="5"/><line x1="151" y1="5" x2="150" y2="4"/><line x1="150" y1="4" x2="148" y2="4"/><line x1="148" y1="4" x2="147" y2="3"/><line x1="147" y1="3" x2="148" y2="2"/><line x1="148" y1="2" x2="151" y2="2"/><line x1="149" y1="1" x2="149" y2="7"/></svg>