<svg xmlns="http://www.w3.org/2000/svg" viewBox="-1 -1 148 12" fill="none" stroke="currentColor" stroke-width="1" stroke-linecap="square" stroke-linejoin="miter"><line x1="0" y1="4" x2="4" y2="4"/><line x1="2" y1="2" x2="2" y2="6"/><line x1="7" y1="7" x2="7" y2="3"/><line x1="7" y1="4" x2="8" y2="4"/><line x1="8" y1="4" x2="9" y2="3"/><line x1="9" y1="3" x2="10" y2="3"/><line x1="10" y1="3" x2="11" y2="4"/><line x1="17" y1="7" x2="15" y2="7"/><line x1="15" y1="7" x2="14" y2="6"/><line x1="14" y1="6" x2="14" y2="4"/><line x1="14" y1="4" x2="15" y2="3"/><line x1="15" y1="3" x2="17" y2="3"/><line x1="17" y1="3" x2="18" y2="4"/><line x1="18" y1="4" x2="18" y2="6"/><line x1="18" y1="6" x2="17" y2="7"/><line x1="14" y1="4" x2="18" y2="6"/><line x1="21" y1="4" x2="25" y2="4"/><line x1="28" y1="4" x2="32" y2="4"/><line x1="30" y1="2" x2="30" y2="6"/><line x1="35" y1="5" x2="36" y2="4"/><line x1="36" y1="4" x2="37" y2="4"/><line x1="37" y1="4" x2="38" y2="5"/><line x1="38" y1="5" x2="39" y2="5"/><line x1="39" y1="5" x2="40" y2="4"/><line x1="49" y1="7" x2="49" y2="3"/><line x1="49" y1="3" x2="52" y2="3"/><line x1="52" y1="3" x2="53" y2="4"/><line x1="53" y1="4" x2="53" y2="7"/><line x1="59" y1="7" x2="57" y2="7"/><line x1="57" y1="7" x2="56" y2="6"/><line x1="56" y1="6" x2="56" y2="4"/><line x1="56" y1="4" x2="57" y2="3"/><line x1="57" y1="3" x2="59" y2="3"/><line x1="59" y1="3" x2="60" y2="4"/><line x1="60" y1="4" x2="60" y2="6"/><line x1="60" y1="6" x2="59" y2="7"/><line x1="56" y1="4" x2="60" y2="6"/><line x1="63" y1="5" x2="64" y2="4"/><line x1="64" y1="4" x2="65" y2="4"/><line x1="65" y1="4" x2="66" y2="5"/><line x1="66" y1="5" x2="67" y2="5"/><line x1="67" y1="5" x2="68" y2="4"/><line x1="72" y1="1" x2="72" y2="5"/><rect x="72" y="7" width="1" height="1" stroke="none" fill="currentColor"/><line x1="77" y1="4" x2="81" y2="4"/><line x1="79" y1="2" x2="79" y2="6"/><line x1="89" y1="7" x2="85" y2="7"/><line x1="85" y1="7" x2="84" y2="6"/><line x1="84" y1="6" x2="84" y2="2"/><line x1="84" y1="2" x2="85" y2="1"/><line x1="85" y1="1" x2="88" y2="1"/><line x1="88" y1="1" x2="89" y2="2"/><line x1="89" y1="2" x2="89" y2="5"/><line x1="89" y1="5" x2="86" y2="5"/><line x1="86" y1="5" x2="86" y2="3"/><line x1="86" y1="3" x2="87" y2="3"/><line x1="87" y1="3" x2="87" y2="5"/><line x1="91" y1="5" x2="92" y2="4"/><line x1="92" y1="4" x2="93" y2="4"/><line x1="93" y1="4" x2="94" y2="5"/><line x1="94" y1="5" x2="95" y2="5"/><line x1="95" y1="5" x2="96" y2="4"/><line x1="105" y1="4" x2="109" y2="4"/><line x1="114" y1="1" x2="114" y2="5"/><rect x="114" y="7" width="1" height="1" stroke="none" fill="currentColor"/><line x1="123" y1="6" x2="122" y2="5"/><line x1="122" y1="5" x2="121" y2="5"/><line x1="121" y1="5" x2="120" y2="4"/><line x1="120" y1="4" x2="119" y2="4"/><line x1="123" y1="2" x2="122" y2="3"/><line x1="122" y1="3" x2="121" y2="3"/><line x1="121" y1="3" x2="120" y2="4"/><line x1="129" y1="7" x2="127" y2="7"/><line x1="127" y1="7" x2="126" y2="6"/><line x1="126" y1="6" x2="126" y2="4"/><line x1="126" y1="4" x2="127" y2="3"/><line x1="127" y1="3" x2="129" y2="3"/><line x1="129" y1="3" x2="130" y2="4"/><line x1="130" y1="4" x2="130" y2="6"/><line x1="130" y1="6" x2="129" y2="7"/><line x1="126" y1="4" x2="130" y2="6"/><line x1="133" y1="6" x2="136" y2="6"/><line x1="136" y1="6" x2="137" y2="5"/><line x1="137" y1="5" x2="136" y2="4"/><line x1="136" y1="4" x2="134" y2="4"/><line x1="134" y1="4" x2="133" y2="3"/><line x1="133" y1="3" x2="134" y2="2"/><line x1="134" y1="2" x2="137" y2="2"/><line x1="135" y1="1" x2="135" y2="7"/><line x1="140" y1="3" x2="140" y2="6"/><line x1="140" y1="6" x2="141" y2="7"/><line x1="141" y1="7" x2="144" y2="7"/><line x1="144" y1="3" x2="144" y2="8"/><line x1="144" y1="8" x2="143" y2="9"/><line x1="143" y1="9" x2="141" y2="9"/></svg>