<svg xmlns="http://www.w3.org/2000/svg" viewBox="0 0 64 8" fill="currentColor" shape-rendering="crispEdges"><rect x="0" y="2" width="1" height="1"/><rect x="1" y="2" width="1" height="1"/><rect x="2" y="2" width="1" height="1"/><rect x="0" y="3" width="1" height="1"/><rect x="0" y="4" width="1" height="1"/><rect x="0" y="5" width="1" height="1"/><rect x="0" y="6" width="1" height="1"/><rect x="1" y="6" width="1" height="1"/><rect x="2" y="6" width="1" height="1"/><rect x="4" y="0" width="1" height="1"/><rect x="4" y="1" width="1" height="1"/><rect x="4" y="2" width="1" height="1"/><rect x="5" y="2" width="1" height="1"/><rect x="6" y="2" width="1" height="1"/><rect x="4" y="3" width="1" height="1"/><rect x="6" y="3" width="1" height="1"/><rect x="4" y="4" width="1" height="1"/><rect x="6" y="4" width="1" height="1"/><rect x="4" y="5" width="1" height="1"/><rect x="6" y="5" width="1" height="1"/><rect x="4" y="6" width="1" height="1"/><rect x="6" y="6" width="1" height="1"/><rect x="8" y="2" width="1" height="1"/><rect x="9" y="2" width="1" height="1"/><rect x="10" y="2" width="1" height="1"/><rect x="10" y="3" width="1" height="1"/><rect x="8" y="4" width="1" height="1"/><rect x="9" y="4" width="1" height="1"/><rect x="10" y="4" width="1" height="1"/><rect x="8" y="5" width="1" height="1"/><rect x="10" y="5" width="1" height="1"/><rect x="8" y="6" width="1" height="1"/><rect x="9" y="6" width="1" height="1"/><rect x="10" y="6" width="1" height="1"/><rect x="13" y="0" width="1" height="1"/><rect x="13" y="1" width="1" height="1"/><rect x="12" y="2" width="1" height="1"/><rect x="13" y="2" width="1" height="1"/><rect x="14" y="2" width="1" height="1"/><rect x="13" y="3" width="1" height="1"/><rect x="13" y="4" width="1" height="1"/><rect x="13" y="5" width="1" height="1"/><rect x="13" y="6" width="1" height="1"/><rect x="14" y="6" width="1" height="1"/><rect x="18" y="0" width="1" height="1"/><rect x="18" y="1" width="1" height="1"/><rect x="18" y="2" width="1" height="1"/><rect x="20" y="2" width="1" height="1"/><rect x="18" y="3" width="1" height="1"/><rect x="20" y="3" width="1" height="1"/><rect x="18" y="4" width="1" height="1"/><rect x="19" y="4" width="1" height="1"/><rect x="18" y="5" width="1" height="1"/><rect x="20" y="5" width="1" height="1"/><rect x="18" y="6" width="1" height="1"/><rect x="20" y="6" width="1" height="1"/><rect x="23" y="1" width="1" height="1"/><rect x="22" y="3" width="1" height="1"/><rect x="23" y="3" width="1" height="1"/><rect x="23" y="4" width="1" height="1"/><rect x="23" y="5" width="1" height="1"/><rect x="22" y="6" width="1" height="1"/><rect x="23" y="6" width="1" height="1"/><rect x="24" y="6" width="1" height="1"/><rect x="28" y="0" width="1" height="1"/><rect x="28" y="1" width="1" height="1"/><rect x="26" y="2" width="1" height="1"/><rect x="27" y="2" width="1" height="1"/><rect x="28" y="2" width="1" height="1"/><rect x="26" y="3" width="1" height="1"/><rect x="28" y="3" width="1" height="1"/><rect x="26" y="4" width="1" height="1"/><rect x="28" y="4" width="1" height="1"/><rect x="26" y="5" width="1" height="1"/><rect x="28" y="5" width="1" height="1"/><rect x="26" y="6" width="1" height="1"/><rect x="27" y="6" width="1" height="1"/><rect x="28" y="6" width="1" height="1"/><rect x="30" y="0" width="1" height="1"/><rect x="31" y="0" width="1" height="1"/><rect x="31" y="1" width="1" height="1"/><rect x="31" y="2" width="1" height="1"/><rect x="31" y="3" width="1" height="1"/><rect x="31" y="4" width="1" height="1"/><rect x="31" y="5" width="1" height="1"/><rect x="30" y="6" width="1" height="1"/><rect x="31" y="6" width="1" height="1"/><rect x="32" y="6" width="1" height="1"/><rect x="35" y="1" width="1" height="1"/><rect x="34" y="3" width="1" height="1"/><rect x="35" y="3" width="1" height="1"/><rect x="35" y="4" width="1" height="1"/><rect x="35" y="5" width="1" height="1"/><rect x="34" y="6" width="1" height="1"/><rect x="35" y="6" width="1" height="1"/><rect x="36" y="6" width="1" height="1"/><rect x="38" y="2" width="1" height="1"/><rect x="39" y="2" width="1" height="1"/><rect x="40" y="2" width="1" height="1"/><rect x="38" y="3" width="1" height="1"/><rect x="38" y="4" width="1" height="1"/><rect x="39" y="4" width="1" height="1"/><rect x="40" y="4" width="1" height="1"/><rect x="40" y="5" width="1" height="1"/><rect x="38" y="6" width="1" height="1"/><rect x="39" y="6" width="1" height="1"/><rect x="40" y="6" width="1" height="1"/><rect x="42" y="2" width="1" height="1"/><rect x="43" y="2" width="1" height="1"/><rect x="44" y="2" width="1" height="1"/><rect x="42" y="3" width="1" height="1"/><rect x="44" y="3" width="1" height="1"/><rect x="42" y="4" width="1" height="1"/><rect x="44" y="4" width="1" height="1"/><rect x="42" y="5" width="1" height="1"/><rect x="43" y="5" width="1" height="1"/><rect x="44" y="5" width="1" height="1"/><rect x="42" y="6" width="1" height="1"/><rect x="42" y="7" width="1" height="1"/><rect x="49" y="0" width="1" height="1"/><rect x="49" y="1" width="1" height="1"/><rect x="48" y="2" width="1" height="1"/><rect x="49" y="2" width="1" height="1"/><rect x="50" y="2" width="1" height="1"/><rect x="49" y="3" width="1" height="1"/><rect x="49" y="4" width="1" height="1"/><rect x="49" y="5" width="1" height="1"/><rect x="49" y="6" width="1" height="1"/><rect x="50" y="6" width="1" height="1"/><rect x="52" y="2" width="1" height="1"/><rect x="53" y="2" width="1" height="1"/><rect x="54" y="2" width="1" height="1"/><rect x="54" y="3" width="1" height="1"/><rect x="52" y="4" width="1" height="1"/><rect x="53" y="4" width="1" height="1"/><rect x="54" y="4" width="1" height="1"/><rect x="52" y="5" width="1" height="1"/><rect x="54" y="5" width="1" height="1"/><rect x="52" y="6" width="1" height="1"/><rect x="53" y="6" width="1" height="1"/><rect x="54" y="6" width="1" height="1"/><rect x="56" y="2" width="1" height="1"/><rect x="57" y="2" width="1" height="1"/><rect x="58" y="2" width="1" height="1"/><rect x="56" y="3" width="1" height="1"/><rect x="58" y="3" width="1" height="1"/><rect x="56" y="4" width="1" height="1"/><rect x="58" y="4" width="1" height="1"/><rect x="56" y="5" width="1" height="1"/><rect x="57" y="5" width="1" height="1"/><rect x="58" y="5" width="1" height="1"/><rect x="56" y="6" width="1" height="1"/><rect x="56" y="7" width="1" height="1"/><rect x="60" y="2" width="1" height="1"/><rect x="61" y="2" width="1" height="1"/><rect x="62" y="2" width="1" height="1"/><rect x="60" y="3" width="1" height="1"/><rect x="62" y="3" width="1" height="1"/><rect x="60" y="4" width="1" height="1"/><rect x="61" y="4" width="1" height="1"/><rect x="62" y="4" width="1" height="1"/><rect x="60" y="5" width="1" height="1"/><rect x="60" y="6" width="1" height="1"/><rect x="61" y="6" width="1" height="1"/><rect x="62" y="6" width="1" height="1"/></svg>