<svg xmlns="http://www.w3.org/2000/svg" viewBox="0 0 78 8" fill="currentColor" shape-rendering="crispEdges"><rect x="0" y="0" width="1" height="1"/><rect x="1" y="0" width="1" height="1"/><rect x="1" y="1" width="1" height="1"/><rect x="1" y="2" width="1" height="1"/><rect x="1" y="3" width="1" height="1"/><rect x="1" y="4" width="1" height="1"/><rect x="1" y="5" width="1" height="1"/><rect x="0" y="6" width="1" height="1"/><rect x="1" y="6" width="1" height="1"/><rect x="2" y="6" width="1" height="1"/><rect x="5" y="1" width="1" height="1"/><rect x="4" y="3" width="1" height="1"/><rect x="5" y="3" width="1" height="1"/><rect x="5" y="4" width="1" height="1"/><rect x="5" y="5" width="1" height="1"/><rect x="4" y="6" width="1" height="1"/><rect x="5" y="6" width="1" height="1"/><rect x="6" y="6" width="1" height="1"/><rect x="8" y="2" width="1" height="1"/><rect x="9" y="2" width="1" height="1"/><rect x="10" y="2" width="1" height="1"/><rect x="8" y="3" width="1" height="1"/><rect x="10" y="3" width="1" height="1"/><rect x="8" y="4" width="1" height="1"/><rect x="10" y="4" width="1" height="1"/><rect x="8" y="5" width="1" height="1"/><rect x="10" y="5" width="1" height="1"/><rect x="8" y="6" width="1" height="1"/><rect x="10" y="6" width="1" height="1"/><rect x="12" y="2" width="1" height="1"/><rect x="13" y="2" width="1" height="1"/><rect x="14" y="2" width="1" height="1"/><rect x="12" y="3" width="1" height="1"/><rect x="14" y="3" width="1" height="1"/><rect x="12" y="4" width="1" height="1"/><rect x="13" y="4" width="1" height="1"/><rect x="14" y="4" width="1" height="1"/><rect x="12" y="5" width="1" height="1"/><rect x="12" y="6" width="1" height="1"/><rect x="13" y="6" width="1" height="1"/><rect x="14" y="6" width="1" height="1"/><rect x="18" y="0" width="1" height="1"/><rect x="18" y="1" width="1" height="1"/><rect x="18" y="2" width="1" height="1"/><rect x="19" y="2" width="1" height="1"/><rect x="20" y="2" width="1" height="1"/><rect x="18" y="3" width="1" height="1"/><rect x="20" y="3" width="1" height="1"/><rect x="18" y="4" width="1" height="1"/><rect x="20" y="4" width="1" height="1"/><rect x="18" y="5" width="1" height="1"/><rect x="20" y="5" width="1" height="1"/><rect x="18" y="6" width="1" height="1"/><rect x="19" y="6" width="1" height="1"/><rect x="20" y="6" width="1" height="1"/><rect x="22" y="2" width="1" height="1"/><rect x="23" y="2" width="1" height="1"/><rect x="24" y="2" width="1" height="1"/><rect x="22" y="3" width="1" height="1"/><rect x="24" y="3" width="1" height="1"/><rect x="22" y="4" width="1" height="1"/><rect x="24" y="4" width="1" height="1"/><rect x="22" y="5" width="1" height="1"/><rect x="24" y="5" width="1" height="1"/><rect x="22" y="6" width="1" height="1"/><rect x="23" y="6" width="1" height="1"/><rect x="24" y="6" width="1" height="1"/><rect x="26" y="2" width="1" height="1"/><rect x="28" y="2" width="1" height="1"/><rect x="26" y="3" width="1" height="1"/><rect x="28" y="3" width="1" height="1"/><rect x="27" y="4" width="1" height="1"/><rect x="26" y="5" width="1" height="1"/><rect x="28" y="5" width="1" height="1"/><rect x="26" y="6" width="1" height="1"/><rect x="28" y="6" width="1" height="1"/><rect x="32" y="2" width="1" height="1"/><rect x="33" y="2" width="1" height="1"/><rect x="34" y="2" width="1" height="1"/><rect x="32" y="3" width="1" height="1"/><rect x="32" y="4" width="1" height="1"/><rect x="32" y="5" width="1" height="1"/><rect x="32" y="6" width="1" height="1"/><rect x="33" y="6" width="1" height="1"/><rect x="34" y="6" width="1" height="1"/><rect x="37" y="1" width="1" height="1"/><rect x="36" y="3" width="1" height="1"/><rect x="37" y="3" width="1" height="1"/><rect x="37" y="4" width="1" height="1"/><rect x="37" y="5" width="1" height="1"/><rect x="36" y="6" width="1" height="1"/><rect x="37" y="6" width="1" height="1"/><rect x="38" y="6" width="1" height="1"/><rect x="40" y="2" width="1" height="1"/><rect x="41" y="2" width="1" height="1"/><rect x="42" y="2" width="1" height="1"/><rect x="40" y="3" width="1" height="1"/><rect x="40" y="4" width="1" height="1"/><rect x="40" y="5" width="1" height="1"/><rect x="40" y="6" width="1" height="1"/><rect x="44" y="2" width="1" height="1"/><rect x="45" y="2" width="1" height="1"/><rect x="46" y="2" width="1" height="1"/><rect x="44" y="3" width="1" height="1"/><rect x="44" y="4" width="1" height="1"/><rect x="44" y="5" width="1" height="1"/><rect x="44" y="6" width="1" height="1"/><rect x="45" y="6" width="1" height="1"/><rect x="46" y="6" width="1" height="1"/><rect x="48" y="0" width="1" height="1"/><rect x="49" y="0" width="1" height="1"/><rect x="49" y="1" width="1" height="1"/><rect x="49" y="2" width="1" height="1"/><rect x="49" y="3" width="1" height="1"/><rect x="49" y="4" width="1" height="1"/><rect x="49" y="5" width="1" height="1"/><rect x="48" y="6" width="1" height="1"/><rect x="49" y="6" width="1" height="1"/><rect x="50" y="6" width="1" height="1"/><rect x="52" y="2" width="1" height="1"/><rect x="53" y="2" width="1" height="1"/><rect x="54" y="2" width="1" height="1"/><rect x="52" y="3" width="1" height="1"/><rect x="54" y="3" width="1" height="1"/><rect x="52" y="4" width="1" height="1"/><rect x="53" y="4" width="1" height="1"/><rect x="54" y="4" width="1" height="1"/><rect x="52" y="5" width="1" height="1"/><rect x="52" y="6" width="1" height="1"/><rect x="53" y="6" width="1" height="1"/><rect x="54" y="6" width="1" height="1"/><rect x="58" y="0" width="1" height="1"/><rect x="58" y="1" width="1" height="1"/><rect x="58" y="2" width="1" height="1"/><rect x="59" y="2" width="1" height="1"/><rect x="60" y="2" width="1" height="1"/><rect x="58" y="3" width="1" height="1"/><rect x="60" y="3" width="1" height="1"/><rect x="58" y="4" width="1" height="1"/><rect x="60" y="4" width="1" height="1"/><rect x="58" y="5" width="1" height="1"/><rect x="60" y="5" width="1" height="1"/><rect x="58" y="6" width="1" height="1"/><rect x="59" y="6" width="1" height="1"/><rect x="60" y="6" width="1" height="1"/><rect x="62" y="2" width="1" height="1"/><rect x="63" y="2" width="1" height="1"/><rect x="64" y="2" width="1" height="1"/><rect x="64" y="3" width="1" height="1"/><rect x="62" y="4" width="1" height="1"/><rect x="63" y="4" width="1" height="1"/><rect x="64" y="4" width="1" height="1"/><rect x="62" y="5" width="1" height="1"/><rect x="64" y="5" width="1" height="1"/><rect x="62" y="6" width="1" height="1"/><rect x="63" y="6" width="1" height="1"/><rect x="64" y="6" width="1" height="1"/><rect x="66" y="0" width="1" height="1"/><rect x="67" y="0" width="1" height="1"/><rect x="67" y="1" width="1" height="1"/><rect x="67" y="2" width="1" height="1"/><rect x="67" y="3" width="1" height="1"/><rect x="67" y="4" width="1" height="1"/><rect x="67" y="5" width="1" height="1"/><rect x="66" y="6" width="1" height="1"/><rect x="67" y="6" width="1" height="1"/><rect x="68" y="6" width="1" height="1"/><rect x="70" y="0" width="1" height="1"/><rect x="71" y="0" width="1" height="1"/><rect x="71" y="1" width="1" height="1"/><rect x="71" y="2" width="1" height="1"/><rect x="71" y="3" width="1" height="1"/><rect x="71" y="4" width="1" height="1"/><rect x="71" y="5" width="1" height="1"/><rect x="70" y="6" width="1" height="1"/><rect x="71" y="6" width="1" height="1"/><rect x="72" y="6" width="1" height="1"/><rect x="74" y="2" width="1" height="1"/><rect x="75" y="2" width="1" height="1"/><rect x="76" y="2" width="1" height="1"/><rect x="74" y="3" width="1" height="1"/><rect x="74" y="4" width="1" height="1"/><rect x="75" y="4" width="1" height="1"/><rect x="76" y="4" width="1" height="1"/><rect x="76" y="5" width="1" height="1"/><rect x="74" y="6" width="1" height="1"/><rect x="75" y="6" width="1" height="1"/><rect x="76" y="6" width="1" height="1"/></svg>