<svg xmlns="http://www.w3.org/2000/svg" viewBox="0 0 144 16" fill="currentColor" shape-rendering="crispEdges"><rect x="2" y="6" width="1" height="1"/><rect x="3" y="6" width="1" height="1"/><rect x="4" y="6" width="1" height="1"/><rect x="5" y="6" width="1" height="1"/><rect x="1" y="7" width="1" height="1"/><rect x="6" y="7" width="1" height="1"/><rect x="6" y="8" width="1" height="1"/><rect x="2" y="9" width="1" height="1"/><rect x="3" y="9" width="1" height="1"/><rect x="4" y="9" width="1" height="1"/><rect x="5" y="9" width="1" height="1"/><rect x="6" y="9" width="1" height="1"/><rect x="1" y="10" width="1" height="1"/><rect x="6" y="10" width="1" height="1"/><rect x="1" y="11" width="1" height="1"/><rect x="6" y="11" width="1" height="1"/><rect x="1" y="12" width="1" height="1"/><rect x="5" y="12" width="1" height="1"/><rect x="6" y="12" width="1" height="1"/><rect x="2" y="13" width="1" height="1"/><rect x="3" y="13" width="1" height="1"/><rect x="4" y="13" width="1" height="1"/><rect x="6" y="13" width="1" height="1"/><rect x="10" y="6" width="1" height="1"/><rect x="11" y="6" width="1" height="1"/><rect x="12" y="6" width="1" height="1"/><rect x="13" y="6" width="1" height="1"/><rect x="9" y="7" width="1" height="1"/><rect x="14" y="7" width="1" height="1"/><rect x="9" y="8" width="1" height="1"/><rect x="14" y="8" width="1" height="1"/><rect x="9" y="9" width="1" height="1"/><rect x="10" y="9" width="1" height="1"/><rect x="11" y="9" width="1" height="1"/><rect x="12" y="9" width="1" height="1"/><rect x="13" y="9" width="1" height="1"/><rect x="14" y="9" width="1" height="1"/><rect x="9" y="10" width="1" height="1"/><rect x="9" y="11" width="1" height="1"/><rect x="9" y="12" width="1" height="1"/><rect x="14" y="12" width="1" height="1"/><rect x="10" y="13" width="1" height="1"/><rect x="11" y="13" width="1" height="1"/><rect x="12" y="13" width="1" height="1"/><rect x="13" y="13" width="1" height="1"/><rect x="18" y="6" width="1" height="1"/><rect x="19" y="6" width="1" height="1"/><rect x="20" y="6" width="1" height="1"/><rect x="21" y="6" width="1" height="1"/><rect x="17" y="7" width="1" height="1"/><rect x="22" y="7" width="1" height="1"/><rect x="17" y="8" width="1" height="1"/><rect x="18" y="9" width="1" height="1"/><rect x="19" y="9" width="1" height="1"/><rect x="20" y="10" width="1" height="1"/><rect x="21" y="10" width="1" height="1"/><rect x="22" y="11" width="1" height="1"/><rect x="17" y="12" width="1" height="1"/><rect x="22" y="12" width="1" height="1"/><rect x="18" y="13" width="1" height="1"/><rect x="19" y="13" width="1" height="1"/><rect x="20" y="13" width="1" height="1"/><rect x="21" y="13" width="1" height="1"/><rect x="27" y="4" width="1" height="1"/><rect x="27" y="5" width="1" height="1"/><rect x="27" y="6" width="1" height="1"/><rect x="25" y="7" width="1" height="1"/><rect x="26" y="7" width="1" height="1"/><rect x="27" y="7" width="1" height="1"/><rect x="28" y="7" width="1" height="1"/><rect x="29" y="7" width="1" height="1"/><rect x="27" y="8" width="1" height="1"/><rect x="27" y="9" width="1" height="1"/><rect x="27" y="10" width="1" height="1"/><rect x="27" y="11" width="1" height="1"/><rect x="27" y="12" width="1" height="1"/><rect x="28" y="13" width="1" height="1"/><rect x="29" y="13" width="1" height="1"/><rect x="33" y="3" width="1" height="1"/><rect x="33" y="4" width="1" height="1"/><rect x="33" y="5" width="1" height="1"/><rect x="33" y="6" width="1" height="1"/><rect x="35" y="6" width="1" height="1"/><rect x="36" y="6" width="1" height="1"/><rect x="37" y="6" width="1" height="1"/><rect x="33" y="7" width="1" height="1"/><rect x="34" y="7" width="1" height="1"/><rect x="38" y="7" width="1" height="1"/><rect x="33" y="8" width="1" height="1"/><rect x="38" y="8" width="1" height="1"/><rect x="33" y="9" width="1" height="1"/><rect x="38" y="9" width="1" height="1"/><rect x="33" y="10" width="1" height="1"/><rect x="38" y="10" width="1" height="1"/><rect x="33" y="11" width="1" height="1"/><rect x="38" y="11" width="1" height="1"/><rect x="33" y="12" width="1" height="1"/><rect x="38" y="12" width="1" height="1"/><rect x="33" y="13" width="1" height="1"/><rect x="38" y="13" width="1" height="1"/><rect x="42" y="6" width="1" height="1"/><rect x="43" y="6" width="1" height="1"/><rect x="44" y="6" width="1" height="1"/><rect x="45" y="6" width="1" height="1"/><rect x="41" y="7" width="1" height="1"/><rect x="46" y="7" width="1" height="1"/><rect x="41" y="8" width="1" height="1"/><rect x="46" y="8" width="1" height="1"/><rect x="41" y="9" width="1" height="1"/><rect x="42" y="9" width="1" height="1"/><rect x="43" y="9" width="1" height="1"/><rect x="44" y="9" width="1" height="1"/><rect x="45" y="9" width="1" height="1"/><rect x="46" y="9" width="1" height="1"/><rect x="41" y="10" width="1" height="1"/><rect x="41" y="11" width="1" height="1"/><rect x="41" y="12" width="1" height="1"/><rect x="46" y="12" width="1" height="1"/><rect x="42" y="13" width="1" height="1"/><rect x="43" y="13" width="1" height="1"/><rect x="44" y="13" width="1" height="1"/><rect x="45" y="13" width="1" height="1"/><rect x="51" y="4" width="1" height="1"/><rect x="51" y="5" width="1" height="1"/><rect x="51" y="6" width="1" height="1"/><rect x="49" y="7" width="1" height="1"/><rect x="50" y="7" width="1" height="1"/><rect x="51" y="7" width="1" height="1"/><rect x="52" y="7" width="1" height="1"/><rect x="53" y="7" width="1" height="1"/><rect x="51" y="8" width="1" height="1"/><rect x="51" y="9" width="1" height="1"/><rect x="51" y="10" width="1" height="1"/><rect x="51" y="11" width="1" height="1"/><rect x="51" y="12" width="1" height="1"/><rect x="52" y="13" width="1" height="1"/><rect x="53" y="13" width="1" height="1"/><rect x="60" y="3" width="1" height="1"/><rect x="60" y="4" width="1" height="1"/><rect x="59" y="6" width="1" height="1"/><rect x="60" y="6" width="1" height="1"/><rect x="60" y="7" width="1" height="1"/><rect x="60" y="8" width="1" height="1"/><rect x="60" y="9" width="1" height="1"/><rect x="60" y="10" width="1" height="1"/><rect x="60" y="11" width="1" height="1"/><rect x="60" y="12" width="1" height="1"/><rect x="58" y="13" width="1" height="1"/><rect x="59" y="13" width="1" height="1"/><rect x="60" y="13" width="1" height="1"/><rect x="61" y="13" width="1" height="1"/><rect x="62" y="13" width="1" height="1"/><rect x="66" y="6" width="1" height="1"/><rect x="67" y="6" width="1" height="1"/><rect x="68" y="6" width="1" height="1"/><rect x="69" y="6" width="1" height="1"/><rect x="65" y="7" width="1" height="1"/><rect x="70" y="7" width="1" height="1"/><rect x="65" y="8" width="1" height="1"/><rect x="65" y="9" width="1" height="1"/><rect x="65" y="10" width="1" height="1"/><rect x="65" y="11" width="1" height="1"/><rect x="65" y="12" width="1" height="1"/><rect x="70" y="12" width="1" height="1"/><rect x="66" y="13" width="1" height="1"/><rect x="67" y="13" width="1" height="1"/><rect x="68" y="13" width="1" height="1"/><rect x="69" y="13" width="1" height="1"/><rect x="82" y="6" width="1" height="1"/><rect x="83" y="6" width="1" height="1"/><rect x="84" y="6" width="1" height="1"/><rect x="85" y="6" width="1" height="1"/><rect x="81" y="7" width="1" height="1"/><rect x="86" y="7" width="1" height="1"/><rect x="81" y="8" width="1" height="1"/><rect x="81" y="9" width="1" height="1"/><rect x="81" y="10" width="1" height="1"/><rect x="81" y="11" width="1" height="1"/><rect x="81" y="12" width="1" height="1"/><rect x="86" y="12" width="1" height="1"/><rect x="82" y="13" width="1" height="1"/><rect x="83" y="13" width="1" height="1"/><rect x="84" y="13" width="1" height="1"/><rect x="85" y="13" width="1" height="1"/><rect x="90" y="6" width="1" height="1"/><rect x="91" y="6" width="1" height="1"/><rect x="92" y="6" width="1" height="1"/><rect x="93" y="6" width="1" height="1"/><rect x="89" y="7" width="1" height="1"/><rect x="94" y="7" width="1" height="1"/><rect x="89" y="8" width="1" height="1"/><rect x="94" y="8" width="1" height="1"/><rect x="89" y="9" width="1" height="1"/><rect x="94" y="9" width="1" height="1"/><rect x="89" y="10" width="1" height="1"/><rect x="94" y="10" width="1" height="1"/><rect x="89" y="11" width="1" height="1"/><rect x="94" y="11" width="1" height="1"/><rect x="89" y="12" width="1" height="1"/><rect x="94" y="12" width="1" height="1"/><rect x="90" y="13" width="1" height="1"/><rect x="91" y="13" width="1" height="1"/><rect x="92" y="13" width="1" height="1"/><rect x="93" y="13" width="1" height="1"/><rect x="97" y="6" width="1" height="1"/><rect x="98" y="6" width="1" height="1"/><rect x="99" y="6" width="1" height="1"/><rect x="101" y="6" width="1" height="1"/><rect x="102" y="6" width="1" height="1"/><rect x="97" y="7" width="1" height="1"/><rect x="100" y="7" width="1" height="1"/><rect x="103" y="7" width="1" height="1"/><rect x="97" y="8" width="1" height="1"/><rect x="100" y="8" width="1" height="1"/><rect x="103" y="8" width="1" height="1"/><rect x="97" y="9" width="1" height="1"/><rect x="100" y="9" width="1" height="1"/><rect x="103" y="9" width="1" height="1"/><rect x="97" y="10" width="1" height="1"/><rect x="100" y="10" width="1" height="1"/><rect x="103" y="10" width="1" height="1"/><rect x="97" y="11" width="1" height="1"/><rect x="100" y="11" width="1" height="1"/><rect x="103" y="11" width="1" height="1"/><rect x="97" y="12" width="1" height="1"/><rect x="100" y="12" width="1" height="1"/><rect x="103" y="12" width="1" height="1"/><rect x="97" y="13" width="1" height="1"/><rect x="100" y="13" width="1" height="1"/><rect x="103" y="13" width="1" height="1"/><rect x="105" y="6" width="1" height="1"/><rect x="107" y="6" width="1" height="1"/><rect x="108" y="6" width="1" height="1"/><rect x="109" y="6" width="1" height="1"/><rect x="105" y="7" width="1" height="1"/><rect x="106" y="7" width="1" height="1"/><rect x="110" y="7" width="1" height="1"/><rect x="105" y="8" width="1" height="1"/><rect x="110" y="8" width="1" height="1"/><rect x="105" y="9" width="1" height="1"/><rect x="110" y="9" width="1" height="1"/><rect x="105" y="10" width="1" height="1"/><rect x="110" y="10" width="1" height="1"/><rect x="105" y="11" width="1" height="1"/><rect x="110" y="11" width="1" height="1"/><rect x="105" y="12" width="1" height="1"/><rect x="106" y="12" width="1" height="1"/><rect x="110" y="12" width="1" height="1"/><rect x="105" y="13" width="1" height="1"/><rect x="107" y="13" width="1" height="1"/><rect x="108" y="13" width="1" height="1"/><rect x="109" y="13" width="1" height="1"/><rect x="105" y="14" width="1" height="1"/><rect x="105" y="15" width="1" height="1"/><rect x="113" y="6" width="1" height="1"/><rect x="118" y="6" width="1" height="1"/><rect x="113" y="7" width="1" height="1"/><rect x="118" y="7" width="1" height="1"/><rect x="113" y="8" width="1" height="1"/><rect x="118" y="8" width="1" height="1"/><rect x="113" y="9" width="1" height="1"/><rect x="118" y="9" width="1" height="1"/><rect x="113" y="10" width="1" height="1"/><rect x="118" y="10" width="1" height="1"/><rect x="113" y="11" width="1" height="1"/><rect x="118" y="11" width="1" height="1"/><rect x="113" y="12" width="1" height="1"/><rect x="117" y="12" width="1" height="1"/><rect x="118" y="12" width="1" height="1"/><rect x="114" y="13" width="1" height="1"/><rect x="115" y="13" width="1" height="1"/><rect x="116" y="13" width="1" height="1"/><rect x="118" y="13" width="1" height="1"/><rect x="123" y="4" width="1" height="1"/><rect x="123" y="5" width="1" height="1"/><rect x="123" y="6" width="1" height="1"/><rect x="121" y="7" width="1" height="1"/><rect x="122" y="7" width="1" height="1"/><rect x="123" y="7" width="1" height="1"/><rect x="124" y="7" width="1" height="1"/><rect x="125" y="7" width="1" height="1"/><rect x="123" y="8" width="1" height="1"/><rect x="123" y="9" width="1" height="1"/><rect x="123" y="10" width="1" height="1"/><rect x="123" y="11" width="1" height="1"/><rect x="123" y="12" width="1" height="1"/><rect x="124" y="13" width="1" height="1"/><rect x="125" y="13" width="1" height="1"/><rect x="130" y="6" width="1" height="1"/><rect x="131" y="6" width="1" height="1"/><rect x="132" y="6" width="1" height="1"/><rect x="133" y="6" width="1" height="1"/><rect x="129" y="7" width="1" height="1"/><rect x="134" y="7" width="1" height="1"/><rect x="129" y="8" width="1" height="1"/><rect x="134" y="8" width="1" height="1"/><rect x="129" y="9" width="1" height="1"/><rect x="130" y="9" width="1" height="1"/><rect x="131" y="9" width="1" height="1"/><rect x="132" y="9" width="1" height="1"/><rect x="133" y="9" width="1" height="1"/><rect x="134" y="9" width="1" height="1"/><rect x="129" y="10" width="1" height="1"/><rect x="129" y="11" width="1" height="1"/><rect x="129" y="12" width="1" height="1"/><rect x="134" y="12" width="1" height="1"/><rect x="130" y="13" width="1" height="1"/><rect x="131" y="13" width="1" height="1"/><rect x="132" y="13" width="1" height="1"/><rect x="133" y="13" width="1" height="1"/><rect x="137" y="6" width="1" height="1"/><rect x="139" y="6" width="1" height="1"/><rect x="140" y="6" width="1" height="1"/><rect x="141" y="6" width="1" height="1"/><rect x="137" y="7" width="1" height="1"/><rect x="138" y="7" width="1" height="1"/><rect x="142" y="7" width="1" height="1"/><rect x="137" y="8" width="1" height="1"/><rect x="142" y="8" width="1" height="1"/><rect x="137" y="9" width="1" height="1"/><rect x="137" y="10" width="1" height="1"/><rect x="137" y="11" width="1" height="1"/><rect x="137" y="12" width="1" height="1"/><rect x="137" y="13" width="1" height="1"/></svg>