<svg xmlns="http://www.w3.org/2000/svg" viewBox="0 0 184 16" fill="currentColor" shape-rendering="crispEdges"><rect x="3" y="1" width="1" height="1"/><rect x="4" y="1" width="1" height="1"/><rect x="5" y="1" width="1" height="1"/><rect x="6" y="1" width="1" height="1"/><rect x="7" y="1" width="1" height="1"/><rect x="8" y="1" width="1" height="1"/><rect x="9" y="1" width="1" height="1"/><rect x="10" y="1" width="1" height="1"/><rect x="11" y="1" width="1" height="1"/><rect x="3" y="2" width="1" height="1"/><rect x="11" y="2" width="1" height="1"/><rect x="3" y="3" width="1" height="1"/><rect x="11" y="3" width="1" height="1"/><rect x="3" y="4" width="1" height="1"/><rect x="11" y="4" width="1" height="1"/><rect x="3" y="5" width="1" height="1"/><rect x="11" y="5" width="1" height="1"/><rect x="3" y="6" width="1" height="1"/><rect x="11" y="6" width="1" height="1"/><rect x="3" y="7" width="1" height="1"/><rect x="4" y="7" width="1" height="1"/><rect x="5" y="7" width="1" height="1"/><rect x="6" y="7" width="1" height="1"/><rect x="7" y="7" width="1" height="1"/><rect x="8" y="7" width="1" height="1"/><rect x="9" y="7" width="1" height="1"/><rect x="10" y="7" width="1" height="1"/><rect x="11" y="7" width="1" height="1"/><rect x="3" y="8" width="1" height="1"/><rect x="11" y="8" width="1" height="1"/><rect x="3" y="9" width="1" height="1"/><rect x="11" y="9" width="1" height="1"/><rect x="3" y="10" width="1" height="1"/><rect x="11" y="10" width="1" height="1"/><rect x="3" y="11" width="1" height="1"/><rect x="11" y="11" width="1" height="1"/><rect x="3" y="12" width="1" height="1"/><rect x="11" y="12" width="1" height="1"/><rect x="3" y="13" width="1" height="1"/><rect x="11" y="13" width="1" height="1"/><rect x="3" y="14" width="1" height="1"/><rect x="4" y="14" width="1" height="1"/><rect x="5" y="14" width="1" height="1"/><rect x="6" y="14" width="1" height="1"/><rect x="7" y="14" width="1" height="1"/><rect x="8" y="14" width="1" height="1"/><rect x="9" y="14" width="1" height="1"/><rect x="10" y="14" width="1" height="1"/><rect x="11" y="14" width="1" height="1"/><rect x="3" y="15" width="1" height="1"/><rect x="11" y="15" width="1" height="1"/><rect x="23" y="0" width="1" height="1"/><rect x="23" y="1" width="1" height="1"/><rect x="23" y="2" width="1" height="1"/><rect x="23" y="3" width="1" height="1"/><rect x="17" y="4" width="1" height="1"/><rect x="18" y="4" width="1" height="1"/><rect x="19" y="4" width="1" height="1"/><rect x="20" y="4" width="1" height="1"/><rect x="21" y="4" width="1" height="1"/><rect x="22" y="4" width="1" height="1"/><rect x="23" y="4" width="1" height="1"/><rect x="24" y="4" width="1" height="1"/><rect x="25" y="4" width="1" height="1"/><rect x="26" y="4" width="1" height="1"/><rect x="27" y="4" width="1" height="1"/><rect x="28" y="4" width="1" height="1"/><rect x="29" y="4" width="1" height="1"/><rect x="22" y="5" width="1" height="1"/><rect x="23" y="5" width="1" height="1"/><rect x="24" y="5" width="1" height="1"/><rect x="21" y="6" width="1" height="1"/><rect x="23" y="6" width="1" height="1"/><rect x="25" y="6" width="1" height="1"/><rect x="21" y="7" width="1" height="1"/><rect x="23" y="7" width="1" height="1"/><rect x="25" y="7" width="1" height="1"/><rect x="20" y="8" width="1" height="1"/><rect x="23" y="8" width="1" height="1"/><rect x="26" y="8" width="1" height="1"/><rect x="19" y="9" width="1" height="1"/><rect x="23" y="9" width="1" height="1"/><rect x="27" y="9" width="1" height="1"/><rect x="18" y="10" width="1" height="1"/><rect x="23" y="10" width="1" height="1"/><rect x="28" y="10" width="1" height="1"/><rect x="17" y="11" width="1" height="1"/><rect x="20" y="11" width="1" height="1"/><rect x="21" y="11" width="1" height="1"/><rect x="22" y="11" width="1" height="1"/><rect x="23" y="11" width="1" height="1"/><rect x="24" y="11" width="1" height="1"/><rect x="25" y="11" width="1" height="1"/><rect x="26" y="11" width="1" height="1"/><rect x="29" y="11" width="1" height="1"/><rect x="16" y="12" width="1" height="1"/><rect x="23" y="12" width="1" height="1"/><rect x="30" y="12" width="1" height="1"/><rect x="23" y="13" width="1" height="1"/><rect x="23" y="14" width="1" height="1"/><rect x="23" y="15" width="1" height="1"/><rect x="34" y="0" width="1" height="1"/><rect x="35" y="1" width="1" height="1"/><rect x="38" y="1" width="1" height="1"/><rect x="39" y="1" width="1" height="1"/><rect x="40" y="1" width="1" height="1"/><rect x="41" y="1" width="1" height="1"/><rect x="42" y="1" width="1" height="1"/><rect x="43" y="1" width="1" height="1"/><rect x="44" y="1" width="1" height="1"/><rect x="45" y="1" width="1" height="1"/><rect x="41" y="2" width="1" height="1"/><rect x="32" y="3" width="1" height="1"/><rect x="33" y="3" width="1" height="1"/><rect x="34" y="3" width="1" height="1"/><rect x="35" y="3" width="1" height="1"/><rect x="36" y="3" width="1" height="1"/><rect x="37" y="3" width="1" height="1"/><rect x="41" y="3" width="1" height="1"/><rect x="39" y="4" width="1" height="1"/><rect x="40" y="4" width="1" height="1"/><rect x="41" y="4" width="1" height="1"/><rect x="42" y="4" width="1" height="1"/><rect x="43" y="4" width="1" height="1"/><rect x="44" y="4" width="1" height="1"/><rect x="33" y="5" width="1" height="1"/><rect x="34" y="5" width="1" height="1"/><rect x="35" y="5" width="1" height="1"/><rect x="36" y="5" width="1" height="1"/><rect x="40" y="5" width="1" height="1"/><rect x="44" y="5" width="1" height="1"/><rect x="40" y="6" width="1" height="1"/><rect x="44" y="6" width="1" height="1"/><rect x="33" y="7" width="1" height="1"/><rect x="34" y="7" width="1" height="1"/><rect x="35" y="7" width="1" height="1"/><rect x="36" y="7" width="1" height="1"/><rect x="38" y="7" width="1" height="1"/><rect x="39" y="7" width="1" height="1"/><rect x="40" y="7" width="1" height="1"/><rect x="41" y="7" width="1" height="1"/><rect x="42" y="7" width="1" height="1"/><rect x="43" y="7" width="1" height="1"/><rect x="44" y="7" width="1" height="1"/><rect x="45" y="7" width="1" height="1"/><rect x="46" y="7" width="1" height="1"/><rect x="33" y="9" width="1" height="1"/><rect x="34" y="9" width="1" height="1"/><rect x="35" y="9" width="1" height="1"/><rect x="36" y="9" width="1" height="1"/><rect x="33" y="10" width="1" height="1"/><rect x="36" y="10" width="1" height="1"/><rect x="39" y="10" width="1" height="1"/><rect x="40" y="10" width="1" height="1"/><rect x="41" y="10" width="1" height="1"/><rect x="42" y="10" width="1" height="1"/><rect x="43" y="10" width="1" height="1"/><rect x="44" y="10" width="1" height="1"/><rect x="33" y="11" width="1" height="1"/><rect x="36" y="11" width="1" height="1"/><rect x="39" y="11" width="1" height="1"/><rect x="44" y="11" width="1" height="1"/><rect x="33" y="12" width="1" height="1"/><rect x="36" y="12" width="1" height="1"/><rect x="39" y="12" width="1" height="1"/><rect x="44" y="12" width="1" height="1"/><rect x="33" y="13" width="1" height="1"/><rect x="34" y="13" width="1" height="1"/><rect x="35" y="13" width="1" height="1"/><rect x="36" y="13" width="1" height="1"/><rect x="39" y="13" width="1" height="1"/><rect x="44" y="13" width="1" height="1"/><rect x="33" y="14" width="1" height="1"/><rect x="36" y="14" width="1" height="1"/><rect x="39" y="14" width="1" height="1"/><rect x="40" y="14" width="1" height="1"/><rect x="41" y="14" width="1" height="1"/><rect x="42" y="14" width="1" height="1"/><rect x="43" y="14" width="1" height="1"/><rect x="44" y="14" width="1" height="1"/><rect x="39" y="15" width="1" height="1"/><rect x="44" y="15" width="1" height="1"/><rect x="63" y="0" width="1" height="1"/><rect x="63" y="1" width="1" height="1"/><rect x="63" y="2" width="1" height="1"/><rect x="63" y="3" width="1" height="1"/><rect x="58" y="4" width="1" height="1"/><rect x="59" y="4" width="1" height="1"/><rect x="60" y="4" width="1" height="1"/><rect x="61" y="4" width="1" height="1"/><rect x="62" y="4" width="1" height="1"/><rect x="63" y="4" width="1" height="1"/><rect x="64" y="4" width="1" height="1"/><rect x="65" y="4" width="1" height="1"/><rect x="66" y="4" width="1" height="1"/><rect x="67" y="4" width="1" height="1"/><rect x="68" y="4" width="1" height="1"/><rect x="58" y="5" width="1" height="1"/><rect x="63" y="5" width="1" height="1"/><rect x="68" y="5" width="1" height="1"/><rect x="58" y="6" width="1" height="1"/><rect x="63" y="6" width="1" height="1"/><rect x="68" y="6" width="1" height="1"/><rect x="58" y="7" width="1" height="1"/><rect x="63" y="7" width="1" height="1"/><rect x="68" y="7" width="1" height="1"/><rect x="58" y="8" width="1" height="1"/><rect x="63" y="8" width="1" height="1"/><rect x="68" y="8" width="1" height="1"/><rect x="58" y="9" width="1" height="1"/><rect x="63" y="9" width="1" height="1"/><rect x="68" y="9" width="1" height="1"/><rect x="58" y="10" width="1" height="1"/><rect x="59" y="10" width="1" height="1"/><rect x="60" y="10" width="1" height="1"/><rect x="61" y="10" width="1" height="1"/><rect x="62" y="10" width="1" height="1"/><rect x="63" y="10" width="1" height="1"/><rect x="64" y="10" width="1" height="1"/><rect x="65" y="10" width="1" height="1"/><rect x="66" y="10" width="1" height="1"/><rect x="67" y="10" width="1" height="1"/><rect x="68" y="10" width="1" height="1"/><rect x="58" y="11" width="1" height="1"/><rect x="63" y="11" width="1" height="1"/><rect x="68" y="11" width="1" height="1"/><rect x="63" y="12" width="1" height="1"/><rect x="63" y="13" width="1" height="1"/><rect x="63" y="14" width="1" height="1"/><rect x="63" y="15" width="1" height="1"/><rect x="78" y="0" width="1" height="1"/><rect x="79" y="1" width="1" height="1"/><rect x="79" y="2" width="1" height="1"/><rect x="72" y="3" width="1" height="1"/><rect x="73" y="3" width="1" height="1"/><rect x="74" y="3" width="1" height="1"/><rect x="75" y="3" width="1" height="1"/><rect x="76" y="3" width="1" height="1"/><rect x="77" y="3" width="1" height="1"/><rect x="78" y="3" width="1" height="1"/><rect x="79" y="3" width="1" height="1"/><rect x="80" y="3" width="1" height="1"/><rect x="81" y="3" width="1" height="1"/><rect x="82" y="3" width="1" height="1"/><rect x="83" y="3" width="1" height="1"/><rect x="84" y="3" width="1" height="1"/><rect x="85" y="3" width="1" height="1"/><rect x="86" y="3" width="1" height="1"/><rect x="75" y="4" width="1" height="1"/><rect x="83" y="4" width="1" height="1"/><rect x="75" y="5" width="1" height="1"/><rect x="83" y="5" width="1" height="1"/><rect x="76" y="6" width="1" height="1"/><rect x="82" y="6" width="1" height="1"/><rect x="76" y="7" width="1" height="1"/><rect x="82" y="7" width="1" height="1"/><rect x="77" y="8" width="1" height="1"/><rect x="81" y="8" width="1" height="1"/><rect x="78" y="9" width="1" height="1"/><rect x="80" y="9" width="1" height="1"/><rect x="79" y="10" width="1" height="1"/><rect x="78" y="11" width="1" height="1"/><rect x="80" y="11" width="1" height="1"/><rect x="77" y="12" width="1" height="1"/><rect x="81" y="12" width="1" height="1"/><rect x="76" y="13" width="1" height="1"/><rect x="82" y="13" width="1" height="1"/><rect x="74" y="14" width="1" height="1"/><rect x="75" y="14" width="1" height="1"/><rect x="83" y="14" width="1" height="1"/><rect x="84" y="14" width="1" height="1"/><rect x="72" y="15" width="1" height="1"/><rect x="73" y="15" width="1" height="1"/><rect x="85" y="15" width="1" height="1"/><rect x="86" y="15" width="1" height="1"/><rect x="101" y="2" width="1" height="1"/><rect x="109" y="2" width="1" height="1"/><rect x="97" y="3" width="1" height="1"/><rect x="98" y="3" width="1" height="1"/><rect x="99" y="3" width="1" height="1"/><rect x="100" y="3" width="1" height="1"/><rect x="101" y="3" width="1" height="1"/><rect x="102" y="3" width="1" height="1"/><rect x="103" y="3" width="1" height="1"/><rect x="104" y="3" width="1" height="1"/><rect x="105" y="3" width="1" height="1"/><rect x="109" y="3" width="1" height="1"/><rect x="109" y="4" width="1" height="1"/><rect x="99" y="5" width="1" height="1"/><rect x="100" y="5" width="1" height="1"/><rect x="101" y="5" width="1" height="1"/><rect x="102" y="5" width="1" height="1"/><rect x="103" y="5" width="1" height="1"/><rect x="109" y="5" width="1" height="1"/><rect x="110" y="5" width="1" height="1"/><rect x="111" y="5" width="1" height="1"/><rect x="98" y="6" width="1" height="1"/><rect x="104" y="6" width="1" height="1"/><rect x="109" y="6" width="1" height="1"/><rect x="98" y="7" width="1" height="1"/><rect x="104" y="7" width="1" height="1"/><rect x="109" y="7" width="1" height="1"/><rect x="99" y="8" width="1" height="1"/><rect x="100" y="8" width="1" height="1"/><rect x="101" y="8" width="1" height="1"/><rect x="102" y="8" width="1" height="1"/><rect x="103" y="8" width="1" height="1"/><rect x="109" y="8" width="1" height="1"/><rect x="109" y="9" width="1" height="1"/><rect x="109" y="10" width="1" height="1"/><rect x="99" y="11" width="1" height="1"/><rect x="109" y="11" width="1" height="1"/><rect x="99" y="12" width="1" height="1"/><rect x="99" y="13" width="1" height="1"/><rect x="99" y="14" width="1" height="1"/><rect x="100" y="15" width="1" height="1"/><rect x="101" y="15" width="1" height="1"/><rect x="102" y="15" width="1" height="1"/><rect x="103" y="15" width="1" height="1"/><rect x="104" y="15" width="1" height="1"/><rect x="105" y="15" width="1" height="1"/><rect x="106" y="15" width="1" height="1"/><rect x="107" y="15" width="1" height="1"/><rect x="108" y="15" width="1" height="1"/><rect x="109" y="15" width="1" height="1"/><rect x="115" y="2" width="1" height="1"/><rect x="116" y="2" width="1" height="1"/><rect x="117" y="2" width="1" height="1"/><rect x="118" y="2" width="1" height="1"/><rect x="119" y="2" width="1" height="1"/><rect x="120" y="2" width="1" height="1"/><rect x="121" y="2" width="1" height="1"/><rect x="122" y="2" width="1" height="1"/><rect x="123" y="2" width="1" height="1"/><rect x="124" y="2" width="1" height="1"/><rect x="125" y="2" width="1" height="1"/><rect x="125" y="3" width="1" height="1"/><rect x="125" y="4" width="1" height="1"/><rect x="125" y="5" width="1" height="1"/><rect x="125" y="6" width="1" height="1"/><rect x="125" y="7" width="1" height="1"/><rect x="113" y="8" width="1" height="1"/><rect x="114" y="8" width="1" height="1"/><rect x="115" y="8" width="1" height="1"/><rect x="116" y="8" width="1" height="1"/><rect x="117" y="8" width="1" height="1"/><rect x="118" y="8" width="1" height="1"/><rect x="119" y="8" width="1" height="1"/><rect x="120" y="8" width="1" height="1"/><rect x="121" y="8" width="1" height="1"/><rect x="122" y="8" width="1" height="1"/><rect x="123" y="8" width="1" height="1"/><rect x="124" y="8" width="1" height="1"/><rect x="125" y="8" width="1" height="1"/><rect x="126" y="8" width="1" height="1"/><rect x="127" y="8" width="1" height="1"/><rect x="115" y="11" width="1" height="1"/><rect x="116" y="11" width="1" height="1"/><rect x="117" y="11" width="1" height="1"/><rect x="118" y="11" width="1" height="1"/><rect x="119" y="11" width="1" height="1"/><rect x="120" y="11" width="1" height="1"/><rect x="121" y="11" width="1" height="1"/><rect x="122" y="11" width="1" height="1"/><rect x="123" y="11" width="1" height="1"/><rect x="124" y="11" width="1" height="1"/><rect x="125" y="11" width="1" height="1"/><rect x="125" y="12" width="1" height="1"/><rect x="115" y="13" width="1" height="1"/><rect x="116" y="13" width="1" height="1"/><rect x="117" y="13" width="1" height="1"/><rect x="118" y="13" width="1" height="1"/><rect x="119" y="13" width="1" height="1"/><rect x="120" y="13" width="1" height="1"/><rect x="121" y="13" width="1" height="1"/><rect x="122" y="13" width="1" height="1"/><rect x="123" y="13" width="1" height="1"/><rect x="124" y="13" width="1" height="1"/><rect x="115" y="14" width="1" height="1"/><rect x="116" y="15" width="1" height="1"/><rect x="117" y="15" width="1" height="1"/><rect x="118" y="15" width="1" height="1"/><rect x="119" y="15" width="1" height="1"/><rect x="120" y="15" width="1" height="1"/><rect x="121" y="15" width="1" height="1"/><rect x="122" y="15" width="1" height="1"/><rect x="123" y="15" width="1" height="1"/><rect x="124" y="15" width="1" height="1"/><rect x="125" y="15" width="1" height="1"/><rect x="138" y="4" width="1" height="1"/><rect x="139" y="4" width="1" height="1"/><rect x="140" y="4" width="1" height="1"/><rect x="141" y="4" width="1" height="1"/><rect x="142" y="4" width="1" height="1"/><rect x="137" y="5" width="1" height="1"/><rect x="143" y="5" width="1" height="1"/><rect x="137" y="6" width="1" height="1"/><rect x="143" y="6" width="1" height="1"/><rect x="137" y="7" width="1" height="1"/><rect x="143" y="7" width="1" height="1"/><rect x="137" y="8" width="1" height="1"/><rect x="143" y="8" width="1" height="1"/><rect x="137" y="9" width="1" height="1"/><rect x="143" y="9" width="1" height="1"/><rect x="138" y="10" width="1" height="1"/><rect x="142" y="10" width="1" height="1"/><rect x="139" y="11" width="1" height="1"/><rect x="141" y="11" width="1" height="1"/><rect x="139" y="12" width="1" height="1"/><rect x="141" y="12" width="1" height="1"/><rect x="137" y="13" width="1" height="1"/><rect x="138" y="13" width="1" height="1"/><rect x="139" y="13" width="1" height="1"/><rect x="141" y="13" width="1" height="1"/><rect x="142" y="13" width="1" height="1"/><rect x="143" y="13" width="1" height="1"/><rect x="145" y="6" width="1" height="1"/><rect x="150" y="6" width="1" height="1"/><rect x="145" y="7" width="1" height="1"/><rect x="150" y="7" width="1" height="1"/><rect x="145" y="8" width="1" height="1"/><rect x="150" y="8" width="1" height="1"/><rect x="145" y="9" width="1" height="1"/><rect x="150" y="9" width="1" height="1"/><rect x="145" y="10" width="1" height="1"/><rect x="150" y="10" width="1" height="1"/><rect x="145" y="11" width="1" height="1"/><rect x="150" y="11" width="1" height="1"/><rect x="145" y="12" width="1" height="1"/><rect x="146" y="12" width="1" height="1"/><rect x="149" y="12" width="1" height="1"/><rect x="150" y="12" width="1" height="1"/><rect x="145" y="13" width="1" height="1"/><rect x="147" y="13" width="1" height="1"/><rect x="148" y="13" width="1" height="1"/><rect x="151" y="13" width="1" height="1"/><rect x="145" y="14" width="1" height="1"/><rect x="145" y="15" width="1" height="1"/><rect x="164" y="7" width="1" height="1"/><rect x="165" y="8" width="1" height="1"/><rect x="160" y="9" width="1" height="1"/><rect x="161" y="9" width="1" height="1"/><rect x="162" y="9" width="1" height="1"/><rect x="163" y="9" width="1" height="1"/><rect x="164" y="9" width="1" height="1"/><rect x="165" y="9" width="1" height="1"/><rect x="166" y="9" width="1" height="1"/><rect x="165" y="10" width="1" height="1"/><rect x="164" y="11" width="1" height="1"/><rect x="175" y="1" width="1" height="1"/><rect x="175" y="2" width="1" height="1"/><rect x="174" y="3" width="1" height="1"/><rect x="175" y="3" width="1" height="1"/><rect x="176" y="3" width="1" height="1"/><rect x="174" y="4" width="1" height="1"/><rect x="175" y="4" width="1" height="1"/><rect x="176" y="4" width="1" height="1"/><rect x="173" y="5" width="1" height="1"/><rect x="174" y="5" width="1" height="1"/><rect x="175" y="5" width="1" height="1"/><rect x="176" y="5" width="1" height="1"/><rect x="177" y="5" width="1" height="1"/><rect x="169" y="6" width="1" height="1"/><rect x="170" y="6" width="1" height="1"/><rect x="171" y="6" width="1" height="1"/><rect x="172" y="6" width="1" height="1"/><rect x="173" y="6" width="1" height="1"/><rect x="174" y="6" width="1" height="1"/><rect x="175" y="6" width="1" height="1"/><rect x="176" y="6" width="1" height="1"/><rect x="177" y="6" width="1" height="1"/><rect x="178" y="6" width="1" height="1"/><rect x="179" y="6" width="1" height="1"/><rect x="180" y="6" width="1" height="1"/><rect x="181" y="6" width="1" height="1"/><rect x="182" y="6" width="1" height="1"/><rect x="170" y="7" width="1" height="1"/><rect x="171" y="7" width="1" height="1"/><rect x="172" y="7" width="1" height="1"/><rect x="173" y="7" width="1" height="1"/><rect x="174" y="7" width="1" height="1"/><rect x="175" y="7" width="1" height="1"/><rect x="176" y="7" width="1" height="1"/><rect x="177" y="7" width="1" height="1"/><rect x="178" y="7" width="1" height="1"/><rect x="179" y="7" width="1" height="1"/><rect x="180" y="7" width="1" height="1"/><rect x="171" y="8" width="1" height="1"/><rect x="172" y="8" width="1" height="1"/><rect x="173" y="8" width="1" height="1"/><rect x="174" y="8" width="1" height="1"/><rect x="175" y="8" width="1" height="1"/><rect x="176" y="8" width="1" height="1"/><rect x="177" y="8" width="1" height="1"/><rect x="178" y="8" width="1" height="1"/><rect x="179" y="8" width="1" height="1"/><rect x="172" y="9" width="1" height="1"/><rect x="173" y="9" width="1" height="1"/><rect x="174" y="9" width="1" height="1"/><rect x="175" y="9" width="1" height="1"/><rect x="176" y="9" width="1" height="1"/><rect x="177" y="9" width="1" height="1"/><rect x="178" y="9" width="1" height="1"/><rect x="173" y="10" width="1" height="1"/><rect x="174" y="10" width="1" height="1"/><rect x="175" y="10" width="1" height="1"/><rect x="176" y="10" width="1" height="1"/><rect x="177" y="10" width="1" height="1"/><rect x="172" y="11" width="1" height="1"/><rect x="173" y="11" width="1" height="1"/><rect x="174" y="11" width="1" height="1"/><rect x="175" y="11" width="1" height="1"/><rect x="176" y="11" width="1" height="1"/><rect x="177" y="11" width="1" height="1"/><rect x="178" y="11" width="1" height="1"/><rect x="171" y="12" width="1" height="1"/><rect x="172" y="12" width="1" height="1"/><rect x="173" y="12" width="1" height="1"/><rect x="174" y="12" width="1" height="1"/><rect x="176" y="12" width="1" height="1"/><rect x="177" y="12" width="1" height="1"/><rect x="178" y="12" width="1" height="1"/><rect x="179" y="12" width="1" height="1"/><rect x="171" y="13" width="1" height="1"/><rect x="172" y="13" width="1" height="1"/><rect x="178" y="13" width="1" height="1"/><rect x="179" y="13" width="1" height="1"/><rect x="170" y="14" width="1" height="1"/><rect x="180" y="14" width="1" height="1"/></svg>