<?xml version="1.0" encoding="UTF-8" standalone="no"?>
<!-- Created with Inkscape (http://www.inkscape.org/) -->

<svg
   width="251.35417mm"
   height="121.97655mm"
   viewBox="0 0 251.35417 121.97655"
   version="1.1"
   id="svg1"
   xml:space="preserve"
   inkscape:version="1.3 (0e150ed6c4, 2023-07-21)"
   sodipodi:docname="American Bell 1982.svg"
   xmlns:inkscape="http://www.inkscape.org/namespaces/inkscape"
   xmlns:sodipodi="http://sodipodi.sourceforge.net/DTD/sodipodi-0.dtd"
   xmlns="http://www.w3.org/2000/svg"
   xmlns:svg="http://www.w3.org/2000/svg"><sodipodi:namedview
     id="namedview1"
     pagecolor="#ffffff"
     bordercolor="#000000"
     borderopacity="0.25"
     inkscape:showpageshadow="2"
     inkscape:pageopacity="0.0"
     inkscape:pagecheckerboard="0"
     inkscape:deskcolor="#d1d1d1"
     inkscape:document-units="mm"
     inkscape:zoom="1.0863952"
     inkscape:cx="476.80623"
     inkscape:cy="214.93099"
     inkscape:window-width="1920"
     inkscape:window-height="1009"
     inkscape:window-x="-8"
     inkscape:window-y="-8"
     inkscape:window-maximized="1"
     inkscape:current-layer="svg1" /><defs
     id="defs1" /><g
     inkscape:label="Layer 1"
     inkscape:groupmode="layer"
     id="layer1"
     transform="translate(-9.8552124,-78.496381)" /><path
     id="path2"
     style="opacity:1;fill:#00abee;fill-opacity:1;stroke-width:4.39582;paint-order:stroke fill markers"
     d="m 125.64844,0 c -5.14113,0.03503 -10.23146,1.020913 -15.01391,2.907882 1.09729,-0.09403 2.15902,-0.161424 3.10834,-0.161424 9.7366,0 9.01182,1.238084 21.34174,1.238084 h 8.34598 C 137.86969,1.361019 131.79717,3.15e-4 125.64844,0 Z m 9.66892,5.305213 c -6.53463,0 -14.06465,1.20705 -22.41313,1.168258 -2.34117,-0.0109 -5.61672,-0.227407 -8.6786,-0.463999 -0.99859,0.610982 -1.97101,1.263762 -2.91464,1.956607 4.87204,-0.407345 9.3895,-0.413695 12.99124,-0.413695 9.73886,0 18.14463,1.578949 21.97842,1.578949 h 15.38706 C 149.8783,7.7017 147.97403,6.421989 145.97434,5.305213 Z m 4.19026,5.146042 c -4.43779,0 -19.15578,1.241403 -27.50437,1.241403 -3.17943,0 -9.12408,-0.198529 -14.664792,-0.497352 -0.75208,0.698484 -1.47811,1.424513 -2.17659,2.176594 5.326822,-0.618192 10.555962,-0.840502 19.451192,-0.840502 12.53466,0 27.43282,1.745977 33.54989,1.745977 h 8.8768 c -1.18319,-1.3561 -2.45298,-2.634154 -3.80133,-3.82612 z m 8.65533,5.146792 c -6.53465,0 -17.80819,1.593879 -35.84886,1.593879 -9.00912,0 -15.325672,-0.487383 -19.680942,-0.781505 -0.72728,0.894748 -1.41712,1.819289 -2.06773,2.771234 5.08494,-1.13603 11.081482,-1.150988 24.047642,-1.150988 16.30898,0 27.43282,1.434794 33.54989,1.434794 h 12.73821 c -0.84303,-1.340357 -1.76176,-2.631594 -2.75171,-3.867414 z m 0.23275,5.187336 c -6.53465,0 -13.7774,1.722236 -36.08161,1.722236 -11.54659,0 -18.630522,-0.42354 -23.151187,-0.7567 -0.566662,0.98344 -1.092918,1.98961 -1.577446,3.016 3.867661,-1.29814 9.263421,-1.45085 17.611713,-1.4453 2.79101,0.002 5.91224,0.021 9.41589,0.021 22.89169,0 27.43282,1.43479 33.54989,1.43479 h 15.57176 c -0.60567,-1.36616 -1.28438,-2.69877 -2.03319,-3.992045 z m 0,5.311966 c -7.74617,0 -9.46701,1.73724 -40.78768,1.73724 -11.089792,0 -17.277432,-0.41476 -20.894247,-0.73115 -0.403239,0.98769 -0.768397,1.99052 -1.09469,3.00623 3.225038,-1.09067 8.546715,-1.28657 14.896807,-1.28012 3.81003,0.004 8.28233,-0.15622 13.53782,-0.15622 28.06391,0 27.99217,1.43634 34.10924,1.43634 h 17.51785 c -0.39231,-1.36004 -0.85365,-2.69922 -1.38223,-4.01232 z m 0,5.33298 c -7.74617,0 -10.89129,1.69827 -40.46182,1.69827 -13.043212,0 -19.504199,-0.47787 -22.784041,-0.86186 -0.227118,0.89865 -0.42419,1.80462 -0.590896,2.71642 4.656032,-0.25604 12.786445,-1.01585 23.049077,-1.01583 31.32067,8e-5 33.04151,1.48359 40.78768,1.48359 h 18.46313 c -0.20464,-1.35271 -0.47577,-2.69454 -0.81238,-4.02059 z m 0.83865,5.34051 c -6.11702,0 -11.7296,1.69388 -34.62129,1.69388 -13.94403,0 -25.449518,-0.0893 -30.341675,-1.02566 -0.11754,1.06556 -0.193934,2.13526 -0.228992,3.2067 3.670207,-0.36222 9.623795,-1.34233 24.171527,-1.34229 31.32067,6e-5 32.43561,1.38659 40.18178,1.38659 h 18.90985 c -0.0312,-1.31005 -0.12407,-2.61791 -0.27855,-3.91922 z m 0,5.23914 c -13.80547,0 -11.7296,1.75406 -34.62129,1.75406 -14.01462,0 -25.577868,0.31782 -30.427266,-0.63235 -0.04446,-0.009 -0.0725,-0.0183 -0.115651,-0.027 0.03545,1.00686 0.107224,2.01211 0.21548,3.01376 3.735283,-0.42287 9.814155,-1.51567 24.114477,-1.51564 31.32067,6e-5 32.2494,1.60647 39.99557,1.60647 h 18.61028 c 0.17079,-1.3938 0.27103,-2.79534 0.30033,-4.19926 z m 0,5.5192 c -13.80547,0 -21.70106,1.65428 -34.80749,1.65428 -13.98691,0 -26.779306,-0.60059 -29.957256,-1.21507 0.198699,1.1387 0.444676,2.26865 0.737291,3.38691 h 2.263695 c 3.571298,-0.0167 3.144898,-1.3331 20.92954,-1.3331 22.56286,0 19.94793,1.3331 39.99557,1.3331 h 17.69505 c 0.3333,-1.26182 0.60714,-2.53863 0.82063,-3.82612 z m 0,5.14678 c -13.80547,0 -24.90101,1.79181 -38.00743,1.79181 -12.611402,0 -21.618848,-0.62399 -25.598073,-1.17313 0.375619,1.1843 0.804007,2.35123 1.283887,3.49726 l 2.536231,-0.0466 c 3.570743,-0.0655 11.697335,-0.59585 18.951165,-0.59585 22.56286,0 19.94793,0.64244 39.99557,0.64244 h 15.98921 c 0.54439,-1.34632 1.01804,-2.72018 1.41903,-4.11594 z m 0,5.43586 c -30.25404,0 -24.90101,0.63293 -38.00743,0.63293 -12.455982,0 -20.013492,-0.0155 -23.754078,-0.45123 0.591869,1.31365 1.251458,2.59577 1.976123,3.84113 h 6.471213 c 3.57133,0 7.680212,-0.26954 12.479952,-0.26954 14.03572,0 19.94793,0.26954 39.99557,0.26954 h 13.45298 c 0.75338,-1.30306 1.4356,-2.64597 2.0437,-4.02283 z m 0,5.3435 c -32.11807,0 -32.1183,0.45725 -38.00743,0.45725 -9.91734,0 -16.605822,0.0683 -20.864222,-0.10359 0.83418,1.29267 1.73928,2.53816 2.71117,3.73076 h 65.149912 c 1.04909,-1.30199 2.01889,-2.66592 2.90413,-4.0844 z m -55.172422,5.40508 c 1.2429,1.4357 2.58247,2.78482 4.00932,4.03784 h 55.154402 c 1.42685,-1.25302 2.76641,-2.60214 4.00931,-4.03784 z m 5.67837,5.35851 c 1.823232,1.4435 3.764112,2.73191 5.802242,3.85165 h 40.21257 c 2.03785,-1.11978 3.97848,-2.40819 5.80148,-3.85165 z m 8.221352,5.17232 c 5.53294,2.60493 11.57133,3.9604 17.68679,3.97028 6.11573,-0.0102 12.15438,-1.36525 17.68756,-3.97028 z"
     sodipodi:nodetypes="ccssccssccssccsssccssccsssccssccsssccsssccssscccssccsssccssccsssccssccssssccssccssscccssccsssccsssccsssccsssccsssccccscccccccccccccc" /><path
     id="path44"
     style="font-weight:bold;font-size:18.8298px;line-height:0.8;font-family:'Nimbus Sans Becker D';-inkscape-font-specification:'Nimbus Sans Becker D Bold';letter-spacing:-0.470747px;word-spacing:0px;stroke-width:20.6164;paint-order:stroke fill markers"
     d="M 10.227514,92.294809 0,121.37962 h 5.9876976 l 1.938587,-6.22118 H 18.601281 l 1.939338,6.22118 H 26.54934 L 16.683715,92.294809 Z m 177.140496,0 v 29.084811 h 13.70076 c 1.33526,0 2.42192,-0.0705 3.26001,-0.21247 2.01712,-0.35512 3.60808,-1.26458 4.77289,-2.72768 1.22163,-1.54834 1.52189,-3.34528 1.52189,-5.39081 0,-3.76706 -3.30744,-6.83017 -5.09198,-7.21376 0.75814,-0.21662 4.35843,-2.11712 4.35843,-6.209941 0,-1.06537 -0.21353,-2.05965 -0.63968,-2.98297 -0.55399,-1.19323 -1.34228,-2.12387 -2.36505,-2.79151 -1.56254,-1.03695 -3.65026,-1.55567 -6.26399,-1.55567 z m 49.82891,0 v 29.084811 h 5.30522 V 92.294809 Z m 8.85203,0 v 29.084811 h 5.30522 V 92.294809 Z m -144.56667,0.36339 v 4.85848 h 5.30597 v -4.85848 z m 91.63843,4.21804 h 5.51844 c 1.54836,0 2.65696,0.10677 3.32458,0.31985 1.60517,0.52558 2.4071,1.56225 2.4071,3.110601 0,1.50573 -0.74514,2.59237 -2.23666,3.26001 -0.78127,0.34091 -1.9959,0.5113 -3.64368,0.5113 h -5.36978 z m -179.846415,1.02261 4.048359,13.040041 H 9.2259346 Z m 60.597753,1.64051 c -2.741563,0 -5.020873,0.823891 -6.839115,2.471671 -2.329618,2.11654 -3.495013,5.0289 -3.495013,8.73641 0,3.33816 1.079826,6.08698 3.238987,8.24612 1.988699,1.98869 4.495936,2.98296 7.5216,2.98296 2.926228,0 5.341082,-0.86631 7.244551,-2.5993 1.335269,-1.22163 2.26592,-2.68536 2.791506,-4.38998 H 78.81537 c -0.965939,1.84668 -2.492546,2.77048 -4.580682,2.77048 -1.605165,0 -2.869761,-0.57548 -3.793084,-1.7261 -0.795482,-0.99436 -1.244124,-1.95035 -1.428789,-3.65494 h 15.5545 c -0.08523,-4.8297 -1.582704,-8.71024 -4.409499,-10.85518 -1.747213,-1.32108 -3.84251,-1.982141 -6.285768,-1.982141 z m 46.282092,0 c -1.57676,0 -3.01855,0.29834 -4.32541,0.894961 -1.81824,0.8239 -3.26685,2.13847 -4.34643,3.9425 -1.1506,1.91767 -1.72611,4.0622 -1.72611,6.43443 0,1.81823 0.34833,3.52279 1.04437,5.11375 0.8239,1.88927 2.04533,3.34544 3.6647,4.36821 1.74722,1.10799 3.67213,1.66229 5.77447,1.66229 1.23583,0 2.45727,-0.19915 3.6647,-0.59689 1.29265,-0.42616 2.37248,-1.0509 3.23898,-1.87478 1.50573,-1.4347 2.42882,-3.30283 2.76974,-5.60402 h -5.09274 c -0.19887,0.88071 -0.49722,1.591 -0.89496,2.13078 -0.8665,1.15062 -2.06674,1.72537 -3.60088,1.72537 -1.50573,0 -2.68476,-0.52553 -3.53706,-1.57671 -1.05117,-1.33526 -1.5767,-3.11024 -1.5767,-5.32622 0,-2.14495 0.49751,-3.89948 1.49186,-5.26317 0.88071,-1.20742 2.07413,-1.81096 3.57986,-1.81096 2.13075,0 3.53695,1.18586 4.21879,3.55809 h 5.17757 c -0.45455,-1.96029 -1.21483,-3.54445 -2.2802,-4.75187 -1.80404,-2.01711 -4.21889,-3.025761 -7.24455,-3.025761 z m 103.32777,0 c -2.74157,0 -5.02163,0.823891 -6.83988,2.471671 -2.3296,2.11654 -3.49426,5.0289 -3.49426,8.73641 0,3.33816 1.07909,6.08698 3.23825,8.24612 1.9887,1.98869 4.49592,2.98296 7.52159,2.98296 2.92623,0 5.34109,-0.86631 7.24455,-2.5993 1.33528,-1.22163 2.26592,-2.68536 2.79151,-4.38998 h -5.51845 c -0.96593,1.84668 -2.49328,2.77048 -4.58142,2.77048 -1.60516,0 -2.86902,-0.57548 -3.79234,-1.7261 -0.79548,-0.99436 -1.24412,-1.95035 -1.42879,-3.65494 h 15.55449 c -0.0852,-4.8297 -1.58269,-8.71024 -4.40948,-10.85518 -1.74722,-1.32108 -3.84251,-1.982141 -6.28577,-1.982141 z m -182.578614,0.0218 c -2.599514,0 -4.580473,1.072271 -5.94415,3.217221 v -2.64209 h -5.305965 v 21.24333 h 5.305965 v -12.14506 c 0,-1.30687 0.155995,-2.25873 0.468504,-2.85533 0.767071,-1.44891 1.967304,-2.17285 3.600877,-2.17285 1.519935,0 2.585378,0.69591 3.196192,2.08801 0.241485,0.5682 0.36189,1.54808 0.36189,2.94017 v 12.14506 h 5.305963 v -11.847 c 0,-0.78127 0.02801,-1.37041 0.08484,-1.76815 0.170461,-1.16481 0.639196,-2.05306 1.406265,-2.66387 0.767071,-0.61082 1.626543,-0.91598 2.578277,-0.91598 0.71025,0 1.36375,0.18475 1.96036,0.55409 0.525583,0.3267 0.909506,0.75985 1.15099,1.29965 0.298304,0.66764 0.447482,1.73307 0.447482,3.1962 v 12.14506 h 5.305212 v -12.67739 c 0,-0.99434 -0.02121,-1.79021 -0.06382,-2.38682 -0.17046,-2.2444 -0.880755,-3.92776 -2.130794,-5.04994 -1.264244,-1.1364 -2.819626,-1.704341 -4.666274,-1.704341 -2.95464,0 -5.205931,1.307001 -6.754274,3.920731 -0.625021,-1.19324 -1.342883,-2.08829 -2.152567,-2.68489 -1.164809,-0.823881 -2.54981,-1.235841 -4.154975,-1.235841 z m 101.542344,0 c -3.56545,0 -6.11509,0.908701 -7.64923,2.726941 -0.78127,0.93753 -1.3,2.32252 -1.55568,4.15498 h 5.00714 7.6e-4 c 0.071,-0.90914 0.37618,-1.59748 0.91598,-2.06623 0.8239,-0.72446 1.91054,-1.08716 3.26001,-1.08716 1.108,0 2.03108,0.24156 2.76973,0.72452 0.73867,0.49718 1.1082,1.17189 1.1082,2.02418 0,0.61083 -0.22718,1.08712 -0.68173,1.42804 -0.45456,0.32672 -1.33524,0.56754 -2.64211,0.72378 -3.1393,0.35512 -5.47615,0.9094 -7.0103,1.66228 -2.65631,1.30686 -3.98453,3.17497 -3.98453,5.60404 0,1.90348 0.84508,3.50128 2.53548,4.79391 1.51994,1.1506 3.29566,1.72611 5.32698,1.72611 2.35802,0 4.82423,-0.36918 7.0118,-2.088 0.0897,0.58904 0.17846,1.08445 0.38217,1.4911 h 5.09423 c -0.32672,-0.68185 -0.44929,-1.34215 -0.53457,-1.98138 -0.0711,-0.62501 -0.10661,-1.45572 -0.10661,-2.49267 v -8.94964 c 0,-2.01712 -0.25596,-3.55812 -0.76734,-4.62349 -1.22163,-2.51429 -4.04841,-3.771311 -8.48038,-3.771311 z m 24.42605,0 c -1.63357,0 -3.07536,0.475561 -4.32541,1.427291 -0.55401,0.42615 -1.20675,0.8188 -1.9596,1.79894 v -2.6511 h -5.30596 v 21.24333 h 5.3052 v -11.847 c 0,-1.86086 0.46191,-3.23147 1.38524,-4.11218 0.8381,-0.79548 1.88233,-1.19304 3.13237,-1.19304 1.46312,0 2.54976,0.5755 3.26001,1.72613 0.38353,0.62499 0.57514,1.67608 0.57514,3.15339 v 12.2727 h 5.30595 v -13.63693 c 0,-0.93752 -0.0711,-1.78263 -0.21322,-2.53548 -0.32672,-1.7046 -1.165,-3.0684 -2.51447,-4.09115 -1.36367,-1.03697 -2.91224,-1.554931 -4.64525,-1.554931 z m -69.211022,0.30709 c -2.11655,0 -3.89229,0.949601 -5.32699,3.208191 v -2.94015 h -5.305213 v 21.24412 h 5.305213 v -10.80263 c 0,-1.76142 0.43315,-3.1752 1.29965,-4.24057 1.07958,-1.33526 2.55696,-1.82371 4.43202,-1.82371 0.2699,0 0.58945,0.006 0.95878,0.021 v -4.559661 c -0.62502,-0.0711 -1.07936,-0.10661 -1.36346,-0.10661 z m 3.821612,0.268041 v 21.24333 h 5.30597 v -21.24336 z m -27.418025,3.47324 c 1.562548,0 2.798373,0.53233 3.707492,1.59771 0.667637,0.79548 1.086395,1.88972 1.256854,3.28179 h -9.886646 c 0.17046,-1.20742 0.518788,-2.18047 1.044374,-2.91914 0.909119,-1.30686 2.201736,-1.96036 3.877926,-1.96036 z m 149.609105,0 c 1.56255,0 2.79838,0.53233 3.70749,1.59771 0.66763,0.79548 1.08713,1.88972 1.2576,3.28179 h -9.88664 c 0.17045,-1.20742 0.51803,-2.18047 1.04362,-2.91914 0.90911,-1.30686 2.20174,-1.96036 3.87793,-1.96036 z m -30.55265,4.75111 h 5.71065 c 0.8665,0 1.52681,0.022 1.98138,0.0646 1.50572,0.15625 2.61357,0.62499 3.32384,1.40626 0.69602,0.76707 1.04437,1.69699 1.04437,2.79077 0,0.76707 -0.19161,1.47734 -0.57512,2.13078 -0.41194,0.69604 -1.00864,1.20794 -1.78993,1.53466 -0.8523,0.34092 -2.20927,0.5113 -4.07013,0.5113 h -5.62506 z m -46.60493,2.24042 v 2.51144 c 0,0.72446 -0.0568,1.30677 -0.17044,1.74713 -0.17047,0.62503 -0.55439,1.16494 -1.15099,1.6195 -1.06537,0.85231 -2.41479,1.27862 -4.04836,1.27862 -1.05117,0 -1.91065,-0.21351 -2.57828,-0.63968 -0.75286,-0.46875 -1.12921,-1.12907 -1.12921,-1.98138 0,-1.06537 0.69591,-1.91728 2.088,-2.5565 1.62719,-0.77662 5.00548,-1.47631 6.98928,-1.97913 z" /></svg>
