<?xml version="1.0" encoding="utf-8"?>
<!-- Generator: Adobe Illustrator 12.0.0, SVG Export Plug-In . SVG Version: 6.00 Build 51448)  -->
<!DOCTYPE svg PUBLIC "-//W3C//DTD SVG 1.1//EN" "http://www.w3.org/Graphics/SVG/1.1/DTD/svg11.dtd" [
	<!ENTITY ns_svg "http://www.w3.org/2000/svg">
	<!ENTITY ns_xlink "http://www.w3.org/1999/xlink">
]>
<svg  version="1.1" id="Layer_1" xmlns="&ns_svg;" xmlns:xlink="&ns_xlink;" width="300" height="91.506" viewBox="0 0 300 91.506"
	 overflow="visible" enable-background="new 0 0 300 91.506" xml:space="preserve">
<g>
	<path fill="#ED1B2D" d="M97.526,56.782c0-19.18,15.554-34.74,34.725-34.74c19.181,0,34.733,15.56,34.733,34.74
		c0,19.194-15.553,34.724-34.733,34.724C113.08,91.506,97.526,75.977,97.526,56.782 M132.223,72.725
		c8.793,0,15.912-7.127,15.912-15.928c0-8.793-7.119-15.928-15.912-15.928c-8.807,0-15.913,7.135-15.913,15.928
		C116.31,65.598,123.416,72.725,132.223,72.725z"/>
	<path fill="#006BB6" d="M0,0h29.038L45.45,55.006h0.234L62.361,0h28.245v89.593H71.931v-63.36h-0.248l-17.911,63.36H36.612
		l-17.675-63.36h-0.249v63.36H0V0 M252.305,17.66h18.674V0h-18.674V17.66z M252.305,89.593h18.674V23.958h-18.674V89.593z
		 M281.327,89.593H300V0h-18.673V89.593z M174.816,89.593h18.666v-5.814c4.8,5.306,10.855,7.333,17.924,7.333
		c18.806,0,33.074-15.766,33.074-34.205c0-18.409-14.145-34.446-33.074-34.446c-6.812,0-12.734,2.136-17.924,6.568V0h-18.666V89.593
		 M193.71,56.797c0-8.793,7.111-15.928,15.912-15.928s15.921,7.135,15.921,15.928c0,8.801-7.12,15.928-15.921,15.928
		S193.71,65.598,193.71,56.797z"/>
</g>
</svg>
