<svg height="52.901615mm" viewBox="0 0 215.84055 52.901614" width="215.84055mm" xmlns="http://www.w3.org/2000/svg"><g transform="translate(2.210026 -12.19791)"><g transform="matrix(.41550733 0 0 .41550733 -1.291744 7.129589)"><path d="m131.80483 12.19791c-9.06096 0-17.60028 5.114494-20.6944 13.280167-1.23076 3.24806-1.74187 6.495303-1.48612 9.958017h9.39889c3.89087 0 6.25379 2.012279 6.25379 3.371687-9.84752 3.848797-13.78753 9.062286-13.21105 13.162646l8.7174 62.005203 30.77309-70.868659c2.06872-4.751078 2.49633-8.742326 1.0113-14.545999-1.399-5.467395-4.73564-10.823912-12.11657-14.381576-2.58233-1.172834-5.83964-1.981486-8.64633-1.981486z" fill="#6e55dc"/><path d="m79.581899 12.19791c-2.806702 0-6.064064.641852-8.64639 1.814687-7.380938 3.557669-10.884381 9.081161-12.283376 14.548563-1.485041 5.803678-.5266 10.807165 1.178023 14.712843l30.857594 70.701757 11.06406-77.049678c.55151-3.840701.10715-7.84144-1.32364-11.448098-3.220022-8.116863-11.211944-13.280074-20.846271-13.280074z" fill="#ef1541"/><path d="m25.573007 46.803307c-2.403116 1.450038-4.82405 3.755548-6.340631 6.152197-4.220441 6.669547-4.544826 14.340878-2.951556 19.264941 1.694899 5.238155 5.029395 8.90144 9.191303 11.691342l62.465474 41.862663-30.34777-69.090498c-1.560423-3.552495-4.296546-6.744927-7.462898-8.987544-7.004917-4.96134-17.033751-5.430767-24.553922-.893101z" fill="#ff7112"/><path d="m-.36178153 106.27573c-1.24418077 2.51588-1.91693677 5.80524-1.84268717 8.64045.206624 7.89002 2.916324 13.28242 8.2721473 17.50378 3.2764109 2.58242 9.1332244 4.73898 14.1437164 4.73933l72.801275.005-60.586361-40.574184c-2.074259-1.389117-6.543039-3.817465-12.427451-3.860644-4.948108-.0363-9.367525 1.622937-12.8852876 4.34042-4.5560079 3.519528-6.13386795 6.493208-7.47535193 9.205848z" fill="#fccc12"/><path d="m185.78696 46.803307c2.40311 1.450038 4.82405 3.755548 6.34063 6.152197 4.22044 6.669547 4.54482 14.340878 2.95155 19.264941-1.6949 5.238155-5.02939 8.90144-9.1913 11.691342l-62.46548 41.862663 30.34778-69.090498c1.56042-3.552495 4.29655-6.744927 7.4629-8.987544 7.00491-4.96134 17.03374-5.430767 24.55392-.893101z" fill="#069de0"/><path d="m211.78227 106.27573c1.24419 2.51588 1.91694 5.80524 1.84269 8.64045-.20663 7.89002-2.91632 13.28242-8.27215 17.50378-3.27641 2.58242-9.13323 4.73898-14.14372 4.73933l-72.96991.005 60.67068-40.574284c2.07516-1.387785 6.59336-3.860644 12.78158-3.860644 4.94826 0 9.28322 1.622937 12.80098 4.34042 4.55601 3.519528 5.94837 6.493208 7.28985 9.205848z" fill="#05ac3f"/></g><path d="m196.59112 26.341738c-10.91845 0-20.11272 8.649168-20.11272 19.188492 0 4.208273 1.16683 8.484458 4.81878 12.675772 3.28234 3.767127 8.31075 6.671673 15.29394 6.893524 8.77385 0 12.88581-3.470525 17.0394-6.963304l-5.57189-6.554745c-1.50178 1.233629-2.69263 2.385939-4.34607 3.300388-1.96297 1.085637-3.76941 1.591023-7.12144 1.591023-7.02308 0-11.58738-5.467761-11.58738-10.942658 0-5.539708 5.1511-10.6084 11.58738-10.6084 4.20699.00032 7.10086 1.643948 9.56732 4.333176l6.11602-6.028458c-4.2806-4.633986-9.43018-6.88481-15.68334-6.88481zm-100.476004.960168v36.820451h8.040184v-23.941166l17.79719 23.941166h8.56236v-36.820451h-7.99687v23.889065l-17.7911-23.889065zm41.696994 0v36.820451h21.75796c2.59337-.000415 6.06782-.711698 8.2271-2.255129 1.30475-.932618 2.37024-1.961261 3.1471-3.666673.86516-1.899259 1.18997-3.922709 1.18997-5.446208 0-3.724571-1.42974-6.244096-5.48008-8.458795.95156-.553987 1.98709-1.253932 2.81146-2.283531.87637-1.094528 1.38411-2.322078 1.38411-4.258629 0-6.878025-5.85124-10.451486-11.27966-10.451486zm7.74311 6.91359h12.19841c3.79145 0 4.79219 1.56888 4.79219 3.538156 0 1.134617-.40735 1.905335-1.21859 2.546795-.52911.418386-1.63576.844864-2.47012.844864h-.23137l-13.07052.0053zm0 13.848888h6.4035 5.52778.11568.11569c1.99292 0 3.48111.298626 4.56678 1.081531 1.03781.748395 1.57738 1.912048 1.57738 3.403794 0 1.353054-.51602 2.447193-1.48733 3.203059-1.12748.877406-2.39788 1.173484-4.53741 1.173484h-12.28207z"/></g></svg>