<?xml version="1.0" encoding="utf-8"?>
<!-- Generator: Adobe Illustrator 23.0.1, SVG Export Plug-In . SVG Version: 6.00 Build 0)  -->
<svg version="1.1" id="Layer_1" xmlns="http://www.w3.org/2000/svg" xmlns:xlink="http://www.w3.org/1999/xlink" x="0px" y="0px"
	 width="1000.001px" height="293.844px" viewBox="0 0 1000.001 293.844" enable-background="new 0 0 1000.001 293.844"
	 xml:space="preserve">
<g>
	<path fill="#FFCC00" d="M0,293.844V0h205.045v293.844H0z M175.374,264.243V29.599H29.526v234.644H175.374z"/>
	<g>
		<path d="M341.288,131.799h-12.686c-16.626-23.508-33.183-46.872-49.666-73.317l0,0v73.317h-14.332V29.527h12.684
			c16.628,23.364,33.183,46.585,49.523,72.888l0,0V29.527h14.334v102.272H341.288z"/>
		<path d="M374.543,91.378c4.085-13.402,8.17-25.873,11.825-41.639l0,0c4.085,15.767,7.741,28.237,11.539,41.639H374.543z
			 M381.279,29.599l-35.405,102.2h15.195l8.886-27.879h30.818l8.026,27.879h19.566L396.042,29.527H381.71L381.279,29.599z"/>
		<path d="M444.993,131.799V43.288h-26.877V29.599h71.097v13.689h-26.875v88.511h-17.559H444.993z"/>
		<path d="M495.162,131.799V29.527h17.415v102.272H495.162L495.162,131.799z"/>
		<path d="M566.544,118.755c-18.275,0-24.726-20.139-24.726-39.705s7.167-36.838,24.726-36.838c17.56,0,24.655,17.99,24.655,36.838
			C591.199,97.9,584.82,118.755,566.544,118.755z M566.544,133.089c26.732,0,43.359-23.793,43.359-54.325
			c0-28.667-18.419-51.458-43.359-51.458s-43.36,22.791-43.36,51.458c0,30.96,16.629,54.827,43.36,54.827V133.089z"/>
		<path d="M697.054,131.799h-12.686c-16.626-23.508-33.183-46.872-49.666-73.317l0,0v73.317h-14.333V29.527h12.685
			c16.627,23.364,33.183,46.585,49.522,72.888l0,0V29.527h14.334v102.272H697.054z"/>
		<path d="M730.523,91.378c4.086-13.402,8.171-25.873,11.825-41.639l0,0c4.085,15.767,7.739,28.237,11.54,41.639h-23.652H730.523z
			 M737.26,29.599l-35.333,102.272h15.194l8.887-27.88h30.818l8.026,27.88h19.566l-32.61-102.272h-14.334H737.26z"/>
		<path d="M789.506,29.527h17.417v88.511h34.616v13.761h-52.033V29.527z"/>
	</g>
	<g>
		<path d="M330.465,217.373v42.212c-9.222,3.894-19.089,6.032-29.096,6.307c-30.102,0-49.096-23.364-49.096-53.464
			c0-27.881,18.994-52.318,49.668-52.318c8.875,0.049,17.523,2.799,24.798,7.883l-5.662,12.112
			c-5.663-3.386-12.109-5.237-18.704-5.374c-18.707,0-31.393,14.764-31.393,37.984s14.333,38.558,29.672,38.558
			c4.229,0.183,8.438-0.68,12.254-2.509v-31.391L330.465,217.373L330.465,217.373z"/>
		<path d="M393.177,175.588h-29.241v28.024h28.667v13.761h-28.667v33.039h34.473v13.76h-52.031V161.758h46.729v13.76
			L393.177,175.588z"/>
		<path d="M447.215,251.272c-18.275,0-24.654-20.14-24.654-39.704c0-19.566,7.167-36.839,24.654-36.839
			c17.488,0,24.727,17.989,24.727,36.839C471.941,230.416,465.491,251.272,447.215,251.272z M447.215,265.606
			c26.732,0,43.36-23.795,43.36-54.325c0-28.667-18.419-51.458-43.36-51.458c-24.939,0-43.358,22.791-43.358,51.458
			c0,30.817,16.626,54.611,43.358,54.611L447.215,265.606L447.215,265.606z"/>
		<path d="M574.786,217.373v42.212c-9.222,3.894-19.091,6.032-29.098,6.307c-30.101,0-49.094-23.364-49.094-53.464
			c0-27.881,18.993-52.318,49.668-52.318c8.874,0.049,17.522,2.799,24.797,7.883l-5.661,12.112
			c-5.664-3.386-12.111-5.237-18.707-5.374c-18.705,0-31.391,14.764-31.391,37.984s14.334,38.558,29.671,38.558
			c4.229,0.183,8.438-0.68,12.256-2.509v-31.391L574.786,217.373L574.786,217.373z"/>
		<path d="M608.398,175.588h7.741c8.153-0.807,15.417,5.148,16.225,13.303c0.105,1.059,0.096,2.126-0.027,3.182
			c1.29,9.852-5.652,18.883-15.503,20.172c-0.373,0.048-0.748,0.086-1.125,0.111l-7.167,0.43v-37.269L608.398,175.588z
			 M652.834,264.102l-20.283-42.357c11.024-6.12,17.817-17.779,17.703-30.388c0-19.853-12.113-29.527-31.678-29.527H591.27v102.272
			h17.559v-38.56h7.884l16.482,38.56h19.998H652.834z"/>
		<path d="M681.717,223.68c4.085-13.402,8.17-25.873,11.826-41.641l0,0c4.085,15.768,7.739,28.166,11.537,41.641h-23.649H681.717z
			 M688.453,161.758l-35.332,102.271h15.266l8.887-27.881h30.816l8.027,27.881h19.566l-32.609-102.271h-14.333H688.453z"/>
		<path d="M768.723,161.758h-27.306v102.271h17.559v-38.487h7.885c18.444,0.124,33.497-14.728,33.62-33.173
			c0.004-0.338,0-0.676-0.008-1.013C800.186,171.503,788.073,161.758,768.723,161.758z M766.214,212.283l-7.167,0.43v-37.195h7.884
			c8.161-0.727,15.367,5.299,16.095,13.459c0.09,1.008,0.075,2.021-0.041,3.024c1.32,9.888-5.625,18.972-15.513,20.291
			c-0.488,0.065-0.979,0.11-1.472,0.136L766.214,212.283z"/>
		<path d="M881.458,264.102h-17.559v-49.237h-36.408v49.237h-17.415V161.758h17.415v39.273h36.408v-38.988h17.559v101.986V264.102z"
			/>
		<path d="M898.23,264.102V161.758h17.415v102.271H898.23V264.102z"/>
		<path d="M994.481,180.392c-5.403-3.417-11.604-5.368-17.989-5.661c-17.847,0-30.818,14.762-30.818,37.982
			s14.335,38.559,31.249,38.559c6.214-0.016,12.299-1.778,17.559-5.088l4.802,12.686c-6.887,4.468-14.871,6.947-23.077,7.166
			c-30.102,0-49.093-23.364-49.093-53.466c0-27.878,18.848-52.317,49.379-52.317c8.439,0.262,16.615,3.004,23.508,7.884
			L994.481,180.392z"/>
	</g>
</g>
</svg>
