<?xml version="1.0" encoding="UTF-8" standalone="no"?>
<svg
   xmlns:dc="http://purl.org/dc/elements/1.1/"
   xmlns:cc="http://creativecommons.org/ns#"
   xmlns:rdf="http://www.w3.org/1999/02/22-rdf-syntax-ns#"
   xmlns:svg="http://www.w3.org/2000/svg"
   xmlns="http://www.w3.org/2000/svg"
   xmlns:xlink="http://www.w3.org/1999/xlink"
   xmlns:sodipodi="http://sodipodi.sourceforge.net/DTD/sodipodi-0.dtd"
   xmlns:inkscape="http://www.inkscape.org/namespaces/inkscape"
   id="svg8159"
   version="1.1"
   viewBox="0 0 192.13811 245.26547"
   height="245.26547mm"
   width="192.13811mm"
   inkscape:version="0.91 r13725"
   sodipodi:docname="PBS_logo_1984_3D 2.svg">
  <sodipodi:namedview
     pagecolor="#ffffff"
     bordercolor="#666666"
     borderopacity="1"
     objecttolerance="10"
     gridtolerance="10"
     guidetolerance="10"
     inkscape:pageopacity="0"
     inkscape:pageshadow="2"
     inkscape:window-width="1366"
     inkscape:window-height="705"
     id="namedview6700"
     showgrid="false"
     fit-margin-top="0"
     fit-margin-left="0"
     fit-margin-right="0"
     fit-margin-bottom="0"
     inkscape:zoom="0.27376559"
     inkscape:cx="219.76203"
     inkscape:cy="516.1425"
     inkscape:window-x="-8"
     inkscape:window-y="-8"
     inkscape:window-maximized="1"
     inkscape:current-layer="svg8159" />
  <defs
     id="defs8153">
    <linearGradient
       id="linearGradient8271">
      <stop
         id="stop8267"
         offset="0"
         style="stop-color:#79787d;stop-opacity:1" />
      <stop
         style="stop-color:#e6e6e6;stop-opacity:1"
         offset="0.5"
         id="stop8275" />
      <stop
         id="stop8269"
         offset="1"
         style="stop-color:#6b6d6a;stop-opacity:1" />
    </linearGradient>
    <linearGradient
       id="linearGradient8251">
      <stop
         id="stop8247"
         offset="0"
         style="stop-color:#1c3973;stop-opacity:1" />
      <stop
         style="stop-color:#1b6bab;stop-opacity:1"
         offset="0.37087527"
         id="stop8255" />
      <stop
         id="stop8257"
         offset="0.54158634"
         style="stop-color:#5d93bc;stop-opacity:1" />
      <stop
         id="stop8249"
         offset="1"
         style="stop-color:#1070a3;stop-opacity:1" />
    </linearGradient>
    <style
       type="text/css"
       id="style3189">
   
    .fil1 {fill:black}
    .fil0 {fill:#2049A3}
    .fil2 {fill:white}
   
  </style>
    <style
       type="text/css"
       id="style3189-1">
   
    .fil1 {fill:black}
    .fil0 {fill:#2049A3}
    .fil2 {fill:white}
   
  </style>
    <linearGradient
       gradientUnits="userSpaceOnUse"
       y2="304.68625"
       x2="1678.0383"
       y1="7.8886151"
       x1="1485.5012"
       id="linearGradient8253"
       xlink:href="#linearGradient8251"
       gradientTransform="matrix(0.26458333,0,0,0.26458333,-324.00867,23.06817)" />
    <linearGradient
       gradientUnits="userSpaceOnUse"
       y2="813.88708"
       x2="1640.6044"
       y1="556.88892"
       x1="1567.7164"
       id="linearGradient8273"
       xlink:href="#linearGradient8271"
       gradientTransform="matrix(0.26458333,0,0,0.26458333,-324.00867,23.06817)" />
  </defs>
  <metadata
     id="metadata8156">
    <rdf:RDF>
      <cc:Work
         rdf:about="">
        <dc:format>image/svg+xml</dc:format>
        <dc:type
           rdf:resource="http://purl.org/dc/dcmitype/StillImage" />
        <dc:title></dc:title>
      </cc:Work>
    </rdf:RDF>
  </metadata>
  <path
     style="clip-rule:evenodd;fill:#a5a5a5;fill-opacity:1;fill-rule:evenodd;stroke-width:0.64429212;image-rendering:optimizeQuality;shape-rendering:geometricPrecision;text-rendering:geometricPrecision"
     d="M 61.043231,0 C 28.206562,1.52e-4 0,28.858543 0,61.832021 0,89.68011 20.874681,113.08518 46.565561,119.74822 l 0,41.89401 58.029739,0 0,-41.89401 c 15.82288,0.51255 22.97263,-8.36948 22.63234,-16.91182 l 0,-22.549689 15.3056,0 L 106.84095,0 61.043231,0 Z m 67.543709,0 35.57433,80.286711 -14.95061,0 0,22.549689 c 0,4.61285 -1.74336,17.93691 -22.15996,16.91182 l 0,41.71596 25.52844,0 0,-41.71596 c 15.82285,0.51255 22.44859,-8.02779 22.27847,-16.91182 l 0,-22.549689 15.30504,0 L 154.46981,0 128.58694,0 Z M 96.085641,40.825759 c 7.893019,0 14.300719,6.351194 14.300719,14.182772 0,7.831565 -6.4077,14.182214 -14.300719,14.182214 -7.89305,0 -14.300731,-6.350649 -14.300731,-14.182214 0,-7.831578 6.407681,-14.182772 14.300731,-14.182772 z M 148.84576,173.07223 c -11.05897,0 -19.73627,7.3458 -19.73627,18.6217 0,9.90913 5.44435,15.88926 14.46169,18.62281 3.40275,1.02508 5.1043,1.53752 8.1668,2.56261 6.8055,2.05016 9.35743,5.80887 9.35743,9.90919 0,4.78372 -3.4028,9.2257 -10.03818,9.2257 -6.97566,0 -11.39895,-5.29599 -11.73923,-11.10479 l -10.37883,0 0,21.18486 9.8684,0 0,-4.10049 c 1.8715,1.70848 5.95421,5.29607 13.95071,5.29607 13.78119,0 21.77797,-10.07979 21.77797,-21.18485 0,-8.7132 -4.93395,-15.88826 -14.97211,-19.13435 -2.89234,-0.85424 -5.61442,-1.709 -9.86786,-3.07578 -4.934,-1.53762 -8.33713,-4.27098 -8.33713,-8.37131 0,-5.12541 4.59391,-7.51747 8.67723,-7.51747 7.14581,0 10.20797,5.1254 10.71838,9.39657 l 10.03818,0 0,-19.13489 -9.5272,0 0,3.24611 c -1.8715,-1.87932 -5.61444,-4.44169 -12.41998,-4.44169 z m -124.201477,1.53733 0,10.59271 8.337131,0 0,46.12846 -8.506905,0 0,10.5927 30.624971,0 0,-10.5927 -9.868408,0 0,-16.05966 7.656381,0 c 14.461752,0 23.479565,-7.6878 23.479565,-20.33048 0,-12.47184 -8.677902,-20.33103 -23.820219,-20.33103 l -27.902516,0 z m 51.041984,0 0,10.59271 7.996478,0 0,46.29934 -8.506905,0 0,10.5927 29.60356,0 c 10.88884,0 22.28839,-5.97993 22.28839,-20.67278 0,-6.15049 -3.91322,-12.98384 -10.54861,-15.88824 4.76388,-2.22101 7.99649,-7.34656 7.99649,-13.49705 0,-7.34644 -5.27418,-17.42668 -21.94774,-17.42668 l -26.881663,0 z m -30.284871,10.59271 8.166805,0 c 6.805535,0 10.718933,4.10036 10.718933,9.73832 0,5.29625 -3.743272,9.73832 -10.718933,9.73832 l -8.166805,0 0,-19.47664 z m 50.190357,0 7.316827,0 c 5.44444,0 9.18655,3.24587 9.18655,8.20043 0,4.95457 -3.74211,8.20098 -9.18655,8.20098 l -7.316827,0 0,-16.40141 z m 0,26.99412 7.826697,0 c 7.31594,0 10.71893,4.44204 10.71893,9.56745 0,5.97965 -4.25368,9.73777 -10.71893,9.73777 -0.51044,0 -7.826697,-0.17088 -7.826697,-0.17088 l 0,-19.13434 z"
     id="path7271"
     inkscape:connector-curvature="0" />
  <path
     style="clip-rule:evenodd;fill:url(#linearGradient8253);fill-opacity:1;fill-rule:evenodd;stroke-width:0.64429212;image-rendering:optimizeQuality;shape-rendering:geometricPrecision;text-rendering:geometricPrecision"
     d="M 63.018845,1.9754014 C 30.182175,1.9755534 1.9755555,30.834322 1.9755555,63.807801 c 0,27.848086 20.8747515,51.252819 46.5656335,57.915849 l 0,41.89408 58.029531,0 0,-41.89408 c 15.82288,0.51255 22.97301,-8.36927 22.63272,-16.91163 l 0,-22.549533 15.30554,0 -35.6924,-80.2870856 z m 67.543715,0 35.57455,80.2870856 -14.95102,0 0,22.549533 c 0,4.61287 -1.74329,17.93672 -22.15989,16.91163 l 0,41.7158 25.52867,0 0,-41.7158 c 15.82285,0.51255 22.44836,-8.02757 22.27823,-16.91163 l 0,-22.549533 15.30501,0 -35.6924,-80.2870856 z M 98.061164,42.801332 c 7.893026,0 14.300946,6.351027 14.300946,14.182598 0,7.831571 -6.40792,14.182079 -14.300946,14.182079 -7.89305,0 -14.300415,-6.350508 -14.300415,-14.182079 0,-7.831571 6.407365,-14.182598 14.300415,-14.182598 z"
     id="path3126"
     inkscape:connector-curvature="0" />
  <path
     style="clip-rule:evenodd;fill:url(#linearGradient8273);fill-opacity:1;fill-rule:evenodd;stroke-width:0.64438027;image-rendering:optimizeQuality;shape-rendering:geometricPrecision;text-rendering:geometricPrecision"
     d="m 150.82125,175.04753 c -11.05897,0 -19.73625,7.34621 -19.73625,18.62211 0,9.90913 5.44431,15.88909 14.46165,18.62264 3.40275,1.02508 5.10445,1.53754 8.16695,2.56263 6.8055,2.05016 9.35754,5.80863 9.35754,9.90896 0,4.78371 -3.40275,9.22579 -10.03813,9.22579 -6.97566,0 -11.39907,-5.29595 -11.73935,-11.10475 l -10.37868,0 0,21.18476 9.86814,0 0,-4.10053 c 1.8715,1.70848 5.95458,5.29632 13.95108,5.29632 13.78119,0 21.77799,-10.07969 21.77799,-21.18475 0,-8.7132 -4.93406,-15.88866 -14.97222,-19.13475 -2.89234,-0.85424 -5.61467,-1.70849 -9.86811,-3.07527 -4.934,-1.53762 -8.33697,-4.27125 -8.33697,-8.37158 0,-5.12541 4.59367,-7.51737 8.67699,-7.51737 7.14581,0 10.20831,5.12516 10.71872,9.39633 l 10.03816,0 0,-19.13475 -9.5276,0 0,3.24631 c -1.8715,-1.87932 -5.61437,-4.4421 -12.41991,-4.4421 z m -124.201213,1.53737 0,10.59263 8.336968,0 0,46.12897 -8.506963,0 0,10.59264 30.624991,0 0,-10.59264 -9.868138,0 0,-16.06 7.65638,0 c 14.461755,0 23.479205,-7.68786 23.479205,-20.33054 0,-12.47184 -8.677434,-20.33106 -23.81975,-20.33106 z m 51.041855,0 0,10.59263 7.996422,0 0,46.2995 -8.506989,0 0,10.59264 29.603895,0 c 10.88884,0 22.28805,-5.97979 22.28805,-20.67264 0,-6.15049 -3.91282,-12.98404 -10.5482,-15.88844 4.76388,-2.22101 7.9964,-7.34636 7.9964,-13.49685 0,-7.34643 -5.27445,-17.42684 -21.94801,-17.42684 z m -30.284975,10.59263 8.166946,0 c 6.805533,0 10.718721,4.10047 10.718721,9.73843 0,5.29625 -3.743061,9.73842 -10.718721,9.73842 l -8.166946,0 z m 50.190747,0 7.316336,0 c 5.44444,0 9.18705,3.24598 9.18705,8.20054 0,4.95457 -3.74261,8.20105 -9.18705,8.20105 l -7.316336,0 z m 0,26.99422 7.826406,0 c 7.31594,0 10.71872,4.44197 10.71872,9.56738 0,5.97965 -4.25347,9.7379 -10.71872,9.7379 -0.51044,0 -7.826406,-0.17053 -7.826406,-0.17053 z"
     id="_52424000-2-3"
     inkscape:connector-curvature="0" />
</svg>
