
<svg viewBox="0 0 2953 1082" xmlns="http://www.w3.org/2000/svg">
<path d="m1710 0v150h-220v100h220v140h-220v140h220v150h-380v-680zm200 680h-200l190-220-190-210h200l100 100 90-100h200l-200 210 200 220h-210l-90-110z" fill="#f60"/>
<path d="m2836 849 1 25c12-20 30-29 55-29 46 0 61 24 61 67v107h-21v-99c0-31-7-58-43-58-38 0-51 34-51 67v90h-21v-120c0-16 0-34-1-50zm-139 174c-51 0-79-40-79-89s28-89 79-89c52 0 80 40 80 89s-28 89-80 89zm0-15c41 0 58-37 58-74s-17-74-58-74c-40 0-57 37-57 74s17 74 57 74zm-143-207v-25h25v25zm2 218v-170h21v170zm-52 4c-24 0-36-14-36-39v-119h-27v-16h27v-35l21-9v44h38v16h-38v110c0 24 4 31 21 31 7 0 15-2 18-4v17c-7 2-13 4-24 4zm-104-4c-1-8-2-14-2-23-13 20-30 27-57 27-31 0-59-16-59-50 0-49 52-57 94-57 8 0 14 1 19 1v-13c0-29-11-44-41-44-22 0-38 9-40 33h-21c1-37 32-48 61-48 42 0 62 11 62 53v58c0 26 1 42 4 63zm-5-87h-16c-28 0-75 1-75 40 0 24 19 36 41 36 34 0 50-20 50-60zm-129-68c-34 0-45 29-45 59v96h-21v-120c0-17 0-34-1-50h20l2 24c10-19 27-28 49-28h10v21c-5-1-9-2-14-2zm-186 159c-51 0-79-40-79-89s28-89 79-89c52 0 80 40 80 89s-28 89-80 89zm0-15c41 0 58-37 58-74s-17-74-58-74c-40 0-57 37-57 74s17 74 57 74zm-235 74h-20v-183c0-17 0-34-1-51h20l1 26c13-20 29-30 55-30 52 0 74 44 74 89 0 46-22 89-74 89-24 0-42-9-55-28zm108-149c0-36-15-72-56-72-38 0-52 32-52 72 0 41 14 72 52 72 41 0 56-35 56-72zm-164-69c-33 0-45 29-45 59v96h-21v-120c0-17 0-34-1-50h20l2 24c10-19 27-28 49-28h10v21c-5-1-9-2-14-2zm-187 159c-51 0-79-40-79-89s28-89 79-89c52 0 80 40 80 89s-28 89-80 89zm0-15c41 0 58-37 58-74s-17-74-58-74c-40 0-57 37-57 74s17 74 57 74zm-181-4c25 0 52-14 57-40h24c-9 37-41 58-81 58-74 0-104-57-104-125 0-69 30-126 104-126 40 0 72 21 81 58h-24c-5-25-32-40-57-40-60 0-81 56-81 108s21 107 81 107zm-247-1004v278h-1c-35-40-79-54-131-54-104 0-183 71-210 165-32-104-113-167-234-167-98 0-175 43-215 115v-89h-203v-97h221v-151h-401v679h180v-285h180c-5 21-8 43-8 67 0 141 108 241 246 241 116 0 193-55 233-154h-154c-21 30-37 39-79 39-48 0-90-43-90-93h315c13 113 101 210 221 210 52 0 100-26 129-69h1v44h159v-679zm-661 396c10-43 43-72 85-72 46 0 78 28 86 72zm565 180c-59 0-95-55-95-112 0-61 32-119 95-119 66 0 92 58 92 119 0 58-28 112-92 112z" fill="#652c8f"/>
</svg>
