<?xml version="1.0" encoding="UTF-8" standalone="no"?>
<!-- Created with Inkscape (http://www.inkscape.org/) -->

<svg
   width="89.651062mm"
   height="89.655434mm"
   viewBox="0 0 89.651062 89.655434"
   version="1.1"
   id="svg1"
   inkscape:version="1.4.2 (ebf0e940d0, 2025-05-08)"
   sodipodi:docname="Logo of Enron Corporation.svg"
   xmlns:inkscape="http://www.inkscape.org/namespaces/inkscape"
   xmlns:sodipodi="http://sodipodi.sourceforge.net/DTD/sodipodi-0.dtd"
   xmlns="http://www.w3.org/2000/svg"
   xmlns:svg="http://www.w3.org/2000/svg">
  <sodipodi:namedview
     id="namedview1"
     pagecolor="#ffffff"
     bordercolor="#000000"
     borderopacity="0.25"
     inkscape:showpageshadow="2"
     inkscape:pageopacity="0.0"
     inkscape:pagecheckerboard="0"
     inkscape:deskcolor="#d1d1d1"
     inkscape:document-units="mm"
     inkscape:zoom="0.71268238"
     inkscape:cx="230.81811"
     inkscape:cy="105.23622"
     inkscape:window-width="1920"
     inkscape:window-height="1011"
     inkscape:window-x="0"
     inkscape:window-y="0"
     inkscape:window-maximized="1"
     inkscape:current-layer="layer1" />
  <defs
     id="defs1" />
  <g
     inkscape:label="Layer 1"
     inkscape:groupmode="layer"
     id="layer1"
     transform="translate(-43.98833,-120.65)">
    <path
       fill-rule="nonzero"
       fill="#007bc2"
       fill-opacity="1"
       d="m 43.98833,165.47551 11.506416,-11.50641 6.389762,6.38976 -2.18172,2.18175 -3.974789,-3.97962 -2.118566,2.12344 3.872708,3.8776 -2.181755,2.17689 -3.872708,-3.87274 -2.842586,2.84745 3.969888,3.97476 -2.176888,2.17692 -6.389762,-6.3898"
       id="path130"
       style="stroke-width:1.24394" />
    <path
       fill-rule="nonzero"
       fill="#007bc2"
       fill-opacity="1"
       d="m 64.231497,162.70581 2.847451,2.84745 -4.169149,8.6687 0.02116,0.0247 6.418923,-6.41888 2.395543,2.39067 -11.506416,11.50642 -2.725976,-2.72594 4.096264,-8.8388 -6.467513,6.46751 -2.415008,-2.41497 11.506451,-11.50645"
       id="path131"
       style="stroke-width:1.24394" />
    <path
       fill-rule="nonzero"
       fill="#007bc2"
       fill-opacity="1"
       d="m 92.812927,191.28724 2.847451,2.84749 -4.169149,8.67353 0.01411,0.0141 6.418922,-6.42379 2.400419,2.40045 -11.50646,11.50641 -2.725977,-2.72597 4.096264,-8.83877 -6.467513,6.46752 -2.415007,-2.41501 11.506451,-11.50642"
       id="path132"
       style="stroke-width:1.24394" />
    <path
       fill-rule="nonzero"
       fill="#007bc2"
       fill-opacity="1"
       d="m 62.715439,184.20262 11.506416,-11.50641 2.410142,2.41014 c 2.682253,2.68221 4.29549,4.83967 1.754141,7.38102 -1.511191,1.51119 -2.862014,2.1283 -4.640451,0.85519 l -0.03526,0.0353 c 1.321662,1.38971 1.010693,2.449 -0.719188,4.17401 L 71.207971,189.34 c -0.476238,0.47621 -1.103042,1.26825 -1.258544,2.09918 l -2.405276,-2.40528 c 0.155502,-0.83093 0.796904,-1.60841 1.273108,-2.08457 l 1.992225,-1.99713 c 0.85036,-0.84546 0.209099,-2.33236 -0.296547,-2.84259 l -0.461605,-0.45673 -4.941759,4.94658 z m 9.067149,-4.28089 c 1.273072,1.27311 2.453865,1.60354 3.5909,0.47134 1.117605,-1.11761 0.801735,-2.2838 -0.4859,-3.57631 l -3.105,3.10497"
       id="path133"
       style="stroke-width:1.24394" />
    <path
       fill-rule="nonzero"
       fill="#007bc2"
       fill-opacity="1"
       d="m 82.254016,197.06476 c -2.764835,2.76487 -5.306184,1.74928 -6.963145,0.0924 -1.652096,-1.65213 -2.667655,-4.19345 0.09732,-6.96315 l 4.878605,-4.87857 c 2.759969,-2.76 5.306149,-1.74444 6.958279,-0.0924 1.652096,1.65213 2.672521,4.19831 -0.09238,6.96314 z m -5.102092,-3.81442 c -0.490766,0.49563 -0.519927,1.37999 0.07299,1.97283 0.592847,0.59765 1.482066,0.56852 1.972832,0.0779 l 6.16624,-6.17111 c 0.495633,-0.4908 0.519928,-1.38002 -0.07299,-1.97283 -0.592813,-0.59281 -1.482031,-0.56365 -1.972797,-0.073 l -6.166241,6.16624"
       id="path134"
       style="stroke-width:1.24394" />
    <path
       fill-rule="nonzero"
       fill="#007bc2"
       fill-opacity="1"
       d="m 133.63939,165.48038 -11.72511,-11.72507 v -0.004 l -23.6494,23.65427 2.40041,2.40041 21.24899,-21.24899 6.92426,6.92425 -30.913825,30.91869 2.400445,2.4004 33.31423,-33.31909"
       id="path135"
       style="stroke-width:1.24394" />
    <path
       fill-rule="nonzero"
       fill="#009655"
       fill-opacity="1"
       d="m 100.66529,179.80512 -7.225559,-7.22552 23.649439,-23.64944 -11.73967,-11.73967 -23.644573,23.64457 2.40041,2.40041 21.244163,-21.24413 6.93881,6.93882 -23.649399,23.64944 v 0.004 l 9.625969,9.62107 2.40041,-2.40041"
       id="path136"
       style="stroke-width:1.24394" />
    <path
       fill-rule="nonzero"
       fill="#df0032"
       fill-opacity="1"
       d="m 84.100506,163.24034 -7.220693,-7.2207 23.649407,-23.6494 -11.720244,-11.72024 -33.31423,33.3191 2.40041,2.40041 30.91382,-30.91869 6.919421,6.91942 -23.649403,23.6494 9.621067,9.62111 2.400445,-2.40041"
       id="path137"
       style="stroke-width:1.24394" />
  </g>
</svg>
