<?xml version="1.0" encoding="UTF-8" ?>
<!DOCTYPE svg PUBLIC "-//W3C//DTD SVG 1.1//EN" "http://www.w3.org/Graphics/SVG/1.1/DTD/svg11.dtd">
<svg width="443pt" height="126pt" viewBox="0 0 2007 573" version="1.1" xmlns="http://www.w3.org/2000/svg">
<g id="#ffffffff">
<path fill="#ffffff" opacity="1.00" d=" M 261.54 28.84 C 304.84 24.69 349.19 31.48 389.12 48.79 C 436.80 69.27 477.91 104.50 505.72 148.29 C 523.85 176.77 536.33 208.83 542.15 242.09 C 550.30 288.19 545.85 336.50 529.07 380.23 C 506.53 439.63 461.30 489.99 404.71 518.85 C 365.50 539.04 321.06 548.80 277.00 547.15 C 235.26 545.74 193.92 534.01 157.69 513.23 C 124.00 494.04 94.81 467.12 72.76 435.25 C 50.92 403.95 36.29 367.67 30.10 330.01 C 22.66 284.75 27.24 237.52 43.71 194.68 C 57.92 157.30 81.08 123.46 110.44 96.35 C 151.67 58.18 205.57 33.96 261.54 28.84 M 265.64 48.84 C 219.54 52.85 174.76 70.71 138.53 99.48 C 98.93 130.59 69.49 174.48 56.02 223.03 C 38.62 283.94 46.79 351.66 78.36 406.59 C 103.31 450.71 142.62 486.55 188.91 507.21 C 225.74 523.87 266.85 530.78 307.12 527.40 C 349.20 523.99 390.26 509.10 424.77 484.79 C 453.03 465.02 476.94 439.07 494.34 409.29 C 515.66 373.04 527.12 331.08 527.19 289.03 C 527.43 250.52 518.18 212.00 500.42 177.83 C 474.12 126.64 428.76 85.54 375.13 64.60 C 340.55 50.82 302.70 45.53 265.64 48.84 Z" />
<path fill="#ffffff" opacity="1.00" d=" M 132.64 163.57 C 140.44 154.88 152.30 150.06 163.96 150.89 C 180.29 151.65 195.17 163.90 199.20 179.71 C 203.39 194.47 197.67 211.10 185.69 220.55 C 198.83 247.84 211.91 275.16 225.06 302.44 C 238.07 275.49 251.14 248.57 264.06 221.58 C 256.76 216.34 251.24 208.61 248.96 199.89 C 246.33 190.38 247.56 179.87 252.27 171.20 C 257.18 162.04 265.91 155.00 275.93 152.20 C 286.42 149.19 298.16 150.82 307.39 156.68 C 318.10 163.32 325.16 175.40 325.63 188.00 C 326.35 201.08 319.81 214.10 309.15 221.64 C 322.17 248.60 335.28 275.52 348.37 302.45 C 361.29 275.24 374.23 248.05 387.14 220.84 C 381.16 215.95 376.45 209.44 374.14 202.05 C 370.71 191.48 372.03 179.47 377.82 169.98 C 383.75 160.03 394.31 152.98 405.81 151.46 C 415.79 150.02 426.30 152.63 434.40 158.66 C 442.87 164.84 448.65 174.57 449.96 184.98 C 451.42 195.67 448.18 206.87 441.22 215.11 C 433.25 224.82 420.42 230.10 407.92 229.03 C 387.78 269.30 367.67 309.60 347.54 349.89 C 327.15 309.49 306.85 269.04 286.44 228.65 C 265.78 269.05 245.17 309.48 224.52 349.89 C 204.48 309.54 184.54 269.15 164.47 228.82 C 155.81 229.41 146.96 227.18 139.77 222.28 C 130.86 216.36 124.57 206.62 122.96 196.03 C 121.05 184.49 124.69 172.18 132.64 163.57 Z" />
<path fill="#ffffff" opacity="1.00" d=" M 206.24 369.26 C 258.81 369.11 311.38 369.24 363.95 369.20 C 371.24 368.96 378.66 371.02 384.47 375.50 C 392.56 381.48 397.26 391.86 395.87 401.89 C 394.16 416.44 380.77 428.59 366.07 428.58 C 313.03 428.61 260.00 428.62 206.97 428.57 C 190.18 428.71 175.10 412.96 176.75 396.08 C 177.70 381.22 191.63 369.40 206.24 369.26 Z" />
</g>
<g id="#083069ff">
<path fill="#083069" opacity="1.00" d=" M 264.55 5.83 C 305.65 2.69 347.45 8.48 386.02 23.10 C 433.23 40.84 475.40 71.63 506.87 111.02 C 528.04 137.44 544.43 167.69 554.90 199.89 C 569.40 244.27 572.53 292.25 564.21 338.17 C 553.01 401.02 519.45 459.49 471.10 501.14 C 431.91 535.19 383.15 558.12 331.86 566.33 C 326.85 567.05 321.84 568.07 316.76 568.02 C 295.48 567.94 274.21 568.08 252.93 567.95 C 206.84 562.73 162.23 545.51 124.30 518.84 C 87.55 493.06 57.05 458.42 36.22 418.65 C 16.83 381.82 5.86 340.62 4.24 299.03 C 2.26 251.73 12.34 203.96 33.52 161.61 C 59.10 110.09 100.84 66.79 151.37 39.32 C 186.15 20.30 225.01 8.82 264.55 5.83 M 261.54 28.84 C 205.57 33.96 151.67 58.18 110.44 96.35 C 81.08 123.46 57.92 157.30 43.71 194.68 C 27.24 237.52 22.66 284.75 30.10 330.01 C 36.29 367.67 50.92 403.95 72.76 435.25 C 94.81 467.12 124.00 494.04 157.69 513.23 C 193.92 534.01 235.26 545.74 277.00 547.15 C 321.06 548.80 365.50 539.04 404.71 518.85 C 461.30 489.99 506.53 439.63 529.07 380.23 C 545.85 336.50 550.30 288.19 542.15 242.09 C 536.33 208.83 523.85 176.77 505.72 148.29 C 477.91 104.50 436.80 69.27 389.12 48.79 C 349.19 31.48 304.84 24.69 261.54 28.84 Z" />
<path fill="#083069" opacity="1.00" d=" M 265.64 48.84 C 302.70 45.53 340.55 50.82 375.13 64.60 C 428.76 85.54 474.12 126.64 500.42 177.83 C 518.18 212.00 527.43 250.52 527.19 289.03 C 527.12 331.08 515.66 373.04 494.34 409.29 C 476.94 439.07 453.03 465.02 424.77 484.79 C 390.26 509.10 349.20 523.99 307.12 527.40 C 266.85 530.78 225.74 523.87 188.91 507.21 C 142.62 486.55 103.31 450.71 78.36 406.59 C 46.79 351.66 38.62 283.94 56.02 223.03 C 69.49 174.48 98.93 130.59 138.53 99.48 C 174.76 70.71 219.54 52.85 265.64 48.84 M 132.64 163.57 C 124.69 172.18 121.05 184.49 122.96 196.03 C 124.57 206.62 130.86 216.36 139.77 222.28 C 146.96 227.18 155.81 229.41 164.47 228.82 C 184.54 269.15 204.48 309.54 224.52 349.89 C 245.17 309.48 265.78 269.05 286.44 228.65 C 306.85 269.04 327.15 309.49 347.54 349.89 C 367.67 309.60 387.78 269.30 407.92 229.03 C 420.42 230.10 433.25 224.82 441.22 215.11 C 448.18 206.87 451.42 195.67 449.96 184.98 C 448.65 174.57 442.87 164.84 434.40 158.66 C 426.30 152.63 415.79 150.02 405.81 151.46 C 394.31 152.98 383.75 160.03 377.82 169.98 C 372.03 179.47 370.71 191.48 374.14 202.05 C 376.45 209.44 381.16 215.95 387.14 220.84 C 374.23 248.05 361.29 275.24 348.37 302.45 C 335.28 275.52 322.17 248.60 309.15 221.64 C 319.81 214.10 326.35 201.08 325.63 188.00 C 325.16 175.40 318.10 163.32 307.39 156.68 C 298.16 150.82 286.42 149.19 275.93 152.20 C 265.91 155.00 257.18 162.04 252.27 171.20 C 247.56 179.87 246.33 190.38 248.96 199.89 C 251.24 208.61 256.76 216.34 264.06 221.58 C 251.14 248.57 238.07 275.49 225.06 302.44 C 211.91 275.16 198.83 247.84 185.69 220.55 C 197.67 211.10 203.39 194.47 199.20 179.71 C 195.17 163.90 180.29 151.65 163.96 150.89 C 152.30 150.06 140.44 154.88 132.64 163.57 M 206.24 369.26 C 191.63 369.40 177.70 381.22 176.75 396.08 C 175.10 412.96 190.18 428.71 206.97 428.57 C 260.00 428.62 313.03 428.61 366.07 428.58 C 380.77 428.59 394.16 416.44 395.87 401.89 C 397.26 391.86 392.56 381.48 384.47 375.50 C 378.66 371.02 371.24 368.96 363.95 369.20 C 311.38 369.24 258.81 369.11 206.24 369.26 Z" />
<path fill="#083069" opacity="1.00" d=" M 1119.35 184.57 C 1127.35 181.67 1137.40 184.85 1141.42 192.56 C 1145.74 200.21 1143.09 210.93 1135.42 215.36 C 1126.66 221.01 1113.37 217.37 1109.20 207.69 C 1105.03 198.92 1110.06 187.42 1119.35 184.57 Z" />
<path fill="#083069" opacity="1.00" d=" M 587.38 186.87 C 598.98 186.86 610.58 186.87 622.18 186.87 C 629.17 231.71 636.10 276.56 643.11 321.39 C 651.19 276.55 659.25 231.71 667.31 186.87 C 679.60 186.86 691.89 186.87 704.18 186.87 C 712.26 231.71 720.30 276.56 728.36 321.41 C 735.28 276.56 742.12 231.71 749.02 186.87 C 760.63 186.87 772.23 186.86 783.84 186.87 C 771.65 258.16 759.47 329.45 747.26 400.73 C 735.86 400.74 724.45 400.73 713.04 400.74 C 703.96 351.39 694.96 302.03 685.89 252.68 C 676.73 302.03 667.63 351.39 658.48 400.74 C 646.86 400.73 635.25 400.74 623.64 400.73 C 611.54 329.45 599.46 258.16 587.38 186.87 Z" />
<path fill="#083069" opacity="1.00" d=" M 1413.47 400.73 C 1413.48 329.44 1413.46 258.15 1413.48 186.87 C 1424.24 186.87 1435.00 186.86 1445.76 186.87 C 1445.77 207.19 1445.76 227.50 1445.77 247.82 C 1450.72 241.42 1456.29 234.73 1464.33 232.25 C 1473.24 229.56 1483.10 229.81 1491.88 232.96 C 1501.58 236.47 1509.19 244.65 1512.74 254.27 C 1515.05 260.22 1515.76 266.66 1515.65 273.01 C 1515.64 315.58 1515.66 358.16 1515.65 400.73 C 1505.41 400.74 1495.18 400.74 1484.95 400.73 C 1484.93 360.49 1484.95 320.24 1484.93 279.99 C 1484.93 273.43 1483.56 266.10 1478.23 261.70 C 1472.62 257.14 1464.57 257.83 1458.12 259.97 C 1450.57 262.45 1445.74 270.22 1445.79 278.02 C 1445.73 318.92 1445.79 359.83 1445.76 400.73 C 1435.00 400.73 1424.23 400.74 1413.47 400.73 Z" />
<path fill="#083069" opacity="1.00" d=" M 1036.77 203.94 C 1046.66 204.14 1056.82 203.51 1066.54 204.25 C 1066.66 214.07 1066.55 223.90 1066.58 233.72 C 1074.95 233.75 1083.33 233.72 1091.71 233.74 C 1091.70 243.25 1091.72 252.76 1091.69 262.27 C 1083.62 262.27 1075.54 262.26 1067.47 262.27 C 1067.47 294.53 1067.47 326.79 1067.47 359.04 C 1067.45 364.47 1068.02 369.93 1069.54 375.16 C 1072.18 384.43 1075.99 393.61 1082.51 400.86 C 1071.20 400.85 1059.90 400.90 1048.59 400.84 C 1045.80 396.59 1042.97 392.28 1041.36 387.42 C 1039.24 380.42 1036.63 373.42 1036.82 365.98 C 1036.69 331.41 1036.80 296.84 1036.76 262.27 C 1012.15 262.28 987.53 262.24 962.92 262.29 C 956.38 262.37 949.02 264.47 945.49 270.44 C 941.72 277.24 942.83 286.20 947.76 292.16 C 951.37 296.54 955.41 300.88 960.66 303.29 C 970.70 308.57 980.73 313.85 990.75 319.18 C 998.77 323.51 1006.30 329.54 1010.36 337.90 C 1014.71 346.90 1015.39 357.26 1014.40 367.08 C 1013.25 377.66 1007.63 387.72 998.91 393.89 C 987.43 402.09 972.78 404.62 958.93 403.92 C 940.04 402.87 922.13 391.16 913.92 374.07 C 909.28 364.95 907.97 354.58 908.29 344.47 C 918.51 344.46 928.73 344.48 938.95 344.45 C 938.94 352.73 940.72 361.42 946.10 367.95 C 951.97 375.35 962.65 378.08 971.53 375.24 C 978.15 372.91 981.66 365.70 982.07 359.07 C 982.00 351.48 975.94 345.71 970.00 341.85 C 959.29 335.59 948.46 329.52 937.79 323.21 C 930.50 317.98 923.28 312.22 918.37 304.60 C 912.17 295.03 910.65 283.08 912.04 271.94 C 913.55 260.30 920.63 249.76 930.44 243.44 C 941.22 236.36 954.33 233.78 967.07 233.75 C 990.30 233.70 1013.53 233.75 1036.76 233.73 C 1036.77 223.80 1036.76 213.87 1036.77 203.94 Z" />
<path fill="#083069" opacity="1.00" d=" M 1372.21 250.67 C 1369.66 241.49 1376.42 231.17 1385.93 230.14 C 1395.67 228.53 1405.54 237.17 1405.00 247.08 C 1404.81 256.41 1395.21 263.99 1386.09 262.30 C 1381.90 261.69 1378.15 259.45 1375.25 256.44 C 1379.35 266.40 1380.36 277.30 1380.49 287.97 C 1380.59 299.37 1380.48 310.93 1377.65 322.05 C 1375.43 330.85 1371.40 339.49 1364.58 345.67 C 1357.38 352.35 1347.59 355.56 1337.95 356.34 C 1327.46 357.14 1316.62 356.21 1306.89 352.00 C 1306.89 359.51 1306.87 367.02 1306.90 374.53 C 1323.27 374.53 1339.64 374.53 1356.02 374.53 C 1364.72 374.50 1373.67 375.44 1381.61 379.24 C 1387.94 382.21 1393.30 387.30 1396.32 393.64 C 1400.25 401.82 1400.93 411.23 1399.79 420.14 C 1398.64 428.99 1394.38 437.67 1387.06 443.00 C 1378.47 449.40 1367.41 451.06 1356.96 451.05 C 1342.31 451.02 1327.65 451.18 1313.00 450.96 C 1304.07 450.56 1294.01 449.40 1287.55 442.54 C 1281.30 435.49 1281.76 425.22 1282.78 416.47 C 1284.33 406.85 1294.40 402.33 1303.05 401.09 C 1295.52 399.72 1287.29 396.27 1284.24 388.68 C 1281.09 380.17 1281.18 369.97 1286.27 362.22 C 1290.23 355.88 1297.12 351.62 1304.55 350.78 C 1296.72 346.72 1290.67 339.66 1287.35 331.54 C 1282.86 320.63 1282.18 308.63 1282.23 296.97 C 1282.31 284.94 1281.61 272.63 1285.02 260.93 C 1287.12 253.19 1291.54 245.95 1298.04 241.15 C 1305.48 235.57 1314.80 233.19 1323.94 232.41 C 1334.07 231.59 1344.57 232.06 1354.13 235.83 C 1361.51 238.73 1368.00 243.92 1372.21 250.67 M 1325.49 258.64 C 1320.28 260.12 1316.53 264.62 1314.66 269.53 C 1311.08 278.91 1311.24 289.15 1311.40 299.03 C 1311.79 307.35 1312.22 316.12 1316.44 323.53 C 1321.65 333.14 1337.07 334.45 1343.79 325.84 C 1347.91 320.63 1349.34 313.89 1350.17 307.44 C 1351.17 298.07 1351.18 288.58 1350.22 279.21 C 1349.41 273.22 1348.11 266.78 1343.76 262.28 C 1339.08 257.56 1331.61 256.97 1325.49 258.64 M 1306.89 400.81 C 1306.88 409.38 1306.87 417.96 1306.89 426.53 C 1323.93 426.54 1340.96 426.52 1357.99 426.54 C 1362.16 426.55 1366.50 426.17 1370.27 424.22 C 1377.50 420.63 1378.25 408.88 1371.57 404.36 C 1367.32 401.47 1362.01 400.80 1357.00 400.80 C 1340.29 400.81 1323.59 400.79 1306.89 400.81 Z" />
<path fill="#083069" opacity="1.00" d=" M 826.48 231.65 C 842.44 229.14 860.44 229.96 873.67 240.32 C 886.52 250.43 891.55 267.31 892.22 283.08 C 892.51 296.05 892.28 309.02 892.35 322.00 C 868.33 322.01 844.31 321.99 820.29 322.01 C 820.39 331.01 820.08 340.02 820.50 349.02 C 821.03 355.71 822.04 363.04 826.77 368.19 C 831.37 373.10 838.68 373.83 845.03 373.22 C 850.10 372.81 854.98 369.79 857.06 365.05 C 860.33 357.87 859.83 349.76 860.01 342.06 C 870.79 342.07 881.57 342.06 892.35 342.07 C 892.36 351.05 892.77 360.21 890.24 368.94 C 886.95 381.82 878.32 393.59 866.09 399.21 C 852.45 405.49 836.61 405.18 822.24 401.85 C 808.94 398.72 798.29 388.26 793.65 375.58 C 784.79 352.16 786.61 326.62 786.35 302.05 C 786.18 285.35 785.88 267.54 794.51 252.61 C 800.91 240.85 813.52 233.71 826.48 231.65 M 823.20 266.23 C 818.45 274.66 818.82 284.69 818.83 294.06 C 832.55 294.07 846.27 294.06 860.00 294.06 C 859.92 284.27 860.29 273.68 855.04 265.00 C 848.29 253.75 829.27 254.88 823.20 266.23 Z" />
<path fill="#083069" opacity="1.00" d=" M 1212.98 232.02 C 1222.40 229.70 1232.89 229.67 1241.65 234.31 C 1253.51 240.42 1261.19 252.95 1263.09 265.96 C 1264.08 273.27 1263.48 280.67 1263.65 288.03 C 1263.65 325.60 1263.65 363.16 1263.65 400.73 C 1253.21 400.74 1242.78 400.74 1232.35 400.73 C 1232.34 361.82 1232.36 322.91 1232.35 284.00 C 1232.38 275.92 1229.79 266.99 1222.81 262.23 C 1216.93 258.02 1208.53 258.73 1202.94 263.08 C 1196.51 267.88 1193.73 276.19 1193.82 283.99 C 1193.82 322.91 1193.83 361.82 1193.82 400.74 C 1183.58 400.74 1173.35 400.74 1163.12 400.74 C 1163.11 345.07 1163.11 289.40 1163.12 233.74 C 1172.96 233.73 1182.80 233.73 1192.64 233.73 C 1192.65 238.45 1192.64 243.16 1192.65 247.88 C 1197.73 240.84 1204.33 234.26 1212.98 232.02 Z" />
<path fill="#083069" opacity="1.00" d=" M 1576.20 231.20 C 1592.26 228.65 1610.26 232.13 1621.97 244.06 C 1631.38 253.46 1635.44 266.93 1635.93 279.95 C 1636.23 305.30 1635.98 330.66 1636.06 356.01 C 1636.14 365.48 1634.52 375.25 1629.52 383.43 C 1625.06 390.98 1617.89 396.71 1609.79 399.95 C 1599.71 403.99 1588.56 404.77 1577.85 403.60 C 1566.85 402.36 1555.83 398.05 1548.16 389.84 C 1540.55 381.89 1536.96 370.82 1536.69 359.96 C 1536.46 335.32 1536.65 310.68 1536.59 286.04 C 1536.54 274.60 1538.01 262.80 1543.61 252.64 C 1550.08 240.62 1562.86 233.00 1576.20 231.20 M 1580.22 260.21 C 1573.38 261.69 1568.71 267.95 1567.39 274.55 C 1565.38 284.24 1566.45 294.21 1566.18 304.03 C 1566.20 319.36 1566.12 334.69 1566.21 350.02 C 1566.29 357.47 1568.22 365.80 1574.53 370.48 C 1581.20 375.16 1590.90 375.30 1597.71 370.79 C 1604.29 366.18 1606.32 357.61 1606.40 350.00 C 1606.40 328.02 1606.46 306.03 1606.37 284.05 C 1606.12 277.27 1605.32 269.75 1600.44 264.57 C 1595.31 259.25 1587.06 258.67 1580.22 260.21 Z" />
<path fill="#083069" opacity="1.00" d=" M 1782.43 255.62 C 1789.60 240.61 1805.85 231.56 1822.12 230.59 C 1835.20 229.61 1849.26 232.68 1859.06 241.86 C 1870.55 252.54 1875.15 268.72 1875.64 283.99 C 1865.41 284.01 1855.19 284.00 1844.97 284.00 C 1844.44 275.68 1841.73 266.39 1834.18 261.84 C 1825.36 256.22 1812.35 260.81 1808.46 270.35 C 1806.87 274.26 1807.59 278.76 1809.71 282.32 C 1812.73 287.53 1817.73 291.17 1822.79 294.23 C 1832.52 300.16 1842.28 306.05 1852.00 312.01 C 1860.71 317.37 1868.53 324.61 1873.29 333.77 C 1877.51 341.75 1879.09 350.96 1878.44 359.93 C 1877.99 371.01 1874.29 382.36 1866.30 390.30 C 1856.35 400.33 1841.73 403.90 1828.00 404.06 C 1814.90 404.49 1801.37 400.36 1791.73 391.27 C 1778.63 378.95 1772.91 360.39 1773.53 342.74 C 1783.55 342.73 1793.57 342.74 1803.60 342.73 C 1803.51 350.95 1805.81 359.42 1811.24 365.74 C 1816.44 371.99 1824.92 375.42 1833.00 374.32 C 1841.38 372.48 1847.31 363.41 1845.76 354.97 C 1844.45 347.65 1838.71 342.09 1832.68 338.25 C 1821.74 331.57 1810.80 324.87 1799.86 318.20 C 1795.40 315.46 1791.33 312.06 1787.99 308.02 C 1776.01 293.69 1774.59 272.23 1782.43 255.62 Z" />
<path fill="#083069" opacity="1.00" d=" M 1920.24 236.12 C 1930.38 231.22 1941.88 230.18 1953.00 230.57 C 1964.14 231.08 1975.55 234.53 1983.88 242.21 C 1995.42 252.75 1999.70 268.89 2000.25 284.04 C 2000.48 296.69 2000.29 309.34 2000.35 322.00 C 1976.33 322.01 1952.31 321.99 1928.29 322.01 C 1928.45 331.64 1927.95 341.29 1928.63 350.91 C 1929.26 357.22 1930.55 364.10 1935.27 368.73 C 1939.94 373.14 1946.87 373.79 1952.99 373.22 C 1958.07 372.83 1962.98 369.80 1965.07 365.05 C 1968.34 357.87 1967.87 349.76 1968.01 342.06 C 1978.78 342.07 1989.56 342.06 2000.35 342.07 C 2000.33 350.53 2000.75 359.12 1998.62 367.39 C 1996.23 377.54 1990.89 387.19 1982.71 393.79 C 1973.36 401.48 1960.91 404.36 1949.02 404.13 C 1934.80 404.19 1919.22 400.72 1909.72 389.31 C 1903.57 382.12 1900.14 373.05 1898.02 363.94 C 1892.65 339.31 1894.71 313.95 1894.32 288.95 C 1894.45 276.94 1896.05 264.55 1901.81 253.82 C 1905.82 246.13 1912.39 239.82 1920.24 236.12 M 1931.19 266.24 C 1926.43 274.66 1926.83 284.70 1926.83 294.06 C 1940.55 294.07 1954.27 294.06 1968.00 294.06 C 1967.96 284.26 1968.30 273.67 1963.03 264.98 C 1956.27 253.75 1937.26 254.88 1931.19 266.24 Z" />
<path fill="#083069" opacity="1.00" d=" M 1110.12 234.20 C 1120.47 234.20 1130.82 234.20 1141.17 234.20 C 1141.18 289.71 1141.18 345.22 1141.17 400.73 C 1130.82 400.74 1120.47 400.73 1110.12 400.74 C 1110.11 345.22 1110.11 289.71 1110.12 234.20 Z" />
<path fill="#083069" opacity="1.00" d=" M 1657.06 233.80 C 1667.29 233.80 1677.53 233.80 1687.77 233.80 C 1687.78 272.87 1687.74 311.94 1687.78 351.00 C 1688.01 357.60 1688.58 364.79 1692.74 370.22 C 1696.50 375.07 1703.19 375.98 1708.93 375.51 C 1715.37 374.80 1720.42 369.72 1722.93 364.00 C 1726.86 355.59 1726.35 346.09 1726.35 337.05 C 1726.36 302.63 1726.33 268.22 1726.36 233.80 C 1736.35 233.81 1746.35 233.79 1756.35 233.81 C 1756.36 289.51 1756.35 345.22 1756.35 400.93 C 1746.52 400.94 1736.70 400.94 1726.89 400.93 C 1726.87 396.23 1726.88 391.53 1726.88 386.83 C 1722.43 392.44 1716.96 397.39 1710.40 400.40 C 1701.20 404.67 1690.34 405.30 1680.70 402.21 C 1673.05 399.74 1666.91 393.73 1663.47 386.56 C 1658.28 375.84 1657.22 363.69 1657.06 351.95 C 1657.05 312.57 1657.06 273.19 1657.06 233.80 Z" />
</g>
</svg>
