<?xml version="1.0" encoding="UTF-8"?>
<!-- Created with Inkscape (http://www.inkscape.org/) -->
<svg id="svg2" width="624.375" height="828.59375" version="1.1" xmlns="http://www.w3.org/2000/svg" xmlns:cc="http://creativecommons.org/ns#" xmlns:dc="http://purl.org/dc/elements/1.1/" xmlns:rdf="http://www.w3.org/1999/02/22-rdf-syntax-ns#">
 <defs id="defs4">
  <clipPath id="clipPath18">
   <path id="path20" d="m0 6628.75v-6628.75h4995v6628.75h-4995z"/>
  </clipPath>
 </defs>
 <metadata id="metadata7">
  <rdf:RDF>
   <cc:Work rdf:about="">
    <dc:format>image/svg+xml</dc:format>
    <dc:type rdf:resource="http://purl.org/dc/dcmitype/StillImage"/>
   </cc:Work>
  </rdf:RDF>
 </metadata>
 <g id="layer1" transform="translate(117.1875,-743.77955)">
  <g id="g10" transform="matrix(1.25,0,0,-1.25,-117.1875,1572.3733)">
   <g id="g12" transform="scale(.1)">
    <g id="g14">
     <g id="g16" clip-path="url(#clipPath18)">
      <g fill="#7a5328">
       <path id="path22" d="m4021.43 168.711c-107.36 0-193.93 86.578-193.93 194.508 0 106.781 86.57 193.351 193.93 193.351 106.77 0 193.35-86.57 193.35-193.351 0-107.93-86.58-194.508-193.35-194.508zm0 414.41c-122.37 0-221.06-98.699-221.06-219.902 0-122.36 98.69-221.059 221.06-221.059 121.78 0 219.9 98.699 219.9 221.059 0 121.203-98.12 219.902-219.9 219.902"/>
       <path id="path24" d="m4015.65 377.07h-46.17v87.149h70.41c30.6 0 64.07-4.61 64.07-42.707 0-50.211-53.68-44.442-88.31-44.442zm118.9 43.871c0 20.77-9.23 42.707-27.7 53.098-18.47 10.961-39.25 12.121-60.03 12.121h-107.35v-246.461h30.01v113.711h55.41l70.41-113.711h35.79l-74.46 113.711c43.87 1.149 77.92 19.051 77.92 67.531"/>
       <rect id="rect9975" transform="scale(1,-1)" x="101.25" y="-6527.5" width="4792.5" height="1586.25" fill-rule="evenodd"/>
      </g>
      <path id="path26" d="m4893.75 5785h-2090.79c203.28 62.23 415.42 169.95 478.8 306.35 35.11 75.55 24.07 155.45-31.06 224.97-49.56 62.49-116 92.47-192.13 86.7-180.85-13.71-382.36-231.54-510.44-401.77v526.25h2345.62zm-2268.7 93.47c123.03 171.08 317.41 380.36 443.73 389.94 31.06 2.35 54.55-8.74 76.15-35.98 29.74-37.5 23.97-63.6 14.4-84.19-54-116.21-323.79-227.6-534.28-269.77zm2268.7-937.22h-2345.62v736.61l600.12-461.07c29.56-22.72 71.94-17.17 94.65 12.4 22.72 29.56 17.16 71.94-12.4 94.65l-468.46 359.91h2131.71zm-2446.87 1057.14c-127.55 171.74-334.02 399.05-518.89 413.07-76.13 5.77-142.57-24.21-192.13-86.7-55.13-69.53-66.16-149.42-31.06-224.97 66.35-142.79 295.68-254.14 507.24-314.79h-2110.79v742.5h2345.63zm-619.65 158.29c-9.56 20.58-15.34 46.69 14.41 84.19 21.6 27.23 45.08 38.33 76.14 35.97 126.33-9.58 320.7-218.86 443.72-389.93-210.48 42.16-480.27 153.55-534.27 269.77zm619.65-1215.43h-2345.63v742.5h2134.25l-479.44-368.35c-29.56-22.71-35.11-65.09-12.4-94.65s65.09-35.12 94.65-12.4l608.57 467.55zm-2446.88 1687.5v-1788.75h4995v1788.75h-4995" fill="#ffcc10"/>
      <path id="path3645" d="m4893.75 2393.12c0-1155.03-625.02-1439.901-2396.25-2272.358-1771.227 832.457-2396.25 1117.328-2396.25 2272.358v2016.57h4792.5z" fill="#7a5328"/>
      <g fill="#ffcc10">
       <path id="path28" d="M 4893.75,2393.12 C 4893.75,1238.09 4268.73,953.219 2497.5,120.762 726.273,953.219 101.25,1238.09 101.25,2393.12 v 2016.57 h 4792.5 z M 0,4510.94 V 2393.12 C 0,1786.74 154.887,1399.88 543.895,1068.66 989.391,689.352 2497.5,0 2497.5,0 c 0,0 1538.11,709.352 1953.6,1068.66 386.46,334.2 543.9,718.08 543.9,1324.46 V 4510.94 H 0"/>
       <path id="path30" d="m1628.44 4084.34h-405l-0.11-1488.72c0-135.1-109.51-244.61-244.58-244.61-135.102 0-244.617 109.51-244.617 244.61l0.402 1488.72h-413.91v-1480.28c0-359.17 298.961-650.33 658.125-650.33 359.14 0 650.29 291.16 650.29 650.33l-0.6 1480.28"/>
       <path id="path32" d="m4682.28 3448.55c0.53 473.79-307.44 657.39-654.59 657.39-369.29 0-648.17-246.17-648.17-618.2 0-248.98 104.96-463.79 328.76-567.27 86.47-35.88 175.06-67.5 358.6-94.64 130.37-19.3 238.64-106.85 238.64-238.64 0-131.83-106.85-238.88-238.64-238.68-181.41 0.3-270 112.11-273.75 356.8l-408.92-0.07c-0.77-219.37 33.58-355.52 97.95-459.03 114.68-195.82 313.33-293.69 593.02-293.69 201.49 0 330.14 41.91 444.85 145.43 137.06 123.11 223.84 299.02 223.84 492.04 0 274.15-154.04 482.52-389.65 596.26-74.32 35.84-162.91 46.41-304.22 63.28-165.48 19.75-257.34 106.82-257.34 232.03 0 125.18 59.06 236.25 229.9 235.14 125.21-0.81 226.73-101.52 226.73-226.7l-1.01-88.59h434.53l-0.53 47.14"/>
       <path id="path34" d="m2771.72 2528.12c0-144.28-104.66-261.22-248.91-261.22-144.28 0-248.57 116.94-248.57 261.22v1054.59c0 144.25 104.29 261.19 248.57 261.19 144.25 0 248.91-116.94 248.91-261.19zm-71.62 1587.1c-129.16 0.4-299.16-36.08-427.14-151.84l1.42 124.91h-426.57v-2917.32l430.32 0.81 0.47 917.59c155.62-92.81 239.96-126.56 396.09-126.56 253.12 0 518.9 135 518.9 683.44l0.48 957.66c-0.48 333.28-184.51 510.29-493.97 511.31"/>
      </g>
     </g>
    </g>
   </g>
  </g>
 </g>
</svg>
