<?xml version="1.0" encoding="UTF-8" standalone="no"?>
<svg xmlns:rdf="http://www.w3.org/1999/02/22-rdf-syntax-ns#" xmlns="http://www.w3.org/2000/svg" version="1.1" xmlns:cc="http://creativecommons.org/ns#" xmlns:dc="http://purl.org/dc/elements/1.1/" viewBox="0 0 202 202.25">
 <g style="" transform="matrix(.5 0 0 .5 1.072 1.2853)">
  <path d="m200.04 0c-110.93 0-200.04 89.371-200.04 200.25s89.114 200.25 200.04 200.25c110.92 0 199.96-89.371 199.96-200.25s-89.04-200.25-199.96-200.25z"/>
  <g style="" fill="#fff">
   <path d="m68.877 137.47c-34.795 0-62.713 28.032-62.713 62.784 0 34.753 27.918 62.784 62.713 62.784 21.366 0 29.718-15.084 29.718-15.084v13.722h32.995v-61.423c0-34.753-27.918-62.784-62.713-62.784zm0 32.826c16.589 0 29.887 13.376 29.887 29.959s-13.298 29.959-29.887 29.959-29.887-13.376-29.887-29.959 13.298-29.959 29.887-29.959z"/>
   <path d="m139.57 94.233v106.02c0 34.753 27.939 62.806 62.734 62.806s62.662-28.054 62.662-62.806c0-34.753-27.867-62.806-62.662-62.806-21.366 0-29.747 15.125-29.747 15.125v-58.341zm62.734 76.059c16.589 0 29.891 13.38 29.891 29.963s-13.301 29.963-29.891 29.963c-16.589 0-29.891-13.38-29.891-29.963s13.302-29.963 29.891-29.963z"/>
   <path d="m333.06 137.47c-34.795 0-62.713 28.032-62.713 62.784 0 34.753 27.918 62.784 62.713 62.784 30.034 0 54.953-20.887 61.208-48.952h-34.689c-4.9757 9.5707-14.941 16.126-26.519 16.126-16.589 0-29.887-13.376-29.887-29.959s13.298-29.959 29.887-29.959c11.613 0 21.63 6.5802 26.59 16.198h34.617c-6.2294-28.1-31.149-49.023-61.208-49.023z"/>
  </g>
 </g>
</svg>
