<?xml version="1.0" encoding="UTF-8" standalone="no"?>
<!-- Created with Inkscape (http://www.inkscape.org/) -->

<svg
   xmlns:dc="http://purl.org/dc/elements/1.1/"
   xmlns:cc="http://creativecommons.org/ns#"
   xmlns:rdf="http://www.w3.org/1999/02/22-rdf-syntax-ns#"
   xmlns:svg="http://www.w3.org/2000/svg"
   xmlns="http://www.w3.org/2000/svg"
   xmlns:sodipodi="http://sodipodi.sourceforge.net/DTD/sodipodi-0.dtd"
   xmlns:inkscape="http://www.inkscape.org/namespaces/inkscape"
   width="96.419998"
   height="10.58"
   id="svg5857"
   version="1.1"
   inkscape:version="0.48.1 "
   sodipodi:docname="Neues Dokument 3">
  <defs
     id="defs5859" />
  <sodipodi:namedview
     id="base"
     pagecolor="#ffffff"
     bordercolor="#666666"
     borderopacity="1.0"
     inkscape:pageopacity="0.0"
     inkscape:pageshadow="2"
     inkscape:zoom="8.3987109"
     inkscape:cx="50.18117"
     inkscape:cy="3.041283"
     inkscape:document-units="px"
     inkscape:current-layer="layer1"
     showgrid="false"
     fit-margin-top="0"
     fit-margin-left="0"
     fit-margin-right="0"
     fit-margin-bottom="0"
     inkscape:window-width="1024"
     inkscape:window-height="678"
     inkscape:window-x="-4"
     inkscape:window-y="-4"
     inkscape:window-maximized="1" />
  <metadata
     id="metadata5862">
    <rdf:RDF>
      <cc:Work
         rdf:about="">
        <dc:format>image/svg+xml</dc:format>
        <dc:type
           rdf:resource="http://purl.org/dc/dcmitype/StillImage" />
        <dc:title></dc:title>
      </cc:Work>
    </rdf:RDF>
  </metadata>
  <g
     inkscape:label="Ebene 1"
     inkscape:groupmode="layer"
     id="layer1"
     transform="translate(-235.62805,-453.02261)">
    <g
       id="g1662"
       transform="matrix(1.25,0,0,-1.25,243.75927,462.60198)">
      <path
         inkscape:connector-curvature="0"
         d="M 0,0 -1.169,2.972 -2.347,0 l -0.229,0 -2.535,6.564 -0.595,0 0,0.188 6.603,0 0,-0.188 -0.667,0 -0.794,-2.049 1.117,-2.85 1.711,4.899 -0.992,0 0,0.188 1.868,0 0,-0.188 -0.584,0 L 0.24,0 0,0 z m -3.87,6.564 1.888,-4.965 0.688,1.74 -1.282,3.225 -1.294,0 z m 2.514,0 0.667,-1.683 0.658,1.683"
         style="fill:#58595b;fill-opacity:1;fill-rule:nonzero;stroke:none"
         id="path1664" />
    </g>
    <g
       id="g1666"
       transform="matrix(1.25,0,0,-1.25,247.08427,462.21448)">
      <path
         inkscape:connector-curvature="0"
         d="m 0,0 0.96,0 0,-0.197 -1.972,0 0,0.197 0.709,0 2.483,6.461 0.334,0 L 4.903,0 l 0.772,0 0.01,-0.197 -3.014,0 0,0.197 0.97,0 -0.72,1.919 -2.212,0 L 0,0 z m 1.826,4.881 -1.033,-2.755 2.054,0"
         style="fill:#58595b;fill-opacity:1;fill-rule:nonzero;stroke:none"
         id="path1668" />
    </g>
    <g
       id="g1670"
       transform="matrix(1.25,0,0,-1.25,254.56927,462.46198)">
      <path
         inkscape:connector-curvature="0"
         d="m 0,0 0,0.198 0.949,0 0,6.253 -0.939,0 0,0.188 3.036,0 0,-0.188 -0.897,0 0,-6.253 1.637,0 c 0.386,0.019 0.7,0.047 1.002,0.282 0.479,0.377 0.626,1.063 0.762,1.571 l 0.177,0 L 5.529,0"
         style="fill:#58595b;fill-opacity:1;fill-rule:nonzero;stroke:none"
         id="path1672" />
    </g>
    <g
       id="g1674"
       transform="matrix(1.25,0,0,-1.25,265.58807,462.21448)">
      <path
         inkscape:connector-curvature="0"
         d="m 0,0 1.001,0 0,-0.197 -3.255,0 0,0.197 1.054,0 0,6.254 -0.636,0 C -2.003,6.244 -2.347,6.263 -2.691,6.009 -3.077,5.727 -3.307,5.115 -3.328,5.05 -3.411,4.825 -3.453,4.58 -3.526,4.355 l -0.188,0 0.094,2.087 5.977,0 L 2.524,4.355 2.357,4.364 C 2.316,4.458 2.285,4.552 2.253,4.646 2.201,4.816 2.076,5.257 1.763,5.689 1.366,6.235 0.939,6.263 0.271,6.254 L 0,6.254"
         style="fill:#58595b;fill-opacity:1;fill-rule:nonzero;stroke:none"
         id="path1676" />
    </g>
    <g
       id="g1678"
       transform="matrix(1.25,0,0,-1.25,269.44807,462.46198)">
      <path
         inkscape:connector-curvature="0"
         d="m 0,0 0,0.198 0.929,0 0,6.253 -0.908,0 0,0.188 5.279,0 0.082,-1.814 -0.156,0 C 5.153,5.004 5.122,5.182 5.07,5.352 4.945,5.727 4.726,5.981 4.611,6.085 4.517,6.169 4.434,6.216 4.319,6.272 3.975,6.432 3.641,6.442 2.9,6.451 l -0.835,0 0,-2.99 0.345,0 c 0.104,0 0.209,0.01 0.324,0.01 0.082,0.009 0.615,0 0.823,0.376 0.032,0.066 0.053,0.122 0.084,0.254 0.031,0.198 0.041,0.395 0.051,0.584 l 0.178,0 0,-2.729 -0.156,0 c 0,0.085 -0.01,0.311 -0.052,0.565 C 3.641,2.596 3.61,2.879 3.37,3.066 3.099,3.265 2.712,3.265 2.4,3.265 l -0.335,0 0,-3.067 1.2,0 c 0.46,0 0.71,0 0.918,0.028 0.522,0.095 0.73,0.414 0.824,0.564 0.261,0.395 0.397,0.837 0.533,1.279 l 0.135,0 L 5.477,0"
         style="fill:#58595b;fill-opacity:1;fill-rule:nonzero;stroke:none"
         id="path1680" />
    </g>
    <g
       id="g1682"
       transform="matrix(1.25,0,0,-1.25,280.21927,462.21448)">
      <path
         inkscape:connector-curvature="0"
         d="m 0,0 0.929,0 0,-0.197 -3.036,0 0,0.197 0.938,0 0,6.254 -0.97,0 0,0.188 2.89,0 c 0.824,0 1.784,0.019 2.42,-0.565 C 3.567,5.51 3.589,5.115 3.589,4.919 3.589,4.759 3.567,4.43 3.296,4.091 2.701,3.386 1.534,3.32 1.335,3.301 1.409,3.292 1.534,3.282 1.7,3.245 1.826,3.217 2.295,3.085 2.639,2.831 2.712,2.775 2.9,2.624 3.046,2.417 3.15,2.267 3.234,2.069 3.286,1.909 3.337,1.721 3.359,1.524 3.349,1.129 l 0,-0.264 C 3.349,0.856 3.327,0.508 3.4,0.31 3.432,0.226 3.536,-0.009 3.849,-0.009 c 0.157,0 0.303,0.066 0.438,0.103 L 4.36,-0.084 C 4.329,-0.094 4.297,-0.113 4.266,-0.132 4.089,-0.207 3.786,-0.254 3.589,-0.254 2.9,-0.244 2.535,0.094 2.379,0.282 2.076,0.658 2.055,1.129 2.045,1.561 L 2.024,1.975 C 2.024,2.041 2.003,2.295 1.93,2.511 1.7,3.217 0.991,3.226 0.334,3.226 L 0,3.226 0,0 z m 0.375,3.452 c 0.428,0 1.044,-0.01 1.419,0.225 0.407,0.245 0.522,0.744 0.522,1.157 0,0.272 -0.074,0.667 -0.251,0.912 C 1.981,5.868 1.877,5.943 1.826,5.981 1.409,6.263 0.835,6.244 0.344,6.244 l -0.354,0 0,-2.792"
         style="fill:#58595b;fill-opacity:1;fill-rule:nonzero;stroke:none"
         id="path1684" />
    </g>
    <g
       id="g1686"
       transform="matrix(1.25,0,0,-1.25,292.16427,462.21448)">
      <path
         inkscape:connector-curvature="0"
         d="m 0,0 0.928,0 0,-0.197 -3.057,0 0,0.197 0.94,0 0,6.254 -0.95,0 0,0.188 3.005,0 0,-0.188 L 0,6.254 0,0 z m 4.245,0 0.521,0 0,-0.197 -2.91,0 0,0.197 0.939,0 -2.691,3.264 2.942,2.99 -1.064,0 0,0.188 2.347,0 0,-0.188 -0.929,0 -2.336,-2.398"
         style="fill:#58595b;fill-opacity:1;fill-rule:nonzero;stroke:none"
         id="path1688" />
    </g>
    <g
       id="g1690"
       transform="matrix(1.25,0,0,-1.25,305.63297,462.46198)">
      <path
         inkscape:connector-curvature="0"
         d="M 0,0 -3.307,4.562 C -3.494,4.834 -3.692,5.098 -3.88,5.36 -4.1,5.652 -4.319,5.943 -4.517,6.244 l 0,-6.046 0.971,0 0,-0.198 -2.191,0 0,0.198 0.949,0 0,6.253 -0.918,0 0,0.188 2.316,0 2.159,-2.999 C -1.053,3.405 -0.887,3.17 -0.72,2.926 -0.5,2.605 -0.291,2.286 -0.063,1.967 l 0,4.484 -0.876,0 0,0.188 1.95,0 0,-0.188 -0.812,0 0,-6.451"
         style="fill:#58595b;fill-opacity:1;fill-rule:nonzero;stroke:none"
         id="path1692" />
    </g>
    <g
       id="g1694"
       transform="matrix(1.25,0,0,-1.25,308.35927,455.71448)">
      <path
         inkscape:connector-curvature="0"
         d="M 0,0 C 0.25,0.338 1.074,1.354 2.555,1.354 3.39,1.354 4.11,1.025 4.684,0.48 5.706,-0.48 5.747,-1.608 5.747,-2.079 5.747,-2.464 5.726,-3.32 5.09,-4.176 4.84,-4.515 4.005,-5.511 2.545,-5.511 c -0.511,0 -1.399,0.123 -2.222,0.978 -0.397,0.404 -0.97,1.147 -0.97,2.454 0,0.377 0.031,1.223 0.647,2.079 m 2.555,-5.257 c 0.386,0 1.419,0.141 1.669,1.194 0.126,0.517 0.136,1.373 0.136,1.89 0,0.536 -0.01,1.063 -0.063,1.59 C 4.255,-0.122 4.172,0.32 3.786,0.668 3.349,1.063 2.743,1.1 2.545,1.1 2.357,1.1 1.7,1.053 1.261,0.611 1.189,0.536 1.043,0.376 0.949,0.132 0.793,-0.273 0.75,-1.044 0.75,-2.107 c 0,-0.564 0,-1.128 0.074,-1.683 0.042,-0.282 0.146,-1.054 1.095,-1.363 0.115,-0.038 0.334,-0.104 0.636,-0.104"
         style="fill:#58595b;fill-opacity:1;fill-rule:nonzero;stroke:none"
         id="path1696" />
    </g>
    <g
       id="g1698"
       transform="matrix(1.25,0,0,-1.25,316.28807,462.46198)">
      <path
         inkscape:connector-curvature="0"
         d="m 0,0 0,0.198 0.95,0 0,6.253 -0.94,0 0,0.188 3.036,0 0,-0.188 -0.897,0 0,-6.253 1.638,0 C 4.172,0.217 4.486,0.245 4.788,0.48 5.268,0.857 5.415,1.543 5.55,2.051 l 0.177,0 L 5.53,0"
         style="fill:#58595b;fill-opacity:1;fill-rule:nonzero;stroke:none"
         id="path1700" />
    </g>
    <g
       id="g1702"
       transform="matrix(1.25,0,0,-1.25,323.89057,462.46198)">
      <path
         inkscape:connector-curvature="0"
         d="m 0,0 0,0.198 0.95,0 0,6.253 -0.94,0 0,0.188 3.036,0 0,-0.188 -0.897,0 0,-6.253 1.637,0 C 4.172,0.217 4.485,0.245 4.787,0.48 5.268,0.857 5.414,1.543 5.55,2.051 l 0.177,0 L 5.529,0"
         style="fill:#58595b;fill-opacity:1;fill-rule:nonzero;stroke:none"
         id="path1704" />
    </g>
  </g>
</svg>
