<svg width="24" height="24" viewBox="0 0 24 24" fill="none" xmlns="http://www.w3.org/2000/svg">
<path d="M5.85409 3.64445C5.85409 2.82376 5.92612 1.94373 6.48668 1.32088C6.80751 0.96441 6.90461 1.27568 7.24093 1.47903C7.62259 1.7098 8.40951 1.91842 8.61561 2.3306C8.96388 3.02715 9.59567 2.64375 10.0146 2.30627C10.6069 1.82916 11.1785 1.15031 11.8759 0.822106C11.9981 0.764616 12.5719 1.76292 12.6423 1.89265C13.1762 2.87607 13.7071 2.98881 14.8077 2.74422C15.5225 2.58538 16.2406 2.35012 16.9367 2.13596C17.4907 1.96548 17.1598 3.21706 17.2651 3.55929C17.4477 4.15257 17.3503 4.73932 18.0619 4.73932C18.7217 4.73932 19.5942 4.81826 20.2517 4.96438C21.0465 5.141 21.0728 5.34135 21.0728 6.10792C21.0728 6.85856 20.3986 7.61927 20.203 8.30375C20.0569 8.81515 21.8394 9.49604 22.1434 9.80008C22.885 10.5416 22.4547 10.9743 21.9731 11.7709C21.7415 12.1539 21.5808 12.3334 21.2675 12.6468C20.9293 12.985 20.9447 13.2255 20.9634 13.693C20.9711 13.8863 21.3966 14.1786 21.5108 14.3499C21.6998 14.6333 21.9133 14.8253 22.1434 15.0555C22.5966 15.5086 22.8246 15.8458 22.8246 16.5153C22.8246 17.9759 20.1719 17.4084 19.3332 17.9326C18.5089 18.4478 19.1021 19.2229 19.1021 20.1223C19.1021 20.3891 19.1337 20.6794 19.096 20.9435C19.0569 21.2174 18.8032 21.4733 18.7736 21.7099C18.679 22.467 17.0377 21.7969 16.6933 21.6247C16.1151 21.3356 15.4544 20.2865 14.8321 20.2865C14.3146 20.2865 13.5308 21.0545 13.1654 21.4058C12.7578 21.7977 12.2741 22.1478 11.7117 22.1478C11.3876 22.1478 11.366 21.8896 11.2737 21.5943C11.1156 21.0882 10.855 20.7508 10.6229 20.2865C10.4879 20.0166 10.3882 19.5775 10.1728 19.362C9.92079 19.11 9.57661 19.4639 9.3516 19.5201C8.51048 19.7304 7.82171 20.3177 7.00371 20.4994C6.61123 20.5867 6.31895 20.569 6.23729 20.1771C6.1166 19.5977 5.84775 19.1031 5.65944 18.5591C5.35834 17.6892 4.94906 17.7683 4.07796 17.7683C3.39261 17.7683 2.36927 17.9444 1.71789 17.744C1.32834 17.6241 1.67861 17.3874 1.77872 17.0871C1.90425 16.7105 2.06203 16.4153 2.15584 16.0165C2.26373 15.558 2.39208 15.1152 2.48431 14.654C2.53875 14.3818 2.88937 13.7209 2.61812 13.4497C2.45453 13.2861 1.96912 13.3222 1.75439 13.2246C1.44851 13.0856 1.14824 13.0621 0.872407 12.8414C0.343585 12.4183 0.986527 11.419 1.3651 10.9984C1.81431 10.4992 3.07092 9.9553 3.22031 9.28306C3.33859 8.75079 3.17228 8.1399 3.23247 7.59816C3.25498 7.39554 3.58211 6.81959 3.82857 6.81959C4.08775 6.81959 4.41893 7.10111 4.71055 7.15413C5.54829 7.30645 6.39947 7.38231 7.22876 7.586C7.37613 7.62219 9.08596 8.13756 9.2482 7.85364C9.51732 7.38268 9.90158 7.11889 10.2762 6.72226C10.6115 6.36722 11.3008 6.01829 11.7664 5.88894C12.2423 5.75675 12.698 5.78835 13.1715 5.66997C14.0921 5.43983 14.4692 7.22833 14.6982 7.89013C15.0131 8.79982 16.8665 8.65169 17.6544 8.68087C18.4725 8.71117 18.1167 10.3126 18.1167 10.8463C18.1167 11.5626 17.6082 12.1008 17.5692 12.8414C17.5354 13.4841 18.6146 13.8503 18.7675 14.5385C18.8548 14.931 17.9152 15.3682 17.7274 15.5968C17.4392 15.9477 16.3649 16.7938 16.3649 17.2878C16.3649 18.0347 16.4583 19.1565 15.3308 18.48C14.7875 18.154 13.8759 17.3304 13.2445 17.3304C12.448 17.3304 12.2898 18.2564 11.4379 18.2063C11.2537 18.1954 11.2221 17.7574 11.1642 17.6224C11.0835 17.4339 10.8961 17.3628 10.781 17.1966C10.6212 16.9658 10.5052 16.6652 10.3187 16.4788C9.78085 15.9409 9.04733 15.8432 8.28714 16.126C5.75095 17.0697 8.20811 13.0117 7.05845 12.8475C6.37196 12.7494 5.89305 11.6586 5.68986 11.0896C5.55909 10.7234 6.20842 10.8706 6.45019 10.8706C7.08596 10.8706 7.73228 10.9068 8.36622 10.8645C9.39548 10.7959 9.96973 10.3681 10.6229 9.71492C10.9094 9.42843 11.1666 8.87453 11.5961 8.79644C11.92 8.73754 12.6734 10.333 12.8126 10.5787C13.2592 11.3667 13.431 11.6549 14.3455 11.7709C14.5396 11.7955 16.2399 12.0308 16.2554 12.294C16.2785 12.6858 16.0044 12.8199 15.708 12.9752C14.8702 13.4141 14.1342 14.2979 13.7129 15.1406C13.4174 15.7315 13.2612 16.1526 12.4781 15.6759C11.6735 15.1862 11.2634 14.3742 10.2883 14.3742C10.1206 14.3742 9.37481 14.4914 9.47934 14.2039C9.61405 13.8335 10.0663 13.5453 10.2883 13.2246C10.5232 12.8853 10.7115 12.5165 10.8844 12.1419C11.0716 11.7365 11.1393 11.6955 11.3832 12.075C11.7449 12.6377 11.7315 13.2793 12.5328 13.2793" stroke="white" stroke-linecap="round"/>
</svg>
