<?xml version="1.0" encoding="UTF-8"?>
<svg xmlns="http://www.w3.org/2000/svg" width="120.00mm" height="15.00mm" viewBox="0 0 120.00 15.00">
  <g stroke="black" stroke-width="0.30" fill="none">
    <line x1="1.50" y1="1.50" x2="1.50" y2="9.00" />
    <line x1="1.50" y1="9.00" x2="3.00" y2="10.50" />
    <line x1="3.00" y1="10.50" x2="6.00" y2="10.50" />
    <line x1="4.50" y1="4.50" x2="1.50" y2="4.50" />
    <line x1="15.00" y1="10.50" x2="12.00" y2="10.50" />
    <line x1="12.00" y1="10.50" x2="10.50" y2="9.00" />
    <line x1="10.50" y1="9.00" x2="10.50" y2="6.00" />
    <line x1="10.50" y1="6.00" x2="12.00" y2="4.50" />
    <line x1="12.00" y1="4.50" x2="15.00" y2="4.50" />
    <line x1="15.00" y1="4.50" x2="16.50" y2="6.00" />
    <line x1="16.50" y1="6.00" x2="16.50" y2="9.00" />
    <line x1="16.50" y1="9.00" x2="15.00" y2="10.50" />
    <line x1="27.00" y1="10.50" x2="22.50" y2="10.50" />
    <line x1="22.50" y1="10.50" x2="21.00" y2="9.00" />
    <line x1="21.00" y1="9.00" x2="21.00" y2="6.00" />
    <line x1="21.00" y1="6.00" x2="22.50" y2="4.50" />
    <line x1="22.50" y1="4.50" x2="27.00" y2="4.50" />
    <line x1="27.00" y1="0.00" x2="27.00" y2="10.50" />
    <line x1="37.50" y1="10.50" x2="33.00" y2="10.50" />
    <line x1="33.00" y1="10.50" x2="31.50" y2="9.00" />
    <line x1="31.50" y1="9.00" x2="33.00" y2="7.50" />
    <line x1="33.00" y1="7.50" x2="37.50" y2="7.50" />
    <line x1="33.00" y1="4.50" x2="36.00" y2="4.50" />
    <line x1="36.00" y1="4.50" x2="37.50" y2="6.00" />
    <line x1="37.50" y1="6.00" x2="37.50" y2="10.50" />
    <line x1="42.00" y1="4.50" x2="42.00" y2="9.00" />
    <line x1="42.00" y1="9.00" x2="43.50" y2="10.50" />
    <line x1="43.50" y1="10.50" x2="48.00" y2="10.50" />
    <line x1="48.00" y1="4.50" x2="48.00" y2="12.00" />
    <line x1="48.00" y1="12.00" x2="46.50" y2="13.50" />
    <line x1="46.50" y1="13.50" x2="43.50" y2="13.50" />
    <line x1="55.50" y1="0.00" x2="55.50" y2="3.00" />
    <line x1="63.00" y1="10.50" x2="67.50" y2="10.50" />
    <line x1="67.50" y1="10.50" x2="69.00" y2="9.00" />
    <line x1="69.00" y1="9.00" x2="67.50" y2="7.50" />
    <line x1="67.50" y1="7.50" x2="64.50" y2="7.50" />
    <line x1="64.50" y1="7.50" x2="63.00" y2="6.00" />
    <line x1="63.00" y1="6.00" x2="64.50" y2="4.50" />
    <line x1="64.50" y1="4.50" x2="69.00" y2="4.50" />
    <line x1="78.00" y1="9.00" x2="82.50" y2="9.00" />
    <line x1="82.50" y1="9.00" x2="84.00" y2="7.50" />
    <line x1="84.00" y1="7.50" x2="82.50" y2="6.00" />
    <line x1="82.50" y1="6.00" x2="79.50" y2="6.00" />
    <line x1="79.50" y1="6.00" x2="78.00" y2="4.50" />
    <line x1="78.00" y1="4.50" x2="79.50" y2="3.00" />
    <line x1="79.50" y1="3.00" x2="84.00" y2="3.00" />
    <line x1="81.00" y1="1.50" x2="81.00" y2="10.50" />
    <line x1="88.50" y1="4.50" x2="88.50" y2="9.00" />
    <line x1="88.50" y1="9.00" x2="90.00" y2="10.50" />
    <line x1="90.00" y1="10.50" x2="94.50" y2="10.50" />
    <line x1="94.50" y1="10.50" x2="94.50" y2="4.50" />
    <line x1="105.00" y1="10.50" x2="100.50" y2="10.50" />
    <line x1="100.50" y1="10.50" x2="99.00" y2="9.00" />
    <line x1="99.00" y1="9.00" x2="99.00" y2="6.00" />
    <line x1="99.00" y1="6.00" x2="100.50" y2="4.50" />
    <line x1="100.50" y1="4.50" x2="105.00" y2="4.50" />
    <line x1="111.00" y1="0.00" x2="111.00" y2="10.50" />
    <line x1="115.50" y1="10.50" x2="112.50" y2="7.50" />
    <line x1="111.00" y1="7.50" x2="112.50" y2="7.50" />
    <line x1="112.50" y1="7.50" x2="115.50" y2="4.50" />
  </g>
</svg>