<?xml version="1.0" encoding="UTF-8"?>
<svg xmlns="http://www.w3.org/2000/svg" width="149.86mm" height="25.40mm" viewBox="0 0 149.86 25.40">
  <g stroke="black" stroke-width="0.40" fill="none">
    <line x1="0.00" y1="0.00" x2="0.00" y2="17.78" />
    <line x1="0.00" y1="7.62" x2="7.62" y2="7.62" />
    <line x1="7.62" y1="7.62" x2="10.16" y2="10.16" />
    <line x1="10.16" y1="10.16" x2="10.16" y2="17.78" />
    <line x1="27.94" y1="17.78" x2="20.32" y2="17.78" />
    <line x1="20.32" y1="17.78" x2="17.78" y2="15.24" />
    <line x1="17.78" y1="15.24" x2="17.78" y2="10.16" />
    <line x1="17.78" y1="10.16" x2="20.32" y2="7.62" />
    <line x1="20.32" y1="7.62" x2="25.40" y2="7.62" />
    <line x1="25.40" y1="7.62" x2="27.94" y2="10.16" />
    <line x1="27.94" y1="10.16" x2="27.94" y2="12.70" />
    <line x1="27.94" y1="12.70" x2="17.78" y2="12.70" />
    <line x1="38.10" y1="0.00" x2="40.64" y2="0.00" />
    <line x1="40.64" y1="0.00" x2="40.64" y2="17.78" />
    <line x1="55.88" y1="0.00" x2="58.42" y2="0.00" />
    <line x1="58.42" y1="0.00" x2="58.42" y2="17.78" />
    <line x1="78.74" y1="17.78" x2="73.66" y2="17.78" />
    <line x1="73.66" y1="17.78" x2="71.12" y2="15.24" />
    <line x1="71.12" y1="15.24" x2="71.12" y2="10.16" />
    <line x1="71.12" y1="10.16" x2="73.66" y2="7.62" />
    <line x1="73.66" y1="7.62" x2="78.74" y2="7.62" />
    <line x1="78.74" y1="7.62" x2="81.28" y2="10.16" />
    <line x1="81.28" y1="10.16" x2="81.28" y2="15.24" />
    <line x1="81.28" y1="15.24" x2="78.74" y2="17.78" />
    <line x1="99.06" y1="17.78" x2="99.06" y2="2.54" />
    <line x1="99.06" y1="2.54" x2="101.60" y2="0.00" />
    <line x1="101.60" y1="0.00" x2="106.68" y2="0.00" />
    <line x1="96.52" y1="7.62" x2="104.14" y2="7.62" />
    <line x1="119.38" y1="17.78" x2="119.38" y2="7.62" />
    <line x1="119.38" y1="7.62" x2="116.84" y2="7.62" />
    <line x1="142.24" y1="17.78" x2="134.62" y2="17.78" />
    <line x1="134.62" y1="17.78" x2="132.08" y2="15.24" />
    <line x1="132.08" y1="15.24" x2="134.62" y2="12.70" />
    <line x1="134.62" y1="12.70" x2="142.24" y2="12.70" />
    <line x1="134.62" y1="7.62" x2="139.70" y2="7.62" />
    <line x1="139.70" y1="7.62" x2="142.24" y2="10.16" />
    <line x1="142.24" y1="10.16" x2="142.24" y2="17.78" />
  </g>
</svg>