<?xml version="1.0" encoding="UTF-8"?>
<svg xmlns="http://www.w3.org/2000/svg" width="256.40mm" height="227.00mm" viewBox="0 0 256.40 227.00">
  <g stroke="black" stroke-width="0.30" fill="none">
    <line x1="5.00" y1="5.00" x2="5.00" y2="10.60" />
    <line x1="5.00" y1="7.40" x2="7.40" y2="7.40" />
    <line x1="7.40" y1="7.40" x2="8.20" y2="8.20" />
    <line x1="8.20" y1="8.20" x2="8.20" y2="10.60" />
    <line x1="12.20" y1="10.60" x2="12.20" y2="7.40" />
    <line x1="12.20" y1="7.40" x2="11.40" y2="7.40" />
    <line x1="17.00" y1="5.80" x2="17.00" y2="9.80" />
    <line x1="17.00" y1="9.80" x2="17.80" y2="10.60" />
    <line x1="17.80" y1="10.60" x2="19.40" y2="10.60" />
    <line x1="18.60" y1="7.40" x2="17.00" y2="7.40" />
    <line x1="21.80" y1="10.60" x2="24.20" y2="10.60" />
    <line x1="24.20" y1="10.60" x2="25.00" y2="9.80" />
    <line x1="25.00" y1="9.80" x2="24.20" y2="9.00" />
    <line x1="24.20" y1="9.00" x2="22.60" y2="9.00" />
    <line x1="22.60" y1="9.00" x2="21.80" y2="8.20" />
    <line x1="21.80" y1="8.20" x2="22.60" y2="7.40" />
    <line x1="22.60" y1="7.40" x2="25.00" y2="7.40" />
    <line x1="33.00" y1="6.60" x2="33.80" y2="5.80" />
    <line x1="33.80" y1="5.80" x2="35.40" y2="5.80" />
    <line x1="35.40" y1="5.80" x2="36.20" y2="6.60" />
    <line x1="36.20" y1="6.60" x2="36.20" y2="7.40" />
    <line x1="36.20" y1="7.40" x2="35.40" y2="8.20" />
    <line x1="35.40" y1="8.20" x2="34.60" y2="8.20" />
    <line x1="35.40" y1="8.20" x2="36.20" y2="9.00" />
    <line x1="36.20" y1="9.00" x2="36.20" y2="9.80" />
    <line x1="36.20" y1="9.80" x2="35.40" y2="10.60" />
    <line x1="35.40" y1="10.60" x2="33.80" y2="10.60" />
    <line x1="33.80" y1="10.60" x2="33.00" y2="9.80" />
    <line x1="41.00" y1="5.80" x2="40.20" y2="5.80" />
    <line x1="40.20" y1="5.80" x2="38.60" y2="7.40" />
    <line x1="38.60" y1="7.40" x2="38.60" y2="9.80" />
    <line x1="38.60" y1="9.80" x2="39.40" y2="10.60" />
    <line x1="39.40" y1="10.60" x2="41.00" y2="10.60" />
    <line x1="41.00" y1="10.60" x2="41.80" y2="9.80" />
    <line x1="41.80" y1="9.80" x2="41.80" y2="9.00" />
    <line x1="41.80" y1="9.00" x2="41.00" y2="8.20" />
    <line x1="41.00" y1="8.20" x2="38.60" y2="8.20" />
    <line x1="44.20" y1="6.60" x2="45.00" y2="5.80" />
    <line x1="45.00" y1="5.80" x2="46.60" y2="5.80" />
    <line x1="46.60" y1="5.80" x2="47.40" y2="6.60" />
    <line x1="47.40" y1="6.60" x2="47.40" y2="7.40" />
    <line x1="47.40" y1="7.40" x2="46.60" y2="8.20" />
    <line x1="46.60" y1="8.20" x2="45.80" y2="8.20" />
    <line x1="46.60" y1="8.20" x2="47.40" y2="9.00" />
    <line x1="47.40" y1="9.00" x2="47.40" y2="9.80" />
    <line x1="47.40" y1="9.80" x2="46.60" y2="10.60" />
    <line x1="46.60" y1="10.60" x2="45.00" y2="10.60" />
    <line x1="45.00" y1="10.60" x2="44.20" y2="9.80" />
    <line x1="52.20" y1="5.00" x2="52.20" y2="10.60" />
    <line x1="52.20" y1="7.40" x2="54.60" y2="7.40" />
    <line x1="54.60" y1="7.40" x2="55.40" y2="8.20" />
    <line x1="55.40" y1="8.20" x2="55.40" y2="10.60" />
    <line x1="61.00" y1="10.60" x2="58.60" y2="10.60" />
    <line x1="58.60" y1="10.60" x2="57.80" y2="9.80" />
    <line x1="57.80" y1="9.80" x2="58.60" y2="9.00" />
    <line x1="58.60" y1="9.00" x2="61.00" y2="9.00" />
    <line x1="58.60" y1="7.40" x2="60.20" y2="7.40" />
    <line x1="60.20" y1="7.40" x2="61.00" y2="8.20" />
    <line x1="61.00" y1="8.20" x2="61.00" y2="10.60" />
    <line x1="63.40" y1="10.60" x2="65.80" y2="10.60" />
    <line x1="65.80" y1="10.60" x2="66.60" y2="9.80" />
    <line x1="66.60" y1="9.80" x2="65.80" y2="9.00" />
    <line x1="65.80" y1="9.00" x2="64.20" y2="9.00" />
    <line x1="64.20" y1="9.00" x2="63.40" y2="8.20" />
    <line x1="63.40" y1="8.20" x2="64.20" y2="7.40" />
    <line x1="64.20" y1="7.40" x2="66.60" y2="7.40" />
    <line x1="69.00" y1="5.00" x2="69.00" y2="10.60" />
    <line x1="69.00" y1="7.40" x2="71.40" y2="7.40" />
    <line x1="71.40" y1="7.40" x2="72.20" y2="8.20" />
    <line x1="72.20" y1="8.20" x2="72.20" y2="10.60" />
    <line x1="81.00" y1="6.60" x2="81.80" y2="5.80" />
    <line x1="81.80" y1="5.80" x2="81.80" y2="10.60" />
    <line x1="81.00" y1="10.60" x2="82.60" y2="10.60" />
    <line x1="86.60" y1="5.80" x2="88.20" y2="5.80" />
    <line x1="88.20" y1="5.80" x2="89.00" y2="6.60" />
    <line x1="89.00" y1="6.60" x2="89.00" y2="9.80" />
    <line x1="89.00" y1="9.80" x2="88.20" y2="10.60" />
    <line x1="88.20" y1="10.60" x2="86.60" y2="10.60" />
    <line x1="86.60" y1="10.60" x2="85.80" y2="9.80" />
    <line x1="85.80" y1="9.80" x2="85.80" y2="6.60" />
    <line x1="85.80" y1="6.60" x2="86.60" y2="5.80" />
    <line x1="91.40" y1="5.80" x2="94.60" y2="5.80" />
    <line x1="94.60" y1="5.80" x2="94.60" y2="6.60" />
    <line x1="94.60" y1="6.60" x2="92.20" y2="10.60" />
    <line x1="97.80" y1="10.60" x2="98.60" y2="10.60" />
    <line x1="98.60" y1="10.60" x2="100.20" y2="9.00" />
    <line x1="100.20" y1="9.00" x2="100.20" y2="6.60" />
    <line x1="100.20" y1="6.60" x2="99.40" y2="5.80" />
    <line x1="99.40" y1="5.80" x2="97.80" y2="5.80" />
    <line x1="97.80" y1="5.80" x2="97.00" y2="6.60" />
    <line x1="97.00" y1="6.60" x2="97.00" y2="7.40" />
    <line x1="97.00" y1="7.40" x2="97.80" y2="8.20" />
    <line x1="97.80" y1="8.20" x2="100.20" y2="8.20" />
    <line x1="105.00" y1="5.80" x2="104.20" y2="5.80" />
    <line x1="104.20" y1="5.80" x2="102.60" y2="7.40" />
    <line x1="102.60" y1="7.40" x2="102.60" y2="9.80" />
    <line x1="102.60" y1="9.80" x2="103.40" y2="10.60" />
    <line x1="103.40" y1="10.60" x2="105.00" y2="10.60" />
    <line x1="105.00" y1="10.60" x2="105.80" y2="9.80" />
    <line x1="105.80" y1="9.80" x2="105.80" y2="9.00" />
    <line x1="105.80" y1="9.00" x2="105.00" y2="8.20" />
    <line x1="105.00" y1="8.20" x2="102.60" y2="8.20" />
    <line x1="108.20" y1="5.00" x2="108.20" y2="10.60" />
    <line x1="108.20" y1="10.60" x2="110.60" y2="10.60" />
    <line x1="110.60" y1="10.60" x2="111.40" y2="9.80" />
    <line x1="111.40" y1="9.80" x2="111.40" y2="8.20" />
    <line x1="111.40" y1="8.20" x2="110.60" y2="7.40" />
    <line x1="110.60" y1="7.40" x2="108.20" y2="7.40" />
    <line x1="113.80" y1="5.80" x2="117.00" y2="5.80" />
    <line x1="117.00" y1="5.80" x2="117.00" y2="6.60" />
    <line x1="117.00" y1="6.60" x2="114.60" y2="10.60" />
    <line x1="119.40" y1="5.00" x2="119.40" y2="10.60" />
    <line x1="119.40" y1="10.60" x2="121.80" y2="10.60" />
    <line x1="121.80" y1="10.60" x2="122.60" y2="9.80" />
    <line x1="122.60" y1="9.80" x2="122.60" y2="8.20" />
    <line x1="122.60" y1="8.20" x2="121.80" y2="7.40" />
    <line x1="121.80" y1="7.40" x2="119.40" y2="7.40" />
    <line x1="128.20" y1="10.60" x2="125.80" y2="10.60" />
    <line x1="125.80" y1="10.60" x2="125.00" y2="9.80" />
    <line x1="125.00" y1="9.80" x2="125.00" y2="8.20" />
    <line x1="125.00" y1="8.20" x2="125.80" y2="7.40" />
    <line x1="125.80" y1="7.40" x2="128.20" y2="7.40" />
    <line x1="128.20" y1="5.00" x2="128.20" y2="10.60" />
    <line x1="130.60" y1="6.60" x2="131.40" y2="5.80" />
    <line x1="131.40" y1="5.80" x2="133.00" y2="5.80" />
    <line x1="133.00" y1="5.80" x2="133.80" y2="6.60" />
    <line x1="133.80" y1="6.60" x2="133.80" y2="7.40" />
    <line x1="133.80" y1="7.40" x2="133.00" y2="8.20" />
    <line x1="133.00" y1="8.20" x2="132.20" y2="8.20" />
    <line x1="132.20" y1="8.20" x2="130.60" y2="9.80" />
    <line x1="130.60" y1="9.80" x2="130.60" y2="10.60" />
    <line x1="130.60" y1="10.60" x2="133.80" y2="10.60" />
    <line x1="5.80" y1="21.60" x2="5.80" y2="16.80" />
    <line x1="5.80" y1="16.80" x2="6.60" y2="16.00" />
    <line x1="6.60" y1="16.00" x2="8.20" y2="16.00" />
    <line x1="5.00" y1="18.40" x2="7.40" y2="18.40" />
    <line x1="13.80" y1="21.60" x2="11.40" y2="21.60" />
    <line x1="11.40" y1="21.60" x2="10.60" y2="20.80" />
    <line x1="10.60" y1="20.80" x2="11.40" y2="20.00" />
    <line x1="11.40" y1="20.00" x2="13.80" y2="20.00" />
    <line x1="11.40" y1="18.40" x2="13.00" y2="18.40" />
    <line x1="13.00" y1="18.40" x2="13.80" y2="19.20" />
    <line x1="13.80" y1="19.20" x2="13.80" y2="21.60" />
    <line x1="19.40" y1="21.60" x2="17.00" y2="21.60" />
    <line x1="17.00" y1="21.60" x2="16.20" y2="20.80" />
    <line x1="16.20" y1="20.80" x2="16.20" y2="19.20" />
    <line x1="16.20" y1="19.20" x2="17.00" y2="18.40" />
    <line x1="17.00" y1="18.40" x2="19.40" y2="18.40" />
    <line x1="19.40" y1="16.00" x2="19.40" y2="21.60" />
    <line x1="25.00" y1="21.60" x2="22.60" y2="21.60" />
    <line x1="22.60" y1="21.60" x2="21.80" y2="20.80" />
    <line x1="21.80" y1="20.80" x2="21.80" y2="19.20" />
    <line x1="21.80" y1="19.20" x2="22.60" y2="18.40" />
    <line x1="22.60" y1="18.40" x2="24.20" y2="18.40" />
    <line x1="24.20" y1="18.40" x2="25.00" y2="19.20" />
    <line x1="25.00" y1="19.20" x2="25.00" y2="20.00" />
    <line x1="25.00" y1="20.00" x2="21.80" y2="20.00" />
    <line x1="33.80" y1="16.00" x2="34.60" y2="16.00" />
    <line x1="34.60" y1="16.00" x2="34.60" y2="21.60" />
    <line x1="40.20" y1="21.60" x2="40.20" y2="18.40" />
    <line x1="40.20" y1="18.40" x2="39.40" y2="18.40" />
    <line x1="45.00" y1="23.20" x2="46.60" y2="23.20" />
    <line x1="46.60" y1="23.20" x2="47.40" y2="22.40" />
    <line x1="47.40" y1="22.40" x2="47.40" y2="19.20" />
    <line x1="47.40" y1="19.20" x2="46.60" y2="18.40" />
    <line x1="46.60" y1="18.40" x2="45.00" y2="18.40" />
    <line x1="45.00" y1="18.40" x2="44.20" y2="19.20" />
    <line x1="44.20" y1="19.20" x2="44.20" y2="20.80" />
    <line x1="44.20" y1="20.80" x2="45.00" y2="21.60" />
    <line x1="45.00" y1="21.60" x2="47.40" y2="21.60" />
    <line x1="49.80" y1="16.00" x2="49.80" y2="21.60" />
    <line x1="49.80" y1="18.40" x2="52.20" y2="18.40" />
    <line x1="52.20" y1="18.40" x2="53.00" y2="19.20" />
    <line x1="53.00" y1="19.20" x2="53.00" y2="21.60" />
    <line x1="56.20" y1="16.80" x2="56.20" y2="20.80" />
    <line x1="56.20" y1="20.80" x2="57.00" y2="21.60" />
    <line x1="57.00" y1="21.60" x2="58.60" y2="21.60" />
    <line x1="57.80" y1="18.40" x2="56.20" y2="18.40" />
    <line x1="61.00" y1="21.60" x2="63.40" y2="21.60" />
    <line x1="63.40" y1="21.60" x2="64.20" y2="20.80" />
    <line x1="64.20" y1="20.80" x2="63.40" y2="20.00" />
    <line x1="63.40" y1="20.00" x2="61.80" y2="20.00" />
    <line x1="61.80" y1="20.00" x2="61.00" y2="19.20" />
    <line x1="61.00" y1="19.20" x2="61.80" y2="18.40" />
    <line x1="61.80" y1="18.40" x2="64.20" y2="18.40" />
    <line x1="67.40" y1="16.80" x2="67.40" y2="20.80" />
    <line x1="67.40" y1="20.80" x2="68.20" y2="21.60" />
    <line x1="68.20" y1="21.60" x2="69.80" y2="21.60" />
    <line x1="69.00" y1="18.40" x2="67.40" y2="18.40" />
    <line x1="75.40" y1="21.60" x2="73.00" y2="21.60" />
    <line x1="73.00" y1="21.60" x2="72.20" y2="20.80" />
    <line x1="72.20" y1="20.80" x2="72.20" y2="19.20" />
    <line x1="72.20" y1="19.20" x2="73.00" y2="18.40" />
    <line x1="73.00" y1="18.40" x2="74.60" y2="18.40" />
    <line x1="74.60" y1="18.40" x2="75.40" y2="19.20" />
    <line x1="75.40" y1="19.20" x2="75.40" y2="20.00" />
    <line x1="75.40" y1="20.00" x2="72.20" y2="20.00" />
    <line x1="81.00" y1="21.60" x2="78.60" y2="21.60" />
    <line x1="78.60" y1="21.60" x2="77.80" y2="20.80" />
    <line x1="77.80" y1="20.80" x2="77.80" y2="19.20" />
    <line x1="77.80" y1="19.20" x2="78.60" y2="18.40" />
    <line x1="78.60" y1="18.40" x2="80.20" y2="18.40" />
    <line x1="80.20" y1="18.40" x2="81.00" y2="19.20" />
    <line x1="81.00" y1="19.20" x2="81.00" y2="20.00" />
    <line x1="81.00" y1="20.00" x2="77.80" y2="20.00" />
    <line x1="84.20" y1="16.00" x2="85.00" y2="16.00" />
    <line x1="85.00" y1="16.00" x2="85.00" y2="21.60" />
    <line x1="89.00" y1="16.00" x2="89.00" y2="21.60" />
    <line x1="89.00" y1="21.60" x2="91.40" y2="21.60" />
    <line x1="91.40" y1="21.60" x2="92.20" y2="20.80" />
    <line x1="92.20" y1="20.80" x2="92.20" y2="19.20" />
    <line x1="92.20" y1="19.20" x2="91.40" y2="18.40" />
    <line x1="91.40" y1="18.40" x2="89.00" y2="18.40" />
    <line x1="95.40" y1="16.00" x2="96.20" y2="16.00" />
    <line x1="96.20" y1="16.00" x2="96.20" y2="21.60" />
    <line x1="100.20" y1="18.40" x2="100.20" y2="20.80" />
    <line x1="100.20" y1="20.80" x2="101.00" y2="21.60" />
    <line x1="101.00" y1="21.60" x2="103.40" y2="21.60" />
    <line x1="103.40" y1="21.60" x2="103.40" y2="18.40" />
    <line x1="109.00" y1="21.60" x2="106.60" y2="21.60" />
    <line x1="106.60" y1="21.60" x2="105.80" y2="20.80" />
    <line x1="105.80" y1="20.80" x2="105.80" y2="19.20" />
    <line x1="105.80" y1="19.20" x2="106.60" y2="18.40" />
    <line x1="106.60" y1="18.40" x2="108.20" y2="18.40" />
    <line x1="108.20" y1="18.40" x2="109.00" y2="19.20" />
    <line x1="109.00" y1="19.20" x2="109.00" y2="20.00" />
    <line x1="109.00" y1="20.00" x2="105.80" y2="20.00" />
    <line x1="111.40" y1="19.20" x2="114.60" y2="19.20" />
    <line x1="117.00" y1="23.20" x2="117.00" y2="18.40" />
    <line x1="117.00" y1="18.40" x2="119.40" y2="18.40" />
    <line x1="119.40" y1="18.40" x2="120.20" y2="19.20" />
    <line x1="120.20" y1="19.20" x2="120.20" y2="20.80" />
    <line x1="120.20" y1="20.80" x2="119.40" y2="21.60" />
    <line x1="119.40" y1="21.60" x2="117.00" y2="21.60" />
    <line x1="124.20" y1="21.60" x2="124.20" y2="18.40" />
    <line x1="124.20" y1="18.40" x2="123.40" y2="18.40" />
    <line x1="128.20" y1="21.60" x2="128.20" y2="18.40" />
    <line x1="128.20" y1="18.40" x2="130.60" y2="18.40" />
    <line x1="130.60" y1="18.40" x2="131.40" y2="19.20" />
    <line x1="131.40" y1="19.20" x2="131.40" y2="21.60" />
    <line x1="134.60" y1="16.00" x2="134.60" y2="21.60" />
    <line x1="137.00" y1="21.60" x2="135.40" y2="20.00" />
    <line x1="134.60" y1="20.00" x2="135.40" y2="20.00" />
    <line x1="135.40" y1="20.00" x2="137.00" y2="18.40" />
    <line x1="139.40" y1="19.20" x2="142.60" y2="19.20" />
    <line x1="145.80" y1="16.00" x2="146.60" y2="16.00" />
    <line x1="146.60" y1="16.00" x2="146.60" y2="21.60" />
    <line x1="152.20" y1="21.60" x2="152.20" y2="18.40" />
    <line x1="152.20" y1="18.40" x2="151.40" y2="18.40" />
    <line x1="157.00" y1="23.20" x2="158.60" y2="23.20" />
    <line x1="158.60" y1="23.20" x2="159.40" y2="22.40" />
    <line x1="159.40" y1="22.40" x2="159.40" y2="19.20" />
    <line x1="159.40" y1="19.20" x2="158.60" y2="18.40" />
    <line x1="158.60" y1="18.40" x2="157.00" y2="18.40" />
    <line x1="157.00" y1="18.40" x2="156.20" y2="19.20" />
    <line x1="156.20" y1="19.20" x2="156.20" y2="20.80" />
    <line x1="156.20" y1="20.80" x2="157.00" y2="21.60" />
    <line x1="157.00" y1="21.60" x2="159.40" y2="21.60" />
    <line x1="161.80" y1="16.00" x2="161.80" y2="21.60" />
    <line x1="161.80" y1="18.40" x2="164.20" y2="18.40" />
    <line x1="164.20" y1="18.40" x2="165.00" y2="19.20" />
    <line x1="165.00" y1="19.20" x2="165.00" y2="21.60" />
    <line x1="168.20" y1="16.80" x2="168.20" y2="20.80" />
    <line x1="168.20" y1="20.80" x2="169.00" y2="21.60" />
    <line x1="169.00" y1="21.60" x2="170.60" y2="21.60" />
    <line x1="169.80" y1="18.40" x2="168.20" y2="18.40" />
    <line x1="173.80" y1="23.20" x2="175.40" y2="23.20" />
    <line x1="175.40" y1="23.20" x2="176.20" y2="22.40" />
    <line x1="176.20" y1="22.40" x2="176.20" y2="19.20" />
    <line x1="176.20" y1="19.20" x2="175.40" y2="18.40" />
    <line x1="175.40" y1="18.40" x2="173.80" y2="18.40" />
    <line x1="173.80" y1="18.40" x2="173.00" y2="19.20" />
    <line x1="173.00" y1="19.20" x2="173.00" y2="20.80" />
    <line x1="173.00" y1="20.80" x2="173.80" y2="21.60" />
    <line x1="173.80" y1="21.60" x2="176.20" y2="21.60" />
    <line x1="178.60" y1="21.60" x2="178.60" y2="18.40" />
    <line x1="178.60" y1="19.20" x2="179.40" y2="19.20" />
    <line x1="179.40" y1="19.20" x2="180.20" y2="18.40" />
    <line x1="180.20" y1="18.40" x2="181.00" y2="18.40" />
    <line x1="181.00" y1="18.40" x2="181.80" y2="19.20" />
    <line x1="187.40" y1="21.60" x2="185.00" y2="21.60" />
    <line x1="185.00" y1="21.60" x2="184.20" y2="20.80" />
    <line x1="184.20" y1="20.80" x2="184.20" y2="19.20" />
    <line x1="184.20" y1="19.20" x2="185.00" y2="18.40" />
    <line x1="185.00" y1="18.40" x2="186.60" y2="18.40" />
    <line x1="186.60" y1="18.40" x2="187.40" y2="19.20" />
    <line x1="187.40" y1="19.20" x2="187.40" y2="20.00" />
    <line x1="187.40" y1="20.00" x2="184.20" y2="20.00" />
    <line x1="193.00" y1="21.60" x2="190.60" y2="21.60" />
    <line x1="190.60" y1="21.60" x2="189.80" y2="20.80" />
    <line x1="189.80" y1="20.80" x2="189.80" y2="19.20" />
    <line x1="189.80" y1="19.20" x2="190.60" y2="18.40" />
    <line x1="190.60" y1="18.40" x2="192.20" y2="18.40" />
    <line x1="192.20" y1="18.40" x2="193.00" y2="19.20" />
    <line x1="193.00" y1="19.20" x2="193.00" y2="20.00" />
    <line x1="193.00" y1="20.00" x2="189.80" y2="20.00" />
    <line x1="195.40" y1="21.60" x2="195.40" y2="18.40" />
    <line x1="195.40" y1="18.40" x2="197.80" y2="18.40" />
    <line x1="197.80" y1="18.40" x2="198.60" y2="19.20" />
    <line x1="198.60" y1="19.20" x2="198.60" y2="21.60" />
    <line x1="206.60" y1="18.40" x2="206.60" y2="19.20" />
    <line x1="206.60" y1="19.20" x2="207.40" y2="20.00" />
    <line x1="207.40" y1="20.00" x2="207.40" y2="20.80" />
    <line x1="207.40" y1="20.80" x2="208.20" y2="21.60" />
    <line x1="208.20" y1="21.60" x2="209.00" y2="20.80" />
    <line x1="209.00" y1="20.80" x2="209.00" y2="20.00" />
    <line x1="209.00" y1="20.00" x2="209.80" y2="19.20" />
    <line x1="209.80" y1="19.20" x2="209.80" y2="18.40" />
    <line x1="215.40" y1="21.60" x2="213.00" y2="21.60" />
    <line x1="213.00" y1="21.60" x2="212.20" y2="20.80" />
    <line x1="212.20" y1="20.80" x2="212.20" y2="19.20" />
    <line x1="212.20" y1="19.20" x2="213.00" y2="18.40" />
    <line x1="213.00" y1="18.40" x2="214.60" y2="18.40" />
    <line x1="214.60" y1="18.40" x2="215.40" y2="19.20" />
    <line x1="215.40" y1="19.20" x2="215.40" y2="20.00" />
    <line x1="215.40" y1="20.00" x2="212.20" y2="20.00" />
    <line x1="217.80" y1="21.60" x2="217.80" y2="18.40" />
    <line x1="217.80" y1="19.20" x2="218.60" y2="19.20" />
    <line x1="218.60" y1="19.20" x2="219.40" y2="18.40" />
    <line x1="219.40" y1="18.40" x2="220.20" y2="18.40" />
    <line x1="220.20" y1="18.40" x2="221.00" y2="19.20" />
    <line x1="224.20" y1="16.80" x2="224.20" y2="20.80" />
    <line x1="224.20" y1="20.80" x2="225.00" y2="21.60" />
    <line x1="225.00" y1="21.60" x2="226.60" y2="21.60" />
    <line x1="225.80" y1="18.40" x2="224.20" y2="18.40" />
    <line x1="230.60" y1="21.60" x2="230.60" y2="18.40" />
    <line x1="230.60" y1="18.40" x2="229.80" y2="18.40" />
    <line x1="237.80" y1="21.60" x2="235.40" y2="21.60" />
    <line x1="235.40" y1="21.60" x2="234.60" y2="20.80" />
    <line x1="234.60" y1="20.80" x2="234.60" y2="19.20" />
    <line x1="234.60" y1="19.20" x2="235.40" y2="18.40" />
    <line x1="235.40" y1="18.40" x2="237.80" y2="18.40" />
    <line x1="243.40" y1="21.60" x2="241.00" y2="21.60" />
    <line x1="241.00" y1="21.60" x2="240.20" y2="20.80" />
    <line x1="240.20" y1="20.80" x2="241.00" y2="20.00" />
    <line x1="241.00" y1="20.00" x2="243.40" y2="20.00" />
    <line x1="241.00" y1="18.40" x2="242.60" y2="18.40" />
    <line x1="242.60" y1="18.40" x2="243.40" y2="19.20" />
    <line x1="243.40" y1="19.20" x2="243.40" y2="21.60" />
    <line x1="246.60" y1="16.00" x2="247.40" y2="16.00" />
    <line x1="247.40" y1="16.00" x2="247.40" y2="21.60" />
    <line x1="5.00" y1="32.60" x2="7.40" y2="32.60" />
    <line x1="7.40" y1="32.60" x2="8.20" y2="31.80" />
    <line x1="8.20" y1="31.80" x2="7.40" y2="31.00" />
    <line x1="7.40" y1="31.00" x2="5.80" y2="31.00" />
    <line x1="5.80" y1="31.00" x2="5.00" y2="30.20" />
    <line x1="5.00" y1="30.20" x2="5.80" y2="29.40" />
    <line x1="5.80" y1="29.40" x2="8.20" y2="29.40" />
    <line x1="10.60" y1="34.20" x2="10.60" y2="29.40" />
    <line x1="10.60" y1="29.40" x2="13.00" y2="29.40" />
    <line x1="13.00" y1="29.40" x2="13.80" y2="30.20" />
    <line x1="13.80" y1="30.20" x2="13.80" y2="31.80" />
    <line x1="13.80" y1="31.80" x2="13.00" y2="32.60" />
    <line x1="13.00" y1="32.60" x2="10.60" y2="32.60" />
    <line x1="17.80" y1="32.60" x2="17.80" y2="29.40" />
    <line x1="17.80" y1="29.40" x2="17.00" y2="29.40" />
    <line x1="21.80" y1="32.60" x2="21.80" y2="29.40" />
    <line x1="21.80" y1="29.40" x2="24.20" y2="29.40" />
    <line x1="24.20" y1="29.40" x2="25.00" y2="30.20" />
    <line x1="25.00" y1="30.20" x2="25.00" y2="32.60" />
    <line x1="29.80" y1="30.20" x2="33.00" y2="30.20" />
    <line x1="36.20" y1="28.60" x2="37.00" y2="27.80" />
    <line x1="37.00" y1="27.80" x2="37.00" y2="32.60" />
    <line x1="36.20" y1="32.60" x2="37.80" y2="32.60" />
    <line x1="41.80" y1="27.80" x2="43.40" y2="27.80" />
    <line x1="43.40" y1="27.80" x2="44.20" y2="28.60" />
    <line x1="44.20" y1="28.60" x2="44.20" y2="31.80" />
    <line x1="44.20" y1="31.80" x2="43.40" y2="32.60" />
    <line x1="43.40" y1="32.60" x2="41.80" y2="32.60" />
    <line x1="41.80" y1="32.60" x2="41.00" y2="31.80" />
    <line x1="41.00" y1="31.80" x2="41.00" y2="28.60" />
    <line x1="41.00" y1="28.60" x2="41.80" y2="27.80" />
    <line x1="5.00" y1="43.60" x2="7.40" y2="43.60" />
    <line x1="7.40" y1="43.60" x2="8.20" y2="42.80" />
    <line x1="8.20" y1="42.80" x2="7.40" y2="42.00" />
    <line x1="7.40" y1="42.00" x2="5.80" y2="42.00" />
    <line x1="5.80" y1="42.00" x2="5.00" y2="41.20" />
    <line x1="5.00" y1="41.20" x2="5.80" y2="40.40" />
    <line x1="5.80" y1="40.40" x2="8.20" y2="40.40" />
    <line x1="13.80" y1="43.60" x2="11.40" y2="43.60" />
    <line x1="11.40" y1="43.60" x2="10.60" y2="42.80" />
    <line x1="10.60" y1="42.80" x2="10.60" y2="41.20" />
    <line x1="10.60" y1="41.20" x2="11.40" y2="40.40" />
    <line x1="11.40" y1="40.40" x2="13.80" y2="40.40" />
    <line x1="16.20" y1="43.60" x2="16.20" y2="40.40" />
    <line x1="16.20" y1="41.20" x2="17.00" y2="41.20" />
    <line x1="17.00" y1="41.20" x2="17.80" y2="40.40" />
    <line x1="17.80" y1="40.40" x2="18.60" y2="40.40" />
    <line x1="18.60" y1="40.40" x2="19.40" y2="41.20" />
    <line x1="24.20" y1="43.60" x2="22.60" y2="43.60" />
    <line x1="22.60" y1="43.60" x2="21.80" y2="42.80" />
    <line x1="21.80" y1="42.80" x2="21.80" y2="41.20" />
    <line x1="21.80" y1="41.20" x2="22.60" y2="40.40" />
    <line x1="22.60" y1="40.40" x2="24.20" y2="40.40" />
    <line x1="24.20" y1="40.40" x2="25.00" y2="41.20" />
    <line x1="25.00" y1="41.20" x2="25.00" y2="42.80" />
    <line x1="25.00" y1="42.80" x2="24.20" y2="43.60" />
    <line x1="28.20" y1="38.00" x2="29.00" y2="38.00" />
    <line x1="29.00" y1="38.00" x2="29.00" y2="43.60" />
    <line x1="33.80" y1="38.00" x2="34.60" y2="38.00" />
    <line x1="34.60" y1="38.00" x2="34.60" y2="43.60" />
    <line x1="41.80" y1="43.60" x2="41.80" y2="38.80" />
    <line x1="41.80" y1="38.80" x2="42.60" y2="38.00" />
    <line x1="42.60" y1="38.00" x2="44.20" y2="38.00" />
    <line x1="41.00" y1="40.40" x2="43.40" y2="40.40" />
    <line x1="46.60" y1="43.60" x2="46.60" y2="40.40" />
    <line x1="46.60" y1="41.20" x2="47.40" y2="41.20" />
    <line x1="47.40" y1="41.20" x2="48.20" y2="40.40" />
    <line x1="48.20" y1="40.40" x2="49.00" y2="40.40" />
    <line x1="49.00" y1="40.40" x2="49.80" y2="41.20" />
    <line x1="55.40" y1="43.60" x2="53.00" y2="43.60" />
    <line x1="53.00" y1="43.60" x2="52.20" y2="42.80" />
    <line x1="52.20" y1="42.80" x2="53.00" y2="42.00" />
    <line x1="53.00" y1="42.00" x2="55.40" y2="42.00" />
    <line x1="53.00" y1="40.40" x2="54.60" y2="40.40" />
    <line x1="54.60" y1="40.40" x2="55.40" y2="41.20" />
    <line x1="55.40" y1="41.20" x2="55.40" y2="43.60" />
    <line x1="57.80" y1="43.60" x2="57.80" y2="40.40" />
    <line x1="57.80" y1="40.40" x2="58.60" y2="40.40" />
    <line x1="58.60" y1="40.40" x2="59.40" y2="41.20" />
    <line x1="59.40" y1="41.20" x2="59.40" y2="43.60" />
    <line x1="59.40" y1="41.20" x2="60.20" y2="40.40" />
    <line x1="60.20" y1="40.40" x2="61.00" y2="41.20" />
    <line x1="61.00" y1="41.20" x2="61.00" y2="43.60" />
    <line x1="66.60" y1="43.60" x2="64.20" y2="43.60" />
    <line x1="64.20" y1="43.60" x2="63.40" y2="42.80" />
    <line x1="63.40" y1="42.80" x2="63.40" y2="41.20" />
    <line x1="63.40" y1="41.20" x2="64.20" y2="40.40" />
    <line x1="64.20" y1="40.40" x2="65.80" y2="40.40" />
    <line x1="65.80" y1="40.40" x2="66.60" y2="41.20" />
    <line x1="66.60" y1="41.20" x2="66.60" y2="42.00" />
    <line x1="66.60" y1="42.00" x2="63.40" y2="42.00" />
    <line x1="71.40" y1="41.20" x2="74.60" y2="41.20" />
    <line x1="80.20" y1="38.80" x2="77.00" y2="38.80" />
    <line x1="77.00" y1="38.80" x2="77.00" y2="41.20" />
    <line x1="77.00" y1="41.20" x2="79.40" y2="41.20" />
    <line x1="79.40" y1="41.20" x2="80.20" y2="42.00" />
    <line x1="80.20" y1="42.00" x2="80.20" y2="42.80" />
    <line x1="80.20" y1="42.80" x2="79.40" y2="43.60" />
    <line x1="79.40" y1="43.60" x2="77.80" y2="43.60" />
    <line x1="77.80" y1="43.60" x2="77.00" y2="42.80" />
    <line x1="5.00" y1="54.60" x2="7.40" y2="54.60" />
    <line x1="7.40" y1="54.60" x2="8.20" y2="53.80" />
    <line x1="8.20" y1="53.80" x2="7.40" y2="53.00" />
    <line x1="7.40" y1="53.00" x2="5.80" y2="53.00" />
    <line x1="5.80" y1="53.00" x2="5.00" y2="52.20" />
    <line x1="5.00" y1="52.20" x2="5.80" y2="51.40" />
    <line x1="5.80" y1="51.40" x2="8.20" y2="51.40" />
    <line x1="13.80" y1="54.60" x2="11.40" y2="54.60" />
    <line x1="11.40" y1="54.60" x2="10.60" y2="53.80" />
    <line x1="10.60" y1="53.80" x2="10.60" y2="52.20" />
    <line x1="10.60" y1="52.20" x2="11.40" y2="51.40" />
    <line x1="11.40" y1="51.40" x2="13.80" y2="51.40" />
    <line x1="16.20" y1="54.60" x2="16.20" y2="51.40" />
    <line x1="16.20" y1="52.20" x2="17.00" y2="52.20" />
    <line x1="17.00" y1="52.20" x2="17.80" y2="51.40" />
    <line x1="17.80" y1="51.40" x2="18.60" y2="51.40" />
    <line x1="18.60" y1="51.40" x2="19.40" y2="52.20" />
    <line x1="24.20" y1="54.60" x2="22.60" y2="54.60" />
    <line x1="22.60" y1="54.60" x2="21.80" y2="53.80" />
    <line x1="21.80" y1="53.80" x2="21.80" y2="52.20" />
    <line x1="21.80" y1="52.20" x2="22.60" y2="51.40" />
    <line x1="22.60" y1="51.40" x2="24.20" y2="51.40" />
    <line x1="24.20" y1="51.40" x2="25.00" y2="52.20" />
    <line x1="25.00" y1="52.20" x2="25.00" y2="53.80" />
    <line x1="25.00" y1="53.80" x2="24.20" y2="54.60" />
    <line x1="28.20" y1="49.00" x2="29.00" y2="49.00" />
    <line x1="29.00" y1="49.00" x2="29.00" y2="54.60" />
    <line x1="33.80" y1="49.00" x2="34.60" y2="49.00" />
    <line x1="34.60" y1="49.00" x2="34.60" y2="54.60" />
    <line x1="41.00" y1="51.40" x2="41.00" y2="53.00" />
    <line x1="41.00" y1="53.00" x2="41.80" y2="53.80" />
    <line x1="41.80" y1="53.80" x2="41.80" y2="54.60" />
    <line x1="44.20" y1="51.40" x2="44.20" y2="53.00" />
    <line x1="44.20" y1="53.00" x2="43.40" y2="53.80" />
    <line x1="43.40" y1="53.80" x2="43.40" y2="54.60" />
    <line x1="42.60" y1="52.20" x2="42.60" y2="53.00" />
    <line x1="42.60" y1="53.00" x2="41.80" y2="53.80" />
    <line x1="42.60" y1="53.00" x2="43.40" y2="53.80" />
    <line x1="48.20" y1="54.60" x2="48.20" y2="51.40" />
    <line x1="48.20" y1="51.40" x2="47.40" y2="51.40" />
    <line x1="55.40" y1="54.60" x2="53.00" y2="54.60" />
    <line x1="53.00" y1="54.60" x2="52.20" y2="53.80" />
    <line x1="52.20" y1="53.80" x2="52.20" y2="52.20" />
    <line x1="52.20" y1="52.20" x2="53.00" y2="51.40" />
    <line x1="53.00" y1="51.40" x2="55.40" y2="51.40" />
    <line x1="55.40" y1="49.00" x2="55.40" y2="54.60" />
    <line x1="58.60" y1="49.80" x2="58.60" y2="53.80" />
    <line x1="58.60" y1="53.80" x2="59.40" y2="54.60" />
    <line x1="59.40" y1="54.60" x2="61.00" y2="54.60" />
    <line x1="60.20" y1="51.40" x2="58.60" y2="51.40" />
    <line x1="63.40" y1="49.00" x2="63.40" y2="54.60" />
    <line x1="63.40" y1="51.40" x2="65.80" y2="51.40" />
    <line x1="65.80" y1="51.40" x2="66.60" y2="52.20" />
    <line x1="66.60" y1="52.20" x2="66.60" y2="54.60" />
    <line x1="69.00" y1="55.40" x2="69.80" y2="54.60" />
    <line x1="69.80" y1="54.60" x2="69.80" y2="53.80" />
    <line x1="69.80" y1="53.80" x2="70.60" y2="53.00" />
    <line x1="70.60" y1="53.00" x2="70.60" y2="52.20" />
    <line x1="70.60" y1="52.20" x2="71.40" y2="51.40" />
    <line x1="71.40" y1="51.40" x2="71.40" y2="50.60" />
    <line x1="71.40" y1="50.60" x2="72.20" y2="49.80" />
    <line x1="72.20" y1="49.80" x2="72.20" y2="49.00" />
    <line x1="77.80" y1="49.80" x2="74.60" y2="49.80" />
    <line x1="74.60" y1="49.80" x2="74.60" y2="52.20" />
    <line x1="74.60" y1="52.20" x2="77.00" y2="52.20" />
    <line x1="77.00" y1="52.20" x2="77.80" y2="53.00" />
    <line x1="77.80" y1="53.00" x2="77.80" y2="53.80" />
    <line x1="77.80" y1="53.80" x2="77.00" y2="54.60" />
    <line x1="77.00" y1="54.60" x2="75.40" y2="54.60" />
    <line x1="75.40" y1="54.60" x2="74.60" y2="53.80" />
    <line x1="83.40" y1="54.60" x2="83.40" y2="49.80" />
    <line x1="83.40" y1="49.80" x2="84.20" y2="49.00" />
    <line x1="84.20" y1="49.00" x2="85.80" y2="49.00" />
    <line x1="82.60" y1="51.40" x2="85.00" y2="51.40" />
    <line x1="88.20" y1="54.60" x2="88.20" y2="51.40" />
    <line x1="88.20" y1="52.20" x2="89.00" y2="52.20" />
    <line x1="89.00" y1="52.20" x2="89.80" y2="51.40" />
    <line x1="89.80" y1="51.40" x2="90.60" y2="51.40" />
    <line x1="90.60" y1="51.40" x2="91.40" y2="52.20" />
    <line x1="97.00" y1="54.60" x2="94.60" y2="54.60" />
    <line x1="94.60" y1="54.60" x2="93.80" y2="53.80" />
    <line x1="93.80" y1="53.80" x2="94.60" y2="53.00" />
    <line x1="94.60" y1="53.00" x2="97.00" y2="53.00" />
    <line x1="94.60" y1="51.40" x2="96.20" y2="51.40" />
    <line x1="96.20" y1="51.40" x2="97.00" y2="52.20" />
    <line x1="97.00" y1="52.20" x2="97.00" y2="54.60" />
    <line x1="99.40" y1="54.60" x2="99.40" y2="51.40" />
    <line x1="99.40" y1="51.40" x2="100.20" y2="51.40" />
    <line x1="100.20" y1="51.40" x2="101.00" y2="52.20" />
    <line x1="101.00" y1="52.20" x2="101.00" y2="54.60" />
    <line x1="101.00" y1="52.20" x2="101.80" y2="51.40" />
    <line x1="101.80" y1="51.40" x2="102.60" y2="52.20" />
    <line x1="102.60" y1="52.20" x2="102.60" y2="54.60" />
    <line x1="108.20" y1="54.60" x2="105.80" y2="54.60" />
    <line x1="105.80" y1="54.60" x2="105.00" y2="53.80" />
    <line x1="105.00" y1="53.80" x2="105.00" y2="52.20" />
    <line x1="105.00" y1="52.20" x2="105.80" y2="51.40" />
    <line x1="105.80" y1="51.40" x2="107.40" y2="51.40" />
    <line x1="107.40" y1="51.40" x2="108.20" y2="52.20" />
    <line x1="108.20" y1="52.20" x2="108.20" y2="53.00" />
    <line x1="108.20" y1="53.00" x2="105.00" y2="53.00" />
    <line x1="5.00" y1="60.00" x2="5.00" y2="65.60" />
    <line x1="5.00" y1="65.60" x2="7.40" y2="65.60" />
    <line x1="7.40" y1="65.60" x2="8.20" y2="64.80" />
    <line x1="8.20" y1="64.80" x2="8.20" y2="63.20" />
    <line x1="8.20" y1="63.20" x2="7.40" y2="62.40" />
    <line x1="7.40" y1="62.40" x2="5.00" y2="62.40" />
    <line x1="11.40" y1="60.00" x2="12.20" y2="60.00" />
    <line x1="12.20" y1="60.00" x2="12.20" y2="65.60" />
    <line x1="16.20" y1="62.40" x2="16.20" y2="64.80" />
    <line x1="16.20" y1="64.80" x2="17.00" y2="65.60" />
    <line x1="17.00" y1="65.60" x2="19.40" y2="65.60" />
    <line x1="19.40" y1="65.60" x2="19.40" y2="62.40" />
    <line x1="21.80" y1="65.60" x2="21.80" y2="62.40" />
    <line x1="21.80" y1="63.20" x2="22.60" y2="63.20" />
    <line x1="22.60" y1="63.20" x2="23.40" y2="62.40" />
    <line x1="23.40" y1="62.40" x2="24.20" y2="62.40" />
    <line x1="24.20" y1="62.40" x2="25.00" y2="63.20" />
    <line x1="29.80" y1="61.60" x2="30.60" y2="60.80" />
    <line x1="30.60" y1="60.80" x2="32.20" y2="60.80" />
    <line x1="32.20" y1="60.80" x2="33.00" y2="61.60" />
    <line x1="33.00" y1="61.60" x2="33.00" y2="62.40" />
    <line x1="33.00" y1="62.40" x2="32.20" y2="63.20" />
    <line x1="32.20" y1="63.20" x2="31.40" y2="63.20" />
    <line x1="31.40" y1="63.20" x2="29.80" y2="64.80" />
    <line x1="29.80" y1="64.80" x2="29.80" y2="65.60" />
    <line x1="29.80" y1="65.60" x2="33.00" y2="65.60" />
    <line x1="5.00" y1="71.00" x2="5.00" y2="76.60" />
    <line x1="5.00" y1="76.60" x2="7.40" y2="76.60" />
    <line x1="7.40" y1="76.60" x2="8.20" y2="75.80" />
    <line x1="8.20" y1="75.80" x2="8.20" y2="74.20" />
    <line x1="8.20" y1="74.20" x2="7.40" y2="73.40" />
    <line x1="7.40" y1="73.40" x2="5.00" y2="73.40" />
    <line x1="13.80" y1="76.60" x2="11.40" y2="76.60" />
    <line x1="11.40" y1="76.60" x2="10.60" y2="75.80" />
    <line x1="10.60" y1="75.80" x2="11.40" y2="75.00" />
    <line x1="11.40" y1="75.00" x2="13.80" y2="75.00" />
    <line x1="11.40" y1="73.40" x2="13.00" y2="73.40" />
    <line x1="13.00" y1="73.40" x2="13.80" y2="74.20" />
    <line x1="13.80" y1="74.20" x2="13.80" y2="76.60" />
    <line x1="17.00" y1="71.00" x2="17.00" y2="76.60" />
    <line x1="19.40" y1="76.60" x2="17.80" y2="75.00" />
    <line x1="17.00" y1="75.00" x2="17.80" y2="75.00" />
    <line x1="17.80" y1="75.00" x2="19.40" y2="73.40" />
    <line x1="25.00" y1="76.60" x2="22.60" y2="76.60" />
    <line x1="22.60" y1="76.60" x2="21.80" y2="75.80" />
    <line x1="21.80" y1="75.80" x2="21.80" y2="74.20" />
    <line x1="21.80" y1="74.20" x2="22.60" y2="73.40" />
    <line x1="22.60" y1="73.40" x2="24.20" y2="73.40" />
    <line x1="24.20" y1="73.40" x2="25.00" y2="74.20" />
    <line x1="25.00" y1="74.20" x2="25.00" y2="75.00" />
    <line x1="25.00" y1="75.00" x2="21.80" y2="75.00" />
    <line x1="5.00" y1="87.60" x2="7.40" y2="87.60" />
    <line x1="7.40" y1="87.60" x2="8.20" y2="86.80" />
    <line x1="8.20" y1="86.80" x2="7.40" y2="86.00" />
    <line x1="7.40" y1="86.00" x2="5.80" y2="86.00" />
    <line x1="5.80" y1="86.00" x2="5.00" y2="85.20" />
    <line x1="5.00" y1="85.20" x2="5.80" y2="84.40" />
    <line x1="5.80" y1="84.40" x2="8.20" y2="84.40" />
    <line x1="11.40" y1="82.80" x2="11.40" y2="86.80" />
    <line x1="11.40" y1="86.80" x2="12.20" y2="87.60" />
    <line x1="12.20" y1="87.60" x2="13.80" y2="87.60" />
    <line x1="13.00" y1="84.40" x2="11.40" y2="84.40" />
    <line x1="19.40" y1="87.60" x2="17.00" y2="87.60" />
    <line x1="17.00" y1="87.60" x2="16.20" y2="86.80" />
    <line x1="16.20" y1="86.80" x2="17.00" y2="86.00" />
    <line x1="17.00" y1="86.00" x2="19.40" y2="86.00" />
    <line x1="17.00" y1="84.40" x2="18.60" y2="84.40" />
    <line x1="18.60" y1="84.40" x2="19.40" y2="85.20" />
    <line x1="19.40" y1="85.20" x2="19.40" y2="87.60" />
    <line x1="21.80" y1="87.60" x2="21.80" y2="84.40" />
    <line x1="21.80" y1="84.40" x2="22.60" y2="84.40" />
    <line x1="22.60" y1="84.40" x2="23.40" y2="85.20" />
    <line x1="23.40" y1="85.20" x2="23.40" y2="87.60" />
    <line x1="23.40" y1="85.20" x2="24.20" y2="84.40" />
    <line x1="24.20" y1="84.40" x2="25.00" y2="85.20" />
    <line x1="25.00" y1="85.20" x2="25.00" y2="87.60" />
    <line x1="27.40" y1="89.20" x2="27.40" y2="84.40" />
    <line x1="27.40" y1="84.40" x2="29.80" y2="84.40" />
    <line x1="29.80" y1="84.40" x2="30.60" y2="85.20" />
    <line x1="30.60" y1="85.20" x2="30.60" y2="86.80" />
    <line x1="30.60" y1="86.80" x2="29.80" y2="87.60" />
    <line x1="29.80" y1="87.60" x2="27.40" y2="87.60" />
    <line x1="36.20" y1="87.60" x2="36.20" y2="83.60" />
    <line x1="37.80" y1="87.60" x2="37.80" y2="83.60" />
    <line x1="35.40" y1="84.40" x2="38.60" y2="84.40" />
    <line x1="35.40" y1="86.80" x2="38.60" y2="86.80" />
    <line x1="44.20" y1="87.60" x2="41.80" y2="87.60" />
    <line x1="41.80" y1="87.60" x2="41.00" y2="86.80" />
    <line x1="41.00" y1="86.80" x2="41.00" y2="85.20" />
    <line x1="41.00" y1="85.20" x2="41.80" y2="84.40" />
    <line x1="41.80" y1="84.40" x2="44.20" y2="84.40" />
    <line x1="44.20" y1="82.00" x2="44.20" y2="87.60" />
    <line x1="46.60" y1="87.60" x2="46.60" y2="84.40" />
    <line x1="46.60" y1="84.40" x2="47.40" y2="84.40" />
    <line x1="47.40" y1="84.40" x2="48.20" y2="85.20" />
    <line x1="48.20" y1="85.20" x2="48.20" y2="87.60" />
    <line x1="48.20" y1="85.20" x2="49.00" y2="84.40" />
    <line x1="49.00" y1="84.40" x2="49.80" y2="85.20" />
    <line x1="49.80" y1="85.20" x2="49.80" y2="87.60" />
    <line x1="53.00" y1="82.00" x2="53.80" y2="82.00" />
    <line x1="53.80" y1="82.00" x2="53.80" y2="87.60" />
    <line x1="60.20" y1="83.60" x2="61.00" y2="82.80" />
    <line x1="61.00" y1="82.80" x2="62.60" y2="82.80" />
    <line x1="62.60" y1="82.80" x2="63.40" y2="83.60" />
    <line x1="63.40" y1="83.60" x2="63.40" y2="84.40" />
    <line x1="63.40" y1="84.40" x2="62.60" y2="85.20" />
    <line x1="62.60" y1="85.20" x2="61.80" y2="85.20" />
    <line x1="61.80" y1="85.20" x2="60.20" y2="86.80" />
    <line x1="60.20" y1="86.80" x2="60.20" y2="87.60" />
    <line x1="60.20" y1="87.60" x2="63.40" y2="87.60" />
    <line x1="65.80" y1="82.80" x2="69.00" y2="82.80" />
    <line x1="69.00" y1="82.80" x2="69.00" y2="83.60" />
    <line x1="69.00" y1="83.60" x2="66.60" y2="87.60" />
    <line x1="72.20" y1="82.80" x2="73.80" y2="82.80" />
    <line x1="73.80" y1="82.80" x2="74.60" y2="83.60" />
    <line x1="74.60" y1="83.60" x2="74.60" y2="86.80" />
    <line x1="74.60" y1="86.80" x2="73.80" y2="87.60" />
    <line x1="73.80" y1="87.60" x2="72.20" y2="87.60" />
    <line x1="72.20" y1="87.60" x2="71.40" y2="86.80" />
    <line x1="71.40" y1="86.80" x2="71.40" y2="83.60" />
    <line x1="71.40" y1="83.60" x2="72.20" y2="82.80" />
    <line x1="79.40" y1="83.60" x2="80.20" y2="82.80" />
    <line x1="80.20" y1="82.80" x2="81.80" y2="82.80" />
    <line x1="81.80" y1="82.80" x2="82.60" y2="83.60" />
    <line x1="82.60" y1="83.60" x2="82.60" y2="84.40" />
    <line x1="82.60" y1="84.40" x2="81.80" y2="85.20" />
    <line x1="81.80" y1="85.20" x2="81.00" y2="85.20" />
    <line x1="81.00" y1="85.20" x2="79.40" y2="86.80" />
    <line x1="79.40" y1="86.80" x2="79.40" y2="87.60" />
    <line x1="79.40" y1="87.60" x2="82.60" y2="87.60" />
    <line x1="87.40" y1="85.20" x2="85.80" y2="85.20" />
    <line x1="85.80" y1="85.20" x2="85.00" y2="84.40" />
    <line x1="85.00" y1="84.40" x2="85.00" y2="83.60" />
    <line x1="85.00" y1="83.60" x2="85.80" y2="82.80" />
    <line x1="85.80" y1="82.80" x2="87.40" y2="82.80" />
    <line x1="87.40" y1="82.80" x2="88.20" y2="83.60" />
    <line x1="88.20" y1="83.60" x2="88.20" y2="84.40" />
    <line x1="88.20" y1="84.40" x2="87.40" y2="85.20" />
    <line x1="87.40" y1="85.20" x2="88.20" y2="86.00" />
    <line x1="88.20" y1="86.00" x2="88.20" y2="86.80" />
    <line x1="88.20" y1="86.80" x2="87.40" y2="87.60" />
    <line x1="87.40" y1="87.60" x2="85.80" y2="87.60" />
    <line x1="85.80" y1="87.60" x2="85.00" y2="86.80" />
    <line x1="85.00" y1="86.80" x2="85.00" y2="86.00" />
    <line x1="85.00" y1="86.00" x2="85.80" y2="85.20" />
    <line x1="91.40" y1="82.80" x2="93.00" y2="82.80" />
    <line x1="93.00" y1="82.80" x2="93.80" y2="83.60" />
    <line x1="93.80" y1="83.60" x2="93.80" y2="86.80" />
    <line x1="93.80" y1="86.80" x2="93.00" y2="87.60" />
    <line x1="93.00" y1="87.60" x2="91.40" y2="87.60" />
    <line x1="91.40" y1="87.60" x2="90.60" y2="86.80" />
    <line x1="90.60" y1="86.80" x2="90.60" y2="83.60" />
    <line x1="90.60" y1="83.60" x2="91.40" y2="82.80" />
    <line x1="99.40" y1="83.60" x2="100.20" y2="82.80" />
    <line x1="100.20" y1="82.80" x2="100.20" y2="87.60" />
    <line x1="99.40" y1="87.60" x2="101.00" y2="87.60" />
    <line x1="109.80" y1="83.60" x2="110.60" y2="82.80" />
    <line x1="110.60" y1="82.80" x2="112.20" y2="82.80" />
    <line x1="112.20" y1="82.80" x2="113.00" y2="83.60" />
    <line x1="113.00" y1="83.60" x2="113.00" y2="84.40" />
    <line x1="113.00" y1="84.40" x2="112.20" y2="85.20" />
    <line x1="112.20" y1="85.20" x2="111.40" y2="85.20" />
    <line x1="111.40" y1="85.20" x2="109.80" y2="86.80" />
    <line x1="109.80" y1="86.80" x2="109.80" y2="87.60" />
    <line x1="109.80" y1="87.60" x2="113.00" y2="87.60" />
    <line x1="117.80" y1="83.60" x2="118.60" y2="82.80" />
    <line x1="118.60" y1="82.80" x2="120.20" y2="82.80" />
    <line x1="120.20" y1="82.80" x2="121.00" y2="83.60" />
    <line x1="121.00" y1="83.60" x2="121.00" y2="84.40" />
    <line x1="121.00" y1="84.40" x2="120.20" y2="85.20" />
    <line x1="120.20" y1="85.20" x2="119.40" y2="85.20" />
    <line x1="119.40" y1="85.20" x2="117.80" y2="86.80" />
    <line x1="117.80" y1="86.80" x2="117.80" y2="87.60" />
    <line x1="117.80" y1="87.60" x2="121.00" y2="87.60" />
    <line x1="124.20" y1="82.80" x2="125.80" y2="82.80" />
    <line x1="125.80" y1="82.80" x2="126.60" y2="83.60" />
    <line x1="126.60" y1="83.60" x2="126.60" y2="86.80" />
    <line x1="126.60" y1="86.80" x2="125.80" y2="87.60" />
    <line x1="125.80" y1="87.60" x2="124.20" y2="87.60" />
    <line x1="124.20" y1="87.60" x2="123.40" y2="86.80" />
    <line x1="123.40" y1="86.80" x2="123.40" y2="83.60" />
    <line x1="123.40" y1="83.60" x2="124.20" y2="82.80" />
    <line x1="5.00" y1="93.00" x2="5.00" y2="98.60" />
    <line x1="5.00" y1="98.60" x2="7.40" y2="98.60" />
    <line x1="7.40" y1="98.60" x2="8.20" y2="97.80" />
    <line x1="8.20" y1="97.80" x2="8.20" y2="96.20" />
    <line x1="8.20" y1="96.20" x2="7.40" y2="95.40" />
    <line x1="7.40" y1="95.40" x2="5.00" y2="95.40" />
    <line x1="11.40" y1="93.00" x2="12.20" y2="93.00" />
    <line x1="12.20" y1="93.00" x2="12.20" y2="98.60" />
    <line x1="16.20" y1="95.40" x2="16.20" y2="97.80" />
    <line x1="16.20" y1="97.80" x2="17.00" y2="98.60" />
    <line x1="17.00" y1="98.60" x2="19.40" y2="98.60" />
    <line x1="19.40" y1="98.60" x2="19.40" y2="95.40" />
    <line x1="21.80" y1="98.60" x2="21.80" y2="95.40" />
    <line x1="21.80" y1="96.20" x2="22.60" y2="96.20" />
    <line x1="22.60" y1="96.20" x2="23.40" y2="95.40" />
    <line x1="23.40" y1="95.40" x2="24.20" y2="95.40" />
    <line x1="24.20" y1="95.40" x2="25.00" y2="96.20" />
    <line x1="32.20" y1="93.00" x2="31.40" y2="93.80" />
    <line x1="31.40" y1="93.80" x2="30.60" y2="94.60" />
    <line x1="30.60" y1="94.60" x2="30.60" y2="97.80" />
    <line x1="30.60" y1="97.80" x2="31.40" y2="98.60" />
    <line x1="31.40" y1="98.60" x2="32.20" y2="99.40" />
    <line x1="36.20" y1="94.60" x2="37.00" y2="93.80" />
    <line x1="37.00" y1="93.80" x2="37.00" y2="98.60" />
    <line x1="36.20" y1="98.60" x2="37.80" y2="98.60" />
    <line x1="41.00" y1="98.60" x2="43.40" y2="98.60" />
    <line x1="43.40" y1="98.60" x2="44.20" y2="97.80" />
    <line x1="44.20" y1="97.80" x2="43.40" y2="97.00" />
    <line x1="43.40" y1="97.00" x2="41.80" y2="97.00" />
    <line x1="41.80" y1="97.00" x2="41.00" y2="96.20" />
    <line x1="41.00" y1="96.20" x2="41.80" y2="95.40" />
    <line x1="41.80" y1="95.40" x2="44.20" y2="95.40" />
    <line x1="66.60" y1="94.60" x2="67.40" y2="93.80" />
    <line x1="67.40" y1="93.80" x2="67.40" y2="98.60" />
    <line x1="66.60" y1="98.60" x2="68.20" y2="98.60" />
    <line x1="73.80" y1="94.60" x2="74.60" y2="93.80" />
    <line x1="74.60" y1="93.80" x2="76.20" y2="93.80" />
    <line x1="76.20" y1="93.80" x2="77.00" y2="94.60" />
    <line x1="77.00" y1="94.60" x2="77.00" y2="95.40" />
    <line x1="77.00" y1="95.40" x2="76.20" y2="96.20" />
    <line x1="76.20" y1="96.20" x2="75.40" y2="96.20" />
    <line x1="75.40" y1="96.20" x2="73.80" y2="97.80" />
    <line x1="73.80" y1="97.80" x2="73.80" y2="98.60" />
    <line x1="73.80" y1="98.60" x2="77.00" y2="98.60" />
    <line x1="80.20" y1="93.00" x2="81.80" y2="94.60" />
    <line x1="81.80" y1="94.60" x2="81.80" y2="97.80" />
    <line x1="81.80" y1="97.80" x2="80.20" y2="99.40" />
    <line x1="5.00" y1="106.40" x2="8.20" y2="106.40" />
    <line x1="7.40" y1="106.40" x2="7.40" y2="107.20" />
    <line x1="7.40" y1="107.20" x2="5.80" y2="108.80" />
    <line x1="5.80" y1="108.80" x2="5.80" y2="109.60" />
    <line x1="5.00" y1="109.60" x2="8.20" y2="109.60" />
    <line x1="13.00" y1="109.60" x2="11.40" y2="109.60" />
    <line x1="11.40" y1="109.60" x2="10.60" y2="108.80" />
    <line x1="10.60" y1="108.80" x2="10.60" y2="107.20" />
    <line x1="10.60" y1="107.20" x2="11.40" y2="106.40" />
    <line x1="11.40" y1="106.40" x2="13.00" y2="106.40" />
    <line x1="13.00" y1="106.40" x2="13.80" y2="107.20" />
    <line x1="13.80" y1="107.20" x2="13.80" y2="108.80" />
    <line x1="13.80" y1="108.80" x2="13.00" y2="109.60" />
    <line x1="18.60" y1="109.60" x2="17.00" y2="109.60" />
    <line x1="17.00" y1="109.60" x2="16.20" y2="108.80" />
    <line x1="16.20" y1="108.80" x2="16.20" y2="107.20" />
    <line x1="16.20" y1="107.20" x2="17.00" y2="106.40" />
    <line x1="17.00" y1="106.40" x2="18.60" y2="106.40" />
    <line x1="18.60" y1="106.40" x2="19.40" y2="107.20" />
    <line x1="19.40" y1="107.20" x2="19.40" y2="108.80" />
    <line x1="19.40" y1="108.80" x2="18.60" y2="109.60" />
    <line x1="21.80" y1="109.60" x2="21.80" y2="106.40" />
    <line x1="21.80" y1="106.40" x2="22.60" y2="106.40" />
    <line x1="22.60" y1="106.40" x2="23.40" y2="107.20" />
    <line x1="23.40" y1="107.20" x2="23.40" y2="109.60" />
    <line x1="23.40" y1="107.20" x2="24.20" y2="106.40" />
    <line x1="24.20" y1="106.40" x2="25.00" y2="107.20" />
    <line x1="25.00" y1="107.20" x2="25.00" y2="109.60" />
    <line x1="32.20" y1="104.00" x2="31.40" y2="104.80" />
    <line x1="31.40" y1="104.80" x2="30.60" y2="105.60" />
    <line x1="30.60" y1="105.60" x2="30.60" y2="108.80" />
    <line x1="30.60" y1="108.80" x2="31.40" y2="109.60" />
    <line x1="31.40" y1="109.60" x2="32.20" y2="110.40" />
    <line x1="41.00" y1="105.60" x2="41.80" y2="104.80" />
    <line x1="41.80" y1="104.80" x2="43.40" y2="104.80" />
    <line x1="43.40" y1="104.80" x2="44.20" y2="105.60" />
    <line x1="44.20" y1="105.60" x2="44.20" y2="106.40" />
    <line x1="44.20" y1="106.40" x2="43.40" y2="107.20" />
    <line x1="43.40" y1="107.20" x2="42.60" y2="107.20" />
    <line x1="42.60" y1="107.20" x2="41.00" y2="108.80" />
    <line x1="41.00" y1="108.80" x2="41.00" y2="109.60" />
    <line x1="41.00" y1="109.60" x2="44.20" y2="109.60" />
    <line x1="49.80" y1="104.80" x2="46.60" y2="104.80" />
    <line x1="46.60" y1="104.80" x2="46.60" y2="107.20" />
    <line x1="46.60" y1="107.20" x2="49.00" y2="107.20" />
    <line x1="49.00" y1="107.20" x2="49.80" y2="108.00" />
    <line x1="49.80" y1="108.00" x2="49.80" y2="108.80" />
    <line x1="49.80" y1="108.80" x2="49.00" y2="109.60" />
    <line x1="49.00" y1="109.60" x2="47.40" y2="109.60" />
    <line x1="47.40" y1="109.60" x2="46.60" y2="108.80" />
    <line x1="52.20" y1="109.60" x2="54.60" y2="109.60" />
    <line x1="54.60" y1="109.60" x2="55.40" y2="108.80" />
    <line x1="55.40" y1="108.80" x2="54.60" y2="108.00" />
    <line x1="54.60" y1="108.00" x2="53.00" y2="108.00" />
    <line x1="53.00" y1="108.00" x2="52.20" y2="107.20" />
    <line x1="52.20" y1="107.20" x2="53.00" y2="106.40" />
    <line x1="53.00" y1="106.40" x2="55.40" y2="106.40" />
    <line x1="85.00" y1="107.20" x2="83.40" y2="107.20" />
    <line x1="83.40" y1="107.20" x2="82.60" y2="106.40" />
    <line x1="82.60" y1="106.40" x2="82.60" y2="105.60" />
    <line x1="82.60" y1="105.60" x2="83.40" y2="104.80" />
    <line x1="83.40" y1="104.80" x2="85.00" y2="104.80" />
    <line x1="85.00" y1="104.80" x2="85.80" y2="105.60" />
    <line x1="85.80" y1="105.60" x2="85.80" y2="106.40" />
    <line x1="85.80" y1="106.40" x2="85.00" y2="107.20" />
    <line x1="85.00" y1="107.20" x2="85.80" y2="108.00" />
    <line x1="85.80" y1="108.00" x2="85.80" y2="108.80" />
    <line x1="85.80" y1="108.80" x2="85.00" y2="109.60" />
    <line x1="85.00" y1="109.60" x2="83.40" y2="109.60" />
    <line x1="83.40" y1="109.60" x2="82.60" y2="108.80" />
    <line x1="82.60" y1="108.80" x2="82.60" y2="108.00" />
    <line x1="82.60" y1="108.00" x2="83.40" y2="107.20" />
    <line x1="90.60" y1="105.60" x2="91.40" y2="104.80" />
    <line x1="91.40" y1="104.80" x2="93.00" y2="104.80" />
    <line x1="93.00" y1="104.80" x2="93.80" y2="105.60" />
    <line x1="93.80" y1="105.60" x2="93.80" y2="106.40" />
    <line x1="93.80" y1="106.40" x2="92.20" y2="108.00" />
    <line x1="97.00" y1="104.00" x2="98.60" y2="105.60" />
    <line x1="98.60" y1="105.60" x2="98.60" y2="108.80" />
    <line x1="98.60" y1="108.80" x2="97.00" y2="110.40" />
    <line x1="5.00" y1="120.60" x2="7.40" y2="120.60" />
    <line x1="7.40" y1="120.60" x2="8.20" y2="119.80" />
    <line x1="8.20" y1="119.80" x2="7.40" y2="119.00" />
    <line x1="7.40" y1="119.00" x2="5.80" y2="119.00" />
    <line x1="5.80" y1="119.00" x2="5.00" y2="118.20" />
    <line x1="5.00" y1="118.20" x2="5.80" y2="117.40" />
    <line x1="5.80" y1="117.40" x2="8.20" y2="117.40" />
    <line x1="10.60" y1="122.20" x2="10.60" y2="117.40" />
    <line x1="10.60" y1="117.40" x2="13.00" y2="117.40" />
    <line x1="13.00" y1="117.40" x2="13.80" y2="118.20" />
    <line x1="13.80" y1="118.20" x2="13.80" y2="119.80" />
    <line x1="13.80" y1="119.80" x2="13.00" y2="120.60" />
    <line x1="13.00" y1="120.60" x2="10.60" y2="120.60" />
    <line x1="17.80" y1="120.60" x2="17.80" y2="117.40" />
    <line x1="17.80" y1="117.40" x2="17.00" y2="117.40" />
    <line x1="21.80" y1="120.60" x2="21.80" y2="117.40" />
    <line x1="21.80" y1="117.40" x2="24.20" y2="117.40" />
    <line x1="24.20" y1="117.40" x2="25.00" y2="118.20" />
    <line x1="25.00" y1="118.20" x2="25.00" y2="120.60" />
    <line x1="29.80" y1="118.20" x2="33.00" y2="118.20" />
    <line x1="36.20" y1="116.60" x2="37.00" y2="115.80" />
    <line x1="37.00" y1="115.80" x2="37.00" y2="120.60" />
    <line x1="36.20" y1="120.60" x2="37.80" y2="120.60" />
    <line x1="41.80" y1="115.80" x2="43.40" y2="115.80" />
    <line x1="43.40" y1="115.80" x2="44.20" y2="116.60" />
    <line x1="44.20" y1="116.60" x2="44.20" y2="119.80" />
    <line x1="44.20" y1="119.80" x2="43.40" y2="120.60" />
    <line x1="43.40" y1="120.60" x2="41.80" y2="120.60" />
    <line x1="41.80" y1="120.60" x2="41.00" y2="119.80" />
    <line x1="41.00" y1="119.80" x2="41.00" y2="116.60" />
    <line x1="41.00" y1="116.60" x2="41.80" y2="115.80" />
    <line x1="5.00" y1="126.00" x2="5.00" y2="131.60" />
    <line x1="5.00" y1="131.60" x2="7.40" y2="131.60" />
    <line x1="7.40" y1="131.60" x2="8.20" y2="130.80" />
    <line x1="8.20" y1="130.80" x2="8.20" y2="129.20" />
    <line x1="8.20" y1="129.20" x2="7.40" y2="128.40" />
    <line x1="7.40" y1="128.40" x2="5.00" y2="128.40" />
    <line x1="13.80" y1="131.60" x2="11.40" y2="131.60" />
    <line x1="11.40" y1="131.60" x2="10.60" y2="130.80" />
    <line x1="10.60" y1="130.80" x2="11.40" y2="130.00" />
    <line x1="11.40" y1="130.00" x2="13.80" y2="130.00" />
    <line x1="11.40" y1="128.40" x2="13.00" y2="128.40" />
    <line x1="13.00" y1="128.40" x2="13.80" y2="129.20" />
    <line x1="13.80" y1="129.20" x2="13.80" y2="131.60" />
    <line x1="17.00" y1="126.00" x2="17.00" y2="131.60" />
    <line x1="19.40" y1="131.60" x2="17.80" y2="130.00" />
    <line x1="17.00" y1="130.00" x2="17.80" y2="130.00" />
    <line x1="17.80" y1="130.00" x2="19.40" y2="128.40" />
    <line x1="25.00" y1="131.60" x2="22.60" y2="131.60" />
    <line x1="22.60" y1="131.60" x2="21.80" y2="130.80" />
    <line x1="21.80" y1="130.80" x2="21.80" y2="129.20" />
    <line x1="21.80" y1="129.20" x2="22.60" y2="128.40" />
    <line x1="22.60" y1="128.40" x2="24.20" y2="128.40" />
    <line x1="24.20" y1="128.40" x2="25.00" y2="129.20" />
    <line x1="25.00" y1="129.20" x2="25.00" y2="130.00" />
    <line x1="25.00" y1="130.00" x2="21.80" y2="130.00" />
    <line x1="5.00" y1="142.60" x2="7.40" y2="142.60" />
    <line x1="7.40" y1="142.60" x2="8.20" y2="141.80" />
    <line x1="8.20" y1="141.80" x2="7.40" y2="141.00" />
    <line x1="7.40" y1="141.00" x2="5.80" y2="141.00" />
    <line x1="5.80" y1="141.00" x2="5.00" y2="140.20" />
    <line x1="5.00" y1="140.20" x2="5.80" y2="139.40" />
    <line x1="5.80" y1="139.40" x2="8.20" y2="139.40" />
    <line x1="11.40" y1="137.80" x2="11.40" y2="141.80" />
    <line x1="11.40" y1="141.80" x2="12.20" y2="142.60" />
    <line x1="12.20" y1="142.60" x2="13.80" y2="142.60" />
    <line x1="13.00" y1="139.40" x2="11.40" y2="139.40" />
    <line x1="19.40" y1="142.60" x2="17.00" y2="142.60" />
    <line x1="17.00" y1="142.60" x2="16.20" y2="141.80" />
    <line x1="16.20" y1="141.80" x2="17.00" y2="141.00" />
    <line x1="17.00" y1="141.00" x2="19.40" y2="141.00" />
    <line x1="17.00" y1="139.40" x2="18.60" y2="139.40" />
    <line x1="18.60" y1="139.40" x2="19.40" y2="140.20" />
    <line x1="19.40" y1="140.20" x2="19.40" y2="142.60" />
    <line x1="21.80" y1="142.60" x2="21.80" y2="139.40" />
    <line x1="21.80" y1="139.40" x2="22.60" y2="139.40" />
    <line x1="22.60" y1="139.40" x2="23.40" y2="140.20" />
    <line x1="23.40" y1="140.20" x2="23.40" y2="142.60" />
    <line x1="23.40" y1="140.20" x2="24.20" y2="139.40" />
    <line x1="24.20" y1="139.40" x2="25.00" y2="140.20" />
    <line x1="25.00" y1="140.20" x2="25.00" y2="142.60" />
    <line x1="27.40" y1="144.20" x2="27.40" y2="139.40" />
    <line x1="27.40" y1="139.40" x2="29.80" y2="139.40" />
    <line x1="29.80" y1="139.40" x2="30.60" y2="140.20" />
    <line x1="30.60" y1="140.20" x2="30.60" y2="141.80" />
    <line x1="30.60" y1="141.80" x2="29.80" y2="142.60" />
    <line x1="29.80" y1="142.60" x2="27.40" y2="142.60" />
    <line x1="36.20" y1="142.60" x2="36.20" y2="138.60" />
    <line x1="37.80" y1="142.60" x2="37.80" y2="138.60" />
    <line x1="35.40" y1="139.40" x2="38.60" y2="139.40" />
    <line x1="35.40" y1="141.80" x2="38.60" y2="141.80" />
    <line x1="43.40" y1="142.60" x2="41.80" y2="142.60" />
    <line x1="41.80" y1="142.60" x2="41.00" y2="141.80" />
    <line x1="41.00" y1="141.80" x2="41.00" y2="140.20" />
    <line x1="41.00" y1="140.20" x2="41.80" y2="139.40" />
    <line x1="41.80" y1="139.40" x2="43.40" y2="139.40" />
    <line x1="43.40" y1="139.40" x2="44.20" y2="140.20" />
    <line x1="44.20" y1="140.20" x2="44.20" y2="141.80" />
    <line x1="44.20" y1="141.80" x2="43.40" y2="142.60" />
    <line x1="46.60" y1="138.60" x2="47.40" y2="137.80" />
    <line x1="47.40" y1="137.80" x2="49.00" y2="137.80" />
    <line x1="49.00" y1="137.80" x2="49.80" y2="138.60" />
    <line x1="49.80" y1="138.60" x2="49.80" y2="139.40" />
    <line x1="49.80" y1="139.40" x2="49.00" y2="140.20" />
    <line x1="49.00" y1="140.20" x2="48.20" y2="140.20" />
    <line x1="48.20" y1="140.20" x2="46.60" y2="141.80" />
    <line x1="46.60" y1="141.80" x2="46.60" y2="142.60" />
    <line x1="46.60" y1="142.60" x2="49.80" y2="142.60" />
    <line x1="55.40" y1="142.60" x2="53.00" y2="142.60" />
    <line x1="53.00" y1="142.60" x2="52.20" y2="141.80" />
    <line x1="52.20" y1="141.80" x2="52.20" y2="140.20" />
    <line x1="52.20" y1="140.20" x2="53.00" y2="139.40" />
    <line x1="53.00" y1="139.40" x2="55.40" y2="139.40" />
    <line x1="55.40" y1="137.00" x2="55.40" y2="142.60" />
    <line x1="61.00" y1="138.60" x2="61.80" y2="137.80" />
    <line x1="61.80" y1="137.80" x2="61.80" y2="142.60" />
    <line x1="61.00" y1="142.60" x2="62.60" y2="142.60" />
    <line x1="66.60" y1="142.60" x2="67.40" y2="142.60" />
    <line x1="67.40" y1="142.60" x2="69.00" y2="141.00" />
    <line x1="69.00" y1="141.00" x2="69.00" y2="138.60" />
    <line x1="69.00" y1="138.60" x2="68.20" y2="137.80" />
    <line x1="68.20" y1="137.80" x2="66.60" y2="137.80" />
    <line x1="66.60" y1="137.80" x2="65.80" y2="138.60" />
    <line x1="65.80" y1="138.60" x2="65.80" y2="139.40" />
    <line x1="65.80" y1="139.40" x2="66.60" y2="140.20" />
    <line x1="66.60" y1="140.20" x2="69.00" y2="140.20" />
    <line x1="72.20" y1="137.80" x2="73.80" y2="137.80" />
    <line x1="73.80" y1="137.80" x2="74.60" y2="138.60" />
    <line x1="74.60" y1="138.60" x2="74.60" y2="141.80" />
    <line x1="74.60" y1="141.80" x2="73.80" y2="142.60" />
    <line x1="73.80" y1="142.60" x2="72.20" y2="142.60" />
    <line x1="72.20" y1="142.60" x2="71.40" y2="141.80" />
    <line x1="71.40" y1="141.80" x2="71.40" y2="138.60" />
    <line x1="71.40" y1="138.60" x2="72.20" y2="137.80" />
    <line x1="79.40" y1="137.00" x2="79.40" y2="142.60" />
    <line x1="79.40" y1="139.40" x2="81.80" y2="139.40" />
    <line x1="81.80" y1="139.40" x2="82.60" y2="140.20" />
    <line x1="82.60" y1="140.20" x2="82.60" y2="142.60" />
    <line x1="85.00" y1="143.40" x2="85.80" y2="142.60" />
    <line x1="85.80" y1="142.60" x2="85.80" y2="141.80" />
    <line x1="85.80" y1="141.80" x2="86.60" y2="141.00" />
    <line x1="86.60" y1="141.00" x2="86.60" y2="140.20" />
    <line x1="86.60" y1="140.20" x2="87.40" y2="139.40" />
    <line x1="87.40" y1="139.40" x2="87.40" y2="138.60" />
    <line x1="87.40" y1="138.60" x2="88.20" y2="137.80" />
    <line x1="88.20" y1="137.80" x2="88.20" y2="137.00" />
    <line x1="90.60" y1="138.60" x2="91.40" y2="137.80" />
    <line x1="91.40" y1="137.80" x2="93.00" y2="137.80" />
    <line x1="93.00" y1="137.80" x2="93.80" y2="138.60" />
    <line x1="93.80" y1="138.60" x2="93.80" y2="139.40" />
    <line x1="93.80" y1="139.40" x2="93.00" y2="140.20" />
    <line x1="93.00" y1="140.20" x2="92.20" y2="140.20" />
    <line x1="92.20" y1="140.20" x2="90.60" y2="141.80" />
    <line x1="90.60" y1="141.80" x2="90.60" y2="142.60" />
    <line x1="90.60" y1="142.60" x2="93.80" y2="142.60" />
    <line x1="99.40" y1="138.60" x2="100.20" y2="137.80" />
    <line x1="100.20" y1="137.80" x2="100.20" y2="142.60" />
    <line x1="99.40" y1="142.60" x2="101.00" y2="142.60" />
    <line x1="109.80" y1="138.60" x2="110.60" y2="137.80" />
    <line x1="110.60" y1="137.80" x2="112.20" y2="137.80" />
    <line x1="112.20" y1="137.80" x2="113.00" y2="138.60" />
    <line x1="113.00" y1="138.60" x2="113.00" y2="139.40" />
    <line x1="113.00" y1="139.40" x2="112.20" y2="140.20" />
    <line x1="112.20" y1="140.20" x2="111.40" y2="140.20" />
    <line x1="112.20" y1="140.20" x2="113.00" y2="141.00" />
    <line x1="113.00" y1="141.00" x2="113.00" y2="141.80" />
    <line x1="113.00" y1="141.80" x2="112.20" y2="142.60" />
    <line x1="112.20" y1="142.60" x2="110.60" y2="142.60" />
    <line x1="110.60" y1="142.60" x2="109.80" y2="141.80" />
    <line x1="5.00" y1="148.00" x2="5.00" y2="153.60" />
    <line x1="5.00" y1="153.60" x2="7.40" y2="153.60" />
    <line x1="7.40" y1="153.60" x2="8.20" y2="152.80" />
    <line x1="8.20" y1="152.80" x2="8.20" y2="151.20" />
    <line x1="8.20" y1="151.20" x2="7.40" y2="150.40" />
    <line x1="7.40" y1="150.40" x2="5.00" y2="150.40" />
    <line x1="11.40" y1="148.00" x2="12.20" y2="148.00" />
    <line x1="12.20" y1="148.00" x2="12.20" y2="153.60" />
    <line x1="16.20" y1="150.40" x2="16.20" y2="152.80" />
    <line x1="16.20" y1="152.80" x2="17.00" y2="153.60" />
    <line x1="17.00" y1="153.60" x2="19.40" y2="153.60" />
    <line x1="19.40" y1="153.60" x2="19.40" y2="150.40" />
    <line x1="21.80" y1="153.60" x2="21.80" y2="150.40" />
    <line x1="21.80" y1="151.20" x2="22.60" y2="151.20" />
    <line x1="22.60" y1="151.20" x2="23.40" y2="150.40" />
    <line x1="23.40" y1="150.40" x2="24.20" y2="150.40" />
    <line x1="24.20" y1="150.40" x2="25.00" y2="151.20" />
    <line x1="29.80" y1="149.60" x2="30.60" y2="148.80" />
    <line x1="30.60" y1="148.80" x2="32.20" y2="148.80" />
    <line x1="32.20" y1="148.80" x2="33.00" y2="149.60" />
    <line x1="33.00" y1="149.60" x2="33.00" y2="150.40" />
    <line x1="33.00" y1="150.40" x2="32.20" y2="151.20" />
    <line x1="32.20" y1="151.20" x2="31.40" y2="151.20" />
    <line x1="31.40" y1="151.20" x2="29.80" y2="152.80" />
    <line x1="29.80" y1="152.80" x2="29.80" y2="153.60" />
    <line x1="29.80" y1="153.60" x2="33.00" y2="153.60" />
    <line x1="5.00" y1="161.40" x2="8.20" y2="161.40" />
    <line x1="7.40" y1="161.40" x2="7.40" y2="162.20" />
    <line x1="7.40" y1="162.20" x2="5.80" y2="163.80" />
    <line x1="5.80" y1="163.80" x2="5.80" y2="164.60" />
    <line x1="5.00" y1="164.60" x2="8.20" y2="164.60" />
    <line x1="13.00" y1="164.60" x2="11.40" y2="164.60" />
    <line x1="11.40" y1="164.60" x2="10.60" y2="163.80" />
    <line x1="10.60" y1="163.80" x2="10.60" y2="162.20" />
    <line x1="10.60" y1="162.20" x2="11.40" y2="161.40" />
    <line x1="11.40" y1="161.40" x2="13.00" y2="161.40" />
    <line x1="13.00" y1="161.40" x2="13.80" y2="162.20" />
    <line x1="13.80" y1="162.20" x2="13.80" y2="163.80" />
    <line x1="13.80" y1="163.80" x2="13.00" y2="164.60" />
    <line x1="18.60" y1="164.60" x2="17.00" y2="164.60" />
    <line x1="17.00" y1="164.60" x2="16.20" y2="163.80" />
    <line x1="16.20" y1="163.80" x2="16.20" y2="162.20" />
    <line x1="16.20" y1="162.20" x2="17.00" y2="161.40" />
    <line x1="17.00" y1="161.40" x2="18.60" y2="161.40" />
    <line x1="18.60" y1="161.40" x2="19.40" y2="162.20" />
    <line x1="19.40" y1="162.20" x2="19.40" y2="163.80" />
    <line x1="19.40" y1="163.80" x2="18.60" y2="164.60" />
    <line x1="21.80" y1="164.60" x2="21.80" y2="161.40" />
    <line x1="21.80" y1="161.40" x2="22.60" y2="161.40" />
    <line x1="22.60" y1="161.40" x2="23.40" y2="162.20" />
    <line x1="23.40" y1="162.20" x2="23.40" y2="164.60" />
    <line x1="23.40" y1="162.20" x2="24.20" y2="161.40" />
    <line x1="24.20" y1="161.40" x2="25.00" y2="162.20" />
    <line x1="25.00" y1="162.20" x2="25.00" y2="164.60" />
    <line x1="32.20" y1="159.00" x2="31.40" y2="159.80" />
    <line x1="31.40" y1="159.80" x2="30.60" y2="160.60" />
    <line x1="30.60" y1="160.60" x2="30.60" y2="163.80" />
    <line x1="30.60" y1="163.80" x2="31.40" y2="164.60" />
    <line x1="31.40" y1="164.60" x2="32.20" y2="165.40" />
    <line x1="41.00" y1="160.60" x2="41.80" y2="159.80" />
    <line x1="41.80" y1="159.80" x2="43.40" y2="159.80" />
    <line x1="43.40" y1="159.80" x2="44.20" y2="160.60" />
    <line x1="44.20" y1="160.60" x2="44.20" y2="161.40" />
    <line x1="44.20" y1="161.40" x2="43.40" y2="162.20" />
    <line x1="43.40" y1="162.20" x2="42.60" y2="162.20" />
    <line x1="42.60" y1="162.20" x2="41.00" y2="163.80" />
    <line x1="41.00" y1="163.80" x2="41.00" y2="164.60" />
    <line x1="41.00" y1="164.60" x2="44.20" y2="164.60" />
    <line x1="49.80" y1="159.80" x2="46.60" y2="159.80" />
    <line x1="46.60" y1="159.80" x2="46.60" y2="162.20" />
    <line x1="46.60" y1="162.20" x2="49.00" y2="162.20" />
    <line x1="49.00" y1="162.20" x2="49.80" y2="163.00" />
    <line x1="49.80" y1="163.00" x2="49.80" y2="163.80" />
    <line x1="49.80" y1="163.80" x2="49.00" y2="164.60" />
    <line x1="49.00" y1="164.60" x2="47.40" y2="164.60" />
    <line x1="47.40" y1="164.60" x2="46.60" y2="163.80" />
    <line x1="52.20" y1="164.60" x2="54.60" y2="164.60" />
    <line x1="54.60" y1="164.60" x2="55.40" y2="163.80" />
    <line x1="55.40" y1="163.80" x2="54.60" y2="163.00" />
    <line x1="54.60" y1="163.00" x2="53.00" y2="163.00" />
    <line x1="53.00" y1="163.00" x2="52.20" y2="162.20" />
    <line x1="52.20" y1="162.20" x2="53.00" y2="161.40" />
    <line x1="53.00" y1="161.40" x2="55.40" y2="161.40" />
    <line x1="82.60" y1="159.80" x2="85.80" y2="159.80" />
    <line x1="85.80" y1="159.80" x2="85.80" y2="160.60" />
    <line x1="85.80" y1="160.60" x2="83.40" y2="164.60" />
    <line x1="90.60" y1="160.60" x2="91.40" y2="159.80" />
    <line x1="91.40" y1="159.80" x2="93.00" y2="159.80" />
    <line x1="93.00" y1="159.80" x2="93.80" y2="160.60" />
    <line x1="93.80" y1="160.60" x2="93.80" y2="161.40" />
    <line x1="93.80" y1="161.40" x2="92.20" y2="163.00" />
    <line x1="97.00" y1="159.00" x2="98.60" y2="160.60" />
    <line x1="98.60" y1="160.60" x2="98.60" y2="163.80" />
    <line x1="98.60" y1="163.80" x2="97.00" y2="165.40" />
    <line x1="5.00" y1="170.00" x2="5.00" y2="175.60" />
    <line x1="5.00" y1="175.60" x2="7.40" y2="175.60" />
    <line x1="7.40" y1="175.60" x2="8.20" y2="174.80" />
    <line x1="8.20" y1="174.80" x2="8.20" y2="173.20" />
    <line x1="8.20" y1="173.20" x2="7.40" y2="172.40" />
    <line x1="7.40" y1="172.40" x2="5.00" y2="172.40" />
    <line x1="13.80" y1="175.60" x2="11.40" y2="175.60" />
    <line x1="11.40" y1="175.60" x2="10.60" y2="174.80" />
    <line x1="10.60" y1="174.80" x2="11.40" y2="174.00" />
    <line x1="11.40" y1="174.00" x2="13.80" y2="174.00" />
    <line x1="11.40" y1="172.40" x2="13.00" y2="172.40" />
    <line x1="13.00" y1="172.40" x2="13.80" y2="173.20" />
    <line x1="13.80" y1="173.20" x2="13.80" y2="175.60" />
    <line x1="17.00" y1="170.00" x2="17.00" y2="175.60" />
    <line x1="19.40" y1="175.60" x2="17.80" y2="174.00" />
    <line x1="17.00" y1="174.00" x2="17.80" y2="174.00" />
    <line x1="17.80" y1="174.00" x2="19.40" y2="172.40" />
    <line x1="25.00" y1="175.60" x2="22.60" y2="175.60" />
    <line x1="22.60" y1="175.60" x2="21.80" y2="174.80" />
    <line x1="21.80" y1="174.80" x2="21.80" y2="173.20" />
    <line x1="21.80" y1="173.20" x2="22.60" y2="172.40" />
    <line x1="22.60" y1="172.40" x2="24.20" y2="172.40" />
    <line x1="24.20" y1="172.40" x2="25.00" y2="173.20" />
    <line x1="25.00" y1="173.20" x2="25.00" y2="174.00" />
    <line x1="25.00" y1="174.00" x2="21.80" y2="174.00" />
    <line x1="5.00" y1="183.40" x2="5.00" y2="185.00" />
    <line x1="5.00" y1="185.00" x2="5.80" y2="185.80" />
    <line x1="5.80" y1="185.80" x2="5.80" y2="186.60" />
    <line x1="8.20" y1="183.40" x2="8.20" y2="185.00" />
    <line x1="8.20" y1="185.00" x2="7.40" y2="185.80" />
    <line x1="7.40" y1="185.80" x2="7.40" y2="186.60" />
    <line x1="6.60" y1="184.20" x2="6.60" y2="185.00" />
    <line x1="6.60" y1="185.00" x2="5.80" y2="185.80" />
    <line x1="6.60" y1="185.00" x2="7.40" y2="185.80" />
    <line x1="10.60" y1="186.60" x2="10.60" y2="183.40" />
    <line x1="10.60" y1="184.20" x2="11.40" y2="184.20" />
    <line x1="11.40" y1="184.20" x2="12.20" y2="183.40" />
    <line x1="12.20" y1="183.40" x2="13.00" y2="183.40" />
    <line x1="13.00" y1="183.40" x2="13.80" y2="184.20" />
    <line x1="17.80" y1="186.60" x2="17.80" y2="183.40" />
    <line x1="17.80" y1="183.40" x2="17.00" y2="183.40" />
    <line x1="22.60" y1="181.80" x2="22.60" y2="185.80" />
    <line x1="22.60" y1="185.80" x2="23.40" y2="186.60" />
    <line x1="23.40" y1="186.60" x2="25.00" y2="186.60" />
    <line x1="24.20" y1="183.40" x2="22.60" y2="183.40" />
    <line x1="30.60" y1="186.60" x2="28.20" y2="186.60" />
    <line x1="28.20" y1="186.60" x2="27.40" y2="185.80" />
    <line x1="27.40" y1="185.80" x2="27.40" y2="184.20" />
    <line x1="27.40" y1="184.20" x2="28.20" y2="183.40" />
    <line x1="28.20" y1="183.40" x2="29.80" y2="183.40" />
    <line x1="29.80" y1="183.40" x2="30.60" y2="184.20" />
    <line x1="30.60" y1="184.20" x2="30.60" y2="185.00" />
    <line x1="30.60" y1="185.00" x2="27.40" y2="185.00" />
    <line x1="37.80" y1="181.00" x2="37.00" y2="181.80" />
    <line x1="37.00" y1="181.80" x2="36.20" y2="182.60" />
    <line x1="36.20" y1="182.60" x2="36.20" y2="185.80" />
    <line x1="36.20" y1="185.80" x2="37.00" y2="186.60" />
    <line x1="37.00" y1="186.60" x2="37.80" y2="187.40" />
    <line x1="46.60" y1="182.60" x2="47.40" y2="181.80" />
    <line x1="47.40" y1="181.80" x2="49.00" y2="181.80" />
    <line x1="49.00" y1="181.80" x2="49.80" y2="182.60" />
    <line x1="49.80" y1="182.60" x2="49.80" y2="183.40" />
    <line x1="49.80" y1="183.40" x2="49.00" y2="184.20" />
    <line x1="49.00" y1="184.20" x2="48.20" y2="184.20" />
    <line x1="48.20" y1="184.20" x2="46.60" y2="185.80" />
    <line x1="46.60" y1="185.80" x2="46.60" y2="186.60" />
    <line x1="46.60" y1="186.60" x2="49.80" y2="186.60" />
    <line x1="55.40" y1="181.80" x2="52.20" y2="181.80" />
    <line x1="52.20" y1="181.80" x2="52.20" y2="184.20" />
    <line x1="52.20" y1="184.20" x2="54.60" y2="184.20" />
    <line x1="54.60" y1="184.20" x2="55.40" y2="185.00" />
    <line x1="55.40" y1="185.00" x2="55.40" y2="185.80" />
    <line x1="55.40" y1="185.80" x2="54.60" y2="186.60" />
    <line x1="54.60" y1="186.60" x2="53.00" y2="186.60" />
    <line x1="53.00" y1="186.60" x2="52.20" y2="185.80" />
    <line x1="57.80" y1="186.60" x2="60.20" y2="186.60" />
    <line x1="60.20" y1="186.60" x2="61.00" y2="185.80" />
    <line x1="61.00" y1="185.80" x2="60.20" y2="185.00" />
    <line x1="60.20" y1="185.00" x2="58.60" y2="185.00" />
    <line x1="58.60" y1="185.00" x2="57.80" y2="184.20" />
    <line x1="57.80" y1="184.20" x2="58.60" y2="183.40" />
    <line x1="58.60" y1="183.40" x2="61.00" y2="183.40" />
    <line x1="83.40" y1="181.00" x2="83.40" y2="182.60" />
    <line x1="85.00" y1="181.00" x2="85.00" y2="182.60" />
    <line x1="91.40" y1="186.60" x2="89.00" y2="186.60" />
    <line x1="89.00" y1="186.60" x2="88.20" y2="185.80" />
    <line x1="88.20" y1="185.80" x2="88.20" y2="184.20" />
    <line x1="88.20" y1="184.20" x2="89.00" y2="183.40" />
    <line x1="89.00" y1="183.40" x2="91.40" y2="183.40" />
    <line x1="91.40" y1="181.00" x2="91.40" y2="186.60" />
    <line x1="96.20" y1="186.60" x2="94.60" y2="186.60" />
    <line x1="94.60" y1="186.60" x2="93.80" y2="185.80" />
    <line x1="93.80" y1="185.80" x2="93.80" y2="184.20" />
    <line x1="93.80" y1="184.20" x2="94.60" y2="183.40" />
    <line x1="94.60" y1="183.40" x2="96.20" y2="183.40" />
    <line x1="96.20" y1="183.40" x2="97.00" y2="184.20" />
    <line x1="97.00" y1="184.20" x2="97.00" y2="185.80" />
    <line x1="97.00" y1="185.80" x2="96.20" y2="186.60" />
    <line x1="100.20" y1="188.20" x2="101.80" y2="188.20" />
    <line x1="101.80" y1="188.20" x2="102.60" y2="187.40" />
    <line x1="102.60" y1="187.40" x2="102.60" y2="184.20" />
    <line x1="102.60" y1="184.20" x2="101.80" y2="183.40" />
    <line x1="101.80" y1="183.40" x2="100.20" y2="183.40" />
    <line x1="100.20" y1="183.40" x2="99.40" y2="184.20" />
    <line x1="99.40" y1="184.20" x2="99.40" y2="185.80" />
    <line x1="99.40" y1="185.80" x2="100.20" y2="186.60" />
    <line x1="100.20" y1="186.60" x2="102.60" y2="186.60" />
    <line x1="105.80" y1="181.00" x2="105.80" y2="182.60" />
    <line x1="107.40" y1="181.00" x2="107.40" y2="182.60" />
    <line x1="113.80" y1="181.00" x2="113.80" y2="182.60" />
    <line x1="115.40" y1="181.00" x2="115.40" y2="182.60" />
    <line x1="119.40" y1="188.20" x2="121.00" y2="188.20" />
    <line x1="121.00" y1="188.20" x2="121.80" y2="187.40" />
    <line x1="121.80" y1="187.40" x2="121.80" y2="184.20" />
    <line x1="121.80" y1="184.20" x2="121.00" y2="183.40" />
    <line x1="121.00" y1="183.40" x2="119.40" y2="183.40" />
    <line x1="119.40" y1="183.40" x2="118.60" y2="184.20" />
    <line x1="118.60" y1="184.20" x2="118.60" y2="185.80" />
    <line x1="118.60" y1="185.80" x2="119.40" y2="186.60" />
    <line x1="119.40" y1="186.60" x2="121.80" y2="186.60" />
    <line x1="126.60" y1="186.60" x2="125.00" y2="186.60" />
    <line x1="125.00" y1="186.60" x2="124.20" y2="185.80" />
    <line x1="124.20" y1="185.80" x2="124.20" y2="184.20" />
    <line x1="124.20" y1="184.20" x2="125.00" y2="183.40" />
    <line x1="125.00" y1="183.40" x2="126.60" y2="183.40" />
    <line x1="126.60" y1="183.40" x2="127.40" y2="184.20" />
    <line x1="127.40" y1="184.20" x2="127.40" y2="185.80" />
    <line x1="127.40" y1="185.80" x2="126.60" y2="186.60" />
    <line x1="133.00" y1="186.60" x2="130.60" y2="186.60" />
    <line x1="130.60" y1="186.60" x2="129.80" y2="185.80" />
    <line x1="129.80" y1="185.80" x2="129.80" y2="184.20" />
    <line x1="129.80" y1="184.20" x2="130.60" y2="183.40" />
    <line x1="130.60" y1="183.40" x2="133.00" y2="183.40" />
    <line x1="133.00" y1="181.00" x2="133.00" y2="186.60" />
    <line x1="136.20" y1="181.00" x2="136.20" y2="182.60" />
    <line x1="137.80" y1="181.00" x2="137.80" y2="182.60" />
    <line x1="141.80" y1="181.00" x2="143.40" y2="182.60" />
    <line x1="143.40" y1="182.60" x2="143.40" y2="185.80" />
    <line x1="143.40" y1="185.80" x2="141.80" y2="187.40" />
    <line x1="149.80" y1="182.60" x2="150.60" y2="181.80" />
    <line x1="150.60" y1="181.80" x2="150.60" y2="186.60" />
    <line x1="149.80" y1="186.60" x2="151.40" y2="186.60" />
    <line x1="157.00" y1="181.80" x2="156.20" y2="181.80" />
    <line x1="156.20" y1="181.80" x2="154.60" y2="183.40" />
    <line x1="154.60" y1="183.40" x2="154.60" y2="185.80" />
    <line x1="154.60" y1="185.80" x2="155.40" y2="186.60" />
    <line x1="155.40" y1="186.60" x2="157.00" y2="186.60" />
    <line x1="157.00" y1="186.60" x2="157.80" y2="185.80" />
    <line x1="157.80" y1="185.80" x2="157.80" y2="185.00" />
    <line x1="157.80" y1="185.00" x2="157.00" y2="184.20" />
    <line x1="157.00" y1="184.20" x2="154.60" y2="184.20" />
    <line x1="161.00" y1="181.80" x2="162.60" y2="181.80" />
    <line x1="162.60" y1="181.80" x2="163.40" y2="182.60" />
    <line x1="163.40" y1="182.60" x2="163.40" y2="185.80" />
    <line x1="163.40" y1="185.80" x2="162.60" y2="186.60" />
    <line x1="162.60" y1="186.60" x2="161.00" y2="186.60" />
    <line x1="161.00" y1="186.60" x2="160.20" y2="185.80" />
    <line x1="160.20" y1="185.80" x2="160.20" y2="182.60" />
    <line x1="160.20" y1="182.60" x2="161.00" y2="181.80" />
    <line x1="168.20" y1="181.00" x2="168.20" y2="186.60" />
    <line x1="168.20" y1="183.40" x2="170.60" y2="183.40" />
    <line x1="170.60" y1="183.40" x2="171.40" y2="184.20" />
    <line x1="171.40" y1="184.20" x2="171.40" y2="186.60" />
    <line x1="173.80" y1="187.40" x2="174.60" y2="186.60" />
    <line x1="174.60" y1="186.60" x2="174.60" y2="185.80" />
    <line x1="174.60" y1="185.80" x2="175.40" y2="185.00" />
    <line x1="175.40" y1="185.00" x2="175.40" y2="184.20" />
    <line x1="175.40" y1="184.20" x2="176.20" y2="183.40" />
    <line x1="176.20" y1="183.40" x2="176.20" y2="182.60" />
    <line x1="176.20" y1="182.60" x2="177.00" y2="181.80" />
    <line x1="177.00" y1="181.80" x2="177.00" y2="181.00" />
    <line x1="179.40" y1="182.60" x2="180.20" y2="181.80" />
    <line x1="180.20" y1="181.80" x2="181.80" y2="181.80" />
    <line x1="181.80" y1="181.80" x2="182.60" y2="182.60" />
    <line x1="182.60" y1="182.60" x2="182.60" y2="183.40" />
    <line x1="182.60" y1="183.40" x2="181.80" y2="184.20" />
    <line x1="181.80" y1="184.20" x2="181.00" y2="184.20" />
    <line x1="181.00" y1="184.20" x2="179.40" y2="185.80" />
    <line x1="179.40" y1="185.80" x2="179.40" y2="186.60" />
    <line x1="179.40" y1="186.60" x2="182.60" y2="186.60" />
    <line x1="187.40" y1="183.40" x2="190.60" y2="183.40" />
    <line x1="189.80" y1="183.40" x2="189.80" y2="184.20" />
    <line x1="189.80" y1="184.20" x2="188.20" y2="185.80" />
    <line x1="188.20" y1="185.80" x2="188.20" y2="186.60" />
    <line x1="187.40" y1="186.60" x2="190.60" y2="186.60" />
    <line x1="196.20" y1="186.60" x2="193.80" y2="186.60" />
    <line x1="193.80" y1="186.60" x2="193.00" y2="185.80" />
    <line x1="193.00" y1="185.80" x2="193.00" y2="184.20" />
    <line x1="193.00" y1="184.20" x2="193.80" y2="183.40" />
    <line x1="193.80" y1="183.40" x2="195.40" y2="183.40" />
    <line x1="195.40" y1="183.40" x2="196.20" y2="184.20" />
    <line x1="196.20" y1="184.20" x2="196.20" y2="185.00" />
    <line x1="196.20" y1="185.00" x2="193.00" y2="185.00" />
    <line x1="198.60" y1="181.00" x2="198.60" y2="186.60" />
    <line x1="198.60" y1="186.60" x2="201.00" y2="186.60" />
    <line x1="201.00" y1="186.60" x2="201.80" y2="185.80" />
    <line x1="201.80" y1="185.80" x2="201.80" y2="184.20" />
    <line x1="201.80" y1="184.20" x2="201.00" y2="183.40" />
    <line x1="201.00" y1="183.40" x2="198.60" y2="183.40" />
    <line x1="204.20" y1="186.60" x2="204.20" y2="183.40" />
    <line x1="204.20" y1="184.20" x2="205.00" y2="184.20" />
    <line x1="205.00" y1="184.20" x2="205.80" y2="183.40" />
    <line x1="205.80" y1="183.40" x2="206.60" y2="183.40" />
    <line x1="206.60" y1="183.40" x2="207.40" y2="184.20" />
    <line x1="213.00" y1="186.60" x2="210.60" y2="186.60" />
    <line x1="210.60" y1="186.60" x2="209.80" y2="185.80" />
    <line x1="209.80" y1="185.80" x2="210.60" y2="185.00" />
    <line x1="210.60" y1="185.00" x2="213.00" y2="185.00" />
    <line x1="210.60" y1="183.40" x2="212.20" y2="183.40" />
    <line x1="212.20" y1="183.40" x2="213.00" y2="184.20" />
    <line x1="213.00" y1="184.20" x2="213.00" y2="186.60" />
    <line x1="5.80" y1="197.60" x2="5.80" y2="192.80" />
    <line x1="5.80" y1="192.80" x2="6.60" y2="192.00" />
    <line x1="6.60" y1="192.00" x2="8.20" y2="192.00" />
    <line x1="5.00" y1="194.40" x2="7.40" y2="194.40" />
    <line x1="10.60" y1="199.20" x2="10.60" y2="194.40" />
    <line x1="10.60" y1="194.40" x2="13.00" y2="194.40" />
    <line x1="13.00" y1="194.40" x2="13.80" y2="195.20" />
    <line x1="13.80" y1="195.20" x2="13.80" y2="196.80" />
    <line x1="13.80" y1="196.80" x2="13.00" y2="197.60" />
    <line x1="13.00" y1="197.60" x2="10.60" y2="197.60" />
    <line x1="16.20" y1="197.60" x2="18.60" y2="197.60" />
    <line x1="18.60" y1="197.60" x2="19.40" y2="196.80" />
    <line x1="19.40" y1="196.80" x2="18.60" y2="196.00" />
    <line x1="18.60" y1="196.00" x2="17.00" y2="196.00" />
    <line x1="17.00" y1="196.00" x2="16.20" y2="195.20" />
    <line x1="16.20" y1="195.20" x2="17.00" y2="194.40" />
    <line x1="17.00" y1="194.40" x2="19.40" y2="194.40" />
    <line x1="24.20" y1="193.60" x2="25.00" y2="192.80" />
    <line x1="25.00" y1="192.80" x2="26.60" y2="192.80" />
    <line x1="26.60" y1="192.80" x2="27.40" y2="193.60" />
    <line x1="27.40" y1="193.60" x2="27.40" y2="194.40" />
    <line x1="27.40" y1="194.40" x2="26.60" y2="195.20" />
    <line x1="26.60" y1="195.20" x2="25.80" y2="195.20" />
    <line x1="25.80" y1="195.20" x2="24.20" y2="196.80" />
    <line x1="24.20" y1="196.80" x2="24.20" y2="197.60" />
    <line x1="24.20" y1="197.60" x2="27.40" y2="197.60" />
    <line x1="32.20" y1="197.60" x2="32.20" y2="192.80" />
    <line x1="32.20" y1="192.80" x2="29.80" y2="195.20" />
    <line x1="29.80" y1="195.20" x2="29.80" y2="196.00" />
    <line x1="29.80" y1="196.00" x2="33.00" y2="196.00" />
    <line x1="5.00" y1="208.60" x2="7.40" y2="208.60" />
    <line x1="7.40" y1="208.60" x2="8.20" y2="207.80" />
    <line x1="8.20" y1="207.80" x2="7.40" y2="207.00" />
    <line x1="7.40" y1="207.00" x2="5.80" y2="207.00" />
    <line x1="5.80" y1="207.00" x2="5.00" y2="206.20" />
    <line x1="5.00" y1="206.20" x2="5.80" y2="205.40" />
    <line x1="5.80" y1="205.40" x2="8.20" y2="205.40" />
    <line x1="11.40" y1="203.80" x2="11.40" y2="207.80" />
    <line x1="11.40" y1="207.80" x2="12.20" y2="208.60" />
    <line x1="12.20" y1="208.60" x2="13.80" y2="208.60" />
    <line x1="13.00" y1="205.40" x2="11.40" y2="205.40" />
    <line x1="19.40" y1="208.60" x2="17.00" y2="208.60" />
    <line x1="17.00" y1="208.60" x2="16.20" y2="207.80" />
    <line x1="16.20" y1="207.80" x2="17.00" y2="207.00" />
    <line x1="17.00" y1="207.00" x2="19.40" y2="207.00" />
    <line x1="17.00" y1="205.40" x2="18.60" y2="205.40" />
    <line x1="18.60" y1="205.40" x2="19.40" y2="206.20" />
    <line x1="19.40" y1="206.20" x2="19.40" y2="208.60" />
    <line x1="21.80" y1="208.60" x2="21.80" y2="205.40" />
    <line x1="21.80" y1="205.40" x2="22.60" y2="205.40" />
    <line x1="22.60" y1="205.40" x2="23.40" y2="206.20" />
    <line x1="23.40" y1="206.20" x2="23.40" y2="208.60" />
    <line x1="23.40" y1="206.20" x2="24.20" y2="205.40" />
    <line x1="24.20" y1="205.40" x2="25.00" y2="206.20" />
    <line x1="25.00" y1="206.20" x2="25.00" y2="208.60" />
    <line x1="27.40" y1="210.20" x2="27.40" y2="205.40" />
    <line x1="27.40" y1="205.40" x2="29.80" y2="205.40" />
    <line x1="29.80" y1="205.40" x2="30.60" y2="206.20" />
    <line x1="30.60" y1="206.20" x2="30.60" y2="207.80" />
    <line x1="30.60" y1="207.80" x2="29.80" y2="208.60" />
    <line x1="29.80" y1="208.60" x2="27.40" y2="208.60" />
    <line x1="36.20" y1="208.60" x2="36.20" y2="204.60" />
    <line x1="37.80" y1="208.60" x2="37.80" y2="204.60" />
    <line x1="35.40" y1="205.40" x2="38.60" y2="205.40" />
    <line x1="35.40" y1="207.80" x2="38.60" y2="207.80" />
    <line x1="44.20" y1="208.60" x2="41.80" y2="208.60" />
    <line x1="41.80" y1="208.60" x2="41.00" y2="207.80" />
    <line x1="41.00" y1="207.80" x2="41.00" y2="206.20" />
    <line x1="41.00" y1="206.20" x2="41.80" y2="205.40" />
    <line x1="41.80" y1="205.40" x2="44.20" y2="205.40" />
    <line x1="44.20" y1="203.00" x2="44.20" y2="208.60" />
    <line x1="46.60" y1="208.60" x2="46.60" y2="205.40" />
    <line x1="46.60" y1="205.40" x2="47.40" y2="205.40" />
    <line x1="47.40" y1="205.40" x2="48.20" y2="206.20" />
    <line x1="48.20" y1="206.20" x2="48.20" y2="208.60" />
    <line x1="48.20" y1="206.20" x2="49.00" y2="205.40" />
    <line x1="49.00" y1="205.40" x2="49.80" y2="206.20" />
    <line x1="49.80" y1="206.20" x2="49.80" y2="208.60" />
    <line x1="53.00" y1="203.00" x2="53.80" y2="203.00" />
    <line x1="53.80" y1="203.00" x2="53.80" y2="208.60" />
    <line x1="62.60" y1="203.80" x2="61.80" y2="203.80" />
    <line x1="61.80" y1="203.80" x2="60.20" y2="205.40" />
    <line x1="60.20" y1="205.40" x2="60.20" y2="207.80" />
    <line x1="60.20" y1="207.80" x2="61.00" y2="208.60" />
    <line x1="61.00" y1="208.60" x2="62.60" y2="208.60" />
    <line x1="62.60" y1="208.60" x2="63.40" y2="207.80" />
    <line x1="63.40" y1="207.80" x2="63.40" y2="207.00" />
    <line x1="63.40" y1="207.00" x2="62.60" y2="206.20" />
    <line x1="62.60" y1="206.20" x2="60.20" y2="206.20" />
    <line x1="66.60" y1="203.80" x2="68.20" y2="203.80" />
    <line x1="68.20" y1="203.80" x2="69.00" y2="204.60" />
    <line x1="69.00" y1="204.60" x2="69.00" y2="207.80" />
    <line x1="69.00" y1="207.80" x2="68.20" y2="208.60" />
    <line x1="68.20" y1="208.60" x2="66.60" y2="208.60" />
    <line x1="66.60" y1="208.60" x2="65.80" y2="207.80" />
    <line x1="65.80" y1="207.80" x2="65.80" y2="204.60" />
    <line x1="65.80" y1="204.60" x2="66.60" y2="203.80" />
    <line x1="76.20" y1="206.20" x2="74.60" y2="206.20" />
    <line x1="74.60" y1="206.20" x2="73.80" y2="205.40" />
    <line x1="73.80" y1="205.40" x2="73.80" y2="204.60" />
    <line x1="73.80" y1="204.60" x2="74.60" y2="203.80" />
    <line x1="74.60" y1="203.80" x2="76.20" y2="203.80" />
    <line x1="76.20" y1="203.80" x2="77.00" y2="204.60" />
    <line x1="77.00" y1="204.60" x2="77.00" y2="205.40" />
    <line x1="77.00" y1="205.40" x2="76.20" y2="206.20" />
    <line x1="76.20" y1="206.20" x2="77.00" y2="207.00" />
    <line x1="77.00" y1="207.00" x2="77.00" y2="207.80" />
    <line x1="77.00" y1="207.80" x2="76.20" y2="208.60" />
    <line x1="76.20" y1="208.60" x2="74.60" y2="208.60" />
    <line x1="74.60" y1="208.60" x2="73.80" y2="207.80" />
    <line x1="73.80" y1="207.80" x2="73.80" y2="207.00" />
    <line x1="73.80" y1="207.00" x2="74.60" y2="206.20" />
    <line x1="80.20" y1="203.80" x2="81.80" y2="203.80" />
    <line x1="81.80" y1="203.80" x2="82.60" y2="204.60" />
    <line x1="82.60" y1="204.60" x2="82.60" y2="207.80" />
    <line x1="82.60" y1="207.80" x2="81.80" y2="208.60" />
    <line x1="81.80" y1="208.60" x2="80.20" y2="208.60" />
    <line x1="80.20" y1="208.60" x2="79.40" y2="207.80" />
    <line x1="79.40" y1="207.80" x2="79.40" y2="204.60" />
    <line x1="79.40" y1="204.60" x2="80.20" y2="203.80" />
    <line x1="95.40" y1="206.20" x2="93.80" y2="206.20" />
    <line x1="93.80" y1="206.20" x2="93.00" y2="205.40" />
    <line x1="93.00" y1="205.40" x2="93.00" y2="204.60" />
    <line x1="93.00" y1="204.60" x2="93.80" y2="203.80" />
    <line x1="93.80" y1="203.80" x2="95.40" y2="203.80" />
    <line x1="95.40" y1="203.80" x2="96.20" y2="204.60" />
    <line x1="96.20" y1="204.60" x2="96.20" y2="205.40" />
    <line x1="96.20" y1="205.40" x2="95.40" y2="206.20" />
    <line x1="95.40" y1="206.20" x2="96.20" y2="207.00" />
    <line x1="96.20" y1="207.00" x2="96.20" y2="207.80" />
    <line x1="96.20" y1="207.80" x2="95.40" y2="208.60" />
    <line x1="95.40" y1="208.60" x2="93.80" y2="208.60" />
    <line x1="93.80" y1="208.60" x2="93.00" y2="207.80" />
    <line x1="93.00" y1="207.80" x2="93.00" y2="207.00" />
    <line x1="93.00" y1="207.00" x2="93.80" y2="206.20" />
    <line x1="101.80" y1="204.60" x2="102.60" y2="203.80" />
    <line x1="102.60" y1="203.80" x2="102.60" y2="208.60" />
    <line x1="101.80" y1="208.60" x2="103.40" y2="208.60" />
    <line x1="106.60" y1="203.80" x2="109.80" y2="203.80" />
    <line x1="109.80" y1="203.80" x2="109.80" y2="204.60" />
    <line x1="109.80" y1="204.60" x2="107.40" y2="208.60" />
    <line x1="113.00" y1="203.80" x2="114.60" y2="203.80" />
    <line x1="114.60" y1="203.80" x2="115.40" y2="204.60" />
    <line x1="115.40" y1="204.60" x2="115.40" y2="207.80" />
    <line x1="115.40" y1="207.80" x2="114.60" y2="208.60" />
    <line x1="114.60" y1="208.60" x2="113.00" y2="208.60" />
    <line x1="113.00" y1="208.60" x2="112.20" y2="207.80" />
    <line x1="112.20" y1="207.80" x2="112.20" y2="204.60" />
    <line x1="112.20" y1="204.60" x2="113.00" y2="203.80" />
    <line x1="5.00" y1="214.00" x2="5.00" y2="219.60" />
    <line x1="5.00" y1="219.60" x2="7.40" y2="219.60" />
    <line x1="7.40" y1="219.60" x2="8.20" y2="218.80" />
    <line x1="8.20" y1="218.80" x2="8.20" y2="217.20" />
    <line x1="8.20" y1="217.20" x2="7.40" y2="216.40" />
    <line x1="7.40" y1="216.40" x2="5.00" y2="216.40" />
    <line x1="11.40" y1="214.00" x2="12.20" y2="214.00" />
    <line x1="12.20" y1="214.00" x2="12.20" y2="219.60" />
    <line x1="16.20" y1="216.40" x2="16.20" y2="218.80" />
    <line x1="16.20" y1="218.80" x2="17.00" y2="219.60" />
    <line x1="17.00" y1="219.60" x2="19.40" y2="219.60" />
    <line x1="19.40" y1="219.60" x2="19.40" y2="216.40" />
    <line x1="21.80" y1="219.60" x2="21.80" y2="216.40" />
    <line x1="21.80" y1="217.20" x2="22.60" y2="217.20" />
    <line x1="22.60" y1="217.20" x2="23.40" y2="216.40" />
    <line x1="23.40" y1="216.40" x2="24.20" y2="216.40" />
    <line x1="24.20" y1="216.40" x2="25.00" y2="217.20" />
    <line x1="29.80" y1="215.60" x2="30.60" y2="214.80" />
    <line x1="30.60" y1="214.80" x2="32.20" y2="214.80" />
    <line x1="32.20" y1="214.80" x2="33.00" y2="215.60" />
    <line x1="33.00" y1="215.60" x2="33.00" y2="216.40" />
    <line x1="33.00" y1="216.40" x2="32.20" y2="217.20" />
    <line x1="32.20" y1="217.20" x2="31.40" y2="217.20" />
    <line x1="31.40" y1="217.20" x2="29.80" y2="218.80" />
    <line x1="29.80" y1="218.80" x2="29.80" y2="219.60" />
    <line x1="29.80" y1="219.60" x2="33.00" y2="219.60" />
  </g>
</svg>