<?xml version="1.0" encoding="UTF-8"?>
<svg xmlns="http://www.w3.org/2000/svg" width="192.80mm" height="166.00mm" viewBox="0 0 192.80 166.00">
  <g stroke="black" stroke-width="0.28" fill="none">
    <line x1="4.00" y1="4.00" x2="4.00" y2="8.20" />
    <line x1="4.00" y1="5.80" x2="5.80" y2="5.80" />
    <line x1="5.80" y1="5.80" x2="6.40" y2="6.40" />
    <line x1="6.40" y1="6.40" x2="6.40" y2="8.20" />
    <line x1="9.40" y1="8.20" x2="9.40" y2="5.80" />
    <line x1="9.40" y1="5.80" x2="8.80" y2="5.80" />
    <line x1="13.00" y1="4.60" x2="13.00" y2="7.60" />
    <line x1="13.00" y1="7.60" x2="13.60" y2="8.20" />
    <line x1="13.60" y1="8.20" x2="14.80" y2="8.20" />
    <line x1="14.20" y1="5.80" x2="13.00" y2="5.80" />
    <line x1="16.60" y1="8.20" x2="18.40" y2="8.20" />
    <line x1="18.40" y1="8.20" x2="19.00" y2="7.60" />
    <line x1="19.00" y1="7.60" x2="18.40" y2="7.00" />
    <line x1="18.40" y1="7.00" x2="17.20" y2="7.00" />
    <line x1="17.20" y1="7.00" x2="16.60" y2="6.40" />
    <line x1="16.60" y1="6.40" x2="17.20" y2="5.80" />
    <line x1="17.20" y1="5.80" x2="19.00" y2="5.80" />
    <line x1="25.00" y1="5.20" x2="25.60" y2="4.60" />
    <line x1="25.60" y1="4.60" x2="26.80" y2="4.60" />
    <line x1="26.80" y1="4.60" x2="27.40" y2="5.20" />
    <line x1="27.40" y1="5.20" x2="27.40" y2="5.80" />
    <line x1="27.40" y1="5.80" x2="26.80" y2="6.40" />
    <line x1="26.80" y1="6.40" x2="26.20" y2="6.40" />
    <line x1="26.80" y1="6.40" x2="27.40" y2="7.00" />
    <line x1="27.40" y1="7.00" x2="27.40" y2="7.60" />
    <line x1="27.40" y1="7.60" x2="26.80" y2="8.20" />
    <line x1="26.80" y1="8.20" x2="25.60" y2="8.20" />
    <line x1="25.60" y1="8.20" x2="25.00" y2="7.60" />
    <line x1="31.00" y1="4.60" x2="30.40" y2="4.60" />
    <line x1="30.40" y1="4.60" x2="29.20" y2="5.80" />
    <line x1="29.20" y1="5.80" x2="29.20" y2="7.60" />
    <line x1="29.20" y1="7.60" x2="29.80" y2="8.20" />
    <line x1="29.80" y1="8.20" x2="31.00" y2="8.20" />
    <line x1="31.00" y1="8.20" x2="31.60" y2="7.60" />
    <line x1="31.60" y1="7.60" x2="31.60" y2="7.00" />
    <line x1="31.60" y1="7.00" x2="31.00" y2="6.40" />
    <line x1="31.00" y1="6.40" x2="29.20" y2="6.40" />
    <line x1="33.40" y1="5.20" x2="34.00" y2="4.60" />
    <line x1="34.00" y1="4.60" x2="35.20" y2="4.60" />
    <line x1="35.20" y1="4.60" x2="35.80" y2="5.20" />
    <line x1="35.80" y1="5.20" x2="35.80" y2="5.80" />
    <line x1="35.80" y1="5.80" x2="35.20" y2="6.40" />
    <line x1="35.20" y1="6.40" x2="34.60" y2="6.40" />
    <line x1="35.20" y1="6.40" x2="35.80" y2="7.00" />
    <line x1="35.80" y1="7.00" x2="35.80" y2="7.60" />
    <line x1="35.80" y1="7.60" x2="35.20" y2="8.20" />
    <line x1="35.20" y1="8.20" x2="34.00" y2="8.20" />
    <line x1="34.00" y1="8.20" x2="33.40" y2="7.60" />
    <line x1="39.40" y1="4.00" x2="39.40" y2="8.20" />
    <line x1="39.40" y1="5.80" x2="41.20" y2="5.80" />
    <line x1="41.20" y1="5.80" x2="41.80" y2="6.40" />
    <line x1="41.80" y1="6.40" x2="41.80" y2="8.20" />
    <line x1="46.00" y1="8.20" x2="44.20" y2="8.20" />
    <line x1="44.20" y1="8.20" x2="43.60" y2="7.60" />
    <line x1="43.60" y1="7.60" x2="44.20" y2="7.00" />
    <line x1="44.20" y1="7.00" x2="46.00" y2="7.00" />
    <line x1="44.20" y1="5.80" x2="45.40" y2="5.80" />
    <line x1="45.40" y1="5.80" x2="46.00" y2="6.40" />
    <line x1="46.00" y1="6.40" x2="46.00" y2="8.20" />
    <line x1="47.80" y1="8.20" x2="49.60" y2="8.20" />
    <line x1="49.60" y1="8.20" x2="50.20" y2="7.60" />
    <line x1="50.20" y1="7.60" x2="49.60" y2="7.00" />
    <line x1="49.60" y1="7.00" x2="48.40" y2="7.00" />
    <line x1="48.40" y1="7.00" x2="47.80" y2="6.40" />
    <line x1="47.80" y1="6.40" x2="48.40" y2="5.80" />
    <line x1="48.40" y1="5.80" x2="50.20" y2="5.80" />
    <line x1="52.00" y1="4.00" x2="52.00" y2="8.20" />
    <line x1="52.00" y1="5.80" x2="53.80" y2="5.80" />
    <line x1="53.80" y1="5.80" x2="54.40" y2="6.40" />
    <line x1="54.40" y1="6.40" x2="54.40" y2="8.20" />
    <line x1="61.00" y1="5.20" x2="61.60" y2="4.60" />
    <line x1="61.60" y1="4.60" x2="61.60" y2="8.20" />
    <line x1="61.00" y1="8.20" x2="62.20" y2="8.20" />
    <line x1="65.20" y1="4.60" x2="66.40" y2="4.60" />
    <line x1="66.40" y1="4.60" x2="67.00" y2="5.20" />
    <line x1="67.00" y1="5.20" x2="67.00" y2="7.60" />
    <line x1="67.00" y1="7.60" x2="66.40" y2="8.20" />
    <line x1="66.40" y1="8.20" x2="65.20" y2="8.20" />
    <line x1="65.20" y1="8.20" x2="64.60" y2="7.60" />
    <line x1="64.60" y1="7.60" x2="64.60" y2="5.20" />
    <line x1="64.60" y1="5.20" x2="65.20" y2="4.60" />
    <line x1="68.80" y1="4.60" x2="71.20" y2="4.60" />
    <line x1="71.20" y1="4.60" x2="71.20" y2="5.20" />
    <line x1="71.20" y1="5.20" x2="69.40" y2="8.20" />
    <line x1="73.60" y1="8.20" x2="74.20" y2="8.20" />
    <line x1="74.20" y1="8.20" x2="75.40" y2="7.00" />
    <line x1="75.40" y1="7.00" x2="75.40" y2="5.20" />
    <line x1="75.40" y1="5.20" x2="74.80" y2="4.60" />
    <line x1="74.80" y1="4.60" x2="73.60" y2="4.60" />
    <line x1="73.60" y1="4.60" x2="73.00" y2="5.20" />
    <line x1="73.00" y1="5.20" x2="73.00" y2="5.80" />
    <line x1="73.00" y1="5.80" x2="73.60" y2="6.40" />
    <line x1="73.60" y1="6.40" x2="75.40" y2="6.40" />
    <line x1="79.00" y1="4.60" x2="78.40" y2="4.60" />
    <line x1="78.40" y1="4.60" x2="77.20" y2="5.80" />
    <line x1="77.20" y1="5.80" x2="77.20" y2="7.60" />
    <line x1="77.20" y1="7.60" x2="77.80" y2="8.20" />
    <line x1="77.80" y1="8.20" x2="79.00" y2="8.20" />
    <line x1="79.00" y1="8.20" x2="79.60" y2="7.60" />
    <line x1="79.60" y1="7.60" x2="79.60" y2="7.00" />
    <line x1="79.60" y1="7.00" x2="79.00" y2="6.40" />
    <line x1="79.00" y1="6.40" x2="77.20" y2="6.40" />
    <line x1="81.40" y1="4.00" x2="81.40" y2="8.20" />
    <line x1="81.40" y1="8.20" x2="83.20" y2="8.20" />
    <line x1="83.20" y1="8.20" x2="83.80" y2="7.60" />
    <line x1="83.80" y1="7.60" x2="83.80" y2="6.40" />
    <line x1="83.80" y1="6.40" x2="83.20" y2="5.80" />
    <line x1="83.20" y1="5.80" x2="81.40" y2="5.80" />
    <line x1="85.60" y1="4.60" x2="88.00" y2="4.60" />
    <line x1="88.00" y1="4.60" x2="88.00" y2="5.20" />
    <line x1="88.00" y1="5.20" x2="86.20" y2="8.20" />
    <line x1="89.80" y1="4.00" x2="89.80" y2="8.20" />
    <line x1="89.80" y1="8.20" x2="91.60" y2="8.20" />
    <line x1="91.60" y1="8.20" x2="92.20" y2="7.60" />
    <line x1="92.20" y1="7.60" x2="92.20" y2="6.40" />
    <line x1="92.20" y1="6.40" x2="91.60" y2="5.80" />
    <line x1="91.60" y1="5.80" x2="89.80" y2="5.80" />
    <line x1="96.40" y1="8.20" x2="94.60" y2="8.20" />
    <line x1="94.60" y1="8.20" x2="94.00" y2="7.60" />
    <line x1="94.00" y1="7.60" x2="94.00" y2="6.40" />
    <line x1="94.00" y1="6.40" x2="94.60" y2="5.80" />
    <line x1="94.60" y1="5.80" x2="96.40" y2="5.80" />
    <line x1="96.40" y1="4.00" x2="96.40" y2="8.20" />
    <line x1="98.20" y1="5.20" x2="98.80" y2="4.60" />
    <line x1="98.80" y1="4.60" x2="100.00" y2="4.60" />
    <line x1="100.00" y1="4.60" x2="100.60" y2="5.20" />
    <line x1="100.60" y1="5.20" x2="100.60" y2="5.80" />
    <line x1="100.60" y1="5.80" x2="100.00" y2="6.40" />
    <line x1="100.00" y1="6.40" x2="99.40" y2="6.40" />
    <line x1="99.40" y1="6.40" x2="98.20" y2="7.60" />
    <line x1="98.20" y1="7.60" x2="98.20" y2="8.20" />
    <line x1="98.20" y1="8.20" x2="100.60" y2="8.20" />
    <line x1="4.60" y1="16.20" x2="4.60" y2="12.60" />
    <line x1="4.60" y1="12.60" x2="5.20" y2="12.00" />
    <line x1="5.20" y1="12.00" x2="6.40" y2="12.00" />
    <line x1="4.00" y1="13.80" x2="5.80" y2="13.80" />
    <line x1="10.60" y1="16.20" x2="8.80" y2="16.20" />
    <line x1="8.80" y1="16.20" x2="8.20" y2="15.60" />
    <line x1="8.20" y1="15.60" x2="8.80" y2="15.00" />
    <line x1="8.80" y1="15.00" x2="10.60" y2="15.00" />
    <line x1="8.80" y1="13.80" x2="10.00" y2="13.80" />
    <line x1="10.00" y1="13.80" x2="10.60" y2="14.40" />
    <line x1="10.60" y1="14.40" x2="10.60" y2="16.20" />
    <line x1="14.80" y1="16.20" x2="13.00" y2="16.20" />
    <line x1="13.00" y1="16.20" x2="12.40" y2="15.60" />
    <line x1="12.40" y1="15.60" x2="12.40" y2="14.40" />
    <line x1="12.40" y1="14.40" x2="13.00" y2="13.80" />
    <line x1="13.00" y1="13.80" x2="14.80" y2="13.80" />
    <line x1="14.80" y1="12.00" x2="14.80" y2="16.20" />
    <line x1="19.00" y1="16.20" x2="17.20" y2="16.20" />
    <line x1="17.20" y1="16.20" x2="16.60" y2="15.60" />
    <line x1="16.60" y1="15.60" x2="16.60" y2="14.40" />
    <line x1="16.60" y1="14.40" x2="17.20" y2="13.80" />
    <line x1="17.20" y1="13.80" x2="18.40" y2="13.80" />
    <line x1="18.40" y1="13.80" x2="19.00" y2="14.40" />
    <line x1="19.00" y1="14.40" x2="19.00" y2="15.00" />
    <line x1="19.00" y1="15.00" x2="16.60" y2="15.00" />
    <line x1="25.60" y1="12.00" x2="26.20" y2="12.00" />
    <line x1="26.20" y1="12.00" x2="26.20" y2="16.20" />
    <line x1="30.40" y1="16.20" x2="30.40" y2="13.80" />
    <line x1="30.40" y1="13.80" x2="29.80" y2="13.80" />
    <line x1="34.00" y1="17.40" x2="35.20" y2="17.40" />
    <line x1="35.20" y1="17.40" x2="35.80" y2="16.80" />
    <line x1="35.80" y1="16.80" x2="35.80" y2="14.40" />
    <line x1="35.80" y1="14.40" x2="35.20" y2="13.80" />
    <line x1="35.20" y1="13.80" x2="34.00" y2="13.80" />
    <line x1="34.00" y1="13.80" x2="33.40" y2="14.40" />
    <line x1="33.40" y1="14.40" x2="33.40" y2="15.60" />
    <line x1="33.40" y1="15.60" x2="34.00" y2="16.20" />
    <line x1="34.00" y1="16.20" x2="35.80" y2="16.20" />
    <line x1="37.60" y1="12.00" x2="37.60" y2="16.20" />
    <line x1="37.60" y1="13.80" x2="39.40" y2="13.80" />
    <line x1="39.40" y1="13.80" x2="40.00" y2="14.40" />
    <line x1="40.00" y1="14.40" x2="40.00" y2="16.20" />
    <line x1="42.40" y1="12.60" x2="42.40" y2="15.60" />
    <line x1="42.40" y1="15.60" x2="43.00" y2="16.20" />
    <line x1="43.00" y1="16.20" x2="44.20" y2="16.20" />
    <line x1="43.60" y1="13.80" x2="42.40" y2="13.80" />
    <line x1="46.00" y1="16.20" x2="47.80" y2="16.20" />
    <line x1="47.80" y1="16.20" x2="48.40" y2="15.60" />
    <line x1="48.40" y1="15.60" x2="47.80" y2="15.00" />
    <line x1="47.80" y1="15.00" x2="46.60" y2="15.00" />
    <line x1="46.60" y1="15.00" x2="46.00" y2="14.40" />
    <line x1="46.00" y1="14.40" x2="46.60" y2="13.80" />
    <line x1="46.60" y1="13.80" x2="48.40" y2="13.80" />
    <line x1="50.80" y1="12.60" x2="50.80" y2="15.60" />
    <line x1="50.80" y1="15.60" x2="51.40" y2="16.20" />
    <line x1="51.40" y1="16.20" x2="52.60" y2="16.20" />
    <line x1="52.00" y1="13.80" x2="50.80" y2="13.80" />
    <line x1="56.80" y1="16.20" x2="55.00" y2="16.20" />
    <line x1="55.00" y1="16.20" x2="54.40" y2="15.60" />
    <line x1="54.40" y1="15.60" x2="54.40" y2="14.40" />
    <line x1="54.40" y1="14.40" x2="55.00" y2="13.80" />
    <line x1="55.00" y1="13.80" x2="56.20" y2="13.80" />
    <line x1="56.20" y1="13.80" x2="56.80" y2="14.40" />
    <line x1="56.80" y1="14.40" x2="56.80" y2="15.00" />
    <line x1="56.80" y1="15.00" x2="54.40" y2="15.00" />
    <line x1="61.00" y1="16.20" x2="59.20" y2="16.20" />
    <line x1="59.20" y1="16.20" x2="58.60" y2="15.60" />
    <line x1="58.60" y1="15.60" x2="58.60" y2="14.40" />
    <line x1="58.60" y1="14.40" x2="59.20" y2="13.80" />
    <line x1="59.20" y1="13.80" x2="60.40" y2="13.80" />
    <line x1="60.40" y1="13.80" x2="61.00" y2="14.40" />
    <line x1="61.00" y1="14.40" x2="61.00" y2="15.00" />
    <line x1="61.00" y1="15.00" x2="58.60" y2="15.00" />
    <line x1="63.40" y1="12.00" x2="64.00" y2="12.00" />
    <line x1="64.00" y1="12.00" x2="64.00" y2="16.20" />
    <line x1="67.00" y1="12.00" x2="67.00" y2="16.20" />
    <line x1="67.00" y1="16.20" x2="68.80" y2="16.20" />
    <line x1="68.80" y1="16.20" x2="69.40" y2="15.60" />
    <line x1="69.40" y1="15.60" x2="69.40" y2="14.40" />
    <line x1="69.40" y1="14.40" x2="68.80" y2="13.80" />
    <line x1="68.80" y1="13.80" x2="67.00" y2="13.80" />
    <line x1="71.80" y1="12.00" x2="72.40" y2="12.00" />
    <line x1="72.40" y1="12.00" x2="72.40" y2="16.20" />
    <line x1="75.40" y1="13.80" x2="75.40" y2="15.60" />
    <line x1="75.40" y1="15.60" x2="76.00" y2="16.20" />
    <line x1="76.00" y1="16.20" x2="77.80" y2="16.20" />
    <line x1="77.80" y1="16.20" x2="77.80" y2="13.80" />
    <line x1="82.00" y1="16.20" x2="80.20" y2="16.20" />
    <line x1="80.20" y1="16.20" x2="79.60" y2="15.60" />
    <line x1="79.60" y1="15.60" x2="79.60" y2="14.40" />
    <line x1="79.60" y1="14.40" x2="80.20" y2="13.80" />
    <line x1="80.20" y1="13.80" x2="81.40" y2="13.80" />
    <line x1="81.40" y1="13.80" x2="82.00" y2="14.40" />
    <line x1="82.00" y1="14.40" x2="82.00" y2="15.00" />
    <line x1="82.00" y1="15.00" x2="79.60" y2="15.00" />
    <line x1="83.80" y1="14.40" x2="86.20" y2="14.40" />
    <line x1="88.00" y1="17.40" x2="88.00" y2="13.80" />
    <line x1="88.00" y1="13.80" x2="89.80" y2="13.80" />
    <line x1="89.80" y1="13.80" x2="90.40" y2="14.40" />
    <line x1="90.40" y1="14.40" x2="90.40" y2="15.60" />
    <line x1="90.40" y1="15.60" x2="89.80" y2="16.20" />
    <line x1="89.80" y1="16.20" x2="88.00" y2="16.20" />
    <line x1="93.40" y1="16.20" x2="93.40" y2="13.80" />
    <line x1="93.40" y1="13.80" x2="92.80" y2="13.80" />
    <line x1="96.40" y1="16.20" x2="96.40" y2="13.80" />
    <line x1="96.40" y1="13.80" x2="98.20" y2="13.80" />
    <line x1="98.20" y1="13.80" x2="98.80" y2="14.40" />
    <line x1="98.80" y1="14.40" x2="98.80" y2="16.20" />
    <line x1="101.20" y1="12.00" x2="101.20" y2="16.20" />
    <line x1="103.00" y1="16.20" x2="101.80" y2="15.00" />
    <line x1="101.20" y1="15.00" x2="101.80" y2="15.00" />
    <line x1="101.80" y1="15.00" x2="103.00" y2="13.80" />
    <line x1="104.80" y1="14.40" x2="107.20" y2="14.40" />
    <line x1="109.60" y1="12.00" x2="110.20" y2="12.00" />
    <line x1="110.20" y1="12.00" x2="110.20" y2="16.20" />
    <line x1="114.40" y1="16.20" x2="114.40" y2="13.80" />
    <line x1="114.40" y1="13.80" x2="113.80" y2="13.80" />
    <line x1="118.00" y1="17.40" x2="119.20" y2="17.40" />
    <line x1="119.20" y1="17.40" x2="119.80" y2="16.80" />
    <line x1="119.80" y1="16.80" x2="119.80" y2="14.40" />
    <line x1="119.80" y1="14.40" x2="119.20" y2="13.80" />
    <line x1="119.20" y1="13.80" x2="118.00" y2="13.80" />
    <line x1="118.00" y1="13.80" x2="117.40" y2="14.40" />
    <line x1="117.40" y1="14.40" x2="117.40" y2="15.60" />
    <line x1="117.40" y1="15.60" x2="118.00" y2="16.20" />
    <line x1="118.00" y1="16.20" x2="119.80" y2="16.20" />
    <line x1="121.60" y1="12.00" x2="121.60" y2="16.20" />
    <line x1="121.60" y1="13.80" x2="123.40" y2="13.80" />
    <line x1="123.40" y1="13.80" x2="124.00" y2="14.40" />
    <line x1="124.00" y1="14.40" x2="124.00" y2="16.20" />
    <line x1="126.40" y1="12.60" x2="126.40" y2="15.60" />
    <line x1="126.40" y1="15.60" x2="127.00" y2="16.20" />
    <line x1="127.00" y1="16.20" x2="128.20" y2="16.20" />
    <line x1="127.60" y1="13.80" x2="126.40" y2="13.80" />
    <line x1="130.60" y1="17.40" x2="131.80" y2="17.40" />
    <line x1="131.80" y1="17.40" x2="132.40" y2="16.80" />
    <line x1="132.40" y1="16.80" x2="132.40" y2="14.40" />
    <line x1="132.40" y1="14.40" x2="131.80" y2="13.80" />
    <line x1="131.80" y1="13.80" x2="130.60" y2="13.80" />
    <line x1="130.60" y1="13.80" x2="130.00" y2="14.40" />
    <line x1="130.00" y1="14.40" x2="130.00" y2="15.60" />
    <line x1="130.00" y1="15.60" x2="130.60" y2="16.20" />
    <line x1="130.60" y1="16.20" x2="132.40" y2="16.20" />
    <line x1="134.20" y1="16.20" x2="134.20" y2="13.80" />
    <line x1="134.20" y1="14.40" x2="134.80" y2="14.40" />
    <line x1="134.80" y1="14.40" x2="135.40" y2="13.80" />
    <line x1="135.40" y1="13.80" x2="136.00" y2="13.80" />
    <line x1="136.00" y1="13.80" x2="136.60" y2="14.40" />
    <line x1="140.80" y1="16.20" x2="139.00" y2="16.20" />
    <line x1="139.00" y1="16.20" x2="138.40" y2="15.60" />
    <line x1="138.40" y1="15.60" x2="138.40" y2="14.40" />
    <line x1="138.40" y1="14.40" x2="139.00" y2="13.80" />
    <line x1="139.00" y1="13.80" x2="140.20" y2="13.80" />
    <line x1="140.20" y1="13.80" x2="140.80" y2="14.40" />
    <line x1="140.80" y1="14.40" x2="140.80" y2="15.00" />
    <line x1="140.80" y1="15.00" x2="138.40" y2="15.00" />
    <line x1="145.00" y1="16.20" x2="143.20" y2="16.20" />
    <line x1="143.20" y1="16.20" x2="142.60" y2="15.60" />
    <line x1="142.60" y1="15.60" x2="142.60" y2="14.40" />
    <line x1="142.60" y1="14.40" x2="143.20" y2="13.80" />
    <line x1="143.20" y1="13.80" x2="144.40" y2="13.80" />
    <line x1="144.40" y1="13.80" x2="145.00" y2="14.40" />
    <line x1="145.00" y1="14.40" x2="145.00" y2="15.00" />
    <line x1="145.00" y1="15.00" x2="142.60" y2="15.00" />
    <line x1="146.80" y1="16.20" x2="146.80" y2="13.80" />
    <line x1="146.80" y1="13.80" x2="148.60" y2="13.80" />
    <line x1="148.60" y1="13.80" x2="149.20" y2="14.40" />
    <line x1="149.20" y1="14.40" x2="149.20" y2="16.20" />
    <line x1="155.20" y1="13.80" x2="155.20" y2="14.40" />
    <line x1="155.20" y1="14.40" x2="155.80" y2="15.00" />
    <line x1="155.80" y1="15.00" x2="155.80" y2="15.60" />
    <line x1="155.80" y1="15.60" x2="156.40" y2="16.20" />
    <line x1="156.40" y1="16.20" x2="157.00" y2="15.60" />
    <line x1="157.00" y1="15.60" x2="157.00" y2="15.00" />
    <line x1="157.00" y1="15.00" x2="157.60" y2="14.40" />
    <line x1="157.60" y1="14.40" x2="157.60" y2="13.80" />
    <line x1="161.80" y1="16.20" x2="160.00" y2="16.20" />
    <line x1="160.00" y1="16.20" x2="159.40" y2="15.60" />
    <line x1="159.40" y1="15.60" x2="159.40" y2="14.40" />
    <line x1="159.40" y1="14.40" x2="160.00" y2="13.80" />
    <line x1="160.00" y1="13.80" x2="161.20" y2="13.80" />
    <line x1="161.20" y1="13.80" x2="161.80" y2="14.40" />
    <line x1="161.80" y1="14.40" x2="161.80" y2="15.00" />
    <line x1="161.80" y1="15.00" x2="159.40" y2="15.00" />
    <line x1="163.60" y1="16.20" x2="163.60" y2="13.80" />
    <line x1="163.60" y1="14.40" x2="164.20" y2="14.40" />
    <line x1="164.20" y1="14.40" x2="164.80" y2="13.80" />
    <line x1="164.80" y1="13.80" x2="165.40" y2="13.80" />
    <line x1="165.40" y1="13.80" x2="166.00" y2="14.40" />
    <line x1="168.40" y1="12.60" x2="168.40" y2="15.60" />
    <line x1="168.40" y1="15.60" x2="169.00" y2="16.20" />
    <line x1="169.00" y1="16.20" x2="170.20" y2="16.20" />
    <line x1="169.60" y1="13.80" x2="168.40" y2="13.80" />
    <line x1="173.20" y1="16.20" x2="173.20" y2="13.80" />
    <line x1="173.20" y1="13.80" x2="172.60" y2="13.80" />
    <line x1="178.60" y1="16.20" x2="176.80" y2="16.20" />
    <line x1="176.80" y1="16.20" x2="176.20" y2="15.60" />
    <line x1="176.20" y1="15.60" x2="176.20" y2="14.40" />
    <line x1="176.20" y1="14.40" x2="176.80" y2="13.80" />
    <line x1="176.80" y1="13.80" x2="178.60" y2="13.80" />
    <line x1="182.80" y1="16.20" x2="181.00" y2="16.20" />
    <line x1="181.00" y1="16.20" x2="180.40" y2="15.60" />
    <line x1="180.40" y1="15.60" x2="181.00" y2="15.00" />
    <line x1="181.00" y1="15.00" x2="182.80" y2="15.00" />
    <line x1="181.00" y1="13.80" x2="182.20" y2="13.80" />
    <line x1="182.20" y1="13.80" x2="182.80" y2="14.40" />
    <line x1="182.80" y1="14.40" x2="182.80" y2="16.20" />
    <line x1="185.20" y1="12.00" x2="185.80" y2="12.00" />
    <line x1="185.80" y1="12.00" x2="185.80" y2="16.20" />
    <line x1="4.00" y1="24.20" x2="5.80" y2="24.20" />
    <line x1="5.80" y1="24.20" x2="6.40" y2="23.60" />
    <line x1="6.40" y1="23.60" x2="5.80" y2="23.00" />
    <line x1="5.80" y1="23.00" x2="4.60" y2="23.00" />
    <line x1="4.60" y1="23.00" x2="4.00" y2="22.40" />
    <line x1="4.00" y1="22.40" x2="4.60" y2="21.80" />
    <line x1="4.60" y1="21.80" x2="6.40" y2="21.80" />
    <line x1="8.20" y1="25.40" x2="8.20" y2="21.80" />
    <line x1="8.20" y1="21.80" x2="10.00" y2="21.80" />
    <line x1="10.00" y1="21.80" x2="10.60" y2="22.40" />
    <line x1="10.60" y1="22.40" x2="10.60" y2="23.60" />
    <line x1="10.60" y1="23.60" x2="10.00" y2="24.20" />
    <line x1="10.00" y1="24.20" x2="8.20" y2="24.20" />
    <line x1="13.60" y1="24.20" x2="13.60" y2="21.80" />
    <line x1="13.60" y1="21.80" x2="13.00" y2="21.80" />
    <line x1="16.60" y1="24.20" x2="16.60" y2="21.80" />
    <line x1="16.60" y1="21.80" x2="18.40" y2="21.80" />
    <line x1="18.40" y1="21.80" x2="19.00" y2="22.40" />
    <line x1="19.00" y1="22.40" x2="19.00" y2="24.20" />
    <line x1="22.60" y1="22.40" x2="25.00" y2="22.40" />
    <line x1="27.40" y1="21.20" x2="28.00" y2="20.60" />
    <line x1="28.00" y1="20.60" x2="28.00" y2="24.20" />
    <line x1="27.40" y1="24.20" x2="28.60" y2="24.20" />
    <line x1="31.60" y1="20.60" x2="32.80" y2="20.60" />
    <line x1="32.80" y1="20.60" x2="33.40" y2="21.20" />
    <line x1="33.40" y1="21.20" x2="33.40" y2="23.60" />
    <line x1="33.40" y1="23.60" x2="32.80" y2="24.20" />
    <line x1="32.80" y1="24.20" x2="31.60" y2="24.20" />
    <line x1="31.60" y1="24.20" x2="31.00" y2="23.60" />
    <line x1="31.00" y1="23.60" x2="31.00" y2="21.20" />
    <line x1="31.00" y1="21.20" x2="31.60" y2="20.60" />
    <line x1="4.00" y1="32.20" x2="5.80" y2="32.20" />
    <line x1="5.80" y1="32.20" x2="6.40" y2="31.60" />
    <line x1="6.40" y1="31.60" x2="5.80" y2="31.00" />
    <line x1="5.80" y1="31.00" x2="4.60" y2="31.00" />
    <line x1="4.60" y1="31.00" x2="4.00" y2="30.40" />
    <line x1="4.00" y1="30.40" x2="4.60" y2="29.80" />
    <line x1="4.60" y1="29.80" x2="6.40" y2="29.80" />
    <line x1="10.60" y1="32.20" x2="8.80" y2="32.20" />
    <line x1="8.80" y1="32.20" x2="8.20" y2="31.60" />
    <line x1="8.20" y1="31.60" x2="8.20" y2="30.40" />
    <line x1="8.20" y1="30.40" x2="8.80" y2="29.80" />
    <line x1="8.80" y1="29.80" x2="10.60" y2="29.80" />
    <line x1="12.40" y1="32.20" x2="12.40" y2="29.80" />
    <line x1="12.40" y1="30.40" x2="13.00" y2="30.40" />
    <line x1="13.00" y1="30.40" x2="13.60" y2="29.80" />
    <line x1="13.60" y1="29.80" x2="14.20" y2="29.80" />
    <line x1="14.20" y1="29.80" x2="14.80" y2="30.40" />
    <line x1="18.40" y1="32.20" x2="17.20" y2="32.20" />
    <line x1="17.20" y1="32.20" x2="16.60" y2="31.60" />
    <line x1="16.60" y1="31.60" x2="16.60" y2="30.40" />
    <line x1="16.60" y1="30.40" x2="17.20" y2="29.80" />
    <line x1="17.20" y1="29.80" x2="18.40" y2="29.80" />
    <line x1="18.40" y1="29.80" x2="19.00" y2="30.40" />
    <line x1="19.00" y1="30.40" x2="19.00" y2="31.60" />
    <line x1="19.00" y1="31.60" x2="18.40" y2="32.20" />
    <line x1="21.40" y1="28.00" x2="22.00" y2="28.00" />
    <line x1="22.00" y1="28.00" x2="22.00" y2="32.20" />
    <line x1="25.60" y1="28.00" x2="26.20" y2="28.00" />
    <line x1="26.20" y1="28.00" x2="26.20" y2="32.20" />
    <line x1="31.60" y1="32.20" x2="31.60" y2="28.60" />
    <line x1="31.60" y1="28.60" x2="32.20" y2="28.00" />
    <line x1="32.20" y1="28.00" x2="33.40" y2="28.00" />
    <line x1="31.00" y1="29.80" x2="32.80" y2="29.80" />
    <line x1="35.20" y1="32.20" x2="35.20" y2="29.80" />
    <line x1="35.20" y1="30.40" x2="35.80" y2="30.40" />
    <line x1="35.80" y1="30.40" x2="36.40" y2="29.80" />
    <line x1="36.40" y1="29.80" x2="37.00" y2="29.80" />
    <line x1="37.00" y1="29.80" x2="37.60" y2="30.40" />
    <line x1="41.80" y1="32.20" x2="40.00" y2="32.20" />
    <line x1="40.00" y1="32.20" x2="39.40" y2="31.60" />
    <line x1="39.40" y1="31.60" x2="40.00" y2="31.00" />
    <line x1="40.00" y1="31.00" x2="41.80" y2="31.00" />
    <line x1="40.00" y1="29.80" x2="41.20" y2="29.80" />
    <line x1="41.20" y1="29.80" x2="41.80" y2="30.40" />
    <line x1="41.80" y1="30.40" x2="41.80" y2="32.20" />
    <line x1="43.60" y1="32.20" x2="43.60" y2="29.80" />
    <line x1="43.60" y1="29.80" x2="44.20" y2="29.80" />
    <line x1="44.20" y1="29.80" x2="44.80" y2="30.40" />
    <line x1="44.80" y1="30.40" x2="44.80" y2="32.20" />
    <line x1="44.80" y1="30.40" x2="45.40" y2="29.80" />
    <line x1="45.40" y1="29.80" x2="46.00" y2="30.40" />
    <line x1="46.00" y1="30.40" x2="46.00" y2="32.20" />
    <line x1="50.20" y1="32.20" x2="48.40" y2="32.20" />
    <line x1="48.40" y1="32.20" x2="47.80" y2="31.60" />
    <line x1="47.80" y1="31.60" x2="47.80" y2="30.40" />
    <line x1="47.80" y1="30.40" x2="48.40" y2="29.80" />
    <line x1="48.40" y1="29.80" x2="49.60" y2="29.80" />
    <line x1="49.60" y1="29.80" x2="50.20" y2="30.40" />
    <line x1="50.20" y1="30.40" x2="50.20" y2="31.00" />
    <line x1="50.20" y1="31.00" x2="47.80" y2="31.00" />
    <line x1="53.80" y1="30.40" x2="56.20" y2="30.40" />
    <line x1="60.40" y1="28.60" x2="58.00" y2="28.60" />
    <line x1="58.00" y1="28.60" x2="58.00" y2="30.40" />
    <line x1="58.00" y1="30.40" x2="59.80" y2="30.40" />
    <line x1="59.80" y1="30.40" x2="60.40" y2="31.00" />
    <line x1="60.40" y1="31.00" x2="60.40" y2="31.60" />
    <line x1="60.40" y1="31.60" x2="59.80" y2="32.20" />
    <line x1="59.80" y1="32.20" x2="58.60" y2="32.20" />
    <line x1="58.60" y1="32.20" x2="58.00" y2="31.60" />
    <line x1="4.00" y1="40.20" x2="5.80" y2="40.20" />
    <line x1="5.80" y1="40.20" x2="6.40" y2="39.60" />
    <line x1="6.40" y1="39.60" x2="5.80" y2="39.00" />
    <line x1="5.80" y1="39.00" x2="4.60" y2="39.00" />
    <line x1="4.60" y1="39.00" x2="4.00" y2="38.40" />
    <line x1="4.00" y1="38.40" x2="4.60" y2="37.80" />
    <line x1="4.60" y1="37.80" x2="6.40" y2="37.80" />
    <line x1="10.60" y1="40.20" x2="8.80" y2="40.20" />
    <line x1="8.80" y1="40.20" x2="8.20" y2="39.60" />
    <line x1="8.20" y1="39.60" x2="8.20" y2="38.40" />
    <line x1="8.20" y1="38.40" x2="8.80" y2="37.80" />
    <line x1="8.80" y1="37.80" x2="10.60" y2="37.80" />
    <line x1="12.40" y1="40.20" x2="12.40" y2="37.80" />
    <line x1="12.40" y1="38.40" x2="13.00" y2="38.40" />
    <line x1="13.00" y1="38.40" x2="13.60" y2="37.80" />
    <line x1="13.60" y1="37.80" x2="14.20" y2="37.80" />
    <line x1="14.20" y1="37.80" x2="14.80" y2="38.40" />
    <line x1="18.40" y1="40.20" x2="17.20" y2="40.20" />
    <line x1="17.20" y1="40.20" x2="16.60" y2="39.60" />
    <line x1="16.60" y1="39.60" x2="16.60" y2="38.40" />
    <line x1="16.60" y1="38.40" x2="17.20" y2="37.80" />
    <line x1="17.20" y1="37.80" x2="18.40" y2="37.80" />
    <line x1="18.40" y1="37.80" x2="19.00" y2="38.40" />
    <line x1="19.00" y1="38.40" x2="19.00" y2="39.60" />
    <line x1="19.00" y1="39.60" x2="18.40" y2="40.20" />
    <line x1="21.40" y1="36.00" x2="22.00" y2="36.00" />
    <line x1="22.00" y1="36.00" x2="22.00" y2="40.20" />
    <line x1="25.60" y1="36.00" x2="26.20" y2="36.00" />
    <line x1="26.20" y1="36.00" x2="26.20" y2="40.20" />
    <line x1="31.00" y1="37.80" x2="31.00" y2="39.00" />
    <line x1="31.00" y1="39.00" x2="31.60" y2="39.60" />
    <line x1="31.60" y1="39.60" x2="31.60" y2="40.20" />
    <line x1="33.40" y1="37.80" x2="33.40" y2="39.00" />
    <line x1="33.40" y1="39.00" x2="32.80" y2="39.60" />
    <line x1="32.80" y1="39.60" x2="32.80" y2="40.20" />
    <line x1="32.20" y1="38.40" x2="32.20" y2="39.00" />
    <line x1="32.20" y1="39.00" x2="31.60" y2="39.60" />
    <line x1="32.20" y1="39.00" x2="32.80" y2="39.60" />
    <line x1="36.40" y1="40.20" x2="36.40" y2="37.80" />
    <line x1="36.40" y1="37.80" x2="35.80" y2="37.80" />
    <line x1="41.80" y1="40.20" x2="40.00" y2="40.20" />
    <line x1="40.00" y1="40.20" x2="39.40" y2="39.60" />
    <line x1="39.40" y1="39.60" x2="39.40" y2="38.40" />
    <line x1="39.40" y1="38.40" x2="40.00" y2="37.80" />
    <line x1="40.00" y1="37.80" x2="41.80" y2="37.80" />
    <line x1="41.80" y1="36.00" x2="41.80" y2="40.20" />
    <line x1="44.20" y1="36.60" x2="44.20" y2="39.60" />
    <line x1="44.20" y1="39.60" x2="44.80" y2="40.20" />
    <line x1="44.80" y1="40.20" x2="46.00" y2="40.20" />
    <line x1="45.40" y1="37.80" x2="44.20" y2="37.80" />
    <line x1="47.80" y1="36.00" x2="47.80" y2="40.20" />
    <line x1="47.80" y1="37.80" x2="49.60" y2="37.80" />
    <line x1="49.60" y1="37.80" x2="50.20" y2="38.40" />
    <line x1="50.20" y1="38.40" x2="50.20" y2="40.20" />
    <line x1="52.00" y1="40.80" x2="52.60" y2="40.20" />
    <line x1="52.60" y1="40.20" x2="52.60" y2="39.60" />
    <line x1="52.60" y1="39.60" x2="53.20" y2="39.00" />
    <line x1="53.20" y1="39.00" x2="53.20" y2="38.40" />
    <line x1="53.20" y1="38.40" x2="53.80" y2="37.80" />
    <line x1="53.80" y1="37.80" x2="53.80" y2="37.20" />
    <line x1="53.80" y1="37.20" x2="54.40" y2="36.60" />
    <line x1="54.40" y1="36.60" x2="54.40" y2="36.00" />
    <line x1="58.60" y1="36.60" x2="56.20" y2="36.60" />
    <line x1="56.20" y1="36.60" x2="56.20" y2="38.40" />
    <line x1="56.20" y1="38.40" x2="58.00" y2="38.40" />
    <line x1="58.00" y1="38.40" x2="58.60" y2="39.00" />
    <line x1="58.60" y1="39.00" x2="58.60" y2="39.60" />
    <line x1="58.60" y1="39.60" x2="58.00" y2="40.20" />
    <line x1="58.00" y1="40.20" x2="56.80" y2="40.20" />
    <line x1="56.80" y1="40.20" x2="56.20" y2="39.60" />
    <line x1="62.80" y1="40.20" x2="62.80" y2="36.60" />
    <line x1="62.80" y1="36.60" x2="63.40" y2="36.00" />
    <line x1="63.40" y1="36.00" x2="64.60" y2="36.00" />
    <line x1="62.20" y1="37.80" x2="64.00" y2="37.80" />
    <line x1="66.40" y1="40.20" x2="66.40" y2="37.80" />
    <line x1="66.40" y1="38.40" x2="67.00" y2="38.40" />
    <line x1="67.00" y1="38.40" x2="67.60" y2="37.80" />
    <line x1="67.60" y1="37.80" x2="68.20" y2="37.80" />
    <line x1="68.20" y1="37.80" x2="68.80" y2="38.40" />
    <line x1="73.00" y1="40.20" x2="71.20" y2="40.20" />
    <line x1="71.20" y1="40.20" x2="70.60" y2="39.60" />
    <line x1="70.60" y1="39.60" x2="71.20" y2="39.00" />
    <line x1="71.20" y1="39.00" x2="73.00" y2="39.00" />
    <line x1="71.20" y1="37.80" x2="72.40" y2="37.80" />
    <line x1="72.40" y1="37.80" x2="73.00" y2="38.40" />
    <line x1="73.00" y1="38.40" x2="73.00" y2="40.20" />
    <line x1="74.80" y1="40.20" x2="74.80" y2="37.80" />
    <line x1="74.80" y1="37.80" x2="75.40" y2="37.80" />
    <line x1="75.40" y1="37.80" x2="76.00" y2="38.40" />
    <line x1="76.00" y1="38.40" x2="76.00" y2="40.20" />
    <line x1="76.00" y1="38.40" x2="76.60" y2="37.80" />
    <line x1="76.60" y1="37.80" x2="77.20" y2="38.40" />
    <line x1="77.20" y1="38.40" x2="77.20" y2="40.20" />
    <line x1="81.40" y1="40.20" x2="79.60" y2="40.20" />
    <line x1="79.60" y1="40.20" x2="79.00" y2="39.60" />
    <line x1="79.00" y1="39.60" x2="79.00" y2="38.40" />
    <line x1="79.00" y1="38.40" x2="79.60" y2="37.80" />
    <line x1="79.60" y1="37.80" x2="80.80" y2="37.80" />
    <line x1="80.80" y1="37.80" x2="81.40" y2="38.40" />
    <line x1="81.40" y1="38.40" x2="81.40" y2="39.00" />
    <line x1="81.40" y1="39.00" x2="79.00" y2="39.00" />
    <line x1="4.00" y1="44.00" x2="4.00" y2="48.20" />
    <line x1="4.00" y1="48.20" x2="5.80" y2="48.20" />
    <line x1="5.80" y1="48.20" x2="6.40" y2="47.60" />
    <line x1="6.40" y1="47.60" x2="6.40" y2="46.40" />
    <line x1="6.40" y1="46.40" x2="5.80" y2="45.80" />
    <line x1="5.80" y1="45.80" x2="4.00" y2="45.80" />
    <line x1="8.80" y1="44.00" x2="9.40" y2="44.00" />
    <line x1="9.40" y1="44.00" x2="9.40" y2="48.20" />
    <line x1="12.40" y1="45.80" x2="12.40" y2="47.60" />
    <line x1="12.40" y1="47.60" x2="13.00" y2="48.20" />
    <line x1="13.00" y1="48.20" x2="14.80" y2="48.20" />
    <line x1="14.80" y1="48.20" x2="14.80" y2="45.80" />
    <line x1="16.60" y1="48.20" x2="16.60" y2="45.80" />
    <line x1="16.60" y1="46.40" x2="17.20" y2="46.40" />
    <line x1="17.20" y1="46.40" x2="17.80" y2="45.80" />
    <line x1="17.80" y1="45.80" x2="18.40" y2="45.80" />
    <line x1="18.40" y1="45.80" x2="19.00" y2="46.40" />
    <line x1="22.60" y1="45.20" x2="23.20" y2="44.60" />
    <line x1="23.20" y1="44.60" x2="24.40" y2="44.60" />
    <line x1="24.40" y1="44.60" x2="25.00" y2="45.20" />
    <line x1="25.00" y1="45.20" x2="25.00" y2="45.80" />
    <line x1="25.00" y1="45.80" x2="24.40" y2="46.40" />
    <line x1="24.40" y1="46.40" x2="23.80" y2="46.40" />
    <line x1="23.80" y1="46.40" x2="22.60" y2="47.60" />
    <line x1="22.60" y1="47.60" x2="22.60" y2="48.20" />
    <line x1="22.60" y1="48.20" x2="25.00" y2="48.20" />
    <line x1="4.00" y1="52.00" x2="4.00" y2="56.20" />
    <line x1="4.00" y1="56.20" x2="5.80" y2="56.20" />
    <line x1="5.80" y1="56.20" x2="6.40" y2="55.60" />
    <line x1="6.40" y1="55.60" x2="6.40" y2="54.40" />
    <line x1="6.40" y1="54.40" x2="5.80" y2="53.80" />
    <line x1="5.80" y1="53.80" x2="4.00" y2="53.80" />
    <line x1="10.60" y1="56.20" x2="8.80" y2="56.20" />
    <line x1="8.80" y1="56.20" x2="8.20" y2="55.60" />
    <line x1="8.20" y1="55.60" x2="8.80" y2="55.00" />
    <line x1="8.80" y1="55.00" x2="10.60" y2="55.00" />
    <line x1="8.80" y1="53.80" x2="10.00" y2="53.80" />
    <line x1="10.00" y1="53.80" x2="10.60" y2="54.40" />
    <line x1="10.60" y1="54.40" x2="10.60" y2="56.20" />
    <line x1="13.00" y1="52.00" x2="13.00" y2="56.20" />
    <line x1="14.80" y1="56.20" x2="13.60" y2="55.00" />
    <line x1="13.00" y1="55.00" x2="13.60" y2="55.00" />
    <line x1="13.60" y1="55.00" x2="14.80" y2="53.80" />
    <line x1="19.00" y1="56.20" x2="17.20" y2="56.20" />
    <line x1="17.20" y1="56.20" x2="16.60" y2="55.60" />
    <line x1="16.60" y1="55.60" x2="16.60" y2="54.40" />
    <line x1="16.60" y1="54.40" x2="17.20" y2="53.80" />
    <line x1="17.20" y1="53.80" x2="18.40" y2="53.80" />
    <line x1="18.40" y1="53.80" x2="19.00" y2="54.40" />
    <line x1="19.00" y1="54.40" x2="19.00" y2="55.00" />
    <line x1="19.00" y1="55.00" x2="16.60" y2="55.00" />
    <line x1="4.00" y1="64.20" x2="5.80" y2="64.20" />
    <line x1="5.80" y1="64.20" x2="6.40" y2="63.60" />
    <line x1="6.40" y1="63.60" x2="5.80" y2="63.00" />
    <line x1="5.80" y1="63.00" x2="4.60" y2="63.00" />
    <line x1="4.60" y1="63.00" x2="4.00" y2="62.40" />
    <line x1="4.00" y1="62.40" x2="4.60" y2="61.80" />
    <line x1="4.60" y1="61.80" x2="6.40" y2="61.80" />
    <line x1="8.80" y1="60.60" x2="8.80" y2="63.60" />
    <line x1="8.80" y1="63.60" x2="9.40" y2="64.20" />
    <line x1="9.40" y1="64.20" x2="10.60" y2="64.20" />
    <line x1="10.00" y1="61.80" x2="8.80" y2="61.80" />
    <line x1="14.80" y1="64.20" x2="13.00" y2="64.20" />
    <line x1="13.00" y1="64.20" x2="12.40" y2="63.60" />
    <line x1="12.40" y1="63.60" x2="13.00" y2="63.00" />
    <line x1="13.00" y1="63.00" x2="14.80" y2="63.00" />
    <line x1="13.00" y1="61.80" x2="14.20" y2="61.80" />
    <line x1="14.20" y1="61.80" x2="14.80" y2="62.40" />
    <line x1="14.80" y1="62.40" x2="14.80" y2="64.20" />
    <line x1="16.60" y1="64.20" x2="16.60" y2="61.80" />
    <line x1="16.60" y1="61.80" x2="17.20" y2="61.80" />
    <line x1="17.20" y1="61.80" x2="17.80" y2="62.40" />
    <line x1="17.80" y1="62.40" x2="17.80" y2="64.20" />
    <line x1="17.80" y1="62.40" x2="18.40" y2="61.80" />
    <line x1="18.40" y1="61.80" x2="19.00" y2="62.40" />
    <line x1="19.00" y1="62.40" x2="19.00" y2="64.20" />
    <line x1="20.80" y1="65.40" x2="20.80" y2="61.80" />
    <line x1="20.80" y1="61.80" x2="22.60" y2="61.80" />
    <line x1="22.60" y1="61.80" x2="23.20" y2="62.40" />
    <line x1="23.20" y1="62.40" x2="23.20" y2="63.60" />
    <line x1="23.20" y1="63.60" x2="22.60" y2="64.20" />
    <line x1="22.60" y1="64.20" x2="20.80" y2="64.20" />
    <line x1="27.40" y1="64.20" x2="27.40" y2="61.20" />
    <line x1="28.60" y1="64.20" x2="28.60" y2="61.20" />
    <line x1="26.80" y1="61.80" x2="29.20" y2="61.80" />
    <line x1="26.80" y1="63.60" x2="29.20" y2="63.60" />
    <line x1="33.40" y1="64.20" x2="31.60" y2="64.20" />
    <line x1="31.60" y1="64.20" x2="31.00" y2="63.60" />
    <line x1="31.00" y1="63.60" x2="31.00" y2="62.40" />
    <line x1="31.00" y1="62.40" x2="31.60" y2="61.80" />
    <line x1="31.60" y1="61.80" x2="33.40" y2="61.80" />
    <line x1="33.40" y1="60.00" x2="33.40" y2="64.20" />
    <line x1="35.20" y1="64.20" x2="35.20" y2="61.80" />
    <line x1="35.20" y1="61.80" x2="35.80" y2="61.80" />
    <line x1="35.80" y1="61.80" x2="36.40" y2="62.40" />
    <line x1="36.40" y1="62.40" x2="36.40" y2="64.20" />
    <line x1="36.40" y1="62.40" x2="37.00" y2="61.80" />
    <line x1="37.00" y1="61.80" x2="37.60" y2="62.40" />
    <line x1="37.60" y1="62.40" x2="37.60" y2="64.20" />
    <line x1="40.00" y1="60.00" x2="40.60" y2="60.00" />
    <line x1="40.60" y1="60.00" x2="40.60" y2="64.20" />
    <line x1="45.40" y1="61.20" x2="46.00" y2="60.60" />
    <line x1="46.00" y1="60.60" x2="47.20" y2="60.60" />
    <line x1="47.20" y1="60.60" x2="47.80" y2="61.20" />
    <line x1="47.80" y1="61.20" x2="47.80" y2="61.80" />
    <line x1="47.80" y1="61.80" x2="47.20" y2="62.40" />
    <line x1="47.20" y1="62.40" x2="46.60" y2="62.40" />
    <line x1="46.60" y1="62.40" x2="45.40" y2="63.60" />
    <line x1="45.40" y1="63.60" x2="45.40" y2="64.20" />
    <line x1="45.40" y1="64.20" x2="47.80" y2="64.20" />
    <line x1="49.60" y1="60.60" x2="52.00" y2="60.60" />
    <line x1="52.00" y1="60.60" x2="52.00" y2="61.20" />
    <line x1="52.00" y1="61.20" x2="50.20" y2="64.20" />
    <line x1="54.40" y1="60.60" x2="55.60" y2="60.60" />
    <line x1="55.60" y1="60.60" x2="56.20" y2="61.20" />
    <line x1="56.20" y1="61.20" x2="56.20" y2="63.60" />
    <line x1="56.20" y1="63.60" x2="55.60" y2="64.20" />
    <line x1="55.60" y1="64.20" x2="54.40" y2="64.20" />
    <line x1="54.40" y1="64.20" x2="53.80" y2="63.60" />
    <line x1="53.80" y1="63.60" x2="53.80" y2="61.20" />
    <line x1="53.80" y1="61.20" x2="54.40" y2="60.60" />
    <line x1="59.80" y1="61.20" x2="60.40" y2="60.60" />
    <line x1="60.40" y1="60.60" x2="61.60" y2="60.60" />
    <line x1="61.60" y1="60.60" x2="62.20" y2="61.20" />
    <line x1="62.20" y1="61.20" x2="62.20" y2="61.80" />
    <line x1="62.20" y1="61.80" x2="61.60" y2="62.40" />
    <line x1="61.60" y1="62.40" x2="61.00" y2="62.40" />
    <line x1="61.00" y1="62.40" x2="59.80" y2="63.60" />
    <line x1="59.80" y1="63.60" x2="59.80" y2="64.20" />
    <line x1="59.80" y1="64.20" x2="62.20" y2="64.20" />
    <line x1="65.80" y1="62.40" x2="64.60" y2="62.40" />
    <line x1="64.60" y1="62.40" x2="64.00" y2="61.80" />
    <line x1="64.00" y1="61.80" x2="64.00" y2="61.20" />
    <line x1="64.00" y1="61.20" x2="64.60" y2="60.60" />
    <line x1="64.60" y1="60.60" x2="65.80" y2="60.60" />
    <line x1="65.80" y1="60.60" x2="66.40" y2="61.20" />
    <line x1="66.40" y1="61.20" x2="66.40" y2="61.80" />
    <line x1="66.40" y1="61.80" x2="65.80" y2="62.40" />
    <line x1="65.80" y1="62.40" x2="66.40" y2="63.00" />
    <line x1="66.40" y1="63.00" x2="66.40" y2="63.60" />
    <line x1="66.40" y1="63.60" x2="65.80" y2="64.20" />
    <line x1="65.80" y1="64.20" x2="64.60" y2="64.20" />
    <line x1="64.60" y1="64.20" x2="64.00" y2="63.60" />
    <line x1="64.00" y1="63.60" x2="64.00" y2="63.00" />
    <line x1="64.00" y1="63.00" x2="64.60" y2="62.40" />
    <line x1="68.80" y1="60.60" x2="70.00" y2="60.60" />
    <line x1="70.00" y1="60.60" x2="70.60" y2="61.20" />
    <line x1="70.60" y1="61.20" x2="70.60" y2="63.60" />
    <line x1="70.60" y1="63.60" x2="70.00" y2="64.20" />
    <line x1="70.00" y1="64.20" x2="68.80" y2="64.20" />
    <line x1="68.80" y1="64.20" x2="68.20" y2="63.60" />
    <line x1="68.20" y1="63.60" x2="68.20" y2="61.20" />
    <line x1="68.20" y1="61.20" x2="68.80" y2="60.60" />
    <line x1="74.80" y1="61.20" x2="75.40" y2="60.60" />
    <line x1="75.40" y1="60.60" x2="75.40" y2="64.20" />
    <line x1="74.80" y1="64.20" x2="76.00" y2="64.20" />
    <line x1="82.60" y1="61.20" x2="83.20" y2="60.60" />
    <line x1="83.20" y1="60.60" x2="84.40" y2="60.60" />
    <line x1="84.40" y1="60.60" x2="85.00" y2="61.20" />
    <line x1="85.00" y1="61.20" x2="85.00" y2="61.80" />
    <line x1="85.00" y1="61.80" x2="84.40" y2="62.40" />
    <line x1="84.40" y1="62.40" x2="83.80" y2="62.40" />
    <line x1="83.80" y1="62.40" x2="82.60" y2="63.60" />
    <line x1="82.60" y1="63.60" x2="82.60" y2="64.20" />
    <line x1="82.60" y1="64.20" x2="85.00" y2="64.20" />
    <line x1="88.60" y1="61.20" x2="89.20" y2="60.60" />
    <line x1="89.20" y1="60.60" x2="90.40" y2="60.60" />
    <line x1="90.40" y1="60.60" x2="91.00" y2="61.20" />
    <line x1="91.00" y1="61.20" x2="91.00" y2="61.80" />
    <line x1="91.00" y1="61.80" x2="90.40" y2="62.40" />
    <line x1="90.40" y1="62.40" x2="89.80" y2="62.40" />
    <line x1="89.80" y1="62.40" x2="88.60" y2="63.60" />
    <line x1="88.60" y1="63.60" x2="88.60" y2="64.20" />
    <line x1="88.60" y1="64.20" x2="91.00" y2="64.20" />
    <line x1="93.40" y1="60.60" x2="94.60" y2="60.60" />
    <line x1="94.60" y1="60.60" x2="95.20" y2="61.20" />
    <line x1="95.20" y1="61.20" x2="95.20" y2="63.60" />
    <line x1="95.20" y1="63.60" x2="94.60" y2="64.20" />
    <line x1="94.60" y1="64.20" x2="93.40" y2="64.20" />
    <line x1="93.40" y1="64.20" x2="92.80" y2="63.60" />
    <line x1="92.80" y1="63.60" x2="92.80" y2="61.20" />
    <line x1="92.80" y1="61.20" x2="93.40" y2="60.60" />
    <line x1="4.00" y1="68.00" x2="4.00" y2="72.20" />
    <line x1="4.00" y1="72.20" x2="5.80" y2="72.20" />
    <line x1="5.80" y1="72.20" x2="6.40" y2="71.60" />
    <line x1="6.40" y1="71.60" x2="6.40" y2="70.40" />
    <line x1="6.40" y1="70.40" x2="5.80" y2="69.80" />
    <line x1="5.80" y1="69.80" x2="4.00" y2="69.80" />
    <line x1="8.80" y1="68.00" x2="9.40" y2="68.00" />
    <line x1="9.40" y1="68.00" x2="9.40" y2="72.20" />
    <line x1="12.40" y1="69.80" x2="12.40" y2="71.60" />
    <line x1="12.40" y1="71.60" x2="13.00" y2="72.20" />
    <line x1="13.00" y1="72.20" x2="14.80" y2="72.20" />
    <line x1="14.80" y1="72.20" x2="14.80" y2="69.80" />
    <line x1="16.60" y1="72.20" x2="16.60" y2="69.80" />
    <line x1="16.60" y1="70.40" x2="17.20" y2="70.40" />
    <line x1="17.20" y1="70.40" x2="17.80" y2="69.80" />
    <line x1="17.80" y1="69.80" x2="18.40" y2="69.80" />
    <line x1="18.40" y1="69.80" x2="19.00" y2="70.40" />
    <line x1="24.40" y1="68.00" x2="23.80" y2="68.60" />
    <line x1="23.80" y1="68.60" x2="23.20" y2="69.20" />
    <line x1="23.20" y1="69.20" x2="23.20" y2="71.60" />
    <line x1="23.20" y1="71.60" x2="23.80" y2="72.20" />
    <line x1="23.80" y1="72.20" x2="24.40" y2="72.80" />
    <line x1="27.40" y1="69.20" x2="28.00" y2="68.60" />
    <line x1="28.00" y1="68.60" x2="28.00" y2="72.20" />
    <line x1="27.40" y1="72.20" x2="28.60" y2="72.20" />
    <line x1="31.00" y1="72.20" x2="32.80" y2="72.20" />
    <line x1="32.80" y1="72.20" x2="33.40" y2="71.60" />
    <line x1="33.40" y1="71.60" x2="32.80" y2="71.00" />
    <line x1="32.80" y1="71.00" x2="31.60" y2="71.00" />
    <line x1="31.60" y1="71.00" x2="31.00" y2="70.40" />
    <line x1="31.00" y1="70.40" x2="31.60" y2="69.80" />
    <line x1="31.60" y1="69.80" x2="33.40" y2="69.80" />
    <line x1="50.20" y1="69.20" x2="50.80" y2="68.60" />
    <line x1="50.80" y1="68.60" x2="50.80" y2="72.20" />
    <line x1="50.20" y1="72.20" x2="51.40" y2="72.20" />
    <line x1="55.60" y1="69.20" x2="56.20" y2="68.60" />
    <line x1="56.20" y1="68.60" x2="57.40" y2="68.60" />
    <line x1="57.40" y1="68.60" x2="58.00" y2="69.20" />
    <line x1="58.00" y1="69.20" x2="58.00" y2="69.80" />
    <line x1="58.00" y1="69.80" x2="57.40" y2="70.40" />
    <line x1="57.40" y1="70.40" x2="56.80" y2="70.40" />
    <line x1="56.80" y1="70.40" x2="55.60" y2="71.60" />
    <line x1="55.60" y1="71.60" x2="55.60" y2="72.20" />
    <line x1="55.60" y1="72.20" x2="58.00" y2="72.20" />
    <line x1="60.40" y1="68.00" x2="61.60" y2="69.20" />
    <line x1="61.60" y1="69.20" x2="61.60" y2="71.60" />
    <line x1="61.60" y1="71.60" x2="60.40" y2="72.80" />
    <line x1="4.00" y1="77.80" x2="6.40" y2="77.80" />
    <line x1="5.80" y1="77.80" x2="5.80" y2="78.40" />
    <line x1="5.80" y1="78.40" x2="4.60" y2="79.60" />
    <line x1="4.60" y1="79.60" x2="4.60" y2="80.20" />
    <line x1="4.00" y1="80.20" x2="6.40" y2="80.20" />
    <line x1="10.00" y1="80.20" x2="8.80" y2="80.20" />
    <line x1="8.80" y1="80.20" x2="8.20" y2="79.60" />
    <line x1="8.20" y1="79.60" x2="8.20" y2="78.40" />
    <line x1="8.20" y1="78.40" x2="8.80" y2="77.80" />
    <line x1="8.80" y1="77.80" x2="10.00" y2="77.80" />
    <line x1="10.00" y1="77.80" x2="10.60" y2="78.40" />
    <line x1="10.60" y1="78.40" x2="10.60" y2="79.60" />
    <line x1="10.60" y1="79.60" x2="10.00" y2="80.20" />
    <line x1="14.20" y1="80.20" x2="13.00" y2="80.20" />
    <line x1="13.00" y1="80.20" x2="12.40" y2="79.60" />
    <line x1="12.40" y1="79.60" x2="12.40" y2="78.40" />
    <line x1="12.40" y1="78.40" x2="13.00" y2="77.80" />
    <line x1="13.00" y1="77.80" x2="14.20" y2="77.80" />
    <line x1="14.20" y1="77.80" x2="14.80" y2="78.40" />
    <line x1="14.80" y1="78.40" x2="14.80" y2="79.60" />
    <line x1="14.80" y1="79.60" x2="14.20" y2="80.20" />
    <line x1="16.60" y1="80.20" x2="16.60" y2="77.80" />
    <line x1="16.60" y1="77.80" x2="17.20" y2="77.80" />
    <line x1="17.20" y1="77.80" x2="17.80" y2="78.40" />
    <line x1="17.80" y1="78.40" x2="17.80" y2="80.20" />
    <line x1="17.80" y1="78.40" x2="18.40" y2="77.80" />
    <line x1="18.40" y1="77.80" x2="19.00" y2="78.40" />
    <line x1="19.00" y1="78.40" x2="19.00" y2="80.20" />
    <line x1="24.40" y1="76.00" x2="23.80" y2="76.60" />
    <line x1="23.80" y1="76.60" x2="23.20" y2="77.20" />
    <line x1="23.20" y1="77.20" x2="23.20" y2="79.60" />
    <line x1="23.20" y1="79.60" x2="23.80" y2="80.20" />
    <line x1="23.80" y1="80.20" x2="24.40" y2="80.80" />
    <line x1="31.00" y1="77.20" x2="31.60" y2="76.60" />
    <line x1="31.60" y1="76.60" x2="32.80" y2="76.60" />
    <line x1="32.80" y1="76.60" x2="33.40" y2="77.20" />
    <line x1="33.40" y1="77.20" x2="33.40" y2="77.80" />
    <line x1="33.40" y1="77.80" x2="32.80" y2="78.40" />
    <line x1="32.80" y1="78.40" x2="32.20" y2="78.40" />
    <line x1="32.20" y1="78.40" x2="31.00" y2="79.60" />
    <line x1="31.00" y1="79.60" x2="31.00" y2="80.20" />
    <line x1="31.00" y1="80.20" x2="33.40" y2="80.20" />
    <line x1="37.60" y1="76.60" x2="35.20" y2="76.60" />
    <line x1="35.20" y1="76.60" x2="35.20" y2="78.40" />
    <line x1="35.20" y1="78.40" x2="37.00" y2="78.40" />
    <line x1="37.00" y1="78.40" x2="37.60" y2="79.00" />
    <line x1="37.60" y1="79.00" x2="37.60" y2="79.60" />
    <line x1="37.60" y1="79.60" x2="37.00" y2="80.20" />
    <line x1="37.00" y1="80.20" x2="35.80" y2="80.20" />
    <line x1="35.80" y1="80.20" x2="35.20" y2="79.60" />
    <line x1="39.40" y1="80.20" x2="41.20" y2="80.20" />
    <line x1="41.20" y1="80.20" x2="41.80" y2="79.60" />
    <line x1="41.80" y1="79.60" x2="41.20" y2="79.00" />
    <line x1="41.20" y1="79.00" x2="40.00" y2="79.00" />
    <line x1="40.00" y1="79.00" x2="39.40" y2="78.40" />
    <line x1="39.40" y1="78.40" x2="40.00" y2="77.80" />
    <line x1="40.00" y1="77.80" x2="41.80" y2="77.80" />
    <line x1="64.00" y1="78.40" x2="62.80" y2="78.40" />
    <line x1="62.80" y1="78.40" x2="62.20" y2="77.80" />
    <line x1="62.20" y1="77.80" x2="62.20" y2="77.20" />
    <line x1="62.20" y1="77.20" x2="62.80" y2="76.60" />
    <line x1="62.80" y1="76.60" x2="64.00" y2="76.60" />
    <line x1="64.00" y1="76.60" x2="64.60" y2="77.20" />
    <line x1="64.60" y1="77.20" x2="64.60" y2="77.80" />
    <line x1="64.60" y1="77.80" x2="64.00" y2="78.40" />
    <line x1="64.00" y1="78.40" x2="64.60" y2="79.00" />
    <line x1="64.60" y1="79.00" x2="64.60" y2="79.60" />
    <line x1="64.60" y1="79.60" x2="64.00" y2="80.20" />
    <line x1="64.00" y1="80.20" x2="62.80" y2="80.20" />
    <line x1="62.80" y1="80.20" x2="62.20" y2="79.60" />
    <line x1="62.20" y1="79.60" x2="62.20" y2="79.00" />
    <line x1="62.20" y1="79.00" x2="62.80" y2="78.40" />
    <line x1="68.20" y1="77.20" x2="68.80" y2="76.60" />
    <line x1="68.80" y1="76.60" x2="70.00" y2="76.60" />
    <line x1="70.00" y1="76.60" x2="70.60" y2="77.20" />
    <line x1="70.60" y1="77.20" x2="70.60" y2="77.80" />
    <line x1="70.60" y1="77.80" x2="69.40" y2="79.00" />
    <line x1="73.00" y1="76.00" x2="74.20" y2="77.20" />
    <line x1="74.20" y1="77.20" x2="74.20" y2="79.60" />
    <line x1="74.20" y1="79.60" x2="73.00" y2="80.80" />
    <line x1="4.00" y1="88.20" x2="5.80" y2="88.20" />
    <line x1="5.80" y1="88.20" x2="6.40" y2="87.60" />
    <line x1="6.40" y1="87.60" x2="5.80" y2="87.00" />
    <line x1="5.80" y1="87.00" x2="4.60" y2="87.00" />
    <line x1="4.60" y1="87.00" x2="4.00" y2="86.40" />
    <line x1="4.00" y1="86.40" x2="4.60" y2="85.80" />
    <line x1="4.60" y1="85.80" x2="6.40" y2="85.80" />
    <line x1="8.20" y1="89.40" x2="8.20" y2="85.80" />
    <line x1="8.20" y1="85.80" x2="10.00" y2="85.80" />
    <line x1="10.00" y1="85.80" x2="10.60" y2="86.40" />
    <line x1="10.60" y1="86.40" x2="10.60" y2="87.60" />
    <line x1="10.60" y1="87.60" x2="10.00" y2="88.20" />
    <line x1="10.00" y1="88.20" x2="8.20" y2="88.20" />
    <line x1="13.60" y1="88.20" x2="13.60" y2="85.80" />
    <line x1="13.60" y1="85.80" x2="13.00" y2="85.80" />
    <line x1="16.60" y1="88.20" x2="16.60" y2="85.80" />
    <line x1="16.60" y1="85.80" x2="18.40" y2="85.80" />
    <line x1="18.40" y1="85.80" x2="19.00" y2="86.40" />
    <line x1="19.00" y1="86.40" x2="19.00" y2="88.20" />
    <line x1="22.60" y1="86.40" x2="25.00" y2="86.40" />
    <line x1="27.40" y1="85.20" x2="28.00" y2="84.60" />
    <line x1="28.00" y1="84.60" x2="28.00" y2="88.20" />
    <line x1="27.40" y1="88.20" x2="28.60" y2="88.20" />
    <line x1="31.60" y1="84.60" x2="32.80" y2="84.60" />
    <line x1="32.80" y1="84.60" x2="33.40" y2="85.20" />
    <line x1="33.40" y1="85.20" x2="33.40" y2="87.60" />
    <line x1="33.40" y1="87.60" x2="32.80" y2="88.20" />
    <line x1="32.80" y1="88.20" x2="31.60" y2="88.20" />
    <line x1="31.60" y1="88.20" x2="31.00" y2="87.60" />
    <line x1="31.00" y1="87.60" x2="31.00" y2="85.20" />
    <line x1="31.00" y1="85.20" x2="31.60" y2="84.60" />
    <line x1="4.00" y1="92.00" x2="4.00" y2="96.20" />
    <line x1="4.00" y1="96.20" x2="5.80" y2="96.20" />
    <line x1="5.80" y1="96.20" x2="6.40" y2="95.60" />
    <line x1="6.40" y1="95.60" x2="6.40" y2="94.40" />
    <line x1="6.40" y1="94.40" x2="5.80" y2="93.80" />
    <line x1="5.80" y1="93.80" x2="4.00" y2="93.80" />
    <line x1="10.60" y1="96.20" x2="8.80" y2="96.20" />
    <line x1="8.80" y1="96.20" x2="8.20" y2="95.60" />
    <line x1="8.20" y1="95.60" x2="8.80" y2="95.00" />
    <line x1="8.80" y1="95.00" x2="10.60" y2="95.00" />
    <line x1="8.80" y1="93.80" x2="10.00" y2="93.80" />
    <line x1="10.00" y1="93.80" x2="10.60" y2="94.40" />
    <line x1="10.60" y1="94.40" x2="10.60" y2="96.20" />
    <line x1="13.00" y1="92.00" x2="13.00" y2="96.20" />
    <line x1="14.80" y1="96.20" x2="13.60" y2="95.00" />
    <line x1="13.00" y1="95.00" x2="13.60" y2="95.00" />
    <line x1="13.60" y1="95.00" x2="14.80" y2="93.80" />
    <line x1="19.00" y1="96.20" x2="17.20" y2="96.20" />
    <line x1="17.20" y1="96.20" x2="16.60" y2="95.60" />
    <line x1="16.60" y1="95.60" x2="16.60" y2="94.40" />
    <line x1="16.60" y1="94.40" x2="17.20" y2="93.80" />
    <line x1="17.20" y1="93.80" x2="18.40" y2="93.80" />
    <line x1="18.40" y1="93.80" x2="19.00" y2="94.40" />
    <line x1="19.00" y1="94.40" x2="19.00" y2="95.00" />
    <line x1="19.00" y1="95.00" x2="16.60" y2="95.00" />
    <line x1="4.00" y1="104.20" x2="5.80" y2="104.20" />
    <line x1="5.80" y1="104.20" x2="6.40" y2="103.60" />
    <line x1="6.40" y1="103.60" x2="5.80" y2="103.00" />
    <line x1="5.80" y1="103.00" x2="4.60" y2="103.00" />
    <line x1="4.60" y1="103.00" x2="4.00" y2="102.40" />
    <line x1="4.00" y1="102.40" x2="4.60" y2="101.80" />
    <line x1="4.60" y1="101.80" x2="6.40" y2="101.80" />
    <line x1="8.80" y1="100.60" x2="8.80" y2="103.60" />
    <line x1="8.80" y1="103.60" x2="9.40" y2="104.20" />
    <line x1="9.40" y1="104.20" x2="10.60" y2="104.20" />
    <line x1="10.00" y1="101.80" x2="8.80" y2="101.80" />
    <line x1="14.80" y1="104.20" x2="13.00" y2="104.20" />
    <line x1="13.00" y1="104.20" x2="12.40" y2="103.60" />
    <line x1="12.40" y1="103.60" x2="13.00" y2="103.00" />
    <line x1="13.00" y1="103.00" x2="14.80" y2="103.00" />
    <line x1="13.00" y1="101.80" x2="14.20" y2="101.80" />
    <line x1="14.20" y1="101.80" x2="14.80" y2="102.40" />
    <line x1="14.80" y1="102.40" x2="14.80" y2="104.20" />
    <line x1="16.60" y1="104.20" x2="16.60" y2="101.80" />
    <line x1="16.60" y1="101.80" x2="17.20" y2="101.80" />
    <line x1="17.20" y1="101.80" x2="17.80" y2="102.40" />
    <line x1="17.80" y1="102.40" x2="17.80" y2="104.20" />
    <line x1="17.80" y1="102.40" x2="18.40" y2="101.80" />
    <line x1="18.40" y1="101.80" x2="19.00" y2="102.40" />
    <line x1="19.00" y1="102.40" x2="19.00" y2="104.20" />
    <line x1="20.80" y1="105.40" x2="20.80" y2="101.80" />
    <line x1="20.80" y1="101.80" x2="22.60" y2="101.80" />
    <line x1="22.60" y1="101.80" x2="23.20" y2="102.40" />
    <line x1="23.20" y1="102.40" x2="23.20" y2="103.60" />
    <line x1="23.20" y1="103.60" x2="22.60" y2="104.20" />
    <line x1="22.60" y1="104.20" x2="20.80" y2="104.20" />
    <line x1="27.40" y1="104.20" x2="27.40" y2="101.20" />
    <line x1="28.60" y1="104.20" x2="28.60" y2="101.20" />
    <line x1="26.80" y1="101.80" x2="29.20" y2="101.80" />
    <line x1="26.80" y1="103.60" x2="29.20" y2="103.60" />
    <line x1="32.80" y1="104.20" x2="31.60" y2="104.20" />
    <line x1="31.60" y1="104.20" x2="31.00" y2="103.60" />
    <line x1="31.00" y1="103.60" x2="31.00" y2="102.40" />
    <line x1="31.00" y1="102.40" x2="31.60" y2="101.80" />
    <line x1="31.60" y1="101.80" x2="32.80" y2="101.80" />
    <line x1="32.80" y1="101.80" x2="33.40" y2="102.40" />
    <line x1="33.40" y1="102.40" x2="33.40" y2="103.60" />
    <line x1="33.40" y1="103.60" x2="32.80" y2="104.20" />
    <line x1="35.20" y1="101.20" x2="35.80" y2="100.60" />
    <line x1="35.80" y1="100.60" x2="37.00" y2="100.60" />
    <line x1="37.00" y1="100.60" x2="37.60" y2="101.20" />
    <line x1="37.60" y1="101.20" x2="37.60" y2="101.80" />
    <line x1="37.60" y1="101.80" x2="37.00" y2="102.40" />
    <line x1="37.00" y1="102.40" x2="36.40" y2="102.40" />
    <line x1="36.40" y1="102.40" x2="35.20" y2="103.60" />
    <line x1="35.20" y1="103.60" x2="35.20" y2="104.20" />
    <line x1="35.20" y1="104.20" x2="37.60" y2="104.20" />
    <line x1="41.80" y1="104.20" x2="40.00" y2="104.20" />
    <line x1="40.00" y1="104.20" x2="39.40" y2="103.60" />
    <line x1="39.40" y1="103.60" x2="39.40" y2="102.40" />
    <line x1="39.40" y1="102.40" x2="40.00" y2="101.80" />
    <line x1="40.00" y1="101.80" x2="41.80" y2="101.80" />
    <line x1="41.80" y1="100.00" x2="41.80" y2="104.20" />
    <line x1="46.00" y1="101.20" x2="46.60" y2="100.60" />
    <line x1="46.60" y1="100.60" x2="46.60" y2="104.20" />
    <line x1="46.00" y1="104.20" x2="47.20" y2="104.20" />
    <line x1="50.20" y1="104.20" x2="50.80" y2="104.20" />
    <line x1="50.80" y1="104.20" x2="52.00" y2="103.00" />
    <line x1="52.00" y1="103.00" x2="52.00" y2="101.20" />
    <line x1="52.00" y1="101.20" x2="51.40" y2="100.60" />
    <line x1="51.40" y1="100.60" x2="50.20" y2="100.60" />
    <line x1="50.20" y1="100.60" x2="49.60" y2="101.20" />
    <line x1="49.60" y1="101.20" x2="49.60" y2="101.80" />
    <line x1="49.60" y1="101.80" x2="50.20" y2="102.40" />
    <line x1="50.20" y1="102.40" x2="52.00" y2="102.40" />
    <line x1="54.40" y1="100.60" x2="55.60" y2="100.60" />
    <line x1="55.60" y1="100.60" x2="56.20" y2="101.20" />
    <line x1="56.20" y1="101.20" x2="56.20" y2="103.60" />
    <line x1="56.20" y1="103.60" x2="55.60" y2="104.20" />
    <line x1="55.60" y1="104.20" x2="54.40" y2="104.20" />
    <line x1="54.40" y1="104.20" x2="53.80" y2="103.60" />
    <line x1="53.80" y1="103.60" x2="53.80" y2="101.20" />
    <line x1="53.80" y1="101.20" x2="54.40" y2="100.60" />
    <line x1="59.80" y1="100.00" x2="59.80" y2="104.20" />
    <line x1="59.80" y1="101.80" x2="61.60" y2="101.80" />
    <line x1="61.60" y1="101.80" x2="62.20" y2="102.40" />
    <line x1="62.20" y1="102.40" x2="62.20" y2="104.20" />
    <line x1="64.00" y1="104.80" x2="64.60" y2="104.20" />
    <line x1="64.60" y1="104.20" x2="64.60" y2="103.60" />
    <line x1="64.60" y1="103.60" x2="65.20" y2="103.00" />
    <line x1="65.20" y1="103.00" x2="65.20" y2="102.40" />
    <line x1="65.20" y1="102.40" x2="65.80" y2="101.80" />
    <line x1="65.80" y1="101.80" x2="65.80" y2="101.20" />
    <line x1="65.80" y1="101.20" x2="66.40" y2="100.60" />
    <line x1="66.40" y1="100.60" x2="66.40" y2="100.00" />
    <line x1="68.20" y1="101.20" x2="68.80" y2="100.60" />
    <line x1="68.80" y1="100.60" x2="70.00" y2="100.60" />
    <line x1="70.00" y1="100.60" x2="70.60" y2="101.20" />
    <line x1="70.60" y1="101.20" x2="70.60" y2="101.80" />
    <line x1="70.60" y1="101.80" x2="70.00" y2="102.40" />
    <line x1="70.00" y1="102.40" x2="69.40" y2="102.40" />
    <line x1="69.40" y1="102.40" x2="68.20" y2="103.60" />
    <line x1="68.20" y1="103.60" x2="68.20" y2="104.20" />
    <line x1="68.20" y1="104.20" x2="70.60" y2="104.20" />
    <line x1="74.80" y1="101.20" x2="75.40" y2="100.60" />
    <line x1="75.40" y1="100.60" x2="75.40" y2="104.20" />
    <line x1="74.80" y1="104.20" x2="76.00" y2="104.20" />
    <line x1="82.60" y1="101.20" x2="83.20" y2="100.60" />
    <line x1="83.20" y1="100.60" x2="84.40" y2="100.60" />
    <line x1="84.40" y1="100.60" x2="85.00" y2="101.20" />
    <line x1="85.00" y1="101.20" x2="85.00" y2="101.80" />
    <line x1="85.00" y1="101.80" x2="84.40" y2="102.40" />
    <line x1="84.40" y1="102.40" x2="83.80" y2="102.40" />
    <line x1="84.40" y1="102.40" x2="85.00" y2="103.00" />
    <line x1="85.00" y1="103.00" x2="85.00" y2="103.60" />
    <line x1="85.00" y1="103.60" x2="84.40" y2="104.20" />
    <line x1="84.40" y1="104.20" x2="83.20" y2="104.20" />
    <line x1="83.20" y1="104.20" x2="82.60" y2="103.60" />
    <line x1="4.00" y1="108.00" x2="4.00" y2="112.20" />
    <line x1="4.00" y1="112.20" x2="5.80" y2="112.20" />
    <line x1="5.80" y1="112.20" x2="6.40" y2="111.60" />
    <line x1="6.40" y1="111.60" x2="6.40" y2="110.40" />
    <line x1="6.40" y1="110.40" x2="5.80" y2="109.80" />
    <line x1="5.80" y1="109.80" x2="4.00" y2="109.80" />
    <line x1="8.80" y1="108.00" x2="9.40" y2="108.00" />
    <line x1="9.40" y1="108.00" x2="9.40" y2="112.20" />
    <line x1="12.40" y1="109.80" x2="12.40" y2="111.60" />
    <line x1="12.40" y1="111.60" x2="13.00" y2="112.20" />
    <line x1="13.00" y1="112.20" x2="14.80" y2="112.20" />
    <line x1="14.80" y1="112.20" x2="14.80" y2="109.80" />
    <line x1="16.60" y1="112.20" x2="16.60" y2="109.80" />
    <line x1="16.60" y1="110.40" x2="17.20" y2="110.40" />
    <line x1="17.20" y1="110.40" x2="17.80" y2="109.80" />
    <line x1="17.80" y1="109.80" x2="18.40" y2="109.80" />
    <line x1="18.40" y1="109.80" x2="19.00" y2="110.40" />
    <line x1="22.60" y1="109.20" x2="23.20" y2="108.60" />
    <line x1="23.20" y1="108.60" x2="24.40" y2="108.60" />
    <line x1="24.40" y1="108.60" x2="25.00" y2="109.20" />
    <line x1="25.00" y1="109.20" x2="25.00" y2="109.80" />
    <line x1="25.00" y1="109.80" x2="24.40" y2="110.40" />
    <line x1="24.40" y1="110.40" x2="23.80" y2="110.40" />
    <line x1="23.80" y1="110.40" x2="22.60" y2="111.60" />
    <line x1="22.60" y1="111.60" x2="22.60" y2="112.20" />
    <line x1="22.60" y1="112.20" x2="25.00" y2="112.20" />
    <line x1="4.00" y1="117.80" x2="6.40" y2="117.80" />
    <line x1="5.80" y1="117.80" x2="5.80" y2="118.40" />
    <line x1="5.80" y1="118.40" x2="4.60" y2="119.60" />
    <line x1="4.60" y1="119.60" x2="4.60" y2="120.20" />
    <line x1="4.00" y1="120.20" x2="6.40" y2="120.20" />
    <line x1="10.00" y1="120.20" x2="8.80" y2="120.20" />
    <line x1="8.80" y1="120.20" x2="8.20" y2="119.60" />
    <line x1="8.20" y1="119.60" x2="8.20" y2="118.40" />
    <line x1="8.20" y1="118.40" x2="8.80" y2="117.80" />
    <line x1="8.80" y1="117.80" x2="10.00" y2="117.80" />
    <line x1="10.00" y1="117.80" x2="10.60" y2="118.40" />
    <line x1="10.60" y1="118.40" x2="10.60" y2="119.60" />
    <line x1="10.60" y1="119.60" x2="10.00" y2="120.20" />
    <line x1="14.20" y1="120.20" x2="13.00" y2="120.20" />
    <line x1="13.00" y1="120.20" x2="12.40" y2="119.60" />
    <line x1="12.40" y1="119.60" x2="12.40" y2="118.40" />
    <line x1="12.40" y1="118.40" x2="13.00" y2="117.80" />
    <line x1="13.00" y1="117.80" x2="14.20" y2="117.80" />
    <line x1="14.20" y1="117.80" x2="14.80" y2="118.40" />
    <line x1="14.80" y1="118.40" x2="14.80" y2="119.60" />
    <line x1="14.80" y1="119.60" x2="14.20" y2="120.20" />
    <line x1="16.60" y1="120.20" x2="16.60" y2="117.80" />
    <line x1="16.60" y1="117.80" x2="17.20" y2="117.80" />
    <line x1="17.20" y1="117.80" x2="17.80" y2="118.40" />
    <line x1="17.80" y1="118.40" x2="17.80" y2="120.20" />
    <line x1="17.80" y1="118.40" x2="18.40" y2="117.80" />
    <line x1="18.40" y1="117.80" x2="19.00" y2="118.40" />
    <line x1="19.00" y1="118.40" x2="19.00" y2="120.20" />
    <line x1="24.40" y1="116.00" x2="23.80" y2="116.60" />
    <line x1="23.80" y1="116.60" x2="23.20" y2="117.20" />
    <line x1="23.20" y1="117.20" x2="23.20" y2="119.60" />
    <line x1="23.20" y1="119.60" x2="23.80" y2="120.20" />
    <line x1="23.80" y1="120.20" x2="24.40" y2="120.80" />
    <line x1="31.00" y1="117.20" x2="31.60" y2="116.60" />
    <line x1="31.60" y1="116.60" x2="32.80" y2="116.60" />
    <line x1="32.80" y1="116.60" x2="33.40" y2="117.20" />
    <line x1="33.40" y1="117.20" x2="33.40" y2="117.80" />
    <line x1="33.40" y1="117.80" x2="32.80" y2="118.40" />
    <line x1="32.80" y1="118.40" x2="32.20" y2="118.40" />
    <line x1="32.20" y1="118.40" x2="31.00" y2="119.60" />
    <line x1="31.00" y1="119.60" x2="31.00" y2="120.20" />
    <line x1="31.00" y1="120.20" x2="33.40" y2="120.20" />
    <line x1="37.60" y1="116.60" x2="35.20" y2="116.60" />
    <line x1="35.20" y1="116.60" x2="35.20" y2="118.40" />
    <line x1="35.20" y1="118.40" x2="37.00" y2="118.40" />
    <line x1="37.00" y1="118.40" x2="37.60" y2="119.00" />
    <line x1="37.60" y1="119.00" x2="37.60" y2="119.60" />
    <line x1="37.60" y1="119.60" x2="37.00" y2="120.20" />
    <line x1="37.00" y1="120.20" x2="35.80" y2="120.20" />
    <line x1="35.80" y1="120.20" x2="35.20" y2="119.60" />
    <line x1="39.40" y1="120.20" x2="41.20" y2="120.20" />
    <line x1="41.20" y1="120.20" x2="41.80" y2="119.60" />
    <line x1="41.80" y1="119.60" x2="41.20" y2="119.00" />
    <line x1="41.20" y1="119.00" x2="40.00" y2="119.00" />
    <line x1="40.00" y1="119.00" x2="39.40" y2="118.40" />
    <line x1="39.40" y1="118.40" x2="40.00" y2="117.80" />
    <line x1="40.00" y1="117.80" x2="41.80" y2="117.80" />
    <line x1="62.20" y1="116.60" x2="64.60" y2="116.60" />
    <line x1="64.60" y1="116.60" x2="64.60" y2="117.20" />
    <line x1="64.60" y1="117.20" x2="62.80" y2="120.20" />
    <line x1="68.20" y1="117.20" x2="68.80" y2="116.60" />
    <line x1="68.80" y1="116.60" x2="70.00" y2="116.60" />
    <line x1="70.00" y1="116.60" x2="70.60" y2="117.20" />
    <line x1="70.60" y1="117.20" x2="70.60" y2="117.80" />
    <line x1="70.60" y1="117.80" x2="69.40" y2="119.00" />
    <line x1="73.00" y1="116.00" x2="74.20" y2="117.20" />
    <line x1="74.20" y1="117.20" x2="74.20" y2="119.60" />
    <line x1="74.20" y1="119.60" x2="73.00" y2="120.80" />
    <line x1="4.00" y1="124.00" x2="4.00" y2="128.20" />
    <line x1="4.00" y1="128.20" x2="5.80" y2="128.20" />
    <line x1="5.80" y1="128.20" x2="6.40" y2="127.60" />
    <line x1="6.40" y1="127.60" x2="6.40" y2="126.40" />
    <line x1="6.40" y1="126.40" x2="5.80" y2="125.80" />
    <line x1="5.80" y1="125.80" x2="4.00" y2="125.80" />
    <line x1="10.60" y1="128.20" x2="8.80" y2="128.20" />
    <line x1="8.80" y1="128.20" x2="8.20" y2="127.60" />
    <line x1="8.20" y1="127.60" x2="8.80" y2="127.00" />
    <line x1="8.80" y1="127.00" x2="10.60" y2="127.00" />
    <line x1="8.80" y1="125.80" x2="10.00" y2="125.80" />
    <line x1="10.00" y1="125.80" x2="10.60" y2="126.40" />
    <line x1="10.60" y1="126.40" x2="10.60" y2="128.20" />
    <line x1="13.00" y1="124.00" x2="13.00" y2="128.20" />
    <line x1="14.80" y1="128.20" x2="13.60" y2="127.00" />
    <line x1="13.00" y1="127.00" x2="13.60" y2="127.00" />
    <line x1="13.60" y1="127.00" x2="14.80" y2="125.80" />
    <line x1="19.00" y1="128.20" x2="17.20" y2="128.20" />
    <line x1="17.20" y1="128.20" x2="16.60" y2="127.60" />
    <line x1="16.60" y1="127.60" x2="16.60" y2="126.40" />
    <line x1="16.60" y1="126.40" x2="17.20" y2="125.80" />
    <line x1="17.20" y1="125.80" x2="18.40" y2="125.80" />
    <line x1="18.40" y1="125.80" x2="19.00" y2="126.40" />
    <line x1="19.00" y1="126.40" x2="19.00" y2="127.00" />
    <line x1="19.00" y1="127.00" x2="16.60" y2="127.00" />
    <line x1="4.00" y1="133.80" x2="4.00" y2="135.00" />
    <line x1="4.00" y1="135.00" x2="4.60" y2="135.60" />
    <line x1="4.60" y1="135.60" x2="4.60" y2="136.20" />
    <line x1="6.40" y1="133.80" x2="6.40" y2="135.00" />
    <line x1="6.40" y1="135.00" x2="5.80" y2="135.60" />
    <line x1="5.80" y1="135.60" x2="5.80" y2="136.20" />
    <line x1="5.20" y1="134.40" x2="5.20" y2="135.00" />
    <line x1="5.20" y1="135.00" x2="4.60" y2="135.60" />
    <line x1="5.20" y1="135.00" x2="5.80" y2="135.60" />
    <line x1="8.20" y1="136.20" x2="8.20" y2="133.80" />
    <line x1="8.20" y1="134.40" x2="8.80" y2="134.40" />
    <line x1="8.80" y1="134.40" x2="9.40" y2="133.80" />
    <line x1="9.40" y1="133.80" x2="10.00" y2="133.80" />
    <line x1="10.00" y1="133.80" x2="10.60" y2="134.40" />
    <line x1="13.60" y1="136.20" x2="13.60" y2="133.80" />
    <line x1="13.60" y1="133.80" x2="13.00" y2="133.80" />
    <line x1="17.20" y1="132.60" x2="17.20" y2="135.60" />
    <line x1="17.20" y1="135.60" x2="17.80" y2="136.20" />
    <line x1="17.80" y1="136.20" x2="19.00" y2="136.20" />
    <line x1="18.40" y1="133.80" x2="17.20" y2="133.80" />
    <line x1="23.20" y1="136.20" x2="21.40" y2="136.20" />
    <line x1="21.40" y1="136.20" x2="20.80" y2="135.60" />
    <line x1="20.80" y1="135.60" x2="20.80" y2="134.40" />
    <line x1="20.80" y1="134.40" x2="21.40" y2="133.80" />
    <line x1="21.40" y1="133.80" x2="22.60" y2="133.80" />
    <line x1="22.60" y1="133.80" x2="23.20" y2="134.40" />
    <line x1="23.20" y1="134.40" x2="23.20" y2="135.00" />
    <line x1="23.20" y1="135.00" x2="20.80" y2="135.00" />
    <line x1="28.60" y1="132.00" x2="28.00" y2="132.60" />
    <line x1="28.00" y1="132.60" x2="27.40" y2="133.20" />
    <line x1="27.40" y1="133.20" x2="27.40" y2="135.60" />
    <line x1="27.40" y1="135.60" x2="28.00" y2="136.20" />
    <line x1="28.00" y1="136.20" x2="28.60" y2="136.80" />
    <line x1="35.20" y1="133.20" x2="35.80" y2="132.60" />
    <line x1="35.80" y1="132.60" x2="37.00" y2="132.60" />
    <line x1="37.00" y1="132.60" x2="37.60" y2="133.20" />
    <line x1="37.60" y1="133.20" x2="37.60" y2="133.80" />
    <line x1="37.60" y1="133.80" x2="37.00" y2="134.40" />
    <line x1="37.00" y1="134.40" x2="36.40" y2="134.40" />
    <line x1="36.40" y1="134.40" x2="35.20" y2="135.60" />
    <line x1="35.20" y1="135.60" x2="35.20" y2="136.20" />
    <line x1="35.20" y1="136.20" x2="37.60" y2="136.20" />
    <line x1="41.80" y1="132.60" x2="39.40" y2="132.60" />
    <line x1="39.40" y1="132.60" x2="39.40" y2="134.40" />
    <line x1="39.40" y1="134.40" x2="41.20" y2="134.40" />
    <line x1="41.20" y1="134.40" x2="41.80" y2="135.00" />
    <line x1="41.80" y1="135.00" x2="41.80" y2="135.60" />
    <line x1="41.80" y1="135.60" x2="41.20" y2="136.20" />
    <line x1="41.20" y1="136.20" x2="40.00" y2="136.20" />
    <line x1="40.00" y1="136.20" x2="39.40" y2="135.60" />
    <line x1="43.60" y1="136.20" x2="45.40" y2="136.20" />
    <line x1="45.40" y1="136.20" x2="46.00" y2="135.60" />
    <line x1="46.00" y1="135.60" x2="45.40" y2="135.00" />
    <line x1="45.40" y1="135.00" x2="44.20" y2="135.00" />
    <line x1="44.20" y1="135.00" x2="43.60" y2="134.40" />
    <line x1="43.60" y1="134.40" x2="44.20" y2="133.80" />
    <line x1="44.20" y1="133.80" x2="46.00" y2="133.80" />
    <line x1="62.80" y1="132.00" x2="62.80" y2="133.20" />
    <line x1="64.00" y1="132.00" x2="64.00" y2="133.20" />
    <line x1="68.80" y1="136.20" x2="67.00" y2="136.20" />
    <line x1="67.00" y1="136.20" x2="66.40" y2="135.60" />
    <line x1="66.40" y1="135.60" x2="66.40" y2="134.40" />
    <line x1="66.40" y1="134.40" x2="67.00" y2="133.80" />
    <line x1="67.00" y1="133.80" x2="68.80" y2="133.80" />
    <line x1="68.80" y1="132.00" x2="68.80" y2="136.20" />
    <line x1="72.40" y1="136.20" x2="71.20" y2="136.20" />
    <line x1="71.20" y1="136.20" x2="70.60" y2="135.60" />
    <line x1="70.60" y1="135.60" x2="70.60" y2="134.40" />
    <line x1="70.60" y1="134.40" x2="71.20" y2="133.80" />
    <line x1="71.20" y1="133.80" x2="72.40" y2="133.80" />
    <line x1="72.40" y1="133.80" x2="73.00" y2="134.40" />
    <line x1="73.00" y1="134.40" x2="73.00" y2="135.60" />
    <line x1="73.00" y1="135.60" x2="72.40" y2="136.20" />
    <line x1="75.40" y1="137.40" x2="76.60" y2="137.40" />
    <line x1="76.60" y1="137.40" x2="77.20" y2="136.80" />
    <line x1="77.20" y1="136.80" x2="77.20" y2="134.40" />
    <line x1="77.20" y1="134.40" x2="76.60" y2="133.80" />
    <line x1="76.60" y1="133.80" x2="75.40" y2="133.80" />
    <line x1="75.40" y1="133.80" x2="74.80" y2="134.40" />
    <line x1="74.80" y1="134.40" x2="74.80" y2="135.60" />
    <line x1="74.80" y1="135.60" x2="75.40" y2="136.20" />
    <line x1="75.40" y1="136.20" x2="77.20" y2="136.20" />
    <line x1="79.60" y1="132.00" x2="79.60" y2="133.20" />
    <line x1="80.80" y1="132.00" x2="80.80" y2="133.20" />
    <line x1="85.60" y1="132.00" x2="85.60" y2="133.20" />
    <line x1="86.80" y1="132.00" x2="86.80" y2="133.20" />
    <line x1="89.80" y1="137.40" x2="91.00" y2="137.40" />
    <line x1="91.00" y1="137.40" x2="91.60" y2="136.80" />
    <line x1="91.60" y1="136.80" x2="91.60" y2="134.40" />
    <line x1="91.60" y1="134.40" x2="91.00" y2="133.80" />
    <line x1="91.00" y1="133.80" x2="89.80" y2="133.80" />
    <line x1="89.80" y1="133.80" x2="89.20" y2="134.40" />
    <line x1="89.20" y1="134.40" x2="89.20" y2="135.60" />
    <line x1="89.20" y1="135.60" x2="89.80" y2="136.20" />
    <line x1="89.80" y1="136.20" x2="91.60" y2="136.20" />
    <line x1="95.20" y1="136.20" x2="94.00" y2="136.20" />
    <line x1="94.00" y1="136.20" x2="93.40" y2="135.60" />
    <line x1="93.40" y1="135.60" x2="93.40" y2="134.40" />
    <line x1="93.40" y1="134.40" x2="94.00" y2="133.80" />
    <line x1="94.00" y1="133.80" x2="95.20" y2="133.80" />
    <line x1="95.20" y1="133.80" x2="95.80" y2="134.40" />
    <line x1="95.80" y1="134.40" x2="95.80" y2="135.60" />
    <line x1="95.80" y1="135.60" x2="95.20" y2="136.20" />
    <line x1="100.00" y1="136.20" x2="98.20" y2="136.20" />
    <line x1="98.20" y1="136.20" x2="97.60" y2="135.60" />
    <line x1="97.60" y1="135.60" x2="97.60" y2="134.40" />
    <line x1="97.60" y1="134.40" x2="98.20" y2="133.80" />
    <line x1="98.20" y1="133.80" x2="100.00" y2="133.80" />
    <line x1="100.00" y1="132.00" x2="100.00" y2="136.20" />
    <line x1="102.40" y1="132.00" x2="102.40" y2="133.20" />
    <line x1="103.60" y1="132.00" x2="103.60" y2="133.20" />
    <line x1="106.60" y1="132.00" x2="107.80" y2="133.20" />
    <line x1="107.80" y1="133.20" x2="107.80" y2="135.60" />
    <line x1="107.80" y1="135.60" x2="106.60" y2="136.80" />
    <line x1="112.60" y1="133.20" x2="113.20" y2="132.60" />
    <line x1="113.20" y1="132.60" x2="113.20" y2="136.20" />
    <line x1="112.60" y1="136.20" x2="113.80" y2="136.20" />
    <line x1="118.00" y1="132.60" x2="117.40" y2="132.60" />
    <line x1="117.40" y1="132.60" x2="116.20" y2="133.80" />
    <line x1="116.20" y1="133.80" x2="116.20" y2="135.60" />
    <line x1="116.20" y1="135.60" x2="116.80" y2="136.20" />
    <line x1="116.80" y1="136.20" x2="118.00" y2="136.20" />
    <line x1="118.00" y1="136.20" x2="118.60" y2="135.60" />
    <line x1="118.60" y1="135.60" x2="118.60" y2="135.00" />
    <line x1="118.60" y1="135.00" x2="118.00" y2="134.40" />
    <line x1="118.00" y1="134.40" x2="116.20" y2="134.40" />
    <line x1="121.00" y1="132.60" x2="122.20" y2="132.60" />
    <line x1="122.20" y1="132.60" x2="122.80" y2="133.20" />
    <line x1="122.80" y1="133.20" x2="122.80" y2="135.60" />
    <line x1="122.80" y1="135.60" x2="122.20" y2="136.20" />
    <line x1="122.20" y1="136.20" x2="121.00" y2="136.20" />
    <line x1="121.00" y1="136.20" x2="120.40" y2="135.60" />
    <line x1="120.40" y1="135.60" x2="120.40" y2="133.20" />
    <line x1="120.40" y1="133.20" x2="121.00" y2="132.60" />
    <line x1="126.40" y1="132.00" x2="126.40" y2="136.20" />
    <line x1="126.40" y1="133.80" x2="128.20" y2="133.80" />
    <line x1="128.20" y1="133.80" x2="128.80" y2="134.40" />
    <line x1="128.80" y1="134.40" x2="128.80" y2="136.20" />
    <line x1="130.60" y1="136.80" x2="131.20" y2="136.20" />
    <line x1="131.20" y1="136.20" x2="131.20" y2="135.60" />
    <line x1="131.20" y1="135.60" x2="131.80" y2="135.00" />
    <line x1="131.80" y1="135.00" x2="131.80" y2="134.40" />
    <line x1="131.80" y1="134.40" x2="132.40" y2="133.80" />
    <line x1="132.40" y1="133.80" x2="132.40" y2="133.20" />
    <line x1="132.40" y1="133.20" x2="133.00" y2="132.60" />
    <line x1="133.00" y1="132.60" x2="133.00" y2="132.00" />
    <line x1="134.80" y1="133.20" x2="135.40" y2="132.60" />
    <line x1="135.40" y1="132.60" x2="136.60" y2="132.60" />
    <line x1="136.60" y1="132.60" x2="137.20" y2="133.20" />
    <line x1="137.20" y1="133.20" x2="137.20" y2="133.80" />
    <line x1="137.20" y1="133.80" x2="136.60" y2="134.40" />
    <line x1="136.60" y1="134.40" x2="136.00" y2="134.40" />
    <line x1="136.00" y1="134.40" x2="134.80" y2="135.60" />
    <line x1="134.80" y1="135.60" x2="134.80" y2="136.20" />
    <line x1="134.80" y1="136.20" x2="137.20" y2="136.20" />
    <line x1="140.80" y1="133.80" x2="143.20" y2="133.80" />
    <line x1="142.60" y1="133.80" x2="142.60" y2="134.40" />
    <line x1="142.60" y1="134.40" x2="141.40" y2="135.60" />
    <line x1="141.40" y1="135.60" x2="141.40" y2="136.20" />
    <line x1="140.80" y1="136.20" x2="143.20" y2="136.20" />
    <line x1="147.40" y1="136.20" x2="145.60" y2="136.20" />
    <line x1="145.60" y1="136.20" x2="145.00" y2="135.60" />
    <line x1="145.00" y1="135.60" x2="145.00" y2="134.40" />
    <line x1="145.00" y1="134.40" x2="145.60" y2="133.80" />
    <line x1="145.60" y1="133.80" x2="146.80" y2="133.80" />
    <line x1="146.80" y1="133.80" x2="147.40" y2="134.40" />
    <line x1="147.40" y1="134.40" x2="147.40" y2="135.00" />
    <line x1="147.40" y1="135.00" x2="145.00" y2="135.00" />
    <line x1="149.20" y1="132.00" x2="149.20" y2="136.20" />
    <line x1="149.20" y1="136.20" x2="151.00" y2="136.20" />
    <line x1="151.00" y1="136.20" x2="151.60" y2="135.60" />
    <line x1="151.60" y1="135.60" x2="151.60" y2="134.40" />
    <line x1="151.60" y1="134.40" x2="151.00" y2="133.80" />
    <line x1="151.00" y1="133.80" x2="149.20" y2="133.80" />
    <line x1="153.40" y1="136.20" x2="153.40" y2="133.80" />
    <line x1="153.40" y1="134.40" x2="154.00" y2="134.40" />
    <line x1="154.00" y1="134.40" x2="154.60" y2="133.80" />
    <line x1="154.60" y1="133.80" x2="155.20" y2="133.80" />
    <line x1="155.20" y1="133.80" x2="155.80" y2="134.40" />
    <line x1="160.00" y1="136.20" x2="158.20" y2="136.20" />
    <line x1="158.20" y1="136.20" x2="157.60" y2="135.60" />
    <line x1="157.60" y1="135.60" x2="158.20" y2="135.00" />
    <line x1="158.20" y1="135.00" x2="160.00" y2="135.00" />
    <line x1="158.20" y1="133.80" x2="159.40" y2="133.80" />
    <line x1="159.40" y1="133.80" x2="160.00" y2="134.40" />
    <line x1="160.00" y1="134.40" x2="160.00" y2="136.20" />
    <line x1="4.60" y1="144.20" x2="4.60" y2="140.60" />
    <line x1="4.60" y1="140.60" x2="5.20" y2="140.00" />
    <line x1="5.20" y1="140.00" x2="6.40" y2="140.00" />
    <line x1="4.00" y1="141.80" x2="5.80" y2="141.80" />
    <line x1="8.20" y1="145.40" x2="8.20" y2="141.80" />
    <line x1="8.20" y1="141.80" x2="10.00" y2="141.80" />
    <line x1="10.00" y1="141.80" x2="10.60" y2="142.40" />
    <line x1="10.60" y1="142.40" x2="10.60" y2="143.60" />
    <line x1="10.60" y1="143.60" x2="10.00" y2="144.20" />
    <line x1="10.00" y1="144.20" x2="8.20" y2="144.20" />
    <line x1="12.40" y1="144.20" x2="14.20" y2="144.20" />
    <line x1="14.20" y1="144.20" x2="14.80" y2="143.60" />
    <line x1="14.80" y1="143.60" x2="14.20" y2="143.00" />
    <line x1="14.20" y1="143.00" x2="13.00" y2="143.00" />
    <line x1="13.00" y1="143.00" x2="12.40" y2="142.40" />
    <line x1="12.40" y1="142.40" x2="13.00" y2="141.80" />
    <line x1="13.00" y1="141.80" x2="14.80" y2="141.80" />
    <line x1="18.40" y1="141.20" x2="19.00" y2="140.60" />
    <line x1="19.00" y1="140.60" x2="20.20" y2="140.60" />
    <line x1="20.20" y1="140.60" x2="20.80" y2="141.20" />
    <line x1="20.80" y1="141.20" x2="20.80" y2="141.80" />
    <line x1="20.80" y1="141.80" x2="20.20" y2="142.40" />
    <line x1="20.20" y1="142.40" x2="19.60" y2="142.40" />
    <line x1="19.60" y1="142.40" x2="18.40" y2="143.60" />
    <line x1="18.40" y1="143.60" x2="18.40" y2="144.20" />
    <line x1="18.40" y1="144.20" x2="20.80" y2="144.20" />
    <line x1="24.40" y1="144.20" x2="24.40" y2="140.60" />
    <line x1="24.40" y1="140.60" x2="22.60" y2="142.40" />
    <line x1="22.60" y1="142.40" x2="22.60" y2="143.00" />
    <line x1="22.60" y1="143.00" x2="25.00" y2="143.00" />
    <line x1="4.00" y1="152.20" x2="5.80" y2="152.20" />
    <line x1="5.80" y1="152.20" x2="6.40" y2="151.60" />
    <line x1="6.40" y1="151.60" x2="5.80" y2="151.00" />
    <line x1="5.80" y1="151.00" x2="4.60" y2="151.00" />
    <line x1="4.60" y1="151.00" x2="4.00" y2="150.40" />
    <line x1="4.00" y1="150.40" x2="4.60" y2="149.80" />
    <line x1="4.60" y1="149.80" x2="6.40" y2="149.80" />
    <line x1="8.80" y1="148.60" x2="8.80" y2="151.60" />
    <line x1="8.80" y1="151.60" x2="9.40" y2="152.20" />
    <line x1="9.40" y1="152.20" x2="10.60" y2="152.20" />
    <line x1="10.00" y1="149.80" x2="8.80" y2="149.80" />
    <line x1="14.80" y1="152.20" x2="13.00" y2="152.20" />
    <line x1="13.00" y1="152.20" x2="12.40" y2="151.60" />
    <line x1="12.40" y1="151.60" x2="13.00" y2="151.00" />
    <line x1="13.00" y1="151.00" x2="14.80" y2="151.00" />
    <line x1="13.00" y1="149.80" x2="14.20" y2="149.80" />
    <line x1="14.20" y1="149.80" x2="14.80" y2="150.40" />
    <line x1="14.80" y1="150.40" x2="14.80" y2="152.20" />
    <line x1="16.60" y1="152.20" x2="16.60" y2="149.80" />
    <line x1="16.60" y1="149.80" x2="17.20" y2="149.80" />
    <line x1="17.20" y1="149.80" x2="17.80" y2="150.40" />
    <line x1="17.80" y1="150.40" x2="17.80" y2="152.20" />
    <line x1="17.80" y1="150.40" x2="18.40" y2="149.80" />
    <line x1="18.40" y1="149.80" x2="19.00" y2="150.40" />
    <line x1="19.00" y1="150.40" x2="19.00" y2="152.20" />
    <line x1="20.80" y1="153.40" x2="20.80" y2="149.80" />
    <line x1="20.80" y1="149.80" x2="22.60" y2="149.80" />
    <line x1="22.60" y1="149.80" x2="23.20" y2="150.40" />
    <line x1="23.20" y1="150.40" x2="23.20" y2="151.60" />
    <line x1="23.20" y1="151.60" x2="22.60" y2="152.20" />
    <line x1="22.60" y1="152.20" x2="20.80" y2="152.20" />
    <line x1="27.40" y1="152.20" x2="27.40" y2="149.20" />
    <line x1="28.60" y1="152.20" x2="28.60" y2="149.20" />
    <line x1="26.80" y1="149.80" x2="29.20" y2="149.80" />
    <line x1="26.80" y1="151.60" x2="29.20" y2="151.60" />
    <line x1="33.40" y1="152.20" x2="31.60" y2="152.20" />
    <line x1="31.60" y1="152.20" x2="31.00" y2="151.60" />
    <line x1="31.00" y1="151.60" x2="31.00" y2="150.40" />
    <line x1="31.00" y1="150.40" x2="31.60" y2="149.80" />
    <line x1="31.60" y1="149.80" x2="33.40" y2="149.80" />
    <line x1="33.40" y1="148.00" x2="33.40" y2="152.20" />
    <line x1="35.20" y1="152.20" x2="35.20" y2="149.80" />
    <line x1="35.20" y1="149.80" x2="35.80" y2="149.80" />
    <line x1="35.80" y1="149.80" x2="36.40" y2="150.40" />
    <line x1="36.40" y1="150.40" x2="36.40" y2="152.20" />
    <line x1="36.40" y1="150.40" x2="37.00" y2="149.80" />
    <line x1="37.00" y1="149.80" x2="37.60" y2="150.40" />
    <line x1="37.60" y1="150.40" x2="37.60" y2="152.20" />
    <line x1="40.00" y1="148.00" x2="40.60" y2="148.00" />
    <line x1="40.60" y1="148.00" x2="40.60" y2="152.20" />
    <line x1="47.20" y1="148.60" x2="46.60" y2="148.60" />
    <line x1="46.60" y1="148.60" x2="45.40" y2="149.80" />
    <line x1="45.40" y1="149.80" x2="45.40" y2="151.60" />
    <line x1="45.40" y1="151.60" x2="46.00" y2="152.20" />
    <line x1="46.00" y1="152.20" x2="47.20" y2="152.20" />
    <line x1="47.20" y1="152.20" x2="47.80" y2="151.60" />
    <line x1="47.80" y1="151.60" x2="47.80" y2="151.00" />
    <line x1="47.80" y1="151.00" x2="47.20" y2="150.40" />
    <line x1="47.20" y1="150.40" x2="45.40" y2="150.40" />
    <line x1="50.20" y1="148.60" x2="51.40" y2="148.60" />
    <line x1="51.40" y1="148.60" x2="52.00" y2="149.20" />
    <line x1="52.00" y1="149.20" x2="52.00" y2="151.60" />
    <line x1="52.00" y1="151.60" x2="51.40" y2="152.20" />
    <line x1="51.40" y1="152.20" x2="50.20" y2="152.20" />
    <line x1="50.20" y1="152.20" x2="49.60" y2="151.60" />
    <line x1="49.60" y1="151.60" x2="49.60" y2="149.20" />
    <line x1="49.60" y1="149.20" x2="50.20" y2="148.60" />
    <line x1="57.40" y1="150.40" x2="56.20" y2="150.40" />
    <line x1="56.20" y1="150.40" x2="55.60" y2="149.80" />
    <line x1="55.60" y1="149.80" x2="55.60" y2="149.20" />
    <line x1="55.60" y1="149.20" x2="56.20" y2="148.60" />
    <line x1="56.20" y1="148.60" x2="57.40" y2="148.60" />
    <line x1="57.40" y1="148.60" x2="58.00" y2="149.20" />
    <line x1="58.00" y1="149.20" x2="58.00" y2="149.80" />
    <line x1="58.00" y1="149.80" x2="57.40" y2="150.40" />
    <line x1="57.40" y1="150.40" x2="58.00" y2="151.00" />
    <line x1="58.00" y1="151.00" x2="58.00" y2="151.60" />
    <line x1="58.00" y1="151.60" x2="57.40" y2="152.20" />
    <line x1="57.40" y1="152.20" x2="56.20" y2="152.20" />
    <line x1="56.20" y1="152.20" x2="55.60" y2="151.60" />
    <line x1="55.60" y1="151.60" x2="55.60" y2="151.00" />
    <line x1="55.60" y1="151.00" x2="56.20" y2="150.40" />
    <line x1="60.40" y1="148.60" x2="61.60" y2="148.60" />
    <line x1="61.60" y1="148.60" x2="62.20" y2="149.20" />
    <line x1="62.20" y1="149.20" x2="62.20" y2="151.60" />
    <line x1="62.20" y1="151.60" x2="61.60" y2="152.20" />
    <line x1="61.60" y1="152.20" x2="60.40" y2="152.20" />
    <line x1="60.40" y1="152.20" x2="59.80" y2="151.60" />
    <line x1="59.80" y1="151.60" x2="59.80" y2="149.20" />
    <line x1="59.80" y1="149.20" x2="60.40" y2="148.60" />
    <line x1="71.80" y1="150.40" x2="70.60" y2="150.40" />
    <line x1="70.60" y1="150.40" x2="70.00" y2="149.80" />
    <line x1="70.00" y1="149.80" x2="70.00" y2="149.20" />
    <line x1="70.00" y1="149.20" x2="70.60" y2="148.60" />
    <line x1="70.60" y1="148.60" x2="71.80" y2="148.60" />
    <line x1="71.80" y1="148.60" x2="72.40" y2="149.20" />
    <line x1="72.40" y1="149.20" x2="72.40" y2="149.80" />
    <line x1="72.40" y1="149.80" x2="71.80" y2="150.40" />
    <line x1="71.80" y1="150.40" x2="72.40" y2="151.00" />
    <line x1="72.40" y1="151.00" x2="72.40" y2="151.60" />
    <line x1="72.40" y1="151.60" x2="71.80" y2="152.20" />
    <line x1="71.80" y1="152.20" x2="70.60" y2="152.20" />
    <line x1="70.60" y1="152.20" x2="70.00" y2="151.60" />
    <line x1="70.00" y1="151.60" x2="70.00" y2="151.00" />
    <line x1="70.00" y1="151.00" x2="70.60" y2="150.40" />
    <line x1="76.60" y1="149.20" x2="77.20" y2="148.60" />
    <line x1="77.20" y1="148.60" x2="77.20" y2="152.20" />
    <line x1="76.60" y1="152.20" x2="77.80" y2="152.20" />
    <line x1="80.20" y1="148.60" x2="82.60" y2="148.60" />
    <line x1="82.60" y1="148.60" x2="82.60" y2="149.20" />
    <line x1="82.60" y1="149.20" x2="80.80" y2="152.20" />
    <line x1="85.00" y1="148.60" x2="86.20" y2="148.60" />
    <line x1="86.20" y1="148.60" x2="86.80" y2="149.20" />
    <line x1="86.80" y1="149.20" x2="86.80" y2="151.60" />
    <line x1="86.80" y1="151.60" x2="86.20" y2="152.20" />
    <line x1="86.20" y1="152.20" x2="85.00" y2="152.20" />
    <line x1="85.00" y1="152.20" x2="84.40" y2="151.60" />
    <line x1="84.40" y1="151.60" x2="84.40" y2="149.20" />
    <line x1="84.40" y1="149.20" x2="85.00" y2="148.60" />
    <line x1="4.00" y1="156.00" x2="4.00" y2="160.20" />
    <line x1="4.00" y1="160.20" x2="5.80" y2="160.20" />
    <line x1="5.80" y1="160.20" x2="6.40" y2="159.60" />
    <line x1="6.40" y1="159.60" x2="6.40" y2="158.40" />
    <line x1="6.40" y1="158.40" x2="5.80" y2="157.80" />
    <line x1="5.80" y1="157.80" x2="4.00" y2="157.80" />
    <line x1="8.80" y1="156.00" x2="9.40" y2="156.00" />
    <line x1="9.40" y1="156.00" x2="9.40" y2="160.20" />
    <line x1="12.40" y1="157.80" x2="12.40" y2="159.60" />
    <line x1="12.40" y1="159.60" x2="13.00" y2="160.20" />
    <line x1="13.00" y1="160.20" x2="14.80" y2="160.20" />
    <line x1="14.80" y1="160.20" x2="14.80" y2="157.80" />
    <line x1="16.60" y1="160.20" x2="16.60" y2="157.80" />
    <line x1="16.60" y1="158.40" x2="17.20" y2="158.40" />
    <line x1="17.20" y1="158.40" x2="17.80" y2="157.80" />
    <line x1="17.80" y1="157.80" x2="18.40" y2="157.80" />
    <line x1="18.40" y1="157.80" x2="19.00" y2="158.40" />
    <line x1="22.60" y1="157.20" x2="23.20" y2="156.60" />
    <line x1="23.20" y1="156.60" x2="24.40" y2="156.60" />
    <line x1="24.40" y1="156.60" x2="25.00" y2="157.20" />
    <line x1="25.00" y1="157.20" x2="25.00" y2="157.80" />
    <line x1="25.00" y1="157.80" x2="24.40" y2="158.40" />
    <line x1="24.40" y1="158.40" x2="23.80" y2="158.40" />
    <line x1="23.80" y1="158.40" x2="22.60" y2="159.60" />
    <line x1="22.60" y1="159.60" x2="22.60" y2="160.20" />
    <line x1="22.60" y1="160.20" x2="25.00" y2="160.20" />
  </g>
</svg>