<svg xmlns="http://www.w3.org/2000/svg" width="1600" height="1600" viewBox="0 0 1600 1600">
  <defs>
    <linearGradient id="ges" x1="0" y1="0" x2="1" y2="0">
      <stop offset="0" stop-color="#b44887"/>
      <stop offset="0.55" stop-color="#7850b4"/>
      <stop offset="1" stop-color="#46c85a"/>
    </linearGradient>
  </defs>
  <rect width="1600" height="1600" fill="#fdfdfb"/>
  <circle cx="250" cy="300" r="40" fill="none" stroke="#40384a" stroke-width="1.4" stroke-opacity="0.045"/><circle cx="250" cy="300" r="74" fill="none" stroke="#40384a" stroke-width="1.4" stroke-opacity="0.045"/><circle cx="250" cy="300" r="108" fill="none" stroke="#40384a" stroke-width="1.4" stroke-opacity="0.045"/><circle cx="250" cy="300" r="142" fill="none" stroke="#40384a" stroke-width="1.4" stroke-opacity="0.045"/><circle cx="250" cy="300" r="176" fill="none" stroke="#40384a" stroke-width="1.4" stroke-opacity="0.045"/><circle cx="250" cy="300" r="210" fill="none" stroke="#40384a" stroke-width="1.4" stroke-opacity="0.045"/><circle cx="250" cy="300" r="244" fill="none" stroke="#40384a" stroke-width="1.4" stroke-opacity="0.045"/><circle cx="250" cy="300" r="278" fill="none" stroke="#40384a" stroke-width="1.4" stroke-opacity="0.045"/><circle cx="250" cy="300" r="312" fill="none" stroke="#40384a" stroke-width="1.4" stroke-opacity="0.045"/><circle cx="250" cy="300" r="346" fill="none" stroke="#40384a" stroke-width="1.4" stroke-opacity="0.045"/><circle cx="250" cy="300" r="380" fill="none" stroke="#40384a" stroke-width="1.4" stroke-opacity="0.045"/><circle cx="250" cy="300" r="414" fill="none" stroke="#40384a" stroke-width="1.4" stroke-opacity="0.045"/><circle cx="250" cy="300" r="448" fill="none" stroke="#40384a" stroke-width="1.4" stroke-opacity="0.045"/><circle cx="250" cy="300" r="482" fill="none" stroke="#40384a" stroke-width="1.4" stroke-opacity="0.045"/><circle cx="250" cy="300" r="516" fill="none" stroke="#40384a" stroke-width="1.4" stroke-opacity="0.045"/><circle cx="250" cy="300" r="550" fill="none" stroke="#40384a" stroke-width="1.4" stroke-opacity="0.045"/><circle cx="250" cy="300" r="584" fill="none" stroke="#40384a" stroke-width="1.4" stroke-opacity="0.045"/><circle cx="250" cy="300" r="618" fill="none" stroke="#40384a" stroke-width="1.4" stroke-opacity="0.045"/><circle cx="250" cy="300" r="652" fill="none" stroke="#40384a" stroke-width="1.4" stroke-opacity="0.045"/><circle cx="250" cy="300" r="686" fill="none" stroke="#40384a" stroke-width="1.4" stroke-opacity="0.045"/><circle cx="250" cy="300" r="720" fill="none" stroke="#40384a" stroke-width="1.4" stroke-opacity="0.045"/><circle cx="250" cy="300" r="754" fill="none" stroke="#40384a" stroke-width="1.4" stroke-opacity="0.045"/><circle cx="250" cy="300" r="788" fill="none" stroke="#40384a" stroke-width="1.4" stroke-opacity="0.045"/><circle cx="250" cy="300" r="822" fill="none" stroke="#40384a" stroke-width="1.4" stroke-opacity="0.045"/><circle cx="250" cy="300" r="856" fill="none" stroke="#40384a" stroke-width="1.4" stroke-opacity="0.045"/><circle cx="250" cy="300" r="890" fill="none" stroke="#40384a" stroke-width="1.4" stroke-opacity="0.045"/><circle cx="250" cy="300" r="924" fill="none" stroke="#40384a" stroke-width="1.4" stroke-opacity="0.045"/><circle cx="250" cy="300" r="958" fill="none" stroke="#40384a" stroke-width="1.4" stroke-opacity="0.045"/><circle cx="250" cy="300" r="992" fill="none" stroke="#40384a" stroke-width="1.4" stroke-opacity="0.045"/><circle cx="250" cy="300" r="1026" fill="none" stroke="#40384a" stroke-width="1.4" stroke-opacity="0.045"/><circle cx="250" cy="300" r="1060" fill="none" stroke="#40384a" stroke-width="1.4" stroke-opacity="0.045"/><circle cx="250" cy="300" r="1094" fill="none" stroke="#40384a" stroke-width="1.4" stroke-opacity="0.045"/><circle cx="250" cy="300" r="1128" fill="none" stroke="#40384a" stroke-width="1.4" stroke-opacity="0.045"/><circle cx="250" cy="300" r="1162" fill="none" stroke="#40384a" stroke-width="1.4" stroke-opacity="0.045"/><circle cx="250" cy="300" r="1196" fill="none" stroke="#40384a" stroke-width="1.4" stroke-opacity="0.045"/><circle cx="250" cy="300" r="1230" fill="none" stroke="#40384a" stroke-width="1.4" stroke-opacity="0.045"/><circle cx="250" cy="300" r="1264" fill="none" stroke="#40384a" stroke-width="1.4" stroke-opacity="0.045"/><circle cx="250" cy="300" r="1298" fill="none" stroke="#40384a" stroke-width="1.4" stroke-opacity="0.045"/><circle cx="250" cy="300" r="1332" fill="none" stroke="#40384a" stroke-width="1.4" stroke-opacity="0.045"/><circle cx="250" cy="300" r="1366" fill="none" stroke="#40384a" stroke-width="1.4" stroke-opacity="0.045"/><circle cx="250" cy="300" r="1400" fill="none" stroke="#40384a" stroke-width="1.4" stroke-opacity="0.045"/><circle cx="250" cy="300" r="1434" fill="none" stroke="#40384a" stroke-width="1.4" stroke-opacity="0.045"/><circle cx="250" cy="300" r="1468" fill="none" stroke="#40384a" stroke-width="1.4" stroke-opacity="0.045"/>
  <line x1="200" y1="560" x2="1360" y2="560" stroke="#8a8390" stroke-width="1.2" stroke-opacity="0.28" stroke-dasharray="1 9"/><text x="174" y="572" font-family="'Latin Modern Mono','Courier New',monospace" font-size="34" fill="#8a8390" text-anchor="end">2×</text><line x1="200" y1="720" x2="1360" y2="720" stroke="#8a8390" stroke-width="1.2" stroke-opacity="0.28" stroke-dasharray="1 9"/><text x="174" y="732" font-family="'Latin Modern Mono','Courier New',monospace" font-size="34" fill="#8a8390" text-anchor="end">1.5×</text><line x1="200" y1="880" x2="1360" y2="880" stroke="#8a8390" stroke-width="1.2" stroke-opacity="0.28" stroke-dasharray="1 9"/><text x="174" y="892" font-family="'Latin Modern Mono','Courier New',monospace" font-size="34" fill="#8a8390" text-anchor="end">1×</text><line x1="200" y1="1040" x2="1360" y2="1040" stroke="#8a8390" stroke-width="1.2" stroke-opacity="0.28" stroke-dasharray="1 9"/><text x="174" y="1052" font-family="'Latin Modern Mono','Courier New',monospace" font-size="34" fill="#8a8390" text-anchor="end">0.5×</text>
  <path d="M 200.0 560 L 204.5 560 L 208.9 560 L 213.4 560 L 217.8 560 L 222.3 560 L 226.8 560 L 231.2 560 L 235.7 560 L 240.2 560 L 244.6 560 L 249.1 560 L 253.5 560 L 258.0 560 L 262.5 560 L 266.9 560 L 271.4 560 L 275.8 560 L 280.3 560 L 284.8 560 L 289.2 560 L 293.7 560 L 298.2 560 L 302.6 560 L 307.1 560 L 311.5 560 L 316.0 560 L 320.5 560 L 324.9 560 L 329.4 560 L 333.8 560 L 338.3 560 L 342.8 560 L 347.2 560 L 351.7 560 L 356.2 560 L 360.6 560 L 365.1 560 L 369.5 560 L 374.0 560 L 378.5 560 L 382.9 560 L 387.4 560 L 391.8 560 L 396.3 560 L 400.8 560 L 405.2 560 L 409.7 560 L 414.2 560 L 418.6 560 L 423.1 560 L 427.5 560 L 432.0 560 L 436.5 560 L 440.9 560 L 445.4 560 L 449.8 560 L 454.3 560 L 458.8 560 L 463.2 560 L 467.7 560 L 472.2 560 L 476.6 560 L 481.1 560 L 485.5 560 L 490.0 560 L 494.5 560 L 498.9 560 L 503.4 560 L 507.8 560 L 512.3 560 L 516.8 560 L 521.2 560 L 525.7 560 L 530.2 560 L 534.6 560 L 539.1 560 L 543.5 560 L 548.0 560 L 552.5 560 L 556.9 560 L 561.4 560 L 565.8 560 L 570.3 560 L 574.8 560 L 579.2 560 L 583.7 560 L 588.2 560 L 592.6 560 L 597.1 560 L 601.5 560 L 606.0 560 L 610.5 560 L 614.9 560 L 619.4 560 L 623.8 560 L 628.3 560 L 632.8 560 L 637.2 560 L 641.7 560 L 646.2 560 L 650.6 560 L 655.1 560 L 659.5 560 L 664.0 560 L 668.5 560 L 672.9 560 L 677.4 560 L 681.8 560 L 686.3 560 L 690.8 560 L 695.2 560 L 699.7 560 L 704.2 560 L 708.6 560 L 713.1 560 L 717.5 560 L 722.0 560 L 726.5 560 L 730.9 560 L 735.4 560 L 739.8 560 L 744.3 560 L 748.8 560 L 753.2 560 L 757.7 560 L 762.2 560 L 766.6 560 L 771.1 560 L 775.5 560 L 780.0 560 L 784.5 560 L 788.9 560 L 793.4 560 L 797.8 560 L 802.3 560 L 806.8 560 L 811.2 560 L 815.7 560 L 820.2 560 L 824.6 560 L 829.1 560 L 833.5 560 L 838.0 560 L 842.5 560 L 846.9 560 L 851.4 560 L 855.8 560 L 860.3 560 L 864.8 560 L 869.2 560 L 873.7 560 L 878.2 560 L 882.6 560 L 887.1 560 L 891.5 560 L 896.0 560 L 900.5 560 L 904.9 560 L 909.4 560 L 913.8 560 L 918.3 560 L 922.8 560 L 927.2 560 L 931.7 560 L 936.2 560 L 940.6 560 L 945.1 560 L 949.5 560 L 954.0 560 L 958.5 560 L 962.9 560 L 967.4 560 L 971.8 560 L 976.3 560 L 980.8 560 L 985.2 560 L 989.7 560 L 994.2 560 L 998.6 560 L 1003.1 560 L 1007.5 560 L 1012.0 560 L 1016.5 560 L 1020.9 560 L 1025.4 560 L 1029.8 560 L 1034.3 560 L 1038.8 560 L 1043.2 560 L 1047.7 560 L 1052.2 560 L 1056.6 560 L 1061.1 560 L 1061.1 720 L 1065.5 720 L 1070.0 720 L 1074.5 720 L 1078.9 720 L 1083.4 720 L 1087.8 720 L 1092.3 720 L 1096.8 720 L 1101.2 720 L 1105.7 720 L 1110.2 720 L 1114.6 720 L 1119.1 720 L 1123.5 720 L 1128.0 720 L 1132.5 720 L 1136.9 720 L 1136.9 880 L 1141.4 880 L 1145.8 880 L 1150.3 880 L 1154.8 880 L 1159.2 880 L 1163.7 880 L 1168.2 880 L 1172.6 880 L 1177.1 880 L 1181.5 880 L 1186.0 880 L 1190.5 880 L 1194.9 880 L 1199.4 880 L 1203.8 880 L 1208.3 880 L 1212.8 880 L 1217.2 880 L 1221.7 880 L 1226.2 880 L 1230.6 880 L 1235.1 880 L 1239.5 880 L 1244.0 880 L 1248.5 880 L 1252.9 880 L 1257.4 880 L 1257.4 1040 L 1261.8 1040 L 1266.3 1040 L 1270.8 1040 L 1275.2 1040 L 1279.7 1040 L 1284.2 1040 L 1288.6 1040 L 1293.1 1040 L 1297.5 1040 L 1302.0 1040 L 1306.5 1040 L 1310.9 1040 L 1315.4 1040 L 1319.8 1040 L 1324.3 1040 L 1328.8 1040 L 1333.2 1040 L 1337.7 1040 L 1342.2 1040 L 1346.6 1040 L 1351.1 1040 L 1355.5 1040 L 1360.0 1040" fill="none" stroke="#8a8390" stroke-width="9" stroke-linejoin="round" stroke-linecap="round" stroke-opacity="0.9"/>
  <line x1="235.7" y1="530.7" x2="235.7" y2="560" stroke="#b44887" stroke-width="3" stroke-opacity="0.55" stroke-dasharray="2 7" stroke-linecap="round"/><line x1="289.2" y1="500.0" x2="289.2" y2="560" stroke="#b44887" stroke-width="3" stroke-opacity="0.55" stroke-dasharray="2 7" stroke-linecap="round"/><line x1="342.8" y1="500.0" x2="342.8" y2="560" stroke="#b44887" stroke-width="3" stroke-opacity="0.55" stroke-dasharray="2 7" stroke-linecap="round"/><line x1="396.3" y1="532.2" x2="396.3" y2="560" stroke="#b44887" stroke-width="3" stroke-opacity="0.55" stroke-dasharray="2 7" stroke-linecap="round"/><line x1="449.8" y1="575.4" x2="449.8" y2="560" stroke="#b44887" stroke-width="3" stroke-opacity="0.55" stroke-dasharray="2 7" stroke-linecap="round"/><line x1="503.4" y1="587.7" x2="503.4" y2="560" stroke="#b44887" stroke-width="3" stroke-opacity="0.55" stroke-dasharray="2 7" stroke-linecap="round"/><line x1="556.9" y1="577.1" x2="556.9" y2="560" stroke="#b44887" stroke-width="3" stroke-opacity="0.55" stroke-dasharray="2 7" stroke-linecap="round"/><line x1="664.0" y1="590.1" x2="664.0" y2="560" stroke="#b44887" stroke-width="3" stroke-opacity="0.55" stroke-dasharray="2 7" stroke-linecap="round"/><line x1="717.5" y1="621.5" x2="717.5" y2="560" stroke="#b44887" stroke-width="3" stroke-opacity="0.55" stroke-dasharray="2 7" stroke-linecap="round"/><line x1="771.1" y1="635.0" x2="771.1" y2="560" stroke="#b44887" stroke-width="3" stroke-opacity="0.55" stroke-dasharray="2 7" stroke-linecap="round"/><line x1="824.6" y1="609.0" x2="824.6" y2="560" stroke="#b44887" stroke-width="3" stroke-opacity="0.55" stroke-dasharray="2 7" stroke-linecap="round"/><line x1="931.7" y1="513.5" x2="931.7" y2="560" stroke="#b44887" stroke-width="3" stroke-opacity="0.55" stroke-dasharray="2 7" stroke-linecap="round"/><line x1="985.2" y1="525.5" x2="985.2" y2="560" stroke="#b44887" stroke-width="3" stroke-opacity="0.55" stroke-dasharray="2 7" stroke-linecap="round"/><line x1="1038.8" y1="601.2" x2="1038.8" y2="560" stroke="#b44887" stroke-width="3" stroke-opacity="0.55" stroke-dasharray="2 7" stroke-linecap="round"/><line x1="1145.8" y1="820.2" x2="1145.8" y2="880" stroke="#b44887" stroke-width="3" stroke-opacity="0.55" stroke-dasharray="2 7" stroke-linecap="round"/><line x1="1199.4" y1="898.4" x2="1199.4" y2="880" stroke="#b44887" stroke-width="3" stroke-opacity="0.55" stroke-dasharray="2 7" stroke-linecap="round"/><line x1="1252.9" y1="955.7" x2="1252.9" y2="880" stroke="#b44887" stroke-width="3" stroke-opacity="0.55" stroke-dasharray="2 7" stroke-linecap="round"/><line x1="1306.5" y1="1017.3" x2="1306.5" y2="1040" stroke="#b44887" stroke-width="3" stroke-opacity="0.55" stroke-dasharray="2 7" stroke-linecap="round"/>
  <path d="M 200.0 601.4 L 204.5 591.6 L 208.9 581.9 L 213.4 572.6 L 217.8 563.5 L 222.3 554.8 L 226.8 546.4 L 231.2 538.4 L 235.7 530.7 L 240.2 523.5 L 244.6 516.7 L 249.1 510.3 L 253.5 504.4 L 258.0 500.0 L 262.5 500.0 L 266.9 500.0 L 271.4 500.0 L 275.8 500.0 L 280.3 500.0 L 284.8 500.0 L 289.2 500.0 L 293.7 500.0 L 298.2 500.0 L 302.6 500.0 L 307.1 500.0 L 311.5 500.0 L 316.0 500.0 L 320.5 500.0 L 324.9 500.0 L 329.4 500.0 L 333.8 500.0 L 338.3 500.0 L 342.8 500.0 L 347.2 500.0 L 351.7 500.0 L 356.2 500.0 L 360.6 500.0 L 365.1 502.0 L 369.5 506.1 L 374.0 510.3 L 378.5 514.6 L 382.9 519.0 L 387.4 523.4 L 391.8 527.8 L 396.3 532.2 L 400.8 536.6 L 405.2 540.8 L 409.7 545.0 L 414.2 549.1 L 418.6 553.0 L 423.1 556.8 L 427.5 560.4 L 432.0 563.8 L 436.5 567.0 L 440.9 570.0 L 445.4 572.8 L 449.8 575.4 L 454.3 577.7 L 458.8 579.8 L 463.2 581.6 L 467.7 583.2 L 472.2 584.6 L 476.6 585.7 L 481.1 586.6 L 485.5 587.2 L 490.0 587.6 L 494.5 587.9 L 498.9 587.9 L 503.4 587.7 L 507.8 587.4 L 512.3 586.9 L 516.8 586.2 L 521.2 585.5 L 525.7 584.6 L 530.2 583.7 L 534.6 582.6 L 539.1 581.5 L 543.5 580.4 L 548.0 579.3 L 552.5 578.2 L 556.9 577.1 L 561.4 576.0 L 565.8 575.1 L 570.3 574.1 L 574.8 573.3 L 579.2 572.6 L 583.7 572.0 L 588.2 571.6 L 592.6 571.3 L 597.1 571.1 L 601.5 571.2 L 606.0 571.4 L 610.5 571.7 L 614.9 572.3 L 619.4 573.0 L 623.8 574.0 L 628.3 575.1 L 632.8 576.4 L 637.2 577.9 L 641.7 579.5 L 646.2 581.4 L 650.6 583.3 L 655.1 585.5 L 659.5 587.7 L 664.0 590.1 L 668.5 592.6 L 672.9 595.1 L 677.4 597.8 L 681.8 600.5 L 686.3 603.2 L 690.8 605.9 L 695.2 608.7 L 699.7 611.4 L 704.2 614.0 L 708.6 616.6 L 713.1 619.1 L 717.5 621.5 L 722.0 623.8 L 726.5 625.9 L 730.9 627.8 L 735.4 629.6 L 739.8 631.1 L 744.3 632.4 L 748.8 633.5 L 753.2 634.4 L 757.7 635.0 L 762.2 635.3 L 766.6 635.3 L 771.1 635.0 L 775.5 634.5 L 780.0 633.6 L 784.5 632.4 L 788.9 631.0 L 793.4 629.2 L 797.8 627.2 L 802.3 624.8 L 806.8 622.2 L 811.2 619.3 L 815.7 616.1 L 820.2 612.7 L 824.6 609.0 L 829.1 605.2 L 833.5 601.1 L 838.0 596.9 L 842.5 592.5 L 846.9 588.0 L 851.4 583.4 L 855.8 578.7 L 860.3 573.9 L 864.8 569.1 L 869.2 564.4 L 873.7 559.6 L 878.2 554.9 L 882.6 550.3 L 887.1 545.8 L 891.5 541.5 L 896.0 537.3 L 900.5 533.4 L 904.9 529.6 L 909.4 526.2 L 913.8 523.0 L 918.3 520.1 L 922.8 517.5 L 927.2 515.3 L 931.7 513.5 L 936.2 512.0 L 940.6 511.0 L 945.1 510.4 L 949.5 510.2 L 954.0 510.5 L 958.5 511.2 L 962.9 512.4 L 967.4 514.1 L 971.8 516.2 L 976.3 518.9 L 980.8 522.0 L 985.2 525.5 L 989.7 529.6 L 994.2 534.0 L 998.6 539.0 L 1003.1 544.4 L 1007.5 550.2 L 1012.0 556.4 L 1016.5 563.0 L 1020.9 569.9 L 1025.4 577.3 L 1029.8 584.9 L 1034.3 592.9 L 1038.8 601.2 L 1043.2 609.7 L 1047.7 618.4 L 1052.2 627.4 L 1056.6 636.6 L 1061.1 645.9 L 1065.5 655.3 L 1070.0 664.9 L 1074.5 674.5 L 1078.9 684.2 L 1083.4 693.9 L 1087.8 703.6 L 1092.3 713.2 L 1096.8 722.9 L 1101.2 732.4 L 1105.7 741.9 L 1110.2 751.3 L 1114.6 760.5 L 1119.1 769.6 L 1123.5 778.5 L 1128.0 787.3 L 1132.5 795.8 L 1136.9 804.2 L 1141.4 812.3 L 1145.8 820.2 L 1150.3 828.0 L 1154.8 835.4 L 1159.2 842.7 L 1163.7 849.7 L 1168.2 856.5 L 1172.6 863.1 L 1177.1 869.5 L 1181.5 875.6 L 1186.0 881.6 L 1190.5 887.4 L 1194.9 893.0 L 1199.4 898.4 L 1203.8 903.6 L 1208.3 908.8 L 1212.8 913.8 L 1217.2 918.6 L 1221.7 923.4 L 1226.2 928.1 L 1230.6 932.8 L 1235.1 937.4 L 1239.5 942.0 L 1244.0 946.6 L 1248.5 951.1 L 1252.9 955.7 L 1257.4 960.4 L 1261.8 965.1 L 1266.3 969.8 L 1270.8 974.7 L 1275.2 979.6 L 1279.7 984.6 L 1284.2 989.8 L 1288.6 995.0 L 1293.1 1000.4 L 1297.5 1005.9 L 1302.0 1011.5 L 1306.5 1017.3 L 1310.9 1023.2 L 1315.4 1029.2 L 1319.8 1035.3 L 1324.3 1041.6 L 1328.8 1048.0 L 1333.2 1054.4 L 1337.7 1061.0 L 1342.2 1067.7 L 1346.6 1074.4 L 1351.1 1081.1 L 1355.5 1087.9 L 1360.0 1090.0" fill="none" stroke="url(#ges)" stroke-width="12" stroke-linejoin="round" stroke-linecap="round"/>
  <circle cx="235.7" cy="530.7" r="4.5" fill="#b44887"/><circle cx="289.2" cy="500.0" r="4.5" fill="#b44887"/><circle cx="342.8" cy="500.0" r="4.5" fill="#b44887"/><circle cx="396.3" cy="532.2" r="4.5" fill="#b44887"/><circle cx="449.8" cy="575.4" r="4.5" fill="#b44887"/><circle cx="503.4" cy="587.7" r="4.5" fill="#b44887"/><circle cx="556.9" cy="577.1" r="4.5" fill="#b44887"/><circle cx="664.0" cy="590.1" r="4.5" fill="#b44887"/><circle cx="717.5" cy="621.5" r="4.5" fill="#b44887"/><circle cx="771.1" cy="635.0" r="4.5" fill="#b44887"/><circle cx="824.6" cy="609.0" r="4.5" fill="#b44887"/><circle cx="931.7" cy="513.5" r="4.5" fill="#b44887"/><circle cx="985.2" cy="525.5" r="4.5" fill="#b44887"/><circle cx="1038.8" cy="601.2" r="4.5" fill="#b44887"/><circle cx="1145.8" cy="820.2" r="4.5" fill="#b44887"/><circle cx="1199.4" cy="898.4" r="4.5" fill="#b44887"/><circle cx="1252.9" cy="955.7" r="4.5" fill="#b44887"/><circle cx="1306.5" cy="1017.3" r="4.5" fill="#b44887"/>
  <circle cx="780.0" cy="633.6" r="26" fill="none" stroke="#b44887" stroke-width="5"/>
  <circle cx="780.0" cy="633.6" r="10" fill="#ffffff" stroke="#7850b4" stroke-width="4"/>
  <rect x="1090" y="1180" width="300" height="306" rx="14" fill="#ffffff" stroke="#8a8390" stroke-width="2.4"/><text x="1118" y="1227" font-family="'Latin Modern Mono','Courier New',monospace" font-size="34" fill="#40384a">0.5×</text><text x="1118" y="1285" font-family="'Latin Modern Mono','Courier New',monospace" font-size="34" fill="#40384a">1×</text><text x="1118" y="1343" font-family="'Latin Modern Mono','Courier New',monospace" font-size="34" fill="#40384a">1.25×</text><rect x="1096" y="1362" width="288" height="58" rx="8" fill="#7850b4" fill-opacity="0.14"/><text x="1118" y="1401" font-family="'Latin Modern Mono','Courier New',monospace" font-size="34" fill="#7850b4">1.5×</text><circle cx="1356" cy="1391" r="7" fill="#7850b4"/><text x="1118" y="1459" font-family="'Latin Modern Mono','Courier New',monospace" font-size="34" fill="#40384a">2×</text>
</svg>